solid surface_model
  facet normal -5.690257e-01 -5.690257e-01 5.936494e-01
    outer loop
      vertex 8.907775e-01 -8.907775e-01 7.401487e-17
      vertex 1.272387e-01 3.817516e-01 4.878781e-01
      vertex -1.272387e-01 -3.817516e-01 -4.878781e-01
    endloop
  endfacet
  facet normal -5.439638e-01 -3.626153e-01 7.567123e-01
    outer loop
      vertex 8.907775e-01 -8.907775e-01 7.401487e-17
      vertex -1.272387e-01 -3.817516e-01 -4.878781e-01
      vertex -1.272387e-01 -1.399803e+00 -9.757269e-01
    endloop
  endfacet
  facet normal -5.489946e-01 8.234685e-01 1.431943e-01
    outer loop
      vertex 8.907775e-01 -8.907775e-01 7.401487e-17
      vertex -1.272387e-01 -1.399803e+00 -9.757269e-01
      vertex -3.817516e-01 -1.654316e+00 -4.878781e-01
    endloop
  endfacet
  facet normal -5.690257e-01 5.690257e-01 5.936494e-01
    outer loop
      vertex 8.907775e-01 -8.907775e-01 7.401487e-17
      vertex -3.817516e-01 -1.654316e+00 -4.878781e-01
      vertex 3.817516e-01 -1.908794e+00 4.878781e-01
    endloop
  endfacet
  facet normal -3.626153e-01 5.439638e-01 7.567123e-01
    outer loop
      vertex 8.907775e-01 -8.907775e-01 7.401487e-17
      vertex 3.817516e-01 -1.908794e+00 4.878781e-01
      vertex 1.399803e+00 -1.908794e+00 9.757269e-01
    endloop
  endfacet
  facet normal 8.234685e-01 5.489946e-01 1.431943e-01
    outer loop
      vertex 8.907775e-01 -8.907775e-01 7.401487e-17
      vertex 1.399803e+00 -1.908794e+00 9.757269e-01
      vertex 1.654316e+00 -2.163307e+00 4.878781e-01
    endloop
  endfacet
  facet normal 5.690257e-01 5.690257e-01 5.936494e-01
    outer loop
      vertex 8.907775e-01 -8.907775e-01 7.401487e-17
      vertex 1.654316e+00 -2.163307e+00 4.878781e-01
      vertex 1.908794e+00 -1.399803e+00 -4.878781e-01
    endloop
  endfacet
  facet normal 5.439638e-01 3.626153e-01 7.567123e-01
    outer loop
      vertex 8.907775e-01 -8.907775e-01 7.401487e-17
      vertex 1.908794e+00 -1.399803e+00 -4.878781e-01
      vertex 1.908794e+00 -3.817516e-01 -9.757269e-01
    endloop
  endfacet
  facet normal 5.489946e-01 -8.234685e-01 1.431943e-01
    outer loop
      vertex 8.907775e-01 -8.907775e-01 7.401487e-17
      vertex 1.908794e+00 -3.817516e-01 -9.757269e-01
      vertex 2.163307e+00 -1.272387e-01 -4.878781e-01
    endloop
  endfacet
  facet normal 5.690257e-01 -5.690257e-01 5.936494e-01
    outer loop
      vertex 8.907775e-01 -8.907775e-01 7.401487e-17
      vertex 2.163307e+00 -1.272387e-01 -4.878781e-01
      vertex 1.399803e+00 1.272387e-01 4.878781e-01
    endloop
  endfacet
  facet normal 3.626153e-01 -5.439638e-01 7.567123e-01
    outer loop
      vertex 8.907775e-01 -8.907775e-01 7.401487e-17
      vertex 1.399803e+00 1.272387e-01 4.878781e-01
      vertex 3.817516e-01 1.272387e-01 9.757269e-01
    endloop
  endfacet
  facet normal -8.234685e-01 -5.489946e-01 1.431943e-01
    outer loop
      vertex 8.907775e-01 -8.907775e-01 7.401487e-17
      vertex 3.817516e-01 1.272387e-01 9.757269e-01
      vertex 1.272387e-01 3.817516e-01 4.878781e-01
    endloop
  endfacet
  facet normal -5.690257e-01 -5.690257e-01 5.936494e-01
    outer loop
      vertex 2.672332e+00 4.453887e+00 2.927210e+00
      vertex 3.435871e+00 3.181358e+00 2.439332e+00
      vertex 3.690349e+00 3.944862e+00 3.415088e+00
    endloop
  endfacet
  facet normal -5.439638e-01 -3.626153e-01 7.567123e-01
    outer loop
      vertex 2.672332e+00 4.453887e+00 2.927210e+00
      vertex 3.690349e+00 3.944862e+00 3.415088e+00
      vertex 3.690349e+00 4.962913e+00 3.902937e+00
    endloop
  endfacet
  facet normal -5.489946e-01 8.234685e-01 1.431943e-01
    outer loop
      vertex 2.672332e+00 4.453887e+00 2.927210e+00
      vertex 3.690349e+00 4.962913e+00 3.902937e+00
      vertex 3.944862e+00 5.217426e+00 3.415088e+00
    endloop
  endfacet
  facet normal -5.690257e-01 5.690257e-01 5.936494e-01
    outer loop
      vertex 2.672332e+00 4.453887e+00 2.927210e+00
      vertex 3.944862e+00 5.217426e+00 3.415088e+00
      vertex 3.181358e+00 5.471904e+00 2.439332e+00
    endloop
  endfacet
  facet normal -3.626153e-01 5.439638e-01 7.567123e-01
    outer loop
      vertex 2.672332e+00 4.453887e+00 2.927210e+00
      vertex 3.181358e+00 5.471904e+00 2.439332e+00
      vertex 2.163307e+00 5.471904e+00 1.951483e+00
    endloop
  endfacet
  facet normal 8.234685e-01 5.489946e-01 1.431943e-01
    outer loop
      vertex 2.672332e+00 4.453887e+00 2.927210e+00
      vertex 2.163307e+00 5.471904e+00 1.951483e+00
      vertex 1.908794e+00 5.726417e+00 2.439332e+00
    endloop
  endfacet
  facet normal 5.690257e-01 5.690257e-01 5.936494e-01
    outer loop
      vertex 2.672332e+00 4.453887e+00 2.927210e+00
      vertex 1.908794e+00 5.726417e+00 2.439332e+00
      vertex 1.654316e+00 4.962913e+00 3.415088e+00
    endloop
  endfacet
  facet normal 5.439638e-01 3.626153e-01 7.567123e-01
    outer loop
      vertex 2.672332e+00 4.453887e+00 2.927210e+00
      vertex 1.654316e+00 4.962913e+00 3.415088e+00
      vertex 1.654316e+00 3.944862e+00 3.902937e+00
    endloop
  endfacet
  facet normal 5.489946e-01 -8.234685e-01 1.431943e-01
    outer loop
      vertex 2.672332e+00 4.453887e+00 2.927210e+00
      vertex 1.654316e+00 3.944862e+00 3.902937e+00
      vertex 1.399803e+00 3.690349e+00 3.415088e+00
    endloop
  endfacet
  facet normal 5.690257e-01 -5.690257e-01 5.936494e-01
    outer loop
      vertex 2.672332e+00 4.453887e+00 2.927210e+00
      vertex 1.399803e+00 3.690349e+00 3.415088e+00
      vertex 2.163307e+00 3.435871e+00 2.439332e+00
    endloop
  endfacet
  facet normal 3.626153e-01 -5.439638e-01 7.567123e-01
    outer loop
      vertex 2.672332e+00 4.453887e+00 2.927210e+00
      vertex 2.163307e+00 3.435871e+00 2.439332e+00
      vertex 3.181358e+00 3.435871e+00 1.951483e+00
    endloop
  endfacet
  facet normal -8.234685e-01 -5.489946e-01 1.431943e-01
    outer loop
      vertex 2.672332e+00 4.453887e+00 2.927210e+00
      vertex 3.181358e+00 3.435871e+00 1.951483e+00
      vertex 3.435871e+00 3.181358e+00 2.439332e+00
    endloop
  endfacet
  facet normal -5.690257e-01 -5.690257e-01 -5.936494e-01
    outer loop
      vertex -8.907775e-01 8.907775e-01 1.463605e+00
      vertex 3.817516e-01 1.272387e-01 9.757269e-01
      vertex -3.817516e-01 -1.272387e-01 1.951483e+00
    endloop
  endfacet
  facet normal -3.626153e-01 -5.439638e-01 -7.567123e-01
    outer loop
      vertex -8.907775e-01 8.907775e-01 1.463605e+00
      vertex -3.817516e-01 -1.272387e-01 1.951483e+00
      vertex -1.399803e+00 -1.272387e-01 2.439332e+00
    endloop
  endfacet
  facet normal 8.234685e-01 -5.489946e-01 -1.431943e-01
    outer loop
      vertex -8.907775e-01 8.907775e-01 1.463605e+00
      vertex -1.399803e+00 -1.272387e-01 2.439332e+00
      vertex -1.654316e+00 -3.817516e-01 1.951483e+00
    endloop
  endfacet
  facet normal 5.690257e-01 -5.690257e-01 -5.936494e-01
    outer loop
      vertex -8.907775e-01 8.907775e-01 1.463605e+00
      vertex -1.654316e+00 -3.817516e-01 1.951483e+00
      vertex -1.908794e+00 3.817516e-01 9.757269e-01
    endloop
  endfacet
  facet normal 5.439638e-01 -3.626153e-01 -7.567123e-01
    outer loop
      vertex -8.907775e-01 8.907775e-01 1.463605e+00
      vertex -1.908794e+00 3.817516e-01 9.757269e-01
      vertex -1.908794e+00 1.399803e+00 4.878781e-01
    endloop
  endfacet
  facet normal 5.489946e-01 8.234685e-01 -1.431943e-01
    outer loop
      vertex -8.907775e-01 8.907775e-01 1.463605e+00
      vertex -1.908794e+00 1.399803e+00 4.878781e-01
      vertex -2.163307e+00 1.654316e+00 9.757269e-01
    endloop
  endfacet
  facet normal 5.690257e-01 5.690257e-01 -5.936494e-01
    outer loop
      vertex -8.907775e-01 8.907775e-01 1.463605e+00
      vertex -2.163307e+00 1.654316e+00 9.757269e-01
      vertex -1.399803e+00 1.908794e+00 1.951483e+00
    endloop
  endfacet
  facet normal 3.626153e-01 5.439638e-01 -7.567123e-01
    outer loop
      vertex -8.907775e-01 8.907775e-01 1.463605e+00
      vertex -1.399803e+00 1.908794e+00 1.951483e+00
      vertex -3.817516e-01 1.908794e+00 2.439332e+00
    endloop
  endfacet
  facet normal -8.234685e-01 5.489946e-01 -1.431943e-01
    outer loop
      vertex -8.907775e-01 8.907775e-01 1.463605e+00
      vertex -3.817516e-01 1.908794e+00 2.439332e+00
      vertex -1.272387e-01 2.163307e+00 1.951483e+00
    endloop
  endfacet
  facet normal -5.690257e-01 5.690257e-01 -5.936494e-01
    outer loop
      vertex -8.907775e-01 8.907775e-01 1.463605e+00
      vertex -1.272387e-01 2.163307e+00 1.951483e+00
      vertex 1.272387e-01 1.399803e+00 9.757269e-01
    endloop
  endfacet
  facet normal -5.439638e-01 3.626153e-01 -7.567123e-01
    outer loop
      vertex -8.907775e-01 8.907775e-01 1.463605e+00
      vertex 1.272387e-01 1.399803e+00 9.757269e-01
      vertex 1.272387e-01 3.817516e-01 4.878781e-01
    endloop
  endfacet
  facet normal -5.489946e-01 -8.234685e-01 -1.431943e-01
    outer loop
      vertex -8.907775e-01 8.907775e-01 1.463605e+00
      vertex 1.272387e-01 3.817516e-01 4.878781e-01
      vertex 3.817516e-01 1.272387e-01 9.757269e-01
    endloop
  endfacet
  facet normal -5.690257e-01 -5.690257e-01 -5.936494e-01
    outer loop
      vertex 4.453887e+00 2.672332e+00 1.463605e+00
      vertex 3.181358e+00 3.435871e+00 1.951483e+00
      vertex 3.944862e+00 3.690349e+00 9.757269e-01
    endloop
  endfacet
  facet normal -3.626153e-01 -5.439638e-01 -7.567123e-01
    outer loop
      vertex 4.453887e+00 2.672332e+00 1.463605e+00
      vertex 3.944862e+00 3.690349e+00 9.757269e-01
      vertex 4.962913e+00 3.690349e+00 4.878781e-01
    endloop
  endfacet
  facet normal 8.234685e-01 -5.489946e-01 -1.431943e-01
    outer loop
      vertex 4.453887e+00 2.672332e+00 1.463605e+00
      vertex 4.962913e+00 3.690349e+00 4.878781e-01
      vertex 5.217426e+00 3.944862e+00 9.757269e-01
    endloop
  endfacet
  facet normal 5.690257e-01 -5.690257e-01 -5.936494e-01
    outer loop
      vertex 4.453887e+00 2.672332e+00 1.463605e+00
      vertex 5.217426e+00 3.944862e+00 9.757269e-01
      vertex 5.471904e+00 3.181358e+00 1.951483e+00
    endloop
  endfacet
  facet normal 5.439638e-01 -3.626153e-01 -7.567123e-01
    outer loop
      vertex 4.453887e+00 2.672332e+00 1.463605e+00
      vertex 5.471904e+00 3.181358e+00 1.951483e+00
      vertex 5.471904e+00 2.163307e+00 2.439332e+00
    endloop
  endfacet
  facet normal 5.489946e-01 8.234685e-01 -1.431943e-01
    outer loop
      vertex 4.453887e+00 2.672332e+00 1.463605e+00
      vertex 5.471904e+00 2.163307e+00 2.439332e+00
      vertex 5.726417e+00 1.908794e+00 1.951483e+00
    endloop
  endfacet
  facet normal 5.690257e-01 5.690257e-01 -5.936494e-01
    outer loop
      vertex 4.453887e+00 2.672332e+00 1.463605e+00
      vertex 5.726417e+00 1.908794e+00 1.951483e+00
      vertex 4.962913e+00 1.654316e+00 9.757269e-01
    endloop
  endfacet
  facet normal 3.626153e-01 5.439638e-01 -7.567123e-01
    outer loop
      vertex 4.453887e+00 2.672332e+00 1.463605e+00
      vertex 4.962913e+00 1.654316e+00 9.757269e-01
      vertex 3.944862e+00 1.654316e+00 4.878781e-01
    endloop
  endfacet
  facet normal -8.234685e-01 5.489946e-01 -1.431943e-01
    outer loop
      vertex 4.453887e+00 2.672332e+00 1.463605e+00
      vertex 3.944862e+00 1.654316e+00 4.878781e-01
      vertex 3.690349e+00 1.399803e+00 9.757269e-01
    endloop
  endfacet
  facet normal -5.690257e-01 5.690257e-01 -5.936494e-01
    outer loop
      vertex 4.453887e+00 2.672332e+00 1.463605e+00
      vertex 3.690349e+00 1.399803e+00 9.757269e-01
      vertex 3.435871e+00 2.163307e+00 1.951483e+00
    endloop
  endfacet
  facet normal -5.439638e-01 3.626153e-01 -7.567123e-01
    outer loop
      vertex 4.453887e+00 2.672332e+00 1.463605e+00
      vertex 3.435871e+00 2.163307e+00 1.951483e+00
      vertex 3.435871e+00 3.181358e+00 2.439332e+00
    endloop
  endfacet
  facet normal -5.489946e-01 -8.234685e-01 -1.431943e-01
    outer loop
      vertex 4.453887e+00 2.672332e+00 1.463605e+00
      vertex 3.435871e+00 3.181358e+00 2.439332e+00
      vertex 3.181358e+00 3.435871e+00 1.951483e+00
    endloop
  endfacet
  facet normal 5.690257e-01 -5.690257e-01 5.936494e-01
    outer loop
      vertex 2.672332e+00 8.907775e-01 7.401487e-17
      vertex 1.399803e+00 1.272387e-01 4.878781e-01
      vertex 2.163307e+00 -1.272387e-01 -4.878781e-01
    endloop
  endfacet
  facet normal 3.626153e-01 -5.439638e-01 7.567123e-01
    outer loop
      vertex 2.672332e+00 8.907775e-01 7.401487e-17
      vertex 2.163307e+00 -1.272387e-01 -4.878781e-01
      vertex 3.181358e+00 -1.272387e-01 -9.757269e-01
    endloop
  endfacet
  facet normal -8.234685e-01 -5.489946e-01 1.431943e-01
    outer loop
      vertex 2.672332e+00 8.907775e-01 7.401487e-17
      vertex 3.181358e+00 -1.272387e-01 -9.757269e-01
      vertex 3.435871e+00 -3.817516e-01 -4.878781e-01
    endloop
  endfacet
  facet normal -5.690257e-01 -5.690257e-01 5.936494e-01
    outer loop
      vertex 2.672332e+00 8.907775e-01 7.401487e-17
      vertex 3.435871e+00 -3.817516e-01 -4.878781e-01
      vertex 3.690349e+00 3.817516e-01 4.878781e-01
    endloop
  endfacet
  facet normal -5.439638e-01 -3.626153e-01 7.567123e-01
    outer loop
      vertex 2.672332e+00 8.907775e-01 7.401487e-17
      vertex 3.690349e+00 3.817516e-01 4.878781e-01
      vertex 3.690349e+00 1.399803e+00 9.757269e-01
    endloop
  endfacet
  facet normal -5.489946e-01 8.234685e-01 1.431943e-01
    outer loop
      vertex 2.672332e+00 8.907775e-01 7.401487e-17
      vertex 3.690349e+00 1.399803e+00 9.757269e-01
      vertex 3.944862e+00 1.654316e+00 4.878781e-01
    endloop
  endfacet
  facet normal -5.690257e-01 5.690257e-01 5.936494e-01
    outer loop
      vertex 2.672332e+00 8.907775e-01 7.401487e-17
      vertex 3.944862e+00 1.654316e+00 4.878781e-01
      vertex 3.181358e+00 1.908794e+00 -4.878781e-01
    endloop
  endfacet
  facet normal -3.626153e-01 5.439638e-01 7.567123e-01
    outer loop
      vertex 2.672332e+00 8.907775e-01 7.401487e-17
      vertex 3.181358e+00 1.908794e+00 -4.878781e-01
      vertex 2.163307e+00 1.908794e+00 -9.757269e-01
    endloop
  endfacet
  facet normal 8.234685e-01 5.489946e-01 1.431943e-01
    outer loop
      vertex 2.672332e+00 8.907775e-01 7.401487e-17
      vertex 2.163307e+00 1.908794e+00 -9.757269e-01
      vertex 1.908794e+00 2.163307e+00 -4.878781e-01
    endloop
  endfacet
  facet normal 5.690257e-01 5.690257e-01 5.936494e-01
    outer loop
      vertex 2.672332e+00 8.907775e-01 7.401487e-17
      vertex 1.908794e+00 2.163307e+00 -4.878781e-01
      vertex 1.654316e+00 1.399803e+00 4.878781e-01
    endloop
  endfacet
  facet normal 5.439638e-01 3.626153e-01 7.567123e-01
    outer loop
      vertex 2.672332e+00 8.907775e-01 7.401487e-17
      vertex 1.654316e+00 1.399803e+00 4.878781e-01
      vertex 1.654316e+00 3.817516e-01 9.757269e-01
    endloop
  endfacet
  facet normal 5.489946e-01 -8.234685e-01 1.431943e-01
    outer loop
      vertex 2.672332e+00 8.907775e-01 7.401487e-17
      vertex 1.654316e+00 3.817516e-01 9.757269e-01
      vertex 1.399803e+00 1.272387e-01 4.878781e-01
    endloop
  endfacet
  facet normal 5.690257e-01 -5.690257e-01 5.936494e-01
    outer loop
      vertex 8.907775e-01 2.672332e+00 2.927210e+00
      vertex 2.163307e+00 3.435871e+00 2.439332e+00
      vertex 1.399803e+00 3.690349e+00 3.415088e+00
    endloop
  endfacet
  facet normal 3.626153e-01 -5.439638e-01 7.567123e-01
    outer loop
      vertex 8.907775e-01 2.672332e+00 2.927210e+00
      vertex 1.399803e+00 3.690349e+00 3.415088e+00
      vertex 3.817516e-01 3.690349e+00 3.902937e+00
    endloop
  endfacet
  facet normal -8.234685e-01 -5.489946e-01 1.431943e-01
    outer loop
      vertex 8.907775e-01 2.672332e+00 2.927210e+00
      vertex 3.817516e-01 3.690349e+00 3.902937e+00
      vertex 1.272387e-01 3.944862e+00 3.415088e+00
    endloop
  endfacet
  facet normal -5.690257e-01 -5.690257e-01 5.936494e-01
    outer loop
      vertex 8.907775e-01 2.672332e+00 2.927210e+00
      vertex 1.272387e-01 3.944862e+00 3.415088e+00
      vertex -1.272387e-01 3.181358e+00 2.439332e+00
    endloop
  endfacet
  facet normal -5.439638e-01 -3.626153e-01 7.567123e-01
    outer loop
      vertex 8.907775e-01 2.672332e+00 2.927210e+00
      vertex -1.272387e-01 3.181358e+00 2.439332e+00
      vertex -1.272387e-01 2.163307e+00 1.951483e+00
    endloop
  endfacet
  facet normal -5.489946e-01 8.234685e-01 1.431943e-01
    outer loop
      vertex 8.907775e-01 2.672332e+00 2.927210e+00
      vertex -1.272387e-01 2.163307e+00 1.951483e+00
      vertex -3.817516e-01 1.908794e+00 2.439332e+00
    endloop
  endfacet
  facet normal -5.690257e-01 5.690257e-01 5.936494e-01
    outer loop
      vertex 8.907775e-01 2.672332e+00 2.927210e+00
      vertex -3.817516e-01 1.908794e+00 2.439332e+00
      vertex 3.817516e-01 1.654316e+00 3.415088e+00
    endloop
  endfacet
  facet normal -3.626153e-01 5.439638e-01 7.567123e-01
    outer loop
      vertex 8.907775e-01 2.672332e+00 2.927210e+00
      vertex 3.817516e-01 1.654316e+00 3.415088e+00
      vertex 1.399803e+00 1.654316e+00 3.902937e+00
    endloop
  endfacet
  facet normal 8.234685e-01 5.489946e-01 1.431943e-01
    outer loop
      vertex 8.907775e-01 2.672332e+00 2.927210e+00
      vertex 1.399803e+00 1.654316e+00 3.902937e+00
      vertex 1.654316e+00 1.399803e+00 3.415088e+00
    endloop
  endfacet
  facet normal 5.690257e-01 5.690257e-01 5.936494e-01
    outer loop
      vertex 8.907775e-01 2.672332e+00 2.927210e+00
      vertex 1.654316e+00 1.399803e+00 3.415088e+00
      vertex 1.908794e+00 2.163307e+00 2.439332e+00
    endloop
  endfacet
  facet normal 5.439638e-01 3.626153e-01 7.567123e-01
    outer loop
      vertex 8.907775e-01 2.672332e+00 2.927210e+00
      vertex 1.908794e+00 2.163307e+00 2.439332e+00
      vertex 1.908794e+00 3.181358e+00 1.951483e+00
    endloop
  endfacet
  facet normal 5.489946e-01 -8.234685e-01 1.431943e-01
    outer loop
      vertex 8.907775e-01 2.672332e+00 2.927210e+00
      vertex 1.908794e+00 3.181358e+00 1.951483e+00
      vertex 2.163307e+00 3.435871e+00 2.439332e+00
    endloop
  endfacet
  facet normal -5.690257e-01 5.690257e-01 5.936494e-01
    outer loop
      vertex -8.907775e-01 8.907775e-01 7.401487e-17
      vertex 3.817516e-01 1.654316e+00 4.878781e-01
      vertex -3.817516e-01 1.908794e+00 -4.878781e-01
    endloop
  endfacet
  facet normal -3.626153e-01 5.439638e-01 7.567123e-01
    outer loop
      vertex -8.907775e-01 8.907775e-01 7.401487e-17
      vertex -3.817516e-01 1.908794e+00 -4.878781e-01
      vertex -1.399803e+00 1.908794e+00 -9.757269e-01
    endloop
  endfacet
  facet normal 8.234685e-01 5.489946e-01 1.431943e-01
    outer loop
      vertex -8.907775e-01 8.907775e-01 7.401487e-17
      vertex -1.399803e+00 1.908794e+00 -9.757269e-01
      vertex -1.654316e+00 2.163307e+00 -4.878781e-01
    endloop
  endfacet
  facet normal 5.690257e-01 5.690257e-01 5.936494e-01
    outer loop
      vertex -8.907775e-01 8.907775e-01 7.401487e-17
      vertex -1.654316e+00 2.163307e+00 -4.878781e-01
      vertex -1.908794e+00 1.399803e+00 4.878781e-01
    endloop
  endfacet
  facet normal 5.439638e-01 3.626153e-01 7.567123e-01
    outer loop
      vertex -8.907775e-01 8.907775e-01 7.401487e-17
      vertex -1.908794e+00 1.399803e+00 4.878781e-01
      vertex -1.908794e+00 3.817516e-01 9.757269e-01
    endloop
  endfacet
  facet normal 5.489946e-01 -8.234685e-01 1.431943e-01
    outer loop
      vertex -8.907775e-01 8.907775e-01 7.401487e-17
      vertex -1.908794e+00 3.817516e-01 9.757269e-01
      vertex -2.163307e+00 1.272387e-01 4.878781e-01
    endloop
  endfacet
  facet normal 5.690257e-01 -5.690257e-01 5.936494e-01
    outer loop
      vertex -8.907775e-01 8.907775e-01 7.401487e-17
      vertex -2.163307e+00 1.272387e-01 4.878781e-01
      vertex -1.399803e+00 -1.272387e-01 -4.878781e-01
    endloop
  endfacet
  facet normal 3.626153e-01 -5.439638e-01 7.567123e-01
    outer loop
      vertex -8.907775e-01 8.907775e-01 7.401487e-17
      vertex -1.399803e+00 -1.272387e-01 -4.878781e-01
      vertex -3.817516e-01 -1.272387e-01 -9.757269e-01
    endloop
  endfacet
  facet normal -8.234685e-01 -5.489946e-01 1.431943e-01
    outer loop
      vertex -8.907775e-01 8.907775e-01 7.401487e-17
      vertex -3.817516e-01 -1.272387e-01 -9.757269e-01
      vertex -1.272387e-01 -3.817516e-01 -4.878781e-01
    endloop
  endfacet
  facet normal -5.690257e-01 -5.690257e-01 5.936494e-01
    outer loop
      vertex -8.907775e-01 8.907775e-01 7.401487e-17
      vertex -1.272387e-01 -3.817516e-01 -4.878781e-01
      vertex 1.272387e-01 3.817516e-01 4.878781e-01
    endloop
  endfacet
  facet normal -5.439638e-01 -3.626153e-01 7.567123e-01
    outer loop
      vertex -8.907775e-01 8.907775e-01 7.401487e-17
      vertex 1.272387e-01 3.817516e-01 4.878781e-01
      vertex 1.272387e-01 1.399803e+00 9.757269e-01
    endloop
  endfacet
  facet normal -5.489946e-01 8.234685e-01 1.431943e-01
    outer loop
      vertex -8.907775e-01 8.907775e-01 7.401487e-17
      vertex 1.272387e-01 1.399803e+00 9.757269e-01
      vertex 3.817516e-01 1.654316e+00 4.878781e-01
    endloop
  endfacet
  facet normal -5.690257e-01 5.690257e-01 5.936494e-01
    outer loop
      vertex 4.453887e+00 2.672332e+00 2.927210e+00
      vertex 3.181358e+00 1.908794e+00 2.439332e+00
      vertex 3.944862e+00 1.654316e+00 3.415088e+00
    endloop
  endfacet
  facet normal -3.626153e-01 5.439638e-01 7.567123e-01
    outer loop
      vertex 4.453887e+00 2.672332e+00 2.927210e+00
      vertex 3.944862e+00 1.654316e+00 3.415088e+00
      vertex 4.962913e+00 1.654316e+00 3.902937e+00
    endloop
  endfacet
  facet normal 8.234685e-01 5.489946e-01 1.431943e-01
    outer loop
      vertex 4.453887e+00 2.672332e+00 2.927210e+00
      vertex 4.962913e+00 1.654316e+00 3.902937e+00
      vertex 5.217426e+00 1.399803e+00 3.415088e+00
    endloop
  endfacet
  facet normal 5.690257e-01 5.690257e-01 5.936494e-01
    outer loop
      vertex 4.453887e+00 2.672332e+00 2.927210e+00
      vertex 5.217426e+00 1.399803e+00 3.415088e+00
      vertex 5.471904e+00 2.163307e+00 2.439332e+00
    endloop
  endfacet
  facet normal 5.439638e-01 3.626153e-01 7.567123e-01
    outer loop
      vertex 4.453887e+00 2.672332e+00 2.927210e+00
      vertex 5.471904e+00 2.163307e+00 2.439332e+00
      vertex 5.471904e+00 3.181358e+00 1.951483e+00
    endloop
  endfacet
  facet normal 5.489946e-01 -8.234685e-01 1.431943e-01
    outer loop
      vertex 4.453887e+00 2.672332e+00 2.927210e+00
      vertex 5.471904e+00 3.181358e+00 1.951483e+00
      vertex 5.726417e+00 3.435871e+00 2.439332e+00
    endloop
  endfacet
  facet normal 5.690257e-01 -5.690257e-01 5.936494e-01
    outer loop
      vertex 4.453887e+00 2.672332e+00 2.927210e+00
      vertex 5.726417e+00 3.435871e+00 2.439332e+00
      vertex 4.962913e+00 3.690349e+00 3.415088e+00
    endloop
  endfacet
  facet normal 3.626153e-01 -5.439638e-01 7.567123e-01
    outer loop
      vertex 4.453887e+00 2.672332e+00 2.927210e+00
      vertex 4.962913e+00 3.690349e+00 3.415088e+00
      vertex 3.944862e+00 3.690349e+00 3.902937e+00
    endloop
  endfacet
  facet normal -8.234685e-01 -5.489946e-01 1.431943e-01
    outer loop
      vertex 4.453887e+00 2.672332e+00 2.927210e+00
      vertex 3.944862e+00 3.690349e+00 3.902937e+00
      vertex 3.690349e+00 3.944862e+00 3.415088e+00
    endloop
  endfacet
  facet normal -5.690257e-01 -5.690257e-01 5.936494e-01
    outer loop
      vertex 4.453887e+00 2.672332e+00 2.927210e+00
      vertex 3.690349e+00 3.944862e+00 3.415088e+00
      vertex 3.435871e+00 3.181358e+00 2.439332e+00
    endloop
  endfacet
  facet normal -5.439638e-01 -3.626153e-01 7.567123e-01
    outer loop
      vertex 4.453887e+00 2.672332e+00 2.927210e+00
      vertex 3.435871e+00 3.181358e+00 2.439332e+00
      vertex 3.435871e+00 2.163307e+00 1.951483e+00
    endloop
  endfacet
  facet normal -5.489946e-01 8.234685e-01 1.431943e-01
    outer loop
      vertex 4.453887e+00 2.672332e+00 2.927210e+00
      vertex 3.435871e+00 2.163307e+00 1.951483e+00
      vertex 3.181358e+00 1.908794e+00 2.439332e+00
    endloop
  endfacet
  facet normal -5.690257e-01 5.690257e-01 -5.936494e-01
    outer loop
      vertex 8.907775e-01 2.672332e+00 1.463605e+00
      vertex 1.272387e-01 1.399803e+00 9.757269e-01
      vertex -1.272387e-01 2.163307e+00 1.951483e+00
    endloop
  endfacet
  facet normal -5.439638e-01 3.626153e-01 -7.567123e-01
    outer loop
      vertex 8.907775e-01 2.672332e+00 1.463605e+00
      vertex -1.272387e-01 2.163307e+00 1.951483e+00
      vertex -1.272387e-01 3.181358e+00 2.439332e+00
    endloop
  endfacet
  facet normal -5.489946e-01 -8.234685e-01 -1.431943e-01
    outer loop
      vertex 8.907775e-01 2.672332e+00 1.463605e+00
      vertex -1.272387e-01 3.181358e+00 2.439332e+00
      vertex -3.817516e-01 3.435871e+00 1.951483e+00
    endloop
  endfacet
  facet normal -5.690257e-01 -5.690257e-01 -5.936494e-01
    outer loop
      vertex 8.907775e-01 2.672332e+00 1.463605e+00
      vertex -3.817516e-01 3.435871e+00 1.951483e+00
      vertex 3.817516e-01 3.690349e+00 9.757269e-01
    endloop
  endfacet
  facet normal -3.626153e-01 -5.439638e-01 -7.567123e-01
    outer loop
      vertex 8.907775e-01 2.672332e+00 1.463605e+00
      vertex 3.817516e-01 3.690349e+00 9.757269e-01
      vertex 1.399803e+00 3.690349e+00 4.878781e-01
    endloop
  endfacet
  facet normal 8.234685e-01 -5.489946e-01 -1.431943e-01
    outer loop
      vertex 8.907775e-01 2.672332e+00 1.463605e+00
      vertex 1.399803e+00 3.690349e+00 4.878781e-01
      vertex 1.654316e+00 3.944862e+00 9.757269e-01
    endloop
  endfacet
  facet normal 5.690257e-01 -5.690257e-01 -5.936494e-01
    outer loop
      vertex 8.907775e-01 2.672332e+00 1.463605e+00
      vertex 1.654316e+00 3.944862e+00 9.757269e-01
      vertex 1.908794e+00 3.181358e+00 1.951483e+00
    endloop
  endfacet
  facet normal 5.439638e-01 -3.626153e-01 -7.567123e-01
    outer loop
      vertex 8.907775e-01 2.672332e+00 1.463605e+00
      vertex 1.908794e+00 3.181358e+00 1.951483e+00
      vertex 1.908794e+00 2.163307e+00 2.439332e+00
    endloop
  endfacet
  facet normal 5.489946e-01 8.234685e-01 -1.431943e-01
    outer loop
      vertex 8.907775e-01 2.672332e+00 1.463605e+00
      vertex 1.908794e+00 2.163307e+00 2.439332e+00
      vertex 2.163307e+00 1.908794e+00 1.951483e+00
    endloop
  endfacet
  facet normal 5.690257e-01 5.690257e-01 -5.936494e-01
    outer loop
      vertex 8.907775e-01 2.672332e+00 1.463605e+00
      vertex 2.163307e+00 1.908794e+00 1.951483e+00
      vertex 1.399803e+00 1.654316e+00 9.757269e-01
    endloop
  endfacet
  facet normal 3.626153e-01 5.439638e-01 -7.567123e-01
    outer loop
      vertex 8.907775e-01 2.672332e+00 1.463605e+00
      vertex 1.399803e+00 1.654316e+00 9.757269e-01
      vertex 3.817516e-01 1.654316e+00 4.878781e-01
    endloop
  endfacet
  facet normal -8.234685e-01 5.489946e-01 -1.431943e-01
    outer loop
      vertex 8.907775e-01 2.672332e+00 1.463605e+00
      vertex 3.817516e-01 1.654316e+00 4.878781e-01
      vertex 1.272387e-01 1.399803e+00 9.757269e-01
    endloop
  endfacet
  facet normal -5.690257e-01 5.690257e-01 -5.936494e-01
    outer loop
      vertex 2.672332e+00 8.907775e-01 1.463605e+00
      vertex 3.435871e+00 2.163307e+00 1.951483e+00
      vertex 3.690349e+00 1.399803e+00 9.757269e-01
    endloop
  endfacet
  facet normal -5.439638e-01 3.626153e-01 -7.567123e-01
    outer loop
      vertex 2.672332e+00 8.907775e-01 1.463605e+00
      vertex 3.690349e+00 1.399803e+00 9.757269e-01
      vertex 3.690349e+00 3.817516e-01 4.878781e-01
    endloop
  endfacet
  facet normal -5.489946e-01 -8.234685e-01 -1.431943e-01
    outer loop
      vertex 2.672332e+00 8.907775e-01 1.463605e+00
      vertex 3.690349e+00 3.817516e-01 4.878781e-01
      vertex 3.944862e+00 1.272387e-01 9.757269e-01
    endloop
  endfacet
  facet normal -5.690257e-01 -5.690257e-01 -5.936494e-01
    outer loop
      vertex 2.672332e+00 8.907775e-01 1.463605e+00
      vertex 3.944862e+00 1.272387e-01 9.757269e-01
      vertex 3.181358e+00 -1.272387e-01 1.951483e+00
    endloop
  endfacet
  facet normal -3.626153e-01 -5.439638e-01 -7.567123e-01
    outer loop
      vertex 2.672332e+00 8.907775e-01 1.463605e+00
      vertex 3.181358e+00 -1.272387e-01 1.951483e+00
      vertex 2.163307e+00 -1.272387e-01 2.439332e+00
    endloop
  endfacet
  facet normal 8.234685e-01 -5.489946e-01 -1.431943e-01
    outer loop
      vertex 2.672332e+00 8.907775e-01 1.463605e+00
      vertex 2.163307e+00 -1.272387e-01 2.439332e+00
      vertex 1.908794e+00 -3.817516e-01 1.951483e+00
    endloop
  endfacet
  facet normal 5.690257e-01 -5.690257e-01 -5.936494e-01
    outer loop
      vertex 2.672332e+00 8.907775e-01 1.463605e+00
      vertex 1.908794e+00 -3.817516e-01 1.951483e+00
      vertex 1.654316e+00 3.817516e-01 9.757269e-01
    endloop
  endfacet
  facet normal 5.439638e-01 -3.626153e-01 -7.567123e-01
    outer loop
      vertex 2.672332e+00 8.907775e-01 1.463605e+00
      vertex 1.654316e+00 3.817516e-01 9.757269e-01
      vertex 1.654316e+00 1.399803e+00 4.878781e-01
    endloop
  endfacet
  facet normal 5.489946e-01 8.234685e-01 -1.431943e-01
    outer loop
      vertex 2.672332e+00 8.907775e-01 1.463605e+00
      vertex 1.654316e+00 1.399803e+00 4.878781e-01
      vertex 1.399803e+00 1.654316e+00 9.757269e-01
    endloop
  endfacet
  facet normal 5.690257e-01 5.690257e-01 -5.936494e-01
    outer loop
      vertex 2.672332e+00 8.907775e-01 1.463605e+00
      vertex 1.399803e+00 1.654316e+00 9.757269e-01
      vertex 2.163307e+00 1.908794e+00 1.951483e+00
    endloop
  endfacet
  facet normal 3.626153e-01 5.439638e-01 -7.567123e-01
    outer loop
      vertex 2.672332e+00 8.907775e-01 1.463605e+00
      vertex 2.163307e+00 1.908794e+00 1.951483e+00
      vertex 3.181358e+00 1.908794e+00 2.439332e+00
    endloop
  endfacet
  facet normal -8.234685e-01 5.489946e-01 -1.431943e-01
    outer loop
      vertex 2.672332e+00 8.907775e-01 1.463605e+00
      vertex 3.181358e+00 1.908794e+00 2.439332e+00
      vertex 3.435871e+00 2.163307e+00 1.951483e+00
    endloop
  endfacet
  facet normal 5.690257e-01 -5.690257e-01 -5.936494e-01
    outer loop
      vertex 8.907775e-01 -8.907775e-01 1.463605e+00
      vertex 1.654316e+00 3.817516e-01 9.757269e-01
      vertex 1.908794e+00 -3.817516e-01 1.951483e+00
    endloop
  endfacet
  facet normal 5.439638e-01 -3.626153e-01 -7.567123e-01
    outer loop
      vertex 8.907775e-01 -8.907775e-01 1.463605e+00
      vertex 1.908794e+00 -3.817516e-01 1.951483e+00
      vertex 1.908794e+00 -1.399803e+00 2.439332e+00
    endloop
  endfacet
  facet normal 5.489946e-01 8.234685e-01 -1.431943e-01
    outer loop
      vertex 8.907775e-01 -8.907775e-01 1.463605e+00
      vertex 1.908794e+00 -1.399803e+00 2.439332e+00
      vertex 2.163307e+00 -1.654316e+00 1.951483e+00
    endloop
  endfacet
  facet normal 5.690257e-01 5.690257e-01 -5.936494e-01
    outer loop
      vertex 8.907775e-01 -8.907775e-01 1.463605e+00
      vertex 2.163307e+00 -1.654316e+00 1.951483e+00
      vertex 1.399803e+00 -1.908794e+00 9.757269e-01
    endloop
  endfacet
  facet normal 3.626153e-01 5.439638e-01 -7.567123e-01
    outer loop
      vertex 8.907775e-01 -8.907775e-01 1.463605e+00
      vertex 1.399803e+00 -1.908794e+00 9.757269e-01
      vertex 3.817516e-01 -1.908794e+00 4.878781e-01
    endloop
  endfacet
  facet normal -8.234685e-01 5.489946e-01 -1.431943e-01
    outer loop
      vertex 8.907775e-01 -8.907775e-01 1.463605e+00
      vertex 3.817516e-01 -1.908794e+00 4.878781e-01
      vertex 1.272387e-01 -2.163307e+00 9.757269e-01
    endloop
  endfacet
  facet normal -5.690257e-01 5.690257e-01 -5.936494e-01
    outer loop
      vertex 8.907775e-01 -8.907775e-01 1.463605e+00
      vertex 1.272387e-01 -2.163307e+00 9.757269e-01
      vertex -1.272387e-01 -1.399803e+00 1.951483e+00
    endloop
  endfacet
  facet normal -5.439638e-01 3.626153e-01 -7.567123e-01
    outer loop
      vertex 8.907775e-01 -8.907775e-01 1.463605e+00
      vertex -1.272387e-01 -1.399803e+00 1.951483e+00
      vertex -1.272387e-01 -3.817516e-01 2.439332e+00
    endloop
  endfacet
  facet normal -5.489946e-01 -8.234685e-01 -1.431943e-01
    outer loop
      vertex 8.907775e-01 -8.907775e-01 1.463605e+00
      vertex -1.272387e-01 -3.817516e-01 2.439332e+00
      vertex -3.817516e-01 -1.272387e-01 1.951483e+00
    endloop
  endfacet
  facet normal -5.690257e-01 -5.690257e-01 -5.936494e-01
    outer loop
      vertex 8.907775e-01 -8.907775e-01 1.463605e+00
      vertex -3.817516e-01 -1.272387e-01 1.951483e+00
      vertex 3.817516e-01 1.272387e-01 9.757269e-01
    endloop
  endfacet
  facet normal -3.626153e-01 -5.439638e-01 -7.567123e-01
    outer loop
      vertex 8.907775e-01 -8.907775e-01 1.463605e+00
      vertex 3.817516e-01 1.272387e-01 9.757269e-01
      vertex 1.399803e+00 1.272387e-01 4.878781e-01
    endloop
  endfacet
  facet normal 8.234685e-01 -5.489946e-01 -1.431943e-01
    outer loop
      vertex 8.907775e-01 -8.907775e-01 1.463605e+00
      vertex 1.399803e+00 1.272387e-01 4.878781e-01
      vertex 1.654316e+00 3.817516e-01 9.757269e-01
    endloop
  endfacet
  facet normal 5.690257e-01 -5.690257e-01 -5.936494e-01
    outer loop
      vertex 2.672332e+00 4.453887e+00 1.463605e+00
      vertex 1.908794e+00 3.181358e+00 1.951483e+00
      vertex 1.654316e+00 3.944862e+00 9.757269e-01
    endloop
  endfacet
  facet normal 5.439638e-01 -3.626153e-01 -7.567123e-01
    outer loop
      vertex 2.672332e+00 4.453887e+00 1.463605e+00
      vertex 1.654316e+00 3.944862e+00 9.757269e-01
      vertex 1.654316e+00 4.962913e+00 4.878781e-01
    endloop
  endfacet
  facet normal 5.489946e-01 8.234685e-01 -1.431943e-01
    outer loop
      vertex 2.672332e+00 4.453887e+00 1.463605e+00
      vertex 1.654316e+00 4.962913e+00 4.878781e-01
      vertex 1.399803e+00 5.217426e+00 9.757269e-01
    endloop
  endfacet
  facet normal 5.690257e-01 5.690257e-01 -5.936494e-01
    outer loop
      vertex 2.672332e+00 4.453887e+00 1.463605e+00
      vertex 1.399803e+00 5.217426e+00 9.757269e-01
      vertex 2.163307e+00 5.471904e+00 1.951483e+00
    endloop
  endfacet
  facet normal 3.626153e-01 5.439638e-01 -7.567123e-01
    outer loop
      vertex 2.672332e+00 4.453887e+00 1.463605e+00
      vertex 2.163307e+00 5.471904e+00 1.951483e+00
      vertex 3.181358e+00 5.471904e+00 2.439332e+00
    endloop
  endfacet
  facet normal -8.234685e-01 5.489946e-01 -1.431943e-01
    outer loop
      vertex 2.672332e+00 4.453887e+00 1.463605e+00
      vertex 3.181358e+00 5.471904e+00 2.439332e+00
      vertex 3.435871e+00 5.726417e+00 1.951483e+00
    endloop
  endfacet
  facet normal -5.690257e-01 5.690257e-01 -5.936494e-01
    outer loop
      vertex 2.672332e+00 4.453887e+00 1.463605e+00
      vertex 3.435871e+00 5.726417e+00 1.951483e+00
      vertex 3.690349e+00 4.962913e+00 9.757269e-01
    endloop
  endfacet
  facet normal -5.439638e-01 3.626153e-01 -7.567123e-01
    outer loop
      vertex 2.672332e+00 4.453887e+00 1.463605e+00
      vertex 3.690349e+00 4.962913e+00 9.757269e-01
      vertex 3.690349e+00 3.944862e+00 4.878781e-01
    endloop
  endfacet
  facet normal -5.489946e-01 -8.234685e-01 -1.431943e-01
    outer loop
      vertex 2.672332e+00 4.453887e+00 1.463605e+00
      vertex 3.690349e+00 3.944862e+00 4.878781e-01
      vertex 3.944862e+00 3.690349e+00 9.757269e-01
    endloop
  endfacet
  facet normal -5.690257e-01 -5.690257e-01 -5.936494e-01
    outer loop
      vertex 2.672332e+00 4.453887e+00 1.463605e+00
      vertex 3.944862e+00 3.690349e+00 9.757269e-01
      vertex 3.181358e+00 3.435871e+00 1.951483e+00
    endloop
  endfacet
  facet normal -3.626153e-01 -5.439638e-01 -7.567123e-01
    outer loop
      vertex 2.672332e+00 4.453887e+00 1.463605e+00
      vertex 3.181358e+00 3.435871e+00 1.951483e+00
      vertex 2.163307e+00 3.435871e+00 2.439332e+00
    endloop
  endfacet
  facet normal 8.234685e-01 -5.489946e-01 -1.431943e-01
    outer loop
      vertex 2.672332e+00 4.453887e+00 1.463605e+00
      vertex 2.163307e+00 3.435871e+00 2.439332e+00
      vertex 1.908794e+00 3.181358e+00 1.951483e+00
    endloop
  endfacet
  facet normal 5.690257e-01 5.690257e-01 5.936494e-01
    outer loop
      vertex 8.907775e-01 2.672332e+00 7.401487e-17
      vertex 1.654316e+00 1.399803e+00 4.878781e-01
      vertex 1.908794e+00 2.163307e+00 -4.878781e-01
    endloop
  endfacet
  facet normal 5.439638e-01 3.626153e-01 7.567123e-01
    outer loop
      vertex 8.907775e-01 2.672332e+00 7.401487e-17
      vertex 1.908794e+00 2.163307e+00 -4.878781e-01
      vertex 1.908794e+00 3.181358e+00 -9.757269e-01
    endloop
  endfacet
  facet normal 5.489946e-01 -8.234685e-01 1.431943e-01
    outer loop
      vertex 8.907775e-01 2.672332e+00 7.401487e-17
      vertex 1.908794e+00 3.181358e+00 -9.757269e-01
      vertex 2.163307e+00 3.435871e+00 -4.878781e-01
    endloop
  endfacet
  facet normal 5.690257e-01 -5.690257e-01 5.936494e-01
    outer loop
      vertex 8.907775e-01 2.672332e+00 7.401487e-17
      vertex 2.163307e+00 3.435871e+00 -4.878781e-01
      vertex 1.399803e+00 3.690349e+00 4.878781e-01
    endloop
  endfacet
  facet normal 3.626153e-01 -5.439638e-01 7.567123e-01
    outer loop
      vertex 8.907775e-01 2.672332e+00 7.401487e-17
      vertex 1.399803e+00 3.690349e+00 4.878781e-01
      vertex 3.817516e-01 3.690349e+00 9.757269e-01
    endloop
  endfacet
  facet normal -8.234685e-01 -5.489946e-01 1.431943e-01
    outer loop
      vertex 8.907775e-01 2.672332e+00 7.401487e-17
      vertex 3.817516e-01 3.690349e+00 9.757269e-01
      vertex 1.272387e-01 3.944862e+00 4.878781e-01
    endloop
  endfacet
  facet normal -5.690257e-01 -5.690257e-01 5.936494e-01
    outer loop
      vertex 8.907775e-01 2.672332e+00 7.401487e-17
      vertex 1.272387e-01 3.944862e+00 4.878781e-01
      vertex -1.272387e-01 3.181358e+00 -4.878781e-01
    endloop
  endfacet
  facet normal -5.439638e-01 -3.626153e-01 7.567123e-01
    outer loop
      vertex 8.907775e-01 2.672332e+00 7.401487e-17
      vertex -1.272387e-01 3.181358e+00 -4.878781e-01
      vertex -1.272387e-01 2.163307e+00 -9.757269e-01
    endloop
  endfacet
  facet normal -5.489946e-01 8.234685e-01 1.431943e-01
    outer loop
      vertex 8.907775e-01 2.672332e+00 7.401487e-17
      vertex -1.272387e-01 2.163307e+00 -9.757269e-01
      vertex -3.817516e-01 1.908794e+00 -4.878781e-01
    endloop
  endfacet
  facet normal -5.690257e-01 5.690257e-01 5.936494e-01
    outer loop
      vertex 8.907775e-01 2.672332e+00 7.401487e-17
      vertex -3.817516e-01 1.908794e+00 -4.878781e-01
      vertex 3.817516e-01 1.654316e+00 4.878781e-01
    endloop
  endfacet
  facet normal -3.626153e-01 5.439638e-01 7.567123e-01
    outer loop
      vertex 8.907775e-01 2.672332e+00 7.401487e-17
      vertex 3.817516e-01 1.654316e+00 4.878781e-01
      vertex 1.399803e+00 1.654316e+00 9.757269e-01
    endloop
  endfacet
  facet normal 8.234685e-01 5.489946e-01 1.431943e-01
    outer loop
      vertex 8.907775e-01 2.672332e+00 7.401487e-17
      vertex 1.399803e+00 1.654316e+00 9.757269e-01
      vertex 1.654316e+00 1.399803e+00 4.878781e-01
    endloop
  endfacet
  facet normal 5.690257e-01 5.690257e-01 5.936494e-01
    outer loop
      vertex 2.672332e+00 8.907775e-01 2.927210e+00
      vertex 1.908794e+00 2.163307e+00 2.439332e+00
      vertex 1.654316e+00 1.399803e+00 3.415088e+00
    endloop
  endfacet
  facet normal 5.439638e-01 3.626153e-01 7.567123e-01
    outer loop
      vertex 2.672332e+00 8.907775e-01 2.927210e+00
      vertex 1.654316e+00 1.399803e+00 3.415088e+00
      vertex 1.654316e+00 3.817516e-01 3.902937e+00
    endloop
  endfacet
  facet normal 5.489946e-01 -8.234685e-01 1.431943e-01
    outer loop
      vertex 2.672332e+00 8.907775e-01 2.927210e+00
      vertex 1.654316e+00 3.817516e-01 3.902937e+00
      vertex 1.399803e+00 1.272387e-01 3.415088e+00
    endloop
  endfacet
  facet normal 5.690257e-01 -5.690257e-01 5.936494e-01
    outer loop
      vertex 2.672332e+00 8.907775e-01 2.927210e+00
      vertex 1.399803e+00 1.272387e-01 3.415088e+00
      vertex 2.163307e+00 -1.272387e-01 2.439332e+00
    endloop
  endfacet
  facet normal 3.626153e-01 -5.439638e-01 7.567123e-01
    outer loop
      vertex 2.672332e+00 8.907775e-01 2.927210e+00
      vertex 2.163307e+00 -1.272387e-01 2.439332e+00
      vertex 3.181358e+00 -1.272387e-01 1.951483e+00
    endloop
  endfacet
  facet normal -8.234685e-01 -5.489946e-01 1.431943e-01
    outer loop
      vertex 2.672332e+00 8.907775e-01 2.927210e+00
      vertex 3.181358e+00 -1.272387e-01 1.951483e+00
      vertex 3.435871e+00 -3.817516e-01 2.439332e+00
    endloop
  endfacet
  facet normal -5.690257e-01 -5.690257e-01 5.936494e-01
    outer loop
      vertex 2.672332e+00 8.907775e-01 2.927210e+00
      vertex 3.435871e+00 -3.817516e-01 2.439332e+00
      vertex 3.690349e+00 3.817516e-01 3.415088e+00
    endloop
  endfacet
  facet normal -5.439638e-01 -3.626153e-01 7.567123e-01
    outer loop
      vertex 2.672332e+00 8.907775e-01 2.927210e+00
      vertex 3.690349e+00 3.817516e-01 3.415088e+00
      vertex 3.690349e+00 1.399803e+00 3.902937e+00
    endloop
  endfacet
  facet normal -5.489946e-01 8.234685e-01 1.431943e-01
    outer loop
      vertex 2.672332e+00 8.907775e-01 2.927210e+00
      vertex 3.690349e+00 1.399803e+00 3.902937e+00
      vertex 3.944862e+00 1.654316e+00 3.415088e+00
    endloop
  endfacet
  facet normal -5.690257e-01 5.690257e-01 5.936494e-01
    outer loop
      vertex 2.672332e+00 8.907775e-01 2.927210e+00
      vertex 3.944862e+00 1.654316e+00 3.415088e+00
      vertex 3.181358e+00 1.908794e+00 2.439332e+00
    endloop
  endfacet
  facet normal -3.626153e-01 5.439638e-01 7.567123e-01
    outer loop
      vertex 2.672332e+00 8.907775e-01 2.927210e+00
      vertex 3.181358e+00 1.908794e+00 2.439332e+00
      vertex 2.163307e+00 1.908794e+00 1.951483e+00
    endloop
  endfacet
  facet normal 8.234685e-01 5.489946e-01 1.431943e-01
    outer loop
      vertex 2.672332e+00 8.907775e-01 2.927210e+00
      vertex 2.163307e+00 1.908794e+00 1.951483e+00
      vertex 1.908794e+00 2.163307e+00 2.439332e+00
    endloop
  endfacet
endsolid surface_model
