solid surface_model
  facet normal 6.544519e-01 -6.544519e-01 3.786627e-01
    outer loop
      vertex 8.454250e-01 -8.454250e-01 8.349700e-01
      vertex 2.053165e+00 1.207605e-01 4.174850e-01
      vertex 1.811611e+00 3.623153e-01 1.252455e+00
    endloop
  endfacet
  facet normal 7.964796e-01 -5.514011e-01 -2.481473e-01
    outer loop
      vertex 8.454250e-01 -8.454250e-01 8.349700e-01
      vertex 1.811611e+00 3.623153e-01 1.252455e+00
      vertex 1.570089e+00 -3.623153e-01 2.087425e+00
    endloop
  endfacet
  facet normal 8.655584e-01 0.000000e+00 -5.008080e-01
    outer loop
      vertex 8.454250e-01 -8.454250e-01 8.349700e-01
      vertex 1.570089e+00 -3.623153e-01 2.087425e+00
      vertex 1.570089e+00 -1.328535e+00 2.087425e+00
    endloop
  endfacet
  facet normal 7.964796e-01 5.514011e-01 -2.481473e-01
    outer loop
      vertex 8.454250e-01 -8.454250e-01 8.349700e-01
      vertex 1.570089e+00 -1.328535e+00 2.087425e+00
      vertex 1.811611e+00 -2.053165e+00 1.252455e+00
    endloop
  endfacet
  facet normal 6.544519e-01 6.544519e-01 3.786627e-01
    outer loop
      vertex 8.454250e-01 -8.454250e-01 8.349700e-01
      vertex 1.811611e+00 -2.053165e+00 1.252455e+00
      vertex 2.053165e+00 -1.811611e+00 4.174850e-01
    endloop
  endfacet
  facet normal 5.514011e-01 7.964796e-01 -2.481473e-01
    outer loop
      vertex 8.454250e-01 -8.454250e-01 8.349700e-01
      vertex 2.053165e+00 -1.811611e+00 4.174850e-01
      vertex 1.328535e+00 -1.570089e+00 -4.174850e-01
    endloop
  endfacet
  facet normal 0.000000e+00 8.655584e-01 -5.008080e-01
    outer loop
      vertex 8.454250e-01 -8.454250e-01 8.349700e-01
      vertex 1.328535e+00 -1.570089e+00 -4.174850e-01
      vertex 3.623153e-01 -1.570089e+00 -4.174850e-01
    endloop
  endfacet
  facet normal -5.514011e-01 7.964796e-01 -2.481473e-01
    outer loop
      vertex 8.454250e-01 -8.454250e-01 8.349700e-01
      vertex 3.623153e-01 -1.570089e+00 -4.174850e-01
      vertex -3.623153e-01 -1.811611e+00 4.174850e-01
    endloop
  endfacet
  facet normal -6.544519e-01 6.544519e-01 3.786627e-01
    outer loop
      vertex 8.454250e-01 -8.454250e-01 8.349700e-01
      vertex -3.623153e-01 -1.811611e+00 4.174850e-01
      vertex -1.207605e-01 -2.053165e+00 1.252455e+00
    endloop
  endfacet
  facet normal -7.964796e-01 5.514011e-01 -2.481473e-01
    outer loop
      vertex 8.454250e-01 -8.454250e-01 8.349700e-01
      vertex -1.207605e-01 -2.053165e+00 1.252455e+00
      vertex 1.207605e-01 -1.328535e+00 2.087425e+00
    endloop
  endfacet
  facet normal -8.655584e-01 0.000000e+00 -5.008080e-01
    outer loop
      vertex 8.454250e-01 -8.454250e-01 8.349700e-01
      vertex 1.207605e-01 -1.328535e+00 2.087425e+00
      vertex 1.207605e-01 -3.623153e-01 2.087425e+00
    endloop
  endfacet
  facet normal -7.964796e-01 -5.514011e-01 -2.481473e-01
    outer loop
      vertex 8.454250e-01 -8.454250e-01 8.349700e-01
      vertex 1.207605e-01 -3.623153e-01 2.087425e+00
      vertex -1.207605e-01 3.623153e-01 1.252455e+00
    endloop
  endfacet
  facet normal -6.544519e-01 -6.544519e-01 3.786627e-01
    outer loop
      vertex 8.454250e-01 -8.454250e-01 8.349700e-01
      vertex -1.207605e-01 3.623153e-01 1.252455e+00
      vertex -3.623153e-01 1.207605e-01 4.174850e-01
    endloop
  endfacet
  facet normal -5.514011e-01 -7.964796e-01 -2.481473e-01
    outer loop
      vertex 8.454250e-01 -8.454250e-01 8.349700e-01
      vertex -3.623153e-01 1.207605e-01 4.174850e-01
      vertex 3.623153e-01 -1.207605e-01 -4.174850e-01
    endloop
  endfacet
  facet normal 0.000000e+00 -8.655584e-01 -5.008080e-01
    outer loop
      vertex 8.454250e-01 -8.454250e-01 8.349700e-01
      vertex 3.623153e-01 -1.207605e-01 -4.174850e-01
      vertex 1.328535e+00 -1.207605e-01 -4.174850e-01
    endloop
  endfacet
  facet normal 5.514011e-01 -7.964796e-01 -2.481473e-01
    outer loop
      vertex 8.454250e-01 -8.454250e-01 8.349700e-01
      vertex 1.328535e+00 -1.207605e-01 -4.174850e-01
      vertex 2.053165e+00 1.207605e-01 4.174850e-01
    endloop
  endfacet
  facet normal 6.544519e-01 -6.544519e-01 3.786627e-01
    outer loop
      vertex 2.536275e+00 8.454250e-01 8.349700e-01
      vertex 1.811611e+00 3.623153e-01 1.252455e+00
      vertex 2.053165e+00 1.207605e-01 4.174850e-01
    endloop
  endfacet
  facet normal 0.000000e+00 -4.991925e-01 8.664911e-01
    outer loop
      vertex 2.536275e+00 8.454250e-01 8.349700e-01
      vertex 2.053165e+00 1.207605e-01 4.174850e-01
      vertex 3.019385e+00 1.207605e-01 4.174850e-01
    endloop
  endfacet
  facet normal -6.544519e-01 -6.544519e-01 3.786627e-01
    outer loop
      vertex 2.536275e+00 8.454250e-01 8.349700e-01
      vertex 3.019385e+00 1.207605e-01 4.174850e-01
      vertex 3.260939e+00 3.623153e-01 1.252455e+00
    endloop
  endfacet
  facet normal -4.991925e-01 0.000000e+00 8.664911e-01
    outer loop
      vertex 2.536275e+00 8.454250e-01 8.349700e-01
      vertex 3.260939e+00 3.623153e-01 1.252455e+00
      vertex 3.260939e+00 1.328535e+00 1.252455e+00
    endloop
  endfacet
  facet normal -6.544519e-01 6.544519e-01 3.786627e-01
    outer loop
      vertex 2.536275e+00 8.454250e-01 8.349700e-01
      vertex 3.260939e+00 1.328535e+00 1.252455e+00
      vertex 3.019385e+00 1.570089e+00 4.174850e-01
    endloop
  endfacet
  facet normal 0.000000e+00 4.991925e-01 8.664911e-01
    outer loop
      vertex 2.536275e+00 8.454250e-01 8.349700e-01
      vertex 3.019385e+00 1.570089e+00 4.174850e-01
      vertex 2.053165e+00 1.570089e+00 4.174850e-01
    endloop
  endfacet
  facet normal 6.544519e-01 6.544519e-01 3.786627e-01
    outer loop
      vertex 2.536275e+00 8.454250e-01 8.349700e-01
      vertex 2.053165e+00 1.570089e+00 4.174850e-01
      vertex 1.811611e+00 1.328535e+00 1.252455e+00
    endloop
  endfacet
  facet normal 4.991925e-01 0.000000e+00 8.664911e-01
    outer loop
      vertex 2.536275e+00 8.454250e-01 8.349700e-01
      vertex 1.811611e+00 1.328535e+00 1.252455e+00
      vertex 1.811611e+00 3.623153e-01 1.252455e+00
    endloop
  endfacet
  facet normal 6.544519e-01 6.544519e-01 3.786627e-01
    outer loop
      vertex 8.454250e-01 2.536275e+00 8.349700e-01
      vertex 1.811611e+00 1.328535e+00 1.252455e+00
      vertex 2.053165e+00 1.570089e+00 4.174850e-01
    endloop
  endfacet
  facet normal 5.514011e-01 7.964796e-01 -2.481473e-01
    outer loop
      vertex 8.454250e-01 2.536275e+00 8.349700e-01
      vertex 2.053165e+00 1.570089e+00 4.174850e-01
      vertex 1.328535e+00 1.811611e+00 -4.174850e-01
    endloop
  endfacet
  facet normal 0.000000e+00 8.655584e-01 -5.008080e-01
    outer loop
      vertex 8.454250e-01 2.536275e+00 8.349700e-01
      vertex 1.328535e+00 1.811611e+00 -4.174850e-01
      vertex 3.623153e-01 1.811611e+00 -4.174850e-01
    endloop
  endfacet
  facet normal -5.514011e-01 7.964796e-01 -2.481473e-01
    outer loop
      vertex 8.454250e-01 2.536275e+00 8.349700e-01
      vertex 3.623153e-01 1.811611e+00 -4.174850e-01
      vertex -3.623153e-01 1.570089e+00 4.174850e-01
    endloop
  endfacet
  facet normal -6.544519e-01 6.544519e-01 3.786627e-01
    outer loop
      vertex 8.454250e-01 2.536275e+00 8.349700e-01
      vertex -3.623153e-01 1.570089e+00 4.174850e-01
      vertex -1.207605e-01 1.328535e+00 1.252455e+00
    endloop
  endfacet
  facet normal -7.964796e-01 5.514011e-01 -2.481473e-01
    outer loop
      vertex 8.454250e-01 2.536275e+00 8.349700e-01
      vertex -1.207605e-01 1.328535e+00 1.252455e+00
      vertex 1.207605e-01 2.053165e+00 2.087425e+00
    endloop
  endfacet
  facet normal -8.655584e-01 7.940882e-17 -5.008080e-01
    outer loop
      vertex 8.454250e-01 2.536275e+00 8.349700e-01
      vertex 1.207605e-01 2.053165e+00 2.087425e+00
      vertex 1.207605e-01 3.019385e+00 2.087425e+00
    endloop
  endfacet
  facet normal -7.964796e-01 -5.514011e-01 -2.481473e-01
    outer loop
      vertex 8.454250e-01 2.536275e+00 8.349700e-01
      vertex 1.207605e-01 3.019385e+00 2.087425e+00
      vertex -1.207605e-01 3.744015e+00 1.252455e+00
    endloop
  endfacet
  facet normal -6.544519e-01 -6.544519e-01 3.786627e-01
    outer loop
      vertex 8.454250e-01 2.536275e+00 8.349700e-01
      vertex -1.207605e-01 3.744015e+00 1.252455e+00
      vertex -3.623153e-01 3.502461e+00 4.174850e-01
    endloop
  endfacet
  facet normal -5.514011e-01 -7.964796e-01 -2.481473e-01
    outer loop
      vertex 8.454250e-01 2.536275e+00 8.349700e-01
      vertex -3.623153e-01 3.502461e+00 4.174850e-01
      vertex 3.623153e-01 3.260939e+00 -4.174850e-01
    endloop
  endfacet
  facet normal 0.000000e+00 -8.655584e-01 -5.008080e-01
    outer loop
      vertex 8.454250e-01 2.536275e+00 8.349700e-01
      vertex 3.623153e-01 3.260939e+00 -4.174850e-01
      vertex 1.328535e+00 3.260939e+00 -4.174850e-01
    endloop
  endfacet
  facet normal 5.514011e-01 -7.964796e-01 -2.481473e-01
    outer loop
      vertex 8.454250e-01 2.536275e+00 8.349700e-01
      vertex 1.328535e+00 3.260939e+00 -4.174850e-01
      vertex 2.053165e+00 3.502461e+00 4.174850e-01
    endloop
  endfacet
  facet normal 6.544519e-01 -6.544519e-01 3.786627e-01
    outer loop
      vertex 8.454250e-01 2.536275e+00 8.349700e-01
      vertex 2.053165e+00 3.502461e+00 4.174850e-01
      vertex 1.811611e+00 3.744015e+00 1.252455e+00
    endloop
  endfacet
  facet normal 7.964796e-01 -5.514011e-01 -2.481473e-01
    outer loop
      vertex 8.454250e-01 2.536275e+00 8.349700e-01
      vertex 1.811611e+00 3.744015e+00 1.252455e+00
      vertex 1.570089e+00 3.019385e+00 2.087425e+00
    endloop
  endfacet
  facet normal 8.655584e-01 0.000000e+00 -5.008080e-01
    outer loop
      vertex 8.454250e-01 2.536275e+00 8.349700e-01
      vertex 1.570089e+00 3.019385e+00 2.087425e+00
      vertex 1.570089e+00 2.053165e+00 2.087425e+00
    endloop
  endfacet
  facet normal 7.964796e-01 5.514011e-01 -2.481473e-01
    outer loop
      vertex 8.454250e-01 2.536275e+00 8.349700e-01
      vertex 1.570089e+00 2.053165e+00 2.087425e+00
      vertex 1.811611e+00 1.328535e+00 1.252455e+00
    endloop
  endfacet
  facet normal -6.544519e-01 6.544519e-01 3.786627e-01
    outer loop
      vertex 8.454250e-01 2.536275e+00 2.504910e+00
      vertex 1.207605e-01 2.053165e+00 2.087425e+00
      vertex 3.623153e-01 1.811611e+00 2.922395e+00
    endloop
  endfacet
  facet normal 0.000000e+00 4.991925e-01 8.664911e-01
    outer loop
      vertex 8.454250e-01 2.536275e+00 2.504910e+00
      vertex 3.623153e-01 1.811611e+00 2.922395e+00
      vertex 1.328535e+00 1.811611e+00 2.922395e+00
    endloop
  endfacet
  facet normal 6.544519e-01 6.544519e-01 3.786627e-01
    outer loop
      vertex 8.454250e-01 2.536275e+00 2.504910e+00
      vertex 1.328535e+00 1.811611e+00 2.922395e+00
      vertex 1.570089e+00 2.053165e+00 2.087425e+00
    endloop
  endfacet
  facet normal 4.991925e-01 0.000000e+00 8.664911e-01
    outer loop
      vertex 8.454250e-01 2.536275e+00 2.504910e+00
      vertex 1.570089e+00 2.053165e+00 2.087425e+00
      vertex 1.570089e+00 3.019385e+00 2.087425e+00
    endloop
  endfacet
  facet normal 6.544519e-01 -6.544519e-01 3.786627e-01
    outer loop
      vertex 8.454250e-01 2.536275e+00 2.504910e+00
      vertex 1.570089e+00 3.019385e+00 2.087425e+00
      vertex 1.328535e+00 3.260939e+00 2.922395e+00
    endloop
  endfacet
  facet normal 0.000000e+00 -4.991925e-01 8.664911e-01
    outer loop
      vertex 8.454250e-01 2.536275e+00 2.504910e+00
      vertex 1.328535e+00 3.260939e+00 2.922395e+00
      vertex 3.623153e-01 3.260939e+00 2.922395e+00
    endloop
  endfacet
  facet normal -6.544519e-01 -6.544519e-01 3.786627e-01
    outer loop
      vertex 8.454250e-01 2.536275e+00 2.504910e+00
      vertex 3.623153e-01 3.260939e+00 2.922395e+00
      vertex 1.207605e-01 3.019385e+00 2.087425e+00
    endloop
  endfacet
  facet normal -4.991925e-01 6.869603e-17 8.664911e-01
    outer loop
      vertex 8.454250e-01 2.536275e+00 2.504910e+00
      vertex 1.207605e-01 3.019385e+00 2.087425e+00
      vertex 1.207605e-01 2.053165e+00 2.087425e+00
    endloop
  endfacet
  facet normal -6.544519e-01 6.544519e-01 3.786627e-01
    outer loop
      vertex -8.454250e-01 8.454250e-01 2.504910e+00
      vertex 3.623153e-01 1.811611e+00 2.922395e+00
      vertex 1.207605e-01 2.053165e+00 2.087425e+00
    endloop
  endfacet
  facet normal -7.964796e-01 5.514011e-01 -2.481473e-01
    outer loop
      vertex -8.454250e-01 8.454250e-01 2.504910e+00
      vertex 1.207605e-01 2.053165e+00 2.087425e+00
      vertex -1.207605e-01 1.328535e+00 1.252455e+00
    endloop
  endfacet
  facet normal -8.655584e-01 0.000000e+00 -5.008080e-01
    outer loop
      vertex -8.454250e-01 8.454250e-01 2.504910e+00
      vertex -1.207605e-01 1.328535e+00 1.252455e+00
      vertex -1.207605e-01 3.623153e-01 1.252455e+00
    endloop
  endfacet
  facet normal -7.964796e-01 -5.514011e-01 -2.481473e-01
    outer loop
      vertex -8.454250e-01 8.454250e-01 2.504910e+00
      vertex -1.207605e-01 3.623153e-01 1.252455e+00
      vertex 1.207605e-01 -3.623153e-01 2.087425e+00
    endloop
  endfacet
  facet normal -6.544519e-01 -6.544519e-01 3.786627e-01
    outer loop
      vertex -8.454250e-01 8.454250e-01 2.504910e+00
      vertex 1.207605e-01 -3.623153e-01 2.087425e+00
      vertex 3.623153e-01 -1.207605e-01 2.922395e+00
    endloop
  endfacet
  facet normal -5.514011e-01 -7.964796e-01 -2.481473e-01
    outer loop
      vertex -8.454250e-01 8.454250e-01 2.504910e+00
      vertex 3.623153e-01 -1.207605e-01 2.922395e+00
      vertex -3.623153e-01 1.207605e-01 3.757365e+00
    endloop
  endfacet
  facet normal 0.000000e+00 -8.655584e-01 -5.008080e-01
    outer loop
      vertex -8.454250e-01 8.454250e-01 2.504910e+00
      vertex -3.623153e-01 1.207605e-01 3.757365e+00
      vertex -1.328535e+00 1.207605e-01 3.757365e+00
    endloop
  endfacet
  facet normal 5.514011e-01 -7.964796e-01 -2.481473e-01
    outer loop
      vertex -8.454250e-01 8.454250e-01 2.504910e+00
      vertex -1.328535e+00 1.207605e-01 3.757365e+00
      vertex -2.053165e+00 -1.207605e-01 2.922395e+00
    endloop
  endfacet
  facet normal 6.544519e-01 -6.544519e-01 3.786627e-01
    outer loop
      vertex -8.454250e-01 8.454250e-01 2.504910e+00
      vertex -2.053165e+00 -1.207605e-01 2.922395e+00
      vertex -1.811611e+00 -3.623153e-01 2.087425e+00
    endloop
  endfacet
  facet normal 7.964796e-01 -5.514011e-01 -2.481473e-01
    outer loop
      vertex -8.454250e-01 8.454250e-01 2.504910e+00
      vertex -1.811611e+00 -3.623153e-01 2.087425e+00
      vertex -1.570089e+00 3.623153e-01 1.252455e+00
    endloop
  endfacet
  facet normal 8.655584e-01 0.000000e+00 -5.008080e-01
    outer loop
      vertex -8.454250e-01 8.454250e-01 2.504910e+00
      vertex -1.570089e+00 3.623153e-01 1.252455e+00
      vertex -1.570089e+00 1.328535e+00 1.252455e+00
    endloop
  endfacet
  facet normal 7.964796e-01 5.514011e-01 -2.481473e-01
    outer loop
      vertex -8.454250e-01 8.454250e-01 2.504910e+00
      vertex -1.570089e+00 1.328535e+00 1.252455e+00
      vertex -1.811611e+00 2.053165e+00 2.087425e+00
    endloop
  endfacet
  facet normal 6.544519e-01 6.544519e-01 3.786627e-01
    outer loop
      vertex -8.454250e-01 8.454250e-01 2.504910e+00
      vertex -1.811611e+00 2.053165e+00 2.087425e+00
      vertex -2.053165e+00 1.811611e+00 2.922395e+00
    endloop
  endfacet
  facet normal 5.514011e-01 7.964796e-01 -2.481473e-01
    outer loop
      vertex -8.454250e-01 8.454250e-01 2.504910e+00
      vertex -2.053165e+00 1.811611e+00 2.922395e+00
      vertex -1.328535e+00 1.570089e+00 3.757365e+00
    endloop
  endfacet
  facet normal 0.000000e+00 8.655584e-01 -5.008080e-01
    outer loop
      vertex -8.454250e-01 8.454250e-01 2.504910e+00
      vertex -1.328535e+00 1.570089e+00 3.757365e+00
      vertex -3.623153e-01 1.570089e+00 3.757365e+00
    endloop
  endfacet
  facet normal -5.514011e-01 7.964796e-01 -2.481473e-01
    outer loop
      vertex -8.454250e-01 8.454250e-01 2.504910e+00
      vertex -3.623153e-01 1.570089e+00 3.757365e+00
      vertex 3.623153e-01 1.811611e+00 2.922395e+00
    endloop
  endfacet
  facet normal -6.544519e-01 -6.544519e-01 3.786627e-01
    outer loop
      vertex 4.227125e+00 -8.454250e-01 8.349700e-01
      vertex 3.260939e+00 3.623153e-01 1.252455e+00
      vertex 3.019385e+00 1.207605e-01 4.174850e-01
    endloop
  endfacet
  facet normal -5.514011e-01 -7.964796e-01 -2.481473e-01
    outer loop
      vertex 4.227125e+00 -8.454250e-01 8.349700e-01
      vertex 3.019385e+00 1.207605e-01 4.174850e-01
      vertex 3.744015e+00 -1.207605e-01 -4.174850e-01
    endloop
  endfacet
  facet normal 0.000000e+00 -8.655584e-01 -5.008080e-01
    outer loop
      vertex 4.227125e+00 -8.454250e-01 8.349700e-01
      vertex 3.744015e+00 -1.207605e-01 -4.174850e-01
      vertex 4.710235e+00 -1.207605e-01 -4.174850e-01
    endloop
  endfacet
  facet normal 5.514011e-01 -7.964796e-01 -2.481473e-01
    outer loop
      vertex 4.227125e+00 -8.454250e-01 8.349700e-01
      vertex 4.710235e+00 -1.207605e-01 -4.174850e-01
      vertex 5.434865e+00 1.207605e-01 4.174850e-01
    endloop
  endfacet
  facet normal 6.544519e-01 -6.544519e-01 3.786627e-01
    outer loop
      vertex 4.227125e+00 -8.454250e-01 8.349700e-01
      vertex 5.434865e+00 1.207605e-01 4.174850e-01
      vertex 5.193311e+00 3.623153e-01 1.252455e+00
    endloop
  endfacet
  facet normal 7.964796e-01 -5.514011e-01 -2.481473e-01
    outer loop
      vertex 4.227125e+00 -8.454250e-01 8.349700e-01
      vertex 5.193311e+00 3.623153e-01 1.252455e+00
      vertex 4.951789e+00 -3.623153e-01 2.087425e+00
    endloop
  endfacet
  facet normal 8.655584e-01 0.000000e+00 -5.008080e-01
    outer loop
      vertex 4.227125e+00 -8.454250e-01 8.349700e-01
      vertex 4.951789e+00 -3.623153e-01 2.087425e+00
      vertex 4.951789e+00 -1.328535e+00 2.087425e+00
    endloop
  endfacet
  facet normal 7.964796e-01 5.514011e-01 -2.481473e-01
    outer loop
      vertex 4.227125e+00 -8.454250e-01 8.349700e-01
      vertex 4.951789e+00 -1.328535e+00 2.087425e+00
      vertex 5.193311e+00 -2.053165e+00 1.252455e+00
    endloop
  endfacet
  facet normal 6.544519e-01 6.544519e-01 3.786627e-01
    outer loop
      vertex 4.227125e+00 -8.454250e-01 8.349700e-01
      vertex 5.193311e+00 -2.053165e+00 1.252455e+00
      vertex 5.434865e+00 -1.811611e+00 4.174850e-01
    endloop
  endfacet
  facet normal 5.514011e-01 7.964796e-01 -2.481473e-01
    outer loop
      vertex 4.227125e+00 -8.454250e-01 8.349700e-01
      vertex 5.434865e+00 -1.811611e+00 4.174850e-01
      vertex 4.710235e+00 -1.570089e+00 -4.174850e-01
    endloop
  endfacet
  facet normal 0.000000e+00 8.655584e-01 -5.008080e-01
    outer loop
      vertex 4.227125e+00 -8.454250e-01 8.349700e-01
      vertex 4.710235e+00 -1.570089e+00 -4.174850e-01
      vertex 3.744015e+00 -1.570089e+00 -4.174850e-01
    endloop
  endfacet
  facet normal -5.514011e-01 7.964796e-01 -2.481473e-01
    outer loop
      vertex 4.227125e+00 -8.454250e-01 8.349700e-01
      vertex 3.744015e+00 -1.570089e+00 -4.174850e-01
      vertex 3.019385e+00 -1.811611e+00 4.174850e-01
    endloop
  endfacet
  facet normal -6.544519e-01 6.544519e-01 3.786627e-01
    outer loop
      vertex 4.227125e+00 -8.454250e-01 8.349700e-01
      vertex 3.019385e+00 -1.811611e+00 4.174850e-01
      vertex 3.260939e+00 -2.053165e+00 1.252455e+00
    endloop
  endfacet
  facet normal -7.964796e-01 5.514011e-01 -2.481473e-01
    outer loop
      vertex 4.227125e+00 -8.454250e-01 8.349700e-01
      vertex 3.260939e+00 -2.053165e+00 1.252455e+00
      vertex 3.502461e+00 -1.328535e+00 2.087425e+00
    endloop
  endfacet
  facet normal -8.655584e-01 0.000000e+00 -5.008080e-01
    outer loop
      vertex 4.227125e+00 -8.454250e-01 8.349700e-01
      vertex 3.502461e+00 -1.328535e+00 2.087425e+00
      vertex 3.502461e+00 -3.623153e-01 2.087425e+00
    endloop
  endfacet
  facet normal -7.964796e-01 -5.514011e-01 -2.481473e-01
    outer loop
      vertex 4.227125e+00 -8.454250e-01 8.349700e-01
      vertex 3.502461e+00 -3.623153e-01 2.087425e+00
      vertex 3.260939e+00 3.623153e-01 1.252455e+00
    endloop
  endfacet
  facet normal 6.544519e-01 6.544519e-01 3.786627e-01
    outer loop
      vertex 2.536275e+00 8.454250e-01 2.504910e+00
      vertex 1.570089e+00 2.053165e+00 2.087425e+00
      vertex 1.328535e+00 1.811611e+00 2.922395e+00
    endloop
  endfacet
  facet normal 5.514011e-01 7.964796e-01 -2.481473e-01
    outer loop
      vertex 2.536275e+00 8.454250e-01 2.504910e+00
      vertex 1.328535e+00 1.811611e+00 2.922395e+00
      vertex 2.053165e+00 1.570089e+00 3.757365e+00
    endloop
  endfacet
  facet normal 0.000000e+00 8.655584e-01 -5.008080e-01
    outer loop
      vertex 2.536275e+00 8.454250e-01 2.504910e+00
      vertex 2.053165e+00 1.570089e+00 3.757365e+00
      vertex 3.019385e+00 1.570089e+00 3.757365e+00
    endloop
  endfacet
  facet normal -5.514011e-01 7.964796e-01 -2.481473e-01
    outer loop
      vertex 2.536275e+00 8.454250e-01 2.504910e+00
      vertex 3.019385e+00 1.570089e+00 3.757365e+00
      vertex 3.744015e+00 1.811611e+00 2.922395e+00
    endloop
  endfacet
  facet normal -6.544519e-01 6.544519e-01 3.786627e-01
    outer loop
      vertex 2.536275e+00 8.454250e-01 2.504910e+00
      vertex 3.744015e+00 1.811611e+00 2.922395e+00
      vertex 3.502461e+00 2.053165e+00 2.087425e+00
    endloop
  endfacet
  facet normal -7.964796e-01 5.514011e-01 -2.481473e-01
    outer loop
      vertex 2.536275e+00 8.454250e-01 2.504910e+00
      vertex 3.502461e+00 2.053165e+00 2.087425e+00
      vertex 3.260939e+00 1.328535e+00 1.252455e+00
    endloop
  endfacet
  facet normal -8.655584e-01 0.000000e+00 -5.008080e-01
    outer loop
      vertex 2.536275e+00 8.454250e-01 2.504910e+00
      vertex 3.260939e+00 1.328535e+00 1.252455e+00
      vertex 3.260939e+00 3.623153e-01 1.252455e+00
    endloop
  endfacet
  facet normal -7.964796e-01 -5.514011e-01 -2.481473e-01
    outer loop
      vertex 2.536275e+00 8.454250e-01 2.504910e+00
      vertex 3.260939e+00 3.623153e-01 1.252455e+00
      vertex 3.502461e+00 -3.623153e-01 2.087425e+00
    endloop
  endfacet
  facet normal -6.544519e-01 -6.544519e-01 3.786627e-01
    outer loop
      vertex 2.536275e+00 8.454250e-01 2.504910e+00
      vertex 3.502461e+00 -3.623153e-01 2.087425e+00
      vertex 3.744015e+00 -1.207605e-01 2.922395e+00
    endloop
  endfacet
  facet normal -5.514011e-01 -7.964796e-01 -2.481473e-01
    outer loop
      vertex 2.536275e+00 8.454250e-01 2.504910e+00
      vertex 3.744015e+00 -1.207605e-01 2.922395e+00
      vertex 3.019385e+00 1.207605e-01 3.757365e+00
    endloop
  endfacet
  facet normal 0.000000e+00 -8.655584e-01 -5.008080e-01
    outer loop
      vertex 2.536275e+00 8.454250e-01 2.504910e+00
      vertex 3.019385e+00 1.207605e-01 3.757365e+00
      vertex 2.053165e+00 1.207605e-01 3.757365e+00
    endloop
  endfacet
  facet normal 5.514011e-01 -7.964796e-01 -2.481473e-01
    outer loop
      vertex 2.536275e+00 8.454250e-01 2.504910e+00
      vertex 2.053165e+00 1.207605e-01 3.757365e+00
      vertex 1.328535e+00 -1.207605e-01 2.922395e+00
    endloop
  endfacet
  facet normal 6.544519e-01 -6.544519e-01 3.786627e-01
    outer loop
      vertex 2.536275e+00 8.454250e-01 2.504910e+00
      vertex 1.328535e+00 -1.207605e-01 2.922395e+00
      vertex 1.570089e+00 -3.623153e-01 2.087425e+00
    endloop
  endfacet
  facet normal 7.964796e-01 -5.514011e-01 -2.481473e-01
    outer loop
      vertex 2.536275e+00 8.454250e-01 2.504910e+00
      vertex 1.570089e+00 -3.623153e-01 2.087425e+00
      vertex 1.811611e+00 3.623153e-01 1.252455e+00
    endloop
  endfacet
  facet normal 8.655584e-01 0.000000e+00 -5.008080e-01
    outer loop
      vertex 2.536275e+00 8.454250e-01 2.504910e+00
      vertex 1.811611e+00 3.623153e-01 1.252455e+00
      vertex 1.811611e+00 1.328535e+00 1.252455e+00
    endloop
  endfacet
  facet normal 7.964796e-01 5.514011e-01 -2.481473e-01
    outer loop
      vertex 2.536275e+00 8.454250e-01 2.504910e+00
      vertex 1.811611e+00 1.328535e+00 1.252455e+00
      vertex 1.570089e+00 2.053165e+00 2.087425e+00
    endloop
  endfacet
  facet normal -6.544519e-01 6.544519e-01 3.786627e-01
    outer loop
      vertex 4.227125e+00 2.536275e+00 8.349700e-01
      vertex 3.019385e+00 1.570089e+00 4.174850e-01
      vertex 3.260939e+00 1.328535e+00 1.252455e+00
    endloop
  endfacet
  facet normal -7.964796e-01 5.514011e-01 -2.481473e-01
    outer loop
      vertex 4.227125e+00 2.536275e+00 8.349700e-01
      vertex 3.260939e+00 1.328535e+00 1.252455e+00
      vertex 3.502461e+00 2.053165e+00 2.087425e+00
    endloop
  endfacet
  facet normal -8.655584e-01 0.000000e+00 -5.008080e-01
    outer loop
      vertex 4.227125e+00 2.536275e+00 8.349700e-01
      vertex 3.502461e+00 2.053165e+00 2.087425e+00
      vertex 3.502461e+00 3.019385e+00 2.087425e+00
    endloop
  endfacet
  facet normal -7.964796e-01 -5.514011e-01 -2.481473e-01
    outer loop
      vertex 4.227125e+00 2.536275e+00 8.349700e-01
      vertex 3.502461e+00 3.019385e+00 2.087425e+00
      vertex 3.260939e+00 3.744015e+00 1.252455e+00
    endloop
  endfacet
  facet normal -6.544519e-01 -6.544519e-01 3.786627e-01
    outer loop
      vertex 4.227125e+00 2.536275e+00 8.349700e-01
      vertex 3.260939e+00 3.744015e+00 1.252455e+00
      vertex 3.019385e+00 3.502461e+00 4.174850e-01
    endloop
  endfacet
  facet normal -5.514011e-01 -7.964796e-01 -2.481473e-01
    outer loop
      vertex 4.227125e+00 2.536275e+00 8.349700e-01
      vertex 3.019385e+00 3.502461e+00 4.174850e-01
      vertex 3.744015e+00 3.260939e+00 -4.174850e-01
    endloop
  endfacet
  facet normal 0.000000e+00 -8.655584e-01 -5.008080e-01
    outer loop
      vertex 4.227125e+00 2.536275e+00 8.349700e-01
      vertex 3.744015e+00 3.260939e+00 -4.174850e-01
      vertex 4.710235e+00 3.260939e+00 -4.174850e-01
    endloop
  endfacet
  facet normal 5.514011e-01 -7.964796e-01 -2.481473e-01
    outer loop
      vertex 4.227125e+00 2.536275e+00 8.349700e-01
      vertex 4.710235e+00 3.260939e+00 -4.174850e-01
      vertex 5.434865e+00 3.502461e+00 4.174850e-01
    endloop
  endfacet
  facet normal 6.544519e-01 -6.544519e-01 3.786627e-01
    outer loop
      vertex 4.227125e+00 2.536275e+00 8.349700e-01
      vertex 5.434865e+00 3.502461e+00 4.174850e-01
      vertex 5.193311e+00 3.744015e+00 1.252455e+00
    endloop
  endfacet
  facet normal 7.964796e-01 -5.514011e-01 -2.481473e-01
    outer loop
      vertex 4.227125e+00 2.536275e+00 8.349700e-01
      vertex 5.193311e+00 3.744015e+00 1.252455e+00
      vertex 4.951789e+00 3.019385e+00 2.087425e+00
    endloop
  endfacet
  facet normal 8.655584e-01 0.000000e+00 -5.008080e-01
    outer loop
      vertex 4.227125e+00 2.536275e+00 8.349700e-01
      vertex 4.951789e+00 3.019385e+00 2.087425e+00
      vertex 4.951789e+00 2.053165e+00 2.087425e+00
    endloop
  endfacet
  facet normal 7.964796e-01 5.514011e-01 -2.481473e-01
    outer loop
      vertex 4.227125e+00 2.536275e+00 8.349700e-01
      vertex 4.951789e+00 2.053165e+00 2.087425e+00
      vertex 5.193311e+00 1.328535e+00 1.252455e+00
    endloop
  endfacet
  facet normal 6.544519e-01 6.544519e-01 3.786627e-01
    outer loop
      vertex 4.227125e+00 2.536275e+00 8.349700e-01
      vertex 5.193311e+00 1.328535e+00 1.252455e+00
      vertex 5.434865e+00 1.570089e+00 4.174850e-01
    endloop
  endfacet
  facet normal 5.514011e-01 7.964796e-01 -2.481473e-01
    outer loop
      vertex 4.227125e+00 2.536275e+00 8.349700e-01
      vertex 5.434865e+00 1.570089e+00 4.174850e-01
      vertex 4.710235e+00 1.811611e+00 -4.174850e-01
    endloop
  endfacet
  facet normal 0.000000e+00 8.655584e-01 -5.008080e-01
    outer loop
      vertex 4.227125e+00 2.536275e+00 8.349700e-01
      vertex 4.710235e+00 1.811611e+00 -4.174850e-01
      vertex 3.744015e+00 1.811611e+00 -4.174850e-01
    endloop
  endfacet
  facet normal -5.514011e-01 7.964796e-01 -2.481473e-01
    outer loop
      vertex 4.227125e+00 2.536275e+00 8.349700e-01
      vertex 3.744015e+00 1.811611e+00 -4.174850e-01
      vertex 3.019385e+00 1.570089e+00 4.174850e-01
    endloop
  endfacet
  facet normal -6.544519e-01 -6.544519e-01 3.786627e-01
    outer loop
      vertex -8.454250e-01 4.227125e+00 2.504910e+00
      vertex 1.207605e-01 3.019385e+00 2.087425e+00
      vertex 3.623153e-01 3.260939e+00 2.922395e+00
    endloop
  endfacet
  facet normal -5.514011e-01 -7.964796e-01 -2.481473e-01
    outer loop
      vertex -8.454250e-01 4.227125e+00 2.504910e+00
      vertex 3.623153e-01 3.260939e+00 2.922395e+00
      vertex -3.623153e-01 3.502461e+00 3.757365e+00
    endloop
  endfacet
  facet normal 0.000000e+00 -8.655584e-01 -5.008080e-01
    outer loop
      vertex -8.454250e-01 4.227125e+00 2.504910e+00
      vertex -3.623153e-01 3.502461e+00 3.757365e+00
      vertex -1.328535e+00 3.502461e+00 3.757365e+00
    endloop
  endfacet
  facet normal 5.514011e-01 -7.964796e-01 -2.481473e-01
    outer loop
      vertex -8.454250e-01 4.227125e+00 2.504910e+00
      vertex -1.328535e+00 3.502461e+00 3.757365e+00
      vertex -2.053165e+00 3.260939e+00 2.922395e+00
    endloop
  endfacet
  facet normal 6.544519e-01 -6.544519e-01 3.786627e-01
    outer loop
      vertex -8.454250e-01 4.227125e+00 2.504910e+00
      vertex -2.053165e+00 3.260939e+00 2.922395e+00
      vertex -1.811611e+00 3.019385e+00 2.087425e+00
    endloop
  endfacet
  facet normal 7.964796e-01 -5.514011e-01 -2.481473e-01
    outer loop
      vertex -8.454250e-01 4.227125e+00 2.504910e+00
      vertex -1.811611e+00 3.019385e+00 2.087425e+00
      vertex -1.570089e+00 3.744015e+00 1.252455e+00
    endloop
  endfacet
  facet normal 8.655584e-01 0.000000e+00 -5.008080e-01
    outer loop
      vertex -8.454250e-01 4.227125e+00 2.504910e+00
      vertex -1.570089e+00 3.744015e+00 1.252455e+00
      vertex -1.570089e+00 4.710235e+00 1.252455e+00
    endloop
  endfacet
  facet normal 7.964796e-01 5.514011e-01 -2.481473e-01
    outer loop
      vertex -8.454250e-01 4.227125e+00 2.504910e+00
      vertex -1.570089e+00 4.710235e+00 1.252455e+00
      vertex -1.811611e+00 5.434865e+00 2.087425e+00
    endloop
  endfacet
  facet normal 6.544519e-01 6.544519e-01 3.786627e-01
    outer loop
      vertex -8.454250e-01 4.227125e+00 2.504910e+00
      vertex -1.811611e+00 5.434865e+00 2.087425e+00
      vertex -2.053165e+00 5.193311e+00 2.922395e+00
    endloop
  endfacet
  facet normal 5.514011e-01 7.964796e-01 -2.481473e-01
    outer loop
      vertex -8.454250e-01 4.227125e+00 2.504910e+00
      vertex -2.053165e+00 5.193311e+00 2.922395e+00
      vertex -1.328535e+00 4.951789e+00 3.757365e+00
    endloop
  endfacet
  facet normal 0.000000e+00 8.655584e-01 -5.008080e-01
    outer loop
      vertex -8.454250e-01 4.227125e+00 2.504910e+00
      vertex -1.328535e+00 4.951789e+00 3.757365e+00
      vertex -3.623153e-01 4.951789e+00 3.757365e+00
    endloop
  endfacet
  facet normal -5.514011e-01 7.964796e-01 -2.481473e-01
    outer loop
      vertex -8.454250e-01 4.227125e+00 2.504910e+00
      vertex -3.623153e-01 4.951789e+00 3.757365e+00
      vertex 3.623153e-01 5.193311e+00 2.922395e+00
    endloop
  endfacet
  facet normal -6.544519e-01 6.544519e-01 3.786627e-01
    outer loop
      vertex -8.454250e-01 4.227125e+00 2.504910e+00
      vertex 3.623153e-01 5.193311e+00 2.922395e+00
      vertex 1.207605e-01 5.434865e+00 2.087425e+00
    endloop
  endfacet
  facet normal -7.964796e-01 5.514011e-01 -2.481473e-01
    outer loop
      vertex -8.454250e-01 4.227125e+00 2.504910e+00
      vertex 1.207605e-01 5.434865e+00 2.087425e+00
      vertex -1.207605e-01 4.710235e+00 1.252455e+00
    endloop
  endfacet
  facet normal -8.655584e-01 0.000000e+00 -5.008080e-01
    outer loop
      vertex -8.454250e-01 4.227125e+00 2.504910e+00
      vertex -1.207605e-01 4.710235e+00 1.252455e+00
      vertex -1.207605e-01 3.744015e+00 1.252455e+00
    endloop
  endfacet
  facet normal -7.964796e-01 -5.514011e-01 -2.481473e-01
    outer loop
      vertex -8.454250e-01 4.227125e+00 2.504910e+00
      vertex -1.207605e-01 3.744015e+00 1.252455e+00
      vertex 1.207605e-01 3.019385e+00 2.087425e+00
    endloop
  endfacet
  facet normal 6.544519e-01 -6.544519e-01 3.786627e-01
    outer loop
      vertex 2.536275e+00 4.227125e+00 2.504910e+00
      vertex 1.328535e+00 3.260939e+00 2.922395e+00
      vertex 1.570089e+00 3.019385e+00 2.087425e+00
    endloop
  endfacet
  facet normal 7.964796e-01 -5.514011e-01 -2.481473e-01
    outer loop
      vertex 2.536275e+00 4.227125e+00 2.504910e+00
      vertex 1.570089e+00 3.019385e+00 2.087425e+00
      vertex 1.811611e+00 3.744015e+00 1.252455e+00
    endloop
  endfacet
  facet normal 8.655584e-01 0.000000e+00 -5.008080e-01
    outer loop
      vertex 2.536275e+00 4.227125e+00 2.504910e+00
      vertex 1.811611e+00 3.744015e+00 1.252455e+00
      vertex 1.811611e+00 4.710235e+00 1.252455e+00
    endloop
  endfacet
  facet normal 7.964796e-01 5.514011e-01 -2.481473e-01
    outer loop
      vertex 2.536275e+00 4.227125e+00 2.504910e+00
      vertex 1.811611e+00 4.710235e+00 1.252455e+00
      vertex 1.570089e+00 5.434865e+00 2.087425e+00
    endloop
  endfacet
  facet normal 6.544519e-01 6.544519e-01 3.786627e-01
    outer loop
      vertex 2.536275e+00 4.227125e+00 2.504910e+00
      vertex 1.570089e+00 5.434865e+00 2.087425e+00
      vertex 1.328535e+00 5.193311e+00 2.922395e+00
    endloop
  endfacet
  facet normal 5.514011e-01 7.964796e-01 -2.481473e-01
    outer loop
      vertex 2.536275e+00 4.227125e+00 2.504910e+00
      vertex 1.328535e+00 5.193311e+00 2.922395e+00
      vertex 2.053165e+00 4.951789e+00 3.757365e+00
    endloop
  endfacet
  facet normal 0.000000e+00 8.655584e-01 -5.008080e-01
    outer loop
      vertex 2.536275e+00 4.227125e+00 2.504910e+00
      vertex 2.053165e+00 4.951789e+00 3.757365e+00
      vertex 3.019385e+00 4.951789e+00 3.757365e+00
    endloop
  endfacet
  facet normal -5.514011e-01 7.964796e-01 -2.481473e-01
    outer loop
      vertex 2.536275e+00 4.227125e+00 2.504910e+00
      vertex 3.019385e+00 4.951789e+00 3.757365e+00
      vertex 3.744015e+00 5.193311e+00 2.922395e+00
    endloop
  endfacet
  facet normal -6.544519e-01 6.544519e-01 3.786627e-01
    outer loop
      vertex 2.536275e+00 4.227125e+00 2.504910e+00
      vertex 3.744015e+00 5.193311e+00 2.922395e+00
      vertex 3.502461e+00 5.434865e+00 2.087425e+00
    endloop
  endfacet
  facet normal -7.964796e-01 5.514011e-01 -2.481473e-01
    outer loop
      vertex 2.536275e+00 4.227125e+00 2.504910e+00
      vertex 3.502461e+00 5.434865e+00 2.087425e+00
      vertex 3.260939e+00 4.710235e+00 1.252455e+00
    endloop
  endfacet
  facet normal -8.655584e-01 0.000000e+00 -5.008080e-01
    outer loop
      vertex 2.536275e+00 4.227125e+00 2.504910e+00
      vertex 3.260939e+00 4.710235e+00 1.252455e+00
      vertex 3.260939e+00 3.744015e+00 1.252455e+00
    endloop
  endfacet
  facet normal -7.964796e-01 -5.514011e-01 -2.481473e-01
    outer loop
      vertex 2.536275e+00 4.227125e+00 2.504910e+00
      vertex 3.260939e+00 3.744015e+00 1.252455e+00
      vertex 3.502461e+00 3.019385e+00 2.087425e+00
    endloop
  endfacet
  facet normal -6.544519e-01 -6.544519e-01 3.786627e-01
    outer loop
      vertex 2.536275e+00 4.227125e+00 2.504910e+00
      vertex 3.502461e+00 3.019385e+00 2.087425e+00
      vertex 3.744015e+00 3.260939e+00 2.922395e+00
    endloop
  endfacet
  facet normal -5.514011e-01 -7.964796e-01 -2.481473e-01
    outer loop
      vertex 2.536275e+00 4.227125e+00 2.504910e+00
      vertex 3.744015e+00 3.260939e+00 2.922395e+00
      vertex 3.019385e+00 3.502461e+00 3.757365e+00
    endloop
  endfacet
  facet normal 0.000000e+00 -8.655584e-01 -5.008080e-01
    outer loop
      vertex 2.536275e+00 4.227125e+00 2.504910e+00
      vertex 3.019385e+00 3.502461e+00 3.757365e+00
      vertex 2.053165e+00 3.502461e+00 3.757365e+00
    endloop
  endfacet
  facet normal 5.514011e-01 -7.964796e-01 -2.481473e-01
    outer loop
      vertex 2.536275e+00 4.227125e+00 2.504910e+00
      vertex 2.053165e+00 3.502461e+00 3.757365e+00
      vertex 1.328535e+00 3.260939e+00 2.922395e+00
    endloop
  endfacet
  facet normal 5.514011e-01 -7.964796e-01 -2.481473e-01
    outer loop
      vertex 2.536275e+00 8.454250e-01 -8.349700e-01
      vertex 2.053165e+00 1.207605e-01 4.174850e-01
      vertex 1.328535e+00 -1.207605e-01 -4.174850e-01
    endloop
  endfacet
  facet normal 6.544519e-01 -6.544519e-01 3.786627e-01
    outer loop
      vertex 2.536275e+00 8.454250e-01 -8.349700e-01
      vertex 1.328535e+00 -1.207605e-01 -4.174850e-01
      vertex 1.570089e+00 -3.623153e-01 -1.252455e+00
    endloop
  endfacet
  facet normal 7.964796e-01 -5.514011e-01 -2.481473e-01
    outer loop
      vertex 2.536275e+00 8.454250e-01 -8.349700e-01
      vertex 1.570089e+00 -3.623153e-01 -1.252455e+00
      vertex 1.811611e+00 3.623153e-01 -2.087425e+00
    endloop
  endfacet
  facet normal 8.655584e-01 0.000000e+00 -5.008080e-01
    outer loop
      vertex 2.536275e+00 8.454250e-01 -8.349700e-01
      vertex 1.811611e+00 3.623153e-01 -2.087425e+00
      vertex 1.811611e+00 1.328535e+00 -2.087425e+00
    endloop
  endfacet
  facet normal 7.964796e-01 5.514011e-01 -2.481473e-01
    outer loop
      vertex 2.536275e+00 8.454250e-01 -8.349700e-01
      vertex 1.811611e+00 1.328535e+00 -2.087425e+00
      vertex 1.570089e+00 2.053165e+00 -1.252455e+00
    endloop
  endfacet
  facet normal 6.544519e-01 6.544519e-01 3.786627e-01
    outer loop
      vertex 2.536275e+00 8.454250e-01 -8.349700e-01
      vertex 1.570089e+00 2.053165e+00 -1.252455e+00
      vertex 1.328535e+00 1.811611e+00 -4.174850e-01
    endloop
  endfacet
  facet normal 5.514011e-01 7.964796e-01 -2.481473e-01
    outer loop
      vertex 2.536275e+00 8.454250e-01 -8.349700e-01
      vertex 1.328535e+00 1.811611e+00 -4.174850e-01
      vertex 2.053165e+00 1.570089e+00 4.174850e-01
    endloop
  endfacet
  facet normal 0.000000e+00 8.655584e-01 -5.008080e-01
    outer loop
      vertex 2.536275e+00 8.454250e-01 -8.349700e-01
      vertex 2.053165e+00 1.570089e+00 4.174850e-01
      vertex 3.019385e+00 1.570089e+00 4.174850e-01
    endloop
  endfacet
  facet normal -5.514011e-01 7.964796e-01 -2.481473e-01
    outer loop
      vertex 2.536275e+00 8.454250e-01 -8.349700e-01
      vertex 3.019385e+00 1.570089e+00 4.174850e-01
      vertex 3.744015e+00 1.811611e+00 -4.174850e-01
    endloop
  endfacet
  facet normal -6.544519e-01 6.544519e-01 3.786627e-01
    outer loop
      vertex 2.536275e+00 8.454250e-01 -8.349700e-01
      vertex 3.744015e+00 1.811611e+00 -4.174850e-01
      vertex 3.502461e+00 2.053165e+00 -1.252455e+00
    endloop
  endfacet
  facet normal -7.964796e-01 5.514011e-01 -2.481473e-01
    outer loop
      vertex 2.536275e+00 8.454250e-01 -8.349700e-01
      vertex 3.502461e+00 2.053165e+00 -1.252455e+00
      vertex 3.260939e+00 1.328535e+00 -2.087425e+00
    endloop
  endfacet
  facet normal -8.655584e-01 0.000000e+00 -5.008080e-01
    outer loop
      vertex 2.536275e+00 8.454250e-01 -8.349700e-01
      vertex 3.260939e+00 1.328535e+00 -2.087425e+00
      vertex 3.260939e+00 3.623153e-01 -2.087425e+00
    endloop
  endfacet
  facet normal -7.964796e-01 -5.514011e-01 -2.481473e-01
    outer loop
      vertex 2.536275e+00 8.454250e-01 -8.349700e-01
      vertex 3.260939e+00 3.623153e-01 -2.087425e+00
      vertex 3.502461e+00 -3.623153e-01 -1.252455e+00
    endloop
  endfacet
  facet normal -6.544519e-01 -6.544519e-01 3.786627e-01
    outer loop
      vertex 2.536275e+00 8.454250e-01 -8.349700e-01
      vertex 3.502461e+00 -3.623153e-01 -1.252455e+00
      vertex 3.744015e+00 -1.207605e-01 -4.174850e-01
    endloop
  endfacet
  facet normal -5.514011e-01 -7.964796e-01 -2.481473e-01
    outer loop
      vertex 2.536275e+00 8.454250e-01 -8.349700e-01
      vertex 3.744015e+00 -1.207605e-01 -4.174850e-01
      vertex 3.019385e+00 1.207605e-01 4.174850e-01
    endloop
  endfacet
  facet normal 0.000000e+00 -8.655584e-01 -5.008080e-01
    outer loop
      vertex 2.536275e+00 8.454250e-01 -8.349700e-01
      vertex 3.019385e+00 1.207605e-01 4.174850e-01
      vertex 2.053165e+00 1.207605e-01 4.174850e-01
    endloop
  endfacet
  facet normal 5.514011e-01 -7.964796e-01 -2.481473e-01
    outer loop
      vertex 8.454250e-01 2.536275e+00 4.174850e+00
      vertex 1.328535e+00 3.260939e+00 2.922395e+00
      vertex 2.053165e+00 3.502461e+00 3.757365e+00
    endloop
  endfacet
  facet normal 6.544519e-01 -6.544519e-01 3.786627e-01
    outer loop
      vertex 8.454250e-01 2.536275e+00 4.174850e+00
      vertex 2.053165e+00 3.502461e+00 3.757365e+00
      vertex 1.811611e+00 3.744015e+00 4.592335e+00
    endloop
  endfacet
  facet normal 7.964796e-01 -5.514011e-01 -2.481473e-01
    outer loop
      vertex 8.454250e-01 2.536275e+00 4.174850e+00
      vertex 1.811611e+00 3.744015e+00 4.592335e+00
      vertex 1.570089e+00 3.019385e+00 5.427305e+00
    endloop
  endfacet
  facet normal 8.655584e-01 0.000000e+00 -5.008080e-01
    outer loop
      vertex 8.454250e-01 2.536275e+00 4.174850e+00
      vertex 1.570089e+00 3.019385e+00 5.427305e+00
      vertex 1.570089e+00 2.053165e+00 5.427305e+00
    endloop
  endfacet
  facet normal 7.964796e-01 5.514011e-01 -2.481473e-01
    outer loop
      vertex 8.454250e-01 2.536275e+00 4.174850e+00
      vertex 1.570089e+00 2.053165e+00 5.427305e+00
      vertex 1.811611e+00 1.328535e+00 4.592335e+00
    endloop
  endfacet
  facet normal 6.544519e-01 6.544519e-01 3.786627e-01
    outer loop
      vertex 8.454250e-01 2.536275e+00 4.174850e+00
      vertex 1.811611e+00 1.328535e+00 4.592335e+00
      vertex 2.053165e+00 1.570089e+00 3.757365e+00
    endloop
  endfacet
  facet normal 5.514011e-01 7.964796e-01 -2.481473e-01
    outer loop
      vertex 8.454250e-01 2.536275e+00 4.174850e+00
      vertex 2.053165e+00 1.570089e+00 3.757365e+00
      vertex 1.328535e+00 1.811611e+00 2.922395e+00
    endloop
  endfacet
  facet normal 0.000000e+00 8.655584e-01 -5.008080e-01
    outer loop
      vertex 8.454250e-01 2.536275e+00 4.174850e+00
      vertex 1.328535e+00 1.811611e+00 2.922395e+00
      vertex 3.623153e-01 1.811611e+00 2.922395e+00
    endloop
  endfacet
  facet normal -5.514011e-01 7.964796e-01 -2.481473e-01
    outer loop
      vertex 8.454250e-01 2.536275e+00 4.174850e+00
      vertex 3.623153e-01 1.811611e+00 2.922395e+00
      vertex -3.623153e-01 1.570089e+00 3.757365e+00
    endloop
  endfacet
  facet normal -6.544519e-01 6.544519e-01 3.786627e-01
    outer loop
      vertex 8.454250e-01 2.536275e+00 4.174850e+00
      vertex -3.623153e-01 1.570089e+00 3.757365e+00
      vertex -1.207605e-01 1.328535e+00 4.592335e+00
    endloop
  endfacet
  facet normal -7.964796e-01 5.514011e-01 -2.481473e-01
    outer loop
      vertex 8.454250e-01 2.536275e+00 4.174850e+00
      vertex -1.207605e-01 1.328535e+00 4.592335e+00
      vertex 1.207605e-01 2.053165e+00 5.427305e+00
    endloop
  endfacet
  facet normal -8.655584e-01 1.588176e-16 -5.008080e-01
    outer loop
      vertex 8.454250e-01 2.536275e+00 4.174850e+00
      vertex 1.207605e-01 2.053165e+00 5.427305e+00
      vertex 1.207605e-01 3.019385e+00 5.427305e+00
    endloop
  endfacet
  facet normal -7.964796e-01 -5.514011e-01 -2.481473e-01
    outer loop
      vertex 8.454250e-01 2.536275e+00 4.174850e+00
      vertex 1.207605e-01 3.019385e+00 5.427305e+00
      vertex -1.207605e-01 3.744015e+00 4.592335e+00
    endloop
  endfacet
  facet normal -6.544519e-01 -6.544519e-01 3.786627e-01
    outer loop
      vertex 8.454250e-01 2.536275e+00 4.174850e+00
      vertex -1.207605e-01 3.744015e+00 4.592335e+00
      vertex -3.623153e-01 3.502461e+00 3.757365e+00
    endloop
  endfacet
  facet normal -5.514011e-01 -7.964796e-01 -2.481473e-01
    outer loop
      vertex 8.454250e-01 2.536275e+00 4.174850e+00
      vertex -3.623153e-01 3.502461e+00 3.757365e+00
      vertex 3.623153e-01 3.260939e+00 2.922395e+00
    endloop
  endfacet
  facet normal 0.000000e+00 -8.655584e-01 -5.008080e-01
    outer loop
      vertex 8.454250e-01 2.536275e+00 4.174850e+00
      vertex 3.623153e-01 3.260939e+00 2.922395e+00
      vertex 1.328535e+00 3.260939e+00 2.922395e+00
    endloop
  endfacet
endsolid surface_model
