solid surface_model
  facet normal 7.071068e-01 7.071068e-01 0.000000e+00
    outer loop
      vertex 5.722313e-01 5.722312e-01 5.722312e-01
      vertex 8.759765e-17 1.144462e+00 2.861156e-01
      vertex 1.226367e-16 1.144462e+00 8.583469e-01
    endloop
  endfacet
  facet normal 6.666667e-01 3.333333e-01 6.666667e-01
    outer loop
      vertex 5.722313e-01 5.722312e-01 5.722312e-01
      vertex 1.226367e-16 1.144462e+00 8.583469e-01
      vertex 2.861156e-01 7.007812e-17 1.144462e+00
    endloop
  endfacet
  facet normal 0.000000e+00 7.071068e-01 7.071068e-01
    outer loop
      vertex 5.722313e-01 5.722312e-01 5.722312e-01
      vertex 2.861156e-01 7.007812e-17 1.144462e+00
      vertex 8.583469e-01 7.007812e-17 1.144462e+00
    endloop
  endfacet
  facet normal 6.666667e-01 6.666667e-01 3.333333e-01
    outer loop
      vertex 5.722313e-01 5.722312e-01 5.722312e-01
      vertex 8.583469e-01 7.007812e-17 1.144462e+00
      vertex 1.144462e+00 2.861156e-01 0.000000e+00
    endloop
  endfacet
  facet normal 7.071068e-01 0.000000e+00 7.071068e-01
    outer loop
      vertex 5.722313e-01 5.722312e-01 5.722312e-01
      vertex 1.144462e+00 2.861156e-01 0.000000e+00
      vertex 1.144462e+00 8.583469e-01 0.000000e+00
    endloop
  endfacet
  facet normal 3.333333e-01 6.666667e-01 6.666667e-01
    outer loop
      vertex 5.722313e-01 5.722312e-01 5.722312e-01
      vertex 1.144462e+00 8.583469e-01 0.000000e+00
      vertex 8.759765e-17 1.144462e+00 2.861156e-01
    endloop
  endfacet
  facet normal 7.071068e-01 7.071068e-01 0.000000e+00
    outer loop
      vertex -5.722312e-01 1.716694e+00 5.722312e-01
      vertex 1.226367e-16 1.144462e+00 8.583469e-01
      vertex 8.759765e-17 1.144462e+00 2.861156e-01
    endloop
  endfacet
  facet normal 3.333333e-01 6.666667e-01 -6.666667e-01
    outer loop
      vertex -5.722312e-01 1.716694e+00 5.722312e-01
      vertex 8.759765e-17 1.144462e+00 2.861156e-01
      vertex -1.144462e+00 1.430578e+00 0.000000e+00
    endloop
  endfacet
  facet normal 7.071068e-01 0.000000e+00 -7.071068e-01
    outer loop
      vertex -5.722312e-01 1.716694e+00 5.722312e-01
      vertex -1.144462e+00 1.430578e+00 0.000000e+00
      vertex -1.144462e+00 2.002809e+00 0.000000e+00
    endloop
  endfacet
  facet normal 6.666667e-01 6.666667e-01 -3.333333e-01
    outer loop
      vertex -5.722312e-01 1.716694e+00 5.722312e-01
      vertex -1.144462e+00 2.002809e+00 0.000000e+00
      vertex -8.583469e-01 2.288925e+00 1.144462e+00
    endloop
  endfacet
  facet normal 0.000000e+00 7.071068e-01 -7.071068e-01
    outer loop
      vertex -5.722312e-01 1.716694e+00 5.722312e-01
      vertex -8.583469e-01 2.288925e+00 1.144462e+00
      vertex -2.861156e-01 2.288925e+00 1.144462e+00
    endloop
  endfacet
  facet normal 6.666667e-01 3.333333e-01 -6.666667e-01
    outer loop
      vertex -5.722312e-01 1.716694e+00 5.722312e-01
      vertex -2.861156e-01 2.288925e+00 1.144462e+00
      vertex 1.226367e-16 1.144462e+00 8.583469e-01
    endloop
  endfacet
  facet normal 0.000000e+00 7.071068e-01 7.071068e-01
    outer loop
      vertex 5.722313e-01 -5.722312e-01 1.716694e+00
      vertex 8.583469e-01 7.007812e-17 1.144462e+00
      vertex 2.861156e-01 7.007812e-17 1.144462e+00
    endloop
  endfacet
  facet normal -6.666667e-01 3.333333e-01 6.666667e-01
    outer loop
      vertex 5.722313e-01 -5.722312e-01 1.716694e+00
      vertex 2.861156e-01 7.007812e-17 1.144462e+00
      vertex 1.751953e-17 -1.144462e+00 1.430578e+00
    endloop
  endfacet
  facet normal -7.071068e-01 7.071068e-01 0.000000e+00
    outer loop
      vertex 5.722313e-01 -5.722312e-01 1.716694e+00
      vertex 1.751953e-17 -1.144462e+00 1.430578e+00
      vertex 5.255859e-17 -1.144462e+00 2.002809e+00
    endloop
  endfacet
  facet normal -3.333333e-01 6.666667e-01 6.666667e-01
    outer loop
      vertex 5.722313e-01 -5.722312e-01 1.716694e+00
      vertex 5.255859e-17 -1.144462e+00 2.002809e+00
      vertex 1.144463e+00 -8.583469e-01 2.288925e+00
    endloop
  endfacet
  facet normal -7.071068e-01 0.000000e+00 7.071068e-01
    outer loop
      vertex 5.722313e-01 -5.722312e-01 1.716694e+00
      vertex 1.144463e+00 -8.583469e-01 2.288925e+00
      vertex 1.144463e+00 -2.861156e-01 2.288925e+00
    endloop
  endfacet
  facet normal -6.666667e-01 6.666667e-01 3.333333e-01
    outer loop
      vertex 5.722313e-01 -5.722312e-01 1.716694e+00
      vertex 1.144463e+00 -2.861156e-01 2.288925e+00
      vertex 8.583469e-01 7.007812e-17 1.144462e+00
    endloop
  endfacet
  facet normal 7.071068e-01 0.000000e+00 7.071068e-01
    outer loop
      vertex 1.716694e+00 5.722312e-01 -5.722312e-01
      vertex 1.144462e+00 8.583469e-01 0.000000e+00
      vertex 1.144462e+00 2.861156e-01 0.000000e+00
    endloop
  endfacet
  facet normal 6.666667e-01 -6.666667e-01 3.333333e-01
    outer loop
      vertex 1.716694e+00 5.722312e-01 -5.722312e-01
      vertex 1.144462e+00 2.861156e-01 0.000000e+00
      vertex 1.430578e+00 -7.007812e-17 -1.144462e+00
    endloop
  endfacet
  facet normal 0.000000e+00 -7.071068e-01 7.071068e-01
    outer loop
      vertex 1.716694e+00 5.722312e-01 -5.722312e-01
      vertex 1.430578e+00 -7.007812e-17 -1.144462e+00
      vertex 2.002809e+00 -7.007812e-17 -1.144462e+00
    endloop
  endfacet
  facet normal 6.666667e-01 -3.333333e-01 6.666667e-01
    outer loop
      vertex 1.716694e+00 5.722312e-01 -5.722312e-01
      vertex 2.002809e+00 -7.007812e-17 -1.144462e+00
      vertex 2.288925e+00 1.144462e+00 -8.583469e-01
    endloop
  endfacet
  facet normal 7.071068e-01 -7.071068e-01 0.000000e+00
    outer loop
      vertex 1.716694e+00 5.722312e-01 -5.722312e-01
      vertex 2.288925e+00 1.144462e+00 -8.583469e-01
      vertex 2.288925e+00 1.144462e+00 -2.861156e-01
    endloop
  endfacet
  facet normal 3.333333e-01 -6.666667e-01 6.666667e-01
    outer loop
      vertex 1.716694e+00 5.722312e-01 -5.722312e-01
      vertex 2.288925e+00 1.144462e+00 -2.861156e-01
      vertex 1.144462e+00 8.583469e-01 0.000000e+00
    endloop
  endfacet
  facet normal -7.071068e-01 7.071068e-01 0.000000e+00
    outer loop
      vertex 5.722313e-01 4.005619e+00 1.716694e+00
      vertex 2.978320e-16 3.433387e+00 1.430578e+00
      vertex 3.328711e-16 3.433387e+00 2.002809e+00
    endloop
  endfacet
  facet normal -3.333333e-01 6.666667e-01 6.666667e-01
    outer loop
      vertex 5.722313e-01 4.005619e+00 1.716694e+00
      vertex 3.328711e-16 3.433387e+00 2.002809e+00
      vertex 1.144463e+00 3.719503e+00 2.288925e+00
    endloop
  endfacet
  facet normal -7.071068e-01 0.000000e+00 7.071068e-01
    outer loop
      vertex 5.722313e-01 4.005619e+00 1.716694e+00
      vertex 1.144463e+00 3.719503e+00 2.288925e+00
      vertex 1.144463e+00 4.291734e+00 2.288925e+00
    endloop
  endfacet
  facet normal -6.666667e-01 6.666667e-01 3.333333e-01
    outer loop
      vertex 5.722313e-01 4.005619e+00 1.716694e+00
      vertex 1.144463e+00 4.291734e+00 2.288925e+00
      vertex 8.583469e-01 4.577850e+00 1.144462e+00
    endloop
  endfacet
  facet normal 0.000000e+00 7.071068e-01 7.071068e-01
    outer loop
      vertex 5.722313e-01 4.005619e+00 1.716694e+00
      vertex 8.583469e-01 4.577850e+00 1.144462e+00
      vertex 2.861156e-01 4.577850e+00 1.144462e+00
    endloop
  endfacet
  facet normal -6.666667e-01 3.333333e-01 6.666667e-01
    outer loop
      vertex 5.722313e-01 4.005619e+00 1.716694e+00
      vertex 2.861156e-01 4.577850e+00 1.144462e+00
      vertex 2.978320e-16 3.433387e+00 1.430578e+00
    endloop
  endfacet
  facet normal -7.071068e-01 7.071068e-01 0.000000e+00
    outer loop
      vertex -5.722312e-01 2.861156e+00 1.716694e+00
      vertex 3.328711e-16 3.433387e+00 2.002809e+00
      vertex 2.978320e-16 3.433387e+00 1.430578e+00
    endloop
  endfacet
  facet normal -6.666667e-01 3.333333e-01 -6.666667e-01
    outer loop
      vertex -5.722312e-01 2.861156e+00 1.716694e+00
      vertex 2.978320e-16 3.433387e+00 1.430578e+00
      vertex -2.861156e-01 2.288925e+00 1.144462e+00
    endloop
  endfacet
  facet normal 0.000000e+00 7.071068e-01 -7.071068e-01
    outer loop
      vertex -5.722312e-01 2.861156e+00 1.716694e+00
      vertex -2.861156e-01 2.288925e+00 1.144462e+00
      vertex -8.583469e-01 2.288925e+00 1.144462e+00
    endloop
  endfacet
  facet normal -6.666667e-01 6.666667e-01 -3.333333e-01
    outer loop
      vertex -5.722312e-01 2.861156e+00 1.716694e+00
      vertex -8.583469e-01 2.288925e+00 1.144462e+00
      vertex -1.144462e+00 2.575041e+00 2.288925e+00
    endloop
  endfacet
  facet normal -7.071068e-01 0.000000e+00 -7.071068e-01
    outer loop
      vertex -5.722312e-01 2.861156e+00 1.716694e+00
      vertex -1.144462e+00 2.575041e+00 2.288925e+00
      vertex -1.144462e+00 3.147272e+00 2.288925e+00
    endloop
  endfacet
  facet normal -3.333333e-01 6.666667e-01 -6.666667e-01
    outer loop
      vertex -5.722312e-01 2.861156e+00 1.716694e+00
      vertex -1.144462e+00 3.147272e+00 2.288925e+00
      vertex 3.328711e-16 3.433387e+00 2.002809e+00
    endloop
  endfacet
  facet normal 0.000000e+00 -7.071068e-01 7.071068e-01
    outer loop
      vertex 1.716694e+00 5.722313e-01 4.005619e+00
      vertex 1.430578e+00 2.102344e-16 3.433387e+00
      vertex 2.002809e+00 2.102344e-16 3.433387e+00
    endloop
  endfacet
  facet normal 6.666667e-01 -3.333333e-01 6.666667e-01
    outer loop
      vertex 1.716694e+00 5.722313e-01 4.005619e+00
      vertex 2.002809e+00 2.102344e-16 3.433387e+00
      vertex 2.288925e+00 1.144463e+00 3.719503e+00
    endloop
  endfacet
  facet normal 7.071068e-01 -7.071068e-01 0.000000e+00
    outer loop
      vertex 1.716694e+00 5.722313e-01 4.005619e+00
      vertex 2.288925e+00 1.144463e+00 3.719503e+00
      vertex 2.288925e+00 1.144463e+00 4.291734e+00
    endloop
  endfacet
  facet normal 3.333333e-01 -6.666667e-01 6.666667e-01
    outer loop
      vertex 1.716694e+00 5.722313e-01 4.005619e+00
      vertex 2.288925e+00 1.144463e+00 4.291734e+00
      vertex 1.144463e+00 8.583469e-01 4.577850e+00
    endloop
  endfacet
  facet normal 7.071068e-01 0.000000e+00 7.071068e-01
    outer loop
      vertex 1.716694e+00 5.722313e-01 4.005619e+00
      vertex 1.144463e+00 8.583469e-01 4.577850e+00
      vertex 1.144463e+00 2.861156e-01 4.577850e+00
    endloop
  endfacet
  facet normal 6.666667e-01 -6.666667e-01 3.333333e-01
    outer loop
      vertex 1.716694e+00 5.722313e-01 4.005619e+00
      vertex 1.144463e+00 2.861156e-01 4.577850e+00
      vertex 1.430578e+00 2.102344e-16 3.433387e+00
    endloop
  endfacet
  facet normal 0.000000e+00 -7.071068e-01 7.071068e-01
    outer loop
      vertex 1.716694e+00 -5.722312e-01 2.861156e+00
      vertex 2.002809e+00 2.102344e-16 3.433387e+00
      vertex 1.430578e+00 2.102344e-16 3.433387e+00
    endloop
  endfacet
  facet normal -6.666667e-01 -6.666667e-01 3.333333e-01
    outer loop
      vertex 1.716694e+00 -5.722312e-01 2.861156e+00
      vertex 1.430578e+00 2.102344e-16 3.433387e+00
      vertex 1.144463e+00 -2.861156e-01 2.288925e+00
    endloop
  endfacet
  facet normal -7.071068e-01 0.000000e+00 7.071068e-01
    outer loop
      vertex 1.716694e+00 -5.722312e-01 2.861156e+00
      vertex 1.144463e+00 -2.861156e-01 2.288925e+00
      vertex 1.144463e+00 -8.583469e-01 2.288925e+00
    endloop
  endfacet
  facet normal -3.333333e-01 -6.666667e-01 6.666667e-01
    outer loop
      vertex 1.716694e+00 -5.722312e-01 2.861156e+00
      vertex 1.144463e+00 -8.583469e-01 2.288925e+00
      vertex 2.288925e+00 -1.144462e+00 2.575041e+00
    endloop
  endfacet
  facet normal -7.071068e-01 -7.071068e-01 0.000000e+00
    outer loop
      vertex 1.716694e+00 -5.722312e-01 2.861156e+00
      vertex 2.288925e+00 -1.144462e+00 2.575041e+00
      vertex 2.288925e+00 -1.144462e+00 3.147272e+00
    endloop
  endfacet
  facet normal -6.666667e-01 -3.333333e-01 6.666667e-01
    outer loop
      vertex 1.716694e+00 -5.722312e-01 2.861156e+00
      vertex 2.288925e+00 -1.144462e+00 3.147272e+00
      vertex 2.002809e+00 2.102344e-16 3.433387e+00
    endloop
  endfacet
  facet normal 7.071068e-01 0.000000e+00 -7.071068e-01
    outer loop
      vertex 4.005619e+00 1.716694e+00 5.722312e-01
      vertex 3.433387e+00 1.430578e+00 0.000000e+00
      vertex 3.433387e+00 2.002809e+00 0.000000e+00
    endloop
  endfacet
  facet normal 6.666667e-01 6.666667e-01 -3.333333e-01
    outer loop
      vertex 4.005619e+00 1.716694e+00 5.722312e-01
      vertex 3.433387e+00 2.002809e+00 0.000000e+00
      vertex 3.719503e+00 2.288925e+00 1.144462e+00
    endloop
  endfacet
  facet normal 0.000000e+00 7.071068e-01 -7.071068e-01
    outer loop
      vertex 4.005619e+00 1.716694e+00 5.722312e-01
      vertex 3.719503e+00 2.288925e+00 1.144462e+00
      vertex 4.291734e+00 2.288925e+00 1.144462e+00
    endloop
  endfacet
  facet normal 6.666667e-01 3.333333e-01 -6.666667e-01
    outer loop
      vertex 4.005619e+00 1.716694e+00 5.722312e-01
      vertex 4.291734e+00 2.288925e+00 1.144462e+00
      vertex 4.577850e+00 1.144462e+00 8.583469e-01
    endloop
  endfacet
  facet normal 7.071068e-01 7.071068e-01 0.000000e+00
    outer loop
      vertex 4.005619e+00 1.716694e+00 5.722312e-01
      vertex 4.577850e+00 1.144462e+00 8.583469e-01
      vertex 4.577850e+00 1.144462e+00 2.861156e-01
    endloop
  endfacet
  facet normal 3.333333e-01 6.666667e-01 -6.666667e-01
    outer loop
      vertex 4.005619e+00 1.716694e+00 5.722312e-01
      vertex 4.577850e+00 1.144462e+00 2.861156e-01
      vertex 3.433387e+00 1.430578e+00 0.000000e+00
    endloop
  endfacet
  facet normal 7.071068e-01 0.000000e+00 -7.071068e-01
    outer loop
      vertex 2.861156e+00 1.716694e+00 -5.722312e-01
      vertex 3.433387e+00 2.002809e+00 0.000000e+00
      vertex 3.433387e+00 1.430578e+00 0.000000e+00
    endloop
  endfacet
  facet normal 3.333333e-01 -6.666667e-01 -6.666667e-01
    outer loop
      vertex 2.861156e+00 1.716694e+00 -5.722312e-01
      vertex 3.433387e+00 1.430578e+00 0.000000e+00
      vertex 2.288925e+00 1.144462e+00 -2.861156e-01
    endloop
  endfacet
  facet normal 7.071068e-01 -7.071068e-01 0.000000e+00
    outer loop
      vertex 2.861156e+00 1.716694e+00 -5.722312e-01
      vertex 2.288925e+00 1.144462e+00 -2.861156e-01
      vertex 2.288925e+00 1.144462e+00 -8.583469e-01
    endloop
  endfacet
  facet normal 6.666667e-01 -3.333333e-01 -6.666667e-01
    outer loop
      vertex 2.861156e+00 1.716694e+00 -5.722312e-01
      vertex 2.288925e+00 1.144462e+00 -8.583469e-01
      vertex 2.575041e+00 2.288925e+00 -1.144462e+00
    endloop
  endfacet
  facet normal 0.000000e+00 -7.071068e-01 -7.071068e-01
    outer loop
      vertex 2.861156e+00 1.716694e+00 -5.722312e-01
      vertex 2.575041e+00 2.288925e+00 -1.144462e+00
      vertex 3.147272e+00 2.288925e+00 -1.144462e+00
    endloop
  endfacet
  facet normal 6.666667e-01 -6.666667e-01 -3.333333e-01
    outer loop
      vertex 2.861156e+00 1.716694e+00 -5.722312e-01
      vertex 3.147272e+00 2.288925e+00 -1.144462e+00
      vertex 3.433387e+00 2.002809e+00 0.000000e+00
    endloop
  endfacet
  facet normal -7.071068e-01 0.000000e+00 7.071068e-01
    outer loop
      vertex 1.716694e+00 4.005619e+00 2.861156e+00
      vertex 1.144463e+00 4.291734e+00 2.288925e+00
      vertex 1.144463e+00 3.719503e+00 2.288925e+00
    endloop
  endfacet
  facet normal -3.333333e-01 -6.666667e-01 6.666667e-01
    outer loop
      vertex 1.716694e+00 4.005619e+00 2.861156e+00
      vertex 1.144463e+00 3.719503e+00 2.288925e+00
      vertex 2.288925e+00 3.433387e+00 2.575041e+00
    endloop
  endfacet
  facet normal -7.071068e-01 -7.071068e-01 0.000000e+00
    outer loop
      vertex 1.716694e+00 4.005619e+00 2.861156e+00
      vertex 2.288925e+00 3.433387e+00 2.575041e+00
      vertex 2.288925e+00 3.433387e+00 3.147272e+00
    endloop
  endfacet
  facet normal -6.666667e-01 -3.333333e-01 6.666667e-01
    outer loop
      vertex 1.716694e+00 4.005619e+00 2.861156e+00
      vertex 2.288925e+00 3.433387e+00 3.147272e+00
      vertex 2.002809e+00 4.577850e+00 3.433387e+00
    endloop
  endfacet
  facet normal 0.000000e+00 -7.071068e-01 7.071068e-01
    outer loop
      vertex 1.716694e+00 4.005619e+00 2.861156e+00
      vertex 2.002809e+00 4.577850e+00 3.433387e+00
      vertex 1.430578e+00 4.577850e+00 3.433387e+00
    endloop
  endfacet
  facet normal -6.666667e-01 -6.666667e-01 3.333333e-01
    outer loop
      vertex 1.716694e+00 4.005619e+00 2.861156e+00
      vertex 1.430578e+00 4.577850e+00 3.433387e+00
      vertex 1.144463e+00 4.291734e+00 2.288925e+00
    endloop
  endfacet
  facet normal 7.071068e-01 -7.071068e-01 0.000000e+00
    outer loop
      vertex 2.861156e+00 1.716694e+00 4.005619e+00
      vertex 2.288925e+00 1.144463e+00 4.291734e+00
      vertex 2.288925e+00 1.144463e+00 3.719503e+00
    endloop
  endfacet
  facet normal 6.666667e-01 -3.333333e-01 -6.666667e-01
    outer loop
      vertex 2.861156e+00 1.716694e+00 4.005619e+00
      vertex 2.288925e+00 1.144463e+00 3.719503e+00
      vertex 2.575041e+00 2.288925e+00 3.433387e+00
    endloop
  endfacet
  facet normal 0.000000e+00 -7.071068e-01 -7.071068e-01
    outer loop
      vertex 2.861156e+00 1.716694e+00 4.005619e+00
      vertex 2.575041e+00 2.288925e+00 3.433387e+00
      vertex 3.147272e+00 2.288925e+00 3.433387e+00
    endloop
  endfacet
  facet normal 6.666667e-01 -6.666667e-01 -3.333333e-01
    outer loop
      vertex 2.861156e+00 1.716694e+00 4.005619e+00
      vertex 3.147272e+00 2.288925e+00 3.433387e+00
      vertex 3.433388e+00 2.002809e+00 4.577850e+00
    endloop
  endfacet
  facet normal 7.071068e-01 0.000000e+00 -7.071068e-01
    outer loop
      vertex 2.861156e+00 1.716694e+00 4.005619e+00
      vertex 3.433388e+00 2.002809e+00 4.577850e+00
      vertex 3.433388e+00 1.430578e+00 4.577850e+00
    endloop
  endfacet
  facet normal 3.333333e-01 -6.666667e-01 -6.666667e-01
    outer loop
      vertex 2.861156e+00 1.716694e+00 4.005619e+00
      vertex 3.433388e+00 1.430578e+00 4.577850e+00
      vertex 2.288925e+00 1.144463e+00 4.291734e+00
    endloop
  endfacet
  facet normal 0.000000e+00 7.071068e-01 -7.071068e-01
    outer loop
      vertex 4.005619e+00 2.861156e+00 1.716694e+00
      vertex 4.291734e+00 2.288925e+00 1.144462e+00
      vertex 3.719503e+00 2.288925e+00 1.144462e+00
    endloop
  endfacet
  facet normal -6.666667e-01 6.666667e-01 -3.333333e-01
    outer loop
      vertex 4.005619e+00 2.861156e+00 1.716694e+00
      vertex 3.719503e+00 2.288925e+00 1.144462e+00
      vertex 3.433387e+00 2.575041e+00 2.288925e+00
    endloop
  endfacet
  facet normal -7.071068e-01 0.000000e+00 -7.071068e-01
    outer loop
      vertex 4.005619e+00 2.861156e+00 1.716694e+00
      vertex 3.433387e+00 2.575041e+00 2.288925e+00
      vertex 3.433387e+00 3.147272e+00 2.288925e+00
    endloop
  endfacet
  facet normal -3.333333e-01 6.666667e-01 -6.666667e-01
    outer loop
      vertex 4.005619e+00 2.861156e+00 1.716694e+00
      vertex 3.433387e+00 3.147272e+00 2.288925e+00
      vertex 4.577850e+00 3.433387e+00 2.002809e+00
    endloop
  endfacet
  facet normal -7.071068e-01 7.071068e-01 0.000000e+00
    outer loop
      vertex 4.005619e+00 2.861156e+00 1.716694e+00
      vertex 4.577850e+00 3.433387e+00 2.002809e+00
      vertex 4.577850e+00 3.433387e+00 1.430578e+00
    endloop
  endfacet
  facet normal -6.666667e-01 3.333333e-01 -6.666667e-01
    outer loop
      vertex 4.005619e+00 2.861156e+00 1.716694e+00
      vertex 4.577850e+00 3.433387e+00 1.430578e+00
      vertex 4.291734e+00 2.288925e+00 1.144462e+00
    endloop
  endfacet
  facet normal -7.071068e-01 -7.071068e-01 0.000000e+00
    outer loop
      vertex 2.861156e+00 2.861156e+00 2.861156e+00
      vertex 2.288925e+00 3.433387e+00 3.147272e+00
      vertex 2.288925e+00 3.433387e+00 2.575041e+00
    endloop
  endfacet
  facet normal -3.333333e-01 -6.666667e-01 -6.666667e-01
    outer loop
      vertex 2.861156e+00 2.861156e+00 2.861156e+00
      vertex 2.288925e+00 3.433387e+00 2.575041e+00
      vertex 3.433387e+00 3.147272e+00 2.288925e+00
    endloop
  endfacet
  facet normal -7.071068e-01 0.000000e+00 -7.071068e-01
    outer loop
      vertex 2.861156e+00 2.861156e+00 2.861156e+00
      vertex 3.433387e+00 3.147272e+00 2.288925e+00
      vertex 3.433387e+00 2.575041e+00 2.288925e+00
    endloop
  endfacet
  facet normal -6.666667e-01 -6.666667e-01 -3.333333e-01
    outer loop
      vertex 2.861156e+00 2.861156e+00 2.861156e+00
      vertex 3.433387e+00 2.575041e+00 2.288925e+00
      vertex 3.147272e+00 2.288925e+00 3.433387e+00
    endloop
  endfacet
  facet normal 0.000000e+00 -7.071068e-01 -7.071068e-01
    outer loop
      vertex 2.861156e+00 2.861156e+00 2.861156e+00
      vertex 3.147272e+00 2.288925e+00 3.433387e+00
      vertex 2.575041e+00 2.288925e+00 3.433387e+00
    endloop
  endfacet
  facet normal -6.666667e-01 -3.333333e-01 -6.666667e-01
    outer loop
      vertex 2.861156e+00 2.861156e+00 2.861156e+00
      vertex 2.575041e+00 2.288925e+00 3.433387e+00
      vertex 2.288925e+00 3.433387e+00 3.147272e+00
    endloop
  endfacet
  facet normal 3.333333e-01 6.666667e-01 6.666667e-01
    outer loop
      vertex 5.722312e-01 1.072934e+00 7.152891e-02
      vertex 8.759765e-17 1.144462e+00 2.861156e-01
      vertex 1.144462e+00 8.583469e-01 0.000000e+00
    endloop
  endfacet
  facet normal 1.240347e-01 -8.410860e-17 9.922779e-01
    outer loop
      vertex 5.722312e-01 1.072934e+00 7.152891e-02
      vertex 1.144462e+00 8.583469e-01 0.000000e+00
      vertex 1.144462e+00 1.144462e+00 2.775558e-17
    endloop
  endfacet
  facet normal 0.000000e+00 7.071068e-01 7.071068e-01
    outer loop
      vertex 5.722312e-01 1.072934e+00 7.152891e-02
      vertex 1.144462e+00 1.144462e+00 2.775558e-17
      vertex 0.000000e+00 1.144462e+00 2.775558e-17
    endloop
  endfacet
  facet normal 1.240347e-01 9.922779e-01 -4.205430e-17
    outer loop
      vertex 5.722312e-01 1.072934e+00 7.152891e-02
      vertex 0.000000e+00 1.144462e+00 2.775558e-17
      vertex 8.759765e-17 1.144462e+00 2.861156e-01
    endloop
  endfacet
  facet normal 3.333333e-01 -6.666667e-01 6.666667e-01
    outer loop
      vertex 1.716694e+00 1.072934e+00 -7.152891e-02
      vertex 1.144462e+00 8.583469e-01 0.000000e+00
      vertex 2.288925e+00 1.144462e+00 -2.861156e-01
    endloop
  endfacet
  facet normal 1.240347e-01 -9.922779e-01 0.000000e+00
    outer loop
      vertex 1.716694e+00 1.072934e+00 -7.152891e-02
      vertex 2.288925e+00 1.144462e+00 -2.861156e-01
      vertex 2.288925e+00 1.144462e+00 2.775558e-17
    endloop
  endfacet
  facet normal 0.000000e+00 -7.071068e-01 7.071068e-01
    outer loop
      vertex 1.716694e+00 1.072934e+00 -7.152891e-02
      vertex 2.288925e+00 1.144462e+00 2.775558e-17
      vertex 1.144462e+00 1.144462e+00 2.775558e-17
    endloop
  endfacet
  facet normal 1.240347e-01 -1.261629e-16 9.922779e-01
    outer loop
      vertex 1.716694e+00 1.072934e+00 -7.152891e-02
      vertex 1.144462e+00 1.144462e+00 2.775558e-17
      vertex 1.144462e+00 8.583469e-01 0.000000e+00
    endloop
  endfacet
  facet normal 3.333333e-01 -6.666667e-01 -6.666667e-01
    outer loop
      vertex 2.861156e+00 1.215991e+00 -7.152891e-02
      vertex 2.288925e+00 1.144462e+00 -2.861156e-01
      vertex 3.433387e+00 1.430578e+00 0.000000e+00
    endloop
  endfacet
  facet normal 1.240347e-01 -8.410860e-17 -9.922779e-01
    outer loop
      vertex 2.861156e+00 1.215991e+00 -7.152891e-02
      vertex 3.433387e+00 1.430578e+00 0.000000e+00
      vertex 3.433387e+00 1.144462e+00 2.775558e-17
    endloop
  endfacet
  facet normal 0.000000e+00 -7.071068e-01 -7.071068e-01
    outer loop
      vertex 2.861156e+00 1.215991e+00 -7.152891e-02
      vertex 3.433387e+00 1.144462e+00 2.775558e-17
      vertex 2.288925e+00 1.144462e+00 2.775558e-17
    endloop
  endfacet
  facet normal 1.240347e-01 -9.922779e-01 0.000000e+00
    outer loop
      vertex 2.861156e+00 1.215991e+00 -7.152891e-02
      vertex 2.288925e+00 1.144462e+00 2.775558e-17
      vertex 2.288925e+00 1.144462e+00 -2.861156e-01
    endloop
  endfacet
  facet normal 6.666667e-01 3.333333e-01 6.666667e-01
    outer loop
      vertex 7.152891e-02 5.722312e-01 1.072934e+00
      vertex 2.861156e-01 7.007812e-17 1.144462e+00
      vertex 1.226367e-16 1.144462e+00 8.583469e-01
    endloop
  endfacet
  facet normal 9.922779e-01 1.240347e-01 4.205430e-17
    outer loop
      vertex 7.152891e-02 5.722312e-01 1.072934e+00
      vertex 1.226367e-16 1.144462e+00 8.583469e-01
      vertex 1.088079e-16 1.144462e+00 1.144462e+00
    endloop
  endfacet
  facet normal 7.071068e-01 -4.495245e-17 7.071068e-01
    outer loop
      vertex 7.152891e-02 5.722312e-01 1.072934e+00
      vertex 1.088079e-16 1.144462e+00 1.144462e+00
      vertex 3.872976e-17 0.000000e+00 1.144462e+00
    endloop
  endfacet
  facet normal -4.205430e-17 1.240347e-01 9.922779e-01
    outer loop
      vertex 7.152891e-02 5.722312e-01 1.072934e+00
      vertex 3.872976e-17 0.000000e+00 1.144462e+00
      vertex 2.861156e-01 7.007812e-17 1.144462e+00
    endloop
  endfacet
  facet normal 6.666667e-01 3.333333e-01 -6.666667e-01
    outer loop
      vertex -7.152891e-02 1.716694e+00 1.072934e+00
      vertex 1.226367e-16 1.144462e+00 8.583469e-01
      vertex -2.861156e-01 2.288925e+00 1.144462e+00
    endloop
  endfacet
  facet normal 0.000000e+00 1.240347e-01 -9.922779e-01
    outer loop
      vertex -7.152891e-02 1.716694e+00 1.072934e+00
      vertex -2.861156e-01 2.288925e+00 1.144462e+00
      vertex 1.788860e-16 2.288925e+00 1.144462e+00
    endloop
  endfacet
  facet normal 7.071068e-01 -3.746037e-17 -7.071068e-01
    outer loop
      vertex -7.152891e-02 1.716694e+00 1.072934e+00
      vertex 1.788860e-16 2.288925e+00 1.144462e+00
      vertex 1.088079e-16 1.144462e+00 1.144462e+00
    endloop
  endfacet
  facet normal 9.922779e-01 1.240347e-01 4.205430e-17
    outer loop
      vertex -7.152891e-02 1.716694e+00 1.072934e+00
      vertex 1.088079e-16 1.144462e+00 1.144462e+00
      vertex 1.226367e-16 1.144462e+00 8.583469e-01
    endloop
  endfacet
  facet normal -6.666667e-01 3.333333e-01 -6.666667e-01
    outer loop
      vertex -7.152891e-02 2.861156e+00 1.215991e+00
      vertex -2.861156e-01 2.288925e+00 1.144462e+00
      vertex 2.978320e-16 3.433387e+00 1.430578e+00
    endloop
  endfacet
  facet normal -9.922779e-01 1.240347e-01 1.261629e-16
    outer loop
      vertex -7.152891e-02 2.861156e+00 1.215991e+00
      vertex 2.978320e-16 3.433387e+00 1.430578e+00
      vertex 2.489641e-16 3.433387e+00 1.144462e+00
    endloop
  endfacet
  facet normal -7.071068e-01 3.746037e-17 -7.071068e-01
    outer loop
      vertex -7.152891e-02 2.861156e+00 1.215991e+00
      vertex 2.489641e-16 3.433387e+00 1.144462e+00
      vertex 1.788860e-16 2.288925e+00 1.144462e+00
    endloop
  endfacet
  facet normal 0.000000e+00 1.240347e-01 -9.922779e-01
    outer loop
      vertex -7.152891e-02 2.861156e+00 1.215991e+00
      vertex 1.788860e-16 2.288925e+00 1.144462e+00
      vertex -2.861156e-01 2.288925e+00 1.144462e+00
    endloop
  endfacet
  facet normal 6.666667e-01 6.666667e-01 3.333333e-01
    outer loop
      vertex 1.072934e+00 7.152891e-02 5.722312e-01
      vertex 1.144462e+00 2.861156e-01 0.000000e+00
      vertex 8.583469e-01 7.007812e-17 1.144462e+00
    endloop
  endfacet
  facet normal 4.205430e-17 9.922779e-01 1.240347e-01
    outer loop
      vertex 1.072934e+00 7.152891e-02 5.722312e-01
      vertex 8.583469e-01 7.007812e-17 1.144462e+00
      vertex 1.144463e+00 5.915289e-17 1.144462e+00
    endloop
  endfacet
  facet normal 7.071068e-01 7.071068e-01 -4.495245e-17
    outer loop
      vertex 1.072934e+00 7.152891e-02 5.722312e-01
      vertex 1.144463e+00 5.915289e-17 1.144462e+00
      vertex 1.144463e+00 -1.092522e-17 0.000000e+00
    endloop
  endfacet
  facet normal 9.922779e-01 7.990317e-16 1.240347e-01
    outer loop
      vertex 1.072934e+00 7.152891e-02 5.722312e-01
      vertex 1.144463e+00 -1.092522e-17 0.000000e+00
      vertex 1.144462e+00 2.861156e-01 0.000000e+00
    endloop
  endfacet
  facet normal -6.666667e-01 6.666667e-01 3.333333e-01
    outer loop
      vertex 1.072934e+00 -7.152891e-02 1.716694e+00
      vertex 8.583469e-01 7.007812e-17 1.144462e+00
      vertex 1.144463e+00 -2.861156e-01 2.288925e+00
    endloop
  endfacet
  facet normal -9.922779e-01 0.000000e+00 1.240347e-01
    outer loop
      vertex 1.072934e+00 -7.152891e-02 1.716694e+00
      vertex 1.144463e+00 -2.861156e-01 2.288925e+00
      vertex 1.144463e+00 1.292310e-16 2.288925e+00
    endloop
  endfacet
  facet normal -7.071068e-01 7.071068e-01 -4.495245e-17
    outer loop
      vertex 1.072934e+00 -7.152891e-02 1.716694e+00
      vertex 1.144463e+00 1.292310e-16 2.288925e+00
      vertex 1.144463e+00 5.915289e-17 1.144462e+00
    endloop
  endfacet
  facet normal 8.410860e-17 9.922779e-01 1.240347e-01
    outer loop
      vertex 1.072934e+00 -7.152891e-02 1.716694e+00
      vertex 1.144463e+00 5.915289e-17 1.144462e+00
      vertex 8.583469e-01 7.007812e-17 1.144462e+00
    endloop
  endfacet
  facet normal -6.666667e-01 -6.666667e-01 3.333333e-01
    outer loop
      vertex 1.215991e+00 -7.152891e-02 2.861156e+00
      vertex 1.144463e+00 -2.861156e-01 2.288925e+00
      vertex 1.430578e+00 2.102344e-16 3.433387e+00
    endloop
  endfacet
  facet normal 4.205430e-17 -9.922779e-01 1.240347e-01
    outer loop
      vertex 1.215991e+00 -7.152891e-02 2.861156e+00
      vertex 1.430578e+00 2.102344e-16 3.433387e+00
      vertex 1.144463e+00 1.993091e-16 3.433387e+00
    endloop
  endfacet
  facet normal -7.071068e-01 -7.071068e-01 4.495245e-17
    outer loop
      vertex 1.215991e+00 -7.152891e-02 2.861156e+00
      vertex 1.144463e+00 1.993091e-16 3.433387e+00
      vertex 1.144463e+00 1.292310e-16 2.288925e+00
    endloop
  endfacet
  facet normal -9.922779e-01 0.000000e+00 1.240347e-01
    outer loop
      vertex 1.215991e+00 -7.152891e-02 2.861156e+00
      vertex 1.144463e+00 1.292310e-16 2.288925e+00
      vertex 1.144463e+00 -2.861156e-01 2.288925e+00
    endloop
  endfacet
  facet normal -6.666667e-01 3.333333e-01 -6.666667e-01
    outer loop
      vertex 4.506321e+00 2.861156e+00 1.215991e+00
      vertex 4.291734e+00 2.288925e+00 1.144462e+00
      vertex 4.577850e+00 3.433387e+00 1.430578e+00
    endloop
  endfacet
  facet normal -9.922779e-01 1.240347e-01 0.000000e+00
    outer loop
      vertex 4.506321e+00 2.861156e+00 1.215991e+00
      vertex 4.577850e+00 3.433387e+00 1.430578e+00
      vertex 4.577850e+00 3.433387e+00 1.144462e+00
    endloop
  endfacet
  facet normal -7.071068e-01 0.000000e+00 -7.071068e-01
    outer loop
      vertex 4.506321e+00 2.861156e+00 1.215991e+00
      vertex 4.577850e+00 3.433387e+00 1.144462e+00
      vertex 4.577850e+00 2.288925e+00 1.144462e+00
    endloop
  endfacet
  facet normal 0.000000e+00 1.240347e-01 -9.922779e-01
    outer loop
      vertex 4.506321e+00 2.861156e+00 1.215991e+00
      vertex 4.577850e+00 2.288925e+00 1.144462e+00
      vertex 4.291734e+00 2.288925e+00 1.144462e+00
    endloop
  endfacet
  facet normal -6.666667e-01 3.333333e-01 6.666667e-01
    outer loop
      vertex 4.649379e+00 4.005619e+00 1.215991e+00
      vertex 4.577850e+00 3.433387e+00 1.430578e+00
      vertex 4.863966e+00 4.577850e+00 1.144462e+00
    endloop
  endfacet
  facet normal 0.000000e+00 1.240347e-01 9.922779e-01
    outer loop
      vertex 4.649379e+00 4.005619e+00 1.215991e+00
      vertex 4.863966e+00 4.577850e+00 1.144462e+00
      vertex 4.577850e+00 4.577850e+00 1.144462e+00
    endloop
  endfacet
  facet normal -7.071068e-01 0.000000e+00 7.071068e-01
    outer loop
      vertex 4.649379e+00 4.005619e+00 1.215991e+00
      vertex 4.577850e+00 4.577850e+00 1.144462e+00
      vertex 4.577850e+00 3.433387e+00 1.144462e+00
    endloop
  endfacet
  facet normal -9.922779e-01 1.240347e-01 0.000000e+00
    outer loop
      vertex 4.649379e+00 4.005619e+00 1.215991e+00
      vertex 4.577850e+00 3.433387e+00 1.144462e+00
      vertex 4.577850e+00 3.433387e+00 1.430578e+00
    endloop
  endfacet
  facet normal 6.666667e-01 3.333333e-01 6.666667e-01
    outer loop
      vertex 4.649379e+00 5.150081e+00 1.072934e+00
      vertex 4.863966e+00 4.577850e+00 1.144462e+00
      vertex 4.577850e+00 5.722312e+00 8.583469e-01
    endloop
  endfacet
  facet normal 9.922779e-01 1.240347e-01 0.000000e+00
    outer loop
      vertex 4.649379e+00 5.150081e+00 1.072934e+00
      vertex 4.577850e+00 5.722312e+00 8.583469e-01
      vertex 4.577850e+00 5.722312e+00 1.144462e+00
    endloop
  endfacet
  facet normal 7.071068e-01 0.000000e+00 7.071068e-01
    outer loop
      vertex 4.649379e+00 5.150081e+00 1.072934e+00
      vertex 4.577850e+00 5.722312e+00 1.144462e+00
      vertex 4.577850e+00 4.577850e+00 1.144462e+00
    endloop
  endfacet
  facet normal 0.000000e+00 1.240347e-01 9.922779e-01
    outer loop
      vertex 4.649379e+00 5.150081e+00 1.072934e+00
      vertex 4.577850e+00 4.577850e+00 1.144462e+00
      vertex 4.863966e+00 4.577850e+00 1.144462e+00
    endloop
  endfacet
  facet normal -6.666667e-01 -6.666667e-01 3.333333e-01
    outer loop
      vertex 1.215991e+00 4.506321e+00 2.861156e+00
      vertex 1.144463e+00 4.291734e+00 2.288925e+00
      vertex 1.430578e+00 4.577850e+00 3.433387e+00
    endloop
  endfacet
  facet normal 0.000000e+00 -9.922779e-01 1.240347e-01
    outer loop
      vertex 1.215991e+00 4.506321e+00 2.861156e+00
      vertex 1.430578e+00 4.577850e+00 3.433387e+00
      vertex 1.144463e+00 4.577850e+00 3.433387e+00
    endloop
  endfacet
  facet normal -7.071068e-01 -7.071068e-01 0.000000e+00
    outer loop
      vertex 1.215991e+00 4.506321e+00 2.861156e+00
      vertex 1.144463e+00 4.577850e+00 3.433387e+00
      vertex 1.144463e+00 4.577850e+00 2.288925e+00
    endloop
  endfacet
  facet normal -9.922779e-01 0.000000e+00 1.240347e-01
    outer loop
      vertex 1.215991e+00 4.506321e+00 2.861156e+00
      vertex 1.144463e+00 4.577850e+00 2.288925e+00
      vertex 1.144463e+00 4.291734e+00 2.288925e+00
    endloop
  endfacet
  facet normal 6.666667e-01 -6.666667e-01 3.333333e-01
    outer loop
      vertex 1.215991e+00 4.649379e+00 4.005619e+00
      vertex 1.430578e+00 4.577850e+00 3.433387e+00
      vertex 1.144463e+00 4.863966e+00 4.577850e+00
    endloop
  endfacet
  facet normal 9.922779e-01 -7.569774e-16 1.240347e-01
    outer loop
      vertex 1.215991e+00 4.649379e+00 4.005619e+00
      vertex 1.144463e+00 4.863966e+00 4.577850e+00
      vertex 1.144463e+00 4.577850e+00 4.577850e+00
    endloop
  endfacet
  facet normal 7.071068e-01 -7.071068e-01 0.000000e+00
    outer loop
      vertex 1.215991e+00 4.649379e+00 4.005619e+00
      vertex 1.144463e+00 4.577850e+00 4.577850e+00
      vertex 1.144463e+00 4.577850e+00 3.433387e+00
    endloop
  endfacet
  facet normal 0.000000e+00 -9.922779e-01 1.240347e-01
    outer loop
      vertex 1.215991e+00 4.649379e+00 4.005619e+00
      vertex 1.144463e+00 4.577850e+00 3.433387e+00
      vertex 1.430578e+00 4.577850e+00 3.433387e+00
    endloop
  endfacet
  facet normal 6.666667e-01 6.666667e-01 3.333333e-01
    outer loop
      vertex 1.072934e+00 4.649379e+00 5.150081e+00
      vertex 1.144463e+00 4.863966e+00 4.577850e+00
      vertex 8.583469e-01 4.577850e+00 5.722312e+00
    endloop
  endfacet
  facet normal 0.000000e+00 9.922779e-01 1.240347e-01
    outer loop
      vertex 1.072934e+00 4.649379e+00 5.150081e+00
      vertex 8.583469e-01 4.577850e+00 5.722312e+00
      vertex 1.144463e+00 4.577850e+00 5.722312e+00
    endloop
  endfacet
  facet normal 7.071068e-01 7.071068e-01 0.000000e+00
    outer loop
      vertex 1.072934e+00 4.649379e+00 5.150081e+00
      vertex 1.144463e+00 4.577850e+00 5.722312e+00
      vertex 1.144463e+00 4.577850e+00 4.577850e+00
    endloop
  endfacet
  facet normal 9.922779e-01 -7.569774e-16 1.240347e-01
    outer loop
      vertex 1.072934e+00 4.649379e+00 5.150081e+00
      vertex 1.144463e+00 4.577850e+00 4.577850e+00
      vertex 1.144463e+00 4.863966e+00 4.577850e+00
    endloop
  endfacet
  facet normal 3.333333e-01 -6.666667e-01 -6.666667e-01
    outer loop
      vertex 2.861156e+00 1.215991e+00 4.506321e+00
      vertex 2.288925e+00 1.144463e+00 4.291734e+00
      vertex 3.433388e+00 1.430578e+00 4.577850e+00
    endloop
  endfacet
  facet normal 1.240347e-01 0.000000e+00 -9.922779e-01
    outer loop
      vertex 2.861156e+00 1.215991e+00 4.506321e+00
      vertex 3.433388e+00 1.430578e+00 4.577850e+00
      vertex 3.433388e+00 1.144463e+00 4.577850e+00
    endloop
  endfacet
  facet normal 0.000000e+00 -7.071068e-01 -7.071068e-01
    outer loop
      vertex 2.861156e+00 1.215991e+00 4.506321e+00
      vertex 3.433388e+00 1.144463e+00 4.577850e+00
      vertex 2.288925e+00 1.144463e+00 4.577850e+00
    endloop
  endfacet
  facet normal 1.240347e-01 -9.922779e-01 0.000000e+00
    outer loop
      vertex 2.861156e+00 1.215991e+00 4.506321e+00
      vertex 2.288925e+00 1.144463e+00 4.577850e+00
      vertex 2.288925e+00 1.144463e+00 4.291734e+00
    endloop
  endfacet
  facet normal 3.333333e-01 6.666667e-01 -6.666667e-01
    outer loop
      vertex 4.005619e+00 1.215991e+00 4.649379e+00
      vertex 3.433388e+00 1.430578e+00 4.577850e+00
      vertex 4.577850e+00 1.144463e+00 4.863966e+00
    endloop
  endfacet
  facet normal 1.240347e-01 9.922779e-01 0.000000e+00
    outer loop
      vertex 4.005619e+00 1.215991e+00 4.649379e+00
      vertex 4.577850e+00 1.144463e+00 4.863966e+00
      vertex 4.577850e+00 1.144463e+00 4.577850e+00
    endloop
  endfacet
  facet normal 0.000000e+00 7.071068e-01 -7.071068e-01
    outer loop
      vertex 4.005619e+00 1.215991e+00 4.649379e+00
      vertex 4.577850e+00 1.144463e+00 4.577850e+00
      vertex 3.433388e+00 1.144463e+00 4.577850e+00
    endloop
  endfacet
  facet normal 1.240347e-01 0.000000e+00 -9.922779e-01
    outer loop
      vertex 4.005619e+00 1.215991e+00 4.649379e+00
      vertex 3.433388e+00 1.144463e+00 4.577850e+00
      vertex 3.433388e+00 1.430578e+00 4.577850e+00
    endloop
  endfacet
  facet normal 3.333333e-01 6.666667e-01 6.666667e-01
    outer loop
      vertex 5.150081e+00 1.072934e+00 4.649379e+00
      vertex 4.577850e+00 1.144463e+00 4.863966e+00
      vertex 5.722312e+00 8.583469e-01 4.577850e+00
    endloop
  endfacet
  facet normal 1.240347e-01 0.000000e+00 9.922779e-01
    outer loop
      vertex 5.150081e+00 1.072934e+00 4.649379e+00
      vertex 5.722312e+00 8.583469e-01 4.577850e+00
      vertex 5.722312e+00 1.144463e+00 4.577850e+00
    endloop
  endfacet
  facet normal 0.000000e+00 7.071068e-01 7.071068e-01
    outer loop
      vertex 5.150081e+00 1.072934e+00 4.649379e+00
      vertex 5.722312e+00 1.144463e+00 4.577850e+00
      vertex 4.577850e+00 1.144463e+00 4.577850e+00
    endloop
  endfacet
  facet normal 1.240347e-01 9.922779e-01 0.000000e+00
    outer loop
      vertex 5.150081e+00 1.072934e+00 4.649379e+00
      vertex 4.577850e+00 1.144463e+00 4.577850e+00
      vertex 4.577850e+00 1.144463e+00 4.863966e+00
    endloop
  endfacet
  facet normal -3.333333e-01 6.666667e-01 6.666667e-01
    outer loop
      vertex 5.722313e-01 3.504916e+00 2.217396e+00
      vertex 1.144463e+00 3.719503e+00 2.288925e+00
      vertex 3.328711e-16 3.433387e+00 2.002809e+00
    endloop
  endfacet
  facet normal -1.240347e-01 9.922779e-01 0.000000e+00
    outer loop
      vertex 5.722313e-01 3.504916e+00 2.217396e+00
      vertex 3.328711e-16 3.433387e+00 2.002809e+00
      vertex 3.330669e-16 3.433387e+00 2.288925e+00
    endloop
  endfacet
  facet normal 0.000000e+00 7.071068e-01 7.071068e-01
    outer loop
      vertex 5.722313e-01 3.504916e+00 2.217396e+00
      vertex 3.330669e-16 3.433387e+00 2.288925e+00
      vertex 1.144463e+00 3.433387e+00 2.288925e+00
    endloop
  endfacet
  facet normal -1.240347e-01 0.000000e+00 9.922779e-01
    outer loop
      vertex 5.722313e-01 3.504916e+00 2.217396e+00
      vertex 1.144463e+00 3.433387e+00 2.288925e+00
      vertex 1.144463e+00 3.719503e+00 2.288925e+00
    endloop
  endfacet
  facet normal -3.333333e-01 6.666667e-01 -6.666667e-01
    outer loop
      vertex -5.722312e-01 3.361859e+00 2.217396e+00
      vertex 3.328711e-16 3.433387e+00 2.002809e+00
      vertex -1.144462e+00 3.147272e+00 2.288925e+00
    endloop
  endfacet
  facet normal -1.240347e-01 0.000000e+00 -9.922779e-01
    outer loop
      vertex -5.722312e-01 3.361859e+00 2.217396e+00
      vertex -1.144462e+00 3.147272e+00 2.288925e+00
      vertex -1.144462e+00 3.433387e+00 2.288925e+00
    endloop
  endfacet
  facet normal 0.000000e+00 7.071068e-01 -7.071068e-01
    outer loop
      vertex -5.722312e-01 3.361859e+00 2.217396e+00
      vertex -1.144462e+00 3.433387e+00 2.288925e+00
      vertex 3.330669e-16 3.433387e+00 2.288925e+00
    endloop
  endfacet
  facet normal -1.240347e-01 9.922779e-01 0.000000e+00
    outer loop
      vertex -5.722312e-01 3.361859e+00 2.217396e+00
      vertex 3.330669e-16 3.433387e+00 2.288925e+00
      vertex 3.328711e-16 3.433387e+00 2.002809e+00
    endloop
  endfacet
  facet normal -3.333333e-01 -6.666667e-01 -6.666667e-01
    outer loop
      vertex -1.716694e+00 3.361859e+00 2.360454e+00
      vertex -1.144462e+00 3.147272e+00 2.288925e+00
      vertex -2.288925e+00 3.433387e+00 2.575041e+00
    endloop
  endfacet
  facet normal -1.240347e-01 -9.922779e-01 0.000000e+00
    outer loop
      vertex -1.716694e+00 3.361859e+00 2.360454e+00
      vertex -2.288925e+00 3.433387e+00 2.575041e+00
      vertex -2.288925e+00 3.433387e+00 2.288925e+00
    endloop
  endfacet
  facet normal 0.000000e+00 -7.071068e-01 -7.071068e-01
    outer loop
      vertex -1.716694e+00 3.361859e+00 2.360454e+00
      vertex -2.288925e+00 3.433387e+00 2.288925e+00
      vertex -1.144462e+00 3.433387e+00 2.288925e+00
    endloop
  endfacet
  facet normal -1.240347e-01 0.000000e+00 -9.922779e-01
    outer loop
      vertex -1.716694e+00 3.361859e+00 2.360454e+00
      vertex -1.144462e+00 3.433387e+00 2.288925e+00
      vertex -1.144462e+00 3.147272e+00 2.288925e+00
    endloop
  endfacet
  facet normal -6.666667e-01 -3.333333e-01 6.666667e-01
    outer loop
      vertex 2.217396e+00 -5.722312e-01 3.361859e+00
      vertex 2.002809e+00 2.102344e-16 3.433387e+00
      vertex 2.288925e+00 -1.144462e+00 3.147272e+00
    endloop
  endfacet
  facet normal -9.922779e-01 -1.240347e-01 1.556009e-15
    outer loop
      vertex 2.217396e+00 -5.722312e-01 3.361859e+00
      vertex 2.288925e+00 -1.144462e+00 3.147272e+00
      vertex 2.288925e+00 -1.144462e+00 3.433387e+00
    endloop
  endfacet
  facet normal -7.071068e-01 0.000000e+00 7.071068e-01
    outer loop
      vertex 2.217396e+00 -5.722312e-01 3.361859e+00
      vertex 2.288925e+00 -1.144462e+00 3.433387e+00
      vertex 2.288925e+00 2.220446e-16 3.433387e+00
    endloop
  endfacet
  facet normal 0.000000e+00 -1.240347e-01 9.922779e-01
    outer loop
      vertex 2.217396e+00 -5.722312e-01 3.361859e+00
      vertex 2.288925e+00 2.220446e-16 3.433387e+00
      vertex 2.002809e+00 2.102344e-16 3.433387e+00
    endloop
  endfacet
  facet normal -6.666667e-01 -3.333333e-01 -6.666667e-01
    outer loop
      vertex 2.360454e+00 -1.716694e+00 3.361859e+00
      vertex 2.288925e+00 -1.144462e+00 3.147272e+00
      vertex 2.575041e+00 -2.288925e+00 3.433387e+00
    endloop
  endfacet
  facet normal 0.000000e+00 -1.240347e-01 -9.922779e-01
    outer loop
      vertex 2.360454e+00 -1.716694e+00 3.361859e+00
      vertex 2.575041e+00 -2.288925e+00 3.433387e+00
      vertex 2.288925e+00 -2.288925e+00 3.433387e+00
    endloop
  endfacet
  facet normal -7.071068e-01 0.000000e+00 -7.071068e-01
    outer loop
      vertex 2.360454e+00 -1.716694e+00 3.361859e+00
      vertex 2.288925e+00 -2.288925e+00 3.433387e+00
      vertex 2.288925e+00 -1.144462e+00 3.433387e+00
    endloop
  endfacet
  facet normal -9.922779e-01 -1.240347e-01 1.556009e-15
    outer loop
      vertex 2.360454e+00 -1.716694e+00 3.361859e+00
      vertex 2.288925e+00 -1.144462e+00 3.433387e+00
      vertex 2.288925e+00 -1.144462e+00 3.147272e+00
    endloop
  endfacet
  facet normal 6.666667e-01 -3.333333e-01 -6.666667e-01
    outer loop
      vertex 2.360454e+00 -2.861156e+00 3.504916e+00
      vertex 2.575041e+00 -2.288925e+00 3.433387e+00
      vertex 2.288925e+00 -3.433387e+00 3.719503e+00
    endloop
  endfacet
  facet normal 9.922779e-01 -1.240347e-01 0.000000e+00
    outer loop
      vertex 2.360454e+00 -2.861156e+00 3.504916e+00
      vertex 2.288925e+00 -3.433387e+00 3.719503e+00
      vertex 2.288925e+00 -3.433387e+00 3.433387e+00
    endloop
  endfacet
  facet normal 7.071068e-01 0.000000e+00 -7.071068e-01
    outer loop
      vertex 2.360454e+00 -2.861156e+00 3.504916e+00
      vertex 2.288925e+00 -3.433387e+00 3.433387e+00
      vertex 2.288925e+00 -2.288925e+00 3.433387e+00
    endloop
  endfacet
  facet normal 0.000000e+00 -1.240347e-01 -9.922779e-01
    outer loop
      vertex 2.360454e+00 -2.861156e+00 3.504916e+00
      vertex 2.288925e+00 -2.288925e+00 3.433387e+00
      vertex 2.575041e+00 -2.288925e+00 3.433387e+00
    endloop
  endfacet
  facet normal 6.666667e-01 -3.333333e-01 6.666667e-01
    outer loop
      vertex 2.217396e+00 5.722313e-01 3.504916e+00
      vertex 2.288925e+00 1.144463e+00 3.719503e+00
      vertex 2.002809e+00 2.102344e-16 3.433387e+00
    endloop
  endfacet
  facet normal 0.000000e+00 -1.240347e-01 9.922779e-01
    outer loop
      vertex 2.217396e+00 5.722313e-01 3.504916e+00
      vertex 2.002809e+00 2.102344e-16 3.433387e+00
      vertex 2.288925e+00 2.220446e-16 3.433387e+00
    endloop
  endfacet
  facet normal 7.071068e-01 0.000000e+00 7.071068e-01
    outer loop
      vertex 2.217396e+00 5.722313e-01 3.504916e+00
      vertex 2.288925e+00 2.220446e-16 3.433387e+00
      vertex 2.288925e+00 1.144463e+00 3.433387e+00
    endloop
  endfacet
  facet normal 9.922779e-01 -1.240347e-01 -1.640118e-15
    outer loop
      vertex 2.217396e+00 5.722313e-01 3.504916e+00
      vertex 2.288925e+00 1.144463e+00 3.433387e+00
      vertex 2.288925e+00 1.144463e+00 3.719503e+00
    endloop
  endfacet
  facet normal -6.666667e-01 -3.333333e-01 6.666667e-01
    outer loop
      vertex 2.217396e+00 -5.722312e-01 3.361859e+00
      vertex 2.002809e+00 2.102344e-16 3.433387e+00
      vertex 2.288925e+00 -1.144462e+00 3.147272e+00
    endloop
  endfacet
  facet normal -9.922779e-01 -1.240347e-01 1.556009e-15
    outer loop
      vertex 2.217396e+00 -5.722312e-01 3.361859e+00
      vertex 2.288925e+00 -1.144462e+00 3.147272e+00
      vertex 2.288925e+00 -1.144462e+00 3.433387e+00
    endloop
  endfacet
  facet normal -7.071068e-01 0.000000e+00 7.071068e-01
    outer loop
      vertex 2.217396e+00 -5.722312e-01 3.361859e+00
      vertex 2.288925e+00 -1.144462e+00 3.433387e+00
      vertex 2.288925e+00 2.220446e-16 3.433387e+00
    endloop
  endfacet
  facet normal 0.000000e+00 -1.240347e-01 9.922779e-01
    outer loop
      vertex 2.217396e+00 -5.722312e-01 3.361859e+00
      vertex 2.288925e+00 2.220446e-16 3.433387e+00
      vertex 2.002809e+00 2.102344e-16 3.433387e+00
    endloop
  endfacet
  facet normal -6.666667e-01 -3.333333e-01 -6.666667e-01
    outer loop
      vertex 2.360454e+00 -1.716694e+00 3.361859e+00
      vertex 2.288925e+00 -1.144462e+00 3.147272e+00
      vertex 2.575041e+00 -2.288925e+00 3.433387e+00
    endloop
  endfacet
  facet normal 0.000000e+00 -1.240347e-01 -9.922779e-01
    outer loop
      vertex 2.360454e+00 -1.716694e+00 3.361859e+00
      vertex 2.575041e+00 -2.288925e+00 3.433387e+00
      vertex 2.288925e+00 -2.288925e+00 3.433387e+00
    endloop
  endfacet
  facet normal -7.071068e-01 0.000000e+00 -7.071068e-01
    outer loop
      vertex 2.360454e+00 -1.716694e+00 3.361859e+00
      vertex 2.288925e+00 -2.288925e+00 3.433387e+00
      vertex 2.288925e+00 -1.144462e+00 3.433387e+00
    endloop
  endfacet
  facet normal -9.922779e-01 -1.240347e-01 1.556009e-15
    outer loop
      vertex 2.360454e+00 -1.716694e+00 3.361859e+00
      vertex 2.288925e+00 -1.144462e+00 3.433387e+00
      vertex 2.288925e+00 -1.144462e+00 3.147272e+00
    endloop
  endfacet
  facet normal 6.666667e-01 -6.666667e-01 -3.333333e-01
    outer loop
      vertex 3.361859e+00 2.217396e+00 -5.722312e-01
      vertex 3.433387e+00 2.002809e+00 0.000000e+00
      vertex 3.147272e+00 2.288925e+00 -1.144462e+00
    endloop
  endfacet
  facet normal 0.000000e+00 -9.922779e-01 -1.240347e-01
    outer loop
      vertex 3.361859e+00 2.217396e+00 -5.722312e-01
      vertex 3.147272e+00 2.288925e+00 -1.144462e+00
      vertex 3.433387e+00 2.288925e+00 -1.144462e+00
    endloop
  endfacet
  facet normal 7.071068e-01 -7.071068e-01 0.000000e+00
    outer loop
      vertex 3.361859e+00 2.217396e+00 -5.722312e-01
      vertex 3.433387e+00 2.288925e+00 -1.144462e+00
      vertex 3.433387e+00 2.288925e+00 0.000000e+00
    endloop
  endfacet
  facet normal 9.922779e-01 1.556009e-15 -1.240347e-01
    outer loop
      vertex 3.361859e+00 2.217396e+00 -5.722312e-01
      vertex 3.433387e+00 2.288925e+00 0.000000e+00
      vertex 3.433387e+00 2.002809e+00 0.000000e+00
    endloop
  endfacet
  facet normal -6.666667e-01 -6.666667e-01 -3.333333e-01
    outer loop
      vertex 3.361859e+00 2.360454e+00 -1.716694e+00
      vertex 3.147272e+00 2.288925e+00 -1.144462e+00
      vertex 3.433387e+00 2.575041e+00 -2.288925e+00
    endloop
  endfacet
  facet normal -9.922779e-01 0.000000e+00 -1.240347e-01
    outer loop
      vertex 3.361859e+00 2.360454e+00 -1.716694e+00
      vertex 3.433387e+00 2.575041e+00 -2.288925e+00
      vertex 3.433387e+00 2.288925e+00 -2.288925e+00
    endloop
  endfacet
  facet normal -7.071068e-01 -7.071068e-01 0.000000e+00
    outer loop
      vertex 3.361859e+00 2.360454e+00 -1.716694e+00
      vertex 3.433387e+00 2.288925e+00 -2.288925e+00
      vertex 3.433387e+00 2.288925e+00 -1.144462e+00
    endloop
  endfacet
  facet normal 0.000000e+00 -9.922779e-01 -1.240347e-01
    outer loop
      vertex 3.361859e+00 2.360454e+00 -1.716694e+00
      vertex 3.433387e+00 2.288925e+00 -1.144462e+00
      vertex 3.147272e+00 2.288925e+00 -1.144462e+00
    endloop
  endfacet
  facet normal -6.666667e-01 6.666667e-01 -3.333333e-01
    outer loop
      vertex 3.504916e+00 2.360454e+00 -2.861156e+00
      vertex 3.433387e+00 2.575041e+00 -2.288925e+00
      vertex 3.719503e+00 2.288925e+00 -3.433387e+00
    endloop
  endfacet
  facet normal 0.000000e+00 9.922779e-01 -1.240347e-01
    outer loop
      vertex 3.504916e+00 2.360454e+00 -2.861156e+00
      vertex 3.719503e+00 2.288925e+00 -3.433387e+00
      vertex 3.433387e+00 2.288925e+00 -3.433387e+00
    endloop
  endfacet
  facet normal -7.071068e-01 7.071068e-01 0.000000e+00
    outer loop
      vertex 3.504916e+00 2.360454e+00 -2.861156e+00
      vertex 3.433387e+00 2.288925e+00 -3.433387e+00
      vertex 3.433387e+00 2.288925e+00 -2.288925e+00
    endloop
  endfacet
  facet normal -9.922779e-01 0.000000e+00 -1.240347e-01
    outer loop
      vertex 3.504916e+00 2.360454e+00 -2.861156e+00
      vertex 3.433387e+00 2.288925e+00 -2.288925e+00
      vertex 3.433387e+00 2.575041e+00 -2.288925e+00
    endloop
  endfacet
  facet normal 6.666667e-01 6.666667e-01 -3.333333e-01
    outer loop
      vertex 3.504916e+00 2.217396e+00 5.722312e-01
      vertex 3.719503e+00 2.288925e+00 1.144462e+00
      vertex 3.433387e+00 2.002809e+00 0.000000e+00
    endloop
  endfacet
  facet normal 9.922779e-01 1.556009e-15 -1.240347e-01
    outer loop
      vertex 3.504916e+00 2.217396e+00 5.722312e-01
      vertex 3.433387e+00 2.002809e+00 0.000000e+00
      vertex 3.433387e+00 2.288925e+00 0.000000e+00
    endloop
  endfacet
  facet normal 7.071068e-01 7.071068e-01 0.000000e+00
    outer loop
      vertex 3.504916e+00 2.217396e+00 5.722312e-01
      vertex 3.433387e+00 2.288925e+00 0.000000e+00
      vertex 3.433387e+00 2.288925e+00 1.144462e+00
    endloop
  endfacet
  facet normal 0.000000e+00 9.922779e-01 -1.240347e-01
    outer loop
      vertex 3.504916e+00 2.217396e+00 5.722312e-01
      vertex 3.433387e+00 2.288925e+00 1.144462e+00
      vertex 3.719503e+00 2.288925e+00 1.144462e+00
    endloop
  endfacet
  facet normal 6.666667e-01 -6.666667e-01 -3.333333e-01
    outer loop
      vertex 3.361859e+00 2.217396e+00 -5.722312e-01
      vertex 3.433387e+00 2.002809e+00 0.000000e+00
      vertex 3.147272e+00 2.288925e+00 -1.144462e+00
    endloop
  endfacet
  facet normal 1.556009e-15 -9.922779e-01 -1.240347e-01
    outer loop
      vertex 3.361859e+00 2.217396e+00 -5.722312e-01
      vertex 3.147272e+00 2.288925e+00 -1.144462e+00
      vertex 3.433387e+00 2.288925e+00 -1.144462e+00
    endloop
  endfacet
  facet normal 7.071068e-01 -7.071068e-01 0.000000e+00
    outer loop
      vertex 3.361859e+00 2.217396e+00 -5.722312e-01
      vertex 3.433387e+00 2.288925e+00 -1.144462e+00
      vertex 3.433387e+00 2.288925e+00 0.000000e+00
    endloop
  endfacet
  facet normal 9.922779e-01 1.556009e-15 -1.240347e-01
    outer loop
      vertex 3.361859e+00 2.217396e+00 -5.722312e-01
      vertex 3.433387e+00 2.288925e+00 0.000000e+00
      vertex 3.433387e+00 2.002809e+00 0.000000e+00
    endloop
  endfacet
  facet normal -6.666667e-01 -6.666667e-01 -3.333333e-01
    outer loop
      vertex 3.361859e+00 2.360454e+00 -1.716694e+00
      vertex 3.147272e+00 2.288925e+00 -1.144462e+00
      vertex 3.433387e+00 2.575041e+00 -2.288925e+00
    endloop
  endfacet
  facet normal -9.922779e-01 0.000000e+00 -1.240347e-01
    outer loop
      vertex 3.361859e+00 2.360454e+00 -1.716694e+00
      vertex 3.433387e+00 2.575041e+00 -2.288925e+00
      vertex 3.433387e+00 2.288925e+00 -2.288925e+00
    endloop
  endfacet
  facet normal -7.071068e-01 -7.071068e-01 0.000000e+00
    outer loop
      vertex 3.361859e+00 2.360454e+00 -1.716694e+00
      vertex 3.433387e+00 2.288925e+00 -2.288925e+00
      vertex 3.433387e+00 2.288925e+00 -1.144462e+00
    endloop
  endfacet
  facet normal 1.556009e-15 -9.922779e-01 -1.240347e-01
    outer loop
      vertex 3.361859e+00 2.360454e+00 -1.716694e+00
      vertex 3.433387e+00 2.288925e+00 -1.144462e+00
      vertex 3.147272e+00 2.288925e+00 -1.144462e+00
    endloop
  endfacet
  facet normal -3.333333e-01 -6.666667e-01 6.666667e-01
    outer loop
      vertex 1.716694e+00 3.504916e+00 2.360454e+00
      vertex 2.288925e+00 3.433387e+00 2.575041e+00
      vertex 1.144463e+00 3.719503e+00 2.288925e+00
    endloop
  endfacet
  facet normal -1.240347e-01 0.000000e+00 9.922779e-01
    outer loop
      vertex 1.716694e+00 3.504916e+00 2.360454e+00
      vertex 1.144463e+00 3.719503e+00 2.288925e+00
      vertex 1.144463e+00 3.433387e+00 2.288925e+00
    endloop
  endfacet
  facet normal 0.000000e+00 -7.071068e-01 7.071068e-01
    outer loop
      vertex 1.716694e+00 3.504916e+00 2.360454e+00
      vertex 1.144463e+00 3.433387e+00 2.288925e+00
      vertex 2.288925e+00 3.433387e+00 2.288925e+00
    endloop
  endfacet
  facet normal -1.240347e-01 -9.922779e-01 0.000000e+00
    outer loop
      vertex 1.716694e+00 3.504916e+00 2.360454e+00
      vertex 2.288925e+00 3.433387e+00 2.288925e+00
      vertex 2.288925e+00 3.433387e+00 2.575041e+00
    endloop
  endfacet
  facet normal -3.333333e-01 6.666667e-01 6.666667e-01
    outer loop
      vertex 5.722313e-01 3.504916e+00 2.217396e+00
      vertex 1.144463e+00 3.719503e+00 2.288925e+00
      vertex 3.328711e-16 3.433387e+00 2.002809e+00
    endloop
  endfacet
  facet normal -1.240347e-01 9.922779e-01 0.000000e+00
    outer loop
      vertex 5.722313e-01 3.504916e+00 2.217396e+00
      vertex 3.328711e-16 3.433387e+00 2.002809e+00
      vertex 3.330669e-16 3.433387e+00 2.288925e+00
    endloop
  endfacet
  facet normal 0.000000e+00 7.071068e-01 7.071068e-01
    outer loop
      vertex 5.722313e-01 3.504916e+00 2.217396e+00
      vertex 3.330669e-16 3.433387e+00 2.288925e+00
      vertex 1.144463e+00 3.433387e+00 2.288925e+00
    endloop
  endfacet
  facet normal -1.240347e-01 0.000000e+00 9.922779e-01
    outer loop
      vertex 5.722313e-01 3.504916e+00 2.217396e+00
      vertex 1.144463e+00 3.433387e+00 2.288925e+00
      vertex 1.144463e+00 3.719503e+00 2.288925e+00
    endloop
  endfacet
  facet normal -3.333333e-01 6.666667e-01 -6.666667e-01
    outer loop
      vertex -5.722312e-01 3.361859e+00 2.217396e+00
      vertex 3.328711e-16 3.433387e+00 2.002809e+00
      vertex -1.144462e+00 3.147272e+00 2.288925e+00
    endloop
  endfacet
  facet normal -1.240347e-01 0.000000e+00 -9.922779e-01
    outer loop
      vertex -5.722312e-01 3.361859e+00 2.217396e+00
      vertex -1.144462e+00 3.147272e+00 2.288925e+00
      vertex -1.144462e+00 3.433387e+00 2.288925e+00
    endloop
  endfacet
  facet normal 0.000000e+00 7.071068e-01 -7.071068e-01
    outer loop
      vertex -5.722312e-01 3.361859e+00 2.217396e+00
      vertex -1.144462e+00 3.433387e+00 2.288925e+00
      vertex 3.330669e-16 3.433387e+00 2.288925e+00
    endloop
  endfacet
  facet normal -1.240347e-01 9.922779e-01 0.000000e+00
    outer loop
      vertex -5.722312e-01 3.361859e+00 2.217396e+00
      vertex 3.330669e-16 3.433387e+00 2.288925e+00
      vertex 3.328711e-16 3.433387e+00 2.002809e+00
    endloop
  endfacet
  facet normal 6.666667e-01 -3.333333e-01 -6.666667e-01
    outer loop
      vertex 2.360454e+00 1.716694e+00 3.504916e+00
      vertex 2.575041e+00 2.288925e+00 3.433387e+00
      vertex 2.288925e+00 1.144463e+00 3.719503e+00
    endloop
  endfacet
  facet normal 9.922779e-01 -1.240347e-01 -1.556009e-15
    outer loop
      vertex 2.360454e+00 1.716694e+00 3.504916e+00
      vertex 2.288925e+00 1.144463e+00 3.719503e+00
      vertex 2.288925e+00 1.144463e+00 3.433387e+00
    endloop
  endfacet
  facet normal 7.071068e-01 0.000000e+00 -7.071068e-01
    outer loop
      vertex 2.360454e+00 1.716694e+00 3.504916e+00
      vertex 2.288925e+00 1.144463e+00 3.433387e+00
      vertex 2.288925e+00 2.288925e+00 3.433387e+00
    endloop
  endfacet
  facet normal 0.000000e+00 -1.240347e-01 -9.922779e-01
    outer loop
      vertex 2.360454e+00 1.716694e+00 3.504916e+00
      vertex 2.288925e+00 2.288925e+00 3.433387e+00
      vertex 2.575041e+00 2.288925e+00 3.433387e+00
    endloop
  endfacet
  facet normal 6.666667e-01 -3.333333e-01 6.666667e-01
    outer loop
      vertex 2.217396e+00 5.722313e-01 3.504916e+00
      vertex 2.288925e+00 1.144463e+00 3.719503e+00
      vertex 2.002809e+00 2.102344e-16 3.433387e+00
    endloop
  endfacet
  facet normal 0.000000e+00 -1.240347e-01 9.922779e-01
    outer loop
      vertex 2.217396e+00 5.722313e-01 3.504916e+00
      vertex 2.002809e+00 2.102344e-16 3.433387e+00
      vertex 2.288925e+00 2.220446e-16 3.433387e+00
    endloop
  endfacet
  facet normal 7.071068e-01 0.000000e+00 7.071068e-01
    outer loop
      vertex 2.217396e+00 5.722313e-01 3.504916e+00
      vertex 2.288925e+00 2.220446e-16 3.433387e+00
      vertex 2.288925e+00 1.144463e+00 3.433387e+00
    endloop
  endfacet
  facet normal 9.922779e-01 -1.240347e-01 -1.556009e-15
    outer loop
      vertex 2.217396e+00 5.722313e-01 3.504916e+00
      vertex 2.288925e+00 1.144463e+00 3.433387e+00
      vertex 2.288925e+00 1.144463e+00 3.719503e+00
    endloop
  endfacet
  facet normal -6.666667e-01 -3.333333e-01 6.666667e-01
    outer loop
      vertex 2.217396e+00 -5.722312e-01 3.361859e+00
      vertex 2.002809e+00 2.102344e-16 3.433387e+00
      vertex 2.288925e+00 -1.144462e+00 3.147272e+00
    endloop
  endfacet
  facet normal -9.922779e-01 -1.240347e-01 1.556009e-15
    outer loop
      vertex 2.217396e+00 -5.722312e-01 3.361859e+00
      vertex 2.288925e+00 -1.144462e+00 3.147272e+00
      vertex 2.288925e+00 -1.144462e+00 3.433387e+00
    endloop
  endfacet
  facet normal -7.071068e-01 0.000000e+00 7.071068e-01
    outer loop
      vertex 2.217396e+00 -5.722312e-01 3.361859e+00
      vertex 2.288925e+00 -1.144462e+00 3.433387e+00
      vertex 2.288925e+00 2.220446e-16 3.433387e+00
    endloop
  endfacet
  facet normal 0.000000e+00 -1.240347e-01 9.922779e-01
    outer loop
      vertex 2.217396e+00 -5.722312e-01 3.361859e+00
      vertex 2.288925e+00 2.220446e-16 3.433387e+00
      vertex 2.002809e+00 2.102344e-16 3.433387e+00
    endloop
  endfacet
  facet normal -6.666667e-01 6.666667e-01 -3.333333e-01
    outer loop
      vertex 3.504916e+00 2.360454e+00 1.716694e+00
      vertex 3.433387e+00 2.575041e+00 2.288925e+00
      vertex 3.719503e+00 2.288925e+00 1.144462e+00
    endloop
  endfacet
  facet normal 0.000000e+00 9.922779e-01 -1.240347e-01
    outer loop
      vertex 3.504916e+00 2.360454e+00 1.716694e+00
      vertex 3.719503e+00 2.288925e+00 1.144462e+00
      vertex 3.433387e+00 2.288925e+00 1.144462e+00
    endloop
  endfacet
  facet normal -7.071068e-01 7.071068e-01 0.000000e+00
    outer loop
      vertex 3.504916e+00 2.360454e+00 1.716694e+00
      vertex 3.433387e+00 2.288925e+00 1.144462e+00
      vertex 3.433387e+00 2.288925e+00 2.288925e+00
    endloop
  endfacet
  facet normal -9.922779e-01 0.000000e+00 -1.240347e-01
    outer loop
      vertex 3.504916e+00 2.360454e+00 1.716694e+00
      vertex 3.433387e+00 2.288925e+00 2.288925e+00
      vertex 3.433387e+00 2.575041e+00 2.288925e+00
    endloop
  endfacet
  facet normal 6.666667e-01 6.666667e-01 -3.333333e-01
    outer loop
      vertex 3.504916e+00 2.217396e+00 5.722312e-01
      vertex 3.719503e+00 2.288925e+00 1.144462e+00
      vertex 3.433387e+00 2.002809e+00 0.000000e+00
    endloop
  endfacet
  facet normal 9.922779e-01 0.000000e+00 -1.240347e-01
    outer loop
      vertex 3.504916e+00 2.217396e+00 5.722312e-01
      vertex 3.433387e+00 2.002809e+00 0.000000e+00
      vertex 3.433387e+00 2.288925e+00 0.000000e+00
    endloop
  endfacet
  facet normal 7.071068e-01 7.071068e-01 0.000000e+00
    outer loop
      vertex 3.504916e+00 2.217396e+00 5.722312e-01
      vertex 3.433387e+00 2.288925e+00 0.000000e+00
      vertex 3.433387e+00 2.288925e+00 1.144462e+00
    endloop
  endfacet
  facet normal 0.000000e+00 9.922779e-01 -1.240347e-01
    outer loop
      vertex 3.504916e+00 2.217396e+00 5.722312e-01
      vertex 3.433387e+00 2.288925e+00 1.144462e+00
      vertex 3.719503e+00 2.288925e+00 1.144462e+00
    endloop
  endfacet
  facet normal 6.666667e-01 -6.666667e-01 -3.333333e-01
    outer loop
      vertex 3.361859e+00 2.217396e+00 -5.722312e-01
      vertex 3.433387e+00 2.002809e+00 0.000000e+00
      vertex 3.147272e+00 2.288925e+00 -1.144462e+00
    endloop
  endfacet
  facet normal 1.556009e-15 -9.922779e-01 -1.240347e-01
    outer loop
      vertex 3.361859e+00 2.217396e+00 -5.722312e-01
      vertex 3.147272e+00 2.288925e+00 -1.144462e+00
      vertex 3.433387e+00 2.288925e+00 -1.144462e+00
    endloop
  endfacet
  facet normal 7.071068e-01 -7.071068e-01 0.000000e+00
    outer loop
      vertex 3.361859e+00 2.217396e+00 -5.722312e-01
      vertex 3.433387e+00 2.288925e+00 -1.144462e+00
      vertex 3.433387e+00 2.288925e+00 0.000000e+00
    endloop
  endfacet
  facet normal 9.922779e-01 0.000000e+00 -1.240347e-01
    outer loop
      vertex 3.361859e+00 2.217396e+00 -5.722312e-01
      vertex 3.433387e+00 2.288925e+00 0.000000e+00
      vertex 3.433387e+00 2.002809e+00 0.000000e+00
    endloop
  endfacet
  facet normal -3.333333e-01 -6.666667e-01 -6.666667e-01
    outer loop
      vertex 2.861156e+00 3.361859e+00 2.360454e+00
      vertex 3.433387e+00 3.147272e+00 2.288925e+00
      vertex 2.288925e+00 3.433387e+00 2.575041e+00
    endloop
  endfacet
  facet normal -1.240347e-01 -9.922779e-01 0.000000e+00
    outer loop
      vertex 2.861156e+00 3.361859e+00 2.360454e+00
      vertex 2.288925e+00 3.433387e+00 2.575041e+00
      vertex 2.288925e+00 3.433387e+00 2.288925e+00
    endloop
  endfacet
  facet normal 0.000000e+00 -7.071068e-01 -7.071068e-01
    outer loop
      vertex 2.861156e+00 3.361859e+00 2.360454e+00
      vertex 2.288925e+00 3.433387e+00 2.288925e+00
      vertex 3.433387e+00 3.433387e+00 2.288925e+00
    endloop
  endfacet
  facet normal -1.240347e-01 0.000000e+00 -9.922779e-01
    outer loop
      vertex 2.861156e+00 3.361859e+00 2.360454e+00
      vertex 3.433387e+00 3.433387e+00 2.288925e+00
      vertex 3.433387e+00 3.147272e+00 2.288925e+00
    endloop
  endfacet
  facet normal -3.333333e-01 -6.666667e-01 6.666667e-01
    outer loop
      vertex 1.716694e+00 3.504916e+00 2.360454e+00
      vertex 2.288925e+00 3.433387e+00 2.575041e+00
      vertex 1.144463e+00 3.719503e+00 2.288925e+00
    endloop
  endfacet
  facet normal -1.240347e-01 0.000000e+00 9.922779e-01
    outer loop
      vertex 1.716694e+00 3.504916e+00 2.360454e+00
      vertex 1.144463e+00 3.719503e+00 2.288925e+00
      vertex 1.144463e+00 3.433387e+00 2.288925e+00
    endloop
  endfacet
  facet normal 0.000000e+00 -7.071068e-01 7.071068e-01
    outer loop
      vertex 1.716694e+00 3.504916e+00 2.360454e+00
      vertex 1.144463e+00 3.433387e+00 2.288925e+00
      vertex 2.288925e+00 3.433387e+00 2.288925e+00
    endloop
  endfacet
  facet normal -1.240347e-01 -9.922779e-01 0.000000e+00
    outer loop
      vertex 1.716694e+00 3.504916e+00 2.360454e+00
      vertex 2.288925e+00 3.433387e+00 2.288925e+00
      vertex 2.288925e+00 3.433387e+00 2.575041e+00
    endloop
  endfacet
  facet normal -3.333333e-01 6.666667e-01 6.666667e-01
    outer loop
      vertex 5.722313e-01 3.504916e+00 2.217396e+00
      vertex 1.144463e+00 3.719503e+00 2.288925e+00
      vertex 3.328711e-16 3.433387e+00 2.002809e+00
    endloop
  endfacet
  facet normal -1.240347e-01 9.922779e-01 -4.205430e-17
    outer loop
      vertex 5.722313e-01 3.504916e+00 2.217396e+00
      vertex 3.328711e-16 3.433387e+00 2.002809e+00
      vertex 2.220446e-16 3.433387e+00 2.288925e+00
    endloop
  endfacet
  facet normal 0.000000e+00 7.071068e-01 7.071068e-01
    outer loop
      vertex 5.722313e-01 3.504916e+00 2.217396e+00
      vertex 2.220446e-16 3.433387e+00 2.288925e+00
      vertex 1.144463e+00 3.433387e+00 2.288925e+00
    endloop
  endfacet
  facet normal -1.240347e-01 0.000000e+00 9.922779e-01
    outer loop
      vertex 5.722313e-01 3.504916e+00 2.217396e+00
      vertex 1.144463e+00 3.433387e+00 2.288925e+00
      vertex 1.144463e+00 3.719503e+00 2.288925e+00
    endloop
  endfacet
  facet normal -6.666667e-01 -3.333333e-01 -6.666667e-01
    outer loop
      vertex 2.360454e+00 2.861156e+00 3.361859e+00
      vertex 2.288925e+00 3.433387e+00 3.147272e+00
      vertex 2.575041e+00 2.288925e+00 3.433387e+00
    endloop
  endfacet
  facet normal 0.000000e+00 -1.240347e-01 -9.922779e-01
    outer loop
      vertex 2.360454e+00 2.861156e+00 3.361859e+00
      vertex 2.575041e+00 2.288925e+00 3.433387e+00
      vertex 2.288925e+00 2.288925e+00 3.433387e+00
    endloop
  endfacet
  facet normal -7.071068e-01 0.000000e+00 -7.071068e-01
    outer loop
      vertex 2.360454e+00 2.861156e+00 3.361859e+00
      vertex 2.288925e+00 2.288925e+00 3.433387e+00
      vertex 2.288925e+00 3.433387e+00 3.433387e+00
    endloop
  endfacet
  facet normal -9.922779e-01 -1.240347e-01 0.000000e+00
    outer loop
      vertex 2.360454e+00 2.861156e+00 3.361859e+00
      vertex 2.288925e+00 3.433387e+00 3.433387e+00
      vertex 2.288925e+00 3.433387e+00 3.147272e+00
    endloop
  endfacet
  facet normal 6.666667e-01 -3.333333e-01 -6.666667e-01
    outer loop
      vertex 2.360454e+00 1.716694e+00 3.504916e+00
      vertex 2.575041e+00 2.288925e+00 3.433387e+00
      vertex 2.288925e+00 1.144463e+00 3.719503e+00
    endloop
  endfacet
  facet normal 9.922779e-01 -1.240347e-01 -1.556009e-15
    outer loop
      vertex 2.360454e+00 1.716694e+00 3.504916e+00
      vertex 2.288925e+00 1.144463e+00 3.719503e+00
      vertex 2.288925e+00 1.144463e+00 3.433387e+00
    endloop
  endfacet
  facet normal 7.071068e-01 0.000000e+00 -7.071068e-01
    outer loop
      vertex 2.360454e+00 1.716694e+00 3.504916e+00
      vertex 2.288925e+00 1.144463e+00 3.433387e+00
      vertex 2.288925e+00 2.288925e+00 3.433387e+00
    endloop
  endfacet
  facet normal 0.000000e+00 -1.240347e-01 -9.922779e-01
    outer loop
      vertex 2.360454e+00 1.716694e+00 3.504916e+00
      vertex 2.288925e+00 2.288925e+00 3.433387e+00
      vertex 2.575041e+00 2.288925e+00 3.433387e+00
    endloop
  endfacet
  facet normal 6.666667e-01 -3.333333e-01 6.666667e-01
    outer loop
      vertex 2.217396e+00 5.722313e-01 3.504916e+00
      vertex 2.288925e+00 1.144463e+00 3.719503e+00
      vertex 2.002809e+00 2.102344e-16 3.433387e+00
    endloop
  endfacet
  facet normal 0.000000e+00 -1.240347e-01 9.922779e-01
    outer loop
      vertex 2.217396e+00 5.722313e-01 3.504916e+00
      vertex 2.002809e+00 2.102344e-16 3.433387e+00
      vertex 2.288925e+00 2.220446e-16 3.433387e+00
    endloop
  endfacet
  facet normal 7.071068e-01 0.000000e+00 7.071068e-01
    outer loop
      vertex 2.217396e+00 5.722313e-01 3.504916e+00
      vertex 2.288925e+00 2.220446e-16 3.433387e+00
      vertex 2.288925e+00 1.144463e+00 3.433387e+00
    endloop
  endfacet
  facet normal 9.922779e-01 -1.240347e-01 -1.556009e-15
    outer loop
      vertex 2.217396e+00 5.722313e-01 3.504916e+00
      vertex 2.288925e+00 1.144463e+00 3.433387e+00
      vertex 2.288925e+00 1.144463e+00 3.719503e+00
    endloop
  endfacet
  facet normal -6.666667e-01 -6.666667e-01 -3.333333e-01
    outer loop
      vertex 3.361859e+00 2.360454e+00 2.861156e+00
      vertex 3.147272e+00 2.288925e+00 3.433387e+00
      vertex 3.433387e+00 2.575041e+00 2.288925e+00
    endloop
  endfacet
  facet normal -9.922779e-01 0.000000e+00 -1.240347e-01
    outer loop
      vertex 3.361859e+00 2.360454e+00 2.861156e+00
      vertex 3.433387e+00 2.575041e+00 2.288925e+00
      vertex 3.433387e+00 2.288925e+00 2.288925e+00
    endloop
  endfacet
  facet normal -7.071068e-01 -7.071068e-01 0.000000e+00
    outer loop
      vertex 3.361859e+00 2.360454e+00 2.861156e+00
      vertex 3.433387e+00 2.288925e+00 2.288925e+00
      vertex 3.433387e+00 2.288925e+00 3.433387e+00
    endloop
  endfacet
  facet normal 0.000000e+00 -9.922779e-01 -1.240347e-01
    outer loop
      vertex 3.361859e+00 2.360454e+00 2.861156e+00
      vertex 3.433387e+00 2.288925e+00 3.433387e+00
      vertex 3.147272e+00 2.288925e+00 3.433387e+00
    endloop
  endfacet
  facet normal -6.666667e-01 6.666667e-01 -3.333333e-01
    outer loop
      vertex 3.504916e+00 2.360454e+00 1.716694e+00
      vertex 3.433387e+00 2.575041e+00 2.288925e+00
      vertex 3.719503e+00 2.288925e+00 1.144462e+00
    endloop
  endfacet
  facet normal 0.000000e+00 9.922779e-01 -1.240347e-01
    outer loop
      vertex 3.504916e+00 2.360454e+00 1.716694e+00
      vertex 3.719503e+00 2.288925e+00 1.144462e+00
      vertex 3.433387e+00 2.288925e+00 1.144462e+00
    endloop
  endfacet
  facet normal -7.071068e-01 7.071068e-01 0.000000e+00
    outer loop
      vertex 3.504916e+00 2.360454e+00 1.716694e+00
      vertex 3.433387e+00 2.288925e+00 1.144462e+00
      vertex 3.433387e+00 2.288925e+00 2.288925e+00
    endloop
  endfacet
  facet normal -9.922779e-01 0.000000e+00 -1.240347e-01
    outer loop
      vertex 3.504916e+00 2.360454e+00 1.716694e+00
      vertex 3.433387e+00 2.288925e+00 2.288925e+00
      vertex 3.433387e+00 2.575041e+00 2.288925e+00
    endloop
  endfacet
  facet normal 6.666667e-01 6.666667e-01 -3.333333e-01
    outer loop
      vertex 3.504916e+00 2.217396e+00 5.722312e-01
      vertex 3.719503e+00 2.288925e+00 1.144462e+00
      vertex 3.433387e+00 2.002809e+00 0.000000e+00
    endloop
  endfacet
  facet normal 9.922779e-01 0.000000e+00 -1.240347e-01
    outer loop
      vertex 3.504916e+00 2.217396e+00 5.722312e-01
      vertex 3.433387e+00 2.002809e+00 0.000000e+00
      vertex 3.433387e+00 2.288925e+00 0.000000e+00
    endloop
  endfacet
  facet normal 7.071068e-01 7.071068e-01 0.000000e+00
    outer loop
      vertex 3.504916e+00 2.217396e+00 5.722312e-01
      vertex 3.433387e+00 2.288925e+00 0.000000e+00
      vertex 3.433387e+00 2.288925e+00 1.144462e+00
    endloop
  endfacet
  facet normal 0.000000e+00 9.922779e-01 -1.240347e-01
    outer loop
      vertex 3.504916e+00 2.217396e+00 5.722312e-01
      vertex 3.433387e+00 2.288925e+00 1.144462e+00
      vertex 3.719503e+00 2.288925e+00 1.144462e+00
    endloop
  endfacet
endsolid surface_model
