solid surface_model
  facet normal -9.254330e-01 -3.789114e-01 2.246836e-05
    outer loop
      vertex -1.665335e-16 2.230640e+00 -4.514070e-01
      vertex 3.653163e-01 1.338384e+00 -9.028140e-01
      vertex 1.826746e-01 1.784512e+00 0.000000e+00
    endloop
  endfacet
  facet normal -9.254250e-01 -3.789308e-01 7.652705e-16
    outer loop
      vertex -1.665335e-16 2.230640e+00 -4.514070e-01
      vertex 1.826746e-01 1.784512e+00 0.000000e+00
      vertex -1.826746e-01 2.676768e+00 0.000000e+00
    endloop
  endfacet
  facet normal -9.254330e-01 -3.789114e-01 -2.246836e-05
    outer loop
      vertex -1.665335e-16 2.230640e+00 -4.514070e-01
      vertex -1.826746e-01 2.676768e+00 0.000000e+00
      vertex -3.653163e-01 3.122896e+00 -9.028140e-01
    endloop
  endfacet
  facet normal -9.254370e-01 -3.789016e-01 4.464135e-16
    outer loop
      vertex -1.665335e-16 2.230640e+00 -4.514070e-01
      vertex -3.653163e-01 3.122896e+00 -9.028140e-01
      vertex 3.653163e-01 1.338384e+00 -9.028140e-01
    endloop
  endfacet
  facet normal -9.254330e-01 -3.789114e-01 2.246836e-05
    outer loop
      vertex -4.163336e-17 2.230640e+00 4.514070e-01
      vertex -3.653163e-01 3.122896e+00 9.028140e-01
      vertex -1.826746e-01 2.676768e+00 0.000000e+00
    endloop
  endfacet
  facet normal -9.254250e-01 -3.789308e-01 -9.565881e-17
    outer loop
      vertex -4.163336e-17 2.230640e+00 4.514070e-01
      vertex -1.826746e-01 2.676768e+00 0.000000e+00
      vertex 1.826746e-01 1.784512e+00 0.000000e+00
    endloop
  endfacet
  facet normal -9.254330e-01 -3.789114e-01 -2.246836e-05
    outer loop
      vertex -4.163336e-17 2.230640e+00 4.514070e-01
      vertex 1.826746e-01 1.784512e+00 0.000000e+00
      vertex 3.653163e-01 1.338384e+00 9.028140e-01
    endloop
  endfacet
  facet normal -9.254370e-01 -3.789016e-01 -2.550934e-16
    outer loop
      vertex -4.163336e-17 2.230640e+00 4.514070e-01
      vertex 3.653163e-01 1.338384e+00 9.028140e-01
      vertex -3.653163e-01 3.122896e+00 9.028140e-01
    endloop
  endfacet
  facet normal 9.254370e-01 3.789016e-01 -6.696203e-16
    outer loop
      vertex -4.758099e-17 2.230640e+00 6.344132e-17
      vertex 3.653163e-01 1.338384e+00 -9.028140e-01
      vertex -3.653163e-01 3.122896e+00 -9.028140e-01
    endloop
  endfacet
  facet normal -3.578148e-01 -7.325005e-01 -5.791474e-01
    outer loop
      vertex -4.758099e-17 2.230640e+00 6.344132e-17
      vertex -3.653163e-01 3.122896e+00 -9.028140e-01
      vertex 3.653163e-01 3.122896e+00 -1.354221e+00
    endloop
  endfacet
  facet normal 5.457821e-01 -7.597745e-01 -3.533620e-01
    outer loop
      vertex -4.758099e-17 2.230640e+00 6.344132e-17
      vertex 3.653163e-01 3.122896e+00 -1.354221e+00
      vertex 1.278624e+00 3.569024e+00 -9.028140e-01
    endloop
  endfacet
  facet normal 7.643900e-01 -6.259284e-01 1.546660e-01
    outer loop
      vertex -4.758099e-17 2.230640e+00 6.344132e-17
      vertex 1.278624e+00 3.569024e+00 -9.028140e-01
      vertex 1.461265e+00 4.015152e+00 0.000000e+00
    endloop
  endfacet
  facet normal 7.643900e-01 -6.259284e-01 -1.546660e-01
    outer loop
      vertex -4.758099e-17 2.230640e+00 6.344132e-17
      vertex 1.461265e+00 4.015152e+00 0.000000e+00
      vertex 1.278624e+00 3.569024e+00 9.028140e-01
    endloop
  endfacet
  facet normal 5.457821e-01 -7.597745e-01 3.533620e-01
    outer loop
      vertex -4.758099e-17 2.230640e+00 6.344132e-17
      vertex 1.278624e+00 3.569024e+00 9.028140e-01
      vertex 3.653163e-01 3.122896e+00 1.354221e+00
    endloop
  endfacet
  facet normal -3.578148e-01 -7.325005e-01 5.791474e-01
    outer loop
      vertex -4.758099e-17 2.230640e+00 6.344132e-17
      vertex 3.653163e-01 3.122896e+00 1.354221e+00
      vertex -3.653163e-01 3.122896e+00 9.028140e-01
    endloop
  endfacet
  facet normal 9.254370e-01 3.789016e-01 2.869801e-16
    outer loop
      vertex -4.758099e-17 2.230640e+00 6.344132e-17
      vertex -3.653163e-01 3.122896e+00 9.028140e-01
      vertex 3.653163e-01 1.338384e+00 9.028140e-01
    endloop
  endfacet
  facet normal -3.578148e-01 -7.325005e-01 -5.791474e-01
    outer loop
      vertex -4.758099e-17 2.230640e+00 6.344132e-17
      vertex 3.653163e-01 1.338384e+00 9.028140e-01
      vertex -3.653163e-01 1.338384e+00 1.354221e+00
    endloop
  endfacet
  facet normal 5.457821e-01 -7.597745e-01 -3.533620e-01
    outer loop
      vertex -4.758099e-17 2.230640e+00 6.344132e-17
      vertex -3.653163e-01 1.338384e+00 1.354221e+00
      vertex -1.278624e+00 8.922560e-01 9.028140e-01
    endloop
  endfacet
  facet normal 7.643900e-01 -6.259284e-01 1.546660e-01
    outer loop
      vertex -4.758099e-17 2.230640e+00 6.344132e-17
      vertex -1.278624e+00 8.922560e-01 9.028140e-01
      vertex -1.461265e+00 4.461280e-01 0.000000e+00
    endloop
  endfacet
  facet normal 7.643900e-01 -6.259284e-01 -1.546660e-01
    outer loop
      vertex -4.758099e-17 2.230640e+00 6.344132e-17
      vertex -1.461265e+00 4.461280e-01 0.000000e+00
      vertex -1.278624e+00 8.922560e-01 -9.028140e-01
    endloop
  endfacet
  facet normal 5.457821e-01 -7.597745e-01 3.533620e-01
    outer loop
      vertex -4.758099e-17 2.230640e+00 6.344132e-17
      vertex -1.278624e+00 8.922560e-01 -9.028140e-01
      vertex -3.653163e-01 1.338384e+00 -1.354221e+00
    endloop
  endfacet
  facet normal -3.578148e-01 -7.325005e-01 5.791474e-01
    outer loop
      vertex -4.758099e-17 2.230640e+00 6.344132e-17
      vertex -3.653163e-01 1.338384e+00 -1.354221e+00
      vertex 3.653163e-01 1.338384e+00 -9.028140e-01
    endloop
  endfacet
  facet normal -9.254330e-01 -3.789114e-01 2.246836e-05
    outer loop
      vertex 3.287880e+00 2.230640e+00 4.514070e-01
      vertex 2.922564e+00 3.122896e+00 9.028140e-01
      vertex 3.105205e+00 2.676768e+00 0.000000e+00
    endloop
  endfacet
  facet normal -9.254250e-01 -3.789308e-01 0.000000e+00
    outer loop
      vertex 3.287880e+00 2.230640e+00 4.514070e-01
      vertex 3.105205e+00 2.676768e+00 0.000000e+00
      vertex 3.470555e+00 1.784512e+00 0.000000e+00
    endloop
  endfacet
  facet normal -9.254330e-01 -3.789114e-01 -2.246836e-05
    outer loop
      vertex 3.287880e+00 2.230640e+00 4.514070e-01
      vertex 3.470555e+00 1.784512e+00 0.000000e+00
      vertex 3.653196e+00 1.338384e+00 9.028140e-01
    endloop
  endfacet
  facet normal -9.254370e-01 -3.789016e-01 -1.913201e-16
    outer loop
      vertex 3.287880e+00 2.230640e+00 4.514070e-01
      vertex 3.653196e+00 1.338384e+00 9.028140e-01
      vertex 2.922564e+00 3.122896e+00 9.028140e-01
    endloop
  endfacet
  facet normal -9.254330e-01 -3.789114e-01 2.246836e-05
    outer loop
      vertex 3.287880e+00 2.230640e+00 -4.514070e-01
      vertex 3.653196e+00 1.338384e+00 -9.028140e-01
      vertex 3.470555e+00 1.784512e+00 0.000000e+00
    endloop
  endfacet
  facet normal -9.254250e-01 -3.789308e-01 3.507490e-16
    outer loop
      vertex 3.287880e+00 2.230640e+00 -4.514070e-01
      vertex 3.470555e+00 1.784512e+00 0.000000e+00
      vertex 3.105205e+00 2.676768e+00 0.000000e+00
    endloop
  endfacet
  facet normal -9.254330e-01 -3.789114e-01 -2.246836e-05
    outer loop
      vertex 3.287880e+00 2.230640e+00 -4.514070e-01
      vertex 3.105205e+00 2.676768e+00 0.000000e+00
      vertex 2.922564e+00 3.122896e+00 -9.028140e-01
    endloop
  endfacet
  facet normal -9.254370e-01 -3.789016e-01 8.928271e-16
    outer loop
      vertex 3.287880e+00 2.230640e+00 -4.514070e-01
      vertex 2.922564e+00 3.122896e+00 -9.028140e-01
      vertex 3.653196e+00 1.338384e+00 -9.028140e-01
    endloop
  endfacet
  facet normal 9.254370e-01 3.789016e-01 8.290537e-16
    outer loop
      vertex 3.287880e+00 2.230640e+00 7.930164e-17
      vertex 2.922564e+00 3.122896e+00 9.028140e-01
      vertex 3.653196e+00 1.338384e+00 9.028140e-01
    endloop
  endfacet
  facet normal -3.578148e-01 -7.325005e-01 -5.791474e-01
    outer loop
      vertex 3.287880e+00 2.230640e+00 7.930164e-17
      vertex 3.653196e+00 1.338384e+00 9.028140e-01
      vertex 2.922564e+00 1.338384e+00 1.354221e+00
    endloop
  endfacet
  facet normal 5.457821e-01 -7.597745e-01 -3.533620e-01
    outer loop
      vertex 3.287880e+00 2.230640e+00 7.930164e-17
      vertex 2.922564e+00 1.338384e+00 1.354221e+00
      vertex 2.009256e+00 8.922560e-01 9.028140e-01
    endloop
  endfacet
  facet normal 7.643900e-01 -6.259284e-01 1.546660e-01
    outer loop
      vertex 3.287880e+00 2.230640e+00 7.930164e-17
      vertex 2.009256e+00 8.922560e-01 9.028140e-01
      vertex 1.826615e+00 4.461280e-01 0.000000e+00
    endloop
  endfacet
  facet normal 7.643900e-01 -6.259284e-01 -1.546660e-01
    outer loop
      vertex 3.287880e+00 2.230640e+00 7.930164e-17
      vertex 1.826615e+00 4.461280e-01 0.000000e+00
      vertex 2.009256e+00 8.922560e-01 -9.028140e-01
    endloop
  endfacet
  facet normal 5.457821e-01 -7.597745e-01 3.533620e-01
    outer loop
      vertex 3.287880e+00 2.230640e+00 7.930164e-17
      vertex 2.009256e+00 8.922560e-01 -9.028140e-01
      vertex 2.922564e+00 1.338384e+00 -1.354221e+00
    endloop
  endfacet
  facet normal -3.578148e-01 -7.325005e-01 5.791474e-01
    outer loop
      vertex 3.287880e+00 2.230640e+00 7.930164e-17
      vertex 2.922564e+00 1.338384e+00 -1.354221e+00
      vertex 3.653196e+00 1.338384e+00 -9.028140e-01
    endloop
  endfacet
  facet normal 9.254370e-01 3.789016e-01 -1.371127e-15
    outer loop
      vertex 3.287880e+00 2.230640e+00 7.930164e-17
      vertex 3.653196e+00 1.338384e+00 -9.028140e-01
      vertex 2.922564e+00 3.122896e+00 -9.028140e-01
    endloop
  endfacet
  facet normal -3.578148e-01 -7.325005e-01 -5.791474e-01
    outer loop
      vertex 3.287880e+00 2.230640e+00 7.930164e-17
      vertex 2.922564e+00 3.122896e+00 -9.028140e-01
      vertex 3.653196e+00 3.122896e+00 -1.354221e+00
    endloop
  endfacet
  facet normal 5.457821e-01 -7.597745e-01 -3.533620e-01
    outer loop
      vertex 3.287880e+00 2.230640e+00 7.930164e-17
      vertex 3.653196e+00 3.122896e+00 -1.354221e+00
      vertex 4.566504e+00 3.569024e+00 -9.028140e-01
    endloop
  endfacet
  facet normal 7.643900e-01 -6.259284e-01 1.546660e-01
    outer loop
      vertex 3.287880e+00 2.230640e+00 7.930164e-17
      vertex 4.566504e+00 3.569024e+00 -9.028140e-01
      vertex 4.749145e+00 4.015152e+00 0.000000e+00
    endloop
  endfacet
  facet normal 7.643900e-01 -6.259284e-01 -1.546660e-01
    outer loop
      vertex 3.287880e+00 2.230640e+00 7.930164e-17
      vertex 4.749145e+00 4.015152e+00 0.000000e+00
      vertex 4.566504e+00 3.569024e+00 9.028140e-01
    endloop
  endfacet
  facet normal 5.457821e-01 -7.597745e-01 3.533620e-01
    outer loop
      vertex 3.287880e+00 2.230640e+00 7.930164e-17
      vertex 4.566504e+00 3.569024e+00 9.028140e-01
      vertex 3.653196e+00 3.122896e+00 1.354221e+00
    endloop
  endfacet
  facet normal -3.578148e-01 -7.325005e-01 5.791474e-01
    outer loop
      vertex 3.287880e+00 2.230640e+00 7.930164e-17
      vertex 3.653196e+00 3.122896e+00 1.354221e+00
      vertex 2.922564e+00 3.122896e+00 9.028140e-01
    endloop
  endfacet
  facet normal 9.254330e-01 -3.789114e-01 -2.246836e-05
    outer loop
      vertex 1.643940e+00 1.665335e-16 -4.514070e-01
      vertex 2.009256e+00 8.922560e-01 -9.028140e-01
      vertex 1.826615e+00 4.461280e-01 0.000000e+00
    endloop
  endfacet
  facet normal 9.254250e-01 -3.789308e-01 -5.101803e-16
    outer loop
      vertex 1.643940e+00 1.665335e-16 -4.514070e-01
      vertex 1.826615e+00 4.461280e-01 0.000000e+00
      vertex 1.461265e+00 -4.461280e-01 0.000000e+00
    endloop
  endfacet
  facet normal 9.254330e-01 -3.789114e-01 2.246836e-05
    outer loop
      vertex 1.643940e+00 1.665335e-16 -4.514070e-01
      vertex 1.461265e+00 -4.461280e-01 0.000000e+00
      vertex 1.278624e+00 -8.922560e-01 -9.028140e-01
    endloop
  endfacet
  facet normal 9.254370e-01 -3.789016e-01 0.000000e+00
    outer loop
      vertex 1.643940e+00 1.665335e-16 -4.514070e-01
      vertex 1.278624e+00 -8.922560e-01 -9.028140e-01
      vertex 2.009256e+00 8.922560e-01 -9.028140e-01
    endloop
  endfacet
  facet normal 9.254330e-01 -3.789114e-01 -2.246836e-05
    outer loop
      vertex 1.643940e+00 1.665335e-16 4.514070e-01
      vertex 1.278624e+00 -8.922560e-01 9.028140e-01
      vertex 1.461265e+00 -4.461280e-01 0.000000e+00
    endloop
  endfacet
  facet normal 9.254250e-01 -3.789308e-01 6.377254e-17
    outer loop
      vertex 1.643940e+00 1.665335e-16 4.514070e-01
      vertex 1.461265e+00 -4.461280e-01 0.000000e+00
      vertex 1.826615e+00 4.461280e-01 0.000000e+00
    endloop
  endfacet
  facet normal 9.254330e-01 -3.789114e-01 2.246836e-05
    outer loop
      vertex 1.643940e+00 1.665335e-16 4.514070e-01
      vertex 1.826615e+00 4.461280e-01 0.000000e+00
      vertex 2.009256e+00 8.922560e-01 9.028140e-01
    endloop
  endfacet
  facet normal 9.254370e-01 -3.789016e-01 0.000000e+00
    outer loop
      vertex 1.643940e+00 1.665335e-16 4.514070e-01
      vertex 2.009256e+00 8.922560e-01 9.028140e-01
      vertex 1.278624e+00 -8.922560e-01 9.028140e-01
    endloop
  endfacet
  facet normal -9.254370e-01 3.789016e-01 2.869801e-16
    outer loop
      vertex 1.643940e+00 1.268826e-16 6.344132e-17
      vertex 2.009256e+00 8.922560e-01 -9.028140e-01
      vertex 1.278624e+00 -8.922560e-01 -9.028140e-01
    endloop
  endfacet
  facet normal 3.578148e-01 -7.325005e-01 5.791474e-01
    outer loop
      vertex 1.643940e+00 1.268826e-16 6.344132e-17
      vertex 1.278624e+00 -8.922560e-01 -9.028140e-01
      vertex 2.009256e+00 -8.922560e-01 -1.354221e+00
    endloop
  endfacet
  facet normal -5.457821e-01 -7.597745e-01 3.533620e-01
    outer loop
      vertex 1.643940e+00 1.268826e-16 6.344132e-17
      vertex 2.009256e+00 -8.922560e-01 -1.354221e+00
      vertex 2.922564e+00 -1.338384e+00 -9.028140e-01
    endloop
  endfacet
  facet normal -7.643900e-01 -6.259284e-01 -1.546660e-01
    outer loop
      vertex 1.643940e+00 1.268826e-16 6.344132e-17
      vertex 2.922564e+00 -1.338384e+00 -9.028140e-01
      vertex 3.105205e+00 -1.784512e+00 0.000000e+00
    endloop
  endfacet
  facet normal -7.643900e-01 -6.259284e-01 1.546660e-01
    outer loop
      vertex 1.643940e+00 1.268826e-16 6.344132e-17
      vertex 3.105205e+00 -1.784512e+00 0.000000e+00
      vertex 2.922564e+00 -1.338384e+00 9.028140e-01
    endloop
  endfacet
  facet normal -5.457821e-01 -7.597745e-01 -3.533620e-01
    outer loop
      vertex 1.643940e+00 1.268826e-16 6.344132e-17
      vertex 2.922564e+00 -1.338384e+00 9.028140e-01
      vertex 2.009256e+00 -8.922560e-01 1.354221e+00
    endloop
  endfacet
  facet normal 3.578148e-01 -7.325005e-01 -5.791474e-01
    outer loop
      vertex 1.643940e+00 1.268826e-16 6.344132e-17
      vertex 2.009256e+00 -8.922560e-01 1.354221e+00
      vertex 1.278624e+00 -8.922560e-01 9.028140e-01
    endloop
  endfacet
  facet normal -9.254370e-01 3.789016e-01 -6.377336e-17
    outer loop
      vertex 1.643940e+00 1.268826e-16 6.344132e-17
      vertex 1.278624e+00 -8.922560e-01 9.028140e-01
      vertex 2.009256e+00 8.922560e-01 9.028140e-01
    endloop
  endfacet
  facet normal 3.578148e-01 -7.325005e-01 5.791474e-01
    outer loop
      vertex 1.643940e+00 1.268826e-16 6.344132e-17
      vertex 2.009256e+00 8.922560e-01 9.028140e-01
      vertex 1.278624e+00 8.922560e-01 1.354221e+00
    endloop
  endfacet
  facet normal -5.457821e-01 -7.597745e-01 3.533620e-01
    outer loop
      vertex 1.643940e+00 1.268826e-16 6.344132e-17
      vertex 1.278624e+00 8.922560e-01 1.354221e+00
      vertex 3.653163e-01 1.338384e+00 9.028140e-01
    endloop
  endfacet
  facet normal -7.643900e-01 -6.259284e-01 -1.546660e-01
    outer loop
      vertex 1.643940e+00 1.268826e-16 6.344132e-17
      vertex 3.653163e-01 1.338384e+00 9.028140e-01
      vertex 1.826746e-01 1.784512e+00 0.000000e+00
    endloop
  endfacet
  facet normal -7.643900e-01 -6.259284e-01 1.546660e-01
    outer loop
      vertex 1.643940e+00 1.268826e-16 6.344132e-17
      vertex 1.826746e-01 1.784512e+00 0.000000e+00
      vertex 3.653163e-01 1.338384e+00 -9.028140e-01
    endloop
  endfacet
  facet normal -5.457821e-01 -7.597745e-01 -3.533620e-01
    outer loop
      vertex 1.643940e+00 1.268826e-16 6.344132e-17
      vertex 3.653163e-01 1.338384e+00 -9.028140e-01
      vertex 1.278624e+00 8.922560e-01 -1.354221e+00
    endloop
  endfacet
  facet normal 3.578148e-01 -7.325005e-01 -5.791474e-01
    outer loop
      vertex 1.643940e+00 1.268826e-16 6.344132e-17
      vertex 1.278624e+00 8.922560e-01 -1.354221e+00
      vertex 2.009256e+00 8.922560e-01 -9.028140e-01
    endloop
  endfacet
  facet normal 9.254330e-01 -3.789114e-01 -2.246836e-05
    outer loop
      vertex 1.643940e+00 4.461280e+00 4.514070e-01
      vertex 1.278624e+00 3.569024e+00 9.028140e-01
      vertex 1.461265e+00 4.015152e+00 0.000000e+00
    endloop
  endfacet
  facet normal 9.254250e-01 -3.789308e-01 0.000000e+00
    outer loop
      vertex 1.643940e+00 4.461280e+00 4.514070e-01
      vertex 1.461265e+00 4.015152e+00 0.000000e+00
      vertex 1.826615e+00 4.907408e+00 0.000000e+00
    endloop
  endfacet
  facet normal 9.254330e-01 -3.789114e-01 2.246836e-05
    outer loop
      vertex 1.643940e+00 4.461280e+00 4.514070e-01
      vertex 1.826615e+00 4.907408e+00 0.000000e+00
      vertex 2.009256e+00 5.353536e+00 9.028140e-01
    endloop
  endfacet
  facet normal 9.254370e-01 -3.789016e-01 -1.913201e-16
    outer loop
      vertex 1.643940e+00 4.461280e+00 4.514070e-01
      vertex 2.009256e+00 5.353536e+00 9.028140e-01
      vertex 1.278624e+00 3.569024e+00 9.028140e-01
    endloop
  endfacet
  facet normal 9.254330e-01 -3.789114e-01 -2.246836e-05
    outer loop
      vertex 1.643940e+00 4.461280e+00 -4.514070e-01
      vertex 2.009256e+00 5.353536e+00 -9.028140e-01
      vertex 1.826615e+00 4.907408e+00 0.000000e+00
    endloop
  endfacet
  facet normal 9.254250e-01 -3.789308e-01 0.000000e+00
    outer loop
      vertex 1.643940e+00 4.461280e+00 -4.514070e-01
      vertex 1.826615e+00 4.907408e+00 0.000000e+00
      vertex 1.461265e+00 4.015152e+00 0.000000e+00
    endloop
  endfacet
  facet normal 9.254330e-01 -3.789114e-01 2.246836e-05
    outer loop
      vertex 1.643940e+00 4.461280e+00 -4.514070e-01
      vertex 1.461265e+00 4.015152e+00 0.000000e+00
      vertex 1.278624e+00 3.569024e+00 -9.028140e-01
    endloop
  endfacet
  facet normal 9.254370e-01 -3.789016e-01 -4.464135e-16
    outer loop
      vertex 1.643940e+00 4.461280e+00 -4.514070e-01
      vertex 1.278624e+00 3.569024e+00 -9.028140e-01
      vertex 2.009256e+00 5.353536e+00 -9.028140e-01
    endloop
  endfacet
  facet normal -9.254370e-01 3.789016e-01 -2.869801e-16
    outer loop
      vertex 1.643940e+00 4.461280e+00 7.930164e-17
      vertex 1.278624e+00 3.569024e+00 9.028140e-01
      vertex 2.009256e+00 5.353536e+00 9.028140e-01
    endloop
  endfacet
  facet normal 3.578148e-01 -7.325005e-01 5.791474e-01
    outer loop
      vertex 1.643940e+00 4.461280e+00 7.930164e-17
      vertex 2.009256e+00 5.353536e+00 9.028140e-01
      vertex 1.278624e+00 5.353536e+00 1.354221e+00
    endloop
  endfacet
  facet normal -5.457821e-01 -7.597745e-01 3.533620e-01
    outer loop
      vertex 1.643940e+00 4.461280e+00 7.930164e-17
      vertex 1.278624e+00 5.353536e+00 1.354221e+00
      vertex 3.653163e-01 5.799664e+00 9.028140e-01
    endloop
  endfacet
  facet normal -7.643900e-01 -6.259284e-01 -1.546660e-01
    outer loop
      vertex 1.643940e+00 4.461280e+00 7.930164e-17
      vertex 3.653163e-01 5.799664e+00 9.028140e-01
      vertex 1.826746e-01 6.245792e+00 0.000000e+00
    endloop
  endfacet
  facet normal -7.643900e-01 -6.259284e-01 1.546660e-01
    outer loop
      vertex 1.643940e+00 4.461280e+00 7.930164e-17
      vertex 1.826746e-01 6.245792e+00 0.000000e+00
      vertex 3.653163e-01 5.799664e+00 -9.028140e-01
    endloop
  endfacet
  facet normal -5.457821e-01 -7.597745e-01 -3.533620e-01
    outer loop
      vertex 1.643940e+00 4.461280e+00 7.930164e-17
      vertex 3.653163e-01 5.799664e+00 -9.028140e-01
      vertex 1.278624e+00 5.353536e+00 -1.354221e+00
    endloop
  endfacet
  facet normal 3.578148e-01 -7.325005e-01 -5.791474e-01
    outer loop
      vertex 1.643940e+00 4.461280e+00 7.930164e-17
      vertex 1.278624e+00 5.353536e+00 -1.354221e+00
      vertex 2.009256e+00 5.353536e+00 -9.028140e-01
    endloop
  endfacet
  facet normal -9.254370e-01 3.789016e-01 5.739603e-16
    outer loop
      vertex 1.643940e+00 4.461280e+00 7.930164e-17
      vertex 2.009256e+00 5.353536e+00 -9.028140e-01
      vertex 1.278624e+00 3.569024e+00 -9.028140e-01
    endloop
  endfacet
  facet normal 3.578148e-01 -7.325005e-01 5.791474e-01
    outer loop
      vertex 1.643940e+00 4.461280e+00 7.930164e-17
      vertex 1.278624e+00 3.569024e+00 -9.028140e-01
      vertex 2.009256e+00 3.569024e+00 -1.354221e+00
    endloop
  endfacet
  facet normal -5.457821e-01 -7.597745e-01 3.533620e-01
    outer loop
      vertex 1.643940e+00 4.461280e+00 7.930164e-17
      vertex 2.009256e+00 3.569024e+00 -1.354221e+00
      vertex 2.922564e+00 3.122896e+00 -9.028140e-01
    endloop
  endfacet
  facet normal -7.643900e-01 -6.259284e-01 -1.546660e-01
    outer loop
      vertex 1.643940e+00 4.461280e+00 7.930164e-17
      vertex 2.922564e+00 3.122896e+00 -9.028140e-01
      vertex 3.105205e+00 2.676768e+00 0.000000e+00
    endloop
  endfacet
  facet normal -7.643900e-01 -6.259284e-01 1.546660e-01
    outer loop
      vertex 1.643940e+00 4.461280e+00 7.930164e-17
      vertex 3.105205e+00 2.676768e+00 0.000000e+00
      vertex 2.922564e+00 3.122896e+00 9.028140e-01
    endloop
  endfacet
  facet normal -5.457821e-01 -7.597745e-01 -3.533620e-01
    outer loop
      vertex 1.643940e+00 4.461280e+00 7.930164e-17
      vertex 2.922564e+00 3.122896e+00 9.028140e-01
      vertex 2.009256e+00 3.569024e+00 1.354221e+00
    endloop
  endfacet
  facet normal 3.578148e-01 -7.325005e-01 -5.791474e-01
    outer loop
      vertex 1.643940e+00 4.461280e+00 7.930164e-17
      vertex 2.009256e+00 3.569024e+00 1.354221e+00
      vertex 1.278624e+00 3.569024e+00 9.028140e-01
    endloop
  endfacet
  facet normal -9.254330e-01 -3.789114e-01 2.246836e-05
    outer loop
      vertex 1.643940e+00 2.220446e-16 2.708442e+00
      vertex 1.278624e+00 8.922560e-01 3.159849e+00
      vertex 1.461265e+00 4.461280e-01 2.257035e+00
    endloop
  endfacet
  facet normal -9.254250e-01 -3.789308e-01 6.377254e-17
    outer loop
      vertex 1.643940e+00 2.220446e-16 2.708442e+00
      vertex 1.461265e+00 4.461280e-01 2.257035e+00
      vertex 1.826615e+00 -4.461280e-01 2.257035e+00
    endloop
  endfacet
  facet normal -9.254330e-01 -3.789114e-01 -2.246836e-05
    outer loop
      vertex 1.643940e+00 2.220446e-16 2.708442e+00
      vertex 1.826615e+00 -4.461280e-01 2.257035e+00
      vertex 2.009256e+00 -8.922560e-01 3.159849e+00
    endloop
  endfacet
  facet normal -9.254370e-01 -3.789016e-01 -5.739603e-16
    outer loop
      vertex 1.643940e+00 2.220446e-16 2.708442e+00
      vertex 2.009256e+00 -8.922560e-01 3.159849e+00
      vertex 1.278624e+00 8.922560e-01 3.159849e+00
    endloop
  endfacet
  facet normal -9.254330e-01 -3.789114e-01 2.246836e-05
    outer loop
      vertex 1.643940e+00 2.220446e-16 1.805628e+00
      vertex 2.009256e+00 -8.922560e-01 1.354221e+00
      vertex 1.826615e+00 -4.461280e-01 2.257035e+00
    endloop
  endfacet
  facet normal -9.254250e-01 -3.789308e-01 -6.377254e-17
    outer loop
      vertex 1.643940e+00 2.220446e-16 1.805628e+00
      vertex 1.826615e+00 -4.461280e-01 2.257035e+00
      vertex 1.461265e+00 4.461280e-01 2.257035e+00
    endloop
  endfacet
  facet normal -9.254330e-01 -3.789114e-01 -2.246836e-05
    outer loop
      vertex 1.643940e+00 2.220446e-16 1.805628e+00
      vertex 1.461265e+00 4.461280e-01 2.257035e+00
      vertex 1.278624e+00 8.922560e-01 1.354221e+00
    endloop
  endfacet
  facet normal -9.254370e-01 -3.789016e-01 8.928271e-16
    outer loop
      vertex 1.643940e+00 2.220446e-16 1.805628e+00
      vertex 1.278624e+00 8.922560e-01 1.354221e+00
      vertex 2.009256e+00 -8.922560e-01 1.354221e+00
    endloop
  endfacet
  facet normal 9.254370e-01 3.789016e-01 2.232068e-16
    outer loop
      vertex 1.643940e+00 1.586033e-16 2.257035e+00
      vertex 1.278624e+00 8.922560e-01 3.159849e+00
      vertex 2.009256e+00 -8.922560e-01 3.159849e+00
    endloop
  endfacet
  facet normal -3.578148e-01 -7.325005e-01 -5.791474e-01
    outer loop
      vertex 1.643940e+00 1.586033e-16 2.257035e+00
      vertex 2.009256e+00 -8.922560e-01 3.159849e+00
      vertex 1.278624e+00 -8.922560e-01 3.611256e+00
    endloop
  endfacet
  facet normal 5.457821e-01 -7.597745e-01 -3.533620e-01
    outer loop
      vertex 1.643940e+00 1.586033e-16 2.257035e+00
      vertex 1.278624e+00 -8.922560e-01 3.611256e+00
      vertex 3.653163e-01 -1.338384e+00 3.159849e+00
    endloop
  endfacet
  facet normal 7.643900e-01 -6.259284e-01 1.546660e-01
    outer loop
      vertex 1.643940e+00 1.586033e-16 2.257035e+00
      vertex 3.653163e-01 -1.338384e+00 3.159849e+00
      vertex 1.826746e-01 -1.784512e+00 2.257035e+00
    endloop
  endfacet
  facet normal 7.643900e-01 -6.259284e-01 -1.546660e-01
    outer loop
      vertex 1.643940e+00 1.586033e-16 2.257035e+00
      vertex 1.826746e-01 -1.784512e+00 2.257035e+00
      vertex 3.653163e-01 -1.338384e+00 1.354221e+00
    endloop
  endfacet
  facet normal 5.457821e-01 -7.597745e-01 3.533620e-01
    outer loop
      vertex 1.643940e+00 1.586033e-16 2.257035e+00
      vertex 3.653163e-01 -1.338384e+00 1.354221e+00
      vertex 1.278624e+00 -8.922560e-01 9.028140e-01
    endloop
  endfacet
  facet normal -3.578148e-01 -7.325005e-01 5.791474e-01
    outer loop
      vertex 1.643940e+00 1.586033e-16 2.257035e+00
      vertex 1.278624e+00 -8.922560e-01 9.028140e-01
      vertex 2.009256e+00 -8.922560e-01 1.354221e+00
    endloop
  endfacet
  facet normal 9.254370e-01 3.789016e-01 -3.826402e-16
    outer loop
      vertex 1.643940e+00 1.586033e-16 2.257035e+00
      vertex 2.009256e+00 -8.922560e-01 1.354221e+00
      vertex 1.278624e+00 8.922560e-01 1.354221e+00
    endloop
  endfacet
  facet normal -3.578148e-01 -7.325005e-01 -5.791474e-01
    outer loop
      vertex 1.643940e+00 1.586033e-16 2.257035e+00
      vertex 1.278624e+00 8.922560e-01 1.354221e+00
      vertex 2.009256e+00 8.922560e-01 9.028140e-01
    endloop
  endfacet
  facet normal 5.457821e-01 -7.597745e-01 -3.533620e-01
    outer loop
      vertex 1.643940e+00 1.586033e-16 2.257035e+00
      vertex 2.009256e+00 8.922560e-01 9.028140e-01
      vertex 2.922564e+00 1.338384e+00 1.354221e+00
    endloop
  endfacet
  facet normal 7.643900e-01 -6.259284e-01 1.546660e-01
    outer loop
      vertex 1.643940e+00 1.586033e-16 2.257035e+00
      vertex 2.922564e+00 1.338384e+00 1.354221e+00
      vertex 3.105205e+00 1.784512e+00 2.257035e+00
    endloop
  endfacet
  facet normal 7.643900e-01 -6.259284e-01 -1.546660e-01
    outer loop
      vertex 1.643940e+00 1.586033e-16 2.257035e+00
      vertex 3.105205e+00 1.784512e+00 2.257035e+00
      vertex 2.922564e+00 1.338384e+00 3.159849e+00
    endloop
  endfacet
  facet normal 5.457821e-01 -7.597745e-01 3.533620e-01
    outer loop
      vertex 1.643940e+00 1.586033e-16 2.257035e+00
      vertex 2.922564e+00 1.338384e+00 3.159849e+00
      vertex 2.009256e+00 8.922560e-01 3.611256e+00
    endloop
  endfacet
  facet normal -3.578148e-01 -7.325005e-01 5.791474e-01
    outer loop
      vertex 1.643940e+00 1.586033e-16 2.257035e+00
      vertex 2.009256e+00 8.922560e-01 3.611256e+00
      vertex 1.278624e+00 8.922560e-01 3.159849e+00
    endloop
  endfacet
  facet normal -9.254330e-01 -3.789114e-01 2.246836e-05
    outer loop
      vertex 1.643940e+00 4.461280e+00 1.805628e+00
      vertex 2.009256e+00 3.569024e+00 1.354221e+00
      vertex 1.826615e+00 4.015152e+00 2.257035e+00
    endloop
  endfacet
  facet normal -9.254250e-01 -3.789308e-01 4.782940e-16
    outer loop
      vertex 1.643940e+00 4.461280e+00 1.805628e+00
      vertex 1.826615e+00 4.015152e+00 2.257035e+00
      vertex 1.461265e+00 4.907408e+00 2.257035e+00
    endloop
  endfacet
  facet normal -9.254330e-01 -3.789114e-01 -2.246836e-05
    outer loop
      vertex 1.643940e+00 4.461280e+00 1.805628e+00
      vertex 1.461265e+00 4.907408e+00 2.257035e+00
      vertex 1.278624e+00 5.353536e+00 1.354221e+00
    endloop
  endfacet
  facet normal -9.254370e-01 -3.789016e-01 -1.275467e-16
    outer loop
      vertex 1.643940e+00 4.461280e+00 1.805628e+00
      vertex 1.278624e+00 5.353536e+00 1.354221e+00
      vertex 2.009256e+00 3.569024e+00 1.354221e+00
    endloop
  endfacet
  facet normal -9.254330e-01 -3.789114e-01 2.246836e-05
    outer loop
      vertex 1.643940e+00 4.461280e+00 2.708442e+00
      vertex 1.278624e+00 5.353536e+00 3.159849e+00
      vertex 1.461265e+00 4.907408e+00 2.257035e+00
    endloop
  endfacet
  facet normal -9.254250e-01 -3.789308e-01 -4.782940e-16
    outer loop
      vertex 1.643940e+00 4.461280e+00 2.708442e+00
      vertex 1.461265e+00 4.907408e+00 2.257035e+00
      vertex 1.826615e+00 4.015152e+00 2.257035e+00
    endloop
  endfacet
  facet normal -9.254330e-01 -3.789114e-01 -2.246836e-05
    outer loop
      vertex 1.643940e+00 4.461280e+00 2.708442e+00
      vertex 1.826615e+00 4.015152e+00 2.257035e+00
      vertex 2.009256e+00 3.569024e+00 3.159849e+00
    endloop
  endfacet
  facet normal -9.254370e-01 -3.789016e-01 3.826402e-16
    outer loop
      vertex 1.643940e+00 4.461280e+00 2.708442e+00
      vertex 2.009256e+00 3.569024e+00 3.159849e+00
      vertex 1.278624e+00 5.353536e+00 3.159849e+00
    endloop
  endfacet
  facet normal 9.254370e-01 3.789016e-01 4.464135e-16
    outer loop
      vertex 1.643940e+00 4.461280e+00 2.257035e+00
      vertex 2.009256e+00 3.569024e+00 1.354221e+00
      vertex 1.278624e+00 5.353536e+00 1.354221e+00
    endloop
  endfacet
  facet normal -3.578148e-01 -7.325005e-01 -5.791474e-01
    outer loop
      vertex 1.643940e+00 4.461280e+00 2.257035e+00
      vertex 1.278624e+00 5.353536e+00 1.354221e+00
      vertex 2.009256e+00 5.353536e+00 9.028140e-01
    endloop
  endfacet
  facet normal 5.457821e-01 -7.597745e-01 -3.533620e-01
    outer loop
      vertex 1.643940e+00 4.461280e+00 2.257035e+00
      vertex 2.009256e+00 5.353536e+00 9.028140e-01
      vertex 2.922564e+00 5.799664e+00 1.354221e+00
    endloop
  endfacet
  facet normal 7.643900e-01 -6.259284e-01 1.546660e-01
    outer loop
      vertex 1.643940e+00 4.461280e+00 2.257035e+00
      vertex 2.922564e+00 5.799664e+00 1.354221e+00
      vertex 3.105205e+00 6.245792e+00 2.257035e+00
    endloop
  endfacet
  facet normal 7.643900e-01 -6.259284e-01 -1.546660e-01
    outer loop
      vertex 1.643940e+00 4.461280e+00 2.257035e+00
      vertex 3.105205e+00 6.245792e+00 2.257035e+00
      vertex 2.922564e+00 5.799664e+00 3.159849e+00
    endloop
  endfacet
  facet normal 5.457821e-01 -7.597745e-01 3.533620e-01
    outer loop
      vertex 1.643940e+00 4.461280e+00 2.257035e+00
      vertex 2.922564e+00 5.799664e+00 3.159849e+00
      vertex 2.009256e+00 5.353536e+00 3.611256e+00
    endloop
  endfacet
  facet normal -3.578148e-01 -7.325005e-01 5.791474e-01
    outer loop
      vertex 1.643940e+00 4.461280e+00 2.257035e+00
      vertex 2.009256e+00 5.353536e+00 3.611256e+00
      vertex 1.278624e+00 5.353536e+00 3.159849e+00
    endloop
  endfacet
  facet normal 9.254370e-01 3.789016e-01 -5.739603e-16
    outer loop
      vertex 1.643940e+00 4.461280e+00 2.257035e+00
      vertex 1.278624e+00 5.353536e+00 3.159849e+00
      vertex 2.009256e+00 3.569024e+00 3.159849e+00
    endloop
  endfacet
  facet normal -3.578148e-01 -7.325005e-01 -5.791474e-01
    outer loop
      vertex 1.643940e+00 4.461280e+00 2.257035e+00
      vertex 2.009256e+00 3.569024e+00 3.159849e+00
      vertex 1.278624e+00 3.569024e+00 3.611256e+00
    endloop
  endfacet
  facet normal 5.457821e-01 -7.597745e-01 -3.533620e-01
    outer loop
      vertex 1.643940e+00 4.461280e+00 2.257035e+00
      vertex 1.278624e+00 3.569024e+00 3.611256e+00
      vertex 3.653163e-01 3.122896e+00 3.159849e+00
    endloop
  endfacet
  facet normal 7.643900e-01 -6.259284e-01 1.546660e-01
    outer loop
      vertex 1.643940e+00 4.461280e+00 2.257035e+00
      vertex 3.653163e-01 3.122896e+00 3.159849e+00
      vertex 1.826746e-01 2.676768e+00 2.257035e+00
    endloop
  endfacet
  facet normal 7.643900e-01 -6.259284e-01 -1.546660e-01
    outer loop
      vertex 1.643940e+00 4.461280e+00 2.257035e+00
      vertex 1.826746e-01 2.676768e+00 2.257035e+00
      vertex 3.653163e-01 3.122896e+00 1.354221e+00
    endloop
  endfacet
  facet normal 5.457821e-01 -7.597745e-01 3.533620e-01
    outer loop
      vertex 1.643940e+00 4.461280e+00 2.257035e+00
      vertex 3.653163e-01 3.122896e+00 1.354221e+00
      vertex 1.278624e+00 3.569024e+00 9.028140e-01
    endloop
  endfacet
  facet normal -3.578148e-01 -7.325005e-01 5.791474e-01
    outer loop
      vertex 1.643940e+00 4.461280e+00 2.257035e+00
      vertex 1.278624e+00 3.569024e+00 9.028140e-01
      vertex 2.009256e+00 3.569024e+00 1.354221e+00
    endloop
  endfacet
  facet normal 9.254330e-01 -3.789114e-01 -2.246836e-05
    outer loop
      vertex 5.551115e-17 2.230640e+00 1.805628e+00
      vertex 3.653163e-01 3.122896e+00 1.354221e+00
      vertex 1.826746e-01 2.676768e+00 2.257035e+00
    endloop
  endfacet
  facet normal 9.254250e-01 -3.789308e-01 -3.188627e-17
    outer loop
      vertex 5.551115e-17 2.230640e+00 1.805628e+00
      vertex 1.826746e-01 2.676768e+00 2.257035e+00
      vertex -1.826746e-01 1.784512e+00 2.257035e+00
    endloop
  endfacet
  facet normal 9.254330e-01 -3.789114e-01 2.246836e-05
    outer loop
      vertex 5.551115e-17 2.230640e+00 1.805628e+00
      vertex -1.826746e-01 1.784512e+00 2.257035e+00
      vertex -3.653163e-01 1.338384e+00 1.354221e+00
    endloop
  endfacet
  facet normal 9.254370e-01 -3.789016e-01 0.000000e+00
    outer loop
      vertex 5.551115e-17 2.230640e+00 1.805628e+00
      vertex -3.653163e-01 1.338384e+00 1.354221e+00
      vertex 3.653163e-01 3.122896e+00 1.354221e+00
    endloop
  endfacet
  facet normal 9.254330e-01 -3.789114e-01 -2.246836e-05
    outer loop
      vertex 6.938894e-17 2.230640e+00 2.708442e+00
      vertex -3.653163e-01 1.338384e+00 3.159849e+00
      vertex -1.826746e-01 1.784512e+00 2.257035e+00
    endloop
  endfacet
  facet normal 9.254250e-01 -3.789308e-01 3.188627e-17
    outer loop
      vertex 6.938894e-17 2.230640e+00 2.708442e+00
      vertex -1.826746e-01 1.784512e+00 2.257035e+00
      vertex 1.826746e-01 2.676768e+00 2.257035e+00
    endloop
  endfacet
  facet normal 9.254330e-01 -3.789114e-01 2.246836e-05
    outer loop
      vertex 6.938894e-17 2.230640e+00 2.708442e+00
      vertex 1.826746e-01 2.676768e+00 2.257035e+00
      vertex 3.653163e-01 3.122896e+00 3.159849e+00
    endloop
  endfacet
  facet normal 9.254370e-01 -3.789016e-01 -6.377336e-17
    outer loop
      vertex 6.938894e-17 2.230640e+00 2.708442e+00
      vertex 3.653163e-01 3.122896e+00 3.159849e+00
      vertex -3.653163e-01 1.338384e+00 3.159849e+00
    endloop
  endfacet
  facet normal -9.254370e-01 3.789016e-01 0.000000e+00
    outer loop
      vertex 4.758099e-17 2.230640e+00 2.257035e+00
      vertex 3.653163e-01 3.122896e+00 1.354221e+00
      vertex -3.653163e-01 1.338384e+00 1.354221e+00
    endloop
  endfacet
  facet normal 3.578148e-01 -7.325005e-01 5.791474e-01
    outer loop
      vertex 4.758099e-17 2.230640e+00 2.257035e+00
      vertex -3.653163e-01 1.338384e+00 1.354221e+00
      vertex 3.653163e-01 1.338384e+00 9.028140e-01
    endloop
  endfacet
  facet normal -5.457821e-01 -7.597745e-01 3.533620e-01
    outer loop
      vertex 4.758099e-17 2.230640e+00 2.257035e+00
      vertex 3.653163e-01 1.338384e+00 9.028140e-01
      vertex 1.278624e+00 8.922560e-01 1.354221e+00
    endloop
  endfacet
  facet normal -7.643900e-01 -6.259284e-01 -1.546660e-01
    outer loop
      vertex 4.758099e-17 2.230640e+00 2.257035e+00
      vertex 1.278624e+00 8.922560e-01 1.354221e+00
      vertex 1.461265e+00 4.461280e-01 2.257035e+00
    endloop
  endfacet
  facet normal -7.643900e-01 -6.259284e-01 1.546660e-01
    outer loop
      vertex 4.758099e-17 2.230640e+00 2.257035e+00
      vertex 1.461265e+00 4.461280e-01 2.257035e+00
      vertex 1.278624e+00 8.922560e-01 3.159849e+00
    endloop
  endfacet
  facet normal -5.457821e-01 -7.597745e-01 -3.533620e-01
    outer loop
      vertex 4.758099e-17 2.230640e+00 2.257035e+00
      vertex 1.278624e+00 8.922560e-01 3.159849e+00
      vertex 3.653163e-01 1.338384e+00 3.611256e+00
    endloop
  endfacet
  facet normal 3.578148e-01 -7.325005e-01 -5.791474e-01
    outer loop
      vertex 4.758099e-17 2.230640e+00 2.257035e+00
      vertex 3.653163e-01 1.338384e+00 3.611256e+00
      vertex -3.653163e-01 1.338384e+00 3.159849e+00
    endloop
  endfacet
  facet normal -9.254370e-01 3.789016e-01 3.188668e-17
    outer loop
      vertex 4.758099e-17 2.230640e+00 2.257035e+00
      vertex -3.653163e-01 1.338384e+00 3.159849e+00
      vertex 3.653163e-01 3.122896e+00 3.159849e+00
    endloop
  endfacet
  facet normal 3.578148e-01 -7.325005e-01 5.791474e-01
    outer loop
      vertex 4.758099e-17 2.230640e+00 2.257035e+00
      vertex 3.653163e-01 3.122896e+00 3.159849e+00
      vertex -3.653163e-01 3.122896e+00 3.611256e+00
    endloop
  endfacet
  facet normal -5.457821e-01 -7.597745e-01 3.533620e-01
    outer loop
      vertex 4.758099e-17 2.230640e+00 2.257035e+00
      vertex -3.653163e-01 3.122896e+00 3.611256e+00
      vertex -1.278624e+00 3.569024e+00 3.159849e+00
    endloop
  endfacet
  facet normal -7.643900e-01 -6.259284e-01 -1.546660e-01
    outer loop
      vertex 4.758099e-17 2.230640e+00 2.257035e+00
      vertex -1.278624e+00 3.569024e+00 3.159849e+00
      vertex -1.461265e+00 4.015152e+00 2.257035e+00
    endloop
  endfacet
  facet normal -7.643900e-01 -6.259284e-01 1.546660e-01
    outer loop
      vertex 4.758099e-17 2.230640e+00 2.257035e+00
      vertex -1.461265e+00 4.015152e+00 2.257035e+00
      vertex -1.278624e+00 3.569024e+00 1.354221e+00
    endloop
  endfacet
  facet normal -5.457821e-01 -7.597745e-01 -3.533620e-01
    outer loop
      vertex 4.758099e-17 2.230640e+00 2.257035e+00
      vertex -1.278624e+00 3.569024e+00 1.354221e+00
      vertex -3.653163e-01 3.122896e+00 9.028140e-01
    endloop
  endfacet
  facet normal 3.578148e-01 -7.325005e-01 -5.791474e-01
    outer loop
      vertex 4.758099e-17 2.230640e+00 2.257035e+00
      vertex -3.653163e-01 3.122896e+00 9.028140e-01
      vertex 3.653163e-01 3.122896e+00 1.354221e+00
    endloop
  endfacet
  facet normal 9.254330e-01 -3.789114e-01 -2.246836e-05
    outer loop
      vertex 3.287880e+00 2.230640e+00 2.708442e+00
      vertex 2.922564e+00 1.338384e+00 3.159849e+00
      vertex 3.105205e+00 1.784512e+00 2.257035e+00
    endloop
  endfacet
  facet normal 9.254250e-01 -3.789308e-01 -9.565881e-17
    outer loop
      vertex 3.287880e+00 2.230640e+00 2.708442e+00
      vertex 3.105205e+00 1.784512e+00 2.257035e+00
      vertex 3.470555e+00 2.676768e+00 2.257035e+00
    endloop
  endfacet
  facet normal 9.254330e-01 -3.789114e-01 2.246836e-05
    outer loop
      vertex 3.287880e+00 2.230640e+00 2.708442e+00
      vertex 3.470555e+00 2.676768e+00 2.257035e+00
      vertex 3.653196e+00 3.122896e+00 3.159849e+00
    endloop
  endfacet
  facet normal 9.254370e-01 -3.789016e-01 -1.275467e-16
    outer loop
      vertex 3.287880e+00 2.230640e+00 2.708442e+00
      vertex 3.653196e+00 3.122896e+00 3.159849e+00
      vertex 2.922564e+00 1.338384e+00 3.159849e+00
    endloop
  endfacet
  facet normal 9.254330e-01 -3.789114e-01 -2.246836e-05
    outer loop
      vertex 3.287880e+00 2.230640e+00 1.805628e+00
      vertex 3.653196e+00 3.122896e+00 1.354221e+00
      vertex 3.470555e+00 2.676768e+00 2.257035e+00
    endloop
  endfacet
  facet normal 9.254250e-01 -3.789308e-01 9.565881e-17
    outer loop
      vertex 3.287880e+00 2.230640e+00 1.805628e+00
      vertex 3.470555e+00 2.676768e+00 2.257035e+00
      vertex 3.105205e+00 1.784512e+00 2.257035e+00
    endloop
  endfacet
  facet normal 9.254330e-01 -3.789114e-01 2.246836e-05
    outer loop
      vertex 3.287880e+00 2.230640e+00 1.805628e+00
      vertex 3.105205e+00 1.784512e+00 2.257035e+00
      vertex 2.922564e+00 1.338384e+00 1.354221e+00
    endloop
  endfacet
  facet normal 9.254370e-01 -3.789016e-01 1.913201e-16
    outer loop
      vertex 3.287880e+00 2.230640e+00 1.805628e+00
      vertex 2.922564e+00 1.338384e+00 1.354221e+00
      vertex 3.653196e+00 3.122896e+00 1.354221e+00
    endloop
  endfacet
  facet normal -9.254370e-01 3.789016e-01 -7.015070e-16
    outer loop
      vertex 3.287880e+00 2.230640e+00 2.257035e+00
      vertex 2.922564e+00 1.338384e+00 3.159849e+00
      vertex 3.653196e+00 3.122896e+00 3.159849e+00
    endloop
  endfacet
  facet normal 3.578148e-01 -7.325005e-01 5.791474e-01
    outer loop
      vertex 3.287880e+00 2.230640e+00 2.257035e+00
      vertex 3.653196e+00 3.122896e+00 3.159849e+00
      vertex 2.922564e+00 3.122896e+00 3.611256e+00
    endloop
  endfacet
  facet normal -5.457821e-01 -7.597745e-01 3.533620e-01
    outer loop
      vertex 3.287880e+00 2.230640e+00 2.257035e+00
      vertex 2.922564e+00 3.122896e+00 3.611256e+00
      vertex 2.009256e+00 3.569024e+00 3.159849e+00
    endloop
  endfacet
  facet normal -7.643900e-01 -6.259284e-01 -1.546660e-01
    outer loop
      vertex 3.287880e+00 2.230640e+00 2.257035e+00
      vertex 2.009256e+00 3.569024e+00 3.159849e+00
      vertex 1.826615e+00 4.015152e+00 2.257035e+00
    endloop
  endfacet
  facet normal -7.643900e-01 -6.259284e-01 1.546660e-01
    outer loop
      vertex 3.287880e+00 2.230640e+00 2.257035e+00
      vertex 1.826615e+00 4.015152e+00 2.257035e+00
      vertex 2.009256e+00 3.569024e+00 1.354221e+00
    endloop
  endfacet
  facet normal -5.457821e-01 -7.597745e-01 -3.533620e-01
    outer loop
      vertex 3.287880e+00 2.230640e+00 2.257035e+00
      vertex 2.009256e+00 3.569024e+00 1.354221e+00
      vertex 2.922564e+00 3.122896e+00 9.028140e-01
    endloop
  endfacet
  facet normal 3.578148e-01 -7.325005e-01 -5.791474e-01
    outer loop
      vertex 3.287880e+00 2.230640e+00 2.257035e+00
      vertex 2.922564e+00 3.122896e+00 9.028140e-01
      vertex 3.653196e+00 3.122896e+00 1.354221e+00
    endloop
  endfacet
  facet normal -9.254370e-01 3.789016e-01 6.377336e-16
    outer loop
      vertex 3.287880e+00 2.230640e+00 2.257035e+00
      vertex 3.653196e+00 3.122896e+00 1.354221e+00
      vertex 2.922564e+00 1.338384e+00 1.354221e+00
    endloop
  endfacet
  facet normal 3.578148e-01 -7.325005e-01 5.791474e-01
    outer loop
      vertex 3.287880e+00 2.230640e+00 2.257035e+00
      vertex 2.922564e+00 1.338384e+00 1.354221e+00
      vertex 3.653196e+00 1.338384e+00 9.028140e-01
    endloop
  endfacet
  facet normal -5.457821e-01 -7.597745e-01 3.533620e-01
    outer loop
      vertex 3.287880e+00 2.230640e+00 2.257035e+00
      vertex 3.653196e+00 1.338384e+00 9.028140e-01
      vertex 4.566504e+00 8.922560e-01 1.354221e+00
    endloop
  endfacet
  facet normal -7.643900e-01 -6.259284e-01 -1.546660e-01
    outer loop
      vertex 3.287880e+00 2.230640e+00 2.257035e+00
      vertex 4.566504e+00 8.922560e-01 1.354221e+00
      vertex 4.749145e+00 4.461280e-01 2.257035e+00
    endloop
  endfacet
  facet normal -7.643900e-01 -6.259284e-01 1.546660e-01
    outer loop
      vertex 3.287880e+00 2.230640e+00 2.257035e+00
      vertex 4.749145e+00 4.461280e-01 2.257035e+00
      vertex 4.566504e+00 8.922560e-01 3.159849e+00
    endloop
  endfacet
  facet normal -5.457821e-01 -7.597745e-01 -3.533620e-01
    outer loop
      vertex 3.287880e+00 2.230640e+00 2.257035e+00
      vertex 4.566504e+00 8.922560e-01 3.159849e+00
      vertex 3.653196e+00 1.338384e+00 3.611256e+00
    endloop
  endfacet
  facet normal 3.578148e-01 -7.325005e-01 -5.791474e-01
    outer loop
      vertex 3.287880e+00 2.230640e+00 2.257035e+00
      vertex 3.653196e+00 1.338384e+00 3.611256e+00
      vertex 2.922564e+00 1.338384e+00 3.159849e+00
    endloop
  endfacet
  facet normal 9.254330e-01 -3.789114e-01 -2.246836e-05
    outer loop
      vertex 1.643940e+00 2.775558e-16 4.062663e+00
      vertex 2.009256e+00 8.922560e-01 3.611256e+00
      vertex 1.826615e+00 4.461280e-01 4.514070e+00
    endloop
  endfacet
  facet normal 9.254250e-01 -3.789308e-01 0.000000e+00
    outer loop
      vertex 1.643940e+00 2.775558e-16 4.062663e+00
      vertex 1.826615e+00 4.461280e-01 4.514070e+00
      vertex 1.461265e+00 -4.461280e-01 4.514070e+00
    endloop
  endfacet
  facet normal 9.254330e-01 -3.789114e-01 2.246836e-05
    outer loop
      vertex 1.643940e+00 2.775558e-16 4.062663e+00
      vertex 1.461265e+00 -4.461280e-01 4.514070e+00
      vertex 1.278624e+00 -8.922560e-01 3.611256e+00
    endloop
  endfacet
  facet normal 9.254370e-01 -3.789016e-01 -3.188668e-16
    outer loop
      vertex 1.643940e+00 2.775558e-16 4.062663e+00
      vertex 1.278624e+00 -8.922560e-01 3.611256e+00
      vertex 2.009256e+00 8.922560e-01 3.611256e+00
    endloop
  endfacet
  facet normal 9.254330e-01 -3.789114e-01 -2.246836e-05
    outer loop
      vertex 1.643940e+00 2.775558e-16 4.965477e+00
      vertex 1.278624e+00 -8.922560e-01 5.416884e+00
      vertex 1.461265e+00 -4.461280e-01 4.514070e+00
    endloop
  endfacet
  facet normal 9.254250e-01 -3.789308e-01 0.000000e+00
    outer loop
      vertex 1.643940e+00 2.775558e-16 4.965477e+00
      vertex 1.461265e+00 -4.461280e-01 4.514070e+00
      vertex 1.826615e+00 4.461280e-01 4.514070e+00
    endloop
  endfacet
  facet normal 9.254330e-01 -3.789114e-01 2.246836e-05
    outer loop
      vertex 1.643940e+00 2.775558e-16 4.965477e+00
      vertex 1.826615e+00 4.461280e-01 4.514070e+00
      vertex 2.009256e+00 8.922560e-01 5.416884e+00
    endloop
  endfacet
  facet normal 9.254370e-01 -3.789016e-01 -1.275467e-16
    outer loop
      vertex 1.643940e+00 2.775558e-16 4.965477e+00
      vertex 2.009256e+00 8.922560e-01 5.416884e+00
      vertex 1.278624e+00 -8.922560e-01 5.416884e+00
    endloop
  endfacet
  facet normal -9.254370e-01 3.789016e-01 1.594334e-16
    outer loop
      vertex 1.643940e+00 2.220446e-16 4.514070e+00
      vertex 2.009256e+00 8.922560e-01 3.611256e+00
      vertex 1.278624e+00 -8.922560e-01 3.611256e+00
    endloop
  endfacet
  facet normal 3.578148e-01 -7.325005e-01 5.791474e-01
    outer loop
      vertex 1.643940e+00 2.220446e-16 4.514070e+00
      vertex 1.278624e+00 -8.922560e-01 3.611256e+00
      vertex 2.009256e+00 -8.922560e-01 3.159849e+00
    endloop
  endfacet
  facet normal -5.457821e-01 -7.597745e-01 3.533620e-01
    outer loop
      vertex 1.643940e+00 2.220446e-16 4.514070e+00
      vertex 2.009256e+00 -8.922560e-01 3.159849e+00
      vertex 2.922564e+00 -1.338384e+00 3.611256e+00
    endloop
  endfacet
  facet normal -7.643900e-01 -6.259284e-01 -1.546660e-01
    outer loop
      vertex 1.643940e+00 2.220446e-16 4.514070e+00
      vertex 2.922564e+00 -1.338384e+00 3.611256e+00
      vertex 3.105205e+00 -1.784512e+00 4.514070e+00
    endloop
  endfacet
  facet normal -7.643900e-01 -6.259284e-01 1.546660e-01
    outer loop
      vertex 1.643940e+00 2.220446e-16 4.514070e+00
      vertex 3.105205e+00 -1.784512e+00 4.514070e+00
      vertex 2.922564e+00 -1.338384e+00 5.416884e+00
    endloop
  endfacet
  facet normal -5.457821e-01 -7.597745e-01 -3.533620e-01
    outer loop
      vertex 1.643940e+00 2.220446e-16 4.514070e+00
      vertex 2.922564e+00 -1.338384e+00 5.416884e+00
      vertex 2.009256e+00 -8.922560e-01 5.868291e+00
    endloop
  endfacet
  facet normal 3.578148e-01 -7.325005e-01 -5.791474e-01
    outer loop
      vertex 1.643940e+00 2.220446e-16 4.514070e+00
      vertex 2.009256e+00 -8.922560e-01 5.868291e+00
      vertex 1.278624e+00 -8.922560e-01 5.416884e+00
    endloop
  endfacet
  facet normal -9.254370e-01 3.789016e-01 6.377336e-17
    outer loop
      vertex 1.643940e+00 2.220446e-16 4.514070e+00
      vertex 1.278624e+00 -8.922560e-01 5.416884e+00
      vertex 2.009256e+00 8.922560e-01 5.416884e+00
    endloop
  endfacet
  facet normal 3.578148e-01 -7.325005e-01 5.791474e-01
    outer loop
      vertex 1.643940e+00 2.220446e-16 4.514070e+00
      vertex 2.009256e+00 8.922560e-01 5.416884e+00
      vertex 1.278624e+00 8.922560e-01 5.868291e+00
    endloop
  endfacet
  facet normal -5.457821e-01 -7.597745e-01 3.533620e-01
    outer loop
      vertex 1.643940e+00 2.220446e-16 4.514070e+00
      vertex 1.278624e+00 8.922560e-01 5.868291e+00
      vertex 3.653163e-01 1.338384e+00 5.416884e+00
    endloop
  endfacet
  facet normal -7.643900e-01 -6.259284e-01 -1.546660e-01
    outer loop
      vertex 1.643940e+00 2.220446e-16 4.514070e+00
      vertex 3.653163e-01 1.338384e+00 5.416884e+00
      vertex 1.826746e-01 1.784512e+00 4.514070e+00
    endloop
  endfacet
  facet normal -7.643900e-01 -6.259284e-01 1.546660e-01
    outer loop
      vertex 1.643940e+00 2.220446e-16 4.514070e+00
      vertex 1.826746e-01 1.784512e+00 4.514070e+00
      vertex 3.653163e-01 1.338384e+00 3.611256e+00
    endloop
  endfacet
  facet normal -5.457821e-01 -7.597745e-01 -3.533620e-01
    outer loop
      vertex 1.643940e+00 2.220446e-16 4.514070e+00
      vertex 3.653163e-01 1.338384e+00 3.611256e+00
      vertex 1.278624e+00 8.922560e-01 3.159849e+00
    endloop
  endfacet
  facet normal 3.578148e-01 -7.325005e-01 -5.791474e-01
    outer loop
      vertex 1.643940e+00 2.220446e-16 4.514070e+00
      vertex 1.278624e+00 8.922560e-01 3.159849e+00
      vertex 2.009256e+00 8.922560e-01 3.611256e+00
    endloop
  endfacet
  facet normal -9.254330e-01 -3.789114e-01 2.246836e-05
    outer loop
      vertex 3.330669e-16 2.230640e+00 4.965477e+00
      vertex -3.653163e-01 3.122896e+00 5.416884e+00
      vertex -1.826746e-01 2.676768e+00 4.514070e+00
    endloop
  endfacet
  facet normal -9.254250e-01 -3.789308e-01 -3.826352e-16
    outer loop
      vertex 3.330669e-16 2.230640e+00 4.965477e+00
      vertex -1.826746e-01 2.676768e+00 4.514070e+00
      vertex 1.826746e-01 1.784512e+00 4.514070e+00
    endloop
  endfacet
  facet normal -9.254330e-01 -3.789114e-01 -2.246836e-05
    outer loop
      vertex 3.330669e-16 2.230640e+00 4.965477e+00
      vertex 1.826746e-01 1.784512e+00 4.514070e+00
      vertex 3.653163e-01 1.338384e+00 5.416884e+00
    endloop
  endfacet
  facet normal -9.254370e-01 -3.789016e-01 0.000000e+00
    outer loop
      vertex 3.330669e-16 2.230640e+00 4.965477e+00
      vertex 3.653163e-01 1.338384e+00 5.416884e+00
      vertex -3.653163e-01 3.122896e+00 5.416884e+00
    endloop
  endfacet
  facet normal -9.254330e-01 -3.789114e-01 2.246836e-05
    outer loop
      vertex 1.942890e-16 2.230640e+00 4.062663e+00
      vertex 3.653163e-01 1.338384e+00 3.611256e+00
      vertex 1.826746e-01 1.784512e+00 4.514070e+00
    endloop
  endfacet
  facet normal -9.254250e-01 -3.789308e-01 6.377254e-16
    outer loop
      vertex 1.942890e-16 2.230640e+00 4.062663e+00
      vertex 1.826746e-01 1.784512e+00 4.514070e+00
      vertex -1.826746e-01 2.676768e+00 4.514070e+00
    endloop
  endfacet
  facet normal -9.254330e-01 -3.789114e-01 -2.246836e-05
    outer loop
      vertex 1.942890e-16 2.230640e+00 4.062663e+00
      vertex -1.826746e-01 2.676768e+00 4.514070e+00
      vertex -3.653163e-01 3.122896e+00 3.611256e+00
    endloop
  endfacet
  facet normal -9.254370e-01 -3.789016e-01 5.101869e-16
    outer loop
      vertex 1.942890e-16 2.230640e+00 4.062663e+00
      vertex -3.653163e-01 3.122896e+00 3.611256e+00
      vertex 3.653163e-01 1.338384e+00 3.611256e+00
    endloop
  endfacet
  facet normal 9.254370e-01 3.789016e-01 9.566004e-17
    outer loop
      vertex 2.220446e-16 2.230640e+00 4.514070e+00
      vertex -3.653163e-01 3.122896e+00 5.416884e+00
      vertex 3.653163e-01 1.338384e+00 5.416884e+00
    endloop
  endfacet
  facet normal -3.578148e-01 -7.325005e-01 -5.791474e-01
    outer loop
      vertex 2.220446e-16 2.230640e+00 4.514070e+00
      vertex 3.653163e-01 1.338384e+00 5.416884e+00
      vertex -3.653163e-01 1.338384e+00 5.868291e+00
    endloop
  endfacet
  facet normal 5.457821e-01 -7.597745e-01 -3.533620e-01
    outer loop
      vertex 2.220446e-16 2.230640e+00 4.514070e+00
      vertex -3.653163e-01 1.338384e+00 5.868291e+00
      vertex -1.278624e+00 8.922560e-01 5.416884e+00
    endloop
  endfacet
  facet normal 7.643900e-01 -6.259284e-01 1.546660e-01
    outer loop
      vertex 2.220446e-16 2.230640e+00 4.514070e+00
      vertex -1.278624e+00 8.922560e-01 5.416884e+00
      vertex -1.461265e+00 4.461280e-01 4.514070e+00
    endloop
  endfacet
  facet normal 7.643900e-01 -6.259284e-01 -1.546660e-01
    outer loop
      vertex 2.220446e-16 2.230640e+00 4.514070e+00
      vertex -1.461265e+00 4.461280e-01 4.514070e+00
      vertex -1.278624e+00 8.922560e-01 3.611256e+00
    endloop
  endfacet
  facet normal 5.457821e-01 -7.597745e-01 3.533620e-01
    outer loop
      vertex 2.220446e-16 2.230640e+00 4.514070e+00
      vertex -1.278624e+00 8.922560e-01 3.611256e+00
      vertex -3.653163e-01 1.338384e+00 3.159849e+00
    endloop
  endfacet
  facet normal -3.578148e-01 -7.325005e-01 5.791474e-01
    outer loop
      vertex 2.220446e-16 2.230640e+00 4.514070e+00
      vertex -3.653163e-01 1.338384e+00 3.159849e+00
      vertex 3.653163e-01 1.338384e+00 3.611256e+00
    endloop
  endfacet
  facet normal 9.254370e-01 3.789016e-01 -4.464135e-16
    outer loop
      vertex 2.220446e-16 2.230640e+00 4.514070e+00
      vertex 3.653163e-01 1.338384e+00 3.611256e+00
      vertex -3.653163e-01 3.122896e+00 3.611256e+00
    endloop
  endfacet
  facet normal -3.578148e-01 -7.325005e-01 -5.791474e-01
    outer loop
      vertex 2.220446e-16 2.230640e+00 4.514070e+00
      vertex -3.653163e-01 3.122896e+00 3.611256e+00
      vertex 3.653163e-01 3.122896e+00 3.159849e+00
    endloop
  endfacet
  facet normal 5.457821e-01 -7.597745e-01 -3.533620e-01
    outer loop
      vertex 2.220446e-16 2.230640e+00 4.514070e+00
      vertex 3.653163e-01 3.122896e+00 3.159849e+00
      vertex 1.278624e+00 3.569024e+00 3.611256e+00
    endloop
  endfacet
  facet normal 7.643900e-01 -6.259284e-01 1.546660e-01
    outer loop
      vertex 2.220446e-16 2.230640e+00 4.514070e+00
      vertex 1.278624e+00 3.569024e+00 3.611256e+00
      vertex 1.461265e+00 4.015152e+00 4.514070e+00
    endloop
  endfacet
  facet normal 7.643900e-01 -6.259284e-01 -1.546660e-01
    outer loop
      vertex 2.220446e-16 2.230640e+00 4.514070e+00
      vertex 1.461265e+00 4.015152e+00 4.514070e+00
      vertex 1.278624e+00 3.569024e+00 5.416884e+00
    endloop
  endfacet
  facet normal 5.457821e-01 -7.597745e-01 3.533620e-01
    outer loop
      vertex 2.220446e-16 2.230640e+00 4.514070e+00
      vertex 1.278624e+00 3.569024e+00 5.416884e+00
      vertex 3.653163e-01 3.122896e+00 5.868291e+00
    endloop
  endfacet
  facet normal -3.578148e-01 -7.325005e-01 5.791474e-01
    outer loop
      vertex 2.220446e-16 2.230640e+00 4.514070e+00
      vertex 3.653163e-01 3.122896e+00 5.868291e+00
      vertex -3.653163e-01 3.122896e+00 5.416884e+00
    endloop
  endfacet
  facet normal -9.254330e-01 -3.789114e-01 2.246836e-05
    outer loop
      vertex 3.287880e+00 2.230640e+00 4.062663e+00
      vertex 3.653196e+00 1.338384e+00 3.611256e+00
      vertex 3.470555e+00 1.784512e+00 4.514070e+00
    endloop
  endfacet
  facet normal -9.254250e-01 -3.789308e-01 1.211678e-15
    outer loop
      vertex 3.287880e+00 2.230640e+00 4.062663e+00
      vertex 3.470555e+00 1.784512e+00 4.514070e+00
      vertex 3.105205e+00 2.676768e+00 4.514070e+00
    endloop
  endfacet
  facet normal -9.254330e-01 -3.789114e-01 -2.246836e-05
    outer loop
      vertex 3.287880e+00 2.230640e+00 4.062663e+00
      vertex 3.105205e+00 2.676768e+00 4.514070e+00
      vertex 2.922564e+00 3.122896e+00 3.611256e+00
    endloop
  endfacet
  facet normal -9.254370e-01 -3.789016e-01 1.275467e-16
    outer loop
      vertex 3.287880e+00 2.230640e+00 4.062663e+00
      vertex 2.922564e+00 3.122896e+00 3.611256e+00
      vertex 3.653196e+00 1.338384e+00 3.611256e+00
    endloop
  endfacet
  facet normal -9.254330e-01 -3.789114e-01 2.246836e-05
    outer loop
      vertex 3.287880e+00 2.230640e+00 4.965477e+00
      vertex 2.922564e+00 3.122896e+00 5.416884e+00
      vertex 3.105205e+00 2.676768e+00 4.514070e+00
    endloop
  endfacet
  facet normal -9.254250e-01 -3.789308e-01 -2.550902e-16
    outer loop
      vertex 3.287880e+00 2.230640e+00 4.965477e+00
      vertex 3.105205e+00 2.676768e+00 4.514070e+00
      vertex 3.470555e+00 1.784512e+00 4.514070e+00
    endloop
  endfacet
  facet normal -9.254330e-01 -3.789114e-01 -2.246836e-05
    outer loop
      vertex 3.287880e+00 2.230640e+00 4.965477e+00
      vertex 3.470555e+00 1.784512e+00 4.514070e+00
      vertex 3.653196e+00 1.338384e+00 5.416884e+00
    endloop
  endfacet
  facet normal -9.254370e-01 -3.789016e-01 6.377336e-17
    outer loop
      vertex 3.287880e+00 2.230640e+00 4.965477e+00
      vertex 3.653196e+00 1.338384e+00 5.416884e+00
      vertex 2.922564e+00 3.122896e+00 5.416884e+00
    endloop
  endfacet
  facet normal 9.254370e-01 3.789016e-01 -1.147921e-15
    outer loop
      vertex 3.287880e+00 2.230640e+00 4.514070e+00
      vertex 3.653196e+00 1.338384e+00 3.611256e+00
      vertex 2.922564e+00 3.122896e+00 3.611256e+00
    endloop
  endfacet
  facet normal -3.578148e-01 -7.325005e-01 -5.791474e-01
    outer loop
      vertex 3.287880e+00 2.230640e+00 4.514070e+00
      vertex 2.922564e+00 3.122896e+00 3.611256e+00
      vertex 3.653196e+00 3.122896e+00 3.159849e+00
    endloop
  endfacet
  facet normal 5.457821e-01 -7.597745e-01 -3.533620e-01
    outer loop
      vertex 3.287880e+00 2.230640e+00 4.514070e+00
      vertex 3.653196e+00 3.122896e+00 3.159849e+00
      vertex 4.566504e+00 3.569024e+00 3.611256e+00
    endloop
  endfacet
  facet normal 7.643900e-01 -6.259284e-01 1.546660e-01
    outer loop
      vertex 3.287880e+00 2.230640e+00 4.514070e+00
      vertex 4.566504e+00 3.569024e+00 3.611256e+00
      vertex 4.749145e+00 4.015152e+00 4.514070e+00
    endloop
  endfacet
  facet normal 7.643900e-01 -6.259284e-01 -1.546660e-01
    outer loop
      vertex 3.287880e+00 2.230640e+00 4.514070e+00
      vertex 4.749145e+00 4.015152e+00 4.514070e+00
      vertex 4.566504e+00 3.569024e+00 5.416884e+00
    endloop
  endfacet
  facet normal 5.457821e-01 -7.597745e-01 3.533620e-01
    outer loop
      vertex 3.287880e+00 2.230640e+00 4.514070e+00
      vertex 4.566504e+00 3.569024e+00 5.416884e+00
      vertex 3.653196e+00 3.122896e+00 5.868291e+00
    endloop
  endfacet
  facet normal -3.578148e-01 -7.325005e-01 5.791474e-01
    outer loop
      vertex 3.287880e+00 2.230640e+00 4.514070e+00
      vertex 3.653196e+00 3.122896e+00 5.868291e+00
      vertex 2.922564e+00 3.122896e+00 5.416884e+00
    endloop
  endfacet
  facet normal 9.254370e-01 3.789016e-01 6.058469e-16
    outer loop
      vertex 3.287880e+00 2.230640e+00 4.514070e+00
      vertex 2.922564e+00 3.122896e+00 5.416884e+00
      vertex 3.653196e+00 1.338384e+00 5.416884e+00
    endloop
  endfacet
  facet normal -3.578148e-01 -7.325005e-01 -5.791474e-01
    outer loop
      vertex 3.287880e+00 2.230640e+00 4.514070e+00
      vertex 3.653196e+00 1.338384e+00 5.416884e+00
      vertex 2.922564e+00 1.338384e+00 5.868291e+00
    endloop
  endfacet
  facet normal 5.457821e-01 -7.597745e-01 -3.533620e-01
    outer loop
      vertex 3.287880e+00 2.230640e+00 4.514070e+00
      vertex 2.922564e+00 1.338384e+00 5.868291e+00
      vertex 2.009256e+00 8.922560e-01 5.416884e+00
    endloop
  endfacet
  facet normal 7.643900e-01 -6.259284e-01 1.546660e-01
    outer loop
      vertex 3.287880e+00 2.230640e+00 4.514070e+00
      vertex 2.009256e+00 8.922560e-01 5.416884e+00
      vertex 1.826615e+00 4.461280e-01 4.514070e+00
    endloop
  endfacet
  facet normal 7.643900e-01 -6.259284e-01 -1.546660e-01
    outer loop
      vertex 3.287880e+00 2.230640e+00 4.514070e+00
      vertex 1.826615e+00 4.461280e-01 4.514070e+00
      vertex 2.009256e+00 8.922560e-01 3.611256e+00
    endloop
  endfacet
  facet normal 5.457821e-01 -7.597745e-01 3.533620e-01
    outer loop
      vertex 3.287880e+00 2.230640e+00 4.514070e+00
      vertex 2.009256e+00 8.922560e-01 3.611256e+00
      vertex 2.922564e+00 1.338384e+00 3.159849e+00
    endloop
  endfacet
  facet normal -3.578148e-01 -7.325005e-01 5.791474e-01
    outer loop
      vertex 3.287880e+00 2.230640e+00 4.514070e+00
      vertex 2.922564e+00 1.338384e+00 3.159849e+00
      vertex 3.653196e+00 1.338384e+00 3.611256e+00
    endloop
  endfacet
  facet normal 9.254330e-01 -3.789114e-01 -2.246836e-05
    outer loop
      vertex 1.643940e+00 4.461280e+00 4.965477e+00
      vertex 1.278624e+00 3.569024e+00 5.416884e+00
      vertex 1.461265e+00 4.015152e+00 4.514070e+00
    endloop
  endfacet
  facet normal 9.254250e-01 -3.789308e-01 4.782940e-16
    outer loop
      vertex 1.643940e+00 4.461280e+00 4.965477e+00
      vertex 1.461265e+00 4.015152e+00 4.514070e+00
      vertex 1.826615e+00 4.907408e+00 4.514070e+00
    endloop
  endfacet
  facet normal 9.254330e-01 -3.789114e-01 2.246836e-05
    outer loop
      vertex 1.643940e+00 4.461280e+00 4.965477e+00
      vertex 1.826615e+00 4.907408e+00 4.514070e+00
      vertex 2.009256e+00 5.353536e+00 5.416884e+00
    endloop
  endfacet
  facet normal 9.254370e-01 -3.789016e-01 -2.550934e-16
    outer loop
      vertex 1.643940e+00 4.461280e+00 4.965477e+00
      vertex 2.009256e+00 5.353536e+00 5.416884e+00
      vertex 1.278624e+00 3.569024e+00 5.416884e+00
    endloop
  endfacet
  facet normal 9.254330e-01 -3.789114e-01 -2.246836e-05
    outer loop
      vertex 1.643940e+00 4.461280e+00 4.062663e+00
      vertex 2.009256e+00 5.353536e+00 3.611256e+00
      vertex 1.826615e+00 4.907408e+00 4.514070e+00
    endloop
  endfacet
  facet normal 9.254250e-01 -3.789308e-01 0.000000e+00
    outer loop
      vertex 1.643940e+00 4.461280e+00 4.062663e+00
      vertex 1.826615e+00 4.907408e+00 4.514070e+00
      vertex 1.461265e+00 4.015152e+00 4.514070e+00
    endloop
  endfacet
  facet normal 9.254330e-01 -3.789114e-01 2.246836e-05
    outer loop
      vertex 1.643940e+00 4.461280e+00 4.062663e+00
      vertex 1.461265e+00 4.015152e+00 4.514070e+00
      vertex 1.278624e+00 3.569024e+00 3.611256e+00
    endloop
  endfacet
  facet normal 9.254370e-01 -3.789016e-01 -3.826402e-16
    outer loop
      vertex 1.643940e+00 4.461280e+00 4.062663e+00
      vertex 1.278624e+00 3.569024e+00 3.611256e+00
      vertex 2.009256e+00 5.353536e+00 3.611256e+00
    endloop
  endfacet
  facet normal -9.254370e-01 3.789016e-01 -4.783002e-16
    outer loop
      vertex 1.643940e+00 4.461280e+00 4.514070e+00
      vertex 1.278624e+00 3.569024e+00 5.416884e+00
      vertex 2.009256e+00 5.353536e+00 5.416884e+00
    endloop
  endfacet
  facet normal 3.578148e-01 -7.325005e-01 5.791474e-01
    outer loop
      vertex 1.643940e+00 4.461280e+00 4.514070e+00
      vertex 2.009256e+00 5.353536e+00 5.416884e+00
      vertex 1.278624e+00 5.353536e+00 5.868291e+00
    endloop
  endfacet
  facet normal -5.457821e-01 -7.597745e-01 3.533620e-01
    outer loop
      vertex 1.643940e+00 4.461280e+00 4.514070e+00
      vertex 1.278624e+00 5.353536e+00 5.868291e+00
      vertex 3.653163e-01 5.799664e+00 5.416884e+00
    endloop
  endfacet
  facet normal -7.643900e-01 -6.259284e-01 -1.546660e-01
    outer loop
      vertex 1.643940e+00 4.461280e+00 4.514070e+00
      vertex 3.653163e-01 5.799664e+00 5.416884e+00
      vertex 1.826746e-01 6.245792e+00 4.514070e+00
    endloop
  endfacet
  facet normal -7.643900e-01 -6.259284e-01 1.546660e-01
    outer loop
      vertex 1.643940e+00 4.461280e+00 4.514070e+00
      vertex 1.826746e-01 6.245792e+00 4.514070e+00
      vertex 3.653163e-01 5.799664e+00 3.611256e+00
    endloop
  endfacet
  facet normal -5.457821e-01 -7.597745e-01 -3.533620e-01
    outer loop
      vertex 1.643940e+00 4.461280e+00 4.514070e+00
      vertex 3.653163e-01 5.799664e+00 3.611256e+00
      vertex 1.278624e+00 5.353536e+00 3.159849e+00
    endloop
  endfacet
  facet normal 3.578148e-01 -7.325005e-01 -5.791474e-01
    outer loop
      vertex 1.643940e+00 4.461280e+00 4.514070e+00
      vertex 1.278624e+00 5.353536e+00 3.159849e+00
      vertex 2.009256e+00 5.353536e+00 3.611256e+00
    endloop
  endfacet
  facet normal -9.254370e-01 3.789016e-01 5.420736e-16
    outer loop
      vertex 1.643940e+00 4.461280e+00 4.514070e+00
      vertex 2.009256e+00 5.353536e+00 3.611256e+00
      vertex 1.278624e+00 3.569024e+00 3.611256e+00
    endloop
  endfacet
  facet normal 3.578148e-01 -7.325005e-01 5.791474e-01
    outer loop
      vertex 1.643940e+00 4.461280e+00 4.514070e+00
      vertex 1.278624e+00 3.569024e+00 3.611256e+00
      vertex 2.009256e+00 3.569024e+00 3.159849e+00
    endloop
  endfacet
  facet normal -5.457821e-01 -7.597745e-01 3.533620e-01
    outer loop
      vertex 1.643940e+00 4.461280e+00 4.514070e+00
      vertex 2.009256e+00 3.569024e+00 3.159849e+00
      vertex 2.922564e+00 3.122896e+00 3.611256e+00
    endloop
  endfacet
  facet normal -7.643900e-01 -6.259284e-01 -1.546660e-01
    outer loop
      vertex 1.643940e+00 4.461280e+00 4.514070e+00
      vertex 2.922564e+00 3.122896e+00 3.611256e+00
      vertex 3.105205e+00 2.676768e+00 4.514070e+00
    endloop
  endfacet
  facet normal -7.643900e-01 -6.259284e-01 1.546660e-01
    outer loop
      vertex 1.643940e+00 4.461280e+00 4.514070e+00
      vertex 3.105205e+00 2.676768e+00 4.514070e+00
      vertex 2.922564e+00 3.122896e+00 5.416884e+00
    endloop
  endfacet
  facet normal -5.457821e-01 -7.597745e-01 -3.533620e-01
    outer loop
      vertex 1.643940e+00 4.461280e+00 4.514070e+00
      vertex 2.922564e+00 3.122896e+00 5.416884e+00
      vertex 2.009256e+00 3.569024e+00 5.868291e+00
    endloop
  endfacet
  facet normal 3.578148e-01 -7.325005e-01 -5.791474e-01
    outer loop
      vertex 1.643940e+00 4.461280e+00 4.514070e+00
      vertex 2.009256e+00 3.569024e+00 5.868291e+00
      vertex 1.278624e+00 3.569024e+00 5.416884e+00
    endloop
  endfacet
endsolid surface_model
