solid surface_model
  facet normal -9.045340e-01 3.015113e-01 -3.015113e-01
    outer loop
      vertex 1.035275e+00 2.070550e+00 -5.551115e-17
      vertex 5.176375e-01 1.552912e+00 1.035275e+00
      vertex 1.035275e+00 2.588188e+00 5.176375e-01
    endloop
  endfacet
  facet normal -9.045340e-01 3.015113e-01 -3.015113e-01
    outer loop
      vertex 1.035275e+00 2.070550e+00 -5.551115e-17
      vertex 1.035275e+00 2.588188e+00 5.176375e-01
      vertex 1.552913e+00 3.105825e+00 -5.176375e-01
    endloop
  endfacet
  facet normal -5.773503e-01 5.773503e-01 5.773503e-01
    outer loop
      vertex 1.035275e+00 2.070550e+00 -5.551115e-17
      vertex 1.552913e+00 3.105825e+00 -5.176375e-01
      vertex 1.035275e+00 3.105825e+00 -1.035275e+00
    endloop
  endfacet
  facet normal -5.773503e-01 5.773503e-01 5.773503e-01
    outer loop
      vertex 1.035275e+00 2.070550e+00 -5.551115e-17
      vertex 1.035275e+00 3.105825e+00 -1.035275e+00
      vertex 5.176375e-01 2.588187e+00 -1.035275e+00
    endloop
  endfacet
  facet normal -9.045340e-01 -3.015113e-01 3.015113e-01
    outer loop
      vertex 1.035275e+00 2.070550e+00 -5.551115e-17
      vertex 5.176375e-01 2.588187e+00 -1.035275e+00
      vertex 1.035275e+00 1.552912e+00 -5.176375e-01
    endloop
  endfacet
  facet normal -9.045340e-01 -3.015113e-01 3.015113e-01
    outer loop
      vertex 1.035275e+00 2.070550e+00 -5.551115e-17
      vertex 1.035275e+00 1.552912e+00 -5.176375e-01
      vertex 1.552912e+00 1.035275e+00 5.176375e-01
    endloop
  endfacet
  facet normal -5.773503e-01 -5.773503e-01 -5.773503e-01
    outer loop
      vertex 1.035275e+00 2.070550e+00 -5.551115e-17
      vertex 1.552912e+00 1.035275e+00 5.176375e-01
      vertex 1.035275e+00 1.035275e+00 1.035275e+00
    endloop
  endfacet
  facet normal -5.773503e-01 -5.773503e-01 -5.773503e-01
    outer loop
      vertex 1.035275e+00 2.070550e+00 -5.551115e-17
      vertex 1.035275e+00 1.035275e+00 1.035275e+00
      vertex 5.176375e-01 1.552912e+00 1.035275e+00
    endloop
  endfacet
  facet normal -3.015113e-01 -3.015113e-01 -9.045340e-01
    outer loop
      vertex 8.326673e-17 2.070550e+00 1.035275e+00
      vertex 1.035275e+00 2.588188e+00 5.176375e-01
      vertex 5.176375e-01 1.552912e+00 1.035275e+00
    endloop
  endfacet
  facet normal -3.015113e-01 -3.015113e-01 -9.045340e-01
    outer loop
      vertex 8.326673e-17 2.070550e+00 1.035275e+00
      vertex 5.176375e-01 1.552912e+00 1.035275e+00
      vertex -5.176375e-01 1.035275e+00 1.552912e+00
    endloop
  endfacet
  facet normal 5.773503e-01 -5.773503e-01 -5.773503e-01
    outer loop
      vertex 8.326673e-17 2.070550e+00 1.035275e+00
      vertex -5.176375e-01 1.035275e+00 1.552912e+00
      vertex -1.035275e+00 1.035275e+00 1.035275e+00
    endloop
  endfacet
  facet normal 5.773503e-01 -5.773503e-01 -5.773503e-01
    outer loop
      vertex 8.326673e-17 2.070550e+00 1.035275e+00
      vertex -1.035275e+00 1.035275e+00 1.035275e+00
      vertex -1.035275e+00 1.552912e+00 5.176375e-01
    endloop
  endfacet
  facet normal 3.015113e-01 3.015113e-01 -9.045340e-01
    outer loop
      vertex 8.326673e-17 2.070550e+00 1.035275e+00
      vertex -1.035275e+00 1.552912e+00 5.176375e-01
      vertex -5.176375e-01 2.588188e+00 1.035275e+00
    endloop
  endfacet
  facet normal 3.015113e-01 3.015113e-01 -9.045340e-01
    outer loop
      vertex 8.326673e-17 2.070550e+00 1.035275e+00
      vertex -5.176375e-01 2.588188e+00 1.035275e+00
      vertex 5.176375e-01 3.105825e+00 1.552912e+00
    endloop
  endfacet
  facet normal -5.773503e-01 5.773503e-01 -5.773503e-01
    outer loop
      vertex 8.326673e-17 2.070550e+00 1.035275e+00
      vertex 5.176375e-01 3.105825e+00 1.552912e+00
      vertex 1.035275e+00 3.105825e+00 1.035275e+00
    endloop
  endfacet
  facet normal -5.773503e-01 5.773503e-01 -5.773503e-01
    outer loop
      vertex 8.326673e-17 2.070550e+00 1.035275e+00
      vertex 1.035275e+00 3.105825e+00 1.035275e+00
      vertex 1.035275e+00 2.588188e+00 5.176375e-01
    endloop
  endfacet
  facet normal 3.015113e-01 -9.045340e-01 -3.015113e-01
    outer loop
      vertex 4.141100e+00 1.035275e+00 2.070550e+00
      vertex 3.623462e+00 1.035275e+00 1.552912e+00
      vertex 4.658737e+00 1.552912e+00 1.035275e+00
    endloop
  endfacet
  facet normal -5.773503e-01 -5.773503e-01 -5.773503e-01
    outer loop
      vertex 4.141100e+00 1.035275e+00 2.070550e+00
      vertex 4.658737e+00 1.552912e+00 1.035275e+00
      vertex 5.176375e+00 1.035275e+00 1.035275e+00
    endloop
  endfacet
  facet normal -5.773503e-01 -5.773503e-01 -5.773503e-01
    outer loop
      vertex 4.141100e+00 1.035275e+00 2.070550e+00
      vertex 5.176375e+00 1.035275e+00 1.035275e+00
      vertex 5.176375e+00 5.176375e-01 1.552912e+00
    endloop
  endfacet
  facet normal -3.015113e-01 -9.045340e-01 3.015113e-01
    outer loop
      vertex 4.141100e+00 1.035275e+00 2.070550e+00
      vertex 5.176375e+00 5.176375e-01 1.552912e+00
      vertex 4.658737e+00 1.035275e+00 2.588188e+00
    endloop
  endfacet
  facet normal -3.015113e-01 -9.045340e-01 3.015113e-01
    outer loop
      vertex 4.141100e+00 1.035275e+00 2.070550e+00
      vertex 4.658737e+00 1.035275e+00 2.588188e+00
      vertex 3.623462e+00 1.552913e+00 3.105825e+00
    endloop
  endfacet
  facet normal 5.773503e-01 -5.773503e-01 5.773503e-01
    outer loop
      vertex 4.141100e+00 1.035275e+00 2.070550e+00
      vertex 3.623462e+00 1.552913e+00 3.105825e+00
      vertex 3.105825e+00 1.035275e+00 3.105825e+00
    endloop
  endfacet
  facet normal 5.773503e-01 -5.773503e-01 5.773503e-01
    outer loop
      vertex 4.141100e+00 1.035275e+00 2.070550e+00
      vertex 3.105825e+00 1.035275e+00 3.105825e+00
      vertex 3.105825e+00 5.176375e-01 2.588188e+00
    endloop
  endfacet
  facet normal 3.015113e-01 -9.045340e-01 -3.015113e-01
    outer loop
      vertex 4.141100e+00 1.035275e+00 2.070550e+00
      vertex 3.105825e+00 5.176375e-01 2.588188e+00
      vertex 3.623462e+00 1.035275e+00 1.552912e+00
    endloop
  endfacet
  facet normal -9.045340e-01 -3.015113e-01 -3.015113e-01
    outer loop
      vertex 1.035275e+00 5.551115e-17 2.070550e+00
      vertex 1.035275e+00 5.176375e-01 1.552912e+00
      vertex 1.552912e+00 -5.176375e-01 1.035275e+00
    endloop
  endfacet
  facet normal -5.773503e-01 5.773503e-01 -5.773503e-01
    outer loop
      vertex 1.035275e+00 5.551115e-17 2.070550e+00
      vertex 1.552912e+00 -5.176375e-01 1.035275e+00
      vertex 1.035275e+00 -1.035275e+00 1.035275e+00
    endloop
  endfacet
  facet normal -5.773503e-01 5.773503e-01 -5.773503e-01
    outer loop
      vertex 1.035275e+00 5.551115e-17 2.070550e+00
      vertex 1.035275e+00 -1.035275e+00 1.035275e+00
      vertex 5.176375e-01 -1.035275e+00 1.552912e+00
    endloop
  endfacet
  facet normal -9.045340e-01 3.015113e-01 3.015113e-01
    outer loop
      vertex 1.035275e+00 5.551115e-17 2.070550e+00
      vertex 5.176375e-01 -1.035275e+00 1.552912e+00
      vertex 1.035275e+00 -5.176375e-01 2.588188e+00
    endloop
  endfacet
  facet normal -9.045340e-01 3.015113e-01 3.015113e-01
    outer loop
      vertex 1.035275e+00 5.551115e-17 2.070550e+00
      vertex 1.035275e+00 -5.176375e-01 2.588188e+00
      vertex 1.552913e+00 5.176375e-01 3.105825e+00
    endloop
  endfacet
  facet normal -5.773503e-01 -5.773503e-01 5.773503e-01
    outer loop
      vertex 1.035275e+00 5.551115e-17 2.070550e+00
      vertex 1.552913e+00 5.176375e-01 3.105825e+00
      vertex 1.035275e+00 1.035275e+00 3.105825e+00
    endloop
  endfacet
  facet normal -5.773503e-01 -5.773503e-01 5.773503e-01
    outer loop
      vertex 1.035275e+00 5.551115e-17 2.070550e+00
      vertex 1.035275e+00 1.035275e+00 3.105825e+00
      vertex 5.176375e-01 1.035275e+00 2.588188e+00
    endloop
  endfacet
  facet normal -9.045340e-01 -3.015113e-01 -3.015113e-01
    outer loop
      vertex 1.035275e+00 5.551115e-17 2.070550e+00
      vertex 5.176375e-01 1.035275e+00 2.588188e+00
      vertex 1.035275e+00 5.176375e-01 1.552912e+00
    endloop
  endfacet
  facet normal -3.015113e-01 3.015113e-01 -9.045340e-01
    outer loop
      vertex 2.070550e+00 4.141100e+00 1.035275e+00
      vertex 1.552913e+00 3.623462e+00 1.035275e+00
      vertex 1.035275e+00 4.658737e+00 1.552912e+00
    endloop
  endfacet
  facet normal -5.773503e-01 -5.773503e-01 -5.773503e-01
    outer loop
      vertex 2.070550e+00 4.141100e+00 1.035275e+00
      vertex 1.035275e+00 4.658737e+00 1.552912e+00
      vertex 1.035275e+00 5.176375e+00 1.035275e+00
    endloop
  endfacet
  facet normal -5.773503e-01 -5.773503e-01 -5.773503e-01
    outer loop
      vertex 2.070550e+00 4.141100e+00 1.035275e+00
      vertex 1.035275e+00 5.176375e+00 1.035275e+00
      vertex 1.552913e+00 5.176375e+00 5.176375e-01
    endloop
  endfacet
  facet normal 3.015113e-01 -3.015113e-01 -9.045340e-01
    outer loop
      vertex 2.070550e+00 4.141100e+00 1.035275e+00
      vertex 1.552913e+00 5.176375e+00 5.176375e-01
      vertex 2.588188e+00 4.658737e+00 1.035275e+00
    endloop
  endfacet
  facet normal 3.015113e-01 -3.015113e-01 -9.045340e-01
    outer loop
      vertex 2.070550e+00 4.141100e+00 1.035275e+00
      vertex 2.588188e+00 4.658737e+00 1.035275e+00
      vertex 3.105825e+00 3.623462e+00 1.552912e+00
    endloop
  endfacet
  facet normal 5.773503e-01 5.773503e-01 -5.773503e-01
    outer loop
      vertex 2.070550e+00 4.141100e+00 1.035275e+00
      vertex 3.105825e+00 3.623462e+00 1.552912e+00
      vertex 3.105825e+00 3.105825e+00 1.035275e+00
    endloop
  endfacet
  facet normal 5.773503e-01 5.773503e-01 -5.773503e-01
    outer loop
      vertex 2.070550e+00 4.141100e+00 1.035275e+00
      vertex 3.105825e+00 3.105825e+00 1.035275e+00
      vertex 2.588188e+00 3.105825e+00 5.176375e-01
    endloop
  endfacet
  facet normal -3.015113e-01 3.015113e-01 -9.045340e-01
    outer loop
      vertex 2.070550e+00 4.141100e+00 1.035275e+00
      vertex 2.588188e+00 3.105825e+00 5.176375e-01
      vertex 1.552913e+00 3.623462e+00 1.035275e+00
    endloop
  endfacet
  facet normal -3.015113e-01 -9.045340e-01 3.015113e-01
    outer loop
      vertex 0.000000e+00 1.035275e+00 2.070550e+00
      vertex 1.035275e+00 5.176375e-01 1.552912e+00
      vertex 5.176375e-01 1.035275e+00 2.588188e+00
    endloop
  endfacet
  facet normal -3.015113e-01 -9.045340e-01 3.015113e-01
    outer loop
      vertex 0.000000e+00 1.035275e+00 2.070550e+00
      vertex 5.176375e-01 1.035275e+00 2.588188e+00
      vertex -5.176375e-01 1.552913e+00 3.105825e+00
    endloop
  endfacet
  facet normal 5.773503e-01 -5.773503e-01 5.773503e-01
    outer loop
      vertex 0.000000e+00 1.035275e+00 2.070550e+00
      vertex -5.176375e-01 1.552913e+00 3.105825e+00
      vertex -1.035275e+00 1.035275e+00 3.105825e+00
    endloop
  endfacet
  facet normal 5.773503e-01 -5.773503e-01 5.773503e-01
    outer loop
      vertex 0.000000e+00 1.035275e+00 2.070550e+00
      vertex -1.035275e+00 1.035275e+00 3.105825e+00
      vertex -1.035275e+00 5.176375e-01 2.588188e+00
    endloop
  endfacet
  facet normal 3.015113e-01 -9.045340e-01 -3.015113e-01
    outer loop
      vertex 0.000000e+00 1.035275e+00 2.070550e+00
      vertex -1.035275e+00 5.176375e-01 2.588188e+00
      vertex -5.176375e-01 1.035275e+00 1.552912e+00
    endloop
  endfacet
  facet normal 3.015113e-01 -9.045340e-01 -3.015113e-01
    outer loop
      vertex 0.000000e+00 1.035275e+00 2.070550e+00
      vertex -5.176375e-01 1.035275e+00 1.552912e+00
      vertex 5.176375e-01 1.552912e+00 1.035275e+00
    endloop
  endfacet
  facet normal -5.773503e-01 -5.773503e-01 -5.773503e-01
    outer loop
      vertex 0.000000e+00 1.035275e+00 2.070550e+00
      vertex 5.176375e-01 1.552912e+00 1.035275e+00
      vertex 1.035275e+00 1.035275e+00 1.035275e+00
    endloop
  endfacet
  facet normal -5.773503e-01 -5.773503e-01 -5.773503e-01
    outer loop
      vertex 0.000000e+00 1.035275e+00 2.070550e+00
      vertex 1.035275e+00 1.035275e+00 1.035275e+00
      vertex 1.035275e+00 5.176375e-01 1.552912e+00
    endloop
  endfacet
  facet normal -3.015113e-01 -9.045340e-01 -3.015113e-01
    outer loop
      vertex 2.070550e+00 1.035275e+00 0.000000e+00
      vertex 1.552912e+00 1.035275e+00 5.176375e-01
      vertex 1.035275e+00 1.552912e+00 -5.176375e-01
    endloop
  endfacet
  facet normal -5.773503e-01 -5.773503e-01 5.773503e-01
    outer loop
      vertex 2.070550e+00 1.035275e+00 0.000000e+00
      vertex 1.035275e+00 1.552912e+00 -5.176375e-01
      vertex 1.035275e+00 1.035275e+00 -1.035275e+00
    endloop
  endfacet
  facet normal -5.773503e-01 -5.773503e-01 5.773503e-01
    outer loop
      vertex 2.070550e+00 1.035275e+00 0.000000e+00
      vertex 1.035275e+00 1.035275e+00 -1.035275e+00
      vertex 1.552912e+00 5.176375e-01 -1.035275e+00
    endloop
  endfacet
  facet normal 3.015113e-01 -9.045340e-01 3.015113e-01
    outer loop
      vertex 2.070550e+00 1.035275e+00 0.000000e+00
      vertex 1.552912e+00 5.176375e-01 -1.035275e+00
      vertex 2.588187e+00 1.035275e+00 -5.176375e-01
    endloop
  endfacet
  facet normal 3.015113e-01 -9.045340e-01 3.015113e-01
    outer loop
      vertex 2.070550e+00 1.035275e+00 0.000000e+00
      vertex 2.588187e+00 1.035275e+00 -5.176375e-01
      vertex 3.105825e+00 1.552912e+00 5.176375e-01
    endloop
  endfacet
  facet normal 5.773503e-01 -5.773503e-01 -5.773503e-01
    outer loop
      vertex 2.070550e+00 1.035275e+00 0.000000e+00
      vertex 3.105825e+00 1.552912e+00 5.176375e-01
      vertex 3.105825e+00 1.035275e+00 1.035275e+00
    endloop
  endfacet
  facet normal 5.773503e-01 -5.773503e-01 -5.773503e-01
    outer loop
      vertex 2.070550e+00 1.035275e+00 0.000000e+00
      vertex 3.105825e+00 1.035275e+00 1.035275e+00
      vertex 2.588188e+00 5.176375e-01 1.035275e+00
    endloop
  endfacet
  facet normal -3.015113e-01 -9.045340e-01 -3.015113e-01
    outer loop
      vertex 2.070550e+00 1.035275e+00 0.000000e+00
      vertex 2.588188e+00 5.176375e-01 1.035275e+00
      vertex 1.552912e+00 1.035275e+00 5.176375e-01
    endloop
  endfacet
  facet normal -9.045340e-01 -3.015113e-01 3.015113e-01
    outer loop
      vertex 1.035275e+00 2.070550e+00 4.141100e+00
      vertex 1.035275e+00 1.552913e+00 3.623462e+00
      vertex 1.552913e+00 1.035275e+00 4.658737e+00
    endloop
  endfacet
  facet normal -5.773503e-01 -5.773503e-01 -5.773503e-01
    outer loop
      vertex 1.035275e+00 2.070550e+00 4.141100e+00
      vertex 1.552913e+00 1.035275e+00 4.658737e+00
      vertex 1.035275e+00 1.035275e+00 5.176375e+00
    endloop
  endfacet
  facet normal -5.773503e-01 -5.773503e-01 -5.773503e-01
    outer loop
      vertex 1.035275e+00 2.070550e+00 4.141100e+00
      vertex 1.035275e+00 1.035275e+00 5.176375e+00
      vertex 5.176375e-01 1.552913e+00 5.176375e+00
    endloop
  endfacet
  facet normal -9.045340e-01 3.015113e-01 -3.015113e-01
    outer loop
      vertex 1.035275e+00 2.070550e+00 4.141100e+00
      vertex 5.176375e-01 1.552913e+00 5.176375e+00
      vertex 1.035275e+00 2.588188e+00 4.658737e+00
    endloop
  endfacet
  facet normal -9.045340e-01 3.015113e-01 -3.015113e-01
    outer loop
      vertex 1.035275e+00 2.070550e+00 4.141100e+00
      vertex 1.035275e+00 2.588188e+00 4.658737e+00
      vertex 1.552913e+00 3.105825e+00 3.623462e+00
    endloop
  endfacet
  facet normal -5.773503e-01 5.773503e-01 5.773503e-01
    outer loop
      vertex 1.035275e+00 2.070550e+00 4.141100e+00
      vertex 1.552913e+00 3.105825e+00 3.623462e+00
      vertex 1.035275e+00 3.105825e+00 3.105825e+00
    endloop
  endfacet
  facet normal -5.773503e-01 5.773503e-01 5.773503e-01
    outer loop
      vertex 1.035275e+00 2.070550e+00 4.141100e+00
      vertex 1.035275e+00 3.105825e+00 3.105825e+00
      vertex 5.176375e-01 2.588188e+00 3.105825e+00
    endloop
  endfacet
  facet normal -9.045340e-01 -3.015113e-01 3.015113e-01
    outer loop
      vertex 1.035275e+00 2.070550e+00 4.141100e+00
      vertex 5.176375e-01 2.588188e+00 3.105825e+00
      vertex 1.035275e+00 1.552913e+00 3.623462e+00
    endloop
  endfacet
  facet normal 3.015113e-01 -3.015113e-01 -9.045340e-01
    outer loop
      vertex 2.070550e+00 0.000000e+00 1.035275e+00
      vertex 1.552912e+00 1.035275e+00 5.176375e-01
      vertex 2.588188e+00 5.176375e-01 1.035275e+00
    endloop
  endfacet
  facet normal 3.015113e-01 -3.015113e-01 -9.045340e-01
    outer loop
      vertex 2.070550e+00 0.000000e+00 1.035275e+00
      vertex 2.588188e+00 5.176375e-01 1.035275e+00
      vertex 3.105825e+00 -5.176375e-01 1.552912e+00
    endloop
  endfacet
  facet normal 5.773503e-01 5.773503e-01 -5.773503e-01
    outer loop
      vertex 2.070550e+00 0.000000e+00 1.035275e+00
      vertex 3.105825e+00 -5.176375e-01 1.552912e+00
      vertex 3.105825e+00 -1.035275e+00 1.035275e+00
    endloop
  endfacet
  facet normal 5.773503e-01 5.773503e-01 -5.773503e-01
    outer loop
      vertex 2.070550e+00 0.000000e+00 1.035275e+00
      vertex 3.105825e+00 -1.035275e+00 1.035275e+00
      vertex 2.588187e+00 -1.035275e+00 5.176375e-01
    endloop
  endfacet
  facet normal -3.015113e-01 3.015113e-01 -9.045340e-01
    outer loop
      vertex 2.070550e+00 0.000000e+00 1.035275e+00
      vertex 2.588187e+00 -1.035275e+00 5.176375e-01
      vertex 1.552912e+00 -5.176375e-01 1.035275e+00
    endloop
  endfacet
  facet normal -3.015113e-01 3.015113e-01 -9.045340e-01
    outer loop
      vertex 2.070550e+00 0.000000e+00 1.035275e+00
      vertex 1.552912e+00 -5.176375e-01 1.035275e+00
      vertex 1.035275e+00 5.176375e-01 1.552912e+00
    endloop
  endfacet
  facet normal -5.773503e-01 -5.773503e-01 -5.773503e-01
    outer loop
      vertex 2.070550e+00 0.000000e+00 1.035275e+00
      vertex 1.035275e+00 5.176375e-01 1.552912e+00
      vertex 1.035275e+00 1.035275e+00 1.035275e+00
    endloop
  endfacet
  facet normal -5.773503e-01 -5.773503e-01 -5.773503e-01
    outer loop
      vertex 2.070550e+00 0.000000e+00 1.035275e+00
      vertex 1.035275e+00 1.035275e+00 1.035275e+00
      vertex 1.552912e+00 1.035275e+00 5.176375e-01
    endloop
  endfacet
  facet normal 3.015113e-01 -3.015113e-01 9.045340e-01
    outer loop
      vertex 4.141100e+00 2.070550e+00 3.105825e+00
      vertex 3.623462e+00 1.552913e+00 3.105825e+00
      vertex 4.658737e+00 1.035275e+00 2.588188e+00
    endloop
  endfacet
  facet normal -5.773503e-01 -5.773503e-01 5.773503e-01
    outer loop
      vertex 4.141100e+00 2.070550e+00 3.105825e+00
      vertex 4.658737e+00 1.035275e+00 2.588188e+00
      vertex 5.176375e+00 1.035275e+00 3.105825e+00
    endloop
  endfacet
  facet normal -5.773503e-01 -5.773503e-01 5.773503e-01
    outer loop
      vertex 4.141100e+00 2.070550e+00 3.105825e+00
      vertex 5.176375e+00 1.035275e+00 3.105825e+00
      vertex 5.176375e+00 1.552913e+00 3.623462e+00
    endloop
  endfacet
  facet normal -3.015113e-01 3.015113e-01 9.045340e-01
    outer loop
      vertex 4.141100e+00 2.070550e+00 3.105825e+00
      vertex 5.176375e+00 1.552913e+00 3.623462e+00
      vertex 4.658737e+00 2.588188e+00 3.105825e+00
    endloop
  endfacet
  facet normal -3.015113e-01 3.015113e-01 9.045340e-01
    outer loop
      vertex 4.141100e+00 2.070550e+00 3.105825e+00
      vertex 4.658737e+00 2.588188e+00 3.105825e+00
      vertex 3.623462e+00 3.105825e+00 2.588188e+00
    endloop
  endfacet
  facet normal 5.773503e-01 5.773503e-01 5.773503e-01
    outer loop
      vertex 4.141100e+00 2.070550e+00 3.105825e+00
      vertex 3.623462e+00 3.105825e+00 2.588188e+00
      vertex 3.105825e+00 3.105825e+00 3.105825e+00
    endloop
  endfacet
  facet normal 5.773503e-01 5.773503e-01 5.773503e-01
    outer loop
      vertex 4.141100e+00 2.070550e+00 3.105825e+00
      vertex 3.105825e+00 3.105825e+00 3.105825e+00
      vertex 3.105825e+00 2.588188e+00 3.623462e+00
    endloop
  endfacet
  facet normal 3.015113e-01 -3.015113e-01 9.045340e-01
    outer loop
      vertex 4.141100e+00 2.070550e+00 3.105825e+00
      vertex 3.105825e+00 2.588188e+00 3.623462e+00
      vertex 3.623462e+00 1.552913e+00 3.105825e+00
    endloop
  endfacet
  facet normal -3.015113e-01 9.045340e-01 3.015113e-01
    outer loop
      vertex 2.070550e+00 3.105825e+00 4.141100e+00
      vertex 1.552913e+00 3.105825e+00 3.623462e+00
      vertex 1.035275e+00 2.588188e+00 4.658737e+00
    endloop
  endfacet
  facet normal -5.773503e-01 5.773503e-01 -5.773503e-01
    outer loop
      vertex 2.070550e+00 3.105825e+00 4.141100e+00
      vertex 1.035275e+00 2.588188e+00 4.658737e+00
      vertex 1.035275e+00 3.105825e+00 5.176375e+00
    endloop
  endfacet
  facet normal -5.773503e-01 5.773503e-01 -5.773503e-01
    outer loop
      vertex 2.070550e+00 3.105825e+00 4.141100e+00
      vertex 1.035275e+00 3.105825e+00 5.176375e+00
      vertex 1.552913e+00 3.623463e+00 5.176375e+00
    endloop
  endfacet
  facet normal 3.015113e-01 9.045340e-01 -3.015113e-01
    outer loop
      vertex 2.070550e+00 3.105825e+00 4.141100e+00
      vertex 1.552913e+00 3.623463e+00 5.176375e+00
      vertex 2.588188e+00 3.105825e+00 4.658737e+00
    endloop
  endfacet
  facet normal 3.015113e-01 9.045340e-01 -3.015113e-01
    outer loop
      vertex 2.070550e+00 3.105825e+00 4.141100e+00
      vertex 2.588188e+00 3.105825e+00 4.658737e+00
      vertex 3.105825e+00 2.588188e+00 3.623462e+00
    endloop
  endfacet
  facet normal 5.773503e-01 5.773503e-01 5.773503e-01
    outer loop
      vertex 2.070550e+00 3.105825e+00 4.141100e+00
      vertex 3.105825e+00 2.588188e+00 3.623462e+00
      vertex 3.105825e+00 3.105825e+00 3.105825e+00
    endloop
  endfacet
  facet normal 5.773503e-01 5.773503e-01 5.773503e-01
    outer loop
      vertex 2.070550e+00 3.105825e+00 4.141100e+00
      vertex 3.105825e+00 3.105825e+00 3.105825e+00
      vertex 2.588188e+00 3.623462e+00 3.105825e+00
    endloop
  endfacet
  facet normal -3.015113e-01 9.045340e-01 3.015113e-01
    outer loop
      vertex 2.070550e+00 3.105825e+00 4.141100e+00
      vertex 2.588188e+00 3.623462e+00 3.105825e+00
      vertex 1.552913e+00 3.105825e+00 3.623462e+00
    endloop
  endfacet
  facet normal 9.045340e-01 3.015113e-01 -3.015113e-01
    outer loop
      vertex 3.105825e+00 4.141100e+00 2.070550e+00
      vertex 3.105825e+00 3.623462e+00 1.552912e+00
      vertex 2.588188e+00 4.658737e+00 1.035275e+00
    endloop
  endfacet
  facet normal 5.773503e-01 -5.773503e-01 -5.773503e-01
    outer loop
      vertex 3.105825e+00 4.141100e+00 2.070550e+00
      vertex 2.588188e+00 4.658737e+00 1.035275e+00
      vertex 3.105825e+00 5.176375e+00 1.035275e+00
    endloop
  endfacet
  facet normal 5.773503e-01 -5.773503e-01 -5.773503e-01
    outer loop
      vertex 3.105825e+00 4.141100e+00 2.070550e+00
      vertex 3.105825e+00 5.176375e+00 1.035275e+00
      vertex 3.623463e+00 5.176375e+00 1.552912e+00
    endloop
  endfacet
  facet normal 9.045340e-01 -3.015113e-01 3.015113e-01
    outer loop
      vertex 3.105825e+00 4.141100e+00 2.070550e+00
      vertex 3.623463e+00 5.176375e+00 1.552912e+00
      vertex 3.105825e+00 4.658737e+00 2.588188e+00
    endloop
  endfacet
  facet normal 9.045340e-01 -3.015113e-01 3.015113e-01
    outer loop
      vertex 3.105825e+00 4.141100e+00 2.070550e+00
      vertex 3.105825e+00 4.658737e+00 2.588188e+00
      vertex 2.588188e+00 3.623462e+00 3.105825e+00
    endloop
  endfacet
  facet normal 5.773503e-01 5.773503e-01 5.773503e-01
    outer loop
      vertex 3.105825e+00 4.141100e+00 2.070550e+00
      vertex 2.588188e+00 3.623462e+00 3.105825e+00
      vertex 3.105825e+00 3.105825e+00 3.105825e+00
    endloop
  endfacet
  facet normal 5.773503e-01 5.773503e-01 5.773503e-01
    outer loop
      vertex 3.105825e+00 4.141100e+00 2.070550e+00
      vertex 3.105825e+00 3.105825e+00 3.105825e+00
      vertex 3.623462e+00 3.105825e+00 2.588188e+00
    endloop
  endfacet
  facet normal 9.045340e-01 3.015113e-01 -3.015113e-01
    outer loop
      vertex 3.105825e+00 4.141100e+00 2.070550e+00
      vertex 3.623462e+00 3.105825e+00 2.588188e+00
      vertex 3.105825e+00 3.623462e+00 1.552912e+00
    endloop
  endfacet
  facet normal -9.045340e-01 3.015113e-01 3.015113e-01
    outer loop
      vertex 1.035275e+00 4.141100e+00 2.070550e+00
      vertex 5.176375e-01 3.105825e+00 1.552912e+00
      vertex 1.035275e+00 3.623462e+00 2.588188e+00
    endloop
  endfacet
  facet normal -9.045340e-01 3.015113e-01 3.015113e-01
    outer loop
      vertex 1.035275e+00 4.141100e+00 2.070550e+00
      vertex 1.035275e+00 3.623462e+00 2.588188e+00
      vertex 1.552913e+00 4.658737e+00 3.105825e+00
    endloop
  endfacet
  facet normal -5.773503e-01 -5.773503e-01 5.773503e-01
    outer loop
      vertex 1.035275e+00 4.141100e+00 2.070550e+00
      vertex 1.552913e+00 4.658737e+00 3.105825e+00
      vertex 1.035275e+00 5.176375e+00 3.105825e+00
    endloop
  endfacet
  facet normal -5.773503e-01 -5.773503e-01 5.773503e-01
    outer loop
      vertex 1.035275e+00 4.141100e+00 2.070550e+00
      vertex 1.035275e+00 5.176375e+00 3.105825e+00
      vertex 5.176375e-01 5.176375e+00 2.588188e+00
    endloop
  endfacet
  facet normal -9.045340e-01 -3.015113e-01 -3.015113e-01
    outer loop
      vertex 1.035275e+00 4.141100e+00 2.070550e+00
      vertex 5.176375e-01 5.176375e+00 2.588188e+00
      vertex 1.035275e+00 4.658737e+00 1.552912e+00
    endloop
  endfacet
  facet normal -9.045340e-01 -3.015113e-01 -3.015113e-01
    outer loop
      vertex 1.035275e+00 4.141100e+00 2.070550e+00
      vertex 1.035275e+00 4.658737e+00 1.552912e+00
      vertex 1.552913e+00 3.623462e+00 1.035275e+00
    endloop
  endfacet
  facet normal -5.773503e-01 5.773503e-01 -5.773503e-01
    outer loop
      vertex 1.035275e+00 4.141100e+00 2.070550e+00
      vertex 1.552913e+00 3.623462e+00 1.035275e+00
      vertex 1.035275e+00 3.105825e+00 1.035275e+00
    endloop
  endfacet
  facet normal -5.773503e-01 5.773503e-01 -5.773503e-01
    outer loop
      vertex 1.035275e+00 4.141100e+00 2.070550e+00
      vertex 1.035275e+00 3.105825e+00 1.035275e+00
      vertex 5.176375e-01 3.105825e+00 1.552912e+00
    endloop
  endfacet
  facet normal -3.015113e-01 9.045340e-01 -3.015113e-01
    outer loop
      vertex 1.110223e-16 3.105825e+00 2.070550e+00
      vertex 1.035275e+00 3.623462e+00 2.588188e+00
      vertex 5.176375e-01 3.105825e+00 1.552912e+00
    endloop
  endfacet
  facet normal -3.015113e-01 9.045340e-01 -3.015113e-01
    outer loop
      vertex 1.110223e-16 3.105825e+00 2.070550e+00
      vertex 5.176375e-01 3.105825e+00 1.552912e+00
      vertex -5.176375e-01 2.588188e+00 1.035275e+00
    endloop
  endfacet
  facet normal 5.773503e-01 5.773503e-01 -5.773503e-01
    outer loop
      vertex 1.110223e-16 3.105825e+00 2.070550e+00
      vertex -5.176375e-01 2.588188e+00 1.035275e+00
      vertex -1.035275e+00 3.105825e+00 1.035275e+00
    endloop
  endfacet
  facet normal 5.773503e-01 5.773503e-01 -5.773503e-01
    outer loop
      vertex 1.110223e-16 3.105825e+00 2.070550e+00
      vertex -1.035275e+00 3.105825e+00 1.035275e+00
      vertex -1.035275e+00 3.623462e+00 1.552912e+00
    endloop
  endfacet
  facet normal 3.015113e-01 9.045340e-01 3.015113e-01
    outer loop
      vertex 1.110223e-16 3.105825e+00 2.070550e+00
      vertex -1.035275e+00 3.623462e+00 1.552912e+00
      vertex -5.176375e-01 3.105825e+00 2.588188e+00
    endloop
  endfacet
  facet normal 3.015113e-01 9.045340e-01 3.015113e-01
    outer loop
      vertex 1.110223e-16 3.105825e+00 2.070550e+00
      vertex -5.176375e-01 3.105825e+00 2.588188e+00
      vertex 5.176375e-01 2.588188e+00 3.105825e+00
    endloop
  endfacet
  facet normal -5.773503e-01 5.773503e-01 5.773503e-01
    outer loop
      vertex 1.110223e-16 3.105825e+00 2.070550e+00
      vertex 5.176375e-01 2.588188e+00 3.105825e+00
      vertex 1.035275e+00 3.105825e+00 3.105825e+00
    endloop
  endfacet
  facet normal -5.773503e-01 5.773503e-01 5.773503e-01
    outer loop
      vertex 1.110223e-16 3.105825e+00 2.070550e+00
      vertex 1.035275e+00 3.105825e+00 3.105825e+00
      vertex 1.035275e+00 3.623462e+00 2.588188e+00
    endloop
  endfacet
  facet normal 3.015113e-01 3.015113e-01 -9.045340e-01
    outer loop
      vertex 4.141100e+00 2.070550e+00 1.035275e+00
      vertex 3.623462e+00 2.588188e+00 1.035275e+00
      vertex 4.658737e+00 3.105825e+00 1.552912e+00
    endloop
  endfacet
  facet normal -5.773503e-01 5.773503e-01 -5.773503e-01
    outer loop
      vertex 4.141100e+00 2.070550e+00 1.035275e+00
      vertex 4.658737e+00 3.105825e+00 1.552912e+00
      vertex 5.176375e+00 3.105825e+00 1.035275e+00
    endloop
  endfacet
  facet normal -5.773503e-01 5.773503e-01 -5.773503e-01
    outer loop
      vertex 4.141100e+00 2.070550e+00 1.035275e+00
      vertex 5.176375e+00 3.105825e+00 1.035275e+00
      vertex 5.176375e+00 2.588188e+00 5.176375e-01
    endloop
  endfacet
  facet normal -3.015113e-01 -3.015113e-01 -9.045340e-01
    outer loop
      vertex 4.141100e+00 2.070550e+00 1.035275e+00
      vertex 5.176375e+00 2.588188e+00 5.176375e-01
      vertex 4.658737e+00 1.552912e+00 1.035275e+00
    endloop
  endfacet
  facet normal -3.015113e-01 -3.015113e-01 -9.045340e-01
    outer loop
      vertex 4.141100e+00 2.070550e+00 1.035275e+00
      vertex 4.658737e+00 1.552912e+00 1.035275e+00
      vertex 3.623462e+00 1.035275e+00 1.552912e+00
    endloop
  endfacet
  facet normal 5.773503e-01 -5.773503e-01 -5.773503e-01
    outer loop
      vertex 4.141100e+00 2.070550e+00 1.035275e+00
      vertex 3.623462e+00 1.035275e+00 1.552912e+00
      vertex 3.105825e+00 1.035275e+00 1.035275e+00
    endloop
  endfacet
  facet normal 5.773503e-01 -5.773503e-01 -5.773503e-01
    outer loop
      vertex 4.141100e+00 2.070550e+00 1.035275e+00
      vertex 3.105825e+00 1.035275e+00 1.035275e+00
      vertex 3.105825e+00 1.552912e+00 5.176375e-01
    endloop
  endfacet
  facet normal 3.015113e-01 3.015113e-01 -9.045340e-01
    outer loop
      vertex 4.141100e+00 2.070550e+00 1.035275e+00
      vertex 3.105825e+00 1.552912e+00 5.176375e-01
      vertex 3.623462e+00 2.588188e+00 1.035275e+00
    endloop
  endfacet
  facet normal -3.015113e-01 -3.015113e-01 9.045340e-01
    outer loop
      vertex 2.070550e+00 5.551115e-17 3.105825e+00
      vertex 1.552913e+00 5.176375e-01 3.105825e+00
      vertex 1.035275e+00 -5.176375e-01 2.588188e+00
    endloop
  endfacet
  facet normal -5.773503e-01 5.773503e-01 5.773503e-01
    outer loop
      vertex 2.070550e+00 5.551115e-17 3.105825e+00
      vertex 1.035275e+00 -5.176375e-01 2.588188e+00
      vertex 1.035275e+00 -1.035275e+00 3.105825e+00
    endloop
  endfacet
  facet normal -5.773503e-01 5.773503e-01 5.773503e-01
    outer loop
      vertex 2.070550e+00 5.551115e-17 3.105825e+00
      vertex 1.035275e+00 -1.035275e+00 3.105825e+00
      vertex 1.552913e+00 -1.035275e+00 3.623462e+00
    endloop
  endfacet
  facet normal 3.015113e-01 3.015113e-01 9.045340e-01
    outer loop
      vertex 2.070550e+00 5.551115e-17 3.105825e+00
      vertex 1.552913e+00 -1.035275e+00 3.623462e+00
      vertex 2.588187e+00 -5.176375e-01 3.105825e+00
    endloop
  endfacet
  facet normal 3.015113e-01 3.015113e-01 9.045340e-01
    outer loop
      vertex 2.070550e+00 5.551115e-17 3.105825e+00
      vertex 2.588187e+00 -5.176375e-01 3.105825e+00
      vertex 3.105825e+00 5.176375e-01 2.588188e+00
    endloop
  endfacet
  facet normal 5.773503e-01 -5.773503e-01 5.773503e-01
    outer loop
      vertex 2.070550e+00 5.551115e-17 3.105825e+00
      vertex 3.105825e+00 5.176375e-01 2.588188e+00
      vertex 3.105825e+00 1.035275e+00 3.105825e+00
    endloop
  endfacet
  facet normal 5.773503e-01 -5.773503e-01 5.773503e-01
    outer loop
      vertex 2.070550e+00 5.551115e-17 3.105825e+00
      vertex 3.105825e+00 1.035275e+00 3.105825e+00
      vertex 2.588188e+00 1.035275e+00 3.623462e+00
    endloop
  endfacet
  facet normal -3.015113e-01 -3.015113e-01 9.045340e-01
    outer loop
      vertex 2.070550e+00 5.551115e-17 3.105825e+00
      vertex 2.588188e+00 1.035275e+00 3.623462e+00
      vertex 1.552913e+00 5.176375e-01 3.105825e+00
    endloop
  endfacet
  facet normal 3.015113e-01 -9.045340e-01 3.015113e-01
    outer loop
      vertex 2.070550e+00 1.035275e+00 4.141100e+00
      vertex 1.552913e+00 5.176375e-01 3.105825e+00
      vertex 2.588188e+00 1.035275e+00 3.623462e+00
    endloop
  endfacet
  facet normal 3.015113e-01 -9.045340e-01 3.015113e-01
    outer loop
      vertex 2.070550e+00 1.035275e+00 4.141100e+00
      vertex 2.588188e+00 1.035275e+00 3.623462e+00
      vertex 3.105825e+00 1.552913e+00 4.658737e+00
    endloop
  endfacet
  facet normal 5.773503e-01 -5.773503e-01 -5.773503e-01
    outer loop
      vertex 2.070550e+00 1.035275e+00 4.141100e+00
      vertex 3.105825e+00 1.552913e+00 4.658737e+00
      vertex 3.105825e+00 1.035275e+00 5.176375e+00
    endloop
  endfacet
  facet normal 5.773503e-01 -5.773503e-01 -5.773503e-01
    outer loop
      vertex 2.070550e+00 1.035275e+00 4.141100e+00
      vertex 3.105825e+00 1.035275e+00 5.176375e+00
      vertex 2.588188e+00 5.176375e-01 5.176375e+00
    endloop
  endfacet
  facet normal -3.015113e-01 -9.045340e-01 -3.015113e-01
    outer loop
      vertex 2.070550e+00 1.035275e+00 4.141100e+00
      vertex 2.588188e+00 5.176375e-01 5.176375e+00
      vertex 1.552913e+00 1.035275e+00 4.658737e+00
    endloop
  endfacet
  facet normal -3.015113e-01 -9.045340e-01 -3.015113e-01
    outer loop
      vertex 2.070550e+00 1.035275e+00 4.141100e+00
      vertex 1.552913e+00 1.035275e+00 4.658737e+00
      vertex 1.035275e+00 1.552913e+00 3.623462e+00
    endloop
  endfacet
  facet normal -5.773503e-01 -5.773503e-01 5.773503e-01
    outer loop
      vertex 2.070550e+00 1.035275e+00 4.141100e+00
      vertex 1.035275e+00 1.552913e+00 3.623462e+00
      vertex 1.035275e+00 1.035275e+00 3.105825e+00
    endloop
  endfacet
  facet normal -5.773503e-01 -5.773503e-01 5.773503e-01
    outer loop
      vertex 2.070550e+00 1.035275e+00 4.141100e+00
      vertex 1.035275e+00 1.035275e+00 3.105825e+00
      vertex 1.552913e+00 5.176375e-01 3.105825e+00
    endloop
  endfacet
  facet normal 9.045340e-01 -3.015113e-01 -3.015113e-01
    outer loop
      vertex 3.105825e+00 2.070550e+00 0.000000e+00
      vertex 3.105825e+00 1.552912e+00 5.176375e-01
      vertex 2.588187e+00 1.035275e+00 -5.176375e-01
    endloop
  endfacet
  facet normal 5.773503e-01 -5.773503e-01 5.773503e-01
    outer loop
      vertex 3.105825e+00 2.070550e+00 0.000000e+00
      vertex 2.588187e+00 1.035275e+00 -5.176375e-01
      vertex 3.105825e+00 1.035275e+00 -1.035275e+00
    endloop
  endfacet
  facet normal 5.773503e-01 -5.773503e-01 5.773503e-01
    outer loop
      vertex 3.105825e+00 2.070550e+00 0.000000e+00
      vertex 3.105825e+00 1.035275e+00 -1.035275e+00
      vertex 3.623462e+00 1.552912e+00 -1.035275e+00
    endloop
  endfacet
  facet normal 9.045340e-01 3.015113e-01 3.015113e-01
    outer loop
      vertex 3.105825e+00 2.070550e+00 0.000000e+00
      vertex 3.623462e+00 1.552912e+00 -1.035275e+00
      vertex 3.105825e+00 2.588187e+00 -5.176375e-01
    endloop
  endfacet
  facet normal 9.045340e-01 3.015113e-01 3.015113e-01
    outer loop
      vertex 3.105825e+00 2.070550e+00 0.000000e+00
      vertex 3.105825e+00 2.588187e+00 -5.176375e-01
      vertex 2.588188e+00 3.105825e+00 5.176375e-01
    endloop
  endfacet
  facet normal 5.773503e-01 5.773503e-01 -5.773503e-01
    outer loop
      vertex 3.105825e+00 2.070550e+00 0.000000e+00
      vertex 2.588188e+00 3.105825e+00 5.176375e-01
      vertex 3.105825e+00 3.105825e+00 1.035275e+00
    endloop
  endfacet
  facet normal 5.773503e-01 5.773503e-01 -5.773503e-01
    outer loop
      vertex 3.105825e+00 2.070550e+00 0.000000e+00
      vertex 3.105825e+00 3.105825e+00 1.035275e+00
      vertex 3.623462e+00 2.588188e+00 1.035275e+00
    endloop
  endfacet
  facet normal 9.045340e-01 -3.015113e-01 -3.015113e-01
    outer loop
      vertex 3.105825e+00 2.070550e+00 0.000000e+00
      vertex 3.623462e+00 2.588188e+00 1.035275e+00
      vertex 3.105825e+00 1.552912e+00 5.176375e-01
    endloop
  endfacet
  facet normal -3.015113e-01 3.015113e-01 9.045340e-01
    outer loop
      vertex 8.326673e-17 2.070550e+00 3.105825e+00
      vertex 1.035275e+00 1.552913e+00 3.623462e+00
      vertex 5.176375e-01 2.588188e+00 3.105825e+00
    endloop
  endfacet
  facet normal -3.015113e-01 3.015113e-01 9.045340e-01
    outer loop
      vertex 8.326673e-17 2.070550e+00 3.105825e+00
      vertex 5.176375e-01 2.588188e+00 3.105825e+00
      vertex -5.176375e-01 3.105825e+00 2.588188e+00
    endloop
  endfacet
  facet normal 5.773503e-01 5.773503e-01 5.773503e-01
    outer loop
      vertex 8.326673e-17 2.070550e+00 3.105825e+00
      vertex -5.176375e-01 3.105825e+00 2.588188e+00
      vertex -1.035275e+00 3.105825e+00 3.105825e+00
    endloop
  endfacet
  facet normal 5.773503e-01 5.773503e-01 5.773503e-01
    outer loop
      vertex 8.326673e-17 2.070550e+00 3.105825e+00
      vertex -1.035275e+00 3.105825e+00 3.105825e+00
      vertex -1.035275e+00 2.588188e+00 3.623462e+00
    endloop
  endfacet
  facet normal 3.015113e-01 -3.015113e-01 9.045340e-01
    outer loop
      vertex 8.326673e-17 2.070550e+00 3.105825e+00
      vertex -1.035275e+00 2.588188e+00 3.623462e+00
      vertex -5.176375e-01 1.552913e+00 3.105825e+00
    endloop
  endfacet
  facet normal 3.015113e-01 -3.015113e-01 9.045340e-01
    outer loop
      vertex 8.326673e-17 2.070550e+00 3.105825e+00
      vertex -5.176375e-01 1.552913e+00 3.105825e+00
      vertex 5.176375e-01 1.035275e+00 2.588188e+00
    endloop
  endfacet
  facet normal -5.773503e-01 -5.773503e-01 5.773503e-01
    outer loop
      vertex 8.326673e-17 2.070550e+00 3.105825e+00
      vertex 5.176375e-01 1.035275e+00 2.588188e+00
      vertex 1.035275e+00 1.035275e+00 3.105825e+00
    endloop
  endfacet
  facet normal -5.773503e-01 -5.773503e-01 5.773503e-01
    outer loop
      vertex 8.326673e-17 2.070550e+00 3.105825e+00
      vertex 1.035275e+00 1.035275e+00 3.105825e+00
      vertex 1.035275e+00 1.552913e+00 3.623462e+00
    endloop
  endfacet
  facet normal 3.015113e-01 9.045340e-01 3.015113e-01
    outer loop
      vertex 4.141100e+00 3.105825e+00 2.070550e+00
      vertex 3.623462e+00 3.105825e+00 2.588188e+00
      vertex 4.658737e+00 2.588188e+00 3.105825e+00
    endloop
  endfacet
  facet normal -5.773503e-01 5.773503e-01 5.773503e-01
    outer loop
      vertex 4.141100e+00 3.105825e+00 2.070550e+00
      vertex 4.658737e+00 2.588188e+00 3.105825e+00
      vertex 5.176375e+00 3.105825e+00 3.105825e+00
    endloop
  endfacet
  facet normal -5.773503e-01 5.773503e-01 5.773503e-01
    outer loop
      vertex 4.141100e+00 3.105825e+00 2.070550e+00
      vertex 5.176375e+00 3.105825e+00 3.105825e+00
      vertex 5.176375e+00 3.623462e+00 2.588188e+00
    endloop
  endfacet
  facet normal -3.015113e-01 9.045340e-01 -3.015113e-01
    outer loop
      vertex 4.141100e+00 3.105825e+00 2.070550e+00
      vertex 5.176375e+00 3.623462e+00 2.588188e+00
      vertex 4.658737e+00 3.105825e+00 1.552912e+00
    endloop
  endfacet
  facet normal -3.015113e-01 9.045340e-01 -3.015113e-01
    outer loop
      vertex 4.141100e+00 3.105825e+00 2.070550e+00
      vertex 4.658737e+00 3.105825e+00 1.552912e+00
      vertex 3.623462e+00 2.588188e+00 1.035275e+00
    endloop
  endfacet
  facet normal 5.773503e-01 5.773503e-01 -5.773503e-01
    outer loop
      vertex 4.141100e+00 3.105825e+00 2.070550e+00
      vertex 3.623462e+00 2.588188e+00 1.035275e+00
      vertex 3.105825e+00 3.105825e+00 1.035275e+00
    endloop
  endfacet
  facet normal 5.773503e-01 5.773503e-01 -5.773503e-01
    outer loop
      vertex 4.141100e+00 3.105825e+00 2.070550e+00
      vertex 3.105825e+00 3.105825e+00 1.035275e+00
      vertex 3.105825e+00 3.623462e+00 1.552912e+00
    endloop
  endfacet
  facet normal 3.015113e-01 9.045340e-01 3.015113e-01
    outer loop
      vertex 4.141100e+00 3.105825e+00 2.070550e+00
      vertex 3.105825e+00 3.623462e+00 1.552912e+00
      vertex 3.623462e+00 3.105825e+00 2.588188e+00
    endloop
  endfacet
  facet normal 3.015113e-01 9.045340e-01 -3.015113e-01
    outer loop
      vertex 2.070550e+00 3.105825e+00 -5.551115e-17
      vertex 1.552913e+00 3.623462e+00 1.035275e+00
      vertex 2.588188e+00 3.105825e+00 5.176375e-01
    endloop
  endfacet
  facet normal 3.015113e-01 9.045340e-01 -3.015113e-01
    outer loop
      vertex 2.070550e+00 3.105825e+00 -5.551115e-17
      vertex 2.588188e+00 3.105825e+00 5.176375e-01
      vertex 3.105825e+00 2.588187e+00 -5.176375e-01
    endloop
  endfacet
  facet normal 5.773503e-01 5.773503e-01 5.773503e-01
    outer loop
      vertex 2.070550e+00 3.105825e+00 -5.551115e-17
      vertex 3.105825e+00 2.588187e+00 -5.176375e-01
      vertex 3.105825e+00 3.105825e+00 -1.035275e+00
    endloop
  endfacet
  facet normal 5.773503e-01 5.773503e-01 5.773503e-01
    outer loop
      vertex 2.070550e+00 3.105825e+00 -5.551115e-17
      vertex 3.105825e+00 3.105825e+00 -1.035275e+00
      vertex 2.588187e+00 3.623462e+00 -1.035275e+00
    endloop
  endfacet
  facet normal -3.015113e-01 9.045340e-01 3.015113e-01
    outer loop
      vertex 2.070550e+00 3.105825e+00 -5.551115e-17
      vertex 2.588187e+00 3.623462e+00 -1.035275e+00
      vertex 1.552913e+00 3.105825e+00 -5.176375e-01
    endloop
  endfacet
  facet normal -3.015113e-01 9.045340e-01 3.015113e-01
    outer loop
      vertex 2.070550e+00 3.105825e+00 -5.551115e-17
      vertex 1.552913e+00 3.105825e+00 -5.176375e-01
      vertex 1.035275e+00 2.588188e+00 5.176375e-01
    endloop
  endfacet
  facet normal -5.773503e-01 5.773503e-01 -5.773503e-01
    outer loop
      vertex 2.070550e+00 3.105825e+00 -5.551115e-17
      vertex 1.035275e+00 2.588188e+00 5.176375e-01
      vertex 1.035275e+00 3.105825e+00 1.035275e+00
    endloop
  endfacet
  facet normal -5.773503e-01 5.773503e-01 -5.773503e-01
    outer loop
      vertex 2.070550e+00 3.105825e+00 -5.551115e-17
      vertex 1.035275e+00 3.105825e+00 1.035275e+00
      vertex 1.552913e+00 3.623462e+00 1.035275e+00
    endloop
  endfacet
  facet normal 9.045340e-01 3.015113e-01 3.015113e-01
    outer loop
      vertex 3.105825e+00 2.070550e+00 4.141100e+00
      vertex 3.105825e+00 2.588188e+00 3.623462e+00
      vertex 2.588188e+00 3.105825e+00 4.658737e+00
    endloop
  endfacet
  facet normal 5.773503e-01 5.773503e-01 -5.773503e-01
    outer loop
      vertex 3.105825e+00 2.070550e+00 4.141100e+00
      vertex 2.588188e+00 3.105825e+00 4.658737e+00
      vertex 3.105825e+00 3.105825e+00 5.176375e+00
    endloop
  endfacet
  facet normal 5.773503e-01 5.773503e-01 -5.773503e-01
    outer loop
      vertex 3.105825e+00 2.070550e+00 4.141100e+00
      vertex 3.105825e+00 3.105825e+00 5.176375e+00
      vertex 3.623463e+00 2.588188e+00 5.176375e+00
    endloop
  endfacet
  facet normal 9.045340e-01 -3.015113e-01 -3.015113e-01
    outer loop
      vertex 3.105825e+00 2.070550e+00 4.141100e+00
      vertex 3.623463e+00 2.588188e+00 5.176375e+00
      vertex 3.105825e+00 1.552913e+00 4.658737e+00
    endloop
  endfacet
  facet normal 9.045340e-01 -3.015113e-01 -3.015113e-01
    outer loop
      vertex 3.105825e+00 2.070550e+00 4.141100e+00
      vertex 3.105825e+00 1.552913e+00 4.658737e+00
      vertex 2.588188e+00 1.035275e+00 3.623462e+00
    endloop
  endfacet
  facet normal 5.773503e-01 -5.773503e-01 5.773503e-01
    outer loop
      vertex 3.105825e+00 2.070550e+00 4.141100e+00
      vertex 2.588188e+00 1.035275e+00 3.623462e+00
      vertex 3.105825e+00 1.035275e+00 3.105825e+00
    endloop
  endfacet
  facet normal 5.773503e-01 -5.773503e-01 5.773503e-01
    outer loop
      vertex 3.105825e+00 2.070550e+00 4.141100e+00
      vertex 3.105825e+00 1.035275e+00 3.105825e+00
      vertex 3.623462e+00 1.552913e+00 3.105825e+00
    endloop
  endfacet
  facet normal 9.045340e-01 3.015113e-01 3.015113e-01
    outer loop
      vertex 3.105825e+00 2.070550e+00 4.141100e+00
      vertex 3.623462e+00 1.552913e+00 3.105825e+00
      vertex 3.105825e+00 2.588188e+00 3.623462e+00
    endloop
  endfacet
  facet normal 9.045340e-01 -3.015113e-01 3.015113e-01
    outer loop
      vertex 3.105825e+00 0.000000e+00 2.070550e+00
      vertex 3.105825e+00 5.176375e-01 2.588188e+00
      vertex 2.588187e+00 -5.176375e-01 3.105825e+00
    endloop
  endfacet
  facet normal 5.773503e-01 5.773503e-01 5.773503e-01
    outer loop
      vertex 3.105825e+00 0.000000e+00 2.070550e+00
      vertex 2.588187e+00 -5.176375e-01 3.105825e+00
      vertex 3.105825e+00 -1.035275e+00 3.105825e+00
    endloop
  endfacet
  facet normal 5.773503e-01 5.773503e-01 5.773503e-01
    outer loop
      vertex 3.105825e+00 0.000000e+00 2.070550e+00
      vertex 3.105825e+00 -1.035275e+00 3.105825e+00
      vertex 3.623462e+00 -1.035275e+00 2.588188e+00
    endloop
  endfacet
  facet normal 9.045340e-01 3.015113e-01 -3.015113e-01
    outer loop
      vertex 3.105825e+00 0.000000e+00 2.070550e+00
      vertex 3.623462e+00 -1.035275e+00 2.588188e+00
      vertex 3.105825e+00 -5.176375e-01 1.552912e+00
    endloop
  endfacet
  facet normal 9.045340e-01 3.015113e-01 -3.015113e-01
    outer loop
      vertex 3.105825e+00 0.000000e+00 2.070550e+00
      vertex 3.105825e+00 -5.176375e-01 1.552912e+00
      vertex 2.588188e+00 5.176375e-01 1.035275e+00
    endloop
  endfacet
  facet normal 5.773503e-01 -5.773503e-01 -5.773503e-01
    outer loop
      vertex 3.105825e+00 0.000000e+00 2.070550e+00
      vertex 2.588188e+00 5.176375e-01 1.035275e+00
      vertex 3.105825e+00 1.035275e+00 1.035275e+00
    endloop
  endfacet
  facet normal 5.773503e-01 -5.773503e-01 -5.773503e-01
    outer loop
      vertex 3.105825e+00 0.000000e+00 2.070550e+00
      vertex 3.105825e+00 1.035275e+00 1.035275e+00
      vertex 3.623462e+00 1.035275e+00 1.552912e+00
    endloop
  endfacet
  facet normal 9.045340e-01 -3.015113e-01 3.015113e-01
    outer loop
      vertex 3.105825e+00 0.000000e+00 2.070550e+00
      vertex 3.623462e+00 1.035275e+00 1.552912e+00
      vertex 3.105825e+00 5.176375e-01 2.588188e+00
    endloop
  endfacet
  facet normal 3.015113e-01 3.015113e-01 9.045340e-01
    outer loop
      vertex 2.070550e+00 4.141100e+00 3.105825e+00
      vertex 2.588188e+00 3.623462e+00 3.105825e+00
      vertex 3.105825e+00 4.658737e+00 2.588188e+00
    endloop
  endfacet
  facet normal 5.773503e-01 -5.773503e-01 5.773503e-01
    outer loop
      vertex 2.070550e+00 4.141100e+00 3.105825e+00
      vertex 3.105825e+00 4.658737e+00 2.588188e+00
      vertex 3.105825e+00 5.176375e+00 3.105825e+00
    endloop
  endfacet
  facet normal 5.773503e-01 -5.773503e-01 5.773503e-01
    outer loop
      vertex 2.070550e+00 4.141100e+00 3.105825e+00
      vertex 3.105825e+00 5.176375e+00 3.105825e+00
      vertex 2.588188e+00 5.176375e+00 3.623462e+00
    endloop
  endfacet
  facet normal -3.015113e-01 -3.015113e-01 9.045340e-01
    outer loop
      vertex 2.070550e+00 4.141100e+00 3.105825e+00
      vertex 2.588188e+00 5.176375e+00 3.623462e+00
      vertex 1.552913e+00 4.658737e+00 3.105825e+00
    endloop
  endfacet
  facet normal -3.015113e-01 -3.015113e-01 9.045340e-01
    outer loop
      vertex 2.070550e+00 4.141100e+00 3.105825e+00
      vertex 1.552913e+00 4.658737e+00 3.105825e+00
      vertex 1.035275e+00 3.623462e+00 2.588188e+00
    endloop
  endfacet
  facet normal -5.773503e-01 5.773503e-01 5.773503e-01
    outer loop
      vertex 2.070550e+00 4.141100e+00 3.105825e+00
      vertex 1.035275e+00 3.623462e+00 2.588188e+00
      vertex 1.035275e+00 3.105825e+00 3.105825e+00
    endloop
  endfacet
  facet normal -5.773503e-01 5.773503e-01 5.773503e-01
    outer loop
      vertex 2.070550e+00 4.141100e+00 3.105825e+00
      vertex 1.035275e+00 3.105825e+00 3.105825e+00
      vertex 1.552913e+00 3.105825e+00 3.623462e+00
    endloop
  endfacet
  facet normal 3.015113e-01 3.015113e-01 9.045340e-01
    outer loop
      vertex 2.070550e+00 4.141100e+00 3.105825e+00
      vertex 1.552913e+00 3.105825e+00 3.623462e+00
      vertex 2.588188e+00 3.623462e+00 3.105825e+00
    endloop
  endfacet
endsolid surface_model
