solid surface_model
  facet normal -4.225867e-01 -2.439806e-01 8.728654e-01
    outer loop
      vertex -1.999980e+00 1.154689e+00 -6.455100e-01
      vertex -7.499925e-01 1.299025e+00 0.000000e+00
      vertex -1.249987e+00 2.165042e+00 0.000000e+00
    endloop
  endfacet
  facet normal -8.451536e-01 4.879643e-01 2.181883e-01
    outer loop
      vertex -1.999980e+00 1.154689e+00 -6.455100e-01
      vertex -1.249987e+00 2.165042e+00 0.000000e+00
      vertex -9.999700e-01 2.886711e+00 -6.455229e-01
    endloop
  endfacet
  facet normal -8.451373e-01 4.879549e-01 2.182725e-01
    outer loop
      vertex -1.999980e+00 1.154689e+00 -6.455100e-01
      vertex -9.999700e-01 2.886711e+00 -6.455229e-01
      vertex -1.500005e+00 2.309390e+00 -1.291007e+00
    endloop
  endfacet
  facet normal 0.000000e+00 4.879500e-01 8.728716e-01
    outer loop
      vertex -1.999980e+00 1.154689e+00 -6.455100e-01
      vertex -1.500005e+00 2.309390e+00 -1.291007e+00
      vertex -2.499995e+00 2.309390e+00 -1.291007e+00
    endloop
  endfacet
  facet normal 8.451615e-01 4.879493e-01 2.181914e-01
    outer loop
      vertex -1.999980e+00 1.154689e+00 -6.455100e-01
      vertex -2.499995e+00 2.309390e+00 -1.291007e+00
      vertex -2.999950e+00 2.886711e+00 -6.455229e-01
    endloop
  endfacet
  facet normal 8.451561e-01 4.879462e-01 2.182195e-01
    outer loop
      vertex -1.999980e+00 1.154689e+00 -6.455100e-01
      vertex -2.999950e+00 2.886711e+00 -6.455229e-01
      vertex -2.749972e+00 2.165042e+00 0.000000e+00
    endloop
  endfacet
  facet normal 4.225867e-01 -2.439806e-01 8.728654e-01
    outer loop
      vertex -1.999980e+00 1.154689e+00 -6.455100e-01
      vertex -2.749972e+00 2.165042e+00 0.000000e+00
      vertex -3.249967e+00 1.299025e+00 0.000000e+00
    endloop
  endfacet
  facet normal 4.225759e-06 -9.758997e-01 2.182195e-01
    outer loop
      vertex -1.999980e+00 1.154689e+00 -6.455100e-01
      vertex -3.249967e+00 1.299025e+00 0.000000e+00
      vertex -3.999940e+00 1.154677e+00 -6.455229e-01
    endloop
  endfacet
  facet normal 4.225976e-06 -9.759060e-01 2.181914e-01
    outer loop
      vertex -1.999980e+00 1.154689e+00 -6.455100e-01
      vertex -3.999940e+00 1.154677e+00 -6.455229e-01
      vertex -3.249987e+00 1.010364e+00 -1.291007e+00
    endloop
  endfacet
  facet normal -4.225771e-01 -2.439750e-01 8.728716e-01
    outer loop
      vertex -1.999980e+00 1.154689e+00 -6.455100e-01
      vertex -3.249987e+00 1.010364e+00 -1.291007e+00
      vertex -2.749992e+00 1.443477e-01 -1.291007e+00
    endloop
  endfacet
  facet normal -8.451500e-01 4.879330e-01 2.182725e-01
    outer loop
      vertex -1.999980e+00 1.154689e+00 -6.455100e-01
      vertex -2.749992e+00 1.443477e-01 -1.291007e+00
      vertex -2.999950e+00 -5.773560e-01 -6.455229e-01
    endloop
  endfacet
  facet normal -8.451663e-01 4.879424e-01 2.181883e-01
    outer loop
      vertex -1.999980e+00 1.154689e+00 -6.455100e-01
      vertex -2.999950e+00 -5.773560e-01 -6.455229e-01
      vertex -2.499975e+00 0.000000e+00 0.000000e+00
    endloop
  endfacet
  facet normal 0.000000e+00 4.879611e-01 8.728654e-01
    outer loop
      vertex -1.999980e+00 1.154689e+00 -6.455100e-01
      vertex -2.499975e+00 0.000000e+00 0.000000e+00
      vertex -1.499985e+00 0.000000e+00 0.000000e+00
    endloop
  endfacet
  facet normal 8.451518e-01 4.879535e-01 2.182195e-01
    outer loop
      vertex -1.999980e+00 1.154689e+00 -6.455100e-01
      vertex -1.499985e+00 0.000000e+00 0.000000e+00
      vertex -9.999700e-01 -5.773560e-01 -6.455229e-01
    endloop
  endfacet
  facet normal 8.451573e-01 4.879567e-01 2.181914e-01
    outer loop
      vertex -1.999980e+00 1.154689e+00 -6.455100e-01
      vertex -9.999700e-01 -5.773560e-01 -6.455229e-01
      vertex -1.250007e+00 1.443477e-01 -1.291007e+00
    endloop
  endfacet
  facet normal 4.225867e-01 -2.439806e-01 8.728654e-01
    outer loop
      vertex -1.999980e+00 1.154689e+00 -6.455100e-01
      vertex -1.250007e+00 1.443477e-01 -1.291007e+00
      vertex -7.500125e-01 1.010364e+00 -1.291007e+00
    endloop
  endfacet
  facet normal -4.225892e-06 -9.759060e-01 2.181914e-01
    outer loop
      vertex -1.999980e+00 1.154689e+00 -6.455100e-01
      vertex -7.500125e-01 1.010364e+00 -1.291007e+00
      vertex 1.999980e-05 1.154677e+00 -6.455229e-01
    endloop
  endfacet
  facet normal -4.225675e-06 -9.758997e-01 2.182195e-01
    outer loop
      vertex -1.999980e+00 1.154689e+00 -6.455100e-01
      vertex 1.999980e-05 1.154677e+00 -6.455229e-01
      vertex -7.499925e-01 1.299025e+00 0.000000e+00
    endloop
  endfacet
  facet normal -4.225867e-01 -2.439806e-01 8.728654e-01
    outer loop
      vertex 4.810966e-16 2.309378e+00 6.455100e-01
      vertex -1.249987e+00 2.165042e+00 0.000000e+00
      vertex -7.499925e-01 1.299025e+00 0.000000e+00
    endloop
  endfacet
  facet normal -8.451536e-01 4.879643e-01 2.181883e-01
    outer loop
      vertex 4.810966e-16 2.309378e+00 6.455100e-01
      vertex -7.499925e-01 1.299025e+00 0.000000e+00
      vertex -1.000010e+00 5.773560e-01 6.455229e-01
    endloop
  endfacet
  facet normal -8.451373e-01 4.879549e-01 2.182725e-01
    outer loop
      vertex 4.810966e-16 2.309378e+00 6.455100e-01
      vertex -1.000010e+00 5.773560e-01 6.455229e-01
      vertex -4.999750e-01 1.154677e+00 1.291007e+00
    endloop
  endfacet
  facet normal 0.000000e+00 4.879500e-01 8.728716e-01
    outer loop
      vertex 4.810966e-16 2.309378e+00 6.455100e-01
      vertex -4.999750e-01 1.154677e+00 1.291007e+00
      vertex 5.000150e-01 1.154677e+00 1.291007e+00
    endloop
  endfacet
  facet normal 8.451615e-01 4.879493e-01 2.181914e-01
    outer loop
      vertex 4.810966e-16 2.309378e+00 6.455100e-01
      vertex 5.000150e-01 1.154677e+00 1.291007e+00
      vertex 9.999700e-01 5.773560e-01 6.455229e-01
    endloop
  endfacet
  facet normal 8.451561e-01 4.879462e-01 2.182195e-01
    outer loop
      vertex 4.810966e-16 2.309378e+00 6.455100e-01
      vertex 9.999700e-01 5.773560e-01 6.455229e-01
      vertex 7.499925e-01 1.299025e+00 0.000000e+00
    endloop
  endfacet
  facet normal 4.225867e-01 -2.439806e-01 8.728654e-01
    outer loop
      vertex 4.810966e-16 2.309378e+00 6.455100e-01
      vertex 7.499925e-01 1.299025e+00 0.000000e+00
      vertex 1.249988e+00 2.165042e+00 0.000000e+00
    endloop
  endfacet
  facet normal 4.225759e-06 -9.758997e-01 2.182195e-01
    outer loop
      vertex 4.810966e-16 2.309378e+00 6.455100e-01
      vertex 1.249988e+00 2.165042e+00 0.000000e+00
      vertex 1.999960e+00 2.309390e+00 6.455229e-01
    endloop
  endfacet
  facet normal 4.225976e-06 -9.759060e-01 2.181914e-01
    outer loop
      vertex 4.810966e-16 2.309378e+00 6.455100e-01
      vertex 1.999960e+00 2.309390e+00 6.455229e-01
      vertex 1.250007e+00 2.453703e+00 1.291007e+00
    endloop
  endfacet
  facet normal -4.225771e-01 -2.439750e-01 8.728716e-01
    outer loop
      vertex 4.810966e-16 2.309378e+00 6.455100e-01
      vertex 1.250007e+00 2.453703e+00 1.291007e+00
      vertex 7.500125e-01 3.319719e+00 1.291007e+00
    endloop
  endfacet
  facet normal -8.451500e-01 4.879330e-01 2.182725e-01
    outer loop
      vertex 4.810966e-16 2.309378e+00 6.455100e-01
      vertex 7.500125e-01 3.319719e+00 1.291007e+00
      vertex 9.999700e-01 4.041423e+00 6.455229e-01
    endloop
  endfacet
  facet normal -8.451663e-01 4.879424e-01 2.181883e-01
    outer loop
      vertex 4.810966e-16 2.309378e+00 6.455100e-01
      vertex 9.999700e-01 4.041423e+00 6.455229e-01
      vertex 4.999950e-01 3.464067e+00 0.000000e+00
    endloop
  endfacet
  facet normal 0.000000e+00 4.879611e-01 8.728654e-01
    outer loop
      vertex 4.810966e-16 2.309378e+00 6.455100e-01
      vertex 4.999950e-01 3.464067e+00 0.000000e+00
      vertex -4.999950e-01 3.464067e+00 0.000000e+00
    endloop
  endfacet
  facet normal 8.451518e-01 4.879535e-01 2.182195e-01
    outer loop
      vertex 4.810966e-16 2.309378e+00 6.455100e-01
      vertex -4.999950e-01 3.464067e+00 0.000000e+00
      vertex -1.000010e+00 4.041423e+00 6.455229e-01
    endloop
  endfacet
  facet normal 8.451573e-01 4.879567e-01 2.181914e-01
    outer loop
      vertex 4.810966e-16 2.309378e+00 6.455100e-01
      vertex -1.000010e+00 4.041423e+00 6.455229e-01
      vertex -7.499725e-01 3.319719e+00 1.291007e+00
    endloop
  endfacet
  facet normal 4.225867e-01 -2.439806e-01 8.728654e-01
    outer loop
      vertex 4.810966e-16 2.309378e+00 6.455100e-01
      vertex -7.499725e-01 3.319719e+00 1.291007e+00
      vertex -1.249968e+00 2.453703e+00 1.291007e+00
    endloop
  endfacet
  facet normal -4.225892e-06 -9.759060e-01 2.181914e-01
    outer loop
      vertex 4.810966e-16 2.309378e+00 6.455100e-01
      vertex -1.249968e+00 2.453703e+00 1.291007e+00
      vertex -2.000000e+00 2.309390e+00 6.455229e-01
    endloop
  endfacet
  facet normal -4.225675e-06 -9.758997e-01 2.182195e-01
    outer loop
      vertex 4.810966e-16 2.309378e+00 6.455100e-01
      vertex -2.000000e+00 2.309390e+00 6.455229e-01
      vertex -1.249987e+00 2.165042e+00 0.000000e+00
    endloop
  endfacet
  facet normal 4.225867e-01 -2.439806e-01 8.728654e-01
    outer loop
      vertex 1.999980e+00 1.154689e+00 -6.455100e-01
      vertex 1.249988e+00 2.165042e+00 0.000000e+00
      vertex 7.499925e-01 1.299025e+00 0.000000e+00
    endloop
  endfacet
  facet normal 4.225759e-06 -9.758997e-01 2.182195e-01
    outer loop
      vertex 1.999980e+00 1.154689e+00 -6.455100e-01
      vertex 7.499925e-01 1.299025e+00 0.000000e+00
      vertex 1.999980e-05 1.154677e+00 -6.455229e-01
    endloop
  endfacet
  facet normal 4.225976e-06 -9.759060e-01 2.181914e-01
    outer loop
      vertex 1.999980e+00 1.154689e+00 -6.455100e-01
      vertex 1.999980e-05 1.154677e+00 -6.455229e-01
      vertex 7.499725e-01 1.010364e+00 -1.291007e+00
    endloop
  endfacet
  facet normal -4.225771e-01 -2.439750e-01 8.728716e-01
    outer loop
      vertex 1.999980e+00 1.154689e+00 -6.455100e-01
      vertex 7.499725e-01 1.010364e+00 -1.291007e+00
      vertex 1.249968e+00 1.443477e-01 -1.291007e+00
    endloop
  endfacet
  facet normal -8.451500e-01 4.879330e-01 2.182725e-01
    outer loop
      vertex 1.999980e+00 1.154689e+00 -6.455100e-01
      vertex 1.249968e+00 1.443477e-01 -1.291007e+00
      vertex 1.000010e+00 -5.773560e-01 -6.455229e-01
    endloop
  endfacet
  facet normal -8.451663e-01 4.879424e-01 2.181883e-01
    outer loop
      vertex 1.999980e+00 1.154689e+00 -6.455100e-01
      vertex 1.000010e+00 -5.773560e-01 -6.455229e-01
      vertex 1.499985e+00 0.000000e+00 0.000000e+00
    endloop
  endfacet
  facet normal 0.000000e+00 4.879611e-01 8.728654e-01
    outer loop
      vertex 1.999980e+00 1.154689e+00 -6.455100e-01
      vertex 1.499985e+00 0.000000e+00 0.000000e+00
      vertex 2.499975e+00 0.000000e+00 0.000000e+00
    endloop
  endfacet
  facet normal 8.451518e-01 4.879535e-01 2.182195e-01
    outer loop
      vertex 1.999980e+00 1.154689e+00 -6.455100e-01
      vertex 2.499975e+00 0.000000e+00 0.000000e+00
      vertex 2.999990e+00 -5.773560e-01 -6.455229e-01
    endloop
  endfacet
  facet normal 8.451573e-01 4.879567e-01 2.181914e-01
    outer loop
      vertex 1.999980e+00 1.154689e+00 -6.455100e-01
      vertex 2.999990e+00 -5.773560e-01 -6.455229e-01
      vertex 2.749953e+00 1.443477e-01 -1.291007e+00
    endloop
  endfacet
  facet normal 4.225867e-01 -2.439806e-01 8.728654e-01
    outer loop
      vertex 1.999980e+00 1.154689e+00 -6.455100e-01
      vertex 2.749953e+00 1.443477e-01 -1.291007e+00
      vertex 3.249948e+00 1.010364e+00 -1.291007e+00
    endloop
  endfacet
  facet normal -4.225892e-06 -9.759060e-01 2.181914e-01
    outer loop
      vertex 1.999980e+00 1.154689e+00 -6.455100e-01
      vertex 3.249948e+00 1.010364e+00 -1.291007e+00
      vertex 3.999980e+00 1.154677e+00 -6.455229e-01
    endloop
  endfacet
  facet normal -4.225675e-06 -9.758997e-01 2.182195e-01
    outer loop
      vertex 1.999980e+00 1.154689e+00 -6.455100e-01
      vertex 3.999980e+00 1.154677e+00 -6.455229e-01
      vertex 3.249968e+00 1.299025e+00 0.000000e+00
    endloop
  endfacet
  facet normal -4.225867e-01 -2.439806e-01 8.728654e-01
    outer loop
      vertex 1.999980e+00 1.154689e+00 -6.455100e-01
      vertex 3.249968e+00 1.299025e+00 0.000000e+00
      vertex 2.749973e+00 2.165042e+00 0.000000e+00
    endloop
  endfacet
  facet normal -8.451536e-01 4.879643e-01 2.181883e-01
    outer loop
      vertex 1.999980e+00 1.154689e+00 -6.455100e-01
      vertex 2.749973e+00 2.165042e+00 0.000000e+00
      vertex 2.999990e+00 2.886711e+00 -6.455229e-01
    endloop
  endfacet
  facet normal -8.451373e-01 4.879549e-01 2.182725e-01
    outer loop
      vertex 1.999980e+00 1.154689e+00 -6.455100e-01
      vertex 2.999990e+00 2.886711e+00 -6.455229e-01
      vertex 2.499955e+00 2.309390e+00 -1.291007e+00
    endloop
  endfacet
  facet normal 0.000000e+00 4.879500e-01 8.728716e-01
    outer loop
      vertex 1.999980e+00 1.154689e+00 -6.455100e-01
      vertex 2.499955e+00 2.309390e+00 -1.291007e+00
      vertex 1.499965e+00 2.309390e+00 -1.291007e+00
    endloop
  endfacet
  facet normal 8.451615e-01 4.879493e-01 2.181914e-01
    outer loop
      vertex 1.999980e+00 1.154689e+00 -6.455100e-01
      vertex 1.499965e+00 2.309390e+00 -1.291007e+00
      vertex 1.000010e+00 2.886711e+00 -6.455229e-01
    endloop
  endfacet
  facet normal 8.451561e-01 4.879462e-01 2.182195e-01
    outer loop
      vertex 1.999980e+00 1.154689e+00 -6.455100e-01
      vertex 1.000010e+00 2.886711e+00 -6.455229e-01
      vertex 1.249988e+00 2.165042e+00 0.000000e+00
    endloop
  endfacet
  facet normal 0.000000e+00 4.879611e-01 8.728654e-01
    outer loop
      vertex 1.999980e+00 -1.154689e+00 6.455100e-01
      vertex 2.499975e+00 0.000000e+00 0.000000e+00
      vertex 1.499985e+00 0.000000e+00 0.000000e+00
    endloop
  endfacet
  facet normal 8.451518e-01 4.879535e-01 2.182195e-01
    outer loop
      vertex 1.999980e+00 -1.154689e+00 6.455100e-01
      vertex 1.499985e+00 0.000000e+00 0.000000e+00
      vertex 9.999700e-01 5.773560e-01 6.455229e-01
    endloop
  endfacet
  facet normal 8.451573e-01 4.879567e-01 2.181914e-01
    outer loop
      vertex 1.999980e+00 -1.154689e+00 6.455100e-01
      vertex 9.999700e-01 5.773560e-01 6.455229e-01
      vertex 1.250007e+00 -1.443477e-01 1.291007e+00
    endloop
  endfacet
  facet normal 4.225867e-01 -2.439806e-01 8.728654e-01
    outer loop
      vertex 1.999980e+00 -1.154689e+00 6.455100e-01
      vertex 1.250007e+00 -1.443477e-01 1.291007e+00
      vertex 7.500125e-01 -1.010364e+00 1.291007e+00
    endloop
  endfacet
  facet normal -4.225892e-06 -9.759060e-01 2.181914e-01
    outer loop
      vertex 1.999980e+00 -1.154689e+00 6.455100e-01
      vertex 7.500125e-01 -1.010364e+00 1.291007e+00
      vertex -1.999980e-05 -1.154677e+00 6.455229e-01
    endloop
  endfacet
  facet normal -4.225675e-06 -9.758997e-01 2.182195e-01
    outer loop
      vertex 1.999980e+00 -1.154689e+00 6.455100e-01
      vertex -1.999980e-05 -1.154677e+00 6.455229e-01
      vertex 7.499925e-01 -1.299025e+00 0.000000e+00
    endloop
  endfacet
  facet normal -4.225867e-01 -2.439806e-01 8.728654e-01
    outer loop
      vertex 1.999980e+00 -1.154689e+00 6.455100e-01
      vertex 7.499925e-01 -1.299025e+00 0.000000e+00
      vertex 1.249987e+00 -2.165042e+00 0.000000e+00
    endloop
  endfacet
  facet normal -8.451536e-01 4.879643e-01 2.181883e-01
    outer loop
      vertex 1.999980e+00 -1.154689e+00 6.455100e-01
      vertex 1.249987e+00 -2.165042e+00 0.000000e+00
      vertex 9.999700e-01 -2.886711e+00 6.455229e-01
    endloop
  endfacet
  facet normal -8.451373e-01 4.879549e-01 2.182725e-01
    outer loop
      vertex 1.999980e+00 -1.154689e+00 6.455100e-01
      vertex 9.999700e-01 -2.886711e+00 6.455229e-01
      vertex 1.500005e+00 -2.309390e+00 1.291007e+00
    endloop
  endfacet
  facet normal 0.000000e+00 4.879500e-01 8.728716e-01
    outer loop
      vertex 1.999980e+00 -1.154689e+00 6.455100e-01
      vertex 1.500005e+00 -2.309390e+00 1.291007e+00
      vertex 2.499995e+00 -2.309390e+00 1.291007e+00
    endloop
  endfacet
  facet normal 8.451615e-01 4.879493e-01 2.181914e-01
    outer loop
      vertex 1.999980e+00 -1.154689e+00 6.455100e-01
      vertex 2.499995e+00 -2.309390e+00 1.291007e+00
      vertex 2.999950e+00 -2.886711e+00 6.455229e-01
    endloop
  endfacet
  facet normal 8.451561e-01 4.879462e-01 2.182195e-01
    outer loop
      vertex 1.999980e+00 -1.154689e+00 6.455100e-01
      vertex 2.999950e+00 -2.886711e+00 6.455229e-01
      vertex 2.749972e+00 -2.165042e+00 0.000000e+00
    endloop
  endfacet
  facet normal 4.225867e-01 -2.439806e-01 8.728654e-01
    outer loop
      vertex 1.999980e+00 -1.154689e+00 6.455100e-01
      vertex 2.749972e+00 -2.165042e+00 0.000000e+00
      vertex 3.249967e+00 -1.299025e+00 0.000000e+00
    endloop
  endfacet
  facet normal 4.225759e-06 -9.758997e-01 2.182195e-01
    outer loop
      vertex 1.999980e+00 -1.154689e+00 6.455100e-01
      vertex 3.249967e+00 -1.299025e+00 0.000000e+00
      vertex 3.999940e+00 -1.154677e+00 6.455229e-01
    endloop
  endfacet
  facet normal 4.225976e-06 -9.759060e-01 2.181914e-01
    outer loop
      vertex 1.999980e+00 -1.154689e+00 6.455100e-01
      vertex 3.999940e+00 -1.154677e+00 6.455229e-01
      vertex 3.249987e+00 -1.010364e+00 1.291007e+00
    endloop
  endfacet
  facet normal -4.225771e-01 -2.439750e-01 8.728716e-01
    outer loop
      vertex 1.999980e+00 -1.154689e+00 6.455100e-01
      vertex 3.249987e+00 -1.010364e+00 1.291007e+00
      vertex 2.749992e+00 -1.443477e-01 1.291007e+00
    endloop
  endfacet
  facet normal -8.451500e-01 4.879330e-01 2.182725e-01
    outer loop
      vertex 1.999980e+00 -1.154689e+00 6.455100e-01
      vertex 2.749992e+00 -1.443477e-01 1.291007e+00
      vertex 2.999950e+00 5.773560e-01 6.455229e-01
    endloop
  endfacet
  facet normal -8.451663e-01 4.879424e-01 2.181883e-01
    outer loop
      vertex 1.999980e+00 -1.154689e+00 6.455100e-01
      vertex 2.999950e+00 5.773560e-01 6.455229e-01
      vertex 2.499975e+00 0.000000e+00 0.000000e+00
    endloop
  endfacet
  facet normal 0.000000e+00 4.879723e-01 8.728591e-01
    outer loop
      vertex 9.868649e-17 1.356939e-16 1.936530e+00
      vertex 5.000150e-01 1.154677e+00 1.291007e+00
      vertex -4.999750e-01 1.154677e+00 1.291007e+00
    endloop
  endfacet
  facet normal 8.451530e-01 4.879493e-01 2.182242e-01
    outer loop
      vertex 9.868649e-17 1.356939e-16 1.936530e+00
      vertex -4.999750e-01 1.154677e+00 1.291007e+00
      vertex -9.999900e-01 1.732033e+00 1.936530e+00
    endloop
  endfacet
  facet normal 8.451530e-01 4.879493e-01 2.182242e-01
    outer loop
      vertex 9.868649e-17 1.356939e-16 1.936530e+00
      vertex -9.999900e-01 1.732033e+00 1.936530e+00
      vertex -7.500125e-01 1.010364e+00 2.582053e+00
    endloop
  endfacet
  facet normal 4.225867e-01 -2.439806e-01 8.728654e-01
    outer loop
      vertex 9.868649e-17 1.356939e-16 1.936530e+00
      vertex -7.500125e-01 1.010364e+00 2.582053e+00
      vertex -1.250007e+00 1.443477e-01 2.582053e+00
    endloop
  endfacet
  facet normal -1.587633e-17 -9.758987e-01 2.182242e-01
    outer loop
      vertex 9.868649e-17 1.356939e-16 1.936530e+00
      vertex -1.250007e+00 1.443477e-01 2.582053e+00
      vertex -1.999980e+00 1.185783e-16 1.936530e+00
    endloop
  endfacet
  facet normal -1.587633e-17 -9.758987e-01 2.182242e-01
    outer loop
      vertex 9.868649e-17 1.356939e-16 1.936530e+00
      vertex -1.999980e+00 1.185783e-16 1.936530e+00
      vertex -1.249968e+00 -1.443477e-01 1.291007e+00
    endloop
  endfacet
  facet normal -4.225964e-01 -2.439861e-01 8.728591e-01
    outer loop
      vertex 9.868649e-17 1.356939e-16 1.936530e+00
      vertex -1.249968e+00 -1.443477e-01 1.291007e+00
      vertex -7.499725e-01 -1.010364e+00 1.291007e+00
    endloop
  endfacet
  facet normal -8.451627e-01 4.879549e-01 2.181743e-01
    outer loop
      vertex 9.868649e-17 1.356939e-16 1.936530e+00
      vertex -7.499725e-01 -1.010364e+00 1.291007e+00
      vertex -9.999900e-01 -1.732033e+00 1.936530e+00
    endloop
  endfacet
  facet normal -8.451627e-01 4.879549e-01 2.181743e-01
    outer loop
      vertex 9.868649e-17 1.356939e-16 1.936530e+00
      vertex -9.999900e-01 -1.732033e+00 1.936530e+00
      vertex -5.000150e-01 -1.154677e+00 2.582053e+00
    endloop
  endfacet
  facet normal 0.000000e+00 4.879723e-01 8.728591e-01
    outer loop
      vertex 9.868649e-17 1.356939e-16 1.936530e+00
      vertex -5.000150e-01 -1.154677e+00 2.582053e+00
      vertex 4.999750e-01 -1.154677e+00 2.582053e+00
    endloop
  endfacet
  facet normal 8.451530e-01 4.879493e-01 2.182242e-01
    outer loop
      vertex 9.868649e-17 1.356939e-16 1.936530e+00
      vertex 4.999750e-01 -1.154677e+00 2.582053e+00
      vertex 9.999900e-01 -1.732033e+00 1.936530e+00
    endloop
  endfacet
  facet normal 8.451530e-01 4.879493e-01 2.182242e-01
    outer loop
      vertex 9.868649e-17 1.356939e-16 1.936530e+00
      vertex 9.999900e-01 -1.732033e+00 1.936530e+00
      vertex 7.500125e-01 -1.010364e+00 1.291007e+00
    endloop
  endfacet
  facet normal 4.225867e-01 -2.439806e-01 8.728654e-01
    outer loop
      vertex 9.868649e-17 1.356939e-16 1.936530e+00
      vertex 7.500125e-01 -1.010364e+00 1.291007e+00
      vertex 1.250007e+00 -1.443477e-01 1.291007e+00
    endloop
  endfacet
  facet normal 1.587633e-17 -9.758987e-01 2.182242e-01
    outer loop
      vertex 9.868649e-17 1.356939e-16 1.936530e+00
      vertex 1.250007e+00 -1.443477e-01 1.291007e+00
      vertex 1.999980e+00 1.185783e-16 1.936530e+00
    endloop
  endfacet
  facet normal 1.587633e-17 -9.758987e-01 2.182242e-01
    outer loop
      vertex 9.868649e-17 1.356939e-16 1.936530e+00
      vertex 1.999980e+00 1.185783e-16 1.936530e+00
      vertex 1.249968e+00 1.443477e-01 2.582053e+00
    endloop
  endfacet
  facet normal -4.225964e-01 -2.439861e-01 8.728591e-01
    outer loop
      vertex 9.868649e-17 1.356939e-16 1.936530e+00
      vertex 1.249968e+00 1.443477e-01 2.582053e+00
      vertex 7.499725e-01 1.010364e+00 2.582053e+00
    endloop
  endfacet
  facet normal -8.451627e-01 4.879549e-01 2.181743e-01
    outer loop
      vertex 9.868649e-17 1.356939e-16 1.936530e+00
      vertex 7.499725e-01 1.010364e+00 2.582053e+00
      vertex 9.999900e-01 1.732033e+00 1.936530e+00
    endloop
  endfacet
  facet normal -8.451627e-01 4.879549e-01 2.181743e-01
    outer loop
      vertex 9.868649e-17 1.356939e-16 1.936530e+00
      vertex 9.999900e-01 1.732033e+00 1.936530e+00
      vertex 5.000150e-01 1.154677e+00 1.291007e+00
    endloop
  endfacet
  facet normal -4.225771e-01 -2.439750e-01 8.728716e-01
    outer loop
      vertex 1.999980e+00 1.154689e+00 3.227550e+00
      vertex 7.499725e-01 1.010364e+00 2.582053e+00
      vertex 1.249968e+00 1.443477e-01 2.582053e+00
    endloop
  endfacet
  facet normal -8.451500e-01 4.879330e-01 2.182725e-01
    outer loop
      vertex 1.999980e+00 1.154689e+00 3.227550e+00
      vertex 1.249968e+00 1.443477e-01 2.582053e+00
      vertex 1.000010e+00 -5.773560e-01 3.227537e+00
    endloop
  endfacet
  facet normal -8.451663e-01 4.879424e-01 2.181883e-01
    outer loop
      vertex 1.999980e+00 1.154689e+00 3.227550e+00
      vertex 1.000010e+00 -5.773560e-01 3.227537e+00
      vertex 1.499985e+00 2.371565e-16 3.873060e+00
    endloop
  endfacet
  facet normal 0.000000e+00 4.879611e-01 8.728654e-01
    outer loop
      vertex 1.999980e+00 1.154689e+00 3.227550e+00
      vertex 1.499985e+00 2.371565e-16 3.873060e+00
      vertex 2.499975e+00 2.371565e-16 3.873060e+00
    endloop
  endfacet
  facet normal 8.451518e-01 4.879535e-01 2.182195e-01
    outer loop
      vertex 1.999980e+00 1.154689e+00 3.227550e+00
      vertex 2.499975e+00 2.371565e-16 3.873060e+00
      vertex 2.999990e+00 -5.773560e-01 3.227537e+00
    endloop
  endfacet
  facet normal 8.451573e-01 4.879567e-01 2.181914e-01
    outer loop
      vertex 1.999980e+00 1.154689e+00 3.227550e+00
      vertex 2.999990e+00 -5.773560e-01 3.227537e+00
      vertex 2.749953e+00 1.443477e-01 2.582053e+00
    endloop
  endfacet
  facet normal 4.225867e-01 -2.439806e-01 8.728654e-01
    outer loop
      vertex 1.999980e+00 1.154689e+00 3.227550e+00
      vertex 2.749953e+00 1.443477e-01 2.582053e+00
      vertex 3.249948e+00 1.010364e+00 2.582053e+00
    endloop
  endfacet
  facet normal -4.225892e-06 -9.759060e-01 2.181914e-01
    outer loop
      vertex 1.999980e+00 1.154689e+00 3.227550e+00
      vertex 3.249948e+00 1.010364e+00 2.582053e+00
      vertex 3.999980e+00 1.154677e+00 3.227537e+00
    endloop
  endfacet
  facet normal -4.225675e-06 -9.758997e-01 2.182195e-01
    outer loop
      vertex 1.999980e+00 1.154689e+00 3.227550e+00
      vertex 3.999980e+00 1.154677e+00 3.227537e+00
      vertex 3.249968e+00 1.299025e+00 3.873060e+00
    endloop
  endfacet
  facet normal -4.225867e-01 -2.439806e-01 8.728654e-01
    outer loop
      vertex 1.999980e+00 1.154689e+00 3.227550e+00
      vertex 3.249968e+00 1.299025e+00 3.873060e+00
      vertex 2.749973e+00 2.165042e+00 3.873060e+00
    endloop
  endfacet
  facet normal -8.451536e-01 4.879643e-01 2.181883e-01
    outer loop
      vertex 1.999980e+00 1.154689e+00 3.227550e+00
      vertex 2.749973e+00 2.165042e+00 3.873060e+00
      vertex 2.999990e+00 2.886711e+00 3.227537e+00
    endloop
  endfacet
  facet normal -8.451373e-01 4.879549e-01 2.182725e-01
    outer loop
      vertex 1.999980e+00 1.154689e+00 3.227550e+00
      vertex 2.999990e+00 2.886711e+00 3.227537e+00
      vertex 2.499955e+00 2.309390e+00 2.582053e+00
    endloop
  endfacet
  facet normal 0.000000e+00 4.879500e-01 8.728716e-01
    outer loop
      vertex 1.999980e+00 1.154689e+00 3.227550e+00
      vertex 2.499955e+00 2.309390e+00 2.582053e+00
      vertex 1.499965e+00 2.309390e+00 2.582053e+00
    endloop
  endfacet
  facet normal 8.451615e-01 4.879493e-01 2.181914e-01
    outer loop
      vertex 1.999980e+00 1.154689e+00 3.227550e+00
      vertex 1.499965e+00 2.309390e+00 2.582053e+00
      vertex 1.000010e+00 2.886711e+00 3.227537e+00
    endloop
  endfacet
  facet normal 8.451561e-01 4.879462e-01 2.182195e-01
    outer loop
      vertex 1.999980e+00 1.154689e+00 3.227550e+00
      vertex 1.000010e+00 2.886711e+00 3.227537e+00
      vertex 1.249988e+00 2.165042e+00 3.873060e+00
    endloop
  endfacet
  facet normal 4.225867e-01 -2.439806e-01 8.728654e-01
    outer loop
      vertex 1.999980e+00 1.154689e+00 3.227550e+00
      vertex 1.249988e+00 2.165042e+00 3.873060e+00
      vertex 7.499925e-01 1.299025e+00 3.873060e+00
    endloop
  endfacet
  facet normal 4.225759e-06 -9.758997e-01 2.182195e-01
    outer loop
      vertex 1.999980e+00 1.154689e+00 3.227550e+00
      vertex 7.499925e-01 1.299025e+00 3.873060e+00
      vertex 1.999980e-05 1.154677e+00 3.227537e+00
    endloop
  endfacet
  facet normal 4.225976e-06 -9.759060e-01 2.181914e-01
    outer loop
      vertex 1.999980e+00 1.154689e+00 3.227550e+00
      vertex 1.999980e-05 1.154677e+00 3.227537e+00
      vertex 7.499725e-01 1.010364e+00 2.582053e+00
    endloop
  endfacet
  facet normal 4.225867e-01 -2.439806e-01 8.728654e-01
    outer loop
      vertex -1.999980e+00 3.464067e+00 1.936530e+00
      vertex -1.249968e+00 2.453703e+00 1.291007e+00
      vertex -7.499725e-01 3.319719e+00 1.291007e+00
    endloop
  endfacet
  facet normal 2.422799e-17 -9.758987e-01 2.182242e-01
    outer loop
      vertex -1.999980e+00 3.464067e+00 1.936530e+00
      vertex -7.499725e-01 3.319719e+00 1.291007e+00
      vertex 8.881784e-16 3.464067e+00 1.936530e+00
    endloop
  endfacet
  facet normal 2.422799e-17 -9.758987e-01 2.182242e-01
    outer loop
      vertex -1.999980e+00 3.464067e+00 1.936530e+00
      vertex 8.881784e-16 3.464067e+00 1.936530e+00
      vertex -7.500125e-01 3.608415e+00 2.582053e+00
    endloop
  endfacet
  facet normal -4.225964e-01 -2.439861e-01 8.728591e-01
    outer loop
      vertex -1.999980e+00 3.464067e+00 1.936530e+00
      vertex -7.500125e-01 3.608415e+00 2.582053e+00
      vertex -1.250007e+00 4.474431e+00 2.582053e+00
    endloop
  endfacet
  facet normal -8.451627e-01 4.879549e-01 2.181743e-01
    outer loop
      vertex -1.999980e+00 3.464067e+00 1.936530e+00
      vertex -1.250007e+00 4.474431e+00 2.582053e+00
      vertex -9.999900e-01 5.196100e+00 1.936530e+00
    endloop
  endfacet
  facet normal -8.451627e-01 4.879549e-01 2.181743e-01
    outer loop
      vertex -1.999980e+00 3.464067e+00 1.936530e+00
      vertex -9.999900e-01 5.196100e+00 1.936530e+00
      vertex -1.499965e+00 4.618744e+00 1.291007e+00
    endloop
  endfacet
  facet normal 0.000000e+00 4.879723e-01 8.728591e-01
    outer loop
      vertex -1.999980e+00 3.464067e+00 1.936530e+00
      vertex -1.499965e+00 4.618744e+00 1.291007e+00
      vertex -2.499955e+00 4.618744e+00 1.291007e+00
    endloop
  endfacet
  facet normal 8.451530e-01 4.879493e-01 2.182242e-01
    outer loop
      vertex -1.999980e+00 3.464067e+00 1.936530e+00
      vertex -2.499955e+00 4.618744e+00 1.291007e+00
      vertex -2.999970e+00 5.196100e+00 1.936530e+00
    endloop
  endfacet
  facet normal 8.451530e-01 4.879493e-01 2.182242e-01
    outer loop
      vertex -1.999980e+00 3.464067e+00 1.936530e+00
      vertex -2.999970e+00 5.196100e+00 1.936530e+00
      vertex -2.749992e+00 4.474431e+00 2.582053e+00
    endloop
  endfacet
  facet normal 4.225867e-01 -2.439806e-01 8.728654e-01
    outer loop
      vertex -1.999980e+00 3.464067e+00 1.936530e+00
      vertex -2.749992e+00 4.474431e+00 2.582053e+00
      vertex -3.249987e+00 3.608415e+00 2.582053e+00
    endloop
  endfacet
  facet normal -2.422799e-17 -9.758987e-01 2.182242e-01
    outer loop
      vertex -1.999980e+00 3.464067e+00 1.936530e+00
      vertex -3.249987e+00 3.608415e+00 2.582053e+00
      vertex -3.999960e+00 3.464067e+00 1.936530e+00
    endloop
  endfacet
  facet normal -2.422799e-17 -9.758987e-01 2.182242e-01
    outer loop
      vertex -1.999980e+00 3.464067e+00 1.936530e+00
      vertex -3.999960e+00 3.464067e+00 1.936530e+00
      vertex -3.249948e+00 3.319719e+00 1.291007e+00
    endloop
  endfacet
  facet normal -4.225964e-01 -2.439861e-01 8.728591e-01
    outer loop
      vertex -1.999980e+00 3.464067e+00 1.936530e+00
      vertex -3.249948e+00 3.319719e+00 1.291007e+00
      vertex -2.749953e+00 2.453703e+00 1.291007e+00
    endloop
  endfacet
  facet normal -8.451627e-01 4.879549e-01 2.181743e-01
    outer loop
      vertex -1.999980e+00 3.464067e+00 1.936530e+00
      vertex -2.749953e+00 2.453703e+00 1.291007e+00
      vertex -2.999970e+00 1.732033e+00 1.936530e+00
    endloop
  endfacet
  facet normal -8.451627e-01 4.879549e-01 2.181743e-01
    outer loop
      vertex -1.999980e+00 3.464067e+00 1.936530e+00
      vertex -2.999970e+00 1.732033e+00 1.936530e+00
      vertex -2.499995e+00 2.309390e+00 2.582053e+00
    endloop
  endfacet
  facet normal 0.000000e+00 4.879723e-01 8.728591e-01
    outer loop
      vertex -1.999980e+00 3.464067e+00 1.936530e+00
      vertex -2.499995e+00 2.309390e+00 2.582053e+00
      vertex -1.500005e+00 2.309390e+00 2.582053e+00
    endloop
  endfacet
  facet normal 8.451530e-01 4.879493e-01 2.182242e-01
    outer loop
      vertex -1.999980e+00 3.464067e+00 1.936530e+00
      vertex -1.500005e+00 2.309390e+00 2.582053e+00
      vertex -9.999900e-01 1.732033e+00 1.936530e+00
    endloop
  endfacet
  facet normal 8.451530e-01 4.879493e-01 2.182242e-01
    outer loop
      vertex -1.999980e+00 3.464067e+00 1.936530e+00
      vertex -9.999900e-01 1.732033e+00 1.936530e+00
      vertex -1.249968e+00 2.453703e+00 1.291007e+00
    endloop
  endfacet
  facet normal 4.225867e-01 -2.439806e-01 8.728654e-01
    outer loop
      vertex 3.999960e+00 2.467162e-17 1.936530e+00
      vertex 3.249948e+00 1.010364e+00 2.582053e+00
      vertex 2.749953e+00 1.443477e-01 2.582053e+00
    endloop
  endfacet
  facet normal -7.005013e-17 -9.758987e-01 2.182242e-01
    outer loop
      vertex 3.999960e+00 2.467162e-17 1.936530e+00
      vertex 2.749953e+00 1.443477e-01 2.582053e+00
      vertex 1.999980e+00 1.185783e-16 1.936530e+00
    endloop
  endfacet
  facet normal -7.005013e-17 -9.758987e-01 2.182242e-01
    outer loop
      vertex 3.999960e+00 2.467162e-17 1.936530e+00
      vertex 1.999980e+00 1.185783e-16 1.936530e+00
      vertex 2.749992e+00 -1.443477e-01 1.291007e+00
    endloop
  endfacet
  facet normal -4.225964e-01 -2.439861e-01 8.728591e-01
    outer loop
      vertex 3.999960e+00 2.467162e-17 1.936530e+00
      vertex 2.749992e+00 -1.443477e-01 1.291007e+00
      vertex 3.249987e+00 -1.010364e+00 1.291007e+00
    endloop
  endfacet
  facet normal -8.451627e-01 4.879549e-01 2.181743e-01
    outer loop
      vertex 3.999960e+00 2.467162e-17 1.936530e+00
      vertex 3.249987e+00 -1.010364e+00 1.291007e+00
      vertex 2.999970e+00 -1.732033e+00 1.936530e+00
    endloop
  endfacet
  facet normal -8.451627e-01 4.879549e-01 2.181743e-01
    outer loop
      vertex 3.999960e+00 2.467162e-17 1.936530e+00
      vertex 2.999970e+00 -1.732033e+00 1.936530e+00
      vertex 3.499945e+00 -1.154677e+00 2.582053e+00
    endloop
  endfacet
  facet normal 0.000000e+00 4.879723e-01 8.728591e-01
    outer loop
      vertex 3.999960e+00 2.467162e-17 1.936530e+00
      vertex 3.499945e+00 -1.154677e+00 2.582053e+00
      vertex 4.499935e+00 -1.154677e+00 2.582053e+00
    endloop
  endfacet
  facet normal 8.451530e-01 4.879493e-01 2.182242e-01
    outer loop
      vertex 3.999960e+00 2.467162e-17 1.936530e+00
      vertex 4.499935e+00 -1.154677e+00 2.582053e+00
      vertex 4.999950e+00 -1.732033e+00 1.936530e+00
    endloop
  endfacet
  facet normal 8.451530e-01 4.879493e-01 2.182242e-01
    outer loop
      vertex 3.999960e+00 2.467162e-17 1.936530e+00
      vertex 4.999950e+00 -1.732033e+00 1.936530e+00
      vertex 4.749972e+00 -1.010364e+00 1.291007e+00
    endloop
  endfacet
  facet normal 4.225867e-01 -2.439806e-01 8.728654e-01
    outer loop
      vertex 3.999960e+00 2.467162e-17 1.936530e+00
      vertex 4.749972e+00 -1.010364e+00 1.291007e+00
      vertex 5.249967e+00 -1.443477e-01 1.291007e+00
    endloop
  endfacet
  facet normal 7.005013e-17 -9.758987e-01 2.182242e-01
    outer loop
      vertex 3.999960e+00 2.467162e-17 1.936530e+00
      vertex 5.249967e+00 -1.443477e-01 1.291007e+00
      vertex 5.999940e+00 1.185783e-16 1.936530e+00
    endloop
  endfacet
  facet normal 7.005013e-17 -9.758987e-01 2.182242e-01
    outer loop
      vertex 3.999960e+00 2.467162e-17 1.936530e+00
      vertex 5.999940e+00 1.185783e-16 1.936530e+00
      vertex 5.249928e+00 1.443477e-01 2.582053e+00
    endloop
  endfacet
  facet normal -4.225964e-01 -2.439861e-01 8.728591e-01
    outer loop
      vertex 3.999960e+00 2.467162e-17 1.936530e+00
      vertex 5.249928e+00 1.443477e-01 2.582053e+00
      vertex 4.749933e+00 1.010364e+00 2.582053e+00
    endloop
  endfacet
  facet normal -8.451627e-01 4.879549e-01 2.181743e-01
    outer loop
      vertex 3.999960e+00 2.467162e-17 1.936530e+00
      vertex 4.749933e+00 1.010364e+00 2.582053e+00
      vertex 4.999950e+00 1.732033e+00 1.936530e+00
    endloop
  endfacet
  facet normal -8.451627e-01 4.879549e-01 2.181743e-01
    outer loop
      vertex 3.999960e+00 2.467162e-17 1.936530e+00
      vertex 4.999950e+00 1.732033e+00 1.936530e+00
      vertex 4.499975e+00 1.154677e+00 1.291007e+00
    endloop
  endfacet
  facet normal 0.000000e+00 4.879723e-01 8.728591e-01
    outer loop
      vertex 3.999960e+00 2.467162e-17 1.936530e+00
      vertex 4.499975e+00 1.154677e+00 1.291007e+00
      vertex 3.499985e+00 1.154677e+00 1.291007e+00
    endloop
  endfacet
  facet normal 8.451530e-01 4.879493e-01 2.182242e-01
    outer loop
      vertex 3.999960e+00 2.467162e-17 1.936530e+00
      vertex 3.499985e+00 1.154677e+00 1.291007e+00
      vertex 2.999970e+00 1.732033e+00 1.936530e+00
    endloop
  endfacet
  facet normal 8.451530e-01 4.879493e-01 2.182242e-01
    outer loop
      vertex 3.999960e+00 2.467162e-17 1.936530e+00
      vertex 2.999970e+00 1.732033e+00 1.936530e+00
      vertex 3.249948e+00 1.010364e+00 2.582053e+00
    endloop
  endfacet
  facet normal -4.225964e-01 -2.439861e-01 8.728591e-01
    outer loop
      vertex 1.999980e+00 3.464067e+00 1.936530e+00
      vertex 7.500125e-01 3.319719e+00 1.291007e+00
      vertex 1.250007e+00 2.453703e+00 1.291007e+00
    endloop
  endfacet
  facet normal -8.451627e-01 4.879549e-01 2.181743e-01
    outer loop
      vertex 1.999980e+00 3.464067e+00 1.936530e+00
      vertex 1.250007e+00 2.453703e+00 1.291007e+00
      vertex 9.999900e-01 1.732033e+00 1.936530e+00
    endloop
  endfacet
  facet normal -8.451627e-01 4.879549e-01 2.181743e-01
    outer loop
      vertex 1.999980e+00 3.464067e+00 1.936530e+00
      vertex 9.999900e-01 1.732033e+00 1.936530e+00
      vertex 1.499965e+00 2.309390e+00 2.582053e+00
    endloop
  endfacet
  facet normal 0.000000e+00 4.879723e-01 8.728591e-01
    outer loop
      vertex 1.999980e+00 3.464067e+00 1.936530e+00
      vertex 1.499965e+00 2.309390e+00 2.582053e+00
      vertex 2.499955e+00 2.309390e+00 2.582053e+00
    endloop
  endfacet
  facet normal 8.451530e-01 4.879493e-01 2.182242e-01
    outer loop
      vertex 1.999980e+00 3.464067e+00 1.936530e+00
      vertex 2.499955e+00 2.309390e+00 2.582053e+00
      vertex 2.999970e+00 1.732033e+00 1.936530e+00
    endloop
  endfacet
  facet normal 8.451530e-01 4.879493e-01 2.182242e-01
    outer loop
      vertex 1.999980e+00 3.464067e+00 1.936530e+00
      vertex 2.999970e+00 1.732033e+00 1.936530e+00
      vertex 2.749992e+00 2.453703e+00 1.291007e+00
    endloop
  endfacet
  facet normal 4.225867e-01 -2.439806e-01 8.728654e-01
    outer loop
      vertex 1.999980e+00 3.464067e+00 1.936530e+00
      vertex 2.749992e+00 2.453703e+00 1.291007e+00
      vertex 3.249987e+00 3.319719e+00 1.291007e+00
    endloop
  endfacet
  facet normal 2.409232e-16 -9.758987e-01 2.182242e-01
    outer loop
      vertex 1.999980e+00 3.464067e+00 1.936530e+00
      vertex 3.249987e+00 3.319719e+00 1.291007e+00
      vertex 3.999960e+00 3.464067e+00 1.936530e+00
    endloop
  endfacet
  facet normal 2.409232e-16 -9.758987e-01 2.182242e-01
    outer loop
      vertex 1.999980e+00 3.464067e+00 1.936530e+00
      vertex 3.999960e+00 3.464067e+00 1.936530e+00
      vertex 3.249948e+00 3.608415e+00 2.582053e+00
    endloop
  endfacet
  facet normal -4.225964e-01 -2.439861e-01 8.728591e-01
    outer loop
      vertex 1.999980e+00 3.464067e+00 1.936530e+00
      vertex 3.249948e+00 3.608415e+00 2.582053e+00
      vertex 2.749953e+00 4.474431e+00 2.582053e+00
    endloop
  endfacet
  facet normal -8.451627e-01 4.879549e-01 2.181743e-01
    outer loop
      vertex 1.999980e+00 3.464067e+00 1.936530e+00
      vertex 2.749953e+00 4.474431e+00 2.582053e+00
      vertex 2.999970e+00 5.196100e+00 1.936530e+00
    endloop
  endfacet
  facet normal -8.451627e-01 4.879549e-01 2.181743e-01
    outer loop
      vertex 1.999980e+00 3.464067e+00 1.936530e+00
      vertex 2.999970e+00 5.196100e+00 1.936530e+00
      vertex 2.499995e+00 4.618744e+00 1.291007e+00
    endloop
  endfacet
  facet normal 0.000000e+00 4.879723e-01 8.728591e-01
    outer loop
      vertex 1.999980e+00 3.464067e+00 1.936530e+00
      vertex 2.499995e+00 4.618744e+00 1.291007e+00
      vertex 1.500005e+00 4.618744e+00 1.291007e+00
    endloop
  endfacet
  facet normal 8.451530e-01 4.879493e-01 2.182242e-01
    outer loop
      vertex 1.999980e+00 3.464067e+00 1.936530e+00
      vertex 1.500005e+00 4.618744e+00 1.291007e+00
      vertex 9.999900e-01 5.196100e+00 1.936530e+00
    endloop
  endfacet
  facet normal 8.451530e-01 4.879493e-01 2.182242e-01
    outer loop
      vertex 1.999980e+00 3.464067e+00 1.936530e+00
      vertex 9.999900e-01 5.196100e+00 1.936530e+00
      vertex 1.249968e+00 4.474431e+00 2.582053e+00
    endloop
  endfacet
  facet normal 4.225867e-01 -2.439806e-01 8.728654e-01
    outer loop
      vertex 1.999980e+00 3.464067e+00 1.936530e+00
      vertex 1.249968e+00 4.474431e+00 2.582053e+00
      vertex 7.499725e-01 3.608415e+00 2.582053e+00
    endloop
  endfacet
  facet normal -2.409232e-16 -9.758987e-01 2.182242e-01
    outer loop
      vertex 1.999980e+00 3.464067e+00 1.936530e+00
      vertex 7.499725e-01 3.608415e+00 2.582053e+00
      vertex 8.881784e-16 3.464067e+00 1.936530e+00
    endloop
  endfacet
  facet normal -2.409232e-16 -9.758987e-01 2.182242e-01
    outer loop
      vertex 1.999980e+00 3.464067e+00 1.936530e+00
      vertex 8.881784e-16 3.464067e+00 1.936530e+00
      vertex 7.500125e-01 3.319719e+00 1.291007e+00
    endloop
  endfacet
  facet normal -6.455058e-01 -3.726829e-01 -6.666556e-01
    outer loop
      vertex 3.700743e-17 -8.326673e-17 2.775558e-17
      vertex -7.499925e-01 1.299025e+00 0.000000e+00
      vertex 1.999980e-05 1.154677e+00 -6.455229e-01
    endloop
  endfacet
  facet normal 6.455230e-01 -3.726929e-01 -6.666334e-01
    outer loop
      vertex 3.700743e-17 -8.326673e-17 2.775558e-17
      vertex 1.999980e-05 1.154677e+00 -6.455229e-01
      vertex 7.499925e-01 1.299025e+00 0.000000e+00
    endloop
  endfacet
  facet normal 6.455230e-01 -3.726929e-01 -6.666334e-01
    outer loop
      vertex 3.700743e-17 -8.326673e-17 2.775558e-17
      vertex 7.499925e-01 1.299025e+00 0.000000e+00
      vertex 9.999700e-01 5.773560e-01 6.455229e-01
    endloop
  endfacet
  facet normal -5.371226e-17 7.453659e-01 -6.666556e-01
    outer loop
      vertex 3.700743e-17 -8.326673e-17 2.775558e-17
      vertex 9.999700e-01 5.773560e-01 6.455229e-01
      vertex 1.499985e+00 0.000000e+00 0.000000e+00
    endloop
  endfacet
  facet normal -5.371226e-17 7.453659e-01 -6.666556e-01
    outer loop
      vertex 3.700743e-17 -8.326673e-17 2.775558e-17
      vertex 1.499985e+00 0.000000e+00 0.000000e+00
      vertex 1.000010e+00 -5.773560e-01 -6.455229e-01
    endloop
  endfacet
  facet normal -6.455058e-01 -3.726829e-01 -6.666556e-01
    outer loop
      vertex 3.700743e-17 -8.326673e-17 2.775558e-17
      vertex 1.000010e+00 -5.773560e-01 -6.455229e-01
      vertex 7.499925e-01 -1.299025e+00 0.000000e+00
    endloop
  endfacet
  facet normal -6.455058e-01 -3.726829e-01 -6.666556e-01
    outer loop
      vertex 3.700743e-17 -8.326673e-17 2.775558e-17
      vertex 7.499925e-01 -1.299025e+00 0.000000e+00
      vertex -1.999980e-05 -1.154677e+00 6.455229e-01
    endloop
  endfacet
  facet normal 6.455230e-01 -3.726929e-01 -6.666334e-01
    outer loop
      vertex 3.700743e-17 -8.326673e-17 2.775558e-17
      vertex -1.999980e-05 -1.154677e+00 6.455229e-01
      vertex -7.499925e-01 -1.299025e+00 0.000000e+00
    endloop
  endfacet
  facet normal 6.455230e-01 -3.726929e-01 -6.666334e-01
    outer loop
      vertex 3.700743e-17 -8.326673e-17 2.775558e-17
      vertex -7.499925e-01 -1.299025e+00 0.000000e+00
      vertex -9.999700e-01 -5.773560e-01 -6.455229e-01
    endloop
  endfacet
  facet normal 5.371226e-17 7.453659e-01 -6.666556e-01
    outer loop
      vertex 3.700743e-17 -8.326673e-17 2.775558e-17
      vertex -9.999700e-01 -5.773560e-01 -6.455229e-01
      vertex -1.499985e+00 0.000000e+00 0.000000e+00
    endloop
  endfacet
  facet normal 5.371226e-17 7.453659e-01 -6.666556e-01
    outer loop
      vertex 3.700743e-17 -8.326673e-17 2.775558e-17
      vertex -1.499985e+00 0.000000e+00 0.000000e+00
      vertex -1.000010e+00 5.773560e-01 6.455229e-01
    endloop
  endfacet
  facet normal -6.455058e-01 -3.726829e-01 -6.666556e-01
    outer loop
      vertex 3.700743e-17 -8.326673e-17 2.775558e-17
      vertex -1.000010e+00 5.773560e-01 6.455229e-01
      vertex -7.499925e-01 1.299025e+00 0.000000e+00
    endloop
  endfacet
  facet normal -4.225675e-06 -9.758997e-01 2.182195e-01
    outer loop
      vertex -1.999980e+00 1.154689e+00 3.227550e+00
      vertex 1.999980e-05 1.154677e+00 3.227537e+00
      vertex -7.499925e-01 1.299025e+00 3.873060e+00
    endloop
  endfacet
  facet normal -4.225867e-01 -2.439806e-01 8.728654e-01
    outer loop
      vertex -1.999980e+00 1.154689e+00 3.227550e+00
      vertex -7.499925e-01 1.299025e+00 3.873060e+00
      vertex -1.249987e+00 2.165042e+00 3.873060e+00
    endloop
  endfacet
  facet normal -8.451536e-01 4.879643e-01 2.181883e-01
    outer loop
      vertex -1.999980e+00 1.154689e+00 3.227550e+00
      vertex -1.249987e+00 2.165042e+00 3.873060e+00
      vertex -9.999700e-01 2.886711e+00 3.227537e+00
    endloop
  endfacet
  facet normal -8.451373e-01 4.879549e-01 2.182725e-01
    outer loop
      vertex -1.999980e+00 1.154689e+00 3.227550e+00
      vertex -9.999700e-01 2.886711e+00 3.227537e+00
      vertex -1.500005e+00 2.309390e+00 2.582053e+00
    endloop
  endfacet
  facet normal 0.000000e+00 4.879500e-01 8.728716e-01
    outer loop
      vertex -1.999980e+00 1.154689e+00 3.227550e+00
      vertex -1.500005e+00 2.309390e+00 2.582053e+00
      vertex -2.499995e+00 2.309390e+00 2.582053e+00
    endloop
  endfacet
  facet normal 8.451615e-01 4.879493e-01 2.181914e-01
    outer loop
      vertex -1.999980e+00 1.154689e+00 3.227550e+00
      vertex -2.499995e+00 2.309390e+00 2.582053e+00
      vertex -2.999950e+00 2.886711e+00 3.227537e+00
    endloop
  endfacet
  facet normal 8.451561e-01 4.879462e-01 2.182195e-01
    outer loop
      vertex -1.999980e+00 1.154689e+00 3.227550e+00
      vertex -2.999950e+00 2.886711e+00 3.227537e+00
      vertex -2.749972e+00 2.165042e+00 3.873060e+00
    endloop
  endfacet
  facet normal 4.225867e-01 -2.439806e-01 8.728654e-01
    outer loop
      vertex -1.999980e+00 1.154689e+00 3.227550e+00
      vertex -2.749972e+00 2.165042e+00 3.873060e+00
      vertex -3.249967e+00 1.299025e+00 3.873060e+00
    endloop
  endfacet
  facet normal 4.225759e-06 -9.758997e-01 2.182195e-01
    outer loop
      vertex -1.999980e+00 1.154689e+00 3.227550e+00
      vertex -3.249967e+00 1.299025e+00 3.873060e+00
      vertex -3.999940e+00 1.154677e+00 3.227537e+00
    endloop
  endfacet
  facet normal 4.225976e-06 -9.759060e-01 2.181914e-01
    outer loop
      vertex -1.999980e+00 1.154689e+00 3.227550e+00
      vertex -3.999940e+00 1.154677e+00 3.227537e+00
      vertex -3.249987e+00 1.010364e+00 2.582053e+00
    endloop
  endfacet
  facet normal -4.225771e-01 -2.439750e-01 8.728716e-01
    outer loop
      vertex -1.999980e+00 1.154689e+00 3.227550e+00
      vertex -3.249987e+00 1.010364e+00 2.582053e+00
      vertex -2.749992e+00 1.443477e-01 2.582053e+00
    endloop
  endfacet
  facet normal -8.451500e-01 4.879330e-01 2.182725e-01
    outer loop
      vertex -1.999980e+00 1.154689e+00 3.227550e+00
      vertex -2.749992e+00 1.443477e-01 2.582053e+00
      vertex -2.999950e+00 -5.773560e-01 3.227537e+00
    endloop
  endfacet
  facet normal -8.451663e-01 4.879424e-01 2.181883e-01
    outer loop
      vertex -1.999980e+00 1.154689e+00 3.227550e+00
      vertex -2.999950e+00 -5.773560e-01 3.227537e+00
      vertex -2.499975e+00 2.371565e-16 3.873060e+00
    endloop
  endfacet
  facet normal 0.000000e+00 4.879611e-01 8.728654e-01
    outer loop
      vertex -1.999980e+00 1.154689e+00 3.227550e+00
      vertex -2.499975e+00 2.371565e-16 3.873060e+00
      vertex -1.499985e+00 2.371565e-16 3.873060e+00
    endloop
  endfacet
  facet normal 8.451518e-01 4.879535e-01 2.182195e-01
    outer loop
      vertex -1.999980e+00 1.154689e+00 3.227550e+00
      vertex -1.499985e+00 2.371565e-16 3.873060e+00
      vertex -9.999700e-01 -5.773560e-01 3.227537e+00
    endloop
  endfacet
  facet normal 8.451573e-01 4.879567e-01 2.181914e-01
    outer loop
      vertex -1.999980e+00 1.154689e+00 3.227550e+00
      vertex -9.999700e-01 -5.773560e-01 3.227537e+00
      vertex -1.250007e+00 1.443477e-01 2.582053e+00
    endloop
  endfacet
  facet normal 4.225867e-01 -2.439806e-01 8.728654e-01
    outer loop
      vertex -1.999980e+00 1.154689e+00 3.227550e+00
      vertex -1.250007e+00 1.443477e-01 2.582053e+00
      vertex -7.500125e-01 1.010364e+00 2.582053e+00
    endloop
  endfacet
  facet normal -4.225892e-06 -9.759060e-01 2.181914e-01
    outer loop
      vertex -1.999980e+00 1.154689e+00 3.227550e+00
      vertex -7.500125e-01 1.010364e+00 2.582053e+00
      vertex 1.999980e-05 1.154677e+00 3.227537e+00
    endloop
  endfacet
  facet normal -6.455058e-01 -3.726829e-01 -6.666556e-01
    outer loop
      vertex 3.999960e+00 3.700743e-17 2.775558e-17
      vertex 2.999950e+00 5.773560e-01 6.455229e-01
      vertex 3.249968e+00 1.299025e+00 0.000000e+00
    endloop
  endfacet
  facet normal -6.455058e-01 -3.726829e-01 -6.666556e-01
    outer loop
      vertex 3.999960e+00 3.700743e-17 2.775558e-17
      vertex 3.249968e+00 1.299025e+00 0.000000e+00
      vertex 3.999980e+00 1.154677e+00 -6.455229e-01
    endloop
  endfacet
  facet normal 6.455230e-01 -3.726929e-01 -6.666334e-01
    outer loop
      vertex 3.999960e+00 3.700743e-17 2.775558e-17
      vertex 3.999980e+00 1.154677e+00 -6.455229e-01
      vertex 4.749953e+00 1.299025e+00 0.000000e+00
    endloop
  endfacet
  facet normal 6.455230e-01 -3.726929e-01 -6.666334e-01
    outer loop
      vertex 3.999960e+00 3.700743e-17 2.775558e-17
      vertex 4.749953e+00 1.299025e+00 0.000000e+00
      vertex 4.999930e+00 5.773560e-01 6.455229e-01
    endloop
  endfacet
  facet normal 6.053839e-18 7.453659e-01 -6.666556e-01
    outer loop
      vertex 3.999960e+00 3.700743e-17 2.775558e-17
      vertex 4.999930e+00 5.773560e-01 6.455229e-01
      vertex 5.499945e+00 0.000000e+00 0.000000e+00
    endloop
  endfacet
  facet normal 6.053839e-18 7.453659e-01 -6.666556e-01
    outer loop
      vertex 3.999960e+00 3.700743e-17 2.775558e-17
      vertex 5.499945e+00 0.000000e+00 0.000000e+00
      vertex 4.999970e+00 -5.773560e-01 -6.455229e-01
    endloop
  endfacet
  facet normal -6.455058e-01 -3.726829e-01 -6.666556e-01
    outer loop
      vertex 3.999960e+00 3.700743e-17 2.775558e-17
      vertex 4.999970e+00 -5.773560e-01 -6.455229e-01
      vertex 4.749953e+00 -1.299025e+00 0.000000e+00
    endloop
  endfacet
  facet normal -6.455058e-01 -3.726829e-01 -6.666556e-01
    outer loop
      vertex 3.999960e+00 3.700743e-17 2.775558e-17
      vertex 4.749953e+00 -1.299025e+00 0.000000e+00
      vertex 3.999940e+00 -1.154677e+00 6.455229e-01
    endloop
  endfacet
  facet normal 6.455230e-01 -3.726929e-01 -6.666334e-01
    outer loop
      vertex 3.999960e+00 3.700743e-17 2.775558e-17
      vertex 3.999940e+00 -1.154677e+00 6.455229e-01
      vertex 3.249967e+00 -1.299025e+00 0.000000e+00
    endloop
  endfacet
  facet normal 6.455230e-01 -3.726929e-01 -6.666334e-01
    outer loop
      vertex 3.999960e+00 3.700743e-17 2.775558e-17
      vertex 3.249967e+00 -1.299025e+00 0.000000e+00
      vertex 2.999990e+00 -5.773560e-01 -6.455229e-01
    endloop
  endfacet
  facet normal -6.053839e-18 7.453659e-01 -6.666556e-01
    outer loop
      vertex 3.999960e+00 3.700743e-17 2.775558e-17
      vertex 2.999990e+00 -5.773560e-01 -6.455229e-01
      vertex 2.499975e+00 0.000000e+00 0.000000e+00
    endloop
  endfacet
  facet normal -6.053839e-18 7.453659e-01 -6.666556e-01
    outer loop
      vertex 3.999960e+00 3.700743e-17 2.775558e-17
      vertex 2.499975e+00 0.000000e+00 0.000000e+00
      vertex 2.999950e+00 5.773560e-01 6.455229e-01
    endloop
  endfacet
  facet normal -6.455058e-01 -3.726829e-01 -6.666556e-01
    outer loop
      vertex -1.999980e+00 3.464067e+00 3.873060e+00
      vertex -9.999700e-01 2.886711e+00 3.227537e+00
      vertex -1.249987e+00 2.165042e+00 3.873060e+00
    endloop
  endfacet
  facet normal -6.455058e-01 -3.726829e-01 -6.666556e-01
    outer loop
      vertex -1.999980e+00 3.464067e+00 3.873060e+00
      vertex -1.249987e+00 2.165042e+00 3.873060e+00
      vertex -2.000000e+00 2.309390e+00 4.518583e+00
    endloop
  endfacet
  facet normal 6.455230e-01 -3.726929e-01 -6.666334e-01
    outer loop
      vertex -1.999980e+00 3.464067e+00 3.873060e+00
      vertex -2.000000e+00 2.309390e+00 4.518583e+00
      vertex -2.749972e+00 2.165042e+00 3.873060e+00
    endloop
  endfacet
  facet normal 6.455230e-01 -3.726929e-01 -6.666334e-01
    outer loop
      vertex -1.999980e+00 3.464067e+00 3.873060e+00
      vertex -2.749972e+00 2.165042e+00 3.873060e+00
      vertex -2.999950e+00 2.886711e+00 3.227537e+00
    endloop
  endfacet
  facet normal 1.973717e-16 7.453659e-01 -6.666556e-01
    outer loop
      vertex -1.999980e+00 3.464067e+00 3.873060e+00
      vertex -2.999950e+00 2.886711e+00 3.227537e+00
      vertex -3.499965e+00 3.464067e+00 3.873060e+00
    endloop
  endfacet
  facet normal 1.973717e-16 7.453659e-01 -6.666556e-01
    outer loop
      vertex -1.999980e+00 3.464067e+00 3.873060e+00
      vertex -3.499965e+00 3.464067e+00 3.873060e+00
      vertex -2.999990e+00 4.041423e+00 4.518583e+00
    endloop
  endfacet
  facet normal -6.455058e-01 -3.726829e-01 -6.666556e-01
    outer loop
      vertex -1.999980e+00 3.464067e+00 3.873060e+00
      vertex -2.999990e+00 4.041423e+00 4.518583e+00
      vertex -2.749972e+00 4.763092e+00 3.873060e+00
    endloop
  endfacet
  facet normal -6.455058e-01 -3.726829e-01 -6.666556e-01
    outer loop
      vertex -1.999980e+00 3.464067e+00 3.873060e+00
      vertex -2.749972e+00 4.763092e+00 3.873060e+00
      vertex -1.999960e+00 4.618744e+00 3.227537e+00
    endloop
  endfacet
  facet normal 6.455230e-01 -3.726929e-01 -6.666334e-01
    outer loop
      vertex -1.999980e+00 3.464067e+00 3.873060e+00
      vertex -1.999960e+00 4.618744e+00 3.227537e+00
      vertex -1.249987e+00 4.763092e+00 3.873060e+00
    endloop
  endfacet
  facet normal 6.455230e-01 -3.726929e-01 -6.666334e-01
    outer loop
      vertex -1.999980e+00 3.464067e+00 3.873060e+00
      vertex -1.249987e+00 4.763092e+00 3.873060e+00
      vertex -1.000010e+00 4.041423e+00 4.518583e+00
    endloop
  endfacet
  facet normal -1.973717e-16 7.453659e-01 -6.666556e-01
    outer loop
      vertex -1.999980e+00 3.464067e+00 3.873060e+00
      vertex -1.000010e+00 4.041423e+00 4.518583e+00
      vertex -4.999950e-01 3.464067e+00 3.873060e+00
    endloop
  endfacet
  facet normal -1.973717e-16 7.453659e-01 -6.666556e-01
    outer loop
      vertex -1.999980e+00 3.464067e+00 3.873060e+00
      vertex -4.999950e-01 3.464067e+00 3.873060e+00
      vertex -9.999700e-01 2.886711e+00 3.227537e+00
    endloop
  endfacet
  facet normal -6.455058e-01 -3.726829e-01 -6.666556e-01
    outer loop
      vertex -1.999980e+00 3.464067e+00 2.775558e-17
      vertex -1.249987e+00 2.165042e+00 0.000000e+00
      vertex -2.000000e+00 2.309390e+00 6.455229e-01
    endloop
  endfacet
  facet normal 6.455230e-01 -3.726929e-01 -6.666334e-01
    outer loop
      vertex -1.999980e+00 3.464067e+00 2.775558e-17
      vertex -2.000000e+00 2.309390e+00 6.455229e-01
      vertex -2.749972e+00 2.165042e+00 0.000000e+00
    endloop
  endfacet
  facet normal 6.455230e-01 -3.726929e-01 -6.666334e-01
    outer loop
      vertex -1.999980e+00 3.464067e+00 2.775558e-17
      vertex -2.749972e+00 2.165042e+00 0.000000e+00
      vertex -2.999950e+00 2.886711e+00 -6.455229e-01
    endloop
  endfacet
  facet normal 1.233573e-17 7.453659e-01 -6.666556e-01
    outer loop
      vertex -1.999980e+00 3.464067e+00 2.775558e-17
      vertex -2.999950e+00 2.886711e+00 -6.455229e-01
      vertex -3.499965e+00 3.464067e+00 0.000000e+00
    endloop
  endfacet
  facet normal 1.233573e-17 7.453659e-01 -6.666556e-01
    outer loop
      vertex -1.999980e+00 3.464067e+00 2.775558e-17
      vertex -3.499965e+00 3.464067e+00 0.000000e+00
      vertex -2.999990e+00 4.041423e+00 6.455229e-01
    endloop
  endfacet
  facet normal -6.455058e-01 -3.726829e-01 -6.666556e-01
    outer loop
      vertex -1.999980e+00 3.464067e+00 2.775558e-17
      vertex -2.999990e+00 4.041423e+00 6.455229e-01
      vertex -2.749972e+00 4.763092e+00 0.000000e+00
    endloop
  endfacet
  facet normal -6.455058e-01 -3.726829e-01 -6.666556e-01
    outer loop
      vertex -1.999980e+00 3.464067e+00 2.775558e-17
      vertex -2.749972e+00 4.763092e+00 0.000000e+00
      vertex -1.999960e+00 4.618744e+00 -6.455229e-01
    endloop
  endfacet
  facet normal 6.455230e-01 -3.726929e-01 -6.666334e-01
    outer loop
      vertex -1.999980e+00 3.464067e+00 2.775558e-17
      vertex -1.999960e+00 4.618744e+00 -6.455229e-01
      vertex -1.249987e+00 4.763092e+00 0.000000e+00
    endloop
  endfacet
  facet normal 6.455230e-01 -3.726929e-01 -6.666334e-01
    outer loop
      vertex -1.999980e+00 3.464067e+00 2.775558e-17
      vertex -1.249987e+00 4.763092e+00 0.000000e+00
      vertex -1.000010e+00 4.041423e+00 6.455229e-01
    endloop
  endfacet
  facet normal -1.233573e-17 7.453659e-01 -6.666556e-01
    outer loop
      vertex -1.999980e+00 3.464067e+00 2.775558e-17
      vertex -1.000010e+00 4.041423e+00 6.455229e-01
      vertex -4.999950e-01 3.464067e+00 0.000000e+00
    endloop
  endfacet
  facet normal -1.233573e-17 7.453659e-01 -6.666556e-01
    outer loop
      vertex -1.999980e+00 3.464067e+00 2.775558e-17
      vertex -4.999950e-01 3.464067e+00 0.000000e+00
      vertex -9.999700e-01 2.886711e+00 -6.455229e-01
    endloop
  endfacet
  facet normal -6.455058e-01 -3.726829e-01 -6.666556e-01
    outer loop
      vertex -1.999980e+00 3.464067e+00 2.775558e-17
      vertex -9.999700e-01 2.886711e+00 -6.455229e-01
      vertex -1.249987e+00 2.165042e+00 0.000000e+00
    endloop
  endfacet
  facet normal -4.225675e-06 -9.758997e-01 2.182195e-01
    outer loop
      vertex 3.999960e+00 2.309378e+00 6.455100e-01
      vertex 1.999960e+00 2.309390e+00 6.455229e-01
      vertex 2.749973e+00 2.165042e+00 0.000000e+00
    endloop
  endfacet
  facet normal -4.225867e-01 -2.439806e-01 8.728654e-01
    outer loop
      vertex 3.999960e+00 2.309378e+00 6.455100e-01
      vertex 2.749973e+00 2.165042e+00 0.000000e+00
      vertex 3.249968e+00 1.299025e+00 0.000000e+00
    endloop
  endfacet
  facet normal -8.451536e-01 4.879643e-01 2.181883e-01
    outer loop
      vertex 3.999960e+00 2.309378e+00 6.455100e-01
      vertex 3.249968e+00 1.299025e+00 0.000000e+00
      vertex 2.999950e+00 5.773560e-01 6.455229e-01
    endloop
  endfacet
  facet normal -8.451373e-01 4.879549e-01 2.182725e-01
    outer loop
      vertex 3.999960e+00 2.309378e+00 6.455100e-01
      vertex 2.999950e+00 5.773560e-01 6.455229e-01
      vertex 3.499985e+00 1.154677e+00 1.291007e+00
    endloop
  endfacet
  facet normal 0.000000e+00 4.879500e-01 8.728716e-01
    outer loop
      vertex 3.999960e+00 2.309378e+00 6.455100e-01
      vertex 3.499985e+00 1.154677e+00 1.291007e+00
      vertex 4.499975e+00 1.154677e+00 1.291007e+00
    endloop
  endfacet
  facet normal 8.451615e-01 4.879493e-01 2.181914e-01
    outer loop
      vertex 3.999960e+00 2.309378e+00 6.455100e-01
      vertex 4.499975e+00 1.154677e+00 1.291007e+00
      vertex 4.999930e+00 5.773560e-01 6.455229e-01
    endloop
  endfacet
  facet normal 8.451561e-01 4.879462e-01 2.182195e-01
    outer loop
      vertex 3.999960e+00 2.309378e+00 6.455100e-01
      vertex 4.999930e+00 5.773560e-01 6.455229e-01
      vertex 4.749953e+00 1.299025e+00 0.000000e+00
    endloop
  endfacet
  facet normal 4.225867e-01 -2.439806e-01 8.728654e-01
    outer loop
      vertex 3.999960e+00 2.309378e+00 6.455100e-01
      vertex 4.749953e+00 1.299025e+00 0.000000e+00
      vertex 5.249948e+00 2.165042e+00 0.000000e+00
    endloop
  endfacet
  facet normal 4.225759e-06 -9.758997e-01 2.182195e-01
    outer loop
      vertex 3.999960e+00 2.309378e+00 6.455100e-01
      vertex 5.249948e+00 2.165042e+00 0.000000e+00
      vertex 5.999920e+00 2.309390e+00 6.455229e-01
    endloop
  endfacet
  facet normal 4.225976e-06 -9.759060e-01 2.181914e-01
    outer loop
      vertex 3.999960e+00 2.309378e+00 6.455100e-01
      vertex 5.999920e+00 2.309390e+00 6.455229e-01
      vertex 5.249967e+00 2.453703e+00 1.291007e+00
    endloop
  endfacet
  facet normal -4.225771e-01 -2.439750e-01 8.728716e-01
    outer loop
      vertex 3.999960e+00 2.309378e+00 6.455100e-01
      vertex 5.249967e+00 2.453703e+00 1.291007e+00
      vertex 4.749972e+00 3.319719e+00 1.291007e+00
    endloop
  endfacet
  facet normal -8.451500e-01 4.879330e-01 2.182725e-01
    outer loop
      vertex 3.999960e+00 2.309378e+00 6.455100e-01
      vertex 4.749972e+00 3.319719e+00 1.291007e+00
      vertex 4.999930e+00 4.041423e+00 6.455229e-01
    endloop
  endfacet
  facet normal -8.451663e-01 4.879424e-01 2.181883e-01
    outer loop
      vertex 3.999960e+00 2.309378e+00 6.455100e-01
      vertex 4.999930e+00 4.041423e+00 6.455229e-01
      vertex 4.499955e+00 3.464067e+00 0.000000e+00
    endloop
  endfacet
  facet normal 0.000000e+00 4.879611e-01 8.728654e-01
    outer loop
      vertex 3.999960e+00 2.309378e+00 6.455100e-01
      vertex 4.499955e+00 3.464067e+00 0.000000e+00
      vertex 3.499965e+00 3.464067e+00 0.000000e+00
    endloop
  endfacet
  facet normal 8.451518e-01 4.879535e-01 2.182195e-01
    outer loop
      vertex 3.999960e+00 2.309378e+00 6.455100e-01
      vertex 3.499965e+00 3.464067e+00 0.000000e+00
      vertex 2.999950e+00 4.041423e+00 6.455229e-01
    endloop
  endfacet
  facet normal 8.451573e-01 4.879567e-01 2.181914e-01
    outer loop
      vertex 3.999960e+00 2.309378e+00 6.455100e-01
      vertex 2.999950e+00 4.041423e+00 6.455229e-01
      vertex 3.249987e+00 3.319719e+00 1.291007e+00
    endloop
  endfacet
  facet normal 4.225867e-01 -2.439806e-01 8.728654e-01
    outer loop
      vertex 3.999960e+00 2.309378e+00 6.455100e-01
      vertex 3.249987e+00 3.319719e+00 1.291007e+00
      vertex 2.749992e+00 2.453703e+00 1.291007e+00
    endloop
  endfacet
  facet normal -4.225892e-06 -9.759060e-01 2.181914e-01
    outer loop
      vertex 3.999960e+00 2.309378e+00 6.455100e-01
      vertex 2.749992e+00 2.453703e+00 1.291007e+00
      vertex 1.999960e+00 2.309390e+00 6.455229e-01
    endloop
  endfacet
  facet normal 6.455230e-01 -3.726929e-01 -6.666334e-01
    outer loop
      vertex 3.145632e-16 2.405483e-16 3.873060e+00
      vertex 1.999980e-05 1.154677e+00 3.227537e+00
      vertex 7.499925e-01 1.299025e+00 3.873060e+00
    endloop
  endfacet
  facet normal 6.455230e-01 -3.726929e-01 -6.666334e-01
    outer loop
      vertex 3.145632e-16 2.405483e-16 3.873060e+00
      vertex 7.499925e-01 1.299025e+00 3.873060e+00
      vertex 9.999700e-01 5.773560e-01 4.518583e+00
    endloop
  endfacet
  facet normal -1.956863e-16 7.453659e-01 -6.666556e-01
    outer loop
      vertex 3.145632e-16 2.405483e-16 3.873060e+00
      vertex 9.999700e-01 5.773560e-01 4.518583e+00
      vertex 1.499985e+00 2.371565e-16 3.873060e+00
    endloop
  endfacet
  facet normal -1.956863e-16 7.453659e-01 -6.666556e-01
    outer loop
      vertex 3.145632e-16 2.405483e-16 3.873060e+00
      vertex 1.499985e+00 2.371565e-16 3.873060e+00
      vertex 1.000010e+00 -5.773560e-01 3.227537e+00
    endloop
  endfacet
  facet normal -6.455058e-01 -3.726829e-01 -6.666556e-01
    outer loop
      vertex 3.145632e-16 2.405483e-16 3.873060e+00
      vertex 1.000010e+00 -5.773560e-01 3.227537e+00
      vertex 7.499925e-01 -1.299025e+00 3.873060e+00
    endloop
  endfacet
  facet normal -6.455058e-01 -3.726829e-01 -6.666556e-01
    outer loop
      vertex 3.145632e-16 2.405483e-16 3.873060e+00
      vertex 7.499925e-01 -1.299025e+00 3.873060e+00
      vertex -1.999980e-05 -1.154677e+00 4.518583e+00
    endloop
  endfacet
  facet normal 6.455230e-01 -3.726929e-01 -6.666334e-01
    outer loop
      vertex 3.145632e-16 2.405483e-16 3.873060e+00
      vertex -1.999980e-05 -1.154677e+00 4.518583e+00
      vertex -7.499925e-01 -1.299025e+00 3.873060e+00
    endloop
  endfacet
  facet normal 6.455230e-01 -3.726929e-01 -6.666334e-01
    outer loop
      vertex 3.145632e-16 2.405483e-16 3.873060e+00
      vertex -7.499925e-01 -1.299025e+00 3.873060e+00
      vertex -9.999700e-01 -5.773560e-01 3.227537e+00
    endloop
  endfacet
  facet normal 1.956863e-16 7.453659e-01 -6.666556e-01
    outer loop
      vertex 3.145632e-16 2.405483e-16 3.873060e+00
      vertex -9.999700e-01 -5.773560e-01 3.227537e+00
      vertex -1.499985e+00 2.371565e-16 3.873060e+00
    endloop
  endfacet
  facet normal 1.956863e-16 7.453659e-01 -6.666556e-01
    outer loop
      vertex 3.145632e-16 2.405483e-16 3.873060e+00
      vertex -1.499985e+00 2.371565e-16 3.873060e+00
      vertex -1.000010e+00 5.773560e-01 4.518583e+00
    endloop
  endfacet
  facet normal -6.455058e-01 -3.726829e-01 -6.666556e-01
    outer loop
      vertex 3.145632e-16 2.405483e-16 3.873060e+00
      vertex -1.000010e+00 5.773560e-01 4.518583e+00
      vertex -7.499925e-01 1.299025e+00 3.873060e+00
    endloop
  endfacet
  facet normal -6.455058e-01 -3.726829e-01 -6.666556e-01
    outer loop
      vertex 3.145632e-16 2.405483e-16 3.873060e+00
      vertex -7.499925e-01 1.299025e+00 3.873060e+00
      vertex 1.999980e-05 1.154677e+00 3.227537e+00
    endloop
  endfacet
  facet normal 6.455230e-01 -3.726929e-01 -6.666334e-01
    outer loop
      vertex 1.999980e+00 3.464067e+00 2.775558e-17
      vertex 1.249988e+00 2.165042e+00 0.000000e+00
      vertex 1.000010e+00 2.886711e+00 -6.455229e-01
    endloop
  endfacet
  facet normal 2.330106e-16 7.453659e-01 -6.666556e-01
    outer loop
      vertex 1.999980e+00 3.464067e+00 2.775558e-17
      vertex 1.000010e+00 2.886711e+00 -6.455229e-01
      vertex 4.999950e-01 3.464067e+00 0.000000e+00
    endloop
  endfacet
  facet normal 2.330106e-16 7.453659e-01 -6.666556e-01
    outer loop
      vertex 1.999980e+00 3.464067e+00 2.775558e-17
      vertex 4.999950e-01 3.464067e+00 0.000000e+00
      vertex 9.999700e-01 4.041423e+00 6.455229e-01
    endloop
  endfacet
  facet normal -6.455058e-01 -3.726829e-01 -6.666556e-01
    outer loop
      vertex 1.999980e+00 3.464067e+00 2.775558e-17
      vertex 9.999700e-01 4.041423e+00 6.455229e-01
      vertex 1.249988e+00 4.763092e+00 0.000000e+00
    endloop
  endfacet
  facet normal -6.455058e-01 -3.726829e-01 -6.666556e-01
    outer loop
      vertex 1.999980e+00 3.464067e+00 2.775558e-17
      vertex 1.249988e+00 4.763092e+00 0.000000e+00
      vertex 2.000000e+00 4.618744e+00 -6.455229e-01
    endloop
  endfacet
  facet normal 6.455230e-01 -3.726929e-01 -6.666334e-01
    outer loop
      vertex 1.999980e+00 3.464067e+00 2.775558e-17
      vertex 2.000000e+00 4.618744e+00 -6.455229e-01
      vertex 2.749973e+00 4.763092e+00 0.000000e+00
    endloop
  endfacet
  facet normal 6.455230e-01 -3.726929e-01 -6.666334e-01
    outer loop
      vertex 1.999980e+00 3.464067e+00 2.775558e-17
      vertex 2.749973e+00 4.763092e+00 0.000000e+00
      vertex 2.999950e+00 4.041423e+00 6.455229e-01
    endloop
  endfacet
  facet normal -2.330106e-16 7.453659e-01 -6.666556e-01
    outer loop
      vertex 1.999980e+00 3.464067e+00 2.775558e-17
      vertex 2.999950e+00 4.041423e+00 6.455229e-01
      vertex 3.499965e+00 3.464067e+00 0.000000e+00
    endloop
  endfacet
  facet normal -2.330106e-16 7.453659e-01 -6.666556e-01
    outer loop
      vertex 1.999980e+00 3.464067e+00 2.775558e-17
      vertex 3.499965e+00 3.464067e+00 0.000000e+00
      vertex 2.999990e+00 2.886711e+00 -6.455229e-01
    endloop
  endfacet
  facet normal -6.455058e-01 -3.726829e-01 -6.666556e-01
    outer loop
      vertex 1.999980e+00 3.464067e+00 2.775558e-17
      vertex 2.999990e+00 2.886711e+00 -6.455229e-01
      vertex 2.749973e+00 2.165042e+00 0.000000e+00
    endloop
  endfacet
  facet normal -6.455058e-01 -3.726829e-01 -6.666556e-01
    outer loop
      vertex 1.999980e+00 3.464067e+00 2.775558e-17
      vertex 2.749973e+00 2.165042e+00 0.000000e+00
      vertex 1.999960e+00 2.309390e+00 6.455229e-01
    endloop
  endfacet
  facet normal 6.455230e-01 -3.726929e-01 -6.666334e-01
    outer loop
      vertex 1.999980e+00 3.464067e+00 2.775558e-17
      vertex 1.999960e+00 2.309390e+00 6.455229e-01
      vertex 1.249988e+00 2.165042e+00 0.000000e+00
    endloop
  endfacet
  facet normal -8.451663e-01 4.879424e-01 2.181883e-01
    outer loop
      vertex 1.110223e-15 4.618756e+00 3.227550e+00
      vertex -9.999700e-01 2.886711e+00 3.227537e+00
      vertex -4.999950e-01 3.464067e+00 3.873060e+00
    endloop
  endfacet
  facet normal 0.000000e+00 4.879611e-01 8.728654e-01
    outer loop
      vertex 1.110223e-15 4.618756e+00 3.227550e+00
      vertex -4.999950e-01 3.464067e+00 3.873060e+00
      vertex 4.999950e-01 3.464067e+00 3.873060e+00
    endloop
  endfacet
  facet normal 8.451518e-01 4.879535e-01 2.182195e-01
    outer loop
      vertex 1.110223e-15 4.618756e+00 3.227550e+00
      vertex 4.999950e-01 3.464067e+00 3.873060e+00
      vertex 1.000010e+00 2.886711e+00 3.227537e+00
    endloop
  endfacet
  facet normal 8.451573e-01 4.879567e-01 2.181914e-01
    outer loop
      vertex 1.110223e-15 4.618756e+00 3.227550e+00
      vertex 1.000010e+00 2.886711e+00 3.227537e+00
      vertex 7.499725e-01 3.608415e+00 2.582053e+00
    endloop
  endfacet
  facet normal 4.225867e-01 -2.439806e-01 8.728654e-01
    outer loop
      vertex 1.110223e-15 4.618756e+00 3.227550e+00
      vertex 7.499725e-01 3.608415e+00 2.582053e+00
      vertex 1.249968e+00 4.474431e+00 2.582053e+00
    endloop
  endfacet
  facet normal -4.225892e-06 -9.759060e-01 2.181914e-01
    outer loop
      vertex 1.110223e-15 4.618756e+00 3.227550e+00
      vertex 1.249968e+00 4.474431e+00 2.582053e+00
      vertex 2.000000e+00 4.618744e+00 3.227537e+00
    endloop
  endfacet
  facet normal -4.225675e-06 -9.758997e-01 2.182195e-01
    outer loop
      vertex 1.110223e-15 4.618756e+00 3.227550e+00
      vertex 2.000000e+00 4.618744e+00 3.227537e+00
      vertex 1.249988e+00 4.763092e+00 3.873060e+00
    endloop
  endfacet
  facet normal -4.225867e-01 -2.439806e-01 8.728654e-01
    outer loop
      vertex 1.110223e-15 4.618756e+00 3.227550e+00
      vertex 1.249988e+00 4.763092e+00 3.873060e+00
      vertex 7.499925e-01 5.629109e+00 3.873060e+00
    endloop
  endfacet
  facet normal -8.451536e-01 4.879643e-01 2.181883e-01
    outer loop
      vertex 1.110223e-15 4.618756e+00 3.227550e+00
      vertex 7.499925e-01 5.629109e+00 3.873060e+00
      vertex 1.000010e+00 6.350778e+00 3.227537e+00
    endloop
  endfacet
  facet normal -8.451373e-01 4.879549e-01 2.182725e-01
    outer loop
      vertex 1.110223e-15 4.618756e+00 3.227550e+00
      vertex 1.000010e+00 6.350778e+00 3.227537e+00
      vertex 4.999750e-01 5.773457e+00 2.582053e+00
    endloop
  endfacet
  facet normal 0.000000e+00 4.879500e-01 8.728716e-01
    outer loop
      vertex 1.110223e-15 4.618756e+00 3.227550e+00
      vertex 4.999750e-01 5.773457e+00 2.582053e+00
      vertex -5.000150e-01 5.773457e+00 2.582053e+00
    endloop
  endfacet
  facet normal 8.451615e-01 4.879493e-01 2.181914e-01
    outer loop
      vertex 1.110223e-15 4.618756e+00 3.227550e+00
      vertex -5.000150e-01 5.773457e+00 2.582053e+00
      vertex -9.999700e-01 6.350778e+00 3.227537e+00
    endloop
  endfacet
  facet normal 8.451561e-01 4.879462e-01 2.182195e-01
    outer loop
      vertex 1.110223e-15 4.618756e+00 3.227550e+00
      vertex -9.999700e-01 6.350778e+00 3.227537e+00
      vertex -7.499925e-01 5.629109e+00 3.873060e+00
    endloop
  endfacet
  facet normal 4.225867e-01 -2.439806e-01 8.728654e-01
    outer loop
      vertex 1.110223e-15 4.618756e+00 3.227550e+00
      vertex -7.499925e-01 5.629109e+00 3.873060e+00
      vertex -1.249987e+00 4.763092e+00 3.873060e+00
    endloop
  endfacet
  facet normal 4.225759e-06 -9.758997e-01 2.182195e-01
    outer loop
      vertex 1.110223e-15 4.618756e+00 3.227550e+00
      vertex -1.249987e+00 4.763092e+00 3.873060e+00
      vertex -1.999960e+00 4.618744e+00 3.227537e+00
    endloop
  endfacet
  facet normal 4.225976e-06 -9.759060e-01 2.181914e-01
    outer loop
      vertex 1.110223e-15 4.618756e+00 3.227550e+00
      vertex -1.999960e+00 4.618744e+00 3.227537e+00
      vertex -1.250007e+00 4.474431e+00 2.582053e+00
    endloop
  endfacet
  facet normal -4.225771e-01 -2.439750e-01 8.728716e-01
    outer loop
      vertex 1.110223e-15 4.618756e+00 3.227550e+00
      vertex -1.250007e+00 4.474431e+00 2.582053e+00
      vertex -7.500125e-01 3.608415e+00 2.582053e+00
    endloop
  endfacet
  facet normal -8.451500e-01 4.879330e-01 2.182725e-01
    outer loop
      vertex 1.110223e-15 4.618756e+00 3.227550e+00
      vertex -7.500125e-01 3.608415e+00 2.582053e+00
      vertex -9.999700e-01 2.886711e+00 3.227537e+00
    endloop
  endfacet
  facet normal 4.180465e-16 7.453659e-01 -6.666556e-01
    outer loop
      vertex 1.999980e+00 3.464067e+00 3.873060e+00
      vertex 1.000010e+00 2.886711e+00 3.227537e+00
      vertex 4.999950e-01 3.464067e+00 3.873060e+00
    endloop
  endfacet
  facet normal 4.180465e-16 7.453659e-01 -6.666556e-01
    outer loop
      vertex 1.999980e+00 3.464067e+00 3.873060e+00
      vertex 4.999950e-01 3.464067e+00 3.873060e+00
      vertex 9.999700e-01 4.041423e+00 4.518583e+00
    endloop
  endfacet
  facet normal -6.455058e-01 -3.726829e-01 -6.666556e-01
    outer loop
      vertex 1.999980e+00 3.464067e+00 3.873060e+00
      vertex 9.999700e-01 4.041423e+00 4.518583e+00
      vertex 1.249988e+00 4.763092e+00 3.873060e+00
    endloop
  endfacet
  facet normal -6.455058e-01 -3.726829e-01 -6.666556e-01
    outer loop
      vertex 1.999980e+00 3.464067e+00 3.873060e+00
      vertex 1.249988e+00 4.763092e+00 3.873060e+00
      vertex 2.000000e+00 4.618744e+00 3.227537e+00
    endloop
  endfacet
  facet normal 6.455230e-01 -3.726929e-01 -6.666334e-01
    outer loop
      vertex 1.999980e+00 3.464067e+00 3.873060e+00
      vertex 2.000000e+00 4.618744e+00 3.227537e+00
      vertex 2.749973e+00 4.763092e+00 3.873060e+00
    endloop
  endfacet
  facet normal 6.455230e-01 -3.726929e-01 -6.666334e-01
    outer loop
      vertex 1.999980e+00 3.464067e+00 3.873060e+00
      vertex 2.749973e+00 4.763092e+00 3.873060e+00
      vertex 2.999950e+00 4.041423e+00 4.518583e+00
    endloop
  endfacet
  facet normal -4.180465e-16 7.453659e-01 -6.666556e-01
    outer loop
      vertex 1.999980e+00 3.464067e+00 3.873060e+00
      vertex 2.999950e+00 4.041423e+00 4.518583e+00
      vertex 3.499965e+00 3.464067e+00 3.873060e+00
    endloop
  endfacet
  facet normal -4.180465e-16 7.453659e-01 -6.666556e-01
    outer loop
      vertex 1.999980e+00 3.464067e+00 3.873060e+00
      vertex 3.499965e+00 3.464067e+00 3.873060e+00
      vertex 2.999990e+00 2.886711e+00 3.227537e+00
    endloop
  endfacet
  facet normal -6.455058e-01 -3.726829e-01 -6.666556e-01
    outer loop
      vertex 1.999980e+00 3.464067e+00 3.873060e+00
      vertex 2.999990e+00 2.886711e+00 3.227537e+00
      vertex 2.749973e+00 2.165042e+00 3.873060e+00
    endloop
  endfacet
  facet normal -6.455058e-01 -3.726829e-01 -6.666556e-01
    outer loop
      vertex 1.999980e+00 3.464067e+00 3.873060e+00
      vertex 2.749973e+00 2.165042e+00 3.873060e+00
      vertex 1.999960e+00 2.309390e+00 4.518583e+00
    endloop
  endfacet
  facet normal 6.455230e-01 -3.726929e-01 -6.666334e-01
    outer loop
      vertex 1.999980e+00 3.464067e+00 3.873060e+00
      vertex 1.999960e+00 2.309390e+00 4.518583e+00
      vertex 1.249988e+00 2.165042e+00 3.873060e+00
    endloop
  endfacet
  facet normal 6.455230e-01 -3.726929e-01 -6.666334e-01
    outer loop
      vertex 1.999980e+00 3.464067e+00 3.873060e+00
      vertex 1.249988e+00 2.165042e+00 3.873060e+00
      vertex 1.000010e+00 2.886711e+00 3.227537e+00
    endloop
  endfacet
  facet normal -1.690778e-16 7.453659e-01 -6.666556e-01
    outer loop
      vertex -1.999975e+00 1.154686e+00 1.291017e+00
      vertex -9.999900e-01 1.732033e+00 1.936530e+00
      vertex -4.999750e-01 1.154677e+00 1.291007e+00
    endloop
  endfacet
  facet normal -1.690758e-16 7.453659e-01 -6.666556e-01
    outer loop
      vertex -1.999975e+00 1.154686e+00 1.291017e+00
      vertex -4.999750e-01 1.154677e+00 1.291007e+00
      vertex -1.000010e+00 5.773560e-01 6.455229e-01
    endloop
  endfacet
  facet normal -6.455058e-01 -3.726829e-01 -6.666556e-01
    outer loop
      vertex -1.999975e+00 1.154686e+00 1.291017e+00
      vertex -1.000010e+00 5.773560e-01 6.455229e-01
      vertex -1.249968e+00 -1.443477e-01 1.291007e+00
    endloop
  endfacet
  facet normal -6.455058e-01 -3.726829e-01 -6.666556e-01
    outer loop
      vertex -1.999975e+00 1.154686e+00 1.291017e+00
      vertex -1.249968e+00 -1.443477e-01 1.291007e+00
      vertex -1.999980e+00 1.185783e-16 1.936530e+00
    endloop
  endfacet
  facet normal 6.455251e-01 -3.726792e-01 -6.666390e-01
    outer loop
      vertex -1.999975e+00 1.154686e+00 1.291017e+00
      vertex -1.999980e+00 1.185783e-16 1.936530e+00
      vertex -2.749953e+00 -1.443477e-01 1.291007e+00
    endloop
  endfacet
  facet normal 6.454821e-01 -3.726544e-01 -6.666945e-01
    outer loop
      vertex -1.999975e+00 1.154686e+00 1.291017e+00
      vertex -2.749953e+00 -1.443477e-01 1.291007e+00
      vertex -2.999990e+00 5.773560e-01 6.455229e-01
    endloop
  endfacet
  facet normal 1.690792e-16 7.453659e-01 -6.666556e-01
    outer loop
      vertex -1.999975e+00 1.154686e+00 1.291017e+00
      vertex -2.999990e+00 5.773560e-01 6.455229e-01
      vertex -3.499945e+00 1.154677e+00 1.291007e+00
    endloop
  endfacet
  facet normal 1.690812e-16 7.453659e-01 -6.666556e-01
    outer loop
      vertex -1.999975e+00 1.154686e+00 1.291017e+00
      vertex -3.499945e+00 1.154677e+00 1.291007e+00
      vertex -2.999970e+00 1.732033e+00 1.936530e+00
    endloop
  endfacet
  facet normal -6.455058e-01 -3.726829e-01 -6.666556e-01
    outer loop
      vertex -1.999975e+00 1.154686e+00 1.291017e+00
      vertex -2.999970e+00 1.732033e+00 1.936530e+00
      vertex -2.749953e+00 2.453703e+00 1.291007e+00
    endloop
  endfacet
  facet normal -6.455058e-01 -3.726829e-01 -6.666556e-01
    outer loop
      vertex -1.999975e+00 1.154686e+00 1.291017e+00
      vertex -2.749953e+00 2.453703e+00 1.291007e+00
      vertex -2.000000e+00 2.309390e+00 6.455229e-01
    endloop
  endfacet
  facet normal 6.454692e-01 -3.726767e-01 -6.666945e-01
    outer loop
      vertex -1.999975e+00 1.154686e+00 1.291017e+00
      vertex -2.000000e+00 2.309390e+00 6.455229e-01
      vertex -1.249968e+00 2.453703e+00 1.291007e+00
    endloop
  endfacet
  facet normal 6.455122e-01 -3.727016e-01 -6.666390e-01
    outer loop
      vertex -1.999975e+00 1.154686e+00 1.291017e+00
      vertex -1.249968e+00 2.453703e+00 1.291007e+00
      vertex -9.999900e-01 1.732033e+00 1.936530e+00
    endloop
  endfacet
  facet normal 7.039311e-17 7.453659e-01 -6.666556e-01
    outer loop
      vertex 1.999985e+00 1.154686e+00 1.291017e+00
      vertex 9.999700e-01 5.773560e-01 6.455229e-01
      vertex 5.000150e-01 1.154677e+00 1.291007e+00
    endloop
  endfacet
  facet normal 7.039415e-17 7.453659e-01 -6.666556e-01
    outer loop
      vertex 1.999985e+00 1.154686e+00 1.291017e+00
      vertex 5.000150e-01 1.154677e+00 1.291007e+00
      vertex 9.999900e-01 1.732033e+00 1.936530e+00
    endloop
  endfacet
  facet normal -6.455058e-01 -3.726829e-01 -6.666556e-01
    outer loop
      vertex 1.999985e+00 1.154686e+00 1.291017e+00
      vertex 9.999900e-01 1.732033e+00 1.936530e+00
      vertex 1.250007e+00 2.453703e+00 1.291007e+00
    endloop
  endfacet
  facet normal -6.455058e-01 -3.726829e-01 -6.666556e-01
    outer loop
      vertex 1.999985e+00 1.154686e+00 1.291017e+00
      vertex 1.250007e+00 2.453703e+00 1.291007e+00
      vertex 1.999960e+00 2.309390e+00 6.455229e-01
    endloop
  endfacet
  facet normal 6.454692e-01 -3.726767e-01 -6.666945e-01
    outer loop
      vertex 1.999985e+00 1.154686e+00 1.291017e+00
      vertex 1.999960e+00 2.309390e+00 6.455229e-01
      vertex 2.749992e+00 2.453703e+00 1.291007e+00
    endloop
  endfacet
  facet normal 6.455122e-01 -3.727016e-01 -6.666390e-01
    outer loop
      vertex 1.999985e+00 1.154686e+00 1.291017e+00
      vertex 2.749992e+00 2.453703e+00 1.291007e+00
      vertex 2.999970e+00 1.732033e+00 1.936530e+00
    endloop
  endfacet
  facet normal -7.039275e-17 7.453659e-01 -6.666556e-01
    outer loop
      vertex 1.999985e+00 1.154686e+00 1.291017e+00
      vertex 2.999970e+00 1.732033e+00 1.936530e+00
      vertex 3.499985e+00 1.154677e+00 1.291007e+00
    endloop
  endfacet
  facet normal -7.039170e-17 7.453659e-01 -6.666556e-01
    outer loop
      vertex 1.999985e+00 1.154686e+00 1.291017e+00
      vertex 3.499985e+00 1.154677e+00 1.291007e+00
      vertex 2.999950e+00 5.773560e-01 6.455229e-01
    endloop
  endfacet
  facet normal -6.455058e-01 -3.726829e-01 -6.666556e-01
    outer loop
      vertex 1.999985e+00 1.154686e+00 1.291017e+00
      vertex 2.999950e+00 5.773560e-01 6.455229e-01
      vertex 2.749992e+00 -1.443477e-01 1.291007e+00
    endloop
  endfacet
  facet normal -6.455058e-01 -3.726829e-01 -6.666556e-01
    outer loop
      vertex 1.999985e+00 1.154686e+00 1.291017e+00
      vertex 2.749992e+00 -1.443477e-01 1.291007e+00
      vertex 1.999980e+00 1.185783e-16 1.936530e+00
    endloop
  endfacet
  facet normal 6.455251e-01 -3.726792e-01 -6.666390e-01
    outer loop
      vertex 1.999985e+00 1.154686e+00 1.291017e+00
      vertex 1.999980e+00 1.185783e-16 1.936530e+00
      vertex 1.250007e+00 -1.443477e-01 1.291007e+00
    endloop
  endfacet
  facet normal 6.454821e-01 -3.726544e-01 -6.666945e-01
    outer loop
      vertex 1.999985e+00 1.154686e+00 1.291017e+00
      vertex 1.250007e+00 -1.443477e-01 1.291007e+00
      vertex 9.999700e-01 5.773560e-01 6.455229e-01
    endloop
  endfacet
  facet normal -6.455058e-01 -3.726829e-01 -6.666556e-01
    outer loop
      vertex 1.999975e+00 -1.154686e+00 2.582043e+00
      vertex 1.249968e+00 1.443477e-01 2.582053e+00
      vertex 1.999980e+00 1.185783e-16 1.936530e+00
    endloop
  endfacet
  facet normal 6.455251e-01 -3.726792e-01 -6.666390e-01
    outer loop
      vertex 1.999975e+00 -1.154686e+00 2.582043e+00
      vertex 1.999980e+00 1.185783e-16 1.936530e+00
      vertex 2.749953e+00 1.443477e-01 2.582053e+00
    endloop
  endfacet
  facet normal 6.454821e-01 -3.726544e-01 -6.666945e-01
    outer loop
      vertex 1.999975e+00 -1.154686e+00 2.582043e+00
      vertex 2.749953e+00 1.443477e-01 2.582053e+00
      vertex 2.999990e+00 -5.773560e-01 3.227537e+00
    endloop
  endfacet
  facet normal -3.994694e-17 7.453659e-01 -6.666556e-01
    outer loop
      vertex 1.999975e+00 -1.154686e+00 2.582043e+00
      vertex 2.999990e+00 -5.773560e-01 3.227537e+00
      vertex 3.499945e+00 -1.154677e+00 2.582053e+00
    endloop
  endfacet
  facet normal -3.994820e-17 7.453659e-01 -6.666556e-01
    outer loop
      vertex 1.999975e+00 -1.154686e+00 2.582043e+00
      vertex 3.499945e+00 -1.154677e+00 2.582053e+00
      vertex 2.999970e+00 -1.732033e+00 1.936530e+00
    endloop
  endfacet
  facet normal -6.455058e-01 -3.726829e-01 -6.666556e-01
    outer loop
      vertex 1.999975e+00 -1.154686e+00 2.582043e+00
      vertex 2.999970e+00 -1.732033e+00 1.936530e+00
      vertex 2.749953e+00 -2.453703e+00 2.582053e+00
    endloop
  endfacet
  facet normal -6.455058e-01 -3.726829e-01 -6.666556e-01
    outer loop
      vertex 1.999975e+00 -1.154686e+00 2.582043e+00
      vertex 2.749953e+00 -2.453703e+00 2.582053e+00
      vertex 2.000000e+00 -2.309390e+00 3.227537e+00
    endloop
  endfacet
  facet normal 6.454692e-01 -3.726767e-01 -6.666945e-01
    outer loop
      vertex 1.999975e+00 -1.154686e+00 2.582043e+00
      vertex 2.000000e+00 -2.309390e+00 3.227537e+00
      vertex 1.249968e+00 -2.453703e+00 2.582053e+00
    endloop
  endfacet
  facet normal 6.455122e-01 -3.727016e-01 -6.666390e-01
    outer loop
      vertex 1.999975e+00 -1.154686e+00 2.582043e+00
      vertex 1.249968e+00 -2.453703e+00 2.582053e+00
      vertex 9.999900e-01 -1.732033e+00 1.936530e+00
    endloop
  endfacet
  facet normal 3.994741e-17 7.453659e-01 -6.666556e-01
    outer loop
      vertex 1.999975e+00 -1.154686e+00 2.582043e+00
      vertex 9.999900e-01 -1.732033e+00 1.936530e+00
      vertex 4.999750e-01 -1.154677e+00 2.582053e+00
    endloop
  endfacet
  facet normal 3.994614e-17 7.453659e-01 -6.666556e-01
    outer loop
      vertex 1.999975e+00 -1.154686e+00 2.582043e+00
      vertex 4.999750e-01 -1.154677e+00 2.582053e+00
      vertex 1.000010e+00 -5.773560e-01 3.227537e+00
    endloop
  endfacet
  facet normal -6.455058e-01 -3.726829e-01 -6.666556e-01
    outer loop
      vertex 1.999975e+00 -1.154686e+00 2.582043e+00
      vertex 1.000010e+00 -5.773560e-01 3.227537e+00
      vertex 1.249968e+00 1.443477e-01 2.582053e+00
    endloop
  endfacet
  facet normal -6.455058e-01 -3.726829e-01 -6.666556e-01
    outer loop
      vertex -4.999950e-06 2.309381e+00 2.582043e+00
      vertex -9.999700e-01 2.886711e+00 3.227537e+00
      vertex -7.500125e-01 3.608415e+00 2.582053e+00
    endloop
  endfacet
  facet normal -6.455058e-01 -3.726829e-01 -6.666556e-01
    outer loop
      vertex -4.999950e-06 2.309381e+00 2.582043e+00
      vertex -7.500125e-01 3.608415e+00 2.582053e+00
      vertex 8.881784e-16 3.464067e+00 1.936530e+00
    endloop
  endfacet
  facet normal 6.455251e-01 -3.726792e-01 -6.666390e-01
    outer loop
      vertex -4.999950e-06 2.309381e+00 2.582043e+00
      vertex 8.881784e-16 3.464067e+00 1.936530e+00
      vertex 7.499725e-01 3.608415e+00 2.582053e+00
    endloop
  endfacet
  facet normal 6.454821e-01 -3.726544e-01 -6.666945e-01
    outer loop
      vertex -4.999950e-06 2.309381e+00 2.582043e+00
      vertex 7.499725e-01 3.608415e+00 2.582053e+00
      vertex 1.000010e+00 2.886711e+00 3.227537e+00
    endloop
  endfacet
  facet normal -3.243546e-16 7.453659e-01 -6.666556e-01
    outer loop
      vertex -4.999950e-06 2.309381e+00 2.582043e+00
      vertex 1.000010e+00 2.886711e+00 3.227537e+00
      vertex 1.499965e+00 2.309390e+00 2.582053e+00
    endloop
  endfacet
  facet normal -3.243586e-16 7.453659e-01 -6.666556e-01
    outer loop
      vertex -4.999950e-06 2.309381e+00 2.582043e+00
      vertex 1.499965e+00 2.309390e+00 2.582053e+00
      vertex 9.999900e-01 1.732033e+00 1.936530e+00
    endloop
  endfacet
  facet normal -6.455058e-01 -3.726829e-01 -6.666556e-01
    outer loop
      vertex -4.999950e-06 2.309381e+00 2.582043e+00
      vertex 9.999900e-01 1.732033e+00 1.936530e+00
      vertex 7.499725e-01 1.010364e+00 2.582053e+00
    endloop
  endfacet
  facet normal -6.455058e-01 -3.726829e-01 -6.666556e-01
    outer loop
      vertex -4.999950e-06 2.309381e+00 2.582043e+00
      vertex 7.499725e-01 1.010364e+00 2.582053e+00
      vertex 1.999980e-05 1.154677e+00 3.227537e+00
    endloop
  endfacet
  facet normal 6.454692e-01 -3.726767e-01 -6.666945e-01
    outer loop
      vertex -4.999950e-06 2.309381e+00 2.582043e+00
      vertex 1.999980e-05 1.154677e+00 3.227537e+00
      vertex -7.500125e-01 1.010364e+00 2.582053e+00
    endloop
  endfacet
  facet normal 6.455122e-01 -3.727016e-01 -6.666390e-01
    outer loop
      vertex -4.999950e-06 2.309381e+00 2.582043e+00
      vertex -7.500125e-01 1.010364e+00 2.582053e+00
      vertex -9.999900e-01 1.732033e+00 1.936530e+00
    endloop
  endfacet
  facet normal 3.243521e-16 7.453659e-01 -6.666556e-01
    outer loop
      vertex -4.999950e-06 2.309381e+00 2.582043e+00
      vertex -9.999900e-01 1.732033e+00 1.936530e+00
      vertex -1.500005e+00 2.309390e+00 2.582053e+00
    endloop
  endfacet
  facet normal 3.243481e-16 7.453659e-01 -6.666556e-01
    outer loop
      vertex -4.999950e-06 2.309381e+00 2.582043e+00
      vertex -1.500005e+00 2.309390e+00 2.582053e+00
      vertex -9.999700e-01 2.886711e+00 3.227537e+00
    endloop
  endfacet
  facet normal 6.454821e-01 -3.726544e-01 -6.666945e-01
    outer loop
      vertex 4.999950e-06 4.618753e+00 1.291017e+00
      vertex -7.499725e-01 3.319719e+00 1.291007e+00
      vertex -1.000010e+00 4.041423e+00 6.455229e-01
    endloop
  endfacet
  facet normal -1.502857e-16 7.453659e-01 -6.666556e-01
    outer loop
      vertex 4.999950e-06 4.618753e+00 1.291017e+00
      vertex -1.000010e+00 4.041423e+00 6.455229e-01
      vertex -1.499965e+00 4.618744e+00 1.291007e+00
    endloop
  endfacet
  facet normal -1.502840e-16 7.453659e-01 -6.666556e-01
    outer loop
      vertex 4.999950e-06 4.618753e+00 1.291017e+00
      vertex -1.499965e+00 4.618744e+00 1.291007e+00
      vertex -9.999900e-01 5.196100e+00 1.936530e+00
    endloop
  endfacet
  facet normal -6.455058e-01 -3.726829e-01 -6.666556e-01
    outer loop
      vertex 4.999950e-06 4.618753e+00 1.291017e+00
      vertex -9.999900e-01 5.196100e+00 1.936530e+00
      vertex -7.499725e-01 5.917770e+00 1.291007e+00
    endloop
  endfacet
  facet normal -6.455058e-01 -3.726829e-01 -6.666556e-01
    outer loop
      vertex 4.999950e-06 4.618753e+00 1.291017e+00
      vertex -7.499725e-01 5.917770e+00 1.291007e+00
      vertex -1.999980e-05 5.773457e+00 6.455229e-01
    endloop
  endfacet
  facet normal 6.454692e-01 -3.726767e-01 -6.666945e-01
    outer loop
      vertex 4.999950e-06 4.618753e+00 1.291017e+00
      vertex -1.999980e-05 5.773457e+00 6.455229e-01
      vertex 7.500125e-01 5.917770e+00 1.291007e+00
    endloop
  endfacet
  facet normal 6.455122e-01 -3.727016e-01 -6.666390e-01
    outer loop
      vertex 4.999950e-06 4.618753e+00 1.291017e+00
      vertex 7.500125e-01 5.917770e+00 1.291007e+00
      vertex 9.999900e-01 5.196100e+00 1.936530e+00
    endloop
  endfacet
  facet normal 1.502810e-16 7.453659e-01 -6.666556e-01
    outer loop
      vertex 4.999950e-06 4.618753e+00 1.291017e+00
      vertex 9.999900e-01 5.196100e+00 1.936530e+00
      vertex 1.500005e+00 4.618744e+00 1.291007e+00
    endloop
  endfacet
  facet normal 1.502827e-16 7.453659e-01 -6.666556e-01
    outer loop
      vertex 4.999950e-06 4.618753e+00 1.291017e+00
      vertex 1.500005e+00 4.618744e+00 1.291007e+00
      vertex 9.999700e-01 4.041423e+00 6.455229e-01
    endloop
  endfacet
  facet normal -6.455058e-01 -3.726829e-01 -6.666556e-01
    outer loop
      vertex 4.999950e-06 4.618753e+00 1.291017e+00
      vertex 9.999700e-01 4.041423e+00 6.455229e-01
      vertex 7.500125e-01 3.319719e+00 1.291007e+00
    endloop
  endfacet
  facet normal -6.455058e-01 -3.726829e-01 -6.666556e-01
    outer loop
      vertex 4.999950e-06 4.618753e+00 1.291017e+00
      vertex 7.500125e-01 3.319719e+00 1.291007e+00
      vertex 8.881784e-16 3.464067e+00 1.936530e+00
    endloop
  endfacet
  facet normal 6.455251e-01 -3.726792e-01 -6.666390e-01
    outer loop
      vertex 4.999950e-06 4.618753e+00 1.291017e+00
      vertex 8.881784e-16 3.464067e+00 1.936530e+00
      vertex -7.499725e-01 3.319719e+00 1.291007e+00
    endloop
  endfacet
  facet normal 6.455122e-01 -3.727016e-01 -6.666390e-01
    outer loop
      vertex 3.999955e+00 2.309381e+00 2.582043e+00
      vertex 3.249948e+00 1.010364e+00 2.582053e+00
      vertex 2.999970e+00 1.732033e+00 1.936530e+00
    endloop
  endfacet
  facet normal -7.038949e-17 7.453659e-01 -6.666556e-01
    outer loop
      vertex 3.999955e+00 2.309381e+00 2.582043e+00
      vertex 2.999970e+00 1.732033e+00 1.936530e+00
      vertex 2.499955e+00 2.309390e+00 2.582053e+00
    endloop
  endfacet
  facet normal -7.038974e-17 7.453659e-01 -6.666556e-01
    outer loop
      vertex 3.999955e+00 2.309381e+00 2.582043e+00
      vertex 2.499955e+00 2.309390e+00 2.582053e+00
      vertex 2.999990e+00 2.886711e+00 3.227537e+00
    endloop
  endfacet
  facet normal -6.455058e-01 -3.726829e-01 -6.666556e-01
    outer loop
      vertex 3.999955e+00 2.309381e+00 2.582043e+00
      vertex 2.999990e+00 2.886711e+00 3.227537e+00
      vertex 3.249948e+00 3.608415e+00 2.582053e+00
    endloop
  endfacet
  facet normal -6.455058e-01 -3.726829e-01 -6.666556e-01
    outer loop
      vertex 3.999955e+00 2.309381e+00 2.582043e+00
      vertex 3.249948e+00 3.608415e+00 2.582053e+00
      vertex 3.999960e+00 3.464067e+00 1.936530e+00
    endloop
  endfacet
  facet normal 6.455251e-01 -3.726792e-01 -6.666390e-01
    outer loop
      vertex 3.999955e+00 2.309381e+00 2.582043e+00
      vertex 3.999960e+00 3.464067e+00 1.936530e+00
      vertex 4.749933e+00 3.608415e+00 2.582053e+00
    endloop
  endfacet
  facet normal 6.454821e-01 -3.726544e-01 -6.666945e-01
    outer loop
      vertex 3.999955e+00 2.309381e+00 2.582043e+00
      vertex 4.749933e+00 3.608415e+00 2.582053e+00
      vertex 4.999970e+00 2.886711e+00 3.227537e+00
    endloop
  endfacet
  facet normal 7.039115e-17 7.453659e-01 -6.666556e-01
    outer loop
      vertex 3.999955e+00 2.309381e+00 2.582043e+00
      vertex 4.999970e+00 2.886711e+00 3.227537e+00
      vertex 5.499925e+00 2.309390e+00 2.582053e+00
    endloop
  endfacet
  facet normal 7.039089e-17 7.453659e-01 -6.666556e-01
    outer loop
      vertex 3.999955e+00 2.309381e+00 2.582043e+00
      vertex 5.499925e+00 2.309390e+00 2.582053e+00
      vertex 4.999950e+00 1.732033e+00 1.936530e+00
    endloop
  endfacet
  facet normal -6.455058e-01 -3.726829e-01 -6.666556e-01
    outer loop
      vertex 3.999955e+00 2.309381e+00 2.582043e+00
      vertex 4.999950e+00 1.732033e+00 1.936530e+00
      vertex 4.749933e+00 1.010364e+00 2.582053e+00
    endloop
  endfacet
  facet normal -6.455058e-01 -3.726829e-01 -6.666556e-01
    outer loop
      vertex 3.999955e+00 2.309381e+00 2.582043e+00
      vertex 4.749933e+00 1.010364e+00 2.582053e+00
      vertex 3.999980e+00 1.154677e+00 3.227537e+00
    endloop
  endfacet
  facet normal 6.454692e-01 -3.726767e-01 -6.666945e-01
    outer loop
      vertex 3.999955e+00 2.309381e+00 2.582043e+00
      vertex 3.999980e+00 1.154677e+00 3.227537e+00
      vertex 3.249948e+00 1.010364e+00 2.582053e+00
    endloop
  endfacet
endsolid surface_model
