solid surface_model
  facet normal 4.364358e-01 -2.182179e-01 -8.728716e-01
    outer loop
      vertex 1.019308e+00 0.000000e+00 2.038615e+00
      vertex 9.362188e-17 9.362188e-17 1.528961e+00
      vertex 5.096538e-01 1.019308e+00 1.528961e+00
    endloop
  endfacet
  facet normal -5.773503e-01 -5.773503e-01 -5.773503e-01
    outer loop
      vertex 1.019308e+00 0.000000e+00 2.038615e+00
      vertex 5.096538e-01 1.019308e+00 1.528961e+00
      vertex 1.019308e+00 1.019308e+00 1.019308e+00
    endloop
  endfacet
  facet normal -5.773503e-01 -5.773503e-01 -5.773503e-01
    outer loop
      vertex 1.019308e+00 0.000000e+00 2.038615e+00
      vertex 1.019308e+00 1.019308e+00 1.019308e+00
      vertex 1.528961e+00 5.096538e-01 1.019308e+00
    endloop
  endfacet
  facet normal 4.364358e-01 -8.728716e-01 -2.182179e-01
    outer loop
      vertex 1.019308e+00 0.000000e+00 2.038615e+00
      vertex 1.528961e+00 5.096538e-01 1.019308e+00
      vertex 2.038615e+00 5.096538e-01 2.038615e+00
    endloop
  endfacet
  facet normal 3.333333e-01 -6.666667e-01 6.666667e-01
    outer loop
      vertex 1.019308e+00 0.000000e+00 2.038615e+00
      vertex 2.038615e+00 5.096538e-01 2.038615e+00
      vertex 1.019308e+00 5.096538e-01 2.548269e+00
    endloop
  endfacet
  facet normal 3.333333e-01 -6.666667e-01 6.666667e-01
    outer loop
      vertex 1.019308e+00 0.000000e+00 2.038615e+00
      vertex 1.019308e+00 5.096538e-01 2.548269e+00
      vertex 1.560365e-16 1.560365e-16 2.548269e+00
    endloop
  endfacet
  facet normal 4.364358e-01 2.182179e-01 8.728716e-01
    outer loop
      vertex 1.019308e+00 0.000000e+00 2.038615e+00
      vertex 1.560365e-16 1.560365e-16 2.548269e+00
      vertex 5.096538e-01 -1.019308e+00 2.548269e+00
    endloop
  endfacet
  facet normal -5.773503e-01 5.773503e-01 5.773503e-01
    outer loop
      vertex 1.019308e+00 0.000000e+00 2.038615e+00
      vertex 5.096538e-01 -1.019308e+00 2.548269e+00
      vertex 1.019308e+00 -1.019308e+00 3.057923e+00
    endloop
  endfacet
  facet normal -5.773503e-01 5.773503e-01 5.773503e-01
    outer loop
      vertex 1.019308e+00 0.000000e+00 2.038615e+00
      vertex 1.019308e+00 -1.019308e+00 3.057923e+00
      vertex 1.528961e+00 -5.096538e-01 3.057923e+00
    endloop
  endfacet
  facet normal 4.364358e-01 8.728716e-01 2.182179e-01
    outer loop
      vertex 1.019308e+00 0.000000e+00 2.038615e+00
      vertex 1.528961e+00 -5.096538e-01 3.057923e+00
      vertex 2.038615e+00 -5.096538e-01 2.038615e+00
    endloop
  endfacet
  facet normal 3.333333e-01 6.666667e-01 -6.666667e-01
    outer loop
      vertex 1.019308e+00 0.000000e+00 2.038615e+00
      vertex 2.038615e+00 -5.096538e-01 2.038615e+00
      vertex 1.019308e+00 -5.096538e-01 1.528961e+00
    endloop
  endfacet
  facet normal 3.333333e-01 6.666667e-01 -6.666667e-01
    outer loop
      vertex 1.019308e+00 0.000000e+00 2.038615e+00
      vertex 1.019308e+00 -5.096538e-01 1.528961e+00
      vertex 9.362188e-17 9.362188e-17 1.528961e+00
    endloop
  endfacet
  facet normal -6.666667e-01 3.333333e-01 -6.666667e-01
    outer loop
      vertex 1.387779e-16 1.019308e+00 2.038615e+00
      vertex 5.096538e-01 1.019308e+00 1.528961e+00
      vertex 9.362188e-17 9.362188e-17 1.528961e+00
    endloop
  endfacet
  facet normal 2.182179e-01 4.364358e-01 -8.728716e-01
    outer loop
      vertex 1.387779e-16 1.019308e+00 2.038615e+00
      vertex 9.362188e-17 9.362188e-17 1.528961e+00
      vertex -1.019308e+00 5.096538e-01 1.528961e+00
    endloop
  endfacet
  facet normal 5.773503e-01 -5.773503e-01 -5.773503e-01
    outer loop
      vertex 1.387779e-16 1.019308e+00 2.038615e+00
      vertex -1.019308e+00 5.096538e-01 1.528961e+00
      vertex -1.019308e+00 1.019308e+00 1.019308e+00
    endloop
  endfacet
  facet normal 5.773503e-01 -5.773503e-01 -5.773503e-01
    outer loop
      vertex 1.387779e-16 1.019308e+00 2.038615e+00
      vertex -1.019308e+00 1.019308e+00 1.019308e+00
      vertex -5.096538e-01 1.528961e+00 1.019308e+00
    endloop
  endfacet
  facet normal 8.728716e-01 4.364358e-01 -2.182179e-01
    outer loop
      vertex 1.387779e-16 1.019308e+00 2.038615e+00
      vertex -5.096538e-01 1.528961e+00 1.019308e+00
      vertex -5.096538e-01 2.038615e+00 2.038615e+00
    endloop
  endfacet
  facet normal 6.666667e-01 3.333333e-01 6.666667e-01
    outer loop
      vertex 1.387779e-16 1.019308e+00 2.038615e+00
      vertex -5.096538e-01 2.038615e+00 2.038615e+00
      vertex -5.096538e-01 1.019308e+00 2.548269e+00
    endloop
  endfacet
  facet normal 6.666667e-01 3.333333e-01 6.666667e-01
    outer loop
      vertex 1.387779e-16 1.019308e+00 2.038615e+00
      vertex -5.096538e-01 1.019308e+00 2.548269e+00
      vertex 1.560365e-16 1.560365e-16 2.548269e+00
    endloop
  endfacet
  facet normal -2.182179e-01 4.364358e-01 8.728716e-01
    outer loop
      vertex 1.387779e-16 1.019308e+00 2.038615e+00
      vertex 1.560365e-16 1.560365e-16 2.548269e+00
      vertex 1.019308e+00 5.096538e-01 2.548269e+00
    endloop
  endfacet
  facet normal -5.773503e-01 -5.773503e-01 5.773503e-01
    outer loop
      vertex 1.387779e-16 1.019308e+00 2.038615e+00
      vertex 1.019308e+00 5.096538e-01 2.548269e+00
      vertex 1.019308e+00 1.019308e+00 3.057923e+00
    endloop
  endfacet
  facet normal -5.773503e-01 -5.773503e-01 5.773503e-01
    outer loop
      vertex 1.387779e-16 1.019308e+00 2.038615e+00
      vertex 1.019308e+00 1.019308e+00 3.057923e+00
      vertex 5.096538e-01 1.528961e+00 3.057923e+00
    endloop
  endfacet
  facet normal -8.728716e-01 4.364358e-01 2.182179e-01
    outer loop
      vertex 1.387779e-16 1.019308e+00 2.038615e+00
      vertex 5.096538e-01 1.528961e+00 3.057923e+00
      vertex 5.096538e-01 2.038615e+00 2.038615e+00
    endloop
  endfacet
  facet normal -6.666667e-01 3.333333e-01 -6.666667e-01
    outer loop
      vertex 1.387779e-16 1.019308e+00 2.038615e+00
      vertex 5.096538e-01 2.038615e+00 2.038615e+00
      vertex 5.096538e-01 1.019308e+00 1.528961e+00
    endloop
  endfacet
  facet normal -2.182179e-01 -4.364358e-01 -8.728716e-01
    outer loop
      vertex 0.000000e+00 -1.019308e+00 2.038615e+00
      vertex 9.362188e-17 9.362188e-17 1.528961e+00
      vertex 1.019308e+00 -5.096538e-01 1.528961e+00
    endloop
  endfacet
  facet normal -5.773503e-01 5.773503e-01 -5.773503e-01
    outer loop
      vertex 0.000000e+00 -1.019308e+00 2.038615e+00
      vertex 1.019308e+00 -5.096538e-01 1.528961e+00
      vertex 1.019308e+00 -1.019308e+00 1.019308e+00
    endloop
  endfacet
  facet normal -5.773503e-01 5.773503e-01 -5.773503e-01
    outer loop
      vertex 0.000000e+00 -1.019308e+00 2.038615e+00
      vertex 1.019308e+00 -1.019308e+00 1.019308e+00
      vertex 5.096538e-01 -1.528961e+00 1.019308e+00
    endloop
  endfacet
  facet normal -8.728716e-01 -4.364358e-01 -2.182179e-01
    outer loop
      vertex 0.000000e+00 -1.019308e+00 2.038615e+00
      vertex 5.096538e-01 -1.528961e+00 1.019308e+00
      vertex 5.096538e-01 -2.038615e+00 2.038615e+00
    endloop
  endfacet
  facet normal -6.666667e-01 -3.333333e-01 6.666667e-01
    outer loop
      vertex 0.000000e+00 -1.019308e+00 2.038615e+00
      vertex 5.096538e-01 -2.038615e+00 2.038615e+00
      vertex 5.096538e-01 -1.019308e+00 2.548269e+00
    endloop
  endfacet
  facet normal -6.666667e-01 -3.333333e-01 6.666667e-01
    outer loop
      vertex 0.000000e+00 -1.019308e+00 2.038615e+00
      vertex 5.096538e-01 -1.019308e+00 2.548269e+00
      vertex 1.560365e-16 1.560365e-16 2.548269e+00
    endloop
  endfacet
  facet normal 2.182179e-01 -4.364358e-01 8.728716e-01
    outer loop
      vertex 0.000000e+00 -1.019308e+00 2.038615e+00
      vertex 1.560365e-16 1.560365e-16 2.548269e+00
      vertex -1.019308e+00 -5.096538e-01 2.548269e+00
    endloop
  endfacet
  facet normal 5.773503e-01 5.773503e-01 5.773503e-01
    outer loop
      vertex 0.000000e+00 -1.019308e+00 2.038615e+00
      vertex -1.019308e+00 -5.096538e-01 2.548269e+00
      vertex -1.019308e+00 -1.019308e+00 3.057923e+00
    endloop
  endfacet
  facet normal 5.773503e-01 5.773503e-01 5.773503e-01
    outer loop
      vertex 0.000000e+00 -1.019308e+00 2.038615e+00
      vertex -1.019308e+00 -1.019308e+00 3.057923e+00
      vertex -5.096538e-01 -1.528961e+00 3.057923e+00
    endloop
  endfacet
  facet normal 8.728716e-01 -4.364358e-01 2.182179e-01
    outer loop
      vertex 0.000000e+00 -1.019308e+00 2.038615e+00
      vertex -5.096538e-01 -1.528961e+00 3.057923e+00
      vertex -5.096538e-01 -2.038615e+00 2.038615e+00
    endloop
  endfacet
  facet normal 6.666667e-01 -3.333333e-01 -6.666667e-01
    outer loop
      vertex 0.000000e+00 -1.019308e+00 2.038615e+00
      vertex -5.096538e-01 -2.038615e+00 2.038615e+00
      vertex -5.096538e-01 -1.019308e+00 1.528961e+00
    endloop
  endfacet
  facet normal 6.666667e-01 -3.333333e-01 -6.666667e-01
    outer loop
      vertex 0.000000e+00 -1.019308e+00 2.038615e+00
      vertex -5.096538e-01 -1.019308e+00 1.528961e+00
      vertex 9.362188e-17 9.362188e-17 1.528961e+00
    endloop
  endfacet
  facet normal 3.333333e-01 6.666667e-01 -6.666667e-01
    outer loop
      vertex 1.019308e+00 4.077230e+00 2.038615e+00
      vertex 1.019308e+00 3.567576e+00 1.528961e+00
      vertex 3.432802e-16 4.077230e+00 1.528961e+00
    endloop
  endfacet
  facet normal 4.364358e-01 -2.182179e-01 -8.728716e-01
    outer loop
      vertex 1.019308e+00 4.077230e+00 2.038615e+00
      vertex 3.432802e-16 4.077230e+00 1.528961e+00
      vertex 5.096538e-01 5.096538e+00 1.528961e+00
    endloop
  endfacet
  facet normal -5.773503e-01 -5.773503e-01 -5.773503e-01
    outer loop
      vertex 1.019308e+00 4.077230e+00 2.038615e+00
      vertex 5.096538e-01 5.096538e+00 1.528961e+00
      vertex 1.019308e+00 5.096538e+00 1.019308e+00
    endloop
  endfacet
  facet normal -5.773503e-01 -5.773503e-01 -5.773503e-01
    outer loop
      vertex 1.019308e+00 4.077230e+00 2.038615e+00
      vertex 1.019308e+00 5.096538e+00 1.019308e+00
      vertex 1.528961e+00 4.586884e+00 1.019308e+00
    endloop
  endfacet
  facet normal 4.364358e-01 -8.728716e-01 -2.182179e-01
    outer loop
      vertex 1.019308e+00 4.077230e+00 2.038615e+00
      vertex 1.528961e+00 4.586884e+00 1.019308e+00
      vertex 2.038615e+00 4.586884e+00 2.038615e+00
    endloop
  endfacet
  facet normal 3.333333e-01 -6.666667e-01 6.666667e-01
    outer loop
      vertex 1.019308e+00 4.077230e+00 2.038615e+00
      vertex 2.038615e+00 4.586884e+00 2.038615e+00
      vertex 1.019308e+00 4.586884e+00 2.548269e+00
    endloop
  endfacet
  facet normal 3.333333e-01 -6.666667e-01 6.666667e-01
    outer loop
      vertex 1.019308e+00 4.077230e+00 2.038615e+00
      vertex 1.019308e+00 4.586884e+00 2.548269e+00
      vertex 4.056948e-16 4.077230e+00 2.548269e+00
    endloop
  endfacet
  facet normal 4.364358e-01 2.182179e-01 8.728716e-01
    outer loop
      vertex 1.019308e+00 4.077230e+00 2.038615e+00
      vertex 4.056948e-16 4.077230e+00 2.548269e+00
      vertex 5.096538e-01 3.057923e+00 2.548269e+00
    endloop
  endfacet
  facet normal -5.773503e-01 5.773503e-01 5.773503e-01
    outer loop
      vertex 1.019308e+00 4.077230e+00 2.038615e+00
      vertex 5.096538e-01 3.057923e+00 2.548269e+00
      vertex 1.019308e+00 3.057923e+00 3.057923e+00
    endloop
  endfacet
  facet normal -5.773503e-01 5.773503e-01 5.773503e-01
    outer loop
      vertex 1.019308e+00 4.077230e+00 2.038615e+00
      vertex 1.019308e+00 3.057923e+00 3.057923e+00
      vertex 1.528961e+00 3.567576e+00 3.057923e+00
    endloop
  endfacet
  facet normal 4.364358e-01 8.728716e-01 2.182179e-01
    outer loop
      vertex 1.019308e+00 4.077230e+00 2.038615e+00
      vertex 1.528961e+00 3.567576e+00 3.057923e+00
      vertex 2.038615e+00 3.567576e+00 2.038615e+00
    endloop
  endfacet
  facet normal 3.333333e-01 6.666667e-01 -6.666667e-01
    outer loop
      vertex 1.019308e+00 4.077230e+00 2.038615e+00
      vertex 2.038615e+00 3.567576e+00 2.038615e+00
      vertex 1.019308e+00 3.567576e+00 1.528961e+00
    endloop
  endfacet
  facet normal -4.364358e-01 2.182179e-01 -8.728716e-01
    outer loop
      vertex -1.019308e+00 5.551115e-17 2.038615e+00
      vertex 9.362188e-17 9.362188e-17 1.528961e+00
      vertex -5.096538e-01 -1.019308e+00 1.528961e+00
    endloop
  endfacet
  facet normal 5.773503e-01 5.773503e-01 -5.773503e-01
    outer loop
      vertex -1.019308e+00 5.551115e-17 2.038615e+00
      vertex -5.096538e-01 -1.019308e+00 1.528961e+00
      vertex -1.019308e+00 -1.019308e+00 1.019308e+00
    endloop
  endfacet
  facet normal 5.773503e-01 5.773503e-01 -5.773503e-01
    outer loop
      vertex -1.019308e+00 5.551115e-17 2.038615e+00
      vertex -1.019308e+00 -1.019308e+00 1.019308e+00
      vertex -1.528961e+00 -5.096538e-01 1.019308e+00
    endloop
  endfacet
  facet normal -4.364358e-01 8.728716e-01 -2.182179e-01
    outer loop
      vertex -1.019308e+00 5.551115e-17 2.038615e+00
      vertex -1.528961e+00 -5.096538e-01 1.019308e+00
      vertex -2.038615e+00 -5.096538e-01 2.038615e+00
    endloop
  endfacet
  facet normal -3.333333e-01 6.666667e-01 6.666667e-01
    outer loop
      vertex -1.019308e+00 5.551115e-17 2.038615e+00
      vertex -2.038615e+00 -5.096538e-01 2.038615e+00
      vertex -1.019308e+00 -5.096538e-01 2.548269e+00
    endloop
  endfacet
  facet normal -3.333333e-01 6.666667e-01 6.666667e-01
    outer loop
      vertex -1.019308e+00 5.551115e-17 2.038615e+00
      vertex -1.019308e+00 -5.096538e-01 2.548269e+00
      vertex 1.560365e-16 1.560365e-16 2.548269e+00
    endloop
  endfacet
  facet normal -4.364358e-01 -2.182179e-01 8.728716e-01
    outer loop
      vertex -1.019308e+00 5.551115e-17 2.038615e+00
      vertex 1.560365e-16 1.560365e-16 2.548269e+00
      vertex -5.096538e-01 1.019308e+00 2.548269e+00
    endloop
  endfacet
  facet normal 5.773503e-01 -5.773503e-01 5.773503e-01
    outer loop
      vertex -1.019308e+00 5.551115e-17 2.038615e+00
      vertex -5.096538e-01 1.019308e+00 2.548269e+00
      vertex -1.019308e+00 1.019308e+00 3.057923e+00
    endloop
  endfacet
  facet normal 5.773503e-01 -5.773503e-01 5.773503e-01
    outer loop
      vertex -1.019308e+00 5.551115e-17 2.038615e+00
      vertex -1.019308e+00 1.019308e+00 3.057923e+00
      vertex -1.528961e+00 5.096538e-01 3.057923e+00
    endloop
  endfacet
  facet normal -4.364358e-01 -8.728716e-01 2.182179e-01
    outer loop
      vertex -1.019308e+00 5.551115e-17 2.038615e+00
      vertex -1.528961e+00 5.096538e-01 3.057923e+00
      vertex -2.038615e+00 5.096538e-01 2.038615e+00
    endloop
  endfacet
  facet normal -3.333333e-01 -6.666667e-01 -6.666667e-01
    outer loop
      vertex -1.019308e+00 5.551115e-17 2.038615e+00
      vertex -2.038615e+00 5.096538e-01 2.038615e+00
      vertex -1.019308e+00 5.096538e-01 1.528961e+00
    endloop
  endfacet
  facet normal -3.333333e-01 -6.666667e-01 -6.666667e-01
    outer loop
      vertex -1.019308e+00 5.551115e-17 2.038615e+00
      vertex -1.019308e+00 5.096538e-01 1.528961e+00
      vertex 9.362188e-17 9.362188e-17 1.528961e+00
    endloop
  endfacet
  facet normal 6.666667e-01 -3.333333e-01 -6.666667e-01
    outer loop
      vertex 4.077230e+00 3.057923e+00 2.038615e+00
      vertex 3.567576e+00 3.057923e+00 1.528961e+00
      vertex 4.077230e+00 4.077230e+00 1.528961e+00
    endloop
  endfacet
  facet normal -2.182179e-01 -4.364358e-01 -8.728716e-01
    outer loop
      vertex 4.077230e+00 3.057923e+00 2.038615e+00
      vertex 4.077230e+00 4.077230e+00 1.528961e+00
      vertex 5.096538e+00 3.567576e+00 1.528961e+00
    endloop
  endfacet
  facet normal -5.773503e-01 5.773503e-01 -5.773503e-01
    outer loop
      vertex 4.077230e+00 3.057923e+00 2.038615e+00
      vertex 5.096538e+00 3.567576e+00 1.528961e+00
      vertex 5.096538e+00 3.057923e+00 1.019308e+00
    endloop
  endfacet
  facet normal -5.773503e-01 5.773503e-01 -5.773503e-01
    outer loop
      vertex 4.077230e+00 3.057923e+00 2.038615e+00
      vertex 5.096538e+00 3.057923e+00 1.019308e+00
      vertex 4.586884e+00 2.548269e+00 1.019308e+00
    endloop
  endfacet
  facet normal -8.728716e-01 -4.364358e-01 -2.182179e-01
    outer loop
      vertex 4.077230e+00 3.057923e+00 2.038615e+00
      vertex 4.586884e+00 2.548269e+00 1.019308e+00
      vertex 4.586884e+00 2.038615e+00 2.038615e+00
    endloop
  endfacet
  facet normal -6.666667e-01 -3.333333e-01 6.666667e-01
    outer loop
      vertex 4.077230e+00 3.057923e+00 2.038615e+00
      vertex 4.586884e+00 2.038615e+00 2.038615e+00
      vertex 4.586884e+00 3.057923e+00 2.548269e+00
    endloop
  endfacet
  facet normal -6.666667e-01 -3.333333e-01 6.666667e-01
    outer loop
      vertex 4.077230e+00 3.057923e+00 2.038615e+00
      vertex 4.586884e+00 3.057923e+00 2.548269e+00
      vertex 4.077230e+00 4.077230e+00 2.548269e+00
    endloop
  endfacet
  facet normal 2.182179e-01 -4.364358e-01 8.728716e-01
    outer loop
      vertex 4.077230e+00 3.057923e+00 2.038615e+00
      vertex 4.077230e+00 4.077230e+00 2.548269e+00
      vertex 3.057923e+00 3.567576e+00 2.548269e+00
    endloop
  endfacet
  facet normal 5.773503e-01 5.773503e-01 5.773503e-01
    outer loop
      vertex 4.077230e+00 3.057923e+00 2.038615e+00
      vertex 3.057923e+00 3.567576e+00 2.548269e+00
      vertex 3.057923e+00 3.057923e+00 3.057923e+00
    endloop
  endfacet
  facet normal 5.773503e-01 5.773503e-01 5.773503e-01
    outer loop
      vertex 4.077230e+00 3.057923e+00 2.038615e+00
      vertex 3.057923e+00 3.057923e+00 3.057923e+00
      vertex 3.567576e+00 2.548269e+00 3.057923e+00
    endloop
  endfacet
  facet normal 8.728716e-01 -4.364358e-01 2.182179e-01
    outer loop
      vertex 4.077230e+00 3.057923e+00 2.038615e+00
      vertex 3.567576e+00 2.548269e+00 3.057923e+00
      vertex 3.567576e+00 2.038615e+00 2.038615e+00
    endloop
  endfacet
  facet normal 6.666667e-01 -3.333333e-01 -6.666667e-01
    outer loop
      vertex 4.077230e+00 3.057923e+00 2.038615e+00
      vertex 3.567576e+00 2.038615e+00 2.038615e+00
      vertex 3.567576e+00 3.057923e+00 1.528961e+00
    endloop
  endfacet
  facet normal -3.333333e-01 -6.666667e-01 -6.666667e-01
    outer loop
      vertex 3.057923e+00 4.625929e-17 2.038615e+00
      vertex 3.057923e+00 5.096538e-01 1.528961e+00
      vertex 4.077230e+00 9.362188e-17 1.528961e+00
    endloop
  endfacet
  facet normal -4.364358e-01 2.182179e-01 -8.728716e-01
    outer loop
      vertex 3.057923e+00 4.625929e-17 2.038615e+00
      vertex 4.077230e+00 9.362188e-17 1.528961e+00
      vertex 3.567576e+00 -1.019308e+00 1.528961e+00
    endloop
  endfacet
  facet normal 5.773503e-01 5.773503e-01 -5.773503e-01
    outer loop
      vertex 3.057923e+00 4.625929e-17 2.038615e+00
      vertex 3.567576e+00 -1.019308e+00 1.528961e+00
      vertex 3.057922e+00 -1.019308e+00 1.019308e+00
    endloop
  endfacet
  facet normal 5.773503e-01 5.773503e-01 -5.773503e-01
    outer loop
      vertex 3.057923e+00 4.625929e-17 2.038615e+00
      vertex 3.057922e+00 -1.019308e+00 1.019308e+00
      vertex 2.548269e+00 -5.096538e-01 1.019308e+00
    endloop
  endfacet
  facet normal -4.364358e-01 8.728716e-01 -2.182179e-01
    outer loop
      vertex 3.057923e+00 4.625929e-17 2.038615e+00
      vertex 2.548269e+00 -5.096538e-01 1.019308e+00
      vertex 2.038615e+00 -5.096538e-01 2.038615e+00
    endloop
  endfacet
  facet normal -3.333333e-01 6.666667e-01 6.666667e-01
    outer loop
      vertex 3.057923e+00 4.625929e-17 2.038615e+00
      vertex 2.038615e+00 -5.096538e-01 2.038615e+00
      vertex 3.057922e+00 -5.096538e-01 2.548269e+00
    endloop
  endfacet
  facet normal -3.333333e-01 6.666667e-01 6.666667e-01
    outer loop
      vertex 3.057923e+00 4.625929e-17 2.038615e+00
      vertex 3.057922e+00 -5.096538e-01 2.548269e+00
      vertex 4.077230e+00 1.560365e-16 2.548269e+00
    endloop
  endfacet
  facet normal -4.364358e-01 -2.182179e-01 8.728716e-01
    outer loop
      vertex 3.057923e+00 4.625929e-17 2.038615e+00
      vertex 4.077230e+00 1.560365e-16 2.548269e+00
      vertex 3.567576e+00 1.019308e+00 2.548269e+00
    endloop
  endfacet
  facet normal 5.773503e-01 -5.773503e-01 5.773503e-01
    outer loop
      vertex 3.057923e+00 4.625929e-17 2.038615e+00
      vertex 3.567576e+00 1.019308e+00 2.548269e+00
      vertex 3.057923e+00 1.019308e+00 3.057923e+00
    endloop
  endfacet
  facet normal 5.773503e-01 -5.773503e-01 5.773503e-01
    outer loop
      vertex 3.057923e+00 4.625929e-17 2.038615e+00
      vertex 3.057923e+00 1.019308e+00 3.057923e+00
      vertex 2.548269e+00 5.096538e-01 3.057923e+00
    endloop
  endfacet
  facet normal -4.364358e-01 -8.728716e-01 2.182179e-01
    outer loop
      vertex 3.057923e+00 4.625929e-17 2.038615e+00
      vertex 2.548269e+00 5.096538e-01 3.057923e+00
      vertex 2.038615e+00 5.096538e-01 2.038615e+00
    endloop
  endfacet
  facet normal -3.333333e-01 -6.666667e-01 -6.666667e-01
    outer loop
      vertex 3.057923e+00 4.625929e-17 2.038615e+00
      vertex 2.038615e+00 5.096538e-01 2.038615e+00
      vertex 3.057923e+00 5.096538e-01 1.528961e+00
    endloop
  endfacet
  facet normal 4.364358e-01 -8.728716e-01 2.182179e-01
    outer loop
      vertex 1.019308e+00 2.038615e+00 0.000000e+00
      vertex 9.362188e-17 1.528961e+00 0.000000e+00
      vertex 5.096538e-01 1.528961e+00 -1.019308e+00
    endloop
  endfacet
  facet normal -5.773503e-01 -5.773503e-01 5.773503e-01
    outer loop
      vertex 1.019308e+00 2.038615e+00 0.000000e+00
      vertex 5.096538e-01 1.528961e+00 -1.019308e+00
      vertex 1.019308e+00 1.019308e+00 -1.019308e+00
    endloop
  endfacet
  facet normal -5.773503e-01 -5.773503e-01 5.773503e-01
    outer loop
      vertex 1.019308e+00 2.038615e+00 0.000000e+00
      vertex 1.019308e+00 1.019308e+00 -1.019308e+00
      vertex 1.528961e+00 1.019308e+00 -5.096538e-01
    endloop
  endfacet
  facet normal 4.364358e-01 -2.182179e-01 8.728716e-01
    outer loop
      vertex 1.019308e+00 2.038615e+00 0.000000e+00
      vertex 1.528961e+00 1.019308e+00 -5.096538e-01
      vertex 2.038615e+00 2.038615e+00 -5.096538e-01
    endloop
  endfacet
  facet normal 3.333333e-01 6.666667e-01 6.666667e-01
    outer loop
      vertex 1.019308e+00 2.038615e+00 0.000000e+00
      vertex 2.038615e+00 2.038615e+00 -5.096538e-01
      vertex 1.019308e+00 2.548269e+00 -5.096538e-01
    endloop
  endfacet
  facet normal 3.333333e-01 6.666667e-01 6.666667e-01
    outer loop
      vertex 1.019308e+00 2.038615e+00 0.000000e+00
      vertex 1.019308e+00 2.548269e+00 -5.096538e-01
      vertex 1.560365e-16 2.548269e+00 0.000000e+00
    endloop
  endfacet
  facet normal 4.364358e-01 8.728716e-01 -2.182179e-01
    outer loop
      vertex 1.019308e+00 2.038615e+00 0.000000e+00
      vertex 1.560365e-16 2.548269e+00 0.000000e+00
      vertex 5.096538e-01 2.548269e+00 1.019308e+00
    endloop
  endfacet
  facet normal -5.773503e-01 5.773503e-01 -5.773503e-01
    outer loop
      vertex 1.019308e+00 2.038615e+00 0.000000e+00
      vertex 5.096538e-01 2.548269e+00 1.019308e+00
      vertex 1.019308e+00 3.057923e+00 1.019308e+00
    endloop
  endfacet
  facet normal -5.773503e-01 5.773503e-01 -5.773503e-01
    outer loop
      vertex 1.019308e+00 2.038615e+00 0.000000e+00
      vertex 1.019308e+00 3.057923e+00 1.019308e+00
      vertex 1.528961e+00 3.057923e+00 5.096538e-01
    endloop
  endfacet
  facet normal 4.364358e-01 2.182179e-01 -8.728716e-01
    outer loop
      vertex 1.019308e+00 2.038615e+00 0.000000e+00
      vertex 1.528961e+00 3.057923e+00 5.096538e-01
      vertex 2.038615e+00 2.038615e+00 5.096538e-01
    endloop
  endfacet
  facet normal 3.333333e-01 -6.666667e-01 -6.666667e-01
    outer loop
      vertex 1.019308e+00 2.038615e+00 0.000000e+00
      vertex 2.038615e+00 2.038615e+00 5.096538e-01
      vertex 1.019308e+00 1.528961e+00 5.096538e-01
    endloop
  endfacet
  facet normal 3.333333e-01 -6.666667e-01 -6.666667e-01
    outer loop
      vertex 1.019308e+00 2.038615e+00 0.000000e+00
      vertex 1.019308e+00 1.528961e+00 5.096538e-01
      vertex 9.362188e-17 1.528961e+00 0.000000e+00
    endloop
  endfacet
  facet normal -6.666667e-01 -6.666667e-01 -3.333333e-01
    outer loop
      vertex 2.312965e-16 2.038615e+00 3.057923e+00
      vertex 5.096538e-01 1.528961e+00 3.057923e+00
      vertex 3.432802e-16 1.528961e+00 4.077230e+00
    endloop
  endfacet
  facet normal 2.182179e-01 -8.728716e-01 -4.364358e-01
    outer loop
      vertex 2.312965e-16 2.038615e+00 3.057923e+00
      vertex 3.432802e-16 1.528961e+00 4.077230e+00
      vertex -1.019308e+00 1.528961e+00 3.567576e+00
    endloop
  endfacet
  facet normal 5.773503e-01 -5.773503e-01 5.773503e-01
    outer loop
      vertex 2.312965e-16 2.038615e+00 3.057923e+00
      vertex -1.019308e+00 1.528961e+00 3.567576e+00
      vertex -1.019308e+00 1.019308e+00 3.057923e+00
    endloop
  endfacet
  facet normal 5.773503e-01 -5.773503e-01 5.773503e-01
    outer loop
      vertex 2.312965e-16 2.038615e+00 3.057923e+00
      vertex -1.019308e+00 1.019308e+00 3.057923e+00
      vertex -5.096538e-01 1.019308e+00 2.548269e+00
    endloop
  endfacet
  facet normal 8.728716e-01 -2.182179e-01 -4.364358e-01
    outer loop
      vertex 2.312965e-16 2.038615e+00 3.057923e+00
      vertex -5.096538e-01 1.019308e+00 2.548269e+00
      vertex -5.096538e-01 2.038615e+00 2.038615e+00
    endloop
  endfacet
  facet normal 6.666667e-01 6.666667e-01 -3.333333e-01
    outer loop
      vertex 2.312965e-16 2.038615e+00 3.057923e+00
      vertex -5.096538e-01 2.038615e+00 2.038615e+00
      vertex -5.096538e-01 2.548269e+00 3.057923e+00
    endloop
  endfacet
  facet normal 6.666667e-01 6.666667e-01 -3.333333e-01
    outer loop
      vertex 2.312965e-16 2.038615e+00 3.057923e+00
      vertex -5.096538e-01 2.548269e+00 3.057923e+00
      vertex 4.056948e-16 2.548269e+00 4.077230e+00
    endloop
  endfacet
  facet normal -2.182179e-01 8.728716e-01 -4.364358e-01
    outer loop
      vertex 2.312965e-16 2.038615e+00 3.057923e+00
      vertex 4.056948e-16 2.548269e+00 4.077230e+00
      vertex 1.019308e+00 2.548269e+00 3.567576e+00
    endloop
  endfacet
  facet normal -5.773503e-01 5.773503e-01 5.773503e-01
    outer loop
      vertex 2.312965e-16 2.038615e+00 3.057923e+00
      vertex 1.019308e+00 2.548269e+00 3.567576e+00
      vertex 1.019308e+00 3.057923e+00 3.057923e+00
    endloop
  endfacet
  facet normal -5.773503e-01 5.773503e-01 5.773503e-01
    outer loop
      vertex 2.312965e-16 2.038615e+00 3.057923e+00
      vertex 1.019308e+00 3.057923e+00 3.057923e+00
      vertex 5.096538e-01 3.057923e+00 2.548269e+00
    endloop
  endfacet
  facet normal -8.728716e-01 2.182179e-01 -4.364358e-01
    outer loop
      vertex 2.312965e-16 2.038615e+00 3.057923e+00
      vertex 5.096538e-01 3.057923e+00 2.548269e+00
      vertex 5.096538e-01 2.038615e+00 2.038615e+00
    endloop
  endfacet
  facet normal -6.666667e-01 -6.666667e-01 -3.333333e-01
    outer loop
      vertex 2.312965e-16 2.038615e+00 3.057923e+00
      vertex 5.096538e-01 2.038615e+00 2.038615e+00
      vertex 5.096538e-01 1.528961e+00 3.057923e+00
    endloop
  endfacet
  facet normal -2.182179e-01 -8.728716e-01 4.364358e-01
    outer loop
      vertex 0.000000e+00 2.038615e+00 1.019308e+00
      vertex 9.362188e-17 1.528961e+00 0.000000e+00
      vertex 1.019308e+00 1.528961e+00 5.096538e-01
    endloop
  endfacet
  facet normal -5.773503e-01 -5.773503e-01 -5.773503e-01
    outer loop
      vertex 0.000000e+00 2.038615e+00 1.019308e+00
      vertex 1.019308e+00 1.528961e+00 5.096538e-01
      vertex 1.019308e+00 1.019308e+00 1.019308e+00
    endloop
  endfacet
  facet normal -5.773503e-01 -5.773503e-01 -5.773503e-01
    outer loop
      vertex 0.000000e+00 2.038615e+00 1.019308e+00
      vertex 1.019308e+00 1.019308e+00 1.019308e+00
      vertex 5.096538e-01 1.019308e+00 1.528961e+00
    endloop
  endfacet
  facet normal -8.728716e-01 -2.182179e-01 4.364358e-01
    outer loop
      vertex 0.000000e+00 2.038615e+00 1.019308e+00
      vertex 5.096538e-01 1.019308e+00 1.528961e+00
      vertex 5.096538e-01 2.038615e+00 2.038615e+00
    endloop
  endfacet
  facet normal -6.666667e-01 6.666667e-01 3.333333e-01
    outer loop
      vertex 0.000000e+00 2.038615e+00 1.019308e+00
      vertex 5.096538e-01 2.038615e+00 2.038615e+00
      vertex 5.096538e-01 2.548269e+00 1.019308e+00
    endloop
  endfacet
  facet normal -6.666667e-01 6.666667e-01 3.333333e-01
    outer loop
      vertex 0.000000e+00 2.038615e+00 1.019308e+00
      vertex 5.096538e-01 2.548269e+00 1.019308e+00
      vertex 1.560365e-16 2.548269e+00 0.000000e+00
    endloop
  endfacet
  facet normal 2.182179e-01 8.728716e-01 4.364358e-01
    outer loop
      vertex 0.000000e+00 2.038615e+00 1.019308e+00
      vertex 1.560365e-16 2.548269e+00 0.000000e+00
      vertex -1.019308e+00 2.548269e+00 5.096538e-01
    endloop
  endfacet
  facet normal 5.773503e-01 5.773503e-01 -5.773503e-01
    outer loop
      vertex 0.000000e+00 2.038615e+00 1.019308e+00
      vertex -1.019308e+00 2.548269e+00 5.096538e-01
      vertex -1.019308e+00 3.057923e+00 1.019308e+00
    endloop
  endfacet
  facet normal 5.773503e-01 5.773503e-01 -5.773503e-01
    outer loop
      vertex 0.000000e+00 2.038615e+00 1.019308e+00
      vertex -1.019308e+00 3.057923e+00 1.019308e+00
      vertex -5.096538e-01 3.057923e+00 1.528961e+00
    endloop
  endfacet
  facet normal 8.728716e-01 2.182179e-01 4.364358e-01
    outer loop
      vertex 0.000000e+00 2.038615e+00 1.019308e+00
      vertex -5.096538e-01 3.057923e+00 1.528961e+00
      vertex -5.096538e-01 2.038615e+00 2.038615e+00
    endloop
  endfacet
  facet normal 6.666667e-01 -6.666667e-01 3.333333e-01
    outer loop
      vertex 0.000000e+00 2.038615e+00 1.019308e+00
      vertex -5.096538e-01 2.038615e+00 2.038615e+00
      vertex -5.096538e-01 1.528961e+00 1.019308e+00
    endloop
  endfacet
  facet normal 6.666667e-01 -6.666667e-01 3.333333e-01
    outer loop
      vertex 0.000000e+00 2.038615e+00 1.019308e+00
      vertex -5.096538e-01 1.528961e+00 1.019308e+00
      vertex 9.362188e-17 1.528961e+00 0.000000e+00
    endloop
  endfacet
  facet normal -4.364358e-01 -8.728716e-01 -2.182179e-01
    outer loop
      vertex -1.019308e+00 2.038615e+00 0.000000e+00
      vertex 9.362188e-17 1.528961e+00 0.000000e+00
      vertex -5.096538e-01 1.528961e+00 1.019308e+00
    endloop
  endfacet
  facet normal 5.773503e-01 -5.773503e-01 -5.773503e-01
    outer loop
      vertex -1.019308e+00 2.038615e+00 0.000000e+00
      vertex -5.096538e-01 1.528961e+00 1.019308e+00
      vertex -1.019308e+00 1.019308e+00 1.019308e+00
    endloop
  endfacet
  facet normal 5.773503e-01 -5.773503e-01 -5.773503e-01
    outer loop
      vertex -1.019308e+00 2.038615e+00 0.000000e+00
      vertex -1.019308e+00 1.019308e+00 1.019308e+00
      vertex -1.528961e+00 1.019308e+00 5.096538e-01
    endloop
  endfacet
  facet normal -4.364358e-01 -2.182179e-01 -8.728716e-01
    outer loop
      vertex -1.019308e+00 2.038615e+00 0.000000e+00
      vertex -1.528961e+00 1.019308e+00 5.096538e-01
      vertex -2.038615e+00 2.038615e+00 5.096538e-01
    endloop
  endfacet
  facet normal -3.333333e-01 6.666667e-01 -6.666667e-01
    outer loop
      vertex -1.019308e+00 2.038615e+00 0.000000e+00
      vertex -2.038615e+00 2.038615e+00 5.096538e-01
      vertex -1.019308e+00 2.548269e+00 5.096538e-01
    endloop
  endfacet
  facet normal -3.333333e-01 6.666667e-01 -6.666667e-01
    outer loop
      vertex -1.019308e+00 2.038615e+00 0.000000e+00
      vertex -1.019308e+00 2.548269e+00 5.096538e-01
      vertex 1.560365e-16 2.548269e+00 0.000000e+00
    endloop
  endfacet
  facet normal -4.364358e-01 8.728716e-01 2.182179e-01
    outer loop
      vertex -1.019308e+00 2.038615e+00 0.000000e+00
      vertex 1.560365e-16 2.548269e+00 0.000000e+00
      vertex -5.096538e-01 2.548269e+00 -1.019308e+00
    endloop
  endfacet
  facet normal 5.773503e-01 5.773503e-01 5.773503e-01
    outer loop
      vertex -1.019308e+00 2.038615e+00 0.000000e+00
      vertex -5.096538e-01 2.548269e+00 -1.019308e+00
      vertex -1.019308e+00 3.057922e+00 -1.019308e+00
    endloop
  endfacet
  facet normal 5.773503e-01 5.773503e-01 5.773503e-01
    outer loop
      vertex -1.019308e+00 2.038615e+00 0.000000e+00
      vertex -1.019308e+00 3.057922e+00 -1.019308e+00
      vertex -1.528961e+00 3.057922e+00 -5.096538e-01
    endloop
  endfacet
  facet normal -4.364358e-01 2.182179e-01 8.728716e-01
    outer loop
      vertex -1.019308e+00 2.038615e+00 0.000000e+00
      vertex -1.528961e+00 3.057922e+00 -5.096538e-01
      vertex -2.038615e+00 2.038615e+00 -5.096538e-01
    endloop
  endfacet
  facet normal -3.333333e-01 -6.666667e-01 6.666667e-01
    outer loop
      vertex -1.019308e+00 2.038615e+00 0.000000e+00
      vertex -2.038615e+00 2.038615e+00 -5.096538e-01
      vertex -1.019308e+00 1.528961e+00 -5.096538e-01
    endloop
  endfacet
  facet normal -3.333333e-01 -6.666667e-01 6.666667e-01
    outer loop
      vertex -1.019308e+00 2.038615e+00 0.000000e+00
      vertex -1.019308e+00 1.528961e+00 -5.096538e-01
      vertex 9.362188e-17 1.528961e+00 0.000000e+00
    endloop
  endfacet
  facet normal 6.666667e-01 -6.666667e-01 3.333333e-01
    outer loop
      vertex 4.077230e+00 2.038615e+00 1.019308e+00
      vertex 3.567576e+00 1.528961e+00 1.019308e+00
      vertex 4.077230e+00 1.528961e+00 0.000000e+00
    endloop
  endfacet
  facet normal -2.182179e-01 -8.728716e-01 4.364358e-01
    outer loop
      vertex 4.077230e+00 2.038615e+00 1.019308e+00
      vertex 4.077230e+00 1.528961e+00 0.000000e+00
      vertex 5.096538e+00 1.528961e+00 5.096538e-01
    endloop
  endfacet
  facet normal -5.773503e-01 -5.773503e-01 -5.773503e-01
    outer loop
      vertex 4.077230e+00 2.038615e+00 1.019308e+00
      vertex 5.096538e+00 1.528961e+00 5.096538e-01
      vertex 5.096538e+00 1.019308e+00 1.019308e+00
    endloop
  endfacet
  facet normal -5.773503e-01 -5.773503e-01 -5.773503e-01
    outer loop
      vertex 4.077230e+00 2.038615e+00 1.019308e+00
      vertex 5.096538e+00 1.019308e+00 1.019308e+00
      vertex 4.586884e+00 1.019308e+00 1.528961e+00
    endloop
  endfacet
  facet normal -8.728716e-01 -2.182179e-01 4.364358e-01
    outer loop
      vertex 4.077230e+00 2.038615e+00 1.019308e+00
      vertex 4.586884e+00 1.019308e+00 1.528961e+00
      vertex 4.586884e+00 2.038615e+00 2.038615e+00
    endloop
  endfacet
  facet normal -6.666667e-01 6.666667e-01 3.333333e-01
    outer loop
      vertex 4.077230e+00 2.038615e+00 1.019308e+00
      vertex 4.586884e+00 2.038615e+00 2.038615e+00
      vertex 4.586884e+00 2.548269e+00 1.019308e+00
    endloop
  endfacet
  facet normal -6.666667e-01 6.666667e-01 3.333333e-01
    outer loop
      vertex 4.077230e+00 2.038615e+00 1.019308e+00
      vertex 4.586884e+00 2.548269e+00 1.019308e+00
      vertex 4.077230e+00 2.548269e+00 0.000000e+00
    endloop
  endfacet
  facet normal 2.182179e-01 8.728716e-01 4.364358e-01
    outer loop
      vertex 4.077230e+00 2.038615e+00 1.019308e+00
      vertex 4.077230e+00 2.548269e+00 0.000000e+00
      vertex 3.057923e+00 2.548269e+00 5.096538e-01
    endloop
  endfacet
  facet normal 5.773503e-01 5.773503e-01 -5.773503e-01
    outer loop
      vertex 4.077230e+00 2.038615e+00 1.019308e+00
      vertex 3.057923e+00 2.548269e+00 5.096538e-01
      vertex 3.057923e+00 3.057923e+00 1.019308e+00
    endloop
  endfacet
  facet normal 5.773503e-01 5.773503e-01 -5.773503e-01
    outer loop
      vertex 4.077230e+00 2.038615e+00 1.019308e+00
      vertex 3.057923e+00 3.057923e+00 1.019308e+00
      vertex 3.567576e+00 3.057923e+00 1.528961e+00
    endloop
  endfacet
  facet normal 8.728716e-01 2.182179e-01 4.364358e-01
    outer loop
      vertex 4.077230e+00 2.038615e+00 1.019308e+00
      vertex 3.567576e+00 3.057923e+00 1.528961e+00
      vertex 3.567576e+00 2.038615e+00 2.038615e+00
    endloop
  endfacet
  facet normal 6.666667e-01 -6.666667e-01 3.333333e-01
    outer loop
      vertex 4.077230e+00 2.038615e+00 1.019308e+00
      vertex 3.567576e+00 2.038615e+00 2.038615e+00
      vertex 3.567576e+00 1.528961e+00 1.019308e+00
    endloop
  endfacet
  facet normal 2.182179e-01 -8.728716e-01 -4.364358e-01
    outer loop
      vertex 4.625929e-17 2.038615e+00 -1.019308e+00
      vertex 9.362188e-17 1.528961e+00 0.000000e+00
      vertex -1.019308e+00 1.528961e+00 -5.096538e-01
    endloop
  endfacet
  facet normal 5.773503e-01 -5.773503e-01 5.773503e-01
    outer loop
      vertex 4.625929e-17 2.038615e+00 -1.019308e+00
      vertex -1.019308e+00 1.528961e+00 -5.096538e-01
      vertex -1.019308e+00 1.019308e+00 -1.019308e+00
    endloop
  endfacet
  facet normal 5.773503e-01 -5.773503e-01 5.773503e-01
    outer loop
      vertex 4.625929e-17 2.038615e+00 -1.019308e+00
      vertex -1.019308e+00 1.019308e+00 -1.019308e+00
      vertex -5.096538e-01 1.019308e+00 -1.528961e+00
    endloop
  endfacet
  facet normal 8.728716e-01 -2.182179e-01 -4.364358e-01
    outer loop
      vertex 4.625929e-17 2.038615e+00 -1.019308e+00
      vertex -5.096538e-01 1.019308e+00 -1.528961e+00
      vertex -5.096538e-01 2.038615e+00 -2.038615e+00
    endloop
  endfacet
  facet normal 6.666667e-01 6.666667e-01 -3.333333e-01
    outer loop
      vertex 4.625929e-17 2.038615e+00 -1.019308e+00
      vertex -5.096538e-01 2.038615e+00 -2.038615e+00
      vertex -5.096538e-01 2.548269e+00 -1.019308e+00
    endloop
  endfacet
  facet normal 6.666667e-01 6.666667e-01 -3.333333e-01
    outer loop
      vertex 4.625929e-17 2.038615e+00 -1.019308e+00
      vertex -5.096538e-01 2.548269e+00 -1.019308e+00
      vertex 1.560365e-16 2.548269e+00 0.000000e+00
    endloop
  endfacet
  facet normal -2.182179e-01 8.728716e-01 -4.364358e-01
    outer loop
      vertex 4.625929e-17 2.038615e+00 -1.019308e+00
      vertex 1.560365e-16 2.548269e+00 0.000000e+00
      vertex 1.019308e+00 2.548269e+00 -5.096538e-01
    endloop
  endfacet
  facet normal -5.773503e-01 5.773503e-01 5.773503e-01
    outer loop
      vertex 4.625929e-17 2.038615e+00 -1.019308e+00
      vertex 1.019308e+00 2.548269e+00 -5.096538e-01
      vertex 1.019308e+00 3.057922e+00 -1.019308e+00
    endloop
  endfacet
  facet normal -5.773503e-01 5.773503e-01 5.773503e-01
    outer loop
      vertex 4.625929e-17 2.038615e+00 -1.019308e+00
      vertex 1.019308e+00 3.057922e+00 -1.019308e+00
      vertex 5.096538e-01 3.057922e+00 -1.528961e+00
    endloop
  endfacet
  facet normal -8.728716e-01 2.182179e-01 -4.364358e-01
    outer loop
      vertex 4.625929e-17 2.038615e+00 -1.019308e+00
      vertex 5.096538e-01 3.057922e+00 -1.528961e+00
      vertex 5.096538e-01 2.038615e+00 -2.038615e+00
    endloop
  endfacet
  facet normal -6.666667e-01 -6.666667e-01 -3.333333e-01
    outer loop
      vertex 4.625929e-17 2.038615e+00 -1.019308e+00
      vertex 5.096538e-01 2.038615e+00 -2.038615e+00
      vertex 5.096538e-01 1.528961e+00 -1.019308e+00
    endloop
  endfacet
  facet normal -6.666667e-01 -6.666667e-01 -3.333333e-01
    outer loop
      vertex 4.625929e-17 2.038615e+00 -1.019308e+00
      vertex 5.096538e-01 1.528961e+00 -1.019308e+00
      vertex 9.362188e-17 1.528961e+00 0.000000e+00
    endloop
  endfacet
  facet normal -3.333333e-01 -6.666667e-01 6.666667e-01
    outer loop
      vertex 3.057923e+00 2.038615e+00 4.077230e+00
      vertex 3.057923e+00 1.528961e+00 3.567576e+00
      vertex 4.077230e+00 1.528961e+00 4.077230e+00
    endloop
  endfacet
  facet normal -4.364358e-01 -8.728716e-01 -2.182179e-01
    outer loop
      vertex 3.057923e+00 2.038615e+00 4.077230e+00
      vertex 4.077230e+00 1.528961e+00 4.077230e+00
      vertex 3.567576e+00 1.528961e+00 5.096538e+00
    endloop
  endfacet
  facet normal 5.773503e-01 -5.773503e-01 -5.773503e-01
    outer loop
      vertex 3.057923e+00 2.038615e+00 4.077230e+00
      vertex 3.567576e+00 1.528961e+00 5.096538e+00
      vertex 3.057923e+00 1.019308e+00 5.096538e+00
    endloop
  endfacet
  facet normal 5.773503e-01 -5.773503e-01 -5.773503e-01
    outer loop
      vertex 3.057923e+00 2.038615e+00 4.077230e+00
      vertex 3.057923e+00 1.019308e+00 5.096538e+00
      vertex 2.548269e+00 1.019308e+00 4.586884e+00
    endloop
  endfacet
  facet normal -4.364358e-01 -2.182179e-01 -8.728716e-01
    outer loop
      vertex 3.057923e+00 2.038615e+00 4.077230e+00
      vertex 2.548269e+00 1.019308e+00 4.586884e+00
      vertex 2.038615e+00 2.038615e+00 4.586884e+00
    endloop
  endfacet
  facet normal -3.333333e-01 6.666667e-01 -6.666667e-01
    outer loop
      vertex 3.057923e+00 2.038615e+00 4.077230e+00
      vertex 2.038615e+00 2.038615e+00 4.586884e+00
      vertex 3.057923e+00 2.548269e+00 4.586884e+00
    endloop
  endfacet
  facet normal -3.333333e-01 6.666667e-01 -6.666667e-01
    outer loop
      vertex 3.057923e+00 2.038615e+00 4.077230e+00
      vertex 3.057923e+00 2.548269e+00 4.586884e+00
      vertex 4.077230e+00 2.548269e+00 4.077230e+00
    endloop
  endfacet
  facet normal -4.364358e-01 8.728716e-01 2.182179e-01
    outer loop
      vertex 3.057923e+00 2.038615e+00 4.077230e+00
      vertex 4.077230e+00 2.548269e+00 4.077230e+00
      vertex 3.567576e+00 2.548269e+00 3.057923e+00
    endloop
  endfacet
  facet normal 5.773503e-01 5.773503e-01 5.773503e-01
    outer loop
      vertex 3.057923e+00 2.038615e+00 4.077230e+00
      vertex 3.567576e+00 2.548269e+00 3.057923e+00
      vertex 3.057923e+00 3.057923e+00 3.057923e+00
    endloop
  endfacet
  facet normal 5.773503e-01 5.773503e-01 5.773503e-01
    outer loop
      vertex 3.057923e+00 2.038615e+00 4.077230e+00
      vertex 3.057923e+00 3.057923e+00 3.057923e+00
      vertex 2.548269e+00 3.057923e+00 3.567576e+00
    endloop
  endfacet
  facet normal -4.364358e-01 2.182179e-01 8.728716e-01
    outer loop
      vertex 3.057923e+00 2.038615e+00 4.077230e+00
      vertex 2.548269e+00 3.057923e+00 3.567576e+00
      vertex 2.038615e+00 2.038615e+00 3.567576e+00
    endloop
  endfacet
  facet normal -3.333333e-01 -6.666667e-01 6.666667e-01
    outer loop
      vertex 3.057923e+00 2.038615e+00 4.077230e+00
      vertex 2.038615e+00 2.038615e+00 3.567576e+00
      vertex 3.057923e+00 1.528961e+00 3.567576e+00
    endloop
  endfacet
  facet normal -8.728716e-01 4.364358e-01 -2.182179e-01
    outer loop
      vertex 2.038615e+00 1.019308e+00 0.000000e+00
      vertex 1.528961e+00 0.000000e+00 0.000000e+00
      vertex 1.528961e+00 5.096538e-01 1.019308e+00
    endloop
  endfacet
  facet normal -5.773503e-01 -5.773503e-01 -5.773503e-01
    outer loop
      vertex 2.038615e+00 1.019308e+00 0.000000e+00
      vertex 1.528961e+00 5.096538e-01 1.019308e+00
      vertex 1.019308e+00 1.019308e+00 1.019308e+00
    endloop
  endfacet
  facet normal -5.773503e-01 -5.773503e-01 -5.773503e-01
    outer loop
      vertex 2.038615e+00 1.019308e+00 0.000000e+00
      vertex 1.019308e+00 1.019308e+00 1.019308e+00
      vertex 1.019308e+00 1.528961e+00 5.096538e-01
    endloop
  endfacet
  facet normal -2.182179e-01 4.364358e-01 -8.728716e-01
    outer loop
      vertex 2.038615e+00 1.019308e+00 0.000000e+00
      vertex 1.019308e+00 1.528961e+00 5.096538e-01
      vertex 2.038615e+00 2.038615e+00 5.096538e-01
    endloop
  endfacet
  facet normal 6.666667e-01 3.333333e-01 -6.666667e-01
    outer loop
      vertex 2.038615e+00 1.019308e+00 0.000000e+00
      vertex 2.038615e+00 2.038615e+00 5.096538e-01
      vertex 2.548269e+00 1.019308e+00 5.096538e-01
    endloop
  endfacet
  facet normal 6.666667e-01 3.333333e-01 -6.666667e-01
    outer loop
      vertex 2.038615e+00 1.019308e+00 0.000000e+00
      vertex 2.548269e+00 1.019308e+00 5.096538e-01
      vertex 2.548269e+00 0.000000e+00 0.000000e+00
    endloop
  endfacet
  facet normal 8.728716e-01 4.364358e-01 2.182179e-01
    outer loop
      vertex 2.038615e+00 1.019308e+00 0.000000e+00
      vertex 2.548269e+00 0.000000e+00 0.000000e+00
      vertex 2.548269e+00 5.096538e-01 -1.019308e+00
    endloop
  endfacet
  facet normal 5.773503e-01 -5.773503e-01 5.773503e-01
    outer loop
      vertex 2.038615e+00 1.019308e+00 0.000000e+00
      vertex 2.548269e+00 5.096538e-01 -1.019308e+00
      vertex 3.057922e+00 1.019308e+00 -1.019308e+00
    endloop
  endfacet
  facet normal 5.773503e-01 -5.773503e-01 5.773503e-01
    outer loop
      vertex 2.038615e+00 1.019308e+00 0.000000e+00
      vertex 3.057922e+00 1.019308e+00 -1.019308e+00
      vertex 3.057922e+00 1.528961e+00 -5.096538e-01
    endloop
  endfacet
  facet normal 2.182179e-01 4.364358e-01 8.728716e-01
    outer loop
      vertex 2.038615e+00 1.019308e+00 0.000000e+00
      vertex 3.057922e+00 1.528961e+00 -5.096538e-01
      vertex 2.038615e+00 2.038615e+00 -5.096538e-01
    endloop
  endfacet
  facet normal -6.666667e-01 3.333333e-01 6.666667e-01
    outer loop
      vertex 2.038615e+00 1.019308e+00 0.000000e+00
      vertex 2.038615e+00 2.038615e+00 -5.096538e-01
      vertex 1.528961e+00 1.019308e+00 -5.096538e-01
    endloop
  endfacet
  facet normal -6.666667e-01 3.333333e-01 6.666667e-01
    outer loop
      vertex 2.038615e+00 1.019308e+00 0.000000e+00
      vertex 1.528961e+00 1.019308e+00 -5.096538e-01
      vertex 1.528961e+00 0.000000e+00 0.000000e+00
    endloop
  endfacet
  facet normal -6.666667e-01 -6.666667e-01 3.333333e-01
    outer loop
      vertex 2.038615e+00 1.850372e-17 1.019308e+00
      vertex 1.528961e+00 5.096538e-01 1.019308e+00
      vertex 1.528961e+00 0.000000e+00 0.000000e+00
    endloop
  endfacet
  facet normal -8.728716e-01 2.182179e-01 4.364358e-01
    outer loop
      vertex 2.038615e+00 1.850372e-17 1.019308e+00
      vertex 1.528961e+00 0.000000e+00 0.000000e+00
      vertex 1.528961e+00 -1.019308e+00 5.096538e-01
    endloop
  endfacet
  facet normal -5.773503e-01 5.773503e-01 -5.773503e-01
    outer loop
      vertex 2.038615e+00 1.850372e-17 1.019308e+00
      vertex 1.528961e+00 -1.019308e+00 5.096538e-01
      vertex 1.019308e+00 -1.019308e+00 1.019308e+00
    endloop
  endfacet
  facet normal -5.773503e-01 5.773503e-01 -5.773503e-01
    outer loop
      vertex 2.038615e+00 1.850372e-17 1.019308e+00
      vertex 1.019308e+00 -1.019308e+00 1.019308e+00
      vertex 1.019308e+00 -5.096538e-01 1.528961e+00
    endloop
  endfacet
  facet normal -2.182179e-01 8.728716e-01 4.364358e-01
    outer loop
      vertex 2.038615e+00 1.850372e-17 1.019308e+00
      vertex 1.019308e+00 -5.096538e-01 1.528961e+00
      vertex 2.038615e+00 -5.096538e-01 2.038615e+00
    endloop
  endfacet
  facet normal 6.666667e-01 6.666667e-01 3.333333e-01
    outer loop
      vertex 2.038615e+00 1.850372e-17 1.019308e+00
      vertex 2.038615e+00 -5.096538e-01 2.038615e+00
      vertex 2.548269e+00 -5.096538e-01 1.019308e+00
    endloop
  endfacet
  facet normal 6.666667e-01 6.666667e-01 3.333333e-01
    outer loop
      vertex 2.038615e+00 1.850372e-17 1.019308e+00
      vertex 2.548269e+00 -5.096538e-01 1.019308e+00
      vertex 2.548269e+00 0.000000e+00 0.000000e+00
    endloop
  endfacet
  facet normal 8.728716e-01 -2.182179e-01 4.364358e-01
    outer loop
      vertex 2.038615e+00 1.850372e-17 1.019308e+00
      vertex 2.548269e+00 0.000000e+00 0.000000e+00
      vertex 2.548269e+00 1.019308e+00 5.096538e-01
    endloop
  endfacet
  facet normal 5.773503e-01 -5.773503e-01 -5.773503e-01
    outer loop
      vertex 2.038615e+00 1.850372e-17 1.019308e+00
      vertex 2.548269e+00 1.019308e+00 5.096538e-01
      vertex 3.057923e+00 1.019308e+00 1.019308e+00
    endloop
  endfacet
  facet normal 5.773503e-01 -5.773503e-01 -5.773503e-01
    outer loop
      vertex 2.038615e+00 1.850372e-17 1.019308e+00
      vertex 3.057923e+00 1.019308e+00 1.019308e+00
      vertex 3.057923e+00 5.096538e-01 1.528961e+00
    endloop
  endfacet
  facet normal 2.182179e-01 -8.728716e-01 4.364358e-01
    outer loop
      vertex 2.038615e+00 1.850372e-17 1.019308e+00
      vertex 3.057923e+00 5.096538e-01 1.528961e+00
      vertex 2.038615e+00 5.096538e-01 2.038615e+00
    endloop
  endfacet
  facet normal -6.666667e-01 -6.666667e-01 3.333333e-01
    outer loop
      vertex 2.038615e+00 1.850372e-17 1.019308e+00
      vertex 2.038615e+00 5.096538e-01 2.038615e+00
      vertex 1.528961e+00 5.096538e-01 1.019308e+00
    endloop
  endfacet
  facet normal -8.728716e-01 -2.182179e-01 -4.364358e-01
    outer loop
      vertex 2.038615e+00 0.000000e+00 -1.019308e+00
      vertex 1.528961e+00 0.000000e+00 0.000000e+00
      vertex 1.528961e+00 1.019308e+00 -5.096538e-01
    endloop
  endfacet
  facet normal -5.773503e-01 -5.773503e-01 5.773503e-01
    outer loop
      vertex 2.038615e+00 0.000000e+00 -1.019308e+00
      vertex 1.528961e+00 1.019308e+00 -5.096538e-01
      vertex 1.019308e+00 1.019308e+00 -1.019308e+00
    endloop
  endfacet
  facet normal -5.773503e-01 -5.773503e-01 5.773503e-01
    outer loop
      vertex 2.038615e+00 0.000000e+00 -1.019308e+00
      vertex 1.019308e+00 1.019308e+00 -1.019308e+00
      vertex 1.019308e+00 5.096537e-01 -1.528961e+00
    endloop
  endfacet
  facet normal -2.182179e-01 -8.728716e-01 -4.364358e-01
    outer loop
      vertex 2.038615e+00 0.000000e+00 -1.019308e+00
      vertex 1.019308e+00 5.096537e-01 -1.528961e+00
      vertex 2.038615e+00 5.096537e-01 -2.038615e+00
    endloop
  endfacet
  facet normal 6.666667e-01 -6.666667e-01 -3.333333e-01
    outer loop
      vertex 2.038615e+00 0.000000e+00 -1.019308e+00
      vertex 2.038615e+00 5.096537e-01 -2.038615e+00
      vertex 2.548269e+00 5.096538e-01 -1.019308e+00
    endloop
  endfacet
  facet normal 6.666667e-01 -6.666667e-01 -3.333333e-01
    outer loop
      vertex 2.038615e+00 0.000000e+00 -1.019308e+00
      vertex 2.548269e+00 5.096538e-01 -1.019308e+00
      vertex 2.548269e+00 0.000000e+00 0.000000e+00
    endloop
  endfacet
  facet normal 8.728716e-01 2.182179e-01 -4.364358e-01
    outer loop
      vertex 2.038615e+00 0.000000e+00 -1.019308e+00
      vertex 2.548269e+00 0.000000e+00 0.000000e+00
      vertex 2.548269e+00 -1.019308e+00 -5.096538e-01
    endloop
  endfacet
  facet normal 5.773503e-01 5.773503e-01 5.773503e-01
    outer loop
      vertex 2.038615e+00 0.000000e+00 -1.019308e+00
      vertex 2.548269e+00 -1.019308e+00 -5.096538e-01
      vertex 3.057922e+00 -1.019308e+00 -1.019308e+00
    endloop
  endfacet
  facet normal 5.773503e-01 5.773503e-01 5.773503e-01
    outer loop
      vertex 2.038615e+00 0.000000e+00 -1.019308e+00
      vertex 3.057922e+00 -1.019308e+00 -1.019308e+00
      vertex 3.057922e+00 -5.096538e-01 -1.528961e+00
    endloop
  endfacet
  facet normal 2.182179e-01 8.728716e-01 -4.364358e-01
    outer loop
      vertex 2.038615e+00 0.000000e+00 -1.019308e+00
      vertex 3.057922e+00 -5.096538e-01 -1.528961e+00
      vertex 2.038615e+00 -5.096538e-01 -2.038615e+00
    endloop
  endfacet
  facet normal -6.666667e-01 6.666667e-01 -3.333333e-01
    outer loop
      vertex 2.038615e+00 0.000000e+00 -1.019308e+00
      vertex 2.038615e+00 -5.096538e-01 -2.038615e+00
      vertex 1.528961e+00 -5.096538e-01 -1.019308e+00
    endloop
  endfacet
  facet normal -6.666667e-01 6.666667e-01 -3.333333e-01
    outer loop
      vertex 2.038615e+00 0.000000e+00 -1.019308e+00
      vertex 1.528961e+00 -5.096538e-01 -1.019308e+00
      vertex 1.528961e+00 0.000000e+00 0.000000e+00
    endloop
  endfacet
  facet normal -6.666667e-01 3.333333e-01 6.666667e-01
    outer loop
      vertex 2.038615e+00 1.019308e+00 4.077230e+00
      vertex 1.528961e+00 1.019308e+00 3.567576e+00
      vertex 1.528961e+00 2.496583e-16 4.077230e+00
    endloop
  endfacet
  facet normal -8.728716e-01 4.364358e-01 -2.182179e-01
    outer loop
      vertex 2.038615e+00 1.019308e+00 4.077230e+00
      vertex 1.528961e+00 2.496583e-16 4.077230e+00
      vertex 1.528961e+00 5.096538e-01 5.096538e+00
    endloop
  endfacet
  facet normal -5.773503e-01 -5.773503e-01 -5.773503e-01
    outer loop
      vertex 2.038615e+00 1.019308e+00 4.077230e+00
      vertex 1.528961e+00 5.096538e-01 5.096538e+00
      vertex 1.019308e+00 1.019308e+00 5.096538e+00
    endloop
  endfacet
  facet normal -5.773503e-01 -5.773503e-01 -5.773503e-01
    outer loop
      vertex 2.038615e+00 1.019308e+00 4.077230e+00
      vertex 1.019308e+00 1.019308e+00 5.096538e+00
      vertex 1.019308e+00 1.528961e+00 4.586884e+00
    endloop
  endfacet
  facet normal -2.182179e-01 4.364358e-01 -8.728716e-01
    outer loop
      vertex 2.038615e+00 1.019308e+00 4.077230e+00
      vertex 1.019308e+00 1.528961e+00 4.586884e+00
      vertex 2.038615e+00 2.038615e+00 4.586884e+00
    endloop
  endfacet
  facet normal 6.666667e-01 3.333333e-01 -6.666667e-01
    outer loop
      vertex 2.038615e+00 1.019308e+00 4.077230e+00
      vertex 2.038615e+00 2.038615e+00 4.586884e+00
      vertex 2.548269e+00 1.019308e+00 4.586884e+00
    endloop
  endfacet
  facet normal 6.666667e-01 3.333333e-01 -6.666667e-01
    outer loop
      vertex 2.038615e+00 1.019308e+00 4.077230e+00
      vertex 2.548269e+00 1.019308e+00 4.586884e+00
      vertex 2.548269e+00 2.496583e-16 4.077230e+00
    endloop
  endfacet
  facet normal 8.728716e-01 4.364358e-01 2.182179e-01
    outer loop
      vertex 2.038615e+00 1.019308e+00 4.077230e+00
      vertex 2.548269e+00 2.496583e-16 4.077230e+00
      vertex 2.548269e+00 5.096538e-01 3.057923e+00
    endloop
  endfacet
  facet normal 5.773503e-01 -5.773503e-01 5.773503e-01
    outer loop
      vertex 2.038615e+00 1.019308e+00 4.077230e+00
      vertex 2.548269e+00 5.096538e-01 3.057923e+00
      vertex 3.057923e+00 1.019308e+00 3.057923e+00
    endloop
  endfacet
  facet normal 5.773503e-01 -5.773503e-01 5.773503e-01
    outer loop
      vertex 2.038615e+00 1.019308e+00 4.077230e+00
      vertex 3.057923e+00 1.019308e+00 3.057923e+00
      vertex 3.057923e+00 1.528961e+00 3.567576e+00
    endloop
  endfacet
  facet normal 2.182179e-01 4.364358e-01 8.728716e-01
    outer loop
      vertex 2.038615e+00 1.019308e+00 4.077230e+00
      vertex 3.057923e+00 1.528961e+00 3.567576e+00
      vertex 2.038615e+00 2.038615e+00 3.567576e+00
    endloop
  endfacet
  facet normal -6.666667e-01 3.333333e-01 6.666667e-01
    outer loop
      vertex 2.038615e+00 1.019308e+00 4.077230e+00
      vertex 2.038615e+00 2.038615e+00 3.567576e+00
      vertex 1.528961e+00 1.019308e+00 3.567576e+00
    endloop
  endfacet
  facet normal -8.728716e-01 -4.364358e-01 2.182179e-01
    outer loop
      vertex 2.038615e+00 -1.019308e+00 0.000000e+00
      vertex 1.528961e+00 0.000000e+00 0.000000e+00
      vertex 1.528961e+00 -5.096538e-01 -1.019308e+00
    endloop
  endfacet
  facet normal -5.773503e-01 5.773503e-01 5.773503e-01
    outer loop
      vertex 2.038615e+00 -1.019308e+00 0.000000e+00
      vertex 1.528961e+00 -5.096538e-01 -1.019308e+00
      vertex 1.019308e+00 -1.019308e+00 -1.019308e+00
    endloop
  endfacet
  facet normal -5.773503e-01 5.773503e-01 5.773503e-01
    outer loop
      vertex 2.038615e+00 -1.019308e+00 0.000000e+00
      vertex 1.019308e+00 -1.019308e+00 -1.019308e+00
      vertex 1.019308e+00 -1.528961e+00 -5.096538e-01
    endloop
  endfacet
  facet normal -2.182179e-01 -4.364358e-01 8.728716e-01
    outer loop
      vertex 2.038615e+00 -1.019308e+00 0.000000e+00
      vertex 1.019308e+00 -1.528961e+00 -5.096538e-01
      vertex 2.038615e+00 -2.038615e+00 -5.096538e-01
    endloop
  endfacet
  facet normal 6.666667e-01 -3.333333e-01 6.666667e-01
    outer loop
      vertex 2.038615e+00 -1.019308e+00 0.000000e+00
      vertex 2.038615e+00 -2.038615e+00 -5.096538e-01
      vertex 2.548269e+00 -1.019308e+00 -5.096538e-01
    endloop
  endfacet
  facet normal 6.666667e-01 -3.333333e-01 6.666667e-01
    outer loop
      vertex 2.038615e+00 -1.019308e+00 0.000000e+00
      vertex 2.548269e+00 -1.019308e+00 -5.096538e-01
      vertex 2.548269e+00 0.000000e+00 0.000000e+00
    endloop
  endfacet
  facet normal 8.728716e-01 -4.364358e-01 -2.182179e-01
    outer loop
      vertex 2.038615e+00 -1.019308e+00 0.000000e+00
      vertex 2.548269e+00 0.000000e+00 0.000000e+00
      vertex 2.548269e+00 -5.096538e-01 1.019308e+00
    endloop
  endfacet
  facet normal 5.773503e-01 5.773503e-01 -5.773503e-01
    outer loop
      vertex 2.038615e+00 -1.019308e+00 0.000000e+00
      vertex 2.548269e+00 -5.096538e-01 1.019308e+00
      vertex 3.057922e+00 -1.019308e+00 1.019308e+00
    endloop
  endfacet
  facet normal 5.773503e-01 5.773503e-01 -5.773503e-01
    outer loop
      vertex 2.038615e+00 -1.019308e+00 0.000000e+00
      vertex 3.057922e+00 -1.019308e+00 1.019308e+00
      vertex 3.057922e+00 -1.528961e+00 5.096538e-01
    endloop
  endfacet
  facet normal 2.182179e-01 -4.364358e-01 -8.728716e-01
    outer loop
      vertex 2.038615e+00 -1.019308e+00 0.000000e+00
      vertex 3.057922e+00 -1.528961e+00 5.096538e-01
      vertex 2.038615e+00 -2.038615e+00 5.096538e-01
    endloop
  endfacet
  facet normal -6.666667e-01 -3.333333e-01 -6.666667e-01
    outer loop
      vertex 2.038615e+00 -1.019308e+00 0.000000e+00
      vertex 2.038615e+00 -2.038615e+00 5.096538e-01
      vertex 1.528961e+00 -1.019308e+00 5.096538e-01
    endloop
  endfacet
  facet normal -6.666667e-01 -3.333333e-01 -6.666667e-01
    outer loop
      vertex 2.038615e+00 -1.019308e+00 0.000000e+00
      vertex 1.528961e+00 -1.019308e+00 5.096538e-01
      vertex 1.528961e+00 0.000000e+00 0.000000e+00
    endloop
  endfacet
  facet normal -6.666667e-01 6.666667e-01 -3.333333e-01
    outer loop
      vertex 2.038615e+00 4.077230e+00 3.057923e+00
      vertex 1.528961e+00 3.567576e+00 3.057923e+00
      vertex 1.528961e+00 4.077230e+00 4.077230e+00
    endloop
  endfacet
  facet normal -8.728716e-01 -2.182179e-01 -4.364358e-01
    outer loop
      vertex 2.038615e+00 4.077230e+00 3.057923e+00
      vertex 1.528961e+00 4.077230e+00 4.077230e+00
      vertex 1.528961e+00 5.096538e+00 3.567576e+00
    endloop
  endfacet
  facet normal -5.773503e-01 -5.773503e-01 5.773503e-01
    outer loop
      vertex 2.038615e+00 4.077230e+00 3.057923e+00
      vertex 1.528961e+00 5.096538e+00 3.567576e+00
      vertex 1.019308e+00 5.096538e+00 3.057923e+00
    endloop
  endfacet
  facet normal -5.773503e-01 -5.773503e-01 5.773503e-01
    outer loop
      vertex 2.038615e+00 4.077230e+00 3.057923e+00
      vertex 1.019308e+00 5.096538e+00 3.057923e+00
      vertex 1.019308e+00 4.586884e+00 2.548269e+00
    endloop
  endfacet
  facet normal -2.182179e-01 -8.728716e-01 -4.364358e-01
    outer loop
      vertex 2.038615e+00 4.077230e+00 3.057923e+00
      vertex 1.019308e+00 4.586884e+00 2.548269e+00
      vertex 2.038615e+00 4.586884e+00 2.038615e+00
    endloop
  endfacet
  facet normal 6.666667e-01 -6.666667e-01 -3.333333e-01
    outer loop
      vertex 2.038615e+00 4.077230e+00 3.057923e+00
      vertex 2.038615e+00 4.586884e+00 2.038615e+00
      vertex 2.548269e+00 4.586884e+00 3.057923e+00
    endloop
  endfacet
  facet normal 6.666667e-01 -6.666667e-01 -3.333333e-01
    outer loop
      vertex 2.038615e+00 4.077230e+00 3.057923e+00
      vertex 2.548269e+00 4.586884e+00 3.057923e+00
      vertex 2.548269e+00 4.077230e+00 4.077230e+00
    endloop
  endfacet
  facet normal 8.728716e-01 2.182179e-01 -4.364358e-01
    outer loop
      vertex 2.038615e+00 4.077230e+00 3.057923e+00
      vertex 2.548269e+00 4.077230e+00 4.077230e+00
      vertex 2.548269e+00 3.057923e+00 3.567576e+00
    endloop
  endfacet
  facet normal 5.773503e-01 5.773503e-01 5.773503e-01
    outer loop
      vertex 2.038615e+00 4.077230e+00 3.057923e+00
      vertex 2.548269e+00 3.057923e+00 3.567576e+00
      vertex 3.057923e+00 3.057923e+00 3.057923e+00
    endloop
  endfacet
  facet normal 5.773503e-01 5.773503e-01 5.773503e-01
    outer loop
      vertex 2.038615e+00 4.077230e+00 3.057923e+00
      vertex 3.057923e+00 3.057923e+00 3.057923e+00
      vertex 3.057923e+00 3.567576e+00 2.548269e+00
    endloop
  endfacet
  facet normal 2.182179e-01 8.728716e-01 -4.364358e-01
    outer loop
      vertex 2.038615e+00 4.077230e+00 3.057923e+00
      vertex 3.057923e+00 3.567576e+00 2.548269e+00
      vertex 2.038615e+00 3.567576e+00 2.038615e+00
    endloop
  endfacet
  facet normal -6.666667e-01 6.666667e-01 -3.333333e-01
    outer loop
      vertex 2.038615e+00 4.077230e+00 3.057923e+00
      vertex 2.038615e+00 3.567576e+00 2.038615e+00
      vertex 1.528961e+00 3.567576e+00 3.057923e+00
    endloop
  endfacet
  facet normal -6.666667e-01 -3.333333e-01 -6.666667e-01
    outer loop
      vertex 2.038615e+00 3.057923e+00 0.000000e+00
      vertex 1.528961e+00 3.057923e+00 5.096538e-01
      vertex 1.528961e+00 4.077230e+00 0.000000e+00
    endloop
  endfacet
  facet normal -8.728716e-01 -4.364358e-01 2.182179e-01
    outer loop
      vertex 2.038615e+00 3.057923e+00 0.000000e+00
      vertex 1.528961e+00 4.077230e+00 0.000000e+00
      vertex 1.528961e+00 3.567576e+00 -1.019308e+00
    endloop
  endfacet
  facet normal -5.773503e-01 5.773503e-01 5.773503e-01
    outer loop
      vertex 2.038615e+00 3.057923e+00 0.000000e+00
      vertex 1.528961e+00 3.567576e+00 -1.019308e+00
      vertex 1.019308e+00 3.057922e+00 -1.019308e+00
    endloop
  endfacet
  facet normal -5.773503e-01 5.773503e-01 5.773503e-01
    outer loop
      vertex 2.038615e+00 3.057923e+00 0.000000e+00
      vertex 1.019308e+00 3.057922e+00 -1.019308e+00
      vertex 1.019308e+00 2.548269e+00 -5.096538e-01
    endloop
  endfacet
  facet normal -2.182179e-01 -4.364358e-01 8.728716e-01
    outer loop
      vertex 2.038615e+00 3.057923e+00 0.000000e+00
      vertex 1.019308e+00 2.548269e+00 -5.096538e-01
      vertex 2.038615e+00 2.038615e+00 -5.096538e-01
    endloop
  endfacet
  facet normal 6.666667e-01 -3.333333e-01 6.666667e-01
    outer loop
      vertex 2.038615e+00 3.057923e+00 0.000000e+00
      vertex 2.038615e+00 2.038615e+00 -5.096538e-01
      vertex 2.548269e+00 3.057922e+00 -5.096538e-01
    endloop
  endfacet
  facet normal 6.666667e-01 -3.333333e-01 6.666667e-01
    outer loop
      vertex 2.038615e+00 3.057923e+00 0.000000e+00
      vertex 2.548269e+00 3.057922e+00 -5.096538e-01
      vertex 2.548269e+00 4.077230e+00 0.000000e+00
    endloop
  endfacet
  facet normal 8.728716e-01 -4.364358e-01 -2.182179e-01
    outer loop
      vertex 2.038615e+00 3.057923e+00 0.000000e+00
      vertex 2.548269e+00 4.077230e+00 0.000000e+00
      vertex 2.548269e+00 3.567576e+00 1.019308e+00
    endloop
  endfacet
  facet normal 5.773503e-01 5.773503e-01 -5.773503e-01
    outer loop
      vertex 2.038615e+00 3.057923e+00 0.000000e+00
      vertex 2.548269e+00 3.567576e+00 1.019308e+00
      vertex 3.057923e+00 3.057923e+00 1.019308e+00
    endloop
  endfacet
  facet normal 5.773503e-01 5.773503e-01 -5.773503e-01
    outer loop
      vertex 2.038615e+00 3.057923e+00 0.000000e+00
      vertex 3.057923e+00 3.057923e+00 1.019308e+00
      vertex 3.057923e+00 2.548269e+00 5.096538e-01
    endloop
  endfacet
  facet normal 2.182179e-01 -4.364358e-01 -8.728716e-01
    outer loop
      vertex 2.038615e+00 3.057923e+00 0.000000e+00
      vertex 3.057923e+00 2.548269e+00 5.096538e-01
      vertex 2.038615e+00 2.038615e+00 5.096538e-01
    endloop
  endfacet
  facet normal -6.666667e-01 -3.333333e-01 -6.666667e-01
    outer loop
      vertex 2.038615e+00 3.057923e+00 0.000000e+00
      vertex 2.038615e+00 2.038615e+00 5.096538e-01
      vertex 1.528961e+00 3.057923e+00 5.096538e-01
    endloop
  endfacet
  facet normal -6.666667e-01 -3.333333e-01 6.666667e-01
    outer loop
      vertex 2.035409e-16 3.057923e+00 2.038615e+00
      vertex 5.096538e-01 3.057923e+00 2.548269e+00
      vertex 4.056948e-16 4.077230e+00 2.548269e+00
    endloop
  endfacet
  facet normal 2.182179e-01 -4.364358e-01 8.728716e-01
    outer loop
      vertex 2.035409e-16 3.057923e+00 2.038615e+00
      vertex 4.056948e-16 4.077230e+00 2.548269e+00
      vertex -1.019308e+00 3.567576e+00 2.548269e+00
    endloop
  endfacet
  facet normal 5.773503e-01 5.773503e-01 5.773503e-01
    outer loop
      vertex 2.035409e-16 3.057923e+00 2.038615e+00
      vertex -1.019308e+00 3.567576e+00 2.548269e+00
      vertex -1.019308e+00 3.057923e+00 3.057923e+00
    endloop
  endfacet
  facet normal 5.773503e-01 5.773503e-01 5.773503e-01
    outer loop
      vertex 2.035409e-16 3.057923e+00 2.038615e+00
      vertex -1.019308e+00 3.057923e+00 3.057923e+00
      vertex -5.096538e-01 2.548269e+00 3.057923e+00
    endloop
  endfacet
  facet normal 8.728716e-01 -4.364358e-01 2.182179e-01
    outer loop
      vertex 2.035409e-16 3.057923e+00 2.038615e+00
      vertex -5.096538e-01 2.548269e+00 3.057923e+00
      vertex -5.096538e-01 2.038615e+00 2.038615e+00
    endloop
  endfacet
  facet normal 6.666667e-01 -3.333333e-01 -6.666667e-01
    outer loop
      vertex 2.035409e-16 3.057923e+00 2.038615e+00
      vertex -5.096538e-01 2.038615e+00 2.038615e+00
      vertex -5.096538e-01 3.057923e+00 1.528961e+00
    endloop
  endfacet
  facet normal 6.666667e-01 -3.333333e-01 -6.666667e-01
    outer loop
      vertex 2.035409e-16 3.057923e+00 2.038615e+00
      vertex -5.096538e-01 3.057923e+00 1.528961e+00
      vertex 3.432802e-16 4.077230e+00 1.528961e+00
    endloop
  endfacet
  facet normal -2.182179e-01 -4.364358e-01 -8.728716e-01
    outer loop
      vertex 2.035409e-16 3.057923e+00 2.038615e+00
      vertex 3.432802e-16 4.077230e+00 1.528961e+00
      vertex 1.019308e+00 3.567576e+00 1.528961e+00
    endloop
  endfacet
  facet normal -5.773503e-01 5.773503e-01 -5.773503e-01
    outer loop
      vertex 2.035409e-16 3.057923e+00 2.038615e+00
      vertex 1.019308e+00 3.567576e+00 1.528961e+00
      vertex 1.019308e+00 3.057923e+00 1.019308e+00
    endloop
  endfacet
  facet normal -5.773503e-01 5.773503e-01 -5.773503e-01
    outer loop
      vertex 2.035409e-16 3.057923e+00 2.038615e+00
      vertex 1.019308e+00 3.057923e+00 1.019308e+00
      vertex 5.096538e-01 2.548269e+00 1.019308e+00
    endloop
  endfacet
  facet normal -8.728716e-01 -4.364358e-01 -2.182179e-01
    outer loop
      vertex 2.035409e-16 3.057923e+00 2.038615e+00
      vertex 5.096538e-01 2.548269e+00 1.019308e+00
      vertex 5.096538e-01 2.038615e+00 2.038615e+00
    endloop
  endfacet
  facet normal -6.666667e-01 -3.333333e-01 6.666667e-01
    outer loop
      vertex 2.035409e-16 3.057923e+00 2.038615e+00
      vertex 5.096538e-01 2.038615e+00 2.038615e+00
      vertex 5.096538e-01 3.057923e+00 2.548269e+00
    endloop
  endfacet
  facet normal 6.666667e-01 3.333333e-01 6.666667e-01
    outer loop
      vertex 4.077230e+00 1.019308e+00 2.038615e+00
      vertex 3.567576e+00 1.019308e+00 2.548269e+00
      vertex 4.077230e+00 1.560365e-16 2.548269e+00
    endloop
  endfacet
  facet normal -2.182179e-01 4.364358e-01 8.728716e-01
    outer loop
      vertex 4.077230e+00 1.019308e+00 2.038615e+00
      vertex 4.077230e+00 1.560365e-16 2.548269e+00
      vertex 5.096538e+00 5.096538e-01 2.548269e+00
    endloop
  endfacet
  facet normal -5.773503e-01 -5.773503e-01 5.773503e-01
    outer loop
      vertex 4.077230e+00 1.019308e+00 2.038615e+00
      vertex 5.096538e+00 5.096538e-01 2.548269e+00
      vertex 5.096538e+00 1.019308e+00 3.057923e+00
    endloop
  endfacet
  facet normal -5.773503e-01 -5.773503e-01 5.773503e-01
    outer loop
      vertex 4.077230e+00 1.019308e+00 2.038615e+00
      vertex 5.096538e+00 1.019308e+00 3.057923e+00
      vertex 4.586884e+00 1.528961e+00 3.057923e+00
    endloop
  endfacet
  facet normal -8.728716e-01 4.364358e-01 2.182179e-01
    outer loop
      vertex 4.077230e+00 1.019308e+00 2.038615e+00
      vertex 4.586884e+00 1.528961e+00 3.057923e+00
      vertex 4.586884e+00 2.038615e+00 2.038615e+00
    endloop
  endfacet
  facet normal -6.666667e-01 3.333333e-01 -6.666667e-01
    outer loop
      vertex 4.077230e+00 1.019308e+00 2.038615e+00
      vertex 4.586884e+00 2.038615e+00 2.038615e+00
      vertex 4.586884e+00 1.019308e+00 1.528961e+00
    endloop
  endfacet
  facet normal -6.666667e-01 3.333333e-01 -6.666667e-01
    outer loop
      vertex 4.077230e+00 1.019308e+00 2.038615e+00
      vertex 4.586884e+00 1.019308e+00 1.528961e+00
      vertex 4.077230e+00 9.362188e-17 1.528961e+00
    endloop
  endfacet
  facet normal 2.182179e-01 4.364358e-01 -8.728716e-01
    outer loop
      vertex 4.077230e+00 1.019308e+00 2.038615e+00
      vertex 4.077230e+00 9.362188e-17 1.528961e+00
      vertex 3.057923e+00 5.096538e-01 1.528961e+00
    endloop
  endfacet
  facet normal 5.773503e-01 -5.773503e-01 -5.773503e-01
    outer loop
      vertex 4.077230e+00 1.019308e+00 2.038615e+00
      vertex 3.057923e+00 5.096538e-01 1.528961e+00
      vertex 3.057923e+00 1.019308e+00 1.019308e+00
    endloop
  endfacet
  facet normal 5.773503e-01 -5.773503e-01 -5.773503e-01
    outer loop
      vertex 4.077230e+00 1.019308e+00 2.038615e+00
      vertex 3.057923e+00 1.019308e+00 1.019308e+00
      vertex 3.567576e+00 1.528961e+00 1.019308e+00
    endloop
  endfacet
  facet normal 8.728716e-01 4.364358e-01 -2.182179e-01
    outer loop
      vertex 4.077230e+00 1.019308e+00 2.038615e+00
      vertex 3.567576e+00 1.528961e+00 1.019308e+00
      vertex 3.567576e+00 2.038615e+00 2.038615e+00
    endloop
  endfacet
  facet normal 6.666667e-01 3.333333e-01 6.666667e-01
    outer loop
      vertex 4.077230e+00 1.019308e+00 2.038615e+00
      vertex 3.567576e+00 2.038615e+00 2.038615e+00
      vertex 3.567576e+00 1.019308e+00 2.548269e+00
    endloop
  endfacet
  facet normal -3.333333e-01 6.666667e-01 6.666667e-01
    outer loop
      vertex 3.057923e+00 4.077230e+00 2.038615e+00
      vertex 3.057923e+00 3.567576e+00 2.548269e+00
      vertex 4.077230e+00 4.077230e+00 2.548269e+00
    endloop
  endfacet
  facet normal -4.364358e-01 -2.182179e-01 8.728716e-01
    outer loop
      vertex 3.057923e+00 4.077230e+00 2.038615e+00
      vertex 4.077230e+00 4.077230e+00 2.548269e+00
      vertex 3.567576e+00 5.096538e+00 2.548269e+00
    endloop
  endfacet
  facet normal 5.773503e-01 -5.773503e-01 5.773503e-01
    outer loop
      vertex 3.057923e+00 4.077230e+00 2.038615e+00
      vertex 3.567576e+00 5.096538e+00 2.548269e+00
      vertex 3.057923e+00 5.096538e+00 3.057923e+00
    endloop
  endfacet
  facet normal 5.773503e-01 -5.773503e-01 5.773503e-01
    outer loop
      vertex 3.057923e+00 4.077230e+00 2.038615e+00
      vertex 3.057923e+00 5.096538e+00 3.057923e+00
      vertex 2.548269e+00 4.586884e+00 3.057923e+00
    endloop
  endfacet
  facet normal -4.364358e-01 -8.728716e-01 2.182179e-01
    outer loop
      vertex 3.057923e+00 4.077230e+00 2.038615e+00
      vertex 2.548269e+00 4.586884e+00 3.057923e+00
      vertex 2.038615e+00 4.586884e+00 2.038615e+00
    endloop
  endfacet
  facet normal -3.333333e-01 -6.666667e-01 -6.666667e-01
    outer loop
      vertex 3.057923e+00 4.077230e+00 2.038615e+00
      vertex 2.038615e+00 4.586884e+00 2.038615e+00
      vertex 3.057923e+00 4.586884e+00 1.528961e+00
    endloop
  endfacet
  facet normal -3.333333e-01 -6.666667e-01 -6.666667e-01
    outer loop
      vertex 3.057923e+00 4.077230e+00 2.038615e+00
      vertex 3.057923e+00 4.586884e+00 1.528961e+00
      vertex 4.077230e+00 4.077230e+00 1.528961e+00
    endloop
  endfacet
  facet normal -4.364358e-01 2.182179e-01 -8.728716e-01
    outer loop
      vertex 3.057923e+00 4.077230e+00 2.038615e+00
      vertex 4.077230e+00 4.077230e+00 1.528961e+00
      vertex 3.567576e+00 3.057923e+00 1.528961e+00
    endloop
  endfacet
  facet normal 5.773503e-01 5.773503e-01 -5.773503e-01
    outer loop
      vertex 3.057923e+00 4.077230e+00 2.038615e+00
      vertex 3.567576e+00 3.057923e+00 1.528961e+00
      vertex 3.057923e+00 3.057923e+00 1.019308e+00
    endloop
  endfacet
  facet normal 5.773503e-01 5.773503e-01 -5.773503e-01
    outer loop
      vertex 3.057923e+00 4.077230e+00 2.038615e+00
      vertex 3.057923e+00 3.057923e+00 1.019308e+00
      vertex 2.548269e+00 3.567576e+00 1.019308e+00
    endloop
  endfacet
  facet normal -4.364358e-01 8.728716e-01 -2.182179e-01
    outer loop
      vertex 3.057923e+00 4.077230e+00 2.038615e+00
      vertex 2.548269e+00 3.567576e+00 1.019308e+00
      vertex 2.038615e+00 3.567576e+00 2.038615e+00
    endloop
  endfacet
  facet normal -3.333333e-01 6.666667e-01 6.666667e-01
    outer loop
      vertex 3.057923e+00 4.077230e+00 2.038615e+00
      vertex 2.038615e+00 3.567576e+00 2.038615e+00
      vertex 3.057923e+00 3.567576e+00 2.548269e+00
    endloop
  endfacet
  facet normal 3.333333e-01 6.666667e-01 6.666667e-01
    outer loop
      vertex 1.019308e+00 2.038615e+00 4.077230e+00
      vertex 1.019308e+00 2.548269e+00 3.567576e+00
      vertex 4.056948e-16 2.548269e+00 4.077230e+00
    endloop
  endfacet
  facet normal 4.364358e-01 8.728716e-01 -2.182179e-01
    outer loop
      vertex 1.019308e+00 2.038615e+00 4.077230e+00
      vertex 4.056948e-16 2.548269e+00 4.077230e+00
      vertex 5.096538e-01 2.548269e+00 5.096538e+00
    endloop
  endfacet
  facet normal -5.773503e-01 5.773503e-01 -5.773503e-01
    outer loop
      vertex 1.019308e+00 2.038615e+00 4.077230e+00
      vertex 5.096538e-01 2.548269e+00 5.096538e+00
      vertex 1.019308e+00 3.057923e+00 5.096538e+00
    endloop
  endfacet
  facet normal -5.773503e-01 5.773503e-01 -5.773503e-01
    outer loop
      vertex 1.019308e+00 2.038615e+00 4.077230e+00
      vertex 1.019308e+00 3.057923e+00 5.096538e+00
      vertex 1.528961e+00 3.057923e+00 4.586884e+00
    endloop
  endfacet
  facet normal 4.364358e-01 2.182179e-01 -8.728716e-01
    outer loop
      vertex 1.019308e+00 2.038615e+00 4.077230e+00
      vertex 1.528961e+00 3.057923e+00 4.586884e+00
      vertex 2.038615e+00 2.038615e+00 4.586884e+00
    endloop
  endfacet
  facet normal 3.333333e-01 -6.666667e-01 -6.666667e-01
    outer loop
      vertex 1.019308e+00 2.038615e+00 4.077230e+00
      vertex 2.038615e+00 2.038615e+00 4.586884e+00
      vertex 1.019308e+00 1.528961e+00 4.586884e+00
    endloop
  endfacet
  facet normal 3.333333e-01 -6.666667e-01 -6.666667e-01
    outer loop
      vertex 1.019308e+00 2.038615e+00 4.077230e+00
      vertex 1.019308e+00 1.528961e+00 4.586884e+00
      vertex 3.432802e-16 1.528961e+00 4.077230e+00
    endloop
  endfacet
  facet normal 4.364358e-01 -8.728716e-01 2.182179e-01
    outer loop
      vertex 1.019308e+00 2.038615e+00 4.077230e+00
      vertex 3.432802e-16 1.528961e+00 4.077230e+00
      vertex 5.096538e-01 1.528961e+00 3.057923e+00
    endloop
  endfacet
  facet normal -5.773503e-01 -5.773503e-01 5.773503e-01
    outer loop
      vertex 1.019308e+00 2.038615e+00 4.077230e+00
      vertex 5.096538e-01 1.528961e+00 3.057923e+00
      vertex 1.019308e+00 1.019308e+00 3.057923e+00
    endloop
  endfacet
  facet normal -5.773503e-01 -5.773503e-01 5.773503e-01
    outer loop
      vertex 1.019308e+00 2.038615e+00 4.077230e+00
      vertex 1.019308e+00 1.019308e+00 3.057923e+00
      vertex 1.528961e+00 1.019308e+00 3.567576e+00
    endloop
  endfacet
  facet normal 4.364358e-01 -2.182179e-01 8.728716e-01
    outer loop
      vertex 1.019308e+00 2.038615e+00 4.077230e+00
      vertex 1.528961e+00 1.019308e+00 3.567576e+00
      vertex 2.038615e+00 2.038615e+00 3.567576e+00
    endloop
  endfacet
  facet normal 3.333333e-01 6.666667e-01 6.666667e-01
    outer loop
      vertex 1.019308e+00 2.038615e+00 4.077230e+00
      vertex 2.038615e+00 2.038615e+00 3.567576e+00
      vertex 1.019308e+00 2.548269e+00 3.567576e+00
    endloop
  endfacet
  facet normal 6.666667e-01 6.666667e-01 -3.333333e-01
    outer loop
      vertex 4.077230e+00 2.038615e+00 3.057923e+00
      vertex 3.567576e+00 2.548269e+00 3.057923e+00
      vertex 4.077230e+00 2.548269e+00 4.077230e+00
    endloop
  endfacet
  facet normal -2.182179e-01 8.728716e-01 -4.364358e-01
    outer loop
      vertex 4.077230e+00 2.038615e+00 3.057923e+00
      vertex 4.077230e+00 2.548269e+00 4.077230e+00
      vertex 5.096538e+00 2.548269e+00 3.567576e+00
    endloop
  endfacet
  facet normal -5.773503e-01 5.773503e-01 5.773503e-01
    outer loop
      vertex 4.077230e+00 2.038615e+00 3.057923e+00
      vertex 5.096538e+00 2.548269e+00 3.567576e+00
      vertex 5.096538e+00 3.057923e+00 3.057923e+00
    endloop
  endfacet
  facet normal -5.773503e-01 5.773503e-01 5.773503e-01
    outer loop
      vertex 4.077230e+00 2.038615e+00 3.057923e+00
      vertex 5.096538e+00 3.057923e+00 3.057923e+00
      vertex 4.586884e+00 3.057923e+00 2.548269e+00
    endloop
  endfacet
  facet normal -8.728716e-01 2.182179e-01 -4.364358e-01
    outer loop
      vertex 4.077230e+00 2.038615e+00 3.057923e+00
      vertex 4.586884e+00 3.057923e+00 2.548269e+00
      vertex 4.586884e+00 2.038615e+00 2.038615e+00
    endloop
  endfacet
  facet normal -6.666667e-01 -6.666667e-01 -3.333333e-01
    outer loop
      vertex 4.077230e+00 2.038615e+00 3.057923e+00
      vertex 4.586884e+00 2.038615e+00 2.038615e+00
      vertex 4.586884e+00 1.528961e+00 3.057923e+00
    endloop
  endfacet
  facet normal -6.666667e-01 -6.666667e-01 -3.333333e-01
    outer loop
      vertex 4.077230e+00 2.038615e+00 3.057923e+00
      vertex 4.586884e+00 1.528961e+00 3.057923e+00
      vertex 4.077230e+00 1.528961e+00 4.077230e+00
    endloop
  endfacet
  facet normal 2.182179e-01 -8.728716e-01 -4.364358e-01
    outer loop
      vertex 4.077230e+00 2.038615e+00 3.057923e+00
      vertex 4.077230e+00 1.528961e+00 4.077230e+00
      vertex 3.057923e+00 1.528961e+00 3.567576e+00
    endloop
  endfacet
  facet normal 5.773503e-01 -5.773503e-01 5.773503e-01
    outer loop
      vertex 4.077230e+00 2.038615e+00 3.057923e+00
      vertex 3.057923e+00 1.528961e+00 3.567576e+00
      vertex 3.057923e+00 1.019308e+00 3.057923e+00
    endloop
  endfacet
  facet normal 5.773503e-01 -5.773503e-01 5.773503e-01
    outer loop
      vertex 4.077230e+00 2.038615e+00 3.057923e+00
      vertex 3.057923e+00 1.019308e+00 3.057923e+00
      vertex 3.567576e+00 1.019308e+00 2.548269e+00
    endloop
  endfacet
  facet normal 8.728716e-01 -2.182179e-01 -4.364358e-01
    outer loop
      vertex 4.077230e+00 2.038615e+00 3.057923e+00
      vertex 3.567576e+00 1.019308e+00 2.548269e+00
      vertex 3.567576e+00 2.038615e+00 2.038615e+00
    endloop
  endfacet
  facet normal 6.666667e-01 6.666667e-01 -3.333333e-01
    outer loop
      vertex 4.077230e+00 2.038615e+00 3.057923e+00
      vertex 3.567576e+00 2.038615e+00 2.038615e+00
      vertex 3.567576e+00 2.548269e+00 3.057923e+00
    endloop
  endfacet
  facet normal -3.333333e-01 6.666667e-01 -6.666667e-01
    outer loop
      vertex 3.057923e+00 2.038615e+00 0.000000e+00
      vertex 3.057923e+00 2.548269e+00 5.096538e-01
      vertex 4.077230e+00 2.548269e+00 0.000000e+00
    endloop
  endfacet
  facet normal -4.364358e-01 8.728716e-01 2.182179e-01
    outer loop
      vertex 3.057923e+00 2.038615e+00 0.000000e+00
      vertex 4.077230e+00 2.548269e+00 0.000000e+00
      vertex 3.567576e+00 2.548269e+00 -1.019308e+00
    endloop
  endfacet
  facet normal 5.773503e-01 5.773503e-01 5.773503e-01
    outer loop
      vertex 3.057923e+00 2.038615e+00 0.000000e+00
      vertex 3.567576e+00 2.548269e+00 -1.019308e+00
      vertex 3.057922e+00 3.057922e+00 -1.019308e+00
    endloop
  endfacet
  facet normal 5.773503e-01 5.773503e-01 5.773503e-01
    outer loop
      vertex 3.057923e+00 2.038615e+00 0.000000e+00
      vertex 3.057922e+00 3.057922e+00 -1.019308e+00
      vertex 2.548269e+00 3.057922e+00 -5.096538e-01
    endloop
  endfacet
  facet normal -4.364358e-01 2.182179e-01 8.728716e-01
    outer loop
      vertex 3.057923e+00 2.038615e+00 0.000000e+00
      vertex 2.548269e+00 3.057922e+00 -5.096538e-01
      vertex 2.038615e+00 2.038615e+00 -5.096538e-01
    endloop
  endfacet
  facet normal -3.333333e-01 -6.666667e-01 6.666667e-01
    outer loop
      vertex 3.057923e+00 2.038615e+00 0.000000e+00
      vertex 2.038615e+00 2.038615e+00 -5.096538e-01
      vertex 3.057922e+00 1.528961e+00 -5.096538e-01
    endloop
  endfacet
  facet normal -3.333333e-01 -6.666667e-01 6.666667e-01
    outer loop
      vertex 3.057923e+00 2.038615e+00 0.000000e+00
      vertex 3.057922e+00 1.528961e+00 -5.096538e-01
      vertex 4.077230e+00 1.528961e+00 0.000000e+00
    endloop
  endfacet
  facet normal -4.364358e-01 -8.728716e-01 -2.182179e-01
    outer loop
      vertex 3.057923e+00 2.038615e+00 0.000000e+00
      vertex 4.077230e+00 1.528961e+00 0.000000e+00
      vertex 3.567576e+00 1.528961e+00 1.019308e+00
    endloop
  endfacet
  facet normal 5.773503e-01 -5.773503e-01 -5.773503e-01
    outer loop
      vertex 3.057923e+00 2.038615e+00 0.000000e+00
      vertex 3.567576e+00 1.528961e+00 1.019308e+00
      vertex 3.057923e+00 1.019308e+00 1.019308e+00
    endloop
  endfacet
  facet normal 5.773503e-01 -5.773503e-01 -5.773503e-01
    outer loop
      vertex 3.057923e+00 2.038615e+00 0.000000e+00
      vertex 3.057923e+00 1.019308e+00 1.019308e+00
      vertex 2.548269e+00 1.019308e+00 5.096538e-01
    endloop
  endfacet
  facet normal -4.364358e-01 -2.182179e-01 -8.728716e-01
    outer loop
      vertex 3.057923e+00 2.038615e+00 0.000000e+00
      vertex 2.548269e+00 1.019308e+00 5.096538e-01
      vertex 2.038615e+00 2.038615e+00 5.096538e-01
    endloop
  endfacet
  facet normal -3.333333e-01 6.666667e-01 -6.666667e-01
    outer loop
      vertex 3.057923e+00 2.038615e+00 0.000000e+00
      vertex 2.038615e+00 2.038615e+00 5.096538e-01
      vertex 3.057923e+00 2.548269e+00 5.096538e-01
    endloop
  endfacet
  facet normal 6.666667e-01 -6.666667e-01 -3.333333e-01
    outer loop
      vertex 2.038615e+00 1.110223e-16 3.057923e+00
      vertex 2.548269e+00 5.096538e-01 3.057923e+00
      vertex 2.548269e+00 2.496583e-16 4.077230e+00
    endloop
  endfacet
  facet normal 8.728716e-01 2.182179e-01 -4.364358e-01
    outer loop
      vertex 2.038615e+00 1.110223e-16 3.057923e+00
      vertex 2.548269e+00 2.496583e-16 4.077230e+00
      vertex 2.548269e+00 -1.019308e+00 3.567576e+00
    endloop
  endfacet
  facet normal 5.773503e-01 5.773503e-01 5.773503e-01
    outer loop
      vertex 2.038615e+00 1.110223e-16 3.057923e+00
      vertex 2.548269e+00 -1.019308e+00 3.567576e+00
      vertex 3.057922e+00 -1.019308e+00 3.057923e+00
    endloop
  endfacet
  facet normal 5.773503e-01 5.773503e-01 5.773503e-01
    outer loop
      vertex 2.038615e+00 1.110223e-16 3.057923e+00
      vertex 3.057922e+00 -1.019308e+00 3.057923e+00
      vertex 3.057922e+00 -5.096538e-01 2.548269e+00
    endloop
  endfacet
  facet normal 2.182179e-01 8.728716e-01 -4.364358e-01
    outer loop
      vertex 2.038615e+00 1.110223e-16 3.057923e+00
      vertex 3.057922e+00 -5.096538e-01 2.548269e+00
      vertex 2.038615e+00 -5.096538e-01 2.038615e+00
    endloop
  endfacet
  facet normal -6.666667e-01 6.666667e-01 -3.333333e-01
    outer loop
      vertex 2.038615e+00 1.110223e-16 3.057923e+00
      vertex 2.038615e+00 -5.096538e-01 2.038615e+00
      vertex 1.528961e+00 -5.096538e-01 3.057923e+00
    endloop
  endfacet
  facet normal -6.666667e-01 6.666667e-01 -3.333333e-01
    outer loop
      vertex 2.038615e+00 1.110223e-16 3.057923e+00
      vertex 1.528961e+00 -5.096538e-01 3.057923e+00
      vertex 1.528961e+00 2.496583e-16 4.077230e+00
    endloop
  endfacet
  facet normal -8.728716e-01 -2.182179e-01 -4.364358e-01
    outer loop
      vertex 2.038615e+00 1.110223e-16 3.057923e+00
      vertex 1.528961e+00 2.496583e-16 4.077230e+00
      vertex 1.528961e+00 1.019308e+00 3.567576e+00
    endloop
  endfacet
  facet normal -5.773503e-01 -5.773503e-01 5.773503e-01
    outer loop
      vertex 2.038615e+00 1.110223e-16 3.057923e+00
      vertex 1.528961e+00 1.019308e+00 3.567576e+00
      vertex 1.019308e+00 1.019308e+00 3.057923e+00
    endloop
  endfacet
  facet normal -5.773503e-01 -5.773503e-01 5.773503e-01
    outer loop
      vertex 2.038615e+00 1.110223e-16 3.057923e+00
      vertex 1.019308e+00 1.019308e+00 3.057923e+00
      vertex 1.019308e+00 5.096538e-01 2.548269e+00
    endloop
  endfacet
  facet normal -2.182179e-01 -8.728716e-01 -4.364358e-01
    outer loop
      vertex 2.038615e+00 1.110223e-16 3.057923e+00
      vertex 1.019308e+00 5.096538e-01 2.548269e+00
      vertex 2.038615e+00 5.096538e-01 2.038615e+00
    endloop
  endfacet
  facet normal 6.666667e-01 -6.666667e-01 -3.333333e-01
    outer loop
      vertex 2.038615e+00 1.110223e-16 3.057923e+00
      vertex 2.038615e+00 5.096538e-01 2.038615e+00
      vertex 2.548269e+00 5.096538e-01 3.057923e+00
    endloop
  endfacet
  facet normal 6.666667e-01 6.666667e-01 3.333333e-01
    outer loop
      vertex 2.038615e+00 4.077230e+00 1.019308e+00
      vertex 2.548269e+00 3.567576e+00 1.019308e+00
      vertex 2.548269e+00 4.077230e+00 0.000000e+00
    endloop
  endfacet
  facet normal 8.728716e-01 -2.182179e-01 4.364358e-01
    outer loop
      vertex 2.038615e+00 4.077230e+00 1.019308e+00
      vertex 2.548269e+00 4.077230e+00 0.000000e+00
      vertex 2.548269e+00 5.096538e+00 5.096538e-01
    endloop
  endfacet
  facet normal 5.773503e-01 -5.773503e-01 -5.773503e-01
    outer loop
      vertex 2.038615e+00 4.077230e+00 1.019308e+00
      vertex 2.548269e+00 5.096538e+00 5.096538e-01
      vertex 3.057923e+00 5.096538e+00 1.019308e+00
    endloop
  endfacet
  facet normal 5.773503e-01 -5.773503e-01 -5.773503e-01
    outer loop
      vertex 2.038615e+00 4.077230e+00 1.019308e+00
      vertex 3.057923e+00 5.096538e+00 1.019308e+00
      vertex 3.057923e+00 4.586884e+00 1.528961e+00
    endloop
  endfacet
  facet normal 2.182179e-01 -8.728716e-01 4.364358e-01
    outer loop
      vertex 2.038615e+00 4.077230e+00 1.019308e+00
      vertex 3.057923e+00 4.586884e+00 1.528961e+00
      vertex 2.038615e+00 4.586884e+00 2.038615e+00
    endloop
  endfacet
  facet normal -6.666667e-01 -6.666667e-01 3.333333e-01
    outer loop
      vertex 2.038615e+00 4.077230e+00 1.019308e+00
      vertex 2.038615e+00 4.586884e+00 2.038615e+00
      vertex 1.528961e+00 4.586884e+00 1.019308e+00
    endloop
  endfacet
  facet normal -6.666667e-01 -6.666667e-01 3.333333e-01
    outer loop
      vertex 2.038615e+00 4.077230e+00 1.019308e+00
      vertex 1.528961e+00 4.586884e+00 1.019308e+00
      vertex 1.528961e+00 4.077230e+00 0.000000e+00
    endloop
  endfacet
  facet normal -8.728716e-01 2.182179e-01 4.364358e-01
    outer loop
      vertex 2.038615e+00 4.077230e+00 1.019308e+00
      vertex 1.528961e+00 4.077230e+00 0.000000e+00
      vertex 1.528961e+00 3.057923e+00 5.096538e-01
    endloop
  endfacet
  facet normal -5.773503e-01 5.773503e-01 -5.773503e-01
    outer loop
      vertex 2.038615e+00 4.077230e+00 1.019308e+00
      vertex 1.528961e+00 3.057923e+00 5.096538e-01
      vertex 1.019308e+00 3.057923e+00 1.019308e+00
    endloop
  endfacet
  facet normal -5.773503e-01 5.773503e-01 -5.773503e-01
    outer loop
      vertex 2.038615e+00 4.077230e+00 1.019308e+00
      vertex 1.019308e+00 3.057923e+00 1.019308e+00
      vertex 1.019308e+00 3.567576e+00 1.528961e+00
    endloop
  endfacet
  facet normal -2.182179e-01 8.728716e-01 4.364358e-01
    outer loop
      vertex 2.038615e+00 4.077230e+00 1.019308e+00
      vertex 1.019308e+00 3.567576e+00 1.528961e+00
      vertex 2.038615e+00 3.567576e+00 2.038615e+00
    endloop
  endfacet
  facet normal 6.666667e-01 6.666667e-01 3.333333e-01
    outer loop
      vertex 2.038615e+00 4.077230e+00 1.019308e+00
      vertex 2.038615e+00 3.567576e+00 2.038615e+00
      vertex 2.548269e+00 3.567576e+00 1.019308e+00
    endloop
  endfacet
  facet normal 6.666667e-01 -3.333333e-01 6.666667e-01
    outer loop
      vertex 2.038615e+00 3.057923e+00 4.077230e+00
      vertex 2.548269e+00 3.057923e+00 3.567576e+00
      vertex 2.548269e+00 4.077230e+00 4.077230e+00
    endloop
  endfacet
  facet normal 8.728716e-01 -4.364358e-01 -2.182179e-01
    outer loop
      vertex 2.038615e+00 3.057923e+00 4.077230e+00
      vertex 2.548269e+00 4.077230e+00 4.077230e+00
      vertex 2.548269e+00 3.567576e+00 5.096538e+00
    endloop
  endfacet
  facet normal 5.773503e-01 5.773503e-01 -5.773503e-01
    outer loop
      vertex 2.038615e+00 3.057923e+00 4.077230e+00
      vertex 2.548269e+00 3.567576e+00 5.096538e+00
      vertex 3.057923e+00 3.057923e+00 5.096538e+00
    endloop
  endfacet
  facet normal 5.773503e-01 5.773503e-01 -5.773503e-01
    outer loop
      vertex 2.038615e+00 3.057923e+00 4.077230e+00
      vertex 3.057923e+00 3.057923e+00 5.096538e+00
      vertex 3.057923e+00 2.548269e+00 4.586884e+00
    endloop
  endfacet
  facet normal 2.182179e-01 -4.364358e-01 -8.728716e-01
    outer loop
      vertex 2.038615e+00 3.057923e+00 4.077230e+00
      vertex 3.057923e+00 2.548269e+00 4.586884e+00
      vertex 2.038615e+00 2.038615e+00 4.586884e+00
    endloop
  endfacet
  facet normal -6.666667e-01 -3.333333e-01 -6.666667e-01
    outer loop
      vertex 2.038615e+00 3.057923e+00 4.077230e+00
      vertex 2.038615e+00 2.038615e+00 4.586884e+00
      vertex 1.528961e+00 3.057923e+00 4.586884e+00
    endloop
  endfacet
  facet normal -6.666667e-01 -3.333333e-01 -6.666667e-01
    outer loop
      vertex 2.038615e+00 3.057923e+00 4.077230e+00
      vertex 1.528961e+00 3.057923e+00 4.586884e+00
      vertex 1.528961e+00 4.077230e+00 4.077230e+00
    endloop
  endfacet
  facet normal -8.728716e-01 -4.364358e-01 2.182179e-01
    outer loop
      vertex 2.038615e+00 3.057923e+00 4.077230e+00
      vertex 1.528961e+00 4.077230e+00 4.077230e+00
      vertex 1.528961e+00 3.567576e+00 3.057923e+00
    endloop
  endfacet
  facet normal -5.773503e-01 5.773503e-01 5.773503e-01
    outer loop
      vertex 2.038615e+00 3.057923e+00 4.077230e+00
      vertex 1.528961e+00 3.567576e+00 3.057923e+00
      vertex 1.019308e+00 3.057923e+00 3.057923e+00
    endloop
  endfacet
  facet normal -5.773503e-01 5.773503e-01 5.773503e-01
    outer loop
      vertex 2.038615e+00 3.057923e+00 4.077230e+00
      vertex 1.019308e+00 3.057923e+00 3.057923e+00
      vertex 1.019308e+00 2.548269e+00 3.567576e+00
    endloop
  endfacet
  facet normal -2.182179e-01 -4.364358e-01 8.728716e-01
    outer loop
      vertex 2.038615e+00 3.057923e+00 4.077230e+00
      vertex 1.019308e+00 2.548269e+00 3.567576e+00
      vertex 2.038615e+00 2.038615e+00 3.567576e+00
    endloop
  endfacet
  facet normal 6.666667e-01 -3.333333e-01 6.666667e-01
    outer loop
      vertex 2.038615e+00 3.057923e+00 4.077230e+00
      vertex 2.038615e+00 2.038615e+00 3.567576e+00
      vertex 2.548269e+00 3.057923e+00 3.567576e+00
    endloop
  endfacet
endsolid surface_model
