solid surface_model
  facet normal 1.311606e-16 6.329283e-01 -7.742105e-01
    outer loop
      vertex 1.821443e+00 -1.323938e-16 -9.714451e-17
      vertex 2.023825e+00 4.047650e-01 3.309012e-01
      vertex 2.023825e+00 -4.047650e-01 -3.309013e-01
    endloop
  endfacet
  facet normal 6.490132e-01 6.490132e-01 -3.969429e-01
    outer loop
      vertex 1.821443e+00 -1.323938e-16 -9.714451e-17
      vertex 2.023825e+00 -4.047650e-01 -3.309013e-01
      vertex 1.619060e+00 -1.462716e-16 -3.309013e-01
    endloop
  endfacet
  facet normal 3.154458e-17 1.000000e+00 -6.123234e-17
    outer loop
      vertex 1.821443e+00 -1.323938e-16 -9.714451e-17
      vertex 1.619060e+00 -1.462716e-16 -3.309013e-01
      vertex 1.619060e+00 -1.057479e-16 3.309012e-01
    endloop
  endfacet
  facet normal -6.490132e-01 6.490132e-01 -3.969429e-01
    outer loop
      vertex 1.821443e+00 -1.323938e-16 -9.714451e-17
      vertex 1.619060e+00 -1.057479e-16 3.309012e-01
      vertex 2.023825e+00 4.047650e-01 3.309012e-01
    endloop
  endfacet
  facet normal 6.329283e-01 -2.623212e-16 -7.742105e-01
    outer loop
      vertex 1.619060e+00 -2.023825e-01 -6.618025e-01
      vertex 2.023825e+00 -4.047650e-01 -3.309013e-01
      vertex 1.214295e+00 -4.047650e-01 -9.927037e-01
    endloop
  endfacet
  facet normal 6.490132e-01 -6.490132e-01 -3.969429e-01
    outer loop
      vertex 1.619060e+00 -2.023825e-01 -6.618025e-01
      vertex 1.214295e+00 -4.047650e-01 -9.927037e-01
      vertex 1.619060e+00 -1.867953e-16 -9.927037e-01
    endloop
  endfacet
  facet normal 1.000000e+00 -0.000000e+00 0.000000e+00
    outer loop
      vertex 1.619060e+00 -2.023825e-01 -6.618025e-01
      vertex 1.619060e+00 -1.867953e-16 -9.927037e-01
      vertex 1.619060e+00 -1.462716e-16 -3.309013e-01
    endloop
  endfacet
  facet normal 6.490132e-01 6.490132e-01 -3.969429e-01
    outer loop
      vertex 1.619060e+00 -2.023825e-01 -6.618025e-01
      vertex 1.619060e+00 -1.462716e-16 -3.309013e-01
      vertex 2.023825e+00 -4.047650e-01 -3.309013e-01
    endloop
  endfacet
  facet normal -1.049285e-15 -6.329283e-01 -7.742105e-01
    outer loop
      vertex 1.416677e+00 -2.006731e-16 -1.323605e+00
      vertex 1.214295e+00 -4.047650e-01 -9.927037e-01
      vertex 1.214295e+00 4.047650e-01 -1.654506e+00
    endloop
  endfacet
  facet normal -6.490132e-01 -6.490132e-01 -3.969429e-01
    outer loop
      vertex 1.416677e+00 -2.006731e-16 -1.323605e+00
      vertex 1.214295e+00 4.047650e-01 -1.654506e+00
      vertex 1.619060e+00 -2.273190e-16 -1.654506e+00
    endloop
  endfacet
  facet normal -3.154458e-17 -1.000000e+00 6.123234e-17
    outer loop
      vertex 1.416677e+00 -2.006731e-16 -1.323605e+00
      vertex 1.619060e+00 -2.273190e-16 -1.654506e+00
      vertex 1.619060e+00 -1.867953e-16 -9.927037e-01
    endloop
  endfacet
  facet normal 6.490132e-01 -6.490132e-01 -3.969429e-01
    outer loop
      vertex 1.416677e+00 -2.006731e-16 -1.323605e+00
      vertex 1.619060e+00 -1.867953e-16 -9.927037e-01
      vertex 1.214295e+00 -4.047650e-01 -9.927037e-01
    endloop
  endfacet
  facet normal 7.651034e-16 6.329283e-01 -7.742105e-01
    outer loop
      vertex 3.238120e+00 6.476240e+00 2.647210e+00
      vertex 2.023825e+00 6.071475e+00 2.316309e+00
      vertex 2.023825e+00 6.881005e+00 2.978111e+00
    endloop
  endfacet
  facet normal -1.963418e-01 1.963418e-01 -9.606767e-01
    outer loop
      vertex 3.238120e+00 6.476240e+00 2.647210e+00
      vertex 2.023825e+00 6.881005e+00 2.978111e+00
      vertex 2.833355e+00 7.690535e+00 2.978111e+00
    endloop
  endfacet
  facet normal 0.000000e+00 2.629176e-01 -9.648183e-01
    outer loop
      vertex 3.238120e+00 6.476240e+00 2.647210e+00
      vertex 2.833355e+00 7.690535e+00 2.978111e+00
      vertex 3.642885e+00 7.690535e+00 2.978111e+00
    endloop
  endfacet
  facet normal 1.963418e-01 1.963418e-01 -9.606767e-01
    outer loop
      vertex 3.238120e+00 6.476240e+00 2.647210e+00
      vertex 3.642885e+00 7.690535e+00 2.978111e+00
      vertex 4.452415e+00 6.881005e+00 2.978111e+00
    endloop
  endfacet
  facet normal -7.651034e-16 6.329283e-01 -7.742105e-01
    outer loop
      vertex 3.238120e+00 6.476240e+00 2.647210e+00
      vertex 4.452415e+00 6.881005e+00 2.978111e+00
      vertex 4.452415e+00 6.071475e+00 2.316309e+00
    endloop
  endfacet
  facet normal -1.963418e-01 1.963418e-01 -9.606767e-01
    outer loop
      vertex 3.238120e+00 6.476240e+00 2.647210e+00
      vertex 4.452415e+00 6.071475e+00 2.316309e+00
      vertex 3.642885e+00 5.261945e+00 2.316309e+00
    endloop
  endfacet
  facet normal 0.000000e+00 2.629176e-01 -9.648183e-01
    outer loop
      vertex 3.238120e+00 6.476240e+00 2.647210e+00
      vertex 3.642885e+00 5.261945e+00 2.316309e+00
      vertex 2.833355e+00 5.261945e+00 2.316309e+00
    endloop
  endfacet
  facet normal 1.963418e-01 1.963418e-01 -9.606767e-01
    outer loop
      vertex 3.238120e+00 6.476240e+00 2.647210e+00
      vertex 2.833355e+00 5.261945e+00 2.316309e+00
      vertex 2.023825e+00 6.071475e+00 2.316309e+00
    endloop
  endfacet
  facet normal -6.329283e-01 1.748808e-16 -7.742105e-01
    outer loop
      vertex 1.619060e+00 1.619060e+00 6.618025e-01
      vertex 2.023825e+00 4.047650e-01 3.309012e-01
      vertex 1.214295e+00 4.047650e-01 9.927037e-01
    endloop
  endfacet
  facet normal -1.963418e-01 -1.963418e-01 -9.606767e-01
    outer loop
      vertex 1.619060e+00 1.619060e+00 6.618025e-01
      vertex 1.214295e+00 4.047650e-01 9.927037e-01
      vertex 4.047650e-01 1.214295e+00 9.927037e-01
    endloop
  endfacet
  facet normal -2.629176e-01 5.448395e-17 -9.648183e-01
    outer loop
      vertex 1.619060e+00 1.619060e+00 6.618025e-01
      vertex 4.047650e-01 1.214295e+00 9.927037e-01
      vertex 4.047650e-01 2.023825e+00 9.927037e-01
    endloop
  endfacet
  facet normal -1.963418e-01 1.963418e-01 -9.606767e-01
    outer loop
      vertex 1.619060e+00 1.619060e+00 6.618025e-01
      vertex 4.047650e-01 2.023825e+00 9.927037e-01
      vertex 1.214295e+00 2.833355e+00 9.927037e-01
    endloop
  endfacet
  facet normal -6.329283e-01 -1.093005e-16 -7.742105e-01
    outer loop
      vertex 1.619060e+00 1.619060e+00 6.618025e-01
      vertex 1.214295e+00 2.833355e+00 9.927037e-01
      vertex 2.023825e+00 2.833355e+00 3.309012e-01
    endloop
  endfacet
  facet normal -1.963418e-01 -1.963418e-01 -9.606767e-01
    outer loop
      vertex 1.619060e+00 1.619060e+00 6.618025e-01
      vertex 2.023825e+00 2.833355e+00 3.309012e-01
      vertex 2.833355e+00 2.023825e+00 3.309012e-01
    endloop
  endfacet
  facet normal -2.629176e-01 0.000000e+00 -9.648183e-01
    outer loop
      vertex 1.619060e+00 1.619060e+00 6.618025e-01
      vertex 2.833355e+00 2.023825e+00 3.309012e-01
      vertex 2.833355e+00 1.214295e+00 3.309012e-01
    endloop
  endfacet
  facet normal -1.963418e-01 1.963418e-01 -9.606767e-01
    outer loop
      vertex 1.619060e+00 1.619060e+00 6.618025e-01
      vertex 2.833355e+00 1.214295e+00 3.309012e-01
      vertex 2.023825e+00 4.047650e-01 3.309012e-01
    endloop
  endfacet
  facet normal -6.329283e-01 1.311606e-16 -7.742105e-01
    outer loop
      vertex 1.619060e+00 2.023825e-01 6.618025e-01
      vertex 1.214295e+00 4.047650e-01 9.927037e-01
      vertex 2.023825e+00 4.047650e-01 3.309012e-01
    endloop
  endfacet
  facet normal -6.490132e-01 6.490132e-01 -3.969429e-01
    outer loop
      vertex 1.619060e+00 2.023825e-01 6.618025e-01
      vertex 2.023825e+00 4.047650e-01 3.309012e-01
      vertex 1.619060e+00 -9.076044e-17 3.309013e-01
    endloop
  endfacet
  facet normal -1.000000e+00 -0.000000e+00 0.000000e+00
    outer loop
      vertex 1.619060e+00 2.023825e-01 6.618025e-01
      vertex 1.619060e+00 -9.076044e-17 3.309013e-01
      vertex 1.619060e+00 -5.023673e-17 9.927037e-01
    endloop
  endfacet
  facet normal -6.490132e-01 -6.490132e-01 -3.969429e-01
    outer loop
      vertex 1.619060e+00 2.023825e-01 6.618025e-01
      vertex 1.619060e+00 -5.023673e-17 9.927037e-01
      vertex 1.214295e+00 4.047650e-01 9.927037e-01
    endloop
  endfacet
  facet normal 0.000000e+00 6.329283e-01 -7.742105e-01
    outer loop
      vertex 1.821443e+00 -1.249001e-16 -6.938894e-17
      vertex 2.023825e+00 4.047650e-01 3.309012e-01
      vertex 2.023825e+00 -4.047650e-01 -3.309013e-01
    endloop
  endfacet
  facet normal 6.490132e-01 6.490132e-01 -3.969429e-01
    outer loop
      vertex 1.821443e+00 -1.249001e-16 -6.938894e-17
      vertex 2.023825e+00 -4.047650e-01 -3.309013e-01
      vertex 1.619060e+00 -1.312842e-16 -3.309013e-01
    endloop
  endfacet
  facet normal 6.857207e-17 1.000000e+00 -6.123234e-17
    outer loop
      vertex 1.821443e+00 -1.249001e-16 -6.938894e-17
      vertex 1.619060e+00 -1.312842e-16 -3.309013e-01
      vertex 1.619060e+00 -9.076044e-17 3.309013e-01
    endloop
  endfacet
  facet normal -6.490132e-01 6.490132e-01 -3.969429e-01
    outer loop
      vertex 1.821443e+00 -1.249001e-16 -6.938894e-17
      vertex 1.619060e+00 -9.076044e-17 3.309013e-01
      vertex 2.023825e+00 4.047650e-01 3.309012e-01
    endloop
  endfacet
  facet normal 6.329283e-01 -2.623212e-16 -7.742105e-01
    outer loop
      vertex 1.619060e+00 -2.023825e-01 -6.618025e-01
      vertex 2.023825e+00 -4.047650e-01 -3.309013e-01
      vertex 1.214295e+00 -4.047650e-01 -9.927037e-01
    endloop
  endfacet
  facet normal 6.490132e-01 -6.490132e-01 -3.969429e-01
    outer loop
      vertex 1.619060e+00 -2.023825e-01 -6.618025e-01
      vertex 1.214295e+00 -4.047650e-01 -9.927037e-01
      vertex 1.619060e+00 -1.718079e-16 -9.927037e-01
    endloop
  endfacet
  facet normal 1.000000e+00 -0.000000e+00 0.000000e+00
    outer loop
      vertex 1.619060e+00 -2.023825e-01 -6.618025e-01
      vertex 1.619060e+00 -1.718079e-16 -9.927037e-01
      vertex 1.619060e+00 -1.312842e-16 -3.309013e-01
    endloop
  endfacet
  facet normal 6.490132e-01 6.490132e-01 -3.969429e-01
    outer loop
      vertex 1.619060e+00 -2.023825e-01 -6.618025e-01
      vertex 1.619060e+00 -1.312842e-16 -3.309013e-01
      vertex 2.023825e+00 -4.047650e-01 -3.309013e-01
    endloop
  endfacet
  facet normal -2.186010e-16 -6.329283e-01 -7.742105e-01
    outer loop
      vertex -2.081668e-17 0.000000e+00 1.323605e+00
      vertex 1.214295e+00 4.047650e-01 9.927037e-01
      vertex 1.214295e+00 -4.047650e-01 1.654506e+00
    endloop
  endfacet
  facet normal 1.963418e-01 -1.963418e-01 -9.606767e-01
    outer loop
      vertex -2.081668e-17 0.000000e+00 1.323605e+00
      vertex 1.214295e+00 -4.047650e-01 1.654506e+00
      vertex 4.047650e-01 -1.214295e+00 1.654506e+00
    endloop
  endfacet
  facet normal 0.000000e+00 -2.629176e-01 -9.648183e-01
    outer loop
      vertex -2.081668e-17 0.000000e+00 1.323605e+00
      vertex 4.047650e-01 -1.214295e+00 1.654506e+00
      vertex -4.047650e-01 -1.214295e+00 1.654506e+00
    endloop
  endfacet
  facet normal -1.963418e-01 -1.963418e-01 -9.606767e-01
    outer loop
      vertex -2.081668e-17 0.000000e+00 1.323605e+00
      vertex -4.047650e-01 -1.214295e+00 1.654506e+00
      vertex -1.214295e+00 -4.047650e-01 1.654506e+00
    endloop
  endfacet
  facet normal 2.186010e-16 -6.329283e-01 -7.742105e-01
    outer loop
      vertex -2.081668e-17 0.000000e+00 1.323605e+00
      vertex -1.214295e+00 -4.047650e-01 1.654506e+00
      vertex -1.214295e+00 4.047650e-01 9.927037e-01
    endloop
  endfacet
  facet normal 1.963418e-01 -1.963418e-01 -9.606767e-01
    outer loop
      vertex -2.081668e-17 0.000000e+00 1.323605e+00
      vertex -1.214295e+00 4.047650e-01 9.927037e-01
      vertex -4.047650e-01 1.214295e+00 9.927037e-01
    endloop
  endfacet
  facet normal 0.000000e+00 -2.629176e-01 -9.648183e-01
    outer loop
      vertex -2.081668e-17 0.000000e+00 1.323605e+00
      vertex -4.047650e-01 1.214295e+00 9.927037e-01
      vertex 4.047650e-01 1.214295e+00 9.927037e-01
    endloop
  endfacet
  facet normal -1.963418e-01 -1.963418e-01 -9.606767e-01
    outer loop
      vertex -2.081668e-17 0.000000e+00 1.323605e+00
      vertex 4.047650e-01 1.214295e+00 9.927037e-01
      vertex 1.214295e+00 4.047650e-01 9.927037e-01
    endloop
  endfacet
  facet normal 0.000000e+00 -6.329283e-01 -7.742105e-01
    outer loop
      vertex 1.416678e+00 6.476240e+00 1.323605e+00
      vertex 1.214295e+00 6.071475e+00 1.654506e+00
      vertex 1.214295e+00 6.881005e+00 9.927037e-01
    endloop
  endfacet
  facet normal -6.490132e-01 -6.490132e-01 -3.969429e-01
    outer loop
      vertex 1.416678e+00 6.476240e+00 1.323605e+00
      vertex 1.214295e+00 6.881005e+00 9.927037e-01
      vertex 1.619060e+00 6.476240e+00 9.927037e-01
    endloop
  endfacet
  facet normal 0.000000e+00 -1.000000e+00 0.000000e+00
    outer loop
      vertex 1.416678e+00 6.476240e+00 1.323605e+00
      vertex 1.619060e+00 6.476240e+00 9.927037e-01
      vertex 1.619060e+00 6.476240e+00 1.654506e+00
    endloop
  endfacet
  facet normal 6.490132e-01 -6.490132e-01 -3.969429e-01
    outer loop
      vertex 1.416678e+00 6.476240e+00 1.323605e+00
      vertex 1.619060e+00 6.476240e+00 1.654506e+00
      vertex 1.214295e+00 6.071475e+00 1.654506e+00
    endloop
  endfacet
  facet normal -6.329283e-01 1.311606e-16 -7.742105e-01
    outer loop
      vertex 1.619060e+00 6.678623e+00 6.618025e-01
      vertex 1.214295e+00 6.881005e+00 9.927037e-01
      vertex 2.023825e+00 6.881005e+00 3.309012e-01
    endloop
  endfacet
  facet normal -6.490132e-01 6.490132e-01 -3.969429e-01
    outer loop
      vertex 1.619060e+00 6.678623e+00 6.618025e-01
      vertex 2.023825e+00 6.881005e+00 3.309012e-01
      vertex 1.619060e+00 6.476240e+00 3.309013e-01
    endloop
  endfacet
  facet normal -1.000000e+00 -0.000000e+00 0.000000e+00
    outer loop
      vertex 1.619060e+00 6.678623e+00 6.618025e-01
      vertex 1.619060e+00 6.476240e+00 3.309013e-01
      vertex 1.619060e+00 6.476240e+00 9.927037e-01
    endloop
  endfacet
  facet normal -6.490132e-01 -6.490132e-01 -3.969429e-01
    outer loop
      vertex 1.619060e+00 6.678623e+00 6.618025e-01
      vertex 1.619060e+00 6.476240e+00 9.927037e-01
      vertex 1.214295e+00 6.881005e+00 9.927037e-01
    endloop
  endfacet
  facet normal -1.311606e-16 6.329283e-01 -7.742105e-01
    outer loop
      vertex 1.821443e+00 6.476240e+00 -6.938894e-17
      vertex 2.023825e+00 6.881005e+00 3.309012e-01
      vertex 2.023825e+00 6.071475e+00 -3.309013e-01
    endloop
  endfacet
  facet normal 6.490132e-01 6.490132e-01 -3.969429e-01
    outer loop
      vertex 1.821443e+00 6.476240e+00 -6.938894e-17
      vertex 2.023825e+00 6.071475e+00 -3.309013e-01
      vertex 1.619060e+00 6.476240e+00 -3.309013e-01
    endloop
  endfacet
  facet normal 0.000000e+00 1.000000e+00 0.000000e+00
    outer loop
      vertex 1.821443e+00 6.476240e+00 -6.938894e-17
      vertex 1.619060e+00 6.476240e+00 -3.309013e-01
      vertex 1.619060e+00 6.476240e+00 3.309013e-01
    endloop
  endfacet
  facet normal -6.490132e-01 6.490132e-01 -3.969429e-01
    outer loop
      vertex 1.821443e+00 6.476240e+00 -6.938894e-17
      vertex 1.619060e+00 6.476240e+00 3.309013e-01
      vertex 2.023825e+00 6.881005e+00 3.309012e-01
    endloop
  endfacet
  facet normal -6.329283e-01 6.558030e-16 -7.742105e-01
    outer loop
      vertex 1.619060e+00 3.035738e+00 6.618025e-01
      vertex 2.023825e+00 2.833355e+00 3.309012e-01
      vertex 1.214295e+00 2.833355e+00 9.927037e-01
    endloop
  endfacet
  facet normal -6.490132e-01 6.490132e-01 -3.969429e-01
    outer loop
      vertex 1.619060e+00 3.035738e+00 6.618025e-01
      vertex 1.214295e+00 2.833355e+00 9.927037e-01
      vertex 1.619060e+00 3.238120e+00 9.927037e-01
    endloop
  endfacet
  facet normal -1.000000e+00 0.000000e+00 0.000000e+00
    outer loop
      vertex 1.619060e+00 3.035738e+00 6.618025e-01
      vertex 1.619060e+00 3.238120e+00 9.927037e-01
      vertex 1.619060e+00 3.238120e+00 3.309012e-01
    endloop
  endfacet
  facet normal -6.490132e-01 -6.490132e-01 -3.969429e-01
    outer loop
      vertex 1.619060e+00 3.035738e+00 6.618025e-01
      vertex 1.619060e+00 3.238120e+00 3.309012e-01
      vertex 2.023825e+00 2.833355e+00 3.309012e-01
    endloop
  endfacet
  facet normal 7.869635e-16 6.329283e-01 -7.742105e-01
    outer loop
      vertex 1.416678e+00 3.238120e+00 1.323605e+00
      vertex 1.214295e+00 2.833355e+00 9.927037e-01
      vertex 1.214295e+00 3.642885e+00 1.654506e+00
    endloop
  endfacet
  facet normal 6.490132e-01 6.490132e-01 -3.969429e-01
    outer loop
      vertex 1.416678e+00 3.238120e+00 1.323605e+00
      vertex 1.214295e+00 3.642885e+00 1.654506e+00
      vertex 1.619060e+00 3.238120e+00 1.654506e+00
    endloop
  endfacet
  facet normal -0.000000e+00 1.000000e+00 0.000000e+00
    outer loop
      vertex 1.416678e+00 3.238120e+00 1.323605e+00
      vertex 1.619060e+00 3.238120e+00 1.654506e+00
      vertex 1.619060e+00 3.238120e+00 9.927037e-01
    endloop
  endfacet
  facet normal -6.490132e-01 6.490132e-01 -3.969429e-01
    outer loop
      vertex 1.416678e+00 3.238120e+00 1.323605e+00
      vertex 1.619060e+00 3.238120e+00 9.927037e-01
      vertex 1.214295e+00 2.833355e+00 9.927037e-01
    endloop
  endfacet
  facet normal 6.329283e-01 -2.623212e-16 -7.742105e-01
    outer loop
      vertex 1.619060e+00 3.440503e+00 1.985407e+00
      vertex 1.214295e+00 3.642885e+00 1.654506e+00
      vertex 2.023825e+00 3.642885e+00 2.316309e+00
    endloop
  endfacet
  facet normal 6.490132e-01 -6.490132e-01 -3.969429e-01
    outer loop
      vertex 1.619060e+00 3.440503e+00 1.985407e+00
      vertex 2.023825e+00 3.642885e+00 2.316309e+00
      vertex 1.619060e+00 3.238120e+00 2.316309e+00
    endloop
  endfacet
  facet normal 1.000000e+00 0.000000e+00 0.000000e+00
    outer loop
      vertex 1.619060e+00 3.440503e+00 1.985407e+00
      vertex 1.619060e+00 3.238120e+00 2.316309e+00
      vertex 1.619060e+00 3.238120e+00 1.654506e+00
    endloop
  endfacet
  facet normal 6.490132e-01 6.490132e-01 -3.969429e-01
    outer loop
      vertex 1.619060e+00 3.440503e+00 1.985407e+00
      vertex 1.619060e+00 3.238120e+00 1.654506e+00
      vertex 1.214295e+00 3.642885e+00 1.654506e+00
    endloop
  endfacet
  facet normal 0.000000e+00 -6.329283e-01 -7.742105e-01
    outer loop
      vertex 3.238120e+00 3.238120e+00 -9.714451e-17
      vertex 2.023825e+00 2.833355e+00 3.309012e-01
      vertex 2.023825e+00 3.642885e+00 -3.309013e-01
    endloop
  endfacet
  facet normal 1.963418e-01 -1.963418e-01 -9.606767e-01
    outer loop
      vertex 3.238120e+00 3.238120e+00 -9.714451e-17
      vertex 2.023825e+00 3.642885e+00 -3.309013e-01
      vertex 2.833355e+00 4.452415e+00 -3.309013e-01
    endloop
  endfacet
  facet normal 0.000000e+00 -2.629176e-01 -9.648183e-01
    outer loop
      vertex 3.238120e+00 3.238120e+00 -9.714451e-17
      vertex 2.833355e+00 4.452415e+00 -3.309013e-01
      vertex 3.642885e+00 4.452415e+00 -3.309013e-01
    endloop
  endfacet
  facet normal -1.963418e-01 -1.963418e-01 -9.606767e-01
    outer loop
      vertex 3.238120e+00 3.238120e+00 -9.714451e-17
      vertex 3.642885e+00 4.452415e+00 -3.309013e-01
      vertex 4.452415e+00 3.642885e+00 -3.309013e-01
    endloop
  endfacet
  facet normal 0.000000e+00 -6.329283e-01 -7.742105e-01
    outer loop
      vertex 3.238120e+00 3.238120e+00 -9.714451e-17
      vertex 4.452415e+00 3.642885e+00 -3.309013e-01
      vertex 4.452415e+00 2.833355e+00 3.309012e-01
    endloop
  endfacet
  facet normal 1.963418e-01 -1.963418e-01 -9.606767e-01
    outer loop
      vertex 3.238120e+00 3.238120e+00 -9.714451e-17
      vertex 4.452415e+00 2.833355e+00 3.309012e-01
      vertex 3.642885e+00 2.023825e+00 3.309012e-01
    endloop
  endfacet
  facet normal 0.000000e+00 -2.629176e-01 -9.648183e-01
    outer loop
      vertex 3.238120e+00 3.238120e+00 -9.714451e-17
      vertex 3.642885e+00 2.023825e+00 3.309012e-01
      vertex 2.833355e+00 2.023825e+00 3.309012e-01
    endloop
  endfacet
  facet normal -1.963418e-01 -1.963418e-01 -9.606767e-01
    outer loop
      vertex 3.238120e+00 3.238120e+00 -9.714451e-17
      vertex 2.833355e+00 2.023825e+00 3.309012e-01
      vertex 2.023825e+00 2.833355e+00 3.309012e-01
    endloop
  endfacet
  facet normal 8.744039e-17 6.329283e-01 -7.742105e-01
    outer loop
      vertex 6.938894e-17 3.238120e+00 1.323605e+00
      vertex 1.214295e+00 3.642885e+00 1.654506e+00
      vertex 1.214295e+00 2.833355e+00 9.927037e-01
    endloop
  endfacet
  facet normal -1.963418e-01 1.963418e-01 -9.606767e-01
    outer loop
      vertex 6.938894e-17 3.238120e+00 1.323605e+00
      vertex 1.214295e+00 2.833355e+00 9.927037e-01
      vertex 4.047650e-01 2.023825e+00 9.927037e-01
    endloop
  endfacet
  facet normal 0.000000e+00 2.629176e-01 -9.648183e-01
    outer loop
      vertex 6.938894e-17 3.238120e+00 1.323605e+00
      vertex 4.047650e-01 2.023825e+00 9.927037e-01
      vertex -4.047650e-01 2.023825e+00 9.927037e-01
    endloop
  endfacet
  facet normal 1.963418e-01 1.963418e-01 -9.606767e-01
    outer loop
      vertex 6.938894e-17 3.238120e+00 1.323605e+00
      vertex -4.047650e-01 2.023825e+00 9.927037e-01
      vertex -1.214295e+00 2.833355e+00 9.927037e-01
    endloop
  endfacet
  facet normal -8.744039e-17 6.329283e-01 -7.742105e-01
    outer loop
      vertex 6.938894e-17 3.238120e+00 1.323605e+00
      vertex -1.214295e+00 2.833355e+00 9.927037e-01
      vertex -1.214295e+00 3.642885e+00 1.654506e+00
    endloop
  endfacet
  facet normal -1.963418e-01 1.963418e-01 -9.606767e-01
    outer loop
      vertex 6.938894e-17 3.238120e+00 1.323605e+00
      vertex -1.214295e+00 3.642885e+00 1.654506e+00
      vertex -4.047650e-01 4.452415e+00 1.654506e+00
    endloop
  endfacet
  facet normal 0.000000e+00 2.629176e-01 -9.648183e-01
    outer loop
      vertex 6.938894e-17 3.238120e+00 1.323605e+00
      vertex -4.047650e-01 4.452415e+00 1.654506e+00
      vertex 4.047650e-01 4.452415e+00 1.654506e+00
    endloop
  endfacet
  facet normal 1.963418e-01 1.963418e-01 -9.606767e-01
    outer loop
      vertex 6.938894e-17 3.238120e+00 1.323605e+00
      vertex 4.047650e-01 4.452415e+00 1.654506e+00
      vertex 1.214295e+00 3.642885e+00 1.654506e+00
    endloop
  endfacet
  facet normal 6.558030e-17 6.329283e-01 -7.742105e-01
    outer loop
      vertex 3.238120e+00 -5.551115e-17 -9.714451e-17
      vertex 4.452415e+00 4.047650e-01 3.309012e-01
      vertex 4.452415e+00 -4.047650e-01 -3.309013e-01
    endloop
  endfacet
  facet normal -1.963418e-01 1.963418e-01 -9.606767e-01
    outer loop
      vertex 3.238120e+00 -5.551115e-17 -9.714451e-17
      vertex 4.452415e+00 -4.047650e-01 -3.309013e-01
      vertex 3.642885e+00 -1.214295e+00 -3.309013e-01
    endloop
  endfacet
  facet normal 0.000000e+00 2.629176e-01 -9.648183e-01
    outer loop
      vertex 3.238120e+00 -5.551115e-17 -9.714451e-17
      vertex 3.642885e+00 -1.214295e+00 -3.309013e-01
      vertex 2.833355e+00 -1.214295e+00 -3.309013e-01
    endloop
  endfacet
  facet normal 1.963418e-01 1.963418e-01 -9.606767e-01
    outer loop
      vertex 3.238120e+00 -5.551115e-17 -9.714451e-17
      vertex 2.833355e+00 -1.214295e+00 -3.309013e-01
      vertex 2.023825e+00 -4.047650e-01 -3.309013e-01
    endloop
  endfacet
  facet normal -6.558030e-17 6.329283e-01 -7.742105e-01
    outer loop
      vertex 3.238120e+00 -5.551115e-17 -9.714451e-17
      vertex 2.023825e+00 -4.047650e-01 -3.309013e-01
      vertex 2.023825e+00 4.047650e-01 3.309012e-01
    endloop
  endfacet
  facet normal -1.963418e-01 1.963418e-01 -9.606767e-01
    outer loop
      vertex 3.238120e+00 -5.551115e-17 -9.714451e-17
      vertex 2.023825e+00 4.047650e-01 3.309012e-01
      vertex 2.833355e+00 1.214295e+00 3.309012e-01
    endloop
  endfacet
  facet normal 0.000000e+00 2.629176e-01 -9.648183e-01
    outer loop
      vertex 3.238120e+00 -5.551115e-17 -9.714451e-17
      vertex 2.833355e+00 1.214295e+00 3.309012e-01
      vertex 3.642885e+00 1.214295e+00 3.309012e-01
    endloop
  endfacet
  facet normal 1.963418e-01 1.963418e-01 -9.606767e-01
    outer loop
      vertex 3.238120e+00 -5.551115e-17 -9.714451e-17
      vertex 3.642885e+00 1.214295e+00 3.309012e-01
      vertex 4.452415e+00 4.047650e-01 3.309012e-01
    endloop
  endfacet
  facet normal 0.000000e+00 6.329283e-01 -7.742105e-01
    outer loop
      vertex 4.654797e+00 6.476240e+00 2.647210e+00
      vertex 4.452415e+00 6.071475e+00 2.316309e+00
      vertex 4.452415e+00 6.881005e+00 2.978111e+00
    endloop
  endfacet
  facet normal 6.490132e-01 6.490132e-01 -3.969429e-01
    outer loop
      vertex 4.654797e+00 6.476240e+00 2.647210e+00
      vertex 4.452415e+00 6.881005e+00 2.978111e+00
      vertex 4.857180e+00 6.476240e+00 2.978111e+00
    endloop
  endfacet
  facet normal -0.000000e+00 1.000000e+00 0.000000e+00
    outer loop
      vertex 4.654797e+00 6.476240e+00 2.647210e+00
      vertex 4.857180e+00 6.476240e+00 2.978111e+00
      vertex 4.857180e+00 6.476240e+00 2.316309e+00
    endloop
  endfacet
  facet normal -6.490132e-01 6.490132e-01 -3.969429e-01
    outer loop
      vertex 4.654797e+00 6.476240e+00 2.647210e+00
      vertex 4.857180e+00 6.476240e+00 2.316309e+00
      vertex 4.452415e+00 6.071475e+00 2.316309e+00
    endloop
  endfacet
  facet normal 6.329283e-01 -5.246424e-16 -7.742105e-01
    outer loop
      vertex 4.857180e+00 6.678623e+00 3.309012e+00
      vertex 4.452415e+00 6.881005e+00 2.978111e+00
      vertex 5.261945e+00 6.881005e+00 3.639914e+00
    endloop
  endfacet
  facet normal 6.490132e-01 -6.490132e-01 -3.969429e-01
    outer loop
      vertex 4.857180e+00 6.678623e+00 3.309012e+00
      vertex 5.261945e+00 6.881005e+00 3.639914e+00
      vertex 4.857180e+00 6.476240e+00 3.639914e+00
    endloop
  endfacet
  facet normal 1.000000e+00 0.000000e+00 0.000000e+00
    outer loop
      vertex 4.857180e+00 6.678623e+00 3.309012e+00
      vertex 4.857180e+00 6.476240e+00 3.639914e+00
      vertex 4.857180e+00 6.476240e+00 2.978111e+00
    endloop
  endfacet
  facet normal 6.490132e-01 6.490132e-01 -3.969429e-01
    outer loop
      vertex 4.857180e+00 6.678623e+00 3.309012e+00
      vertex 4.857180e+00 6.476240e+00 2.978111e+00
      vertex 4.452415e+00 6.881005e+00 2.978111e+00
    endloop
  endfacet
  facet normal 0.000000e+00 -6.329283e-01 -7.742105e-01
    outer loop
      vertex 5.059563e+00 6.476240e+00 3.970815e+00
      vertex 5.261945e+00 6.881005e+00 3.639914e+00
      vertex 5.261945e+00 6.071475e+00 4.301716e+00
    endloop
  endfacet
  facet normal -6.490132e-01 -6.490132e-01 -3.969429e-01
    outer loop
      vertex 5.059563e+00 6.476240e+00 3.970815e+00
      vertex 5.261945e+00 6.071475e+00 4.301716e+00
      vertex 4.857180e+00 6.476240e+00 4.301716e+00
    endloop
  endfacet
  facet normal -0.000000e+00 -1.000000e+00 0.000000e+00
    outer loop
      vertex 5.059563e+00 6.476240e+00 3.970815e+00
      vertex 4.857180e+00 6.476240e+00 4.301716e+00
      vertex 4.857180e+00 6.476240e+00 3.639914e+00
    endloop
  endfacet
  facet normal 6.490132e-01 -6.490132e-01 -3.969429e-01
    outer loop
      vertex 5.059563e+00 6.476240e+00 3.970815e+00
      vertex 4.857180e+00 6.476240e+00 3.639914e+00
      vertex 5.261945e+00 6.881005e+00 3.639914e+00
    endloop
  endfacet
  facet normal 6.329283e-01 -1.705088e-15 -7.742105e-01
    outer loop
      vertex 4.857180e+00 2.023825e-01 6.618025e-01
      vertex 4.452415e+00 4.047650e-01 3.309012e-01
      vertex 5.261945e+00 4.047650e-01 9.927037e-01
    endloop
  endfacet
  facet normal 6.490132e-01 -6.490132e-01 -3.969429e-01
    outer loop
      vertex 4.857180e+00 2.023825e-01 6.618025e-01
      vertex 5.261945e+00 4.047650e-01 9.927037e-01
      vertex 4.857180e+00 -1.312842e-16 9.927037e-01
    endloop
  endfacet
  facet normal 1.000000e+00 0.000000e+00 0.000000e+00
    outer loop
      vertex 4.857180e+00 2.023825e-01 6.618025e-01
      vertex 4.857180e+00 -1.312842e-16 9.927037e-01
      vertex 4.857180e+00 -1.718079e-16 3.309012e-01
    endloop
  endfacet
  facet normal 6.490132e-01 6.490132e-01 -3.969429e-01
    outer loop
      vertex 4.857180e+00 2.023825e-01 6.618025e-01
      vertex 4.857180e+00 -1.718079e-16 3.309012e-01
      vertex 4.452415e+00 4.047650e-01 3.309012e-01
    endloop
  endfacet
  facet normal -7.869635e-16 -6.329283e-01 -7.742105e-01
    outer loop
      vertex 5.059563e+00 -1.110223e-16 1.323605e+00
      vertex 5.261945e+00 4.047650e-01 9.927037e-01
      vertex 5.261945e+00 -4.047650e-01 1.654506e+00
    endloop
  endfacet
  facet normal -6.490132e-01 -6.490132e-01 -3.969429e-01
    outer loop
      vertex 5.059563e+00 -1.110223e-16 1.323605e+00
      vertex 5.261945e+00 -4.047650e-01 1.654506e+00
      vertex 4.857180e+00 -9.076044e-17 1.654506e+00
    endloop
  endfacet
  facet normal -9.777955e-32 -1.000000e+00 6.123234e-17
    outer loop
      vertex 5.059563e+00 -1.110223e-16 1.323605e+00
      vertex 4.857180e+00 -9.076044e-17 1.654506e+00
      vertex 4.857180e+00 -1.312842e-16 9.927037e-01
    endloop
  endfacet
  facet normal 6.490132e-01 -6.490132e-01 -3.969429e-01
    outer loop
      vertex 5.059563e+00 -1.110223e-16 1.323605e+00
      vertex 4.857180e+00 -1.312842e-16 9.927037e-01
      vertex 5.261945e+00 4.047650e-01 9.927037e-01
    endloop
  endfacet
  facet normal -6.329283e-01 -1.311606e-15 -7.742105e-01
    outer loop
      vertex 4.857180e+00 -2.023825e-01 1.985407e+00
      vertex 5.261945e+00 -4.047650e-01 1.654506e+00
      vertex 4.452415e+00 -4.047650e-01 2.316309e+00
    endloop
  endfacet
  facet normal -6.490132e-01 6.490132e-01 -3.969429e-01
    outer loop
      vertex 4.857180e+00 -2.023825e-01 1.985407e+00
      vertex 4.452415e+00 -4.047650e-01 2.316309e+00
      vertex 4.857180e+00 -5.023673e-17 2.316309e+00
    endloop
  endfacet
  facet normal -1.000000e+00 0.000000e+00 0.000000e+00
    outer loop
      vertex 4.857180e+00 -2.023825e-01 1.985407e+00
      vertex 4.857180e+00 -5.023673e-17 2.316309e+00
      vertex 4.857180e+00 -9.076044e-17 1.654506e+00
    endloop
  endfacet
  facet normal -6.490132e-01 -6.490132e-01 -3.969429e-01
    outer loop
      vertex 4.857180e+00 -2.023825e-01 1.985407e+00
      vertex 4.857180e+00 -9.076044e-17 1.654506e+00
      vertex 5.261945e+00 -4.047650e-01 1.654506e+00
    endloop
  endfacet
  facet normal 6.329283e-01 -1.748808e-16 -7.742105e-01
    outer loop
      vertex 4.857180e+00 1.619060e+00 6.618025e-01
      vertex 5.261945e+00 4.047650e-01 9.927037e-01
      vertex 4.452415e+00 4.047650e-01 3.309012e-01
    endloop
  endfacet
  facet normal 1.963418e-01 1.963418e-01 -9.606767e-01
    outer loop
      vertex 4.857180e+00 1.619060e+00 6.618025e-01
      vertex 4.452415e+00 4.047650e-01 3.309012e-01
      vertex 3.642885e+00 1.214295e+00 3.309012e-01
    endloop
  endfacet
  facet normal 2.629176e-01 0.000000e+00 -9.648183e-01
    outer loop
      vertex 4.857180e+00 1.619060e+00 6.618025e-01
      vertex 3.642885e+00 1.214295e+00 3.309012e-01
      vertex 3.642885e+00 2.023825e+00 3.309012e-01
    endloop
  endfacet
  facet normal 1.963418e-01 -1.963418e-01 -9.606767e-01
    outer loop
      vertex 4.857180e+00 1.619060e+00 6.618025e-01
      vertex 3.642885e+00 2.023825e+00 3.309012e-01
      vertex 4.452415e+00 2.833355e+00 3.309012e-01
    endloop
  endfacet
  facet normal 6.329283e-01 1.748808e-16 -7.742105e-01
    outer loop
      vertex 4.857180e+00 1.619060e+00 6.618025e-01
      vertex 4.452415e+00 2.833355e+00 3.309012e-01
      vertex 5.261945e+00 2.833355e+00 9.927037e-01
    endloop
  endfacet
  facet normal 1.963418e-01 1.963418e-01 -9.606767e-01
    outer loop
      vertex 4.857180e+00 1.619060e+00 6.618025e-01
      vertex 5.261945e+00 2.833355e+00 9.927037e-01
      vertex 6.071475e+00 2.023825e+00 9.927037e-01
    endloop
  endfacet
  facet normal 2.629176e-01 0.000000e+00 -9.648183e-01
    outer loop
      vertex 4.857180e+00 1.619060e+00 6.618025e-01
      vertex 6.071475e+00 2.023825e+00 9.927037e-01
      vertex 6.071475e+00 1.214295e+00 9.927037e-01
    endloop
  endfacet
  facet normal 1.963418e-01 -1.963418e-01 -9.606767e-01
    outer loop
      vertex 4.857180e+00 1.619060e+00 6.618025e-01
      vertex 6.071475e+00 1.214295e+00 9.927037e-01
      vertex 5.261945e+00 4.047650e-01 9.927037e-01
    endloop
  endfacet
  facet normal 0.000000e+00 -6.329283e-01 -7.742105e-01
    outer loop
      vertex 4.654797e+00 3.238120e+00 -9.714451e-17
      vertex 4.452415e+00 2.833355e+00 3.309012e-01
      vertex 4.452415e+00 3.642885e+00 -3.309013e-01
    endloop
  endfacet
  facet normal -6.490132e-01 -6.490132e-01 -3.969429e-01
    outer loop
      vertex 4.654797e+00 3.238120e+00 -9.714451e-17
      vertex 4.452415e+00 3.642885e+00 -3.309013e-01
      vertex 4.857180e+00 3.238120e+00 -3.309013e-01
    endloop
  endfacet
  facet normal 2.194306e-15 -1.000000e+00 0.000000e+00
    outer loop
      vertex 4.654797e+00 3.238120e+00 -9.714451e-17
      vertex 4.857180e+00 3.238120e+00 -3.309013e-01
      vertex 4.857180e+00 3.238120e+00 3.309012e-01
    endloop
  endfacet
  facet normal 6.490132e-01 -6.490132e-01 -3.969429e-01
    outer loop
      vertex 4.654797e+00 3.238120e+00 -9.714451e-17
      vertex 4.857180e+00 3.238120e+00 3.309012e-01
      vertex 4.452415e+00 2.833355e+00 3.309012e-01
    endloop
  endfacet
  facet normal -6.329283e-01 1.311606e-15 -7.742105e-01
    outer loop
      vertex 4.857180e+00 3.440503e+00 -6.618025e-01
      vertex 4.452415e+00 3.642885e+00 -3.309013e-01
      vertex 5.261945e+00 3.642885e+00 -9.927037e-01
    endloop
  endfacet
  facet normal -6.490132e-01 6.490132e-01 -3.969429e-01
    outer loop
      vertex 4.857180e+00 3.440503e+00 -6.618025e-01
      vertex 5.261945e+00 3.642885e+00 -9.927037e-01
      vertex 4.857180e+00 3.238120e+00 -9.927037e-01
    endloop
  endfacet
  facet normal -1.000000e+00 -4.388613e-15 0.000000e+00
    outer loop
      vertex 4.857180e+00 3.440503e+00 -6.618025e-01
      vertex 4.857180e+00 3.238120e+00 -9.927037e-01
      vertex 4.857180e+00 3.238120e+00 -3.309013e-01
    endloop
  endfacet
  facet normal -6.490132e-01 -6.490132e-01 -3.969429e-01
    outer loop
      vertex 4.857180e+00 3.440503e+00 -6.618025e-01
      vertex 4.857180e+00 3.238120e+00 -3.309013e-01
      vertex 4.452415e+00 3.642885e+00 -3.309013e-01
    endloop
  endfacet
  facet normal 7.869635e-16 6.329283e-01 -7.742105e-01
    outer loop
      vertex 5.059563e+00 3.238120e+00 -1.323605e+00
      vertex 5.261945e+00 3.642885e+00 -9.927037e-01
      vertex 5.261945e+00 2.833355e+00 -1.654506e+00
    endloop
  endfacet
  facet normal 6.490132e-01 6.490132e-01 -3.969429e-01
    outer loop
      vertex 5.059563e+00 3.238120e+00 -1.323605e+00
      vertex 5.261945e+00 2.833355e+00 -1.654506e+00
      vertex 4.857180e+00 3.238120e+00 -1.654506e+00
    endloop
  endfacet
  facet normal 2.194306e-15 1.000000e+00 0.000000e+00
    outer loop
      vertex 5.059563e+00 3.238120e+00 -1.323605e+00
      vertex 4.857180e+00 3.238120e+00 -1.654506e+00
      vertex 4.857180e+00 3.238120e+00 -9.927037e-01
    endloop
  endfacet
  facet normal -6.490132e-01 6.490132e-01 -3.969429e-01
    outer loop
      vertex 5.059563e+00 3.238120e+00 -1.323605e+00
      vertex 4.857180e+00 3.238120e+00 -9.927037e-01
      vertex 5.261945e+00 3.642885e+00 -9.927037e-01
    endloop
  endfacet
  facet normal -5.246424e-16 -6.329283e-01 -7.742105e-01
    outer loop
      vertex 3.238120e+00 3.238120e+00 2.647210e+00
      vertex 4.452415e+00 3.642885e+00 2.316309e+00
      vertex 4.452415e+00 2.833355e+00 2.978111e+00
    endloop
  endfacet
  facet normal 1.963418e-01 -1.963418e-01 -9.606767e-01
    outer loop
      vertex 3.238120e+00 3.238120e+00 2.647210e+00
      vertex 4.452415e+00 2.833355e+00 2.978111e+00
      vertex 3.642885e+00 2.023825e+00 2.978111e+00
    endloop
  endfacet
  facet normal 0.000000e+00 -2.629176e-01 -9.648183e-01
    outer loop
      vertex 3.238120e+00 3.238120e+00 2.647210e+00
      vertex 3.642885e+00 2.023825e+00 2.978111e+00
      vertex 2.833355e+00 2.023825e+00 2.978111e+00
    endloop
  endfacet
  facet normal -1.963418e-01 -1.963418e-01 -9.606767e-01
    outer loop
      vertex 3.238120e+00 3.238120e+00 2.647210e+00
      vertex 2.833355e+00 2.023825e+00 2.978111e+00
      vertex 2.023825e+00 2.833355e+00 2.978111e+00
    endloop
  endfacet
  facet normal 5.246424e-16 -6.329283e-01 -7.742105e-01
    outer loop
      vertex 3.238120e+00 3.238120e+00 2.647210e+00
      vertex 2.023825e+00 2.833355e+00 2.978111e+00
      vertex 2.023825e+00 3.642885e+00 2.316309e+00
    endloop
  endfacet
  facet normal 1.963418e-01 -1.963418e-01 -9.606767e-01
    outer loop
      vertex 3.238120e+00 3.238120e+00 2.647210e+00
      vertex 2.023825e+00 3.642885e+00 2.316309e+00
      vertex 2.833355e+00 4.452415e+00 2.316309e+00
    endloop
  endfacet
  facet normal 0.000000e+00 -2.629176e-01 -9.648183e-01
    outer loop
      vertex 3.238120e+00 3.238120e+00 2.647210e+00
      vertex 2.833355e+00 4.452415e+00 2.316309e+00
      vertex 3.642885e+00 4.452415e+00 2.316309e+00
    endloop
  endfacet
  facet normal -1.963418e-01 -1.963418e-01 -9.606767e-01
    outer loop
      vertex 3.238120e+00 3.238120e+00 2.647210e+00
      vertex 3.642885e+00 4.452415e+00 2.316309e+00
      vertex 4.452415e+00 3.642885e+00 2.316309e+00
    endloop
  endfacet
  facet normal 6.329283e-01 1.311606e-15 -7.742105e-01
    outer loop
      vertex 4.857180e+00 3.035738e+00 6.618025e-01
      vertex 5.261945e+00 2.833355e+00 9.927037e-01
      vertex 4.452415e+00 2.833355e+00 3.309012e-01
    endloop
  endfacet
  facet normal 6.490132e-01 -6.490132e-01 -3.969429e-01
    outer loop
      vertex 4.857180e+00 3.035738e+00 6.618025e-01
      vertex 4.452415e+00 2.833355e+00 3.309012e-01
      vertex 4.857180e+00 3.238120e+00 3.309012e-01
    endloop
  endfacet
  facet normal 1.000000e+00 -0.000000e+00 0.000000e+00
    outer loop
      vertex 4.857180e+00 3.035738e+00 6.618025e-01
      vertex 4.857180e+00 3.238120e+00 3.309012e-01
      vertex 4.857180e+00 3.238120e+00 9.927037e-01
    endloop
  endfacet
  facet normal 6.490132e-01 6.490132e-01 -3.969429e-01
    outer loop
      vertex 4.857180e+00 3.035738e+00 6.618025e-01
      vertex 4.857180e+00 3.238120e+00 9.927037e-01
      vertex 5.261945e+00 2.833355e+00 9.927037e-01
    endloop
  endfacet
  facet normal 0.000000e+00 -6.329283e-01 -7.742105e-01
    outer loop
      vertex 4.654797e+00 3.238120e+00 -9.714451e-17
      vertex 4.452415e+00 2.833355e+00 3.309012e-01
      vertex 4.452415e+00 3.642885e+00 -3.309013e-01
    endloop
  endfacet
  facet normal -6.490132e-01 -6.490132e-01 -3.969429e-01
    outer loop
      vertex 4.654797e+00 3.238120e+00 -9.714451e-17
      vertex 4.452415e+00 3.642885e+00 -3.309013e-01
      vertex 4.857180e+00 3.238120e+00 -3.309013e-01
    endloop
  endfacet
  facet normal 0.000000e+00 -1.000000e+00 0.000000e+00
    outer loop
      vertex 4.654797e+00 3.238120e+00 -9.714451e-17
      vertex 4.857180e+00 3.238120e+00 -3.309013e-01
      vertex 4.857180e+00 3.238120e+00 3.309012e-01
    endloop
  endfacet
  facet normal 6.490132e-01 -6.490132e-01 -3.969429e-01
    outer loop
      vertex 4.654797e+00 3.238120e+00 -9.714451e-17
      vertex 4.857180e+00 3.238120e+00 3.309012e-01
      vertex 4.452415e+00 2.833355e+00 3.309012e-01
    endloop
  endfacet
  facet normal -6.329283e-01 1.311606e-15 -7.742105e-01
    outer loop
      vertex 4.857180e+00 3.440503e+00 -6.618025e-01
      vertex 4.452415e+00 3.642885e+00 -3.309013e-01
      vertex 5.261945e+00 3.642885e+00 -9.927037e-01
    endloop
  endfacet
  facet normal -6.490132e-01 6.490132e-01 -3.969429e-01
    outer loop
      vertex 4.857180e+00 3.440503e+00 -6.618025e-01
      vertex 5.261945e+00 3.642885e+00 -9.927037e-01
      vertex 4.857180e+00 3.238120e+00 -9.927037e-01
    endloop
  endfacet
  facet normal -1.000000e+00 -0.000000e+00 0.000000e+00
    outer loop
      vertex 4.857180e+00 3.440503e+00 -6.618025e-01
      vertex 4.857180e+00 3.238120e+00 -9.927037e-01
      vertex 4.857180e+00 3.238120e+00 -3.309013e-01
    endloop
  endfacet
  facet normal -6.490132e-01 -6.490132e-01 -3.969429e-01
    outer loop
      vertex 4.857180e+00 3.440503e+00 -6.618025e-01
      vertex 4.857180e+00 3.238120e+00 -3.309013e-01
      vertex 4.452415e+00 3.642885e+00 -3.309013e-01
    endloop
  endfacet
  facet normal 6.329283e-01 -2.186010e-16 -7.742105e-01
    outer loop
      vertex 1.619060e+00 4.857180e+00 1.985407e+00
      vertex 2.023825e+00 3.642885e+00 2.316309e+00
      vertex 1.214295e+00 3.642885e+00 1.654506e+00
    endloop
  endfacet
  facet normal 1.963418e-01 1.963418e-01 -9.606767e-01
    outer loop
      vertex 1.619060e+00 4.857180e+00 1.985407e+00
      vertex 1.214295e+00 3.642885e+00 1.654506e+00
      vertex 4.047650e-01 4.452415e+00 1.654506e+00
    endloop
  endfacet
  facet normal 2.629176e-01 0.000000e+00 -9.648183e-01
    outer loop
      vertex 1.619060e+00 4.857180e+00 1.985407e+00
      vertex 4.047650e-01 4.452415e+00 1.654506e+00
      vertex 4.047650e-01 5.261945e+00 1.654506e+00
    endloop
  endfacet
  facet normal 1.963418e-01 -1.963418e-01 -9.606767e-01
    outer loop
      vertex 1.619060e+00 4.857180e+00 1.985407e+00
      vertex 4.047650e-01 5.261945e+00 1.654506e+00
      vertex 1.214295e+00 6.071475e+00 1.654506e+00
    endloop
  endfacet
  facet normal 6.329283e-01 1.530207e-16 -7.742105e-01
    outer loop
      vertex 1.619060e+00 4.857180e+00 1.985407e+00
      vertex 1.214295e+00 6.071475e+00 1.654506e+00
      vertex 2.023825e+00 6.071475e+00 2.316309e+00
    endloop
  endfacet
  facet normal 1.963418e-01 1.963418e-01 -9.606767e-01
    outer loop
      vertex 1.619060e+00 4.857180e+00 1.985407e+00
      vertex 2.023825e+00 6.071475e+00 2.316309e+00
      vertex 2.833355e+00 5.261945e+00 2.316309e+00
    endloop
  endfacet
  facet normal 2.629176e-01 0.000000e+00 -9.648183e-01
    outer loop
      vertex 1.619060e+00 4.857180e+00 1.985407e+00
      vertex 2.833355e+00 5.261945e+00 2.316309e+00
      vertex 2.833355e+00 4.452415e+00 2.316309e+00
    endloop
  endfacet
  facet normal 1.963418e-01 -1.963418e-01 -9.606767e-01
    outer loop
      vertex 1.619060e+00 4.857180e+00 1.985407e+00
      vertex 2.833355e+00 4.452415e+00 2.316309e+00
      vertex 2.023825e+00 3.642885e+00 2.316309e+00
    endloop
  endfacet
  facet normal -3.279015e-16 -6.329283e-01 -7.742105e-01
    outer loop
      vertex 6.476240e+00 6.476240e+00 1.323605e+00
      vertex 5.261945e+00 6.071475e+00 1.654506e+00
      vertex 5.261945e+00 6.881005e+00 9.927037e-01
    endloop
  endfacet
  facet normal 1.963418e-01 -1.963418e-01 -9.606767e-01
    outer loop
      vertex 6.476240e+00 6.476240e+00 1.323605e+00
      vertex 5.261945e+00 6.881005e+00 9.927037e-01
      vertex 6.071475e+00 7.690535e+00 9.927037e-01
    endloop
  endfacet
  facet normal 0.000000e+00 -2.629176e-01 -9.648183e-01
    outer loop
      vertex 6.476240e+00 6.476240e+00 1.323605e+00
      vertex 6.071475e+00 7.690535e+00 9.927037e-01
      vertex 6.881005e+00 7.690535e+00 9.927037e-01
    endloop
  endfacet
  facet normal -1.963418e-01 -1.963418e-01 -9.606767e-01
    outer loop
      vertex 6.476240e+00 6.476240e+00 1.323605e+00
      vertex 6.881005e+00 7.690535e+00 9.927037e-01
      vertex 7.690535e+00 6.881005e+00 9.927037e-01
    endloop
  endfacet
  facet normal 3.279015e-16 -6.329283e-01 -7.742105e-01
    outer loop
      vertex 6.476240e+00 6.476240e+00 1.323605e+00
      vertex 7.690535e+00 6.881005e+00 9.927037e-01
      vertex 7.690535e+00 6.071475e+00 1.654506e+00
    endloop
  endfacet
  facet normal 1.963418e-01 -1.963418e-01 -9.606767e-01
    outer loop
      vertex 6.476240e+00 6.476240e+00 1.323605e+00
      vertex 7.690535e+00 6.071475e+00 1.654506e+00
      vertex 6.881005e+00 5.261945e+00 1.654506e+00
    endloop
  endfacet
  facet normal 0.000000e+00 -2.629176e-01 -9.648183e-01
    outer loop
      vertex 6.476240e+00 6.476240e+00 1.323605e+00
      vertex 6.881005e+00 5.261945e+00 1.654506e+00
      vertex 6.071475e+00 5.261945e+00 1.654506e+00
    endloop
  endfacet
  facet normal -1.963418e-01 -1.963418e-01 -9.606767e-01
    outer loop
      vertex 6.476240e+00 6.476240e+00 1.323605e+00
      vertex 6.071475e+00 5.261945e+00 1.654506e+00
      vertex 5.261945e+00 6.071475e+00 1.654506e+00
    endloop
  endfacet
  facet normal 1.311606e-16 6.329283e-01 -7.742105e-01
    outer loop
      vertex 6.476240e+00 3.238120e+00 1.323605e+00
      vertex 5.261945e+00 2.833355e+00 9.927037e-01
      vertex 5.261945e+00 3.642885e+00 1.654506e+00
    endloop
  endfacet
  facet normal -1.963418e-01 1.963418e-01 -9.606767e-01
    outer loop
      vertex 6.476240e+00 3.238120e+00 1.323605e+00
      vertex 5.261945e+00 3.642885e+00 1.654506e+00
      vertex 6.071475e+00 4.452415e+00 1.654506e+00
    endloop
  endfacet
  facet normal 0.000000e+00 2.629176e-01 -9.648183e-01
    outer loop
      vertex 6.476240e+00 3.238120e+00 1.323605e+00
      vertex 6.071475e+00 4.452415e+00 1.654506e+00
      vertex 6.881005e+00 4.452415e+00 1.654506e+00
    endloop
  endfacet
  facet normal 1.963418e-01 1.963418e-01 -9.606767e-01
    outer loop
      vertex 6.476240e+00 3.238120e+00 1.323605e+00
      vertex 6.881005e+00 4.452415e+00 1.654506e+00
      vertex 7.690535e+00 3.642885e+00 1.654506e+00
    endloop
  endfacet
  facet normal -1.311606e-16 6.329283e-01 -7.742105e-01
    outer loop
      vertex 6.476240e+00 3.238120e+00 1.323605e+00
      vertex 7.690535e+00 3.642885e+00 1.654506e+00
      vertex 7.690535e+00 2.833355e+00 9.927037e-01
    endloop
  endfacet
  facet normal -1.963418e-01 1.963418e-01 -9.606767e-01
    outer loop
      vertex 6.476240e+00 3.238120e+00 1.323605e+00
      vertex 7.690535e+00 2.833355e+00 9.927037e-01
      vertex 6.881005e+00 2.023825e+00 9.927037e-01
    endloop
  endfacet
  facet normal 0.000000e+00 2.629176e-01 -9.648183e-01
    outer loop
      vertex 6.476240e+00 3.238120e+00 1.323605e+00
      vertex 6.881005e+00 2.023825e+00 9.927037e-01
      vertex 6.071475e+00 2.023825e+00 9.927037e-01
    endloop
  endfacet
  facet normal 1.963418e-01 1.963418e-01 -9.606767e-01
    outer loop
      vertex 6.476240e+00 3.238120e+00 1.323605e+00
      vertex 6.071475e+00 2.023825e+00 9.927037e-01
      vertex 5.261945e+00 2.833355e+00 9.927037e-01
    endloop
  endfacet
  facet normal 0.000000e+00 6.329283e-01 -7.742105e-01
    outer loop
      vertex 5.059563e+00 3.238120e+00 1.323605e+00
      vertex 5.261945e+00 3.642885e+00 1.654506e+00
      vertex 5.261945e+00 2.833355e+00 9.927037e-01
    endloop
  endfacet
  facet normal 6.490132e-01 6.490132e-01 -3.969429e-01
    outer loop
      vertex 5.059563e+00 3.238120e+00 1.323605e+00
      vertex 5.261945e+00 2.833355e+00 9.927037e-01
      vertex 4.857180e+00 3.238120e+00 9.927037e-01
    endloop
  endfacet
  facet normal 0.000000e+00 1.000000e+00 0.000000e+00
    outer loop
      vertex 5.059563e+00 3.238120e+00 1.323605e+00
      vertex 4.857180e+00 3.238120e+00 9.927037e-01
      vertex 4.857180e+00 3.238120e+00 1.654506e+00
    endloop
  endfacet
  facet normal -6.490132e-01 6.490132e-01 -3.969429e-01
    outer loop
      vertex 5.059563e+00 3.238120e+00 1.323605e+00
      vertex 4.857180e+00 3.238120e+00 1.654506e+00
      vertex 5.261945e+00 3.642885e+00 1.654506e+00
    endloop
  endfacet
  facet normal 6.329283e-01 1.311606e-15 -7.742105e-01
    outer loop
      vertex 4.857180e+00 3.035738e+00 6.618025e-01
      vertex 5.261945e+00 2.833355e+00 9.927037e-01
      vertex 4.452415e+00 2.833355e+00 3.309012e-01
    endloop
  endfacet
  facet normal 6.490132e-01 -6.490132e-01 -3.969429e-01
    outer loop
      vertex 4.857180e+00 3.035738e+00 6.618025e-01
      vertex 4.452415e+00 2.833355e+00 3.309012e-01
      vertex 4.857180e+00 3.238120e+00 3.309012e-01
    endloop
  endfacet
  facet normal 1.000000e+00 -0.000000e+00 0.000000e+00
    outer loop
      vertex 4.857180e+00 3.035738e+00 6.618025e-01
      vertex 4.857180e+00 3.238120e+00 3.309012e-01
      vertex 4.857180e+00 3.238120e+00 9.927037e-01
    endloop
  endfacet
  facet normal 6.490132e-01 6.490132e-01 -3.969429e-01
    outer loop
      vertex 4.857180e+00 3.035738e+00 6.618025e-01
      vertex 4.857180e+00 3.238120e+00 9.927037e-01
      vertex 5.261945e+00 2.833355e+00 9.927037e-01
    endloop
  endfacet
  facet normal 0.000000e+00 -6.329283e-01 -7.742105e-01
    outer loop
      vertex 4.654797e+00 3.238120e+00 -9.714451e-17
      vertex 4.452415e+00 2.833355e+00 3.309012e-01
      vertex 4.452415e+00 3.642885e+00 -3.309013e-01
    endloop
  endfacet
  facet normal -6.490132e-01 -6.490132e-01 -3.969429e-01
    outer loop
      vertex 4.654797e+00 3.238120e+00 -9.714451e-17
      vertex 4.452415e+00 3.642885e+00 -3.309013e-01
      vertex 4.857180e+00 3.238120e+00 -3.309013e-01
    endloop
  endfacet
  facet normal 0.000000e+00 -1.000000e+00 0.000000e+00
    outer loop
      vertex 4.654797e+00 3.238120e+00 -9.714451e-17
      vertex 4.857180e+00 3.238120e+00 -3.309013e-01
      vertex 4.857180e+00 3.238120e+00 3.309012e-01
    endloop
  endfacet
  facet normal 6.490132e-01 -6.490132e-01 -3.969429e-01
    outer loop
      vertex 4.654797e+00 3.238120e+00 -9.714451e-17
      vertex 4.857180e+00 3.238120e+00 3.309012e-01
      vertex 4.452415e+00 2.833355e+00 3.309012e-01
    endloop
  endfacet
  facet normal 6.329283e-01 -9.181241e-16 -7.742105e-01
    outer loop
      vertex 1.619060e+00 6.273858e+00 1.985407e+00
      vertex 2.023825e+00 6.071475e+00 2.316309e+00
      vertex 1.214295e+00 6.071475e+00 1.654506e+00
    endloop
  endfacet
  facet normal 6.490132e-01 -6.490132e-01 -3.969429e-01
    outer loop
      vertex 1.619060e+00 6.273858e+00 1.985407e+00
      vertex 1.214295e+00 6.071475e+00 1.654506e+00
      vertex 1.619060e+00 6.476240e+00 1.654506e+00
    endloop
  endfacet
  facet normal 1.000000e+00 -0.000000e+00 0.000000e+00
    outer loop
      vertex 1.619060e+00 6.273858e+00 1.985407e+00
      vertex 1.619060e+00 6.476240e+00 1.654506e+00
      vertex 1.619060e+00 6.476240e+00 2.316309e+00
    endloop
  endfacet
  facet normal 6.490132e-01 6.490132e-01 -3.969429e-01
    outer loop
      vertex 1.619060e+00 6.273858e+00 1.985407e+00
      vertex 1.619060e+00 6.476240e+00 2.316309e+00
      vertex 2.023825e+00 6.071475e+00 2.316309e+00
    endloop
  endfacet
  facet normal 0.000000e+00 -6.329283e-01 -7.742105e-01
    outer loop
      vertex 1.416678e+00 6.476240e+00 1.323605e+00
      vertex 1.214295e+00 6.071475e+00 1.654506e+00
      vertex 1.214295e+00 6.881005e+00 9.927037e-01
    endloop
  endfacet
  facet normal -6.490132e-01 -6.490132e-01 -3.969429e-01
    outer loop
      vertex 1.416678e+00 6.476240e+00 1.323605e+00
      vertex 1.214295e+00 6.881005e+00 9.927037e-01
      vertex 1.619060e+00 6.476240e+00 9.927037e-01
    endloop
  endfacet
  facet normal 4.388613e-15 -1.000000e+00 0.000000e+00
    outer loop
      vertex 1.416678e+00 6.476240e+00 1.323605e+00
      vertex 1.619060e+00 6.476240e+00 9.927037e-01
      vertex 1.619060e+00 6.476240e+00 1.654506e+00
    endloop
  endfacet
  facet normal 6.490132e-01 -6.490132e-01 -3.969429e-01
    outer loop
      vertex 1.416678e+00 6.476240e+00 1.323605e+00
      vertex 1.619060e+00 6.476240e+00 1.654506e+00
      vertex 1.214295e+00 6.071475e+00 1.654506e+00
    endloop
  endfacet
  facet normal -6.329283e-01 1.311606e-16 -7.742105e-01
    outer loop
      vertex 1.619060e+00 6.678623e+00 6.618025e-01
      vertex 1.214295e+00 6.881005e+00 9.927037e-01
      vertex 2.023825e+00 6.881005e+00 3.309012e-01
    endloop
  endfacet
  facet normal -6.490132e-01 6.490132e-01 -3.969429e-01
    outer loop
      vertex 1.619060e+00 6.678623e+00 6.618025e-01
      vertex 2.023825e+00 6.881005e+00 3.309012e-01
      vertex 1.619060e+00 6.476240e+00 3.309012e-01
    endloop
  endfacet
  facet normal -1.000000e+00 -0.000000e+00 0.000000e+00
    outer loop
      vertex 1.619060e+00 6.678623e+00 6.618025e-01
      vertex 1.619060e+00 6.476240e+00 3.309012e-01
      vertex 1.619060e+00 6.476240e+00 9.927037e-01
    endloop
  endfacet
  facet normal -6.490132e-01 -6.490132e-01 -3.969429e-01
    outer loop
      vertex 1.619060e+00 6.678623e+00 6.618025e-01
      vertex 1.619060e+00 6.476240e+00 9.927037e-01
      vertex 1.214295e+00 6.881005e+00 9.927037e-01
    endloop
  endfacet
  facet normal -6.329283e-01 3.934818e-16 -7.742105e-01
    outer loop
      vertex 4.857180e+00 4.857180e+00 1.985407e+00
      vertex 5.261945e+00 3.642885e+00 1.654506e+00
      vertex 4.452415e+00 3.642885e+00 2.316309e+00
    endloop
  endfacet
  facet normal -1.963418e-01 -1.963418e-01 -9.606767e-01
    outer loop
      vertex 4.857180e+00 4.857180e+00 1.985407e+00
      vertex 4.452415e+00 3.642885e+00 2.316309e+00
      vertex 3.642885e+00 4.452415e+00 2.316309e+00
    endloop
  endfacet
  facet normal -2.629176e-01 0.000000e+00 -9.648183e-01
    outer loop
      vertex 4.857180e+00 4.857180e+00 1.985407e+00
      vertex 3.642885e+00 4.452415e+00 2.316309e+00
      vertex 3.642885e+00 5.261945e+00 2.316309e+00
    endloop
  endfacet
  facet normal -1.963418e-01 1.963418e-01 -9.606767e-01
    outer loop
      vertex 4.857180e+00 4.857180e+00 1.985407e+00
      vertex 3.642885e+00 5.261945e+00 2.316309e+00
      vertex 4.452415e+00 6.071475e+00 2.316309e+00
    endloop
  endfacet
  facet normal -6.329283e-01 -3.934818e-16 -7.742105e-01
    outer loop
      vertex 4.857180e+00 4.857180e+00 1.985407e+00
      vertex 4.452415e+00 6.071475e+00 2.316309e+00
      vertex 5.261945e+00 6.071475e+00 1.654506e+00
    endloop
  endfacet
  facet normal -1.963418e-01 -1.963418e-01 -9.606767e-01
    outer loop
      vertex 4.857180e+00 4.857180e+00 1.985407e+00
      vertex 5.261945e+00 6.071475e+00 1.654506e+00
      vertex 6.071475e+00 5.261945e+00 1.654506e+00
    endloop
  endfacet
  facet normal -2.629176e-01 0.000000e+00 -9.648183e-01
    outer loop
      vertex 4.857180e+00 4.857180e+00 1.985407e+00
      vertex 6.071475e+00 5.261945e+00 1.654506e+00
      vertex 6.071475e+00 4.452415e+00 1.654506e+00
    endloop
  endfacet
  facet normal -1.963418e-01 1.963418e-01 -9.606767e-01
    outer loop
      vertex 4.857180e+00 4.857180e+00 1.985407e+00
      vertex 6.071475e+00 4.452415e+00 1.654506e+00
      vertex 5.261945e+00 3.642885e+00 1.654506e+00
    endloop
  endfacet
  facet normal -6.329283e-01 2.360891e-15 -7.742105e-01
    outer loop
      vertex 4.857180e+00 3.440503e+00 1.985407e+00
      vertex 4.452415e+00 3.642885e+00 2.316309e+00
      vertex 5.261945e+00 3.642885e+00 1.654506e+00
    endloop
  endfacet
  facet normal -6.490132e-01 6.490132e-01 -3.969429e-01
    outer loop
      vertex 4.857180e+00 3.440503e+00 1.985407e+00
      vertex 5.261945e+00 3.642885e+00 1.654506e+00
      vertex 4.857180e+00 3.238120e+00 1.654506e+00
    endloop
  endfacet
  facet normal -1.000000e+00 -0.000000e+00 0.000000e+00
    outer loop
      vertex 4.857180e+00 3.440503e+00 1.985407e+00
      vertex 4.857180e+00 3.238120e+00 1.654506e+00
      vertex 4.857180e+00 3.238120e+00 2.316309e+00
    endloop
  endfacet
  facet normal -6.490132e-01 -6.490132e-01 -3.969429e-01
    outer loop
      vertex 4.857180e+00 3.440503e+00 1.985407e+00
      vertex 4.857180e+00 3.238120e+00 2.316309e+00
      vertex 4.452415e+00 3.642885e+00 2.316309e+00
    endloop
  endfacet
  facet normal 0.000000e+00 6.329283e-01 -7.742105e-01
    outer loop
      vertex 5.059563e+00 3.238120e+00 1.323605e+00
      vertex 5.261945e+00 3.642885e+00 1.654506e+00
      vertex 5.261945e+00 2.833355e+00 9.927037e-01
    endloop
  endfacet
  facet normal 6.490132e-01 6.490132e-01 -3.969429e-01
    outer loop
      vertex 5.059563e+00 3.238120e+00 1.323605e+00
      vertex 5.261945e+00 2.833355e+00 9.927037e-01
      vertex 4.857180e+00 3.238120e+00 9.927037e-01
    endloop
  endfacet
  facet normal 2.194306e-15 1.000000e+00 0.000000e+00
    outer loop
      vertex 5.059563e+00 3.238120e+00 1.323605e+00
      vertex 4.857180e+00 3.238120e+00 9.927037e-01
      vertex 4.857180e+00 3.238120e+00 1.654506e+00
    endloop
  endfacet
  facet normal -6.490132e-01 6.490132e-01 -3.969429e-01
    outer loop
      vertex 5.059563e+00 3.238120e+00 1.323605e+00
      vertex 4.857180e+00 3.238120e+00 1.654506e+00
      vertex 5.261945e+00 3.642885e+00 1.654506e+00
    endloop
  endfacet
  facet normal 6.329283e-01 1.311606e-15 -7.742105e-01
    outer loop
      vertex 4.857180e+00 3.035738e+00 6.618025e-01
      vertex 5.261945e+00 2.833355e+00 9.927037e-01
      vertex 4.452415e+00 2.833355e+00 3.309012e-01
    endloop
  endfacet
  facet normal 6.490132e-01 -6.490132e-01 -3.969429e-01
    outer loop
      vertex 4.857180e+00 3.035738e+00 6.618025e-01
      vertex 4.452415e+00 2.833355e+00 3.309012e-01
      vertex 4.857180e+00 3.238120e+00 3.309012e-01
    endloop
  endfacet
  facet normal 1.000000e+00 -0.000000e+00 0.000000e+00
    outer loop
      vertex 4.857180e+00 3.035738e+00 6.618025e-01
      vertex 4.857180e+00 3.238120e+00 3.309012e-01
      vertex 4.857180e+00 3.238120e+00 9.927037e-01
    endloop
  endfacet
  facet normal 6.490132e-01 6.490132e-01 -3.969429e-01
    outer loop
      vertex 4.857180e+00 3.035738e+00 6.618025e-01
      vertex 4.857180e+00 3.238120e+00 9.927037e-01
      vertex 5.261945e+00 2.833355e+00 9.927037e-01
    endloop
  endfacet
  facet normal -6.329283e-01 -1.311606e-15 -7.742105e-01
    outer loop
      vertex 4.857180e+00 6.273858e+00 1.985407e+00
      vertex 5.261945e+00 6.071475e+00 1.654506e+00
      vertex 4.452415e+00 6.071475e+00 2.316309e+00
    endloop
  endfacet
  facet normal -6.490132e-01 6.490132e-01 -3.969429e-01
    outer loop
      vertex 4.857180e+00 6.273858e+00 1.985407e+00
      vertex 4.452415e+00 6.071475e+00 2.316309e+00
      vertex 4.857180e+00 6.476240e+00 2.316309e+00
    endloop
  endfacet
  facet normal -1.000000e+00 4.388613e-15 0.000000e+00
    outer loop
      vertex 4.857180e+00 6.273858e+00 1.985407e+00
      vertex 4.857180e+00 6.476240e+00 2.316309e+00
      vertex 4.857180e+00 6.476240e+00 1.654506e+00
    endloop
  endfacet
  facet normal -6.490132e-01 -6.490132e-01 -3.969429e-01
    outer loop
      vertex 4.857180e+00 6.273858e+00 1.985407e+00
      vertex 4.857180e+00 6.476240e+00 1.654506e+00
      vertex 5.261945e+00 6.071475e+00 1.654506e+00
    endloop
  endfacet
  facet normal 0.000000e+00 6.329283e-01 -7.742105e-01
    outer loop
      vertex 4.654797e+00 6.476240e+00 2.647210e+00
      vertex 4.452415e+00 6.071475e+00 2.316309e+00
      vertex 4.452415e+00 6.881005e+00 2.978111e+00
    endloop
  endfacet
  facet normal 6.490132e-01 6.490132e-01 -3.969429e-01
    outer loop
      vertex 4.654797e+00 6.476240e+00 2.647210e+00
      vertex 4.452415e+00 6.881005e+00 2.978111e+00
      vertex 4.857180e+00 6.476240e+00 2.978111e+00
    endloop
  endfacet
  facet normal -4.388613e-15 1.000000e+00 0.000000e+00
    outer loop
      vertex 4.654797e+00 6.476240e+00 2.647210e+00
      vertex 4.857180e+00 6.476240e+00 2.978111e+00
      vertex 4.857180e+00 6.476240e+00 2.316309e+00
    endloop
  endfacet
  facet normal -6.490132e-01 6.490132e-01 -3.969429e-01
    outer loop
      vertex 4.654797e+00 6.476240e+00 2.647210e+00
      vertex 4.857180e+00 6.476240e+00 2.316309e+00
      vertex 4.452415e+00 6.071475e+00 2.316309e+00
    endloop
  endfacet
  facet normal 6.329283e-01 -5.246424e-16 -7.742105e-01
    outer loop
      vertex 4.857180e+00 6.678623e+00 3.309012e+00
      vertex 4.452415e+00 6.881005e+00 2.978111e+00
      vertex 5.261945e+00 6.881005e+00 3.639914e+00
    endloop
  endfacet
  facet normal 6.490132e-01 -6.490132e-01 -3.969429e-01
    outer loop
      vertex 4.857180e+00 6.678623e+00 3.309012e+00
      vertex 5.261945e+00 6.881005e+00 3.639914e+00
      vertex 4.857180e+00 6.476240e+00 3.639914e+00
    endloop
  endfacet
  facet normal 1.000000e+00 0.000000e+00 0.000000e+00
    outer loop
      vertex 4.857180e+00 6.678623e+00 3.309012e+00
      vertex 4.857180e+00 6.476240e+00 3.639914e+00
      vertex 4.857180e+00 6.476240e+00 2.978111e+00
    endloop
  endfacet
  facet normal 6.490132e-01 6.490132e-01 -3.969429e-01
    outer loop
      vertex 4.857180e+00 6.678623e+00 3.309012e+00
      vertex 4.857180e+00 6.476240e+00 2.978111e+00
      vertex 4.452415e+00 6.881005e+00 2.978111e+00
    endloop
  endfacet
  facet normal 1.963418e-01 -1.963418e-01 -9.606767e-01
    outer loop
      vertex 6.476240e+00 0.000000e+00 1.323605e+00
      vertex 5.261945e+00 4.047650e-01 9.927037e-01
      vertex 6.071475e+00 1.214295e+00 9.927037e-01
    endloop
  endfacet
  facet normal 0.000000e+00 -2.629176e-01 -9.648183e-01
    outer loop
      vertex 6.476240e+00 0.000000e+00 1.323605e+00
      vertex 6.071475e+00 1.214295e+00 9.927037e-01
      vertex 6.881005e+00 1.214295e+00 9.927037e-01
    endloop
  endfacet
  facet normal -1.963418e-01 -1.963418e-01 -9.606767e-01
    outer loop
      vertex 6.476240e+00 0.000000e+00 1.323605e+00
      vertex 6.881005e+00 1.214295e+00 9.927037e-01
      vertex 7.690535e+00 4.047650e-01 9.927037e-01
    endloop
  endfacet
  facet normal -2.186010e-16 -6.329283e-01 -7.742105e-01
    outer loop
      vertex 6.476240e+00 0.000000e+00 1.323605e+00
      vertex 7.690535e+00 4.047650e-01 9.927037e-01
      vertex 7.690535e+00 -4.047650e-01 1.654506e+00
    endloop
  endfacet
  facet normal 1.963418e-01 -1.963418e-01 -9.606767e-01
    outer loop
      vertex 6.476240e+00 0.000000e+00 1.323605e+00
      vertex 7.690535e+00 -4.047650e-01 1.654506e+00
      vertex 6.881005e+00 -1.214295e+00 1.654506e+00
    endloop
  endfacet
  facet normal 0.000000e+00 -2.629176e-01 -9.648183e-01
    outer loop
      vertex 6.476240e+00 0.000000e+00 1.323605e+00
      vertex 6.881005e+00 -1.214295e+00 1.654506e+00
      vertex 6.071475e+00 -1.214295e+00 1.654506e+00
    endloop
  endfacet
  facet normal -1.963418e-01 -1.963418e-01 -9.606767e-01
    outer loop
      vertex 6.476240e+00 0.000000e+00 1.323605e+00
      vertex 6.071475e+00 -1.214295e+00 1.654506e+00
      vertex 5.261945e+00 -4.047650e-01 1.654506e+00
    endloop
  endfacet
  facet normal 2.186010e-16 -6.329283e-01 -7.742105e-01
    outer loop
      vertex 6.476240e+00 0.000000e+00 1.323605e+00
      vertex 5.261945e+00 -4.047650e-01 1.654506e+00
      vertex 5.261945e+00 4.047650e-01 9.927037e-01
    endloop
  endfacet
  facet normal 1.963418e-01 -1.963418e-01 -9.606767e-01
    outer loop
      vertex 1.665335e-16 6.476240e+00 1.323605e+00
      vertex 1.214295e+00 6.071475e+00 1.654506e+00
      vertex 4.047650e-01 5.261945e+00 1.654506e+00
    endloop
  endfacet
  facet normal 0.000000e+00 -2.629176e-01 -9.648183e-01
    outer loop
      vertex 1.665335e-16 6.476240e+00 1.323605e+00
      vertex 4.047650e-01 5.261945e+00 1.654506e+00
      vertex -4.047650e-01 5.261945e+00 1.654506e+00
    endloop
  endfacet
  facet normal -1.963418e-01 -1.963418e-01 -9.606767e-01
    outer loop
      vertex 1.665335e-16 6.476240e+00 1.323605e+00
      vertex -4.047650e-01 5.261945e+00 1.654506e+00
      vertex -1.214295e+00 6.071475e+00 1.654506e+00
    endloop
  endfacet
  facet normal 1.530207e-16 -6.329283e-01 -7.742105e-01
    outer loop
      vertex 1.665335e-16 6.476240e+00 1.323605e+00
      vertex -1.214295e+00 6.071475e+00 1.654506e+00
      vertex -1.214295e+00 6.881005e+00 9.927037e-01
    endloop
  endfacet
  facet normal 1.963418e-01 -1.963418e-01 -9.606767e-01
    outer loop
      vertex 1.665335e-16 6.476240e+00 1.323605e+00
      vertex -1.214295e+00 6.881005e+00 9.927037e-01
      vertex -4.047650e-01 7.690535e+00 9.927037e-01
    endloop
  endfacet
  facet normal 0.000000e+00 -2.629176e-01 -9.648183e-01
    outer loop
      vertex 1.665335e-16 6.476240e+00 1.323605e+00
      vertex -4.047650e-01 7.690535e+00 9.927037e-01
      vertex 4.047650e-01 7.690535e+00 9.927037e-01
    endloop
  endfacet
  facet normal -1.963418e-01 -1.963418e-01 -9.606767e-01
    outer loop
      vertex 1.665335e-16 6.476240e+00 1.323605e+00
      vertex 4.047650e-01 7.690535e+00 9.927037e-01
      vertex 1.214295e+00 6.881005e+00 9.927037e-01
    endloop
  endfacet
  facet normal -1.530207e-16 -6.329283e-01 -7.742105e-01
    outer loop
      vertex 1.665335e-16 6.476240e+00 1.323605e+00
      vertex 1.214295e+00 6.881005e+00 9.927037e-01
      vertex 1.214295e+00 6.071475e+00 1.654506e+00
    endloop
  endfacet
  facet normal 0.000000e+00 0.000000e+00 -1.000000e+00
    outer loop
      vertex -5.551115e-17 1.619060e+00 9.927037e-01
      vertex 4.047650e-01 2.023825e+00 9.927037e-01
      vertex 4.047650e-01 1.214295e+00 9.927037e-01
    endloop
  endfacet
  facet normal 0.000000e+00 -0.000000e+00 -1.000000e+00
    outer loop
      vertex -5.551115e-17 1.619060e+00 9.927037e-01
      vertex 4.047650e-01 1.214295e+00 9.927037e-01
      vertex -4.047650e-01 1.214295e+00 9.927037e-01
    endloop
  endfacet
  facet normal -0.000000e+00 0.000000e+00 -1.000000e+00
    outer loop
      vertex -5.551115e-17 1.619060e+00 9.927037e-01
      vertex -4.047650e-01 1.214295e+00 9.927037e-01
      vertex -4.047650e-01 2.023825e+00 9.927037e-01
    endloop
  endfacet
  facet normal 0.000000e+00 0.000000e+00 -1.000000e+00
    outer loop
      vertex -5.551115e-17 1.619060e+00 9.927037e-01
      vertex -4.047650e-01 2.023825e+00 9.927037e-01
      vertex 4.047650e-01 2.023825e+00 9.927037e-01
    endloop
  endfacet
  facet normal 0.000000e+00 0.000000e+00 -1.000000e+00
    outer loop
      vertex 6.476240e+00 1.619060e+00 9.927037e-01
      vertex 6.071475e+00 2.023825e+00 9.927037e-01
      vertex 6.881005e+00 2.023825e+00 9.927037e-01
    endloop
  endfacet
  facet normal 0.000000e+00 0.000000e+00 -1.000000e+00
    outer loop
      vertex 6.476240e+00 1.619060e+00 9.927037e-01
      vertex 6.881005e+00 2.023825e+00 9.927037e-01
      vertex 6.881005e+00 1.214295e+00 9.927037e-01
    endloop
  endfacet
  facet normal 0.000000e+00 -0.000000e+00 -1.000000e+00
    outer loop
      vertex 6.476240e+00 1.619060e+00 9.927037e-01
      vertex 6.881005e+00 1.214295e+00 9.927037e-01
      vertex 6.071475e+00 1.214295e+00 9.927037e-01
    endloop
  endfacet
  facet normal -0.000000e+00 0.000000e+00 -1.000000e+00
    outer loop
      vertex 6.476240e+00 1.619060e+00 9.927037e-01
      vertex 6.071475e+00 1.214295e+00 9.927037e-01
      vertex 6.071475e+00 2.023825e+00 9.927037e-01
    endloop
  endfacet
  facet normal -0.000000e+00 0.000000e+00 -1.000000e+00
    outer loop
      vertex 3.238120e+00 1.619060e+00 3.309012e-01
      vertex 2.833355e+00 1.214295e+00 3.309012e-01
      vertex 2.833355e+00 2.023825e+00 3.309012e-01
    endloop
  endfacet
  facet normal 0.000000e+00 0.000000e+00 -1.000000e+00
    outer loop
      vertex 3.238120e+00 1.619060e+00 3.309012e-01
      vertex 2.833355e+00 2.023825e+00 3.309012e-01
      vertex 3.642885e+00 2.023825e+00 3.309012e-01
    endloop
  endfacet
  facet normal 0.000000e+00 0.000000e+00 -1.000000e+00
    outer loop
      vertex 3.238120e+00 1.619060e+00 3.309012e-01
      vertex 3.642885e+00 2.023825e+00 3.309012e-01
      vertex 3.642885e+00 1.214295e+00 3.309012e-01
    endloop
  endfacet
  facet normal 0.000000e+00 -0.000000e+00 -1.000000e+00
    outer loop
      vertex 3.238120e+00 1.619060e+00 3.309012e-01
      vertex 3.642885e+00 1.214295e+00 3.309012e-01
      vertex 2.833355e+00 1.214295e+00 3.309012e-01
    endloop
  endfacet
  facet normal 0.000000e+00 0.000000e+00 -1.000000e+00
    outer loop
      vertex 5.551115e-17 4.857180e+00 1.654506e+00
      vertex 4.047650e-01 5.261945e+00 1.654506e+00
      vertex 4.047650e-01 4.452415e+00 1.654506e+00
    endloop
  endfacet
  facet normal 0.000000e+00 -0.000000e+00 -1.000000e+00
    outer loop
      vertex 5.551115e-17 4.857180e+00 1.654506e+00
      vertex 4.047650e-01 4.452415e+00 1.654506e+00
      vertex -4.047650e-01 4.452415e+00 1.654506e+00
    endloop
  endfacet
  facet normal -0.000000e+00 0.000000e+00 -1.000000e+00
    outer loop
      vertex 5.551115e-17 4.857180e+00 1.654506e+00
      vertex -4.047650e-01 4.452415e+00 1.654506e+00
      vertex -4.047650e-01 5.261945e+00 1.654506e+00
    endloop
  endfacet
  facet normal 0.000000e+00 0.000000e+00 -1.000000e+00
    outer loop
      vertex 5.551115e-17 4.857180e+00 1.654506e+00
      vertex -4.047650e-01 5.261945e+00 1.654506e+00
      vertex 4.047650e-01 5.261945e+00 1.654506e+00
    endloop
  endfacet
  facet normal 0.000000e+00 0.000000e+00 -1.000000e+00
    outer loop
      vertex 6.476240e+00 4.857180e+00 1.654506e+00
      vertex 6.071475e+00 5.261945e+00 1.654506e+00
      vertex 6.881005e+00 5.261945e+00 1.654506e+00
    endloop
  endfacet
  facet normal 0.000000e+00 0.000000e+00 -1.000000e+00
    outer loop
      vertex 6.476240e+00 4.857180e+00 1.654506e+00
      vertex 6.881005e+00 5.261945e+00 1.654506e+00
      vertex 6.881005e+00 4.452415e+00 1.654506e+00
    endloop
  endfacet
  facet normal 0.000000e+00 -0.000000e+00 -1.000000e+00
    outer loop
      vertex 6.476240e+00 4.857180e+00 1.654506e+00
      vertex 6.881005e+00 4.452415e+00 1.654506e+00
      vertex 6.071475e+00 4.452415e+00 1.654506e+00
    endloop
  endfacet
  facet normal -0.000000e+00 0.000000e+00 -1.000000e+00
    outer loop
      vertex 6.476240e+00 4.857180e+00 1.654506e+00
      vertex 6.071475e+00 4.452415e+00 1.654506e+00
      vertex 6.071475e+00 5.261945e+00 1.654506e+00
    endloop
  endfacet
  facet normal 0.000000e+00 -0.000000e+00 -1.000000e+00
    outer loop
      vertex 3.238120e+00 4.857180e+00 2.316309e+00
      vertex 3.642885e+00 4.452415e+00 2.316309e+00
      vertex 2.833355e+00 4.452415e+00 2.316309e+00
    endloop
  endfacet
  facet normal -0.000000e+00 0.000000e+00 -1.000000e+00
    outer loop
      vertex 3.238120e+00 4.857180e+00 2.316309e+00
      vertex 2.833355e+00 4.452415e+00 2.316309e+00
      vertex 2.833355e+00 5.261945e+00 2.316309e+00
    endloop
  endfacet
  facet normal 0.000000e+00 0.000000e+00 -1.000000e+00
    outer loop
      vertex 3.238120e+00 4.857180e+00 2.316309e+00
      vertex 2.833355e+00 5.261945e+00 2.316309e+00
      vertex 3.642885e+00 5.261945e+00 2.316309e+00
    endloop
  endfacet
  facet normal 0.000000e+00 0.000000e+00 -1.000000e+00
    outer loop
      vertex 3.238120e+00 4.857180e+00 2.316309e+00
      vertex 3.642885e+00 5.261945e+00 2.316309e+00
      vertex 3.642885e+00 4.452415e+00 2.316309e+00
    endloop
  endfacet
endsolid surface_model
