solid surface_model
  facet normal 5.000003e-01 -5.000003e-01 7.071064e-01
    outer loop
      vertex 1.125000e+00 1.250000e-01 3.535537e-01
      vertex 1.500000e+00 0.000000e+00 0.000000e+00
      vertex 1.000000e+00 5.000000e-01 7.071075e-01
    endloop
  endfacet
  facet normal 9.428091e-01 0.000000e+00 3.333330e-01
    outer loop
      vertex 1.125000e+00 1.250000e-01 3.535537e-01
      vertex 1.000000e+00 5.000000e-01 7.071075e-01
      vertex 1.000000e+00 6.106652e-18 7.071075e-01
    endloop
  endfacet
  facet normal 7.071068e-01 -7.071068e-01 -5.551109e-17
    outer loop
      vertex 1.125000e+00 1.250000e-01 3.535537e-01
      vertex 1.000000e+00 6.106652e-18 7.071075e-01
      vertex 1.000000e+00 -3.719119e-17 0.000000e+00
    endloop
  endfacet
  facet normal 7.401480e-17 -9.428091e-01 3.333330e-01
    outer loop
      vertex 1.125000e+00 1.250000e-01 3.535537e-01
      vertex 1.000000e+00 -3.719119e-17 0.000000e+00
      vertex 1.500000e+00 0.000000e+00 0.000000e+00
    endloop
  endfacet
  facet normal 5.000003e-01 5.000003e-01 7.071064e-01
    outer loop
      vertex 8.750000e-01 1.250000e-01 1.060661e+00
      vertex 1.000000e+00 5.000000e-01 7.071075e-01
      vertex 5.000000e-01 8.659569e-17 1.414215e+00
    endloop
  endfacet
  facet normal 7.401480e-17 9.428091e-01 3.333330e-01
    outer loop
      vertex 8.750000e-01 1.250000e-01 1.060661e+00
      vertex 5.000000e-01 8.659569e-17 1.414215e+00
      vertex 1.000000e+00 4.940450e-17 1.414215e+00
    endloop
  endfacet
  facet normal 7.071068e-01 7.071068e-01 -5.551109e-17
    outer loop
      vertex 8.750000e-01 1.250000e-01 1.060661e+00
      vertex 1.000000e+00 4.940450e-17 1.414215e+00
      vertex 1.000000e+00 6.106652e-18 7.071075e-01
    endloop
  endfacet
  facet normal 9.428091e-01 0.000000e+00 3.333330e-01
    outer loop
      vertex 8.750000e-01 1.250000e-01 1.060661e+00
      vertex 1.000000e+00 6.106652e-18 7.071075e-01
      vertex 1.000000e+00 5.000000e-01 7.071075e-01
    endloop
  endfacet
  facet normal -5.000003e-01 5.000003e-01 7.071064e-01
    outer loop
      vertex 8.750000e-01 -1.250000e-01 1.767769e+00
      vertex 5.000000e-01 8.659569e-17 1.414215e+00
      vertex 1.000000e+00 -5.000000e-01 2.121322e+00
    endloop
  endfacet
  facet normal -9.428091e-01 -4.440888e-16 3.333330e-01
    outer loop
      vertex 8.750000e-01 -1.250000e-01 1.767769e+00
      vertex 1.000000e+00 -5.000000e-01 2.121322e+00
      vertex 1.000000e+00 9.270235e-17 2.121322e+00
    endloop
  endfacet
  facet normal -7.071068e-01 7.071068e-01 -4.163332e-17
    outer loop
      vertex 8.750000e-01 -1.250000e-01 1.767769e+00
      vertex 1.000000e+00 9.270235e-17 2.121322e+00
      vertex 1.000000e+00 4.940450e-17 1.414215e+00
    endloop
  endfacet
  facet normal 7.401480e-17 9.428091e-01 3.333330e-01
    outer loop
      vertex 8.750000e-01 -1.250000e-01 1.767769e+00
      vertex 1.000000e+00 4.940450e-17 1.414215e+00
      vertex 5.000000e-01 8.659569e-17 1.414215e+00
    endloop
  endfacet
  facet normal 5.000003e-01 -5.000003e-01 7.071064e-01
    outer loop
      vertex 2.000000e+00 1.000000e+00 3.535537e-01
      vertex 1.000000e+00 5.000000e-01 7.071075e-01
      vertex 1.500000e+00 0.000000e+00 0.000000e+00
    endloop
  endfacet
  facet normal 0.000000e+00 -3.333336e-01 9.428089e-01
    outer loop
      vertex 2.000000e+00 1.000000e+00 3.535537e-01
      vertex 1.500000e+00 0.000000e+00 0.000000e+00
      vertex 2.500000e+00 0.000000e+00 0.000000e+00
    endloop
  endfacet
  facet normal -5.000003e-01 -5.000003e-01 7.071064e-01
    outer loop
      vertex 2.000000e+00 1.000000e+00 3.535537e-01
      vertex 2.500000e+00 0.000000e+00 0.000000e+00
      vertex 3.000000e+00 5.000000e-01 7.071075e-01
    endloop
  endfacet
  facet normal -3.333336e-01 0.000000e+00 9.428089e-01
    outer loop
      vertex 2.000000e+00 1.000000e+00 3.535537e-01
      vertex 3.000000e+00 5.000000e-01 7.071075e-01
      vertex 3.000000e+00 1.500000e+00 7.071075e-01
    endloop
  endfacet
  facet normal -5.000003e-01 5.000003e-01 7.071064e-01
    outer loop
      vertex 2.000000e+00 1.000000e+00 3.535537e-01
      vertex 3.000000e+00 1.500000e+00 7.071075e-01
      vertex 2.500000e+00 2.000000e+00 0.000000e+00
    endloop
  endfacet
  facet normal 0.000000e+00 3.333336e-01 9.428089e-01
    outer loop
      vertex 2.000000e+00 1.000000e+00 3.535537e-01
      vertex 2.500000e+00 2.000000e+00 0.000000e+00
      vertex 1.500000e+00 2.000000e+00 0.000000e+00
    endloop
  endfacet
  facet normal 5.000003e-01 5.000003e-01 7.071064e-01
    outer loop
      vertex 2.000000e+00 1.000000e+00 3.535537e-01
      vertex 1.500000e+00 2.000000e+00 0.000000e+00
      vertex 1.000000e+00 1.500000e+00 7.071075e-01
    endloop
  endfacet
  facet normal 3.333336e-01 0.000000e+00 9.428089e-01
    outer loop
      vertex 2.000000e+00 1.000000e+00 3.535537e-01
      vertex 1.000000e+00 1.500000e+00 7.071075e-01
      vertex 1.000000e+00 5.000000e-01 7.071075e-01
    endloop
  endfacet
  facet normal -5.000003e-01 -5.000003e-01 7.071064e-01
    outer loop
      vertex 2.000000e+00 -1.000000e+00 -3.535538e-01
      vertex 1.500000e+00 0.000000e+00 0.000000e+00
      vertex 1.000000e+00 -5.000000e-01 -7.071075e-01
    endloop
  endfacet
  facet normal -3.333336e-01 0.000000e+00 9.428089e-01
    outer loop
      vertex 2.000000e+00 -1.000000e+00 -3.535538e-01
      vertex 1.000000e+00 -5.000000e-01 -7.071075e-01
      vertex 1.000000e+00 -1.500000e+00 -7.071075e-01
    endloop
  endfacet
  facet normal -5.000003e-01 5.000003e-01 7.071064e-01
    outer loop
      vertex 2.000000e+00 -1.000000e+00 -3.535538e-01
      vertex 1.000000e+00 -1.500000e+00 -7.071075e-01
      vertex 1.500000e+00 -2.000000e+00 0.000000e+00
    endloop
  endfacet
  facet normal 0.000000e+00 3.333336e-01 9.428089e-01
    outer loop
      vertex 2.000000e+00 -1.000000e+00 -3.535538e-01
      vertex 1.500000e+00 -2.000000e+00 0.000000e+00
      vertex 2.500000e+00 -2.000000e+00 0.000000e+00
    endloop
  endfacet
  facet normal 5.000003e-01 5.000003e-01 7.071064e-01
    outer loop
      vertex 2.000000e+00 -1.000000e+00 -3.535538e-01
      vertex 2.500000e+00 -2.000000e+00 0.000000e+00
      vertex 3.000000e+00 -1.500000e+00 -7.071075e-01
    endloop
  endfacet
  facet normal 3.333336e-01 0.000000e+00 9.428089e-01
    outer loop
      vertex 2.000000e+00 -1.000000e+00 -3.535538e-01
      vertex 3.000000e+00 -1.500000e+00 -7.071075e-01
      vertex 3.000000e+00 -5.000000e-01 -7.071075e-01
    endloop
  endfacet
  facet normal 5.000003e-01 -5.000003e-01 7.071064e-01
    outer loop
      vertex 2.000000e+00 -1.000000e+00 -3.535538e-01
      vertex 3.000000e+00 -5.000000e-01 -7.071075e-01
      vertex 2.500000e+00 0.000000e+00 0.000000e+00
    endloop
  endfacet
  facet normal 0.000000e+00 -3.333336e-01 9.428089e-01
    outer loop
      vertex 2.000000e+00 -1.000000e+00 -3.535538e-01
      vertex 2.500000e+00 0.000000e+00 0.000000e+00
      vertex 1.500000e+00 0.000000e+00 0.000000e+00
    endloop
  endfacet
  facet normal -5.000003e-01 -5.000003e-01 7.071064e-01
    outer loop
      vertex 1.125000e+00 3.875000e+00 2.474876e+00
      vertex 1.000000e+00 3.500000e+00 2.121322e+00
      vertex 1.500000e+00 4.000000e+00 2.828430e+00
    endloop
  endfacet
  facet normal 0.000000e+00 -9.428091e-01 3.333330e-01
    outer loop
      vertex 1.125000e+00 3.875000e+00 2.474876e+00
      vertex 1.500000e+00 4.000000e+00 2.828430e+00
      vertex 1.000000e+00 4.000000e+00 2.828430e+00
    endloop
  endfacet
  facet normal -7.071068e-01 -7.071068e-01 0.000000e+00
    outer loop
      vertex 1.125000e+00 3.875000e+00 2.474876e+00
      vertex 1.000000e+00 4.000000e+00 2.828430e+00
      vertex 1.000000e+00 4.000000e+00 2.121322e+00
    endloop
  endfacet
  facet normal -9.428091e-01 0.000000e+00 3.333330e-01
    outer loop
      vertex 1.125000e+00 3.875000e+00 2.474876e+00
      vertex 1.000000e+00 4.000000e+00 2.121322e+00
      vertex 1.000000e+00 3.500000e+00 2.121322e+00
    endloop
  endfacet
  facet normal 5.000003e-01 -5.000003e-01 7.071064e-01
    outer loop
      vertex 1.125000e+00 4.125000e+00 3.181984e+00
      vertex 1.500000e+00 4.000000e+00 2.828430e+00
      vertex 1.000000e+00 4.500000e+00 3.535538e+00
    endloop
  endfacet
  facet normal 9.428091e-01 0.000000e+00 3.333330e-01
    outer loop
      vertex 1.125000e+00 4.125000e+00 3.181984e+00
      vertex 1.000000e+00 4.500000e+00 3.535538e+00
      vertex 1.000000e+00 4.000000e+00 3.535538e+00
    endloop
  endfacet
  facet normal 7.071068e-01 -7.071068e-01 0.000000e+00
    outer loop
      vertex 1.125000e+00 4.125000e+00 3.181984e+00
      vertex 1.000000e+00 4.000000e+00 3.535538e+00
      vertex 1.000000e+00 4.000000e+00 2.828430e+00
    endloop
  endfacet
  facet normal 0.000000e+00 -9.428091e-01 3.333330e-01
    outer loop
      vertex 1.125000e+00 4.125000e+00 3.181984e+00
      vertex 1.000000e+00 4.000000e+00 2.828430e+00
      vertex 1.500000e+00 4.000000e+00 2.828430e+00
    endloop
  endfacet
  facet normal 5.000003e-01 5.000003e-01 7.071064e-01
    outer loop
      vertex 8.750000e-01 4.125000e+00 3.889091e+00
      vertex 1.000000e+00 4.500000e+00 3.535538e+00
      vertex 5.000000e-01 4.000000e+00 4.242645e+00
    endloop
  endfacet
  facet normal 0.000000e+00 9.428091e-01 3.333330e-01
    outer loop
      vertex 8.750000e-01 4.125000e+00 3.889091e+00
      vertex 5.000000e-01 4.000000e+00 4.242645e+00
      vertex 1.000000e+00 4.000000e+00 4.242645e+00
    endloop
  endfacet
  facet normal 7.071068e-01 7.071068e-01 0.000000e+00
    outer loop
      vertex 8.750000e-01 4.125000e+00 3.889091e+00
      vertex 1.000000e+00 4.000000e+00 4.242645e+00
      vertex 1.000000e+00 4.000000e+00 3.535538e+00
    endloop
  endfacet
  facet normal 9.428091e-01 0.000000e+00 3.333330e-01
    outer loop
      vertex 8.750000e-01 4.125000e+00 3.889091e+00
      vertex 1.000000e+00 4.000000e+00 3.535538e+00
      vertex 1.000000e+00 4.500000e+00 3.535538e+00
    endloop
  endfacet
  facet normal -5.000003e-01 -5.000003e-01 7.071064e-01
    outer loop
      vertex 2.875000e+00 1.250000e-01 3.535537e-01
      vertex 3.000000e+00 5.000000e-01 7.071075e-01
      vertex 2.500000e+00 0.000000e+00 0.000000e+00
    endloop
  endfacet
  facet normal 3.700740e-17 -9.428091e-01 3.333330e-01
    outer loop
      vertex 2.875000e+00 1.250000e-01 3.535537e-01
      vertex 2.500000e+00 0.000000e+00 0.000000e+00
      vertex 3.000000e+00 0.000000e+00 -5.551115e-17
    endloop
  endfacet
  facet normal -7.071068e-01 -7.071068e-01 4.163332e-17
    outer loop
      vertex 2.875000e+00 1.250000e-01 3.535537e-01
      vertex 3.000000e+00 0.000000e+00 -5.551115e-17
      vertex 3.000000e+00 4.329785e-17 7.071075e-01
    endloop
  endfacet
  facet normal -9.428091e-01 0.000000e+00 3.333330e-01
    outer loop
      vertex 2.875000e+00 1.250000e-01 3.535537e-01
      vertex 3.000000e+00 4.329785e-17 7.071075e-01
      vertex 3.000000e+00 5.000000e-01 7.071075e-01
    endloop
  endfacet
  facet normal 5.000003e-01 -5.000003e-01 7.071064e-01
    outer loop
      vertex 2.875000e+00 -1.250000e-01 -3.535538e-01
      vertex 2.500000e+00 0.000000e+00 0.000000e+00
      vertex 3.000000e+00 -5.000000e-01 -7.071075e-01
    endloop
  endfacet
  facet normal 9.428091e-01 -8.511702e-16 3.333330e-01
    outer loop
      vertex 2.875000e+00 -1.250000e-01 -3.535538e-01
      vertex 3.000000e+00 -5.000000e-01 -7.071075e-01
      vertex 3.000000e+00 -4.329785e-17 -7.071075e-01
    endloop
  endfacet
  facet normal 7.071068e-01 -7.071068e-01 4.163332e-17
    outer loop
      vertex 2.875000e+00 -1.250000e-01 -3.535538e-01
      vertex 3.000000e+00 -4.329785e-17 -7.071075e-01
      vertex 3.000000e+00 0.000000e+00 -5.551115e-17
    endloop
  endfacet
  facet normal 3.700740e-17 -9.428091e-01 3.333330e-01
    outer loop
      vertex 2.875000e+00 -1.250000e-01 -3.535538e-01
      vertex 3.000000e+00 0.000000e+00 -5.551115e-17
      vertex 2.500000e+00 0.000000e+00 0.000000e+00
    endloop
  endfacet
  facet normal 5.000003e-01 5.000003e-01 7.071064e-01
    outer loop
      vertex 3.125000e+00 -1.250000e-01 -1.060661e+00
      vertex 3.000000e+00 -5.000000e-01 -7.071075e-01
      vertex 3.500000e+00 -8.659569e-17 -1.414215e+00
    endloop
  endfacet
  facet normal 0.000000e+00 9.428091e-01 3.333330e-01
    outer loop
      vertex 3.125000e+00 -1.250000e-01 -1.060661e+00
      vertex 3.500000e+00 -8.659569e-17 -1.414215e+00
      vertex 3.000000e+00 -8.659569e-17 -1.414215e+00
    endloop
  endfacet
  facet normal 7.071068e-01 7.071068e-01 -2.775555e-17
    outer loop
      vertex 3.125000e+00 -1.250000e-01 -1.060661e+00
      vertex 3.000000e+00 -8.659569e-17 -1.414215e+00
      vertex 3.000000e+00 -4.329785e-17 -7.071075e-01
    endloop
  endfacet
  facet normal 9.428091e-01 -8.511702e-16 3.333330e-01
    outer loop
      vertex 3.125000e+00 -1.250000e-01 -1.060661e+00
      vertex 3.000000e+00 -4.329785e-17 -7.071075e-01
      vertex 3.000000e+00 -5.000000e-01 -7.071075e-01
    endloop
  endfacet
  facet normal 5.000003e-01 -5.000003e-01 7.071064e-01
    outer loop
      vertex 2.000000e+00 3.000000e+00 2.474876e+00
      vertex 3.000000e+00 3.500000e+00 2.121322e+00
      vertex 2.500000e+00 4.000000e+00 2.828430e+00
    endloop
  endfacet
  facet normal 0.000000e+00 -3.333336e-01 9.428089e-01
    outer loop
      vertex 2.000000e+00 3.000000e+00 2.474876e+00
      vertex 2.500000e+00 4.000000e+00 2.828430e+00
      vertex 1.500000e+00 4.000000e+00 2.828430e+00
    endloop
  endfacet
  facet normal -5.000003e-01 -5.000003e-01 7.071064e-01
    outer loop
      vertex 2.000000e+00 3.000000e+00 2.474876e+00
      vertex 1.500000e+00 4.000000e+00 2.828430e+00
      vertex 1.000000e+00 3.500000e+00 2.121322e+00
    endloop
  endfacet
  facet normal -3.333336e-01 0.000000e+00 9.428089e-01
    outer loop
      vertex 2.000000e+00 3.000000e+00 2.474876e+00
      vertex 1.000000e+00 3.500000e+00 2.121322e+00
      vertex 1.000000e+00 2.500000e+00 2.121322e+00
    endloop
  endfacet
  facet normal -5.000003e-01 5.000003e-01 7.071064e-01
    outer loop
      vertex 2.000000e+00 3.000000e+00 2.474876e+00
      vertex 1.000000e+00 2.500000e+00 2.121322e+00
      vertex 1.500000e+00 2.000000e+00 2.828430e+00
    endloop
  endfacet
  facet normal 0.000000e+00 3.333336e-01 9.428089e-01
    outer loop
      vertex 2.000000e+00 3.000000e+00 2.474876e+00
      vertex 1.500000e+00 2.000000e+00 2.828430e+00
      vertex 2.500000e+00 2.000000e+00 2.828430e+00
    endloop
  endfacet
  facet normal 5.000003e-01 5.000003e-01 7.071064e-01
    outer loop
      vertex 2.000000e+00 3.000000e+00 2.474876e+00
      vertex 2.500000e+00 2.000000e+00 2.828430e+00
      vertex 3.000000e+00 2.500000e+00 2.121322e+00
    endloop
  endfacet
  facet normal 3.333336e-01 0.000000e+00 9.428089e-01
    outer loop
      vertex 2.000000e+00 3.000000e+00 2.474876e+00
      vertex 3.000000e+00 2.500000e+00 2.121322e+00
      vertex 3.000000e+00 3.500000e+00 2.121322e+00
    endloop
  endfacet
  facet normal 5.000003e-01 5.000003e-01 7.071064e-01
    outer loop
      vertex 0.000000e+00 1.000000e+00 1.060661e+00
      vertex 5.000000e-01 8.659569e-17 1.414215e+00
      vertex 1.000000e+00 5.000000e-01 7.071075e-01
    endloop
  endfacet
  facet normal 3.333336e-01 0.000000e+00 9.428089e-01
    outer loop
      vertex 0.000000e+00 1.000000e+00 1.060661e+00
      vertex 1.000000e+00 5.000000e-01 7.071075e-01
      vertex 1.000000e+00 1.500000e+00 7.071075e-01
    endloop
  endfacet
  facet normal 5.000003e-01 -5.000003e-01 7.071064e-01
    outer loop
      vertex 0.000000e+00 1.000000e+00 1.060661e+00
      vertex 1.000000e+00 1.500000e+00 7.071075e-01
      vertex 5.000000e-01 2.000000e+00 1.414215e+00
    endloop
  endfacet
  facet normal 0.000000e+00 -3.333336e-01 9.428089e-01
    outer loop
      vertex 0.000000e+00 1.000000e+00 1.060661e+00
      vertex 5.000000e-01 2.000000e+00 1.414215e+00
      vertex -5.000000e-01 2.000000e+00 1.414215e+00
    endloop
  endfacet
  facet normal -5.000003e-01 -5.000003e-01 7.071064e-01
    outer loop
      vertex 0.000000e+00 1.000000e+00 1.060661e+00
      vertex -5.000000e-01 2.000000e+00 1.414215e+00
      vertex -1.000000e+00 1.500000e+00 7.071075e-01
    endloop
  endfacet
  facet normal -3.333336e-01 0.000000e+00 9.428089e-01
    outer loop
      vertex 0.000000e+00 1.000000e+00 1.060661e+00
      vertex -1.000000e+00 1.500000e+00 7.071075e-01
      vertex -1.000000e+00 5.000000e-01 7.071075e-01
    endloop
  endfacet
  facet normal -5.000003e-01 5.000003e-01 7.071064e-01
    outer loop
      vertex 0.000000e+00 1.000000e+00 1.060661e+00
      vertex -1.000000e+00 5.000000e-01 7.071075e-01
      vertex -5.000000e-01 8.659569e-17 1.414215e+00
    endloop
  endfacet
  facet normal 0.000000e+00 3.333336e-01 9.428089e-01
    outer loop
      vertex 0.000000e+00 1.000000e+00 1.060661e+00
      vertex -5.000000e-01 8.659569e-17 1.414215e+00
      vertex 5.000000e-01 8.659569e-17 1.414215e+00
    endloop
  endfacet
  facet normal -5.000003e-01 5.000003e-01 7.071064e-01
    outer loop
      vertex 2.498002e-16 3.000000e+00 1.767769e+00
      vertex 1.000000e+00 3.500000e+00 2.121322e+00
      vertex 5.000000e-01 4.000000e+00 1.414215e+00
    endloop
  endfacet
  facet normal 0.000000e+00 3.333336e-01 9.428089e-01
    outer loop
      vertex 2.498002e-16 3.000000e+00 1.767769e+00
      vertex 5.000000e-01 4.000000e+00 1.414215e+00
      vertex -5.000000e-01 4.000000e+00 1.414215e+00
    endloop
  endfacet
  facet normal 5.000003e-01 5.000003e-01 7.071064e-01
    outer loop
      vertex 2.498002e-16 3.000000e+00 1.767769e+00
      vertex -5.000000e-01 4.000000e+00 1.414215e+00
      vertex -1.000000e+00 3.500000e+00 2.121322e+00
    endloop
  endfacet
  facet normal 3.333336e-01 0.000000e+00 9.428089e-01
    outer loop
      vertex 2.498002e-16 3.000000e+00 1.767769e+00
      vertex -1.000000e+00 3.500000e+00 2.121322e+00
      vertex -1.000000e+00 2.500000e+00 2.121322e+00
    endloop
  endfacet
  facet normal 5.000003e-01 -5.000003e-01 7.071064e-01
    outer loop
      vertex 2.498002e-16 3.000000e+00 1.767769e+00
      vertex -1.000000e+00 2.500000e+00 2.121322e+00
      vertex -5.000000e-01 2.000000e+00 1.414215e+00
    endloop
  endfacet
  facet normal 0.000000e+00 -3.333336e-01 9.428089e-01
    outer loop
      vertex 2.498002e-16 3.000000e+00 1.767769e+00
      vertex -5.000000e-01 2.000000e+00 1.414215e+00
      vertex 5.000000e-01 2.000000e+00 1.414215e+00
    endloop
  endfacet
  facet normal -5.000003e-01 -5.000003e-01 7.071064e-01
    outer loop
      vertex 2.498002e-16 3.000000e+00 1.767769e+00
      vertex 5.000000e-01 2.000000e+00 1.414215e+00
      vertex 1.000000e+00 2.500000e+00 2.121322e+00
    endloop
  endfacet
  facet normal -3.333336e-01 0.000000e+00 9.428089e-01
    outer loop
      vertex 2.498002e-16 3.000000e+00 1.767769e+00
      vertex 1.000000e+00 2.500000e+00 2.121322e+00
      vertex 1.000000e+00 3.500000e+00 2.121322e+00
    endloop
  endfacet
  facet normal 5.000003e-01 5.000003e-01 7.071064e-01
    outer loop
      vertex 1.125000e+00 1.875000e+00 3.535537e-01
      vertex 1.000000e+00 1.500000e+00 7.071075e-01
      vertex 1.500000e+00 2.000000e+00 0.000000e+00
    endloop
  endfacet
  facet normal 3.700740e-17 9.428091e-01 3.333330e-01
    outer loop
      vertex 1.125000e+00 1.875000e+00 3.535537e-01
      vertex 1.500000e+00 2.000000e+00 0.000000e+00
      vertex 1.000000e+00 2.000000e+00 5.551115e-17
    endloop
  endfacet
  facet normal 7.071068e-01 7.071068e-01 0.000000e+00
    outer loop
      vertex 1.125000e+00 1.875000e+00 3.535537e-01
      vertex 1.000000e+00 2.000000e+00 5.551115e-17
      vertex 1.000000e+00 2.000000e+00 7.071075e-01
    endloop
  endfacet
  facet normal 9.428091e-01 0.000000e+00 3.333330e-01
    outer loop
      vertex 1.125000e+00 1.875000e+00 3.535537e-01
      vertex 1.000000e+00 2.000000e+00 7.071075e-01
      vertex 1.000000e+00 1.500000e+00 7.071075e-01
    endloop
  endfacet
  facet normal -5.000003e-01 5.000003e-01 7.071064e-01
    outer loop
      vertex 1.125000e+00 2.125000e+00 -3.535538e-01
      vertex 1.500000e+00 2.000000e+00 0.000000e+00
      vertex 1.000000e+00 2.500000e+00 -7.071075e-01
    endloop
  endfacet
  facet normal -9.428091e-01 4.070814e-16 3.333330e-01
    outer loop
      vertex 1.125000e+00 2.125000e+00 -3.535538e-01
      vertex 1.000000e+00 2.500000e+00 -7.071075e-01
      vertex 1.000000e+00 2.000000e+00 -7.071075e-01
    endloop
  endfacet
  facet normal -7.071068e-01 7.071068e-01 0.000000e+00
    outer loop
      vertex 1.125000e+00 2.125000e+00 -3.535538e-01
      vertex 1.000000e+00 2.000000e+00 -7.071075e-01
      vertex 1.000000e+00 2.000000e+00 5.551115e-17
    endloop
  endfacet
  facet normal 3.700740e-17 9.428091e-01 3.333330e-01
    outer loop
      vertex 1.125000e+00 2.125000e+00 -3.535538e-01
      vertex 1.000000e+00 2.000000e+00 5.551115e-17
      vertex 1.500000e+00 2.000000e+00 0.000000e+00
    endloop
  endfacet
  facet normal -5.000003e-01 -5.000003e-01 7.071064e-01
    outer loop
      vertex 8.750000e-01 2.125000e+00 -1.060661e+00
      vertex 1.000000e+00 2.500000e+00 -7.071075e-01
      vertex 5.000000e-01 2.000000e+00 -1.414215e+00
    endloop
  endfacet
  facet normal 4.070814e-16 -9.428091e-01 3.333330e-01
    outer loop
      vertex 8.750000e-01 2.125000e+00 -1.060661e+00
      vertex 5.000000e-01 2.000000e+00 -1.414215e+00
      vertex 1.000000e+00 2.000000e+00 -1.414215e+00
    endloop
  endfacet
  facet normal -7.071068e-01 -7.071068e-01 1.110222e-16
    outer loop
      vertex 8.750000e-01 2.125000e+00 -1.060661e+00
      vertex 1.000000e+00 2.000000e+00 -1.414215e+00
      vertex 1.000000e+00 2.000000e+00 -7.071075e-01
    endloop
  endfacet
  facet normal -9.428091e-01 4.070814e-16 3.333330e-01
    outer loop
      vertex 8.750000e-01 2.125000e+00 -1.060661e+00
      vertex 1.000000e+00 2.000000e+00 -7.071075e-01
      vertex 1.000000e+00 2.500000e+00 -7.071075e-01
    endloop
  endfacet
  facet normal -5.000003e-01 5.000003e-01 7.071064e-01
    outer loop
      vertex 2.875000e+00 1.875000e+00 3.535537e-01
      vertex 2.500000e+00 2.000000e+00 0.000000e+00
      vertex 3.000000e+00 1.500000e+00 7.071075e-01
    endloop
  endfacet
  facet normal -9.428091e-01 0.000000e+00 3.333330e-01
    outer loop
      vertex 2.875000e+00 1.875000e+00 3.535537e-01
      vertex 3.000000e+00 1.500000e+00 7.071075e-01
      vertex 3.000000e+00 2.000000e+00 7.071075e-01
    endloop
  endfacet
  facet normal -7.071068e-01 7.071068e-01 0.000000e+00
    outer loop
      vertex 2.875000e+00 1.875000e+00 3.535537e-01
      vertex 3.000000e+00 2.000000e+00 7.071075e-01
      vertex 3.000000e+00 2.000000e+00 0.000000e+00
    endloop
  endfacet
  facet normal 0.000000e+00 9.428091e-01 3.333330e-01
    outer loop
      vertex 2.875000e+00 1.875000e+00 3.535537e-01
      vertex 3.000000e+00 2.000000e+00 0.000000e+00
      vertex 2.500000e+00 2.000000e+00 0.000000e+00
    endloop
  endfacet
  facet normal -5.000003e-01 -5.000003e-01 7.071064e-01
    outer loop
      vertex 3.125000e+00 1.875000e+00 1.060661e+00
      vertex 3.000000e+00 1.500000e+00 7.071075e-01
      vertex 3.500000e+00 2.000000e+00 1.414215e+00
    endloop
  endfacet
  facet normal 0.000000e+00 -9.428091e-01 3.333330e-01
    outer loop
      vertex 3.125000e+00 1.875000e+00 1.060661e+00
      vertex 3.500000e+00 2.000000e+00 1.414215e+00
      vertex 3.000000e+00 2.000000e+00 1.414215e+00
    endloop
  endfacet
  facet normal -7.071068e-01 -7.071068e-01 0.000000e+00
    outer loop
      vertex 3.125000e+00 1.875000e+00 1.060661e+00
      vertex 3.000000e+00 2.000000e+00 1.414215e+00
      vertex 3.000000e+00 2.000000e+00 7.071075e-01
    endloop
  endfacet
  facet normal -9.428091e-01 0.000000e+00 3.333330e-01
    outer loop
      vertex 3.125000e+00 1.875000e+00 1.060661e+00
      vertex 3.000000e+00 2.000000e+00 7.071075e-01
      vertex 3.000000e+00 1.500000e+00 7.071075e-01
    endloop
  endfacet
  facet normal 5.000003e-01 -5.000003e-01 7.071064e-01
    outer loop
      vertex 3.125000e+00 2.125000e+00 1.767769e+00
      vertex 3.500000e+00 2.000000e+00 1.414215e+00
      vertex 3.000000e+00 2.500000e+00 2.121322e+00
    endloop
  endfacet
  facet normal 9.428091e-01 0.000000e+00 3.333330e-01
    outer loop
      vertex 3.125000e+00 2.125000e+00 1.767769e+00
      vertex 3.000000e+00 2.500000e+00 2.121322e+00
      vertex 3.000000e+00 2.000000e+00 2.121322e+00
    endloop
  endfacet
  facet normal 7.071068e-01 -7.071068e-01 0.000000e+00
    outer loop
      vertex 3.125000e+00 2.125000e+00 1.767769e+00
      vertex 3.000000e+00 2.000000e+00 2.121322e+00
      vertex 3.000000e+00 2.000000e+00 1.414215e+00
    endloop
  endfacet
  facet normal 0.000000e+00 -9.428091e-01 3.333330e-01
    outer loop
      vertex 3.125000e+00 2.125000e+00 1.767769e+00
      vertex 3.000000e+00 2.000000e+00 1.414215e+00
      vertex 3.500000e+00 2.000000e+00 1.414215e+00
    endloop
  endfacet
  facet normal 5.000003e-01 5.000003e-01 7.071064e-01
    outer loop
      vertex 2.000000e+00 3.000000e+00 -3.535538e-01
      vertex 2.500000e+00 2.000000e+00 0.000000e+00
      vertex 3.000000e+00 2.500000e+00 -7.071075e-01
    endloop
  endfacet
  facet normal 3.333336e-01 0.000000e+00 9.428089e-01
    outer loop
      vertex 2.000000e+00 3.000000e+00 -3.535538e-01
      vertex 3.000000e+00 2.500000e+00 -7.071075e-01
      vertex 3.000000e+00 3.500000e+00 -7.071075e-01
    endloop
  endfacet
  facet normal 5.000003e-01 -5.000003e-01 7.071064e-01
    outer loop
      vertex 2.000000e+00 3.000000e+00 -3.535538e-01
      vertex 3.000000e+00 3.500000e+00 -7.071075e-01
      vertex 2.500000e+00 4.000000e+00 0.000000e+00
    endloop
  endfacet
  facet normal 0.000000e+00 -3.333336e-01 9.428089e-01
    outer loop
      vertex 2.000000e+00 3.000000e+00 -3.535538e-01
      vertex 2.500000e+00 4.000000e+00 0.000000e+00
      vertex 1.500000e+00 4.000000e+00 0.000000e+00
    endloop
  endfacet
  facet normal -5.000003e-01 -5.000003e-01 7.071064e-01
    outer loop
      vertex 2.000000e+00 3.000000e+00 -3.535538e-01
      vertex 1.500000e+00 4.000000e+00 0.000000e+00
      vertex 1.000000e+00 3.500000e+00 -7.071075e-01
    endloop
  endfacet
  facet normal -3.333336e-01 0.000000e+00 9.428089e-01
    outer loop
      vertex 2.000000e+00 3.000000e+00 -3.535538e-01
      vertex 1.000000e+00 3.500000e+00 -7.071075e-01
      vertex 1.000000e+00 2.500000e+00 -7.071075e-01
    endloop
  endfacet
  facet normal -5.000003e-01 5.000003e-01 7.071064e-01
    outer loop
      vertex 2.000000e+00 3.000000e+00 -3.535538e-01
      vertex 1.000000e+00 2.500000e+00 -7.071075e-01
      vertex 1.500000e+00 2.000000e+00 0.000000e+00
    endloop
  endfacet
  facet normal 0.000000e+00 3.333336e-01 9.428089e-01
    outer loop
      vertex 2.000000e+00 3.000000e+00 -3.535538e-01
      vertex 1.500000e+00 2.000000e+00 0.000000e+00
      vertex 2.500000e+00 2.000000e+00 0.000000e+00
    endloop
  endfacet
  facet normal -5.000003e-01 5.000003e-01 7.071064e-01
    outer loop
      vertex 3.125000e+00 1.250000e-01 1.060661e+00
      vertex 3.500000e+00 8.659569e-17 1.414215e+00
      vertex 3.000000e+00 5.000000e-01 7.071075e-01
    endloop
  endfacet
  facet normal -9.428091e-01 0.000000e+00 3.333330e-01
    outer loop
      vertex 3.125000e+00 1.250000e-01 1.060661e+00
      vertex 3.000000e+00 5.000000e-01 7.071075e-01
      vertex 3.000000e+00 4.940450e-17 7.071075e-01
    endloop
  endfacet
  facet normal -7.071068e-01 7.071068e-01 -4.163332e-17
    outer loop
      vertex 3.125000e+00 1.250000e-01 1.060661e+00
      vertex 3.000000e+00 4.940450e-17 7.071075e-01
      vertex 3.000000e+00 9.270235e-17 1.414215e+00
    endloop
  endfacet
  facet normal 3.700740e-17 9.428091e-01 3.333330e-01
    outer loop
      vertex 3.125000e+00 1.250000e-01 1.060661e+00
      vertex 3.000000e+00 9.270235e-17 1.414215e+00
      vertex 3.500000e+00 8.659569e-17 1.414215e+00
    endloop
  endfacet
  facet normal -5.000003e-01 -5.000003e-01 7.071064e-01
    outer loop
      vertex 2.875000e+00 1.250000e-01 3.535537e-01
      vertex 3.000000e+00 5.000000e-01 7.071075e-01
      vertex 2.500000e+00 0.000000e+00 0.000000e+00
    endloop
  endfacet
  facet normal 3.700740e-17 -9.428091e-01 3.333330e-01
    outer loop
      vertex 2.875000e+00 1.250000e-01 3.535537e-01
      vertex 2.500000e+00 0.000000e+00 0.000000e+00
      vertex 3.000000e+00 6.106652e-18 -5.551115e-17
    endloop
  endfacet
  facet normal -7.071068e-01 -7.071068e-01 5.551109e-17
    outer loop
      vertex 2.875000e+00 1.250000e-01 3.535537e-01
      vertex 3.000000e+00 6.106652e-18 -5.551115e-17
      vertex 3.000000e+00 4.940450e-17 7.071075e-01
    endloop
  endfacet
  facet normal -9.428091e-01 0.000000e+00 3.333330e-01
    outer loop
      vertex 2.875000e+00 1.250000e-01 3.535537e-01
      vertex 3.000000e+00 4.940450e-17 7.071075e-01
      vertex 3.000000e+00 5.000000e-01 7.071075e-01
    endloop
  endfacet
  facet normal 5.000003e-01 -5.000003e-01 7.071064e-01
    outer loop
      vertex 2.875000e+00 -1.250000e-01 -3.535538e-01
      vertex 2.500000e+00 0.000000e+00 0.000000e+00
      vertex 3.000000e+00 -5.000000e-01 -7.071075e-01
    endloop
  endfacet
  facet normal 9.428091e-01 -8.511702e-16 3.333330e-01
    outer loop
      vertex 2.875000e+00 -1.250000e-01 -3.535538e-01
      vertex 3.000000e+00 -5.000000e-01 -7.071075e-01
      vertex 3.000000e+00 -3.719119e-17 -7.071075e-01
    endloop
  endfacet
  facet normal 7.071068e-01 -7.071068e-01 4.163332e-17
    outer loop
      vertex 2.875000e+00 -1.250000e-01 -3.535538e-01
      vertex 3.000000e+00 -3.719119e-17 -7.071075e-01
      vertex 3.000000e+00 6.106652e-18 -5.551115e-17
    endloop
  endfacet
  facet normal 3.700740e-17 -9.428091e-01 3.333330e-01
    outer loop
      vertex 2.875000e+00 -1.250000e-01 -3.535538e-01
      vertex 3.000000e+00 6.106652e-18 -5.551115e-17
      vertex 2.500000e+00 0.000000e+00 0.000000e+00
    endloop
  endfacet
  facet normal -5.000003e-01 5.000003e-01 7.071064e-01
    outer loop
      vertex 4.000000e+00 1.000000e+00 1.060661e+00
      vertex 3.000000e+00 5.000000e-01 7.071075e-01
      vertex 3.500000e+00 8.659569e-17 1.414215e+00
    endloop
  endfacet
  facet normal 0.000000e+00 3.333336e-01 9.428089e-01
    outer loop
      vertex 4.000000e+00 1.000000e+00 1.060661e+00
      vertex 3.500000e+00 8.659569e-17 1.414215e+00
      vertex 4.500000e+00 8.659569e-17 1.414215e+00
    endloop
  endfacet
  facet normal 5.000003e-01 5.000003e-01 7.071064e-01
    outer loop
      vertex 4.000000e+00 1.000000e+00 1.060661e+00
      vertex 4.500000e+00 8.659569e-17 1.414215e+00
      vertex 5.000000e+00 5.000000e-01 7.071075e-01
    endloop
  endfacet
  facet normal 3.333336e-01 0.000000e+00 9.428089e-01
    outer loop
      vertex 4.000000e+00 1.000000e+00 1.060661e+00
      vertex 5.000000e+00 5.000000e-01 7.071075e-01
      vertex 5.000000e+00 1.500000e+00 7.071075e-01
    endloop
  endfacet
  facet normal 5.000003e-01 -5.000003e-01 7.071064e-01
    outer loop
      vertex 4.000000e+00 1.000000e+00 1.060661e+00
      vertex 5.000000e+00 1.500000e+00 7.071075e-01
      vertex 4.500000e+00 2.000000e+00 1.414215e+00
    endloop
  endfacet
  facet normal 0.000000e+00 -3.333336e-01 9.428089e-01
    outer loop
      vertex 4.000000e+00 1.000000e+00 1.060661e+00
      vertex 4.500000e+00 2.000000e+00 1.414215e+00
      vertex 3.500000e+00 2.000000e+00 1.414215e+00
    endloop
  endfacet
  facet normal -5.000003e-01 -5.000003e-01 7.071064e-01
    outer loop
      vertex 4.000000e+00 1.000000e+00 1.060661e+00
      vertex 3.500000e+00 2.000000e+00 1.414215e+00
      vertex 3.000000e+00 1.500000e+00 7.071075e-01
    endloop
  endfacet
  facet normal -3.333336e-01 0.000000e+00 9.428089e-01
    outer loop
      vertex 4.000000e+00 1.000000e+00 1.060661e+00
      vertex 3.000000e+00 1.500000e+00 7.071075e-01
      vertex 3.000000e+00 5.000000e-01 7.071075e-01
    endloop
  endfacet
  facet normal 5.000003e-01 5.000003e-01 7.071064e-01
    outer loop
      vertex 4.000000e+00 -1.000000e+00 1.767769e+00
      vertex 3.500000e+00 8.659569e-17 1.414215e+00
      vertex 3.000000e+00 -5.000000e-01 2.121322e+00
    endloop
  endfacet
  facet normal 3.333336e-01 0.000000e+00 9.428089e-01
    outer loop
      vertex 4.000000e+00 -1.000000e+00 1.767769e+00
      vertex 3.000000e+00 -5.000000e-01 2.121322e+00
      vertex 3.000000e+00 -1.500000e+00 2.121322e+00
    endloop
  endfacet
  facet normal 5.000003e-01 -5.000003e-01 7.071064e-01
    outer loop
      vertex 4.000000e+00 -1.000000e+00 1.767769e+00
      vertex 3.000000e+00 -1.500000e+00 2.121322e+00
      vertex 3.500000e+00 -2.000000e+00 1.414215e+00
    endloop
  endfacet
  facet normal 0.000000e+00 -3.333336e-01 9.428089e-01
    outer loop
      vertex 4.000000e+00 -1.000000e+00 1.767769e+00
      vertex 3.500000e+00 -2.000000e+00 1.414215e+00
      vertex 4.500000e+00 -2.000000e+00 1.414215e+00
    endloop
  endfacet
  facet normal -5.000003e-01 -5.000003e-01 7.071064e-01
    outer loop
      vertex 4.000000e+00 -1.000000e+00 1.767769e+00
      vertex 4.500000e+00 -2.000000e+00 1.414215e+00
      vertex 5.000000e+00 -1.500000e+00 2.121322e+00
    endloop
  endfacet
  facet normal -3.333336e-01 0.000000e+00 9.428089e-01
    outer loop
      vertex 4.000000e+00 -1.000000e+00 1.767769e+00
      vertex 5.000000e+00 -1.500000e+00 2.121322e+00
      vertex 5.000000e+00 -5.000000e-01 2.121322e+00
    endloop
  endfacet
  facet normal -5.000003e-01 5.000003e-01 7.071064e-01
    outer loop
      vertex 4.000000e+00 -1.000000e+00 1.767769e+00
      vertex 5.000000e+00 -5.000000e-01 2.121322e+00
      vertex 4.500000e+00 8.659569e-17 1.414215e+00
    endloop
  endfacet
  facet normal 0.000000e+00 3.333336e-01 9.428089e-01
    outer loop
      vertex 4.000000e+00 -1.000000e+00 1.767769e+00
      vertex 4.500000e+00 8.659569e-17 1.414215e+00
      vertex 3.500000e+00 8.659569e-17 1.414215e+00
    endloop
  endfacet
  facet normal 5.000003e-01 5.000003e-01 7.071064e-01
    outer loop
      vertex 3.125000e+00 3.875000e+00 1.767769e+00
      vertex 3.000000e+00 3.500000e+00 2.121322e+00
      vertex 3.500000e+00 4.000000e+00 1.414215e+00
    endloop
  endfacet
  facet normal 0.000000e+00 9.428091e-01 3.333330e-01
    outer loop
      vertex 3.125000e+00 3.875000e+00 1.767769e+00
      vertex 3.500000e+00 4.000000e+00 1.414215e+00
      vertex 3.000000e+00 4.000000e+00 1.414215e+00
    endloop
  endfacet
  facet normal 7.071068e-01 7.071068e-01 0.000000e+00
    outer loop
      vertex 3.125000e+00 3.875000e+00 1.767769e+00
      vertex 3.000000e+00 4.000000e+00 1.414215e+00
      vertex 3.000000e+00 4.000000e+00 2.121322e+00
    endloop
  endfacet
  facet normal 9.428091e-01 0.000000e+00 3.333330e-01
    outer loop
      vertex 3.125000e+00 3.875000e+00 1.767769e+00
      vertex 3.000000e+00 4.000000e+00 2.121322e+00
      vertex 3.000000e+00 3.500000e+00 2.121322e+00
    endloop
  endfacet
  facet normal -5.000003e-01 5.000003e-01 7.071064e-01
    outer loop
      vertex 3.125000e+00 4.125000e+00 1.060661e+00
      vertex 3.500000e+00 4.000000e+00 1.414215e+00
      vertex 3.000000e+00 4.500000e+00 7.071075e-01
    endloop
  endfacet
  facet normal -9.428091e-01 8.511702e-16 3.333330e-01
    outer loop
      vertex 3.125000e+00 4.125000e+00 1.060661e+00
      vertex 3.000000e+00 4.500000e+00 7.071075e-01
      vertex 3.000000e+00 4.000000e+00 7.071075e-01
    endloop
  endfacet
  facet normal -7.071068e-01 7.071068e-01 0.000000e+00
    outer loop
      vertex 3.125000e+00 4.125000e+00 1.060661e+00
      vertex 3.000000e+00 4.000000e+00 7.071075e-01
      vertex 3.000000e+00 4.000000e+00 1.414215e+00
    endloop
  endfacet
  facet normal 0.000000e+00 9.428091e-01 3.333330e-01
    outer loop
      vertex 3.125000e+00 4.125000e+00 1.060661e+00
      vertex 3.000000e+00 4.000000e+00 1.414215e+00
      vertex 3.500000e+00 4.000000e+00 1.414215e+00
    endloop
  endfacet
  facet normal -5.000003e-01 -5.000003e-01 7.071064e-01
    outer loop
      vertex 2.875000e+00 4.125000e+00 3.535537e-01
      vertex 3.000000e+00 4.500000e+00 7.071075e-01
      vertex 2.500000e+00 4.000000e+00 0.000000e+00
    endloop
  endfacet
  facet normal 0.000000e+00 -9.428091e-01 3.333330e-01
    outer loop
      vertex 2.875000e+00 4.125000e+00 3.535537e-01
      vertex 2.500000e+00 4.000000e+00 0.000000e+00
      vertex 3.000000e+00 4.000000e+00 0.000000e+00
    endloop
  endfacet
  facet normal -7.071068e-01 -7.071068e-01 0.000000e+00
    outer loop
      vertex 2.875000e+00 4.125000e+00 3.535537e-01
      vertex 3.000000e+00 4.000000e+00 0.000000e+00
      vertex 3.000000e+00 4.000000e+00 7.071075e-01
    endloop
  endfacet
  facet normal -9.428091e-01 8.511702e-16 3.333330e-01
    outer loop
      vertex 2.875000e+00 4.125000e+00 3.535537e-01
      vertex 3.000000e+00 4.000000e+00 7.071075e-01
      vertex 3.000000e+00 4.500000e+00 7.071075e-01
    endloop
  endfacet
  facet normal 5.000003e-01 -5.000003e-01 7.071064e-01
    outer loop
      vertex 8.750000e-01 1.875000e+00 1.060661e+00
      vertex 5.000000e-01 2.000000e+00 1.414215e+00
      vertex 1.000000e+00 1.500000e+00 7.071075e-01
    endloop
  endfacet
  facet normal 9.428091e-01 -4.070814e-16 3.333330e-01
    outer loop
      vertex 8.750000e-01 1.875000e+00 1.060661e+00
      vertex 1.000000e+00 1.500000e+00 7.071075e-01
      vertex 1.000000e+00 2.000000e+00 7.071075e-01
    endloop
  endfacet
  facet normal 7.071068e-01 -7.071068e-01 0.000000e+00
    outer loop
      vertex 8.750000e-01 1.875000e+00 1.060661e+00
      vertex 1.000000e+00 2.000000e+00 7.071075e-01
      vertex 1.000000e+00 2.000000e+00 1.414215e+00
    endloop
  endfacet
  facet normal 0.000000e+00 -9.428091e-01 3.333330e-01
    outer loop
      vertex 8.750000e-01 1.875000e+00 1.060661e+00
      vertex 1.000000e+00 2.000000e+00 1.414215e+00
      vertex 5.000000e-01 2.000000e+00 1.414215e+00
    endloop
  endfacet
  facet normal 5.000003e-01 5.000003e-01 7.071064e-01
    outer loop
      vertex 1.125000e+00 1.875000e+00 3.535537e-01
      vertex 1.000000e+00 1.500000e+00 7.071075e-01
      vertex 1.500000e+00 2.000000e+00 0.000000e+00
    endloop
  endfacet
  facet normal 3.700740e-17 9.428091e-01 3.333330e-01
    outer loop
      vertex 1.125000e+00 1.875000e+00 3.535537e-01
      vertex 1.500000e+00 2.000000e+00 0.000000e+00
      vertex 1.000000e+00 2.000000e+00 5.551115e-17
    endloop
  endfacet
  facet normal 7.071068e-01 7.071068e-01 0.000000e+00
    outer loop
      vertex 1.125000e+00 1.875000e+00 3.535537e-01
      vertex 1.000000e+00 2.000000e+00 5.551115e-17
      vertex 1.000000e+00 2.000000e+00 7.071075e-01
    endloop
  endfacet
  facet normal 9.428091e-01 -4.070814e-16 3.333330e-01
    outer loop
      vertex 1.125000e+00 1.875000e+00 3.535537e-01
      vertex 1.000000e+00 2.000000e+00 7.071075e-01
      vertex 1.000000e+00 1.500000e+00 7.071075e-01
    endloop
  endfacet
  facet normal -5.000003e-01 5.000003e-01 7.071064e-01
    outer loop
      vertex 1.125000e+00 2.125000e+00 -3.535538e-01
      vertex 1.500000e+00 2.000000e+00 0.000000e+00
      vertex 1.000000e+00 2.500000e+00 -7.071075e-01
    endloop
  endfacet
  facet normal -9.428091e-01 0.000000e+00 3.333330e-01
    outer loop
      vertex 1.125000e+00 2.125000e+00 -3.535538e-01
      vertex 1.000000e+00 2.500000e+00 -7.071075e-01
      vertex 1.000000e+00 2.000000e+00 -7.071075e-01
    endloop
  endfacet
  facet normal -7.071068e-01 7.071068e-01 0.000000e+00
    outer loop
      vertex 1.125000e+00 2.125000e+00 -3.535538e-01
      vertex 1.000000e+00 2.000000e+00 -7.071075e-01
      vertex 1.000000e+00 2.000000e+00 5.551115e-17
    endloop
  endfacet
  facet normal 3.700740e-17 9.428091e-01 3.333330e-01
    outer loop
      vertex 1.125000e+00 2.125000e+00 -3.535538e-01
      vertex 1.000000e+00 2.000000e+00 5.551115e-17
      vertex 1.500000e+00 2.000000e+00 0.000000e+00
    endloop
  endfacet
  facet normal -5.000003e-01 -5.000003e-01 7.071064e-01
    outer loop
      vertex 8.750000e-01 2.125000e+00 1.767769e+00
      vertex 1.000000e+00 2.500000e+00 2.121322e+00
      vertex 5.000000e-01 2.000000e+00 1.414215e+00
    endloop
  endfacet
  facet normal 0.000000e+00 -9.428091e-01 3.333330e-01
    outer loop
      vertex 8.750000e-01 2.125000e+00 1.767769e+00
      vertex 5.000000e-01 2.000000e+00 1.414215e+00
      vertex 1.000000e+00 2.000000e+00 1.414215e+00
    endloop
  endfacet
  facet normal -7.071068e-01 -7.071068e-01 0.000000e+00
    outer loop
      vertex 8.750000e-01 2.125000e+00 1.767769e+00
      vertex 1.000000e+00 2.000000e+00 1.414215e+00
      vertex 1.000000e+00 2.000000e+00 2.121322e+00
    endloop
  endfacet
  facet normal -9.428091e-01 4.070814e-16 3.333330e-01
    outer loop
      vertex 8.750000e-01 2.125000e+00 1.767769e+00
      vertex 1.000000e+00 2.000000e+00 2.121322e+00
      vertex 1.000000e+00 2.500000e+00 2.121322e+00
    endloop
  endfacet
  facet normal 5.000003e-01 -5.000003e-01 7.071064e-01
    outer loop
      vertex 8.750000e-01 1.875000e+00 1.060661e+00
      vertex 5.000000e-01 2.000000e+00 1.414215e+00
      vertex 1.000000e+00 1.500000e+00 7.071075e-01
    endloop
  endfacet
  facet normal 9.428091e-01 -4.070814e-16 3.333330e-01
    outer loop
      vertex 8.750000e-01 1.875000e+00 1.060661e+00
      vertex 1.000000e+00 1.500000e+00 7.071075e-01
      vertex 1.000000e+00 2.000000e+00 7.071075e-01
    endloop
  endfacet
  facet normal 7.071068e-01 -7.071068e-01 0.000000e+00
    outer loop
      vertex 8.750000e-01 1.875000e+00 1.060661e+00
      vertex 1.000000e+00 2.000000e+00 7.071075e-01
      vertex 1.000000e+00 2.000000e+00 1.414215e+00
    endloop
  endfacet
  facet normal 0.000000e+00 -9.428091e-01 3.333330e-01
    outer loop
      vertex 8.750000e-01 1.875000e+00 1.060661e+00
      vertex 1.000000e+00 2.000000e+00 1.414215e+00
      vertex 5.000000e-01 2.000000e+00 1.414215e+00
    endloop
  endfacet
  facet normal 5.000003e-01 5.000003e-01 7.071064e-01
    outer loop
      vertex 1.125000e+00 1.875000e+00 3.535537e-01
      vertex 1.000000e+00 1.500000e+00 7.071075e-01
      vertex 1.500000e+00 2.000000e+00 0.000000e+00
    endloop
  endfacet
  facet normal 0.000000e+00 9.428091e-01 3.333330e-01
    outer loop
      vertex 1.125000e+00 1.875000e+00 3.535537e-01
      vertex 1.500000e+00 2.000000e+00 0.000000e+00
      vertex 1.000000e+00 2.000000e+00 0.000000e+00
    endloop
  endfacet
  facet normal 7.071068e-01 7.071068e-01 0.000000e+00
    outer loop
      vertex 1.125000e+00 1.875000e+00 3.535537e-01
      vertex 1.000000e+00 2.000000e+00 0.000000e+00
      vertex 1.000000e+00 2.000000e+00 7.071075e-01
    endloop
  endfacet
  facet normal 9.428091e-01 -4.070814e-16 3.333330e-01
    outer loop
      vertex 1.125000e+00 1.875000e+00 3.535537e-01
      vertex 1.000000e+00 2.000000e+00 7.071075e-01
      vertex 1.000000e+00 1.500000e+00 7.071075e-01
    endloop
  endfacet
  facet normal 5.000003e-01 -5.000003e-01 7.071064e-01
    outer loop
      vertex 4.000000e+00 3.000000e+00 1.767769e+00
      vertex 3.000000e+00 2.500000e+00 2.121322e+00
      vertex 3.500000e+00 2.000000e+00 1.414215e+00
    endloop
  endfacet
  facet normal 0.000000e+00 -3.333336e-01 9.428089e-01
    outer loop
      vertex 4.000000e+00 3.000000e+00 1.767769e+00
      vertex 3.500000e+00 2.000000e+00 1.414215e+00
      vertex 4.500000e+00 2.000000e+00 1.414215e+00
    endloop
  endfacet
  facet normal -5.000003e-01 -5.000003e-01 7.071064e-01
    outer loop
      vertex 4.000000e+00 3.000000e+00 1.767769e+00
      vertex 4.500000e+00 2.000000e+00 1.414215e+00
      vertex 5.000000e+00 2.500000e+00 2.121322e+00
    endloop
  endfacet
  facet normal -3.333336e-01 0.000000e+00 9.428089e-01
    outer loop
      vertex 4.000000e+00 3.000000e+00 1.767769e+00
      vertex 5.000000e+00 2.500000e+00 2.121322e+00
      vertex 5.000000e+00 3.500000e+00 2.121322e+00
    endloop
  endfacet
  facet normal -5.000003e-01 5.000003e-01 7.071064e-01
    outer loop
      vertex 4.000000e+00 3.000000e+00 1.767769e+00
      vertex 5.000000e+00 3.500000e+00 2.121322e+00
      vertex 4.500000e+00 4.000000e+00 1.414215e+00
    endloop
  endfacet
  facet normal 0.000000e+00 3.333336e-01 9.428089e-01
    outer loop
      vertex 4.000000e+00 3.000000e+00 1.767769e+00
      vertex 4.500000e+00 4.000000e+00 1.414215e+00
      vertex 3.500000e+00 4.000000e+00 1.414215e+00
    endloop
  endfacet
  facet normal 5.000003e-01 5.000003e-01 7.071064e-01
    outer loop
      vertex 4.000000e+00 3.000000e+00 1.767769e+00
      vertex 3.500000e+00 4.000000e+00 1.414215e+00
      vertex 3.000000e+00 3.500000e+00 2.121322e+00
    endloop
  endfacet
  facet normal 3.333336e-01 0.000000e+00 9.428089e-01
    outer loop
      vertex 4.000000e+00 3.000000e+00 1.767769e+00
      vertex 3.000000e+00 3.500000e+00 2.121322e+00
      vertex 3.000000e+00 2.500000e+00 2.121322e+00
    endloop
  endfacet
  facet normal 0.000000e+00 3.333336e-01 9.428089e-01
    outer loop
      vertex 5.551115e-17 -1.000000e+00 1.767769e+00
      vertex 5.000000e-01 8.659569e-17 1.414215e+00
      vertex -5.000000e-01 8.659569e-17 1.414215e+00
    endloop
  endfacet
  facet normal 5.000003e-01 5.000003e-01 7.071064e-01
    outer loop
      vertex 5.551115e-17 -1.000000e+00 1.767769e+00
      vertex -5.000000e-01 8.659569e-17 1.414215e+00
      vertex -1.000000e+00 -5.000000e-01 2.121322e+00
    endloop
  endfacet
  facet normal 3.333336e-01 0.000000e+00 9.428089e-01
    outer loop
      vertex 5.551115e-17 -1.000000e+00 1.767769e+00
      vertex -1.000000e+00 -5.000000e-01 2.121322e+00
      vertex -1.000000e+00 -1.500000e+00 2.121322e+00
    endloop
  endfacet
  facet normal 5.000003e-01 -5.000003e-01 7.071064e-01
    outer loop
      vertex 5.551115e-17 -1.000000e+00 1.767769e+00
      vertex -1.000000e+00 -1.500000e+00 2.121322e+00
      vertex -5.000000e-01 -2.000000e+00 1.414215e+00
    endloop
  endfacet
  facet normal 0.000000e+00 -3.333336e-01 9.428089e-01
    outer loop
      vertex 5.551115e-17 -1.000000e+00 1.767769e+00
      vertex -5.000000e-01 -2.000000e+00 1.414215e+00
      vertex 5.000000e-01 -2.000000e+00 1.414215e+00
    endloop
  endfacet
  facet normal -5.000003e-01 -5.000003e-01 7.071064e-01
    outer loop
      vertex 5.551115e-17 -1.000000e+00 1.767769e+00
      vertex 5.000000e-01 -2.000000e+00 1.414215e+00
      vertex 1.000000e+00 -1.500000e+00 2.121322e+00
    endloop
  endfacet
  facet normal -3.333336e-01 0.000000e+00 9.428089e-01
    outer loop
      vertex 5.551115e-17 -1.000000e+00 1.767769e+00
      vertex 1.000000e+00 -1.500000e+00 2.121322e+00
      vertex 1.000000e+00 -5.000000e-01 2.121322e+00
    endloop
  endfacet
  facet normal -5.000003e-01 5.000003e-01 7.071064e-01
    outer loop
      vertex 5.551115e-17 -1.000000e+00 1.767769e+00
      vertex 1.000000e+00 -5.000000e-01 2.121322e+00
      vertex 5.000000e-01 8.659569e-17 1.414215e+00
    endloop
  endfacet
endsolid surface_model
