solid surface_model
  facet normal -4.082483e-01 -4.082483e-01 -8.164966e-01
    outer loop
      vertex 4.330125e-01 1.443375e-01 -2.886750e-01
      vertex 0.000000e+00 0.000000e+00 0.000000e+00
      vertex 5.773500e-01 5.773500e-01 -5.773500e-01
    endloop
  endfacet
  facet normal -8.944272e-01 1.489522e-16 -4.472136e-01
    outer loop
      vertex 4.330125e-01 1.443375e-01 -2.886750e-01
      vertex 5.773500e-01 5.773500e-01 -5.773500e-01
      vertex 5.773500e-01 -1.007933e-17 -5.773500e-01
    endloop
  endfacet
  facet normal -7.071068e-01 -7.071068e-01 5.887852e-17
    outer loop
      vertex 4.330125e-01 1.443375e-01 -2.886750e-01
      vertex 5.773500e-01 -1.007933e-17 -5.773500e-01
      vertex 5.773500e-01 2.527316e-17 0.000000e+00
    endloop
  endfacet
  facet normal 3.723805e-17 -8.944272e-01 -4.472136e-01
    outer loop
      vertex 4.330125e-01 1.443375e-01 -2.886750e-01
      vertex 5.773500e-01 2.527316e-17 0.000000e+00
      vertex 0.000000e+00 0.000000e+00 0.000000e+00
    endloop
  endfacet
  facet normal -4.082483e-01 4.082483e-01 -8.164966e-01
    outer loop
      vertex 7.216875e-01 1.443375e-01 -8.660250e-01
      vertex 5.773500e-01 5.773500e-01 -5.773500e-01
      vertex 1.154700e+00 -7.070498e-17 -1.154700e+00
    endloop
  endfacet
  facet normal 7.447609e-17 8.944272e-01 -4.472136e-01
    outer loop
      vertex 7.216875e-01 1.443375e-01 -8.660250e-01
      vertex 1.154700e+00 -7.070498e-17 -1.154700e+00
      vertex 5.773500e-01 -4.543182e-17 -1.154700e+00
    endloop
  endfacet
  facet normal -7.071068e-01 7.071068e-01 -5.887852e-17
    outer loop
      vertex 7.216875e-01 1.443375e-01 -8.660250e-01
      vertex 5.773500e-01 -4.543182e-17 -1.154700e+00
      vertex 5.773500e-01 -1.007933e-17 -5.773500e-01
    endloop
  endfacet
  facet normal -8.944272e-01 1.489522e-16 -4.472136e-01
    outer loop
      vertex 7.216875e-01 1.443375e-01 -8.660250e-01
      vertex 5.773500e-01 -1.007933e-17 -5.773500e-01
      vertex 5.773500e-01 5.773500e-01 -5.773500e-01
    endloop
  endfacet
  facet normal 4.082483e-01 4.082483e-01 -8.164966e-01
    outer loop
      vertex 7.216875e-01 -1.443375e-01 -1.443375e+00
      vertex 1.154700e+00 -7.070498e-17 -1.154700e+00
      vertex 5.773500e-01 -5.773500e-01 -1.732050e+00
    endloop
  endfacet
  facet normal 8.944272e-01 -1.861902e-16 -4.472136e-01
    outer loop
      vertex 7.216875e-01 -1.443375e-01 -1.443375e+00
      vertex 5.773500e-01 -5.773500e-01 -1.732050e+00
      vertex 5.773500e-01 -8.078431e-17 -1.732050e+00
    endloop
  endfacet
  facet normal 7.071068e-01 7.071068e-01 -2.943926e-17
    outer loop
      vertex 7.216875e-01 -1.443375e-01 -1.443375e+00
      vertex 5.773500e-01 -8.078431e-17 -1.732050e+00
      vertex 5.773500e-01 -4.543182e-17 -1.154700e+00
    endloop
  endfacet
  facet normal 3.723805e-17 8.944272e-01 -4.472136e-01
    outer loop
      vertex 7.216875e-01 -1.443375e-01 -1.443375e+00
      vertex 5.773500e-01 -4.543182e-17 -1.154700e+00
      vertex 1.154700e+00 -7.070498e-17 -1.154700e+00
    endloop
  endfacet
  facet normal -4.082483e-01 -4.082483e-01 -8.164966e-01
    outer loop
      vertex 1.085399e-16 5.773500e-01 2.020725e+00
      vertex 5.773500e-01 5.773500e-01 1.732050e+00
      vertex 1.414100e-16 1.414100e-16 2.309400e+00
    endloop
  endfacet
  facet normal 4.082483e-01 -4.082483e-01 -8.164966e-01
    outer loop
      vertex 1.085399e-16 5.773500e-01 2.020725e+00
      vertex 1.414100e-16 1.414100e-16 2.309400e+00
      vertex -5.773500e-01 5.773500e-01 1.732050e+00
    endloop
  endfacet
  facet normal 4.082483e-01 4.082483e-01 -8.164966e-01
    outer loop
      vertex 1.085399e-16 5.773500e-01 2.020725e+00
      vertex -5.773500e-01 5.773500e-01 1.732050e+00
      vertex 2.121149e-16 1.154700e+00 2.309400e+00
    endloop
  endfacet
  facet normal -4.082483e-01 4.082483e-01 -8.164966e-01
    outer loop
      vertex 1.085399e-16 5.773500e-01 2.020725e+00
      vertex 2.121149e-16 1.154700e+00 2.309400e+00
      vertex 5.773500e-01 5.773500e-01 1.732050e+00
    endloop
  endfacet
  facet normal 4.082483e-01 -4.082483e-01 -8.164966e-01
    outer loop
      vertex -2.775558e-17 -5.773500e-01 2.886750e-01
      vertex 0.000000e+00 0.000000e+00 0.000000e+00
      vertex 5.773500e-01 -5.773500e-01 5.773500e-01
    endloop
  endfacet
  facet normal 4.082483e-01 4.082483e-01 -8.164966e-01
    outer loop
      vertex -2.775558e-17 -5.773500e-01 2.886750e-01
      vertex 5.773500e-01 -5.773500e-01 5.773500e-01
      vertex -7.070498e-17 -1.154700e+00 0.000000e+00
    endloop
  endfacet
  facet normal -4.082483e-01 4.082483e-01 -8.164966e-01
    outer loop
      vertex -2.775558e-17 -5.773500e-01 2.886750e-01
      vertex -7.070498e-17 -1.154700e+00 0.000000e+00
      vertex -5.773500e-01 -5.773500e-01 5.773500e-01
    endloop
  endfacet
  facet normal -4.082483e-01 -4.082483e-01 -8.164966e-01
    outer loop
      vertex -2.775558e-17 -5.773500e-01 2.886750e-01
      vertex -5.773500e-01 -5.773500e-01 5.773500e-01
      vertex 0.000000e+00 0.000000e+00 0.000000e+00
    endloop
  endfacet
  facet normal 4.082483e-01 -4.082483e-01 -8.164966e-01
    outer loop
      vertex 4.330125e-01 2.165063e+00 2.886750e-01
      vertex 5.773500e-01 1.732050e+00 5.773500e-01
      vertex 1.414100e-16 2.309400e+00 0.000000e+00
    endloop
  endfacet
  facet normal -3.723805e-17 -8.944272e-01 -4.472136e-01
    outer loop
      vertex 4.330125e-01 2.165063e+00 2.886750e-01
      vertex 1.414100e-16 2.309400e+00 0.000000e+00
      vertex 5.773500e-01 2.309400e+00 -5.551115e-17
    endloop
  endfacet
  facet normal 7.071068e-01 -7.071068e-01 0.000000e+00
    outer loop
      vertex 4.330125e-01 2.165063e+00 2.886750e-01
      vertex 5.773500e-01 2.309400e+00 -5.551115e-17
      vertex 5.773500e-01 2.309400e+00 5.773500e-01
    endloop
  endfacet
  facet normal 8.944272e-01 0.000000e+00 -4.472136e-01
    outer loop
      vertex 4.330125e-01 2.165063e+00 2.886750e-01
      vertex 5.773500e-01 2.309400e+00 5.773500e-01
      vertex 5.773500e-01 1.732050e+00 5.773500e-01
    endloop
  endfacet
  facet normal -4.082483e-01 -4.082483e-01 -8.164966e-01
    outer loop
      vertex 4.330125e-01 2.453737e+00 -2.886750e-01
      vertex 1.414100e-16 2.309400e+00 0.000000e+00
      vertex 5.773500e-01 2.886750e+00 -5.773500e-01
    endloop
  endfacet
  facet normal -8.944272e-01 0.000000e+00 -4.472136e-01
    outer loop
      vertex 4.330125e-01 2.453737e+00 -2.886750e-01
      vertex 5.773500e-01 2.886750e+00 -5.773500e-01
      vertex 5.773500e-01 2.309400e+00 -5.773500e-01
    endloop
  endfacet
  facet normal -7.071068e-01 -7.071068e-01 0.000000e+00
    outer loop
      vertex 4.330125e-01 2.453737e+00 -2.886750e-01
      vertex 5.773500e-01 2.309400e+00 -5.773500e-01
      vertex 5.773500e-01 2.309400e+00 -5.551115e-17
    endloop
  endfacet
  facet normal -3.723805e-17 -8.944272e-01 -4.472136e-01
    outer loop
      vertex 4.330125e-01 2.453737e+00 -2.886750e-01
      vertex 5.773500e-01 2.309400e+00 -5.551115e-17
      vertex 1.414100e-16 2.309400e+00 0.000000e+00
    endloop
  endfacet
  facet normal -4.082483e-01 4.082483e-01 -8.164966e-01
    outer loop
      vertex 7.216875e-01 2.453737e+00 -8.660250e-01
      vertex 5.773500e-01 2.886750e+00 -5.773500e-01
      vertex 1.154700e+00 2.309400e+00 -1.154700e+00
    endloop
  endfacet
  facet normal 0.000000e+00 8.944272e-01 -4.472136e-01
    outer loop
      vertex 7.216875e-01 2.453737e+00 -8.660250e-01
      vertex 1.154700e+00 2.309400e+00 -1.154700e+00
      vertex 5.773500e-01 2.309400e+00 -1.154700e+00
    endloop
  endfacet
  facet normal -7.071068e-01 7.071068e-01 0.000000e+00
    outer loop
      vertex 7.216875e-01 2.453737e+00 -8.660250e-01
      vertex 5.773500e-01 2.309400e+00 -1.154700e+00
      vertex 5.773500e-01 2.309400e+00 -5.773500e-01
    endloop
  endfacet
  facet normal -8.944272e-01 0.000000e+00 -4.472136e-01
    outer loop
      vertex 7.216875e-01 2.453737e+00 -8.660250e-01
      vertex 5.773500e-01 2.309400e+00 -5.773500e-01
      vertex 5.773500e-01 2.886750e+00 -5.773500e-01
    endloop
  endfacet
  facet normal 4.082483e-01 -4.082483e-01 -8.164966e-01
    outer loop
      vertex 2.775558e-17 5.773500e-01 -2.886750e-01
      vertex 0.000000e+00 0.000000e+00 0.000000e+00
      vertex -5.773500e-01 5.773500e-01 -5.773500e-01
    endloop
  endfacet
  facet normal 4.082483e-01 4.082483e-01 -8.164966e-01
    outer loop
      vertex 2.775558e-17 5.773500e-01 -2.886750e-01
      vertex -5.773500e-01 5.773500e-01 -5.773500e-01
      vertex 7.070498e-17 1.154700e+00 0.000000e+00
    endloop
  endfacet
  facet normal -4.082483e-01 4.082483e-01 -8.164966e-01
    outer loop
      vertex 2.775558e-17 5.773500e-01 -2.886750e-01
      vertex 7.070498e-17 1.154700e+00 0.000000e+00
      vertex 5.773500e-01 5.773500e-01 -5.773500e-01
    endloop
  endfacet
  facet normal -4.082483e-01 -4.082483e-01 -8.164966e-01
    outer loop
      vertex 2.775558e-17 5.773500e-01 -2.886750e-01
      vertex 5.773500e-01 5.773500e-01 -5.773500e-01
      vertex 0.000000e+00 0.000000e+00 0.000000e+00
    endloop
  endfacet
  facet normal 4.082483e-01 -4.082483e-01 -8.164966e-01
    outer loop
      vertex 1.876388e+00 1.443375e-01 2.020725e+00
      vertex 1.732050e+00 5.773500e-01 1.732050e+00
      vertex 2.309400e+00 1.414100e-16 2.309400e+00
    endloop
  endfacet
  facet normal 7.447609e-17 -8.944272e-01 -4.472136e-01
    outer loop
      vertex 1.876388e+00 1.443375e-01 2.020725e+00
      vertex 2.309400e+00 1.414100e-16 2.309400e+00
      vertex 1.732050e+00 9.086364e-17 2.309400e+00
    endloop
  endfacet
  facet normal 7.071068e-01 -7.071068e-01 2.943926e-17
    outer loop
      vertex 1.876388e+00 1.443375e-01 2.020725e+00
      vertex 1.732050e+00 9.086364e-17 2.309400e+00
      vertex 1.732050e+00 5.551115e-17 1.732050e+00
    endloop
  endfacet
  facet normal 8.944272e-01 0.000000e+00 -4.472136e-01
    outer loop
      vertex 1.876388e+00 1.443375e-01 2.020725e+00
      vertex 1.732050e+00 5.551115e-17 1.732050e+00
      vertex 1.732050e+00 5.773500e-01 1.732050e+00
    endloop
  endfacet
  facet normal -4.082483e-01 -4.082483e-01 -8.164966e-01
    outer loop
      vertex 1.876388e+00 -1.443375e-01 2.598075e+00
      vertex 2.309400e+00 1.414100e-16 2.309400e+00
      vertex 1.732050e+00 -5.773500e-01 2.886750e+00
    endloop
  endfacet
  facet normal -8.944272e-01 0.000000e+00 -4.472136e-01
    outer loop
      vertex 1.876388e+00 -1.443375e-01 2.598075e+00
      vertex 1.732050e+00 -5.773500e-01 2.886750e+00
      vertex 1.732050e+00 1.262161e-16 2.886750e+00
    endloop
  endfacet
  facet normal -7.071068e-01 -7.071068e-01 8.831778e-17
    outer loop
      vertex 1.876388e+00 -1.443375e-01 2.598075e+00
      vertex 1.732050e+00 1.262161e-16 2.886750e+00
      vertex 1.732050e+00 9.086364e-17 2.309400e+00
    endloop
  endfacet
  facet normal 1.117141e-16 -8.944272e-01 -4.472136e-01
    outer loop
      vertex 1.876388e+00 -1.443375e-01 2.598075e+00
      vertex 1.732050e+00 9.086364e-17 2.309400e+00
      vertex 2.309400e+00 1.414100e-16 2.309400e+00
    endloop
  endfacet
  facet normal -4.082483e-01 4.082483e-01 -8.164966e-01
    outer loop
      vertex 1.587713e+00 -1.443375e-01 3.175425e+00
      vertex 1.732050e+00 -5.773500e-01 2.886750e+00
      vertex 1.154700e+00 2.121149e-16 3.464100e+00
    endloop
  endfacet
  facet normal 7.447609e-17 8.944272e-01 -4.472136e-01
    outer loop
      vertex 1.587713e+00 -1.443375e-01 3.175425e+00
      vertex 1.154700e+00 2.121149e-16 3.464100e+00
      vertex 1.732050e+00 1.615686e-16 3.464100e+00
    endloop
  endfacet
  facet normal -7.071068e-01 7.071068e-01 -5.887852e-17
    outer loop
      vertex 1.587713e+00 -1.443375e-01 3.175425e+00
      vertex 1.732050e+00 1.615686e-16 3.464100e+00
      vertex 1.732050e+00 1.262161e-16 2.886750e+00
    endloop
  endfacet
  facet normal -8.944272e-01 0.000000e+00 -4.472136e-01
    outer loop
      vertex 1.587713e+00 -1.443375e-01 3.175425e+00
      vertex 1.732050e+00 1.262161e-16 2.886750e+00
      vertex 1.732050e+00 -5.773500e-01 2.886750e+00
    endloop
  endfacet
  facet normal -4.082483e-01 -4.082483e-01 -8.164966e-01
    outer loop
      vertex -4.330125e-01 -1.443375e-01 2.886750e-01
      vertex 0.000000e+00 0.000000e+00 0.000000e+00
      vertex -5.773500e-01 -5.773500e-01 5.773500e-01
    endloop
  endfacet
  facet normal -8.944272e-01 0.000000e+00 -4.472136e-01
    outer loop
      vertex -4.330125e-01 -1.443375e-01 2.886750e-01
      vertex -5.773500e-01 -5.773500e-01 5.773500e-01
      vertex -5.773500e-01 3.783491e-17 5.773500e-01
    endloop
  endfacet
  facet normal -7.071068e-01 -7.071068e-01 2.943926e-17
    outer loop
      vertex -4.330125e-01 -1.443375e-01 2.886750e-01
      vertex -5.773500e-01 3.783491e-17 5.773500e-01
      vertex -5.773500e-01 2.482414e-18 0.000000e+00
    endloop
  endfacet
  facet normal 0.000000e+00 -8.944272e-01 -4.472136e-01
    outer loop
      vertex -4.330125e-01 -1.443375e-01 2.886750e-01
      vertex -5.773500e-01 2.482414e-18 0.000000e+00
      vertex 0.000000e+00 0.000000e+00 0.000000e+00
    endloop
  endfacet
  facet normal -4.082483e-01 4.082483e-01 -8.164966e-01
    outer loop
      vertex -7.216875e-01 -1.443375e-01 8.660250e-01
      vertex -5.773500e-01 -5.773500e-01 5.773500e-01
      vertex -1.154700e+00 7.070498e-17 1.154700e+00
    endloop
  endfacet
  facet normal 0.000000e+00 8.944272e-01 -4.472136e-01
    outer loop
      vertex -7.216875e-01 -1.443375e-01 8.660250e-01
      vertex -1.154700e+00 7.070498e-17 1.154700e+00
      vertex -5.773500e-01 7.318740e-17 1.154700e+00
    endloop
  endfacet
  facet normal -7.071068e-01 7.071068e-01 -5.887852e-17
    outer loop
      vertex -7.216875e-01 -1.443375e-01 8.660250e-01
      vertex -5.773500e-01 7.318740e-17 1.154700e+00
      vertex -5.773500e-01 3.783491e-17 5.773500e-01
    endloop
  endfacet
  facet normal -8.944272e-01 0.000000e+00 -4.472136e-01
    outer loop
      vertex -7.216875e-01 -1.443375e-01 8.660250e-01
      vertex -5.773500e-01 3.783491e-17 5.773500e-01
      vertex -5.773500e-01 -5.773500e-01 5.773500e-01
    endloop
  endfacet
  facet normal 4.082483e-01 4.082483e-01 -8.164966e-01
    outer loop
      vertex -7.216875e-01 1.443375e-01 1.443375e+00
      vertex -1.154700e+00 7.070498e-17 1.154700e+00
      vertex -5.773500e-01 5.773500e-01 1.732050e+00
    endloop
  endfacet
  facet normal 8.944272e-01 0.000000e+00 -4.472136e-01
    outer loop
      vertex -7.216875e-01 1.443375e-01 1.443375e+00
      vertex -5.773500e-01 5.773500e-01 1.732050e+00
      vertex -5.773500e-01 1.085399e-16 1.732050e+00
    endloop
  endfacet
  facet normal 7.071068e-01 7.071068e-01 -2.943926e-17
    outer loop
      vertex -7.216875e-01 1.443375e-01 1.443375e+00
      vertex -5.773500e-01 1.085399e-16 1.732050e+00
      vertex -5.773500e-01 7.318740e-17 1.154700e+00
    endloop
  endfacet
  facet normal 0.000000e+00 8.944272e-01 -4.472136e-01
    outer loop
      vertex -7.216875e-01 1.443375e-01 1.443375e+00
      vertex -5.773500e-01 7.318740e-17 1.154700e+00
      vertex -1.154700e+00 7.070498e-17 1.154700e+00
    endloop
  endfacet
  facet normal -4.082483e-01 -4.082483e-01 -8.164966e-01
    outer loop
      vertex 2.309400e+00 1.732050e+00 2.886750e-01
      vertex 1.732050e+00 1.732050e+00 5.773500e-01
      vertex 2.309400e+00 2.309400e+00 0.000000e+00
    endloop
  endfacet
  facet normal 4.082483e-01 -4.082483e-01 -8.164966e-01
    outer loop
      vertex 2.309400e+00 1.732050e+00 2.886750e-01
      vertex 2.309400e+00 2.309400e+00 0.000000e+00
      vertex 2.886750e+00 1.732050e+00 5.773500e-01
    endloop
  endfacet
  facet normal 4.082483e-01 4.082483e-01 -8.164966e-01
    outer loop
      vertex 2.309400e+00 1.732050e+00 2.886750e-01
      vertex 2.886750e+00 1.732050e+00 5.773500e-01
      vertex 2.309400e+00 1.154700e+00 0.000000e+00
    endloop
  endfacet
  facet normal -4.082483e-01 4.082483e-01 -8.164966e-01
    outer loop
      vertex 2.309400e+00 1.732050e+00 2.886750e-01
      vertex 2.309400e+00 1.154700e+00 0.000000e+00
      vertex 1.732050e+00 1.732050e+00 5.773500e-01
    endloop
  endfacet
  facet normal -4.082483e-01 4.082483e-01 -8.164966e-01
    outer loop
      vertex 4.330125e-01 1.010363e+00 2.020725e+00
      vertex 5.773500e-01 5.773500e-01 1.732050e+00
      vertex 2.121149e-16 1.154700e+00 2.309400e+00
    endloop
  endfacet
  facet normal 0.000000e+00 8.944272e-01 -4.472136e-01
    outer loop
      vertex 4.330125e-01 1.010363e+00 2.020725e+00
      vertex 2.121149e-16 1.154700e+00 2.309400e+00
      vertex 5.773500e-01 1.154700e+00 2.309400e+00
    endloop
  endfacet
  facet normal -7.071068e-01 7.071068e-01 0.000000e+00
    outer loop
      vertex 4.330125e-01 1.010363e+00 2.020725e+00
      vertex 5.773500e-01 1.154700e+00 2.309400e+00
      vertex 5.773500e-01 1.154700e+00 1.732050e+00
    endloop
  endfacet
  facet normal -8.944272e-01 1.861902e-16 -4.472136e-01
    outer loop
      vertex 4.330125e-01 1.010363e+00 2.020725e+00
      vertex 5.773500e-01 1.154700e+00 1.732050e+00
      vertex 5.773500e-01 5.773500e-01 1.732050e+00
    endloop
  endfacet
  facet normal 4.082483e-01 4.082483e-01 -8.164966e-01
    outer loop
      vertex 4.330125e-01 1.299038e+00 2.598075e+00
      vertex 2.121149e-16 1.154700e+00 2.309400e+00
      vertex 5.773500e-01 1.732050e+00 2.886750e+00
    endloop
  endfacet
  facet normal 8.944272e-01 0.000000e+00 -4.472136e-01
    outer loop
      vertex 4.330125e-01 1.299038e+00 2.598075e+00
      vertex 5.773500e-01 1.732050e+00 2.886750e+00
      vertex 5.773500e-01 1.154700e+00 2.886750e+00
    endloop
  endfacet
  facet normal 7.071068e-01 7.071068e-01 0.000000e+00
    outer loop
      vertex 4.330125e-01 1.299038e+00 2.598075e+00
      vertex 5.773500e-01 1.154700e+00 2.886750e+00
      vertex 5.773500e-01 1.154700e+00 2.309400e+00
    endloop
  endfacet
  facet normal 0.000000e+00 8.944272e-01 -4.472136e-01
    outer loop
      vertex 4.330125e-01 1.299038e+00 2.598075e+00
      vertex 5.773500e-01 1.154700e+00 2.309400e+00
      vertex 2.121149e-16 1.154700e+00 2.309400e+00
    endloop
  endfacet
  facet normal 4.082483e-01 -4.082483e-01 -8.164966e-01
    outer loop
      vertex 7.216875e-01 1.299038e+00 3.175425e+00
      vertex 5.773500e-01 1.732050e+00 2.886750e+00
      vertex 1.154700e+00 1.154700e+00 3.464100e+00
    endloop
  endfacet
  facet normal 0.000000e+00 -8.944272e-01 -4.472136e-01
    outer loop
      vertex 7.216875e-01 1.299038e+00 3.175425e+00
      vertex 1.154700e+00 1.154700e+00 3.464100e+00
      vertex 5.773500e-01 1.154700e+00 3.464100e+00
    endloop
  endfacet
  facet normal 7.071068e-01 -7.071068e-01 0.000000e+00
    outer loop
      vertex 7.216875e-01 1.299038e+00 3.175425e+00
      vertex 5.773500e-01 1.154700e+00 3.464100e+00
      vertex 5.773500e-01 1.154700e+00 2.886750e+00
    endloop
  endfacet
  facet normal 8.944272e-01 0.000000e+00 -4.472136e-01
    outer loop
      vertex 7.216875e-01 1.299038e+00 3.175425e+00
      vertex 5.773500e-01 1.154700e+00 2.886750e+00
      vertex 5.773500e-01 1.732050e+00 2.886750e+00
    endloop
  endfacet
  facet normal 4.082483e-01 4.082483e-01 -8.164966e-01
    outer loop
      vertex 4.330125e-01 1.299038e+00 2.886750e-01
      vertex 7.070498e-17 1.154700e+00 0.000000e+00
      vertex 5.773500e-01 1.732050e+00 5.773500e-01
    endloop
  endfacet
  facet normal 8.944272e-01 0.000000e+00 -4.472136e-01
    outer loop
      vertex 4.330125e-01 1.299038e+00 2.886750e-01
      vertex 5.773500e-01 1.732050e+00 5.773500e-01
      vertex 5.773500e-01 1.154700e+00 5.773500e-01
    endloop
  endfacet
  facet normal 7.071068e-01 7.071068e-01 0.000000e+00
    outer loop
      vertex 4.330125e-01 1.299038e+00 2.886750e-01
      vertex 5.773500e-01 1.154700e+00 5.773500e-01
      vertex 5.773500e-01 1.154700e+00 0.000000e+00
    endloop
  endfacet
  facet normal 0.000000e+00 8.944272e-01 -4.472136e-01
    outer loop
      vertex 4.330125e-01 1.299038e+00 2.886750e-01
      vertex 5.773500e-01 1.154700e+00 0.000000e+00
      vertex 7.070498e-17 1.154700e+00 0.000000e+00
    endloop
  endfacet
  facet normal 4.082483e-01 -4.082483e-01 -8.164966e-01
    outer loop
      vertex 7.216875e-01 1.299038e+00 8.660250e-01
      vertex 5.773500e-01 1.732050e+00 5.773500e-01
      vertex 1.154700e+00 1.154700e+00 1.154700e+00
    endloop
  endfacet
  facet normal 0.000000e+00 -8.944272e-01 -4.472136e-01
    outer loop
      vertex 7.216875e-01 1.299038e+00 8.660250e-01
      vertex 1.154700e+00 1.154700e+00 1.154700e+00
      vertex 5.773500e-01 1.154700e+00 1.154700e+00
    endloop
  endfacet
  facet normal 7.071068e-01 -7.071068e-01 0.000000e+00
    outer loop
      vertex 7.216875e-01 1.299038e+00 8.660250e-01
      vertex 5.773500e-01 1.154700e+00 1.154700e+00
      vertex 5.773500e-01 1.154700e+00 5.773500e-01
    endloop
  endfacet
  facet normal 8.944272e-01 0.000000e+00 -4.472136e-01
    outer loop
      vertex 7.216875e-01 1.299038e+00 8.660250e-01
      vertex 5.773500e-01 1.154700e+00 5.773500e-01
      vertex 5.773500e-01 1.732050e+00 5.773500e-01
    endloop
  endfacet
  facet normal -4.082483e-01 -4.082483e-01 -8.164966e-01
    outer loop
      vertex 7.216875e-01 1.010363e+00 1.443375e+00
      vertex 1.154700e+00 1.154700e+00 1.154700e+00
      vertex 5.773500e-01 5.773500e-01 1.732050e+00
    endloop
  endfacet
  facet normal -8.944272e-01 0.000000e+00 -4.472136e-01
    outer loop
      vertex 7.216875e-01 1.010363e+00 1.443375e+00
      vertex 5.773500e-01 5.773500e-01 1.732050e+00
      vertex 5.773500e-01 1.154700e+00 1.732050e+00
    endloop
  endfacet
  facet normal -7.071068e-01 -7.071068e-01 0.000000e+00
    outer loop
      vertex 7.216875e-01 1.010363e+00 1.443375e+00
      vertex 5.773500e-01 1.154700e+00 1.732050e+00
      vertex 5.773500e-01 1.154700e+00 1.154700e+00
    endloop
  endfacet
  facet normal 0.000000e+00 -8.944272e-01 -4.472136e-01
    outer loop
      vertex 7.216875e-01 1.010363e+00 1.443375e+00
      vertex 5.773500e-01 1.154700e+00 1.154700e+00
      vertex 1.154700e+00 1.154700e+00 1.154700e+00
    endloop
  endfacet
  facet normal 4.082483e-01 4.082483e-01 -8.164966e-01
    outer loop
      vertex 9.086364e-17 1.732050e+00 2.886750e-01
      vertex 5.773500e-01 1.732050e+00 5.773500e-01
      vertex 7.070498e-17 1.154700e+00 0.000000e+00
    endloop
  endfacet
  facet normal -4.082483e-01 4.082483e-01 -8.164966e-01
    outer loop
      vertex 9.086364e-17 1.732050e+00 2.886750e-01
      vertex 7.070498e-17 1.154700e+00 0.000000e+00
      vertex -5.773500e-01 1.732050e+00 5.773500e-01
    endloop
  endfacet
  facet normal -4.082483e-01 -4.082483e-01 -8.164966e-01
    outer loop
      vertex 9.086364e-17 1.732050e+00 2.886750e-01
      vertex -5.773500e-01 1.732050e+00 5.773500e-01
      vertex 1.414100e-16 2.309400e+00 0.000000e+00
    endloop
  endfacet
  facet normal 4.082483e-01 -4.082483e-01 -8.164966e-01
    outer loop
      vertex 9.086364e-17 1.732050e+00 2.886750e-01
      vertex 1.414100e-16 2.309400e+00 0.000000e+00
      vertex 5.773500e-01 1.732050e+00 5.773500e-01
    endloop
  endfacet
  facet normal 4.082483e-01 4.082483e-01 -8.164966e-01
    outer loop
      vertex -4.330125e-01 1.010363e+00 -2.886750e-01
      vertex 7.070498e-17 1.154700e+00 0.000000e+00
      vertex -5.773500e-01 5.773500e-01 -5.773500e-01
    endloop
  endfacet
  facet normal 8.944272e-01 0.000000e+00 -4.472136e-01
    outer loop
      vertex -4.330125e-01 1.010363e+00 -2.886750e-01
      vertex -5.773500e-01 5.773500e-01 -5.773500e-01
      vertex -5.773500e-01 1.154700e+00 -5.773500e-01
    endloop
  endfacet
  facet normal 7.071068e-01 7.071068e-01 0.000000e+00
    outer loop
      vertex -4.330125e-01 1.010363e+00 -2.886750e-01
      vertex -5.773500e-01 1.154700e+00 -5.773500e-01
      vertex -5.773500e-01 1.154700e+00 0.000000e+00
    endloop
  endfacet
  facet normal 0.000000e+00 8.944272e-01 -4.472136e-01
    outer loop
      vertex -4.330125e-01 1.010363e+00 -2.886750e-01
      vertex -5.773500e-01 1.154700e+00 0.000000e+00
      vertex 7.070498e-17 1.154700e+00 0.000000e+00
    endloop
  endfacet
  facet normal 4.082483e-01 -4.082483e-01 -8.164966e-01
    outer loop
      vertex -7.216875e-01 1.010363e+00 -8.660250e-01
      vertex -5.773500e-01 5.773500e-01 -5.773500e-01
      vertex -1.154700e+00 1.154700e+00 -1.154700e+00
    endloop
  endfacet
  facet normal 3.351424e-16 -8.944272e-01 -4.472136e-01
    outer loop
      vertex -7.216875e-01 1.010363e+00 -8.660250e-01
      vertex -1.154700e+00 1.154700e+00 -1.154700e+00
      vertex -5.773500e-01 1.154700e+00 -1.154700e+00
    endloop
  endfacet
  facet normal 7.071068e-01 -7.071068e-01 0.000000e+00
    outer loop
      vertex -7.216875e-01 1.010363e+00 -8.660250e-01
      vertex -5.773500e-01 1.154700e+00 -1.154700e+00
      vertex -5.773500e-01 1.154700e+00 -5.773500e-01
    endloop
  endfacet
  facet normal 8.944272e-01 0.000000e+00 -4.472136e-01
    outer loop
      vertex -7.216875e-01 1.010363e+00 -8.660250e-01
      vertex -5.773500e-01 1.154700e+00 -5.773500e-01
      vertex -5.773500e-01 5.773500e-01 -5.773500e-01
    endloop
  endfacet
  facet normal -4.082483e-01 -4.082483e-01 -8.164966e-01
    outer loop
      vertex -7.216875e-01 1.299037e+00 -1.443375e+00
      vertex -1.154700e+00 1.154700e+00 -1.154700e+00
      vertex -5.773500e-01 1.732050e+00 -1.732050e+00
    endloop
  endfacet
  facet normal -8.944272e-01 0.000000e+00 -4.472136e-01
    outer loop
      vertex -7.216875e-01 1.299037e+00 -1.443375e+00
      vertex -5.773500e-01 1.732050e+00 -1.732050e+00
      vertex -5.773500e-01 1.154700e+00 -1.732050e+00
    endloop
  endfacet
  facet normal -7.071068e-01 -7.071068e-01 0.000000e+00
    outer loop
      vertex -7.216875e-01 1.299037e+00 -1.443375e+00
      vertex -5.773500e-01 1.154700e+00 -1.732050e+00
      vertex -5.773500e-01 1.154700e+00 -1.154700e+00
    endloop
  endfacet
  facet normal 3.351424e-16 -8.944272e-01 -4.472136e-01
    outer loop
      vertex -7.216875e-01 1.299037e+00 -1.443375e+00
      vertex -5.773500e-01 1.154700e+00 -1.154700e+00
      vertex -1.154700e+00 1.154700e+00 -1.154700e+00
    endloop
  endfacet
  facet normal 4.082483e-01 4.082483e-01 -8.164966e-01
    outer loop
      vertex 2.309400e+00 5.773500e-01 2.020725e+00
      vertex 1.732050e+00 5.773500e-01 1.732050e+00
      vertex 2.309400e+00 1.154700e+00 2.309400e+00
    endloop
  endfacet
  facet normal -4.082483e-01 4.082483e-01 -8.164966e-01
    outer loop
      vertex 2.309400e+00 5.773500e-01 2.020725e+00
      vertex 2.309400e+00 1.154700e+00 2.309400e+00
      vertex 2.886750e+00 5.773500e-01 1.732050e+00
    endloop
  endfacet
  facet normal -4.082483e-01 -4.082483e-01 -8.164966e-01
    outer loop
      vertex 2.309400e+00 5.773500e-01 2.020725e+00
      vertex 2.886750e+00 5.773500e-01 1.732050e+00
      vertex 2.309400e+00 1.414100e-16 2.309400e+00
    endloop
  endfacet
  facet normal 4.082483e-01 -4.082483e-01 -8.164966e-01
    outer loop
      vertex 2.309400e+00 5.773500e-01 2.020725e+00
      vertex 2.309400e+00 1.414100e-16 2.309400e+00
      vertex 1.732050e+00 5.773500e-01 1.732050e+00
    endloop
  endfacet
  facet normal -4.082483e-01 4.082483e-01 -8.164966e-01
    outer loop
      vertex 1.876388e+00 1.299038e+00 2.886750e-01
      vertex 1.732050e+00 1.732050e+00 5.773500e-01
      vertex 2.309400e+00 1.154700e+00 0.000000e+00
    endloop
  endfacet
  facet normal -3.723805e-17 8.944272e-01 -4.472136e-01
    outer loop
      vertex 1.876388e+00 1.299038e+00 2.886750e-01
      vertex 2.309400e+00 1.154700e+00 0.000000e+00
      vertex 1.732050e+00 1.154700e+00 5.551115e-17
    endloop
  endfacet
  facet normal -7.071068e-01 7.071068e-01 0.000000e+00
    outer loop
      vertex 1.876388e+00 1.299038e+00 2.886750e-01
      vertex 1.732050e+00 1.154700e+00 5.551115e-17
      vertex 1.732050e+00 1.154700e+00 5.773500e-01
    endloop
  endfacet
  facet normal -8.944272e-01 0.000000e+00 -4.472136e-01
    outer loop
      vertex 1.876388e+00 1.299038e+00 2.886750e-01
      vertex 1.732050e+00 1.154700e+00 5.773500e-01
      vertex 1.732050e+00 1.732050e+00 5.773500e-01
    endloop
  endfacet
  facet normal 4.082483e-01 4.082483e-01 -8.164966e-01
    outer loop
      vertex 1.876388e+00 1.010363e+00 -2.886750e-01
      vertex 2.309400e+00 1.154700e+00 0.000000e+00
      vertex 1.732050e+00 5.773500e-01 -5.773500e-01
    endloop
  endfacet
  facet normal 8.944272e-01 -3.351424e-16 -4.472136e-01
    outer loop
      vertex 1.876388e+00 1.010363e+00 -2.886750e-01
      vertex 1.732050e+00 5.773500e-01 -5.773500e-01
      vertex 1.732050e+00 1.154700e+00 -5.773500e-01
    endloop
  endfacet
  facet normal 7.071068e-01 7.071068e-01 0.000000e+00
    outer loop
      vertex 1.876388e+00 1.010363e+00 -2.886750e-01
      vertex 1.732050e+00 1.154700e+00 -5.773500e-01
      vertex 1.732050e+00 1.154700e+00 5.551115e-17
    endloop
  endfacet
  facet normal -3.723805e-17 8.944272e-01 -4.472136e-01
    outer loop
      vertex 1.876388e+00 1.010363e+00 -2.886750e-01
      vertex 1.732050e+00 1.154700e+00 5.551115e-17
      vertex 2.309400e+00 1.154700e+00 0.000000e+00
    endloop
  endfacet
  facet normal 4.082483e-01 -4.082483e-01 -8.164966e-01
    outer loop
      vertex 1.587713e+00 1.010363e+00 -8.660250e-01
      vertex 1.732050e+00 5.773500e-01 -5.773500e-01
      vertex 1.154700e+00 1.154700e+00 -1.154700e+00
    endloop
  endfacet
  facet normal 3.351424e-16 -8.944272e-01 -4.472136e-01
    outer loop
      vertex 1.587713e+00 1.010363e+00 -8.660250e-01
      vertex 1.154700e+00 1.154700e+00 -1.154700e+00
      vertex 1.732050e+00 1.154700e+00 -1.154700e+00
    endloop
  endfacet
  facet normal 7.071068e-01 -7.071068e-01 0.000000e+00
    outer loop
      vertex 1.587713e+00 1.010363e+00 -8.660250e-01
      vertex 1.732050e+00 1.154700e+00 -1.154700e+00
      vertex 1.732050e+00 1.154700e+00 -5.773500e-01
    endloop
  endfacet
  facet normal 8.944272e-01 -3.351424e-16 -4.472136e-01
    outer loop
      vertex 1.587713e+00 1.010363e+00 -8.660250e-01
      vertex 1.732050e+00 1.154700e+00 -5.773500e-01
      vertex 1.732050e+00 5.773500e-01 -5.773500e-01
    endloop
  endfacet
  facet normal 4.082483e-01 4.082483e-01 -8.164966e-01
    outer loop
      vertex 7.216875e-01 -1.443375e-01 8.660250e-01
      vertex 1.154700e+00 7.070498e-17 1.154700e+00
      vertex 5.773500e-01 -5.773500e-01 5.773500e-01
    endloop
  endfacet
  facet normal 8.944272e-01 0.000000e+00 -4.472136e-01
    outer loop
      vertex 7.216875e-01 -1.443375e-01 8.660250e-01
      vertex 5.773500e-01 -5.773500e-01 5.773500e-01
      vertex 5.773500e-01 4.543182e-17 5.773500e-01
    endloop
  endfacet
  facet normal 7.071068e-01 7.071068e-01 -2.943926e-17
    outer loop
      vertex 7.216875e-01 -1.443375e-01 8.660250e-01
      vertex 5.773500e-01 4.543182e-17 5.773500e-01
      vertex 5.773500e-01 8.078431e-17 1.154700e+00
    endloop
  endfacet
  facet normal 0.000000e+00 8.944272e-01 -4.472136e-01
    outer loop
      vertex 7.216875e-01 -1.443375e-01 8.660250e-01
      vertex 5.773500e-01 8.078431e-17 1.154700e+00
      vertex 1.154700e+00 7.070498e-17 1.154700e+00
    endloop
  endfacet
  facet normal 4.082483e-01 -4.082483e-01 -8.164966e-01
    outer loop
      vertex 4.330125e-01 -1.443375e-01 2.886750e-01
      vertex 5.773500e-01 -5.773500e-01 5.773500e-01
      vertex 0.000000e+00 0.000000e+00 0.000000e+00
    endloop
  endfacet
  facet normal -3.723805e-17 -8.944272e-01 -4.472136e-01
    outer loop
      vertex 4.330125e-01 -1.443375e-01 2.886750e-01
      vertex 0.000000e+00 0.000000e+00 0.000000e+00
      vertex 5.773500e-01 1.007933e-17 -5.551115e-17
    endloop
  endfacet
  facet normal 7.071068e-01 -7.071068e-01 8.831778e-17
    outer loop
      vertex 4.330125e-01 -1.443375e-01 2.886750e-01
      vertex 5.773500e-01 1.007933e-17 -5.551115e-17
      vertex 5.773500e-01 4.543182e-17 5.773500e-01
    endloop
  endfacet
  facet normal 8.944272e-01 0.000000e+00 -4.472136e-01
    outer loop
      vertex 4.330125e-01 -1.443375e-01 2.886750e-01
      vertex 5.773500e-01 4.543182e-17 5.773500e-01
      vertex 5.773500e-01 -5.773500e-01 5.773500e-01
    endloop
  endfacet
  facet normal -4.082483e-01 -4.082483e-01 -8.164966e-01
    outer loop
      vertex 4.330125e-01 1.443375e-01 -2.886750e-01
      vertex 0.000000e+00 0.000000e+00 0.000000e+00
      vertex 5.773500e-01 5.773500e-01 -5.773500e-01
    endloop
  endfacet
  facet normal -8.944272e-01 0.000000e+00 -4.472136e-01
    outer loop
      vertex 4.330125e-01 1.443375e-01 -2.886750e-01
      vertex 5.773500e-01 5.773500e-01 -5.773500e-01
      vertex 5.773500e-01 -2.527316e-17 -5.773500e-01
    endloop
  endfacet
  facet normal -7.071068e-01 -7.071068e-01 2.943926e-17
    outer loop
      vertex 4.330125e-01 1.443375e-01 -2.886750e-01
      vertex 5.773500e-01 -2.527316e-17 -5.773500e-01
      vertex 5.773500e-01 1.007933e-17 -5.551115e-17
    endloop
  endfacet
  facet normal -3.723805e-17 -8.944272e-01 -4.472136e-01
    outer loop
      vertex 4.330125e-01 1.443375e-01 -2.886750e-01
      vertex 5.773500e-01 1.007933e-17 -5.551115e-17
      vertex 0.000000e+00 0.000000e+00 0.000000e+00
    endloop
  endfacet
  facet normal 4.082483e-01 4.082483e-01 -8.164966e-01
    outer loop
      vertex 1.154700e+00 1.732050e+00 8.660250e-01
      vertex 5.773500e-01 1.732050e+00 5.773500e-01
      vertex 1.154700e+00 2.309400e+00 1.154700e+00
    endloop
  endfacet
  facet normal -4.082483e-01 4.082483e-01 -8.164966e-01
    outer loop
      vertex 1.154700e+00 1.732050e+00 8.660250e-01
      vertex 1.154700e+00 2.309400e+00 1.154700e+00
      vertex 1.732050e+00 1.732050e+00 5.773500e-01
    endloop
  endfacet
  facet normal -4.082483e-01 -4.082483e-01 -8.164966e-01
    outer loop
      vertex 1.154700e+00 1.732050e+00 8.660250e-01
      vertex 1.732050e+00 1.732050e+00 5.773500e-01
      vertex 1.154700e+00 1.154700e+00 1.154700e+00
    endloop
  endfacet
  facet normal 4.082483e-01 -4.082483e-01 -8.164966e-01
    outer loop
      vertex 1.154700e+00 1.732050e+00 8.660250e-01
      vertex 1.154700e+00 1.154700e+00 1.154700e+00
      vertex 5.773500e-01 1.732050e+00 5.773500e-01
    endloop
  endfacet
  facet normal -4.082483e-01 4.082483e-01 -8.164966e-01
    outer loop
      vertex 1.154700e+00 5.773500e-01 1.443375e+00
      vertex 1.154700e+00 7.070498e-17 1.154700e+00
      vertex 5.773500e-01 5.773500e-01 1.732050e+00
    endloop
  endfacet
  facet normal -4.082483e-01 -4.082483e-01 -8.164966e-01
    outer loop
      vertex 1.154700e+00 5.773500e-01 1.443375e+00
      vertex 5.773500e-01 5.773500e-01 1.732050e+00
      vertex 1.154700e+00 1.154700e+00 1.154700e+00
    endloop
  endfacet
  facet normal 4.082483e-01 -4.082483e-01 -8.164966e-01
    outer loop
      vertex 1.154700e+00 5.773500e-01 1.443375e+00
      vertex 1.154700e+00 1.154700e+00 1.154700e+00
      vertex 1.732050e+00 5.773500e-01 1.732050e+00
    endloop
  endfacet
  facet normal 4.082483e-01 4.082483e-01 -8.164966e-01
    outer loop
      vertex 1.154700e+00 5.773500e-01 1.443375e+00
      vertex 1.732050e+00 5.773500e-01 1.732050e+00
      vertex 1.154700e+00 7.070498e-17 1.154700e+00
    endloop
  endfacet
  facet normal -4.082483e-01 4.082483e-01 -8.164966e-01
    outer loop
      vertex 7.216875e-01 1.443375e-01 1.443375e+00
      vertex 5.773500e-01 5.773500e-01 1.732050e+00
      vertex 1.154700e+00 7.070498e-17 1.154700e+00
    endloop
  endfacet
  facet normal 0.000000e+00 8.944272e-01 -4.472136e-01
    outer loop
      vertex 7.216875e-01 1.443375e-01 1.443375e+00
      vertex 1.154700e+00 7.070498e-17 1.154700e+00
      vertex 5.773500e-01 7.318740e-17 1.154700e+00
    endloop
  endfacet
  facet normal -7.071068e-01 7.071068e-01 -2.943926e-17
    outer loop
      vertex 7.216875e-01 1.443375e-01 1.443375e+00
      vertex 5.773500e-01 7.318740e-17 1.154700e+00
      vertex 5.773500e-01 1.085399e-16 1.732050e+00
    endloop
  endfacet
  facet normal -8.944272e-01 1.489522e-16 -4.472136e-01
    outer loop
      vertex 7.216875e-01 1.443375e-01 1.443375e+00
      vertex 5.773500e-01 1.085399e-16 1.732050e+00
      vertex 5.773500e-01 5.773500e-01 1.732050e+00
    endloop
  endfacet
  facet normal 4.082483e-01 4.082483e-01 -8.164966e-01
    outer loop
      vertex 7.216875e-01 -1.443375e-01 8.660250e-01
      vertex 1.154700e+00 7.070498e-17 1.154700e+00
      vertex 5.773500e-01 -5.773500e-01 5.773500e-01
    endloop
  endfacet
  facet normal 8.944272e-01 0.000000e+00 -4.472136e-01
    outer loop
      vertex 7.216875e-01 -1.443375e-01 8.660250e-01
      vertex 5.773500e-01 -5.773500e-01 5.773500e-01
      vertex 5.773500e-01 3.783491e-17 5.773500e-01
    endloop
  endfacet
  facet normal 7.071068e-01 7.071068e-01 -5.887852e-17
    outer loop
      vertex 7.216875e-01 -1.443375e-01 8.660250e-01
      vertex 5.773500e-01 3.783491e-17 5.773500e-01
      vertex 5.773500e-01 7.318740e-17 1.154700e+00
    endloop
  endfacet
  facet normal 0.000000e+00 8.944272e-01 -4.472136e-01
    outer loop
      vertex 7.216875e-01 -1.443375e-01 8.660250e-01
      vertex 5.773500e-01 7.318740e-17 1.154700e+00
      vertex 1.154700e+00 7.070498e-17 1.154700e+00
    endloop
  endfacet
  facet normal 4.082483e-01 -4.082483e-01 -8.164966e-01
    outer loop
      vertex 4.330125e-01 -1.443375e-01 2.886750e-01
      vertex 5.773500e-01 -5.773500e-01 5.773500e-01
      vertex 0.000000e+00 0.000000e+00 0.000000e+00
    endloop
  endfacet
  facet normal 0.000000e+00 -8.944272e-01 -4.472136e-01
    outer loop
      vertex 4.330125e-01 -1.443375e-01 2.886750e-01
      vertex 0.000000e+00 0.000000e+00 0.000000e+00
      vertex 5.773500e-01 2.482414e-18 0.000000e+00
    endloop
  endfacet
  facet normal 7.071068e-01 -7.071068e-01 2.943926e-17
    outer loop
      vertex 4.330125e-01 -1.443375e-01 2.886750e-01
      vertex 5.773500e-01 2.482414e-18 0.000000e+00
      vertex 5.773500e-01 3.783491e-17 5.773500e-01
    endloop
  endfacet
  facet normal 8.944272e-01 0.000000e+00 -4.472136e-01
    outer loop
      vertex 4.330125e-01 -1.443375e-01 2.886750e-01
      vertex 5.773500e-01 3.783491e-17 5.773500e-01
      vertex 5.773500e-01 -5.773500e-01 5.773500e-01
    endloop
  endfacet
  facet normal -4.082483e-01 4.082483e-01 -8.164966e-01
    outer loop
      vertex 1.154700e+00 -5.773500e-01 8.660250e-01
      vertex 1.154700e+00 7.070498e-17 1.154700e+00
      vertex 1.732050e+00 -5.773500e-01 5.773500e-01
    endloop
  endfacet
  facet normal -4.082483e-01 -4.082483e-01 -8.164966e-01
    outer loop
      vertex 1.154700e+00 -5.773500e-01 8.660250e-01
      vertex 1.732050e+00 -5.773500e-01 5.773500e-01
      vertex 1.154700e+00 -1.154700e+00 1.154700e+00
    endloop
  endfacet
  facet normal 4.082483e-01 -4.082483e-01 -8.164966e-01
    outer loop
      vertex 1.154700e+00 -5.773500e-01 8.660250e-01
      vertex 1.154700e+00 -1.154700e+00 1.154700e+00
      vertex 5.773500e-01 -5.773500e-01 5.773500e-01
    endloop
  endfacet
  facet normal 4.082483e-01 4.082483e-01 -8.164966e-01
    outer loop
      vertex 1.154700e+00 -5.773500e-01 8.660250e-01
      vertex 5.773500e-01 -5.773500e-01 5.773500e-01
      vertex 1.154700e+00 7.070498e-17 1.154700e+00
    endloop
  endfacet
  facet normal -4.082483e-01 4.082483e-01 -8.164966e-01
    outer loop
      vertex 1.587713e+00 2.165063e+00 8.660250e-01
      vertex 1.732050e+00 1.732050e+00 5.773500e-01
      vertex 1.154700e+00 2.309400e+00 1.154700e+00
    endloop
  endfacet
  facet normal 0.000000e+00 8.944272e-01 -4.472136e-01
    outer loop
      vertex 1.587713e+00 2.165063e+00 8.660250e-01
      vertex 1.154700e+00 2.309400e+00 1.154700e+00
      vertex 1.732050e+00 2.309400e+00 1.154700e+00
    endloop
  endfacet
  facet normal -7.071068e-01 7.071068e-01 0.000000e+00
    outer loop
      vertex 1.587713e+00 2.165063e+00 8.660250e-01
      vertex 1.732050e+00 2.309400e+00 1.154700e+00
      vertex 1.732050e+00 2.309400e+00 5.773500e-01
    endloop
  endfacet
  facet normal -8.944272e-01 0.000000e+00 -4.472136e-01
    outer loop
      vertex 1.587713e+00 2.165063e+00 8.660250e-01
      vertex 1.732050e+00 2.309400e+00 5.773500e-01
      vertex 1.732050e+00 1.732050e+00 5.773500e-01
    endloop
  endfacet
  facet normal 4.082483e-01 4.082483e-01 -8.164966e-01
    outer loop
      vertex 1.587713e+00 2.453737e+00 1.443375e+00
      vertex 1.154700e+00 2.309400e+00 1.154700e+00
      vertex 1.732050e+00 2.886750e+00 1.732050e+00
    endloop
  endfacet
  facet normal 8.944272e-01 -3.351424e-16 -4.472136e-01
    outer loop
      vertex 1.587713e+00 2.453737e+00 1.443375e+00
      vertex 1.732050e+00 2.886750e+00 1.732050e+00
      vertex 1.732050e+00 2.309400e+00 1.732050e+00
    endloop
  endfacet
  facet normal 7.071068e-01 7.071068e-01 0.000000e+00
    outer loop
      vertex 1.587713e+00 2.453737e+00 1.443375e+00
      vertex 1.732050e+00 2.309400e+00 1.732050e+00
      vertex 1.732050e+00 2.309400e+00 1.154700e+00
    endloop
  endfacet
  facet normal 0.000000e+00 8.944272e-01 -4.472136e-01
    outer loop
      vertex 1.587713e+00 2.453737e+00 1.443375e+00
      vertex 1.732050e+00 2.309400e+00 1.154700e+00
      vertex 1.154700e+00 2.309400e+00 1.154700e+00
    endloop
  endfacet
  facet normal 4.082483e-01 -4.082483e-01 -8.164966e-01
    outer loop
      vertex 1.876388e+00 2.453737e+00 2.020725e+00
      vertex 1.732050e+00 2.886750e+00 1.732050e+00
      vertex 2.309400e+00 2.309400e+00 2.309400e+00
    endloop
  endfacet
  facet normal 0.000000e+00 -8.944272e-01 -4.472136e-01
    outer loop
      vertex 1.876388e+00 2.453737e+00 2.020725e+00
      vertex 2.309400e+00 2.309400e+00 2.309400e+00
      vertex 1.732050e+00 2.309400e+00 2.309400e+00
    endloop
  endfacet
  facet normal 7.071068e-01 -7.071068e-01 0.000000e+00
    outer loop
      vertex 1.876388e+00 2.453737e+00 2.020725e+00
      vertex 1.732050e+00 2.309400e+00 2.309400e+00
      vertex 1.732050e+00 2.309400e+00 1.732050e+00
    endloop
  endfacet
  facet normal 8.944272e-01 -3.351424e-16 -4.472136e-01
    outer loop
      vertex 1.876388e+00 2.453737e+00 2.020725e+00
      vertex 1.732050e+00 2.309400e+00 1.732050e+00
      vertex 1.732050e+00 2.886750e+00 1.732050e+00
    endloop
  endfacet
  facet normal 4.082483e-01 4.082483e-01 -8.164966e-01
    outer loop
      vertex 1.587713e+00 1.443375e-01 1.443375e+00
      vertex 1.154700e+00 7.070498e-17 1.154700e+00
      vertex 1.732050e+00 5.773500e-01 1.732050e+00
    endloop
  endfacet
  facet normal 8.944272e-01 0.000000e+00 -4.472136e-01
    outer loop
      vertex 1.587713e+00 1.443375e-01 1.443375e+00
      vertex 1.732050e+00 5.773500e-01 1.732050e+00
      vertex 1.732050e+00 6.559048e-17 1.732050e+00
    endloop
  endfacet
  facet normal 7.071068e-01 7.071068e-01 -5.887852e-17
    outer loop
      vertex 1.587713e+00 1.443375e-01 1.443375e+00
      vertex 1.732050e+00 6.559048e-17 1.732050e+00
      vertex 1.732050e+00 3.023799e-17 1.154700e+00
    endloop
  endfacet
  facet normal 1.117141e-16 8.944272e-01 -4.472136e-01
    outer loop
      vertex 1.587713e+00 1.443375e-01 1.443375e+00
      vertex 1.732050e+00 3.023799e-17 1.154700e+00
      vertex 1.154700e+00 7.070498e-17 1.154700e+00
    endloop
  endfacet
  facet normal 4.082483e-01 -4.082483e-01 -8.164966e-01
    outer loop
      vertex 1.876388e+00 1.443375e-01 2.020725e+00
      vertex 1.732050e+00 5.773500e-01 1.732050e+00
      vertex 2.309400e+00 1.414100e-16 2.309400e+00
    endloop
  endfacet
  facet normal 3.723805e-17 -8.944272e-01 -4.472136e-01
    outer loop
      vertex 1.876388e+00 1.443375e-01 2.020725e+00
      vertex 2.309400e+00 1.414100e-16 2.309400e+00
      vertex 1.732050e+00 1.009430e-16 2.309400e+00
    endloop
  endfacet
  facet normal 7.071068e-01 -7.071068e-01 8.831778e-17
    outer loop
      vertex 1.876388e+00 1.443375e-01 2.020725e+00
      vertex 1.732050e+00 1.009430e-16 2.309400e+00
      vertex 1.732050e+00 6.559048e-17 1.732050e+00
    endloop
  endfacet
  facet normal 8.944272e-01 0.000000e+00 -4.472136e-01
    outer loop
      vertex 1.876388e+00 1.443375e-01 2.020725e+00
      vertex 1.732050e+00 6.559048e-17 1.732050e+00
      vertex 1.732050e+00 5.773500e-01 1.732050e+00
    endloop
  endfacet
  facet normal -4.082483e-01 -4.082483e-01 -8.164966e-01
    outer loop
      vertex 1.876388e+00 -1.443375e-01 2.598075e+00
      vertex 2.309400e+00 1.414100e-16 2.309400e+00
      vertex 1.732050e+00 -5.773500e-01 2.886750e+00
    endloop
  endfacet
  facet normal -8.944272e-01 0.000000e+00 -4.472136e-01
    outer loop
      vertex 1.876388e+00 -1.443375e-01 2.598075e+00
      vertex 1.732050e+00 -5.773500e-01 2.886750e+00
      vertex 1.732050e+00 1.362955e-16 2.886750e+00
    endloop
  endfacet
  facet normal -7.071068e-01 -7.071068e-01 5.887852e-17
    outer loop
      vertex 1.876388e+00 -1.443375e-01 2.598075e+00
      vertex 1.732050e+00 1.362955e-16 2.886750e+00
      vertex 1.732050e+00 1.009430e-16 2.309400e+00
    endloop
  endfacet
  facet normal 7.447609e-17 -8.944272e-01 -4.472136e-01
    outer loop
      vertex 1.876388e+00 -1.443375e-01 2.598075e+00
      vertex 1.732050e+00 1.009430e-16 2.309400e+00
      vertex 2.309400e+00 1.414100e-16 2.309400e+00
    endloop
  endfacet
  facet normal 4.082483e-01 -4.082483e-01 -8.164966e-01
    outer loop
      vertex 1.587713e+00 1.010363e+00 1.443375e+00
      vertex 1.732050e+00 5.773500e-01 1.732050e+00
      vertex 1.154700e+00 1.154700e+00 1.154700e+00
    endloop
  endfacet
  facet normal 0.000000e+00 -8.944272e-01 -4.472136e-01
    outer loop
      vertex 1.587713e+00 1.010363e+00 1.443375e+00
      vertex 1.154700e+00 1.154700e+00 1.154700e+00
      vertex 1.732050e+00 1.154700e+00 1.154700e+00
    endloop
  endfacet
  facet normal 7.071068e-01 -7.071068e-01 0.000000e+00
    outer loop
      vertex 1.587713e+00 1.010363e+00 1.443375e+00
      vertex 1.732050e+00 1.154700e+00 1.154700e+00
      vertex 1.732050e+00 1.154700e+00 1.732050e+00
    endloop
  endfacet
  facet normal 8.944272e-01 0.000000e+00 -4.472136e-01
    outer loop
      vertex 1.587713e+00 1.010363e+00 1.443375e+00
      vertex 1.732050e+00 1.154700e+00 1.732050e+00
      vertex 1.732050e+00 5.773500e-01 1.732050e+00
    endloop
  endfacet
  facet normal -4.082483e-01 -4.082483e-01 -8.164966e-01
    outer loop
      vertex 1.587713e+00 1.299038e+00 8.660250e-01
      vertex 1.154700e+00 1.154700e+00 1.154700e+00
      vertex 1.732050e+00 1.732050e+00 5.773500e-01
    endloop
  endfacet
  facet normal -8.944272e-01 0.000000e+00 -4.472136e-01
    outer loop
      vertex 1.587713e+00 1.299038e+00 8.660250e-01
      vertex 1.732050e+00 1.732050e+00 5.773500e-01
      vertex 1.732050e+00 1.154700e+00 5.773500e-01
    endloop
  endfacet
  facet normal -7.071068e-01 -7.071068e-01 0.000000e+00
    outer loop
      vertex 1.587713e+00 1.299038e+00 8.660250e-01
      vertex 1.732050e+00 1.154700e+00 5.773500e-01
      vertex 1.732050e+00 1.154700e+00 1.154700e+00
    endloop
  endfacet
  facet normal 0.000000e+00 -8.944272e-01 -4.472136e-01
    outer loop
      vertex 1.587713e+00 1.299038e+00 8.660250e-01
      vertex 1.732050e+00 1.154700e+00 1.154700e+00
      vertex 1.154700e+00 1.154700e+00 1.154700e+00
    endloop
  endfacet
  facet normal -4.082483e-01 4.082483e-01 -8.164966e-01
    outer loop
      vertex 1.876388e+00 1.299038e+00 2.886750e-01
      vertex 1.732050e+00 1.732050e+00 5.773500e-01
      vertex 2.309400e+00 1.154700e+00 0.000000e+00
    endloop
  endfacet
  facet normal 0.000000e+00 8.944272e-01 -4.472136e-01
    outer loop
      vertex 1.876388e+00 1.299038e+00 2.886750e-01
      vertex 2.309400e+00 1.154700e+00 0.000000e+00
      vertex 1.732050e+00 1.154700e+00 0.000000e+00
    endloop
  endfacet
  facet normal -7.071068e-01 7.071068e-01 0.000000e+00
    outer loop
      vertex 1.876388e+00 1.299038e+00 2.886750e-01
      vertex 1.732050e+00 1.154700e+00 0.000000e+00
      vertex 1.732050e+00 1.154700e+00 5.773500e-01
    endloop
  endfacet
  facet normal -8.944272e-01 0.000000e+00 -4.472136e-01
    outer loop
      vertex 1.876388e+00 1.299038e+00 2.886750e-01
      vertex 1.732050e+00 1.154700e+00 5.773500e-01
      vertex 1.732050e+00 1.732050e+00 5.773500e-01
    endloop
  endfacet
endsolid surface_model
