solid surface_model
  facet normal 3.140179e-16 7.071068e-01 7.071068e-01
    outer loop
      vertex 1.767769e-01 1.414215e+00 7.071075e-01
      vertex 3.535538e-01 1.060661e+00 1.060661e+00
      vertex 3.535538e-01 1.767769e+00 3.535537e-01
    endloop
  endfacet
  facet normal 6.666667e-01 3.333333e-01 6.666667e-01
    outer loop
      vertex 1.767769e-01 1.414215e+00 7.071075e-01
      vertex 3.535538e-01 1.767769e+00 3.535537e-01
      vertex -2.164892e-17 1.767769e+00 7.071075e-01
    endloop
  endfacet
  facet normal 0.000000e+00 0.000000e+00 1.000000e+00
    outer loop
      vertex 1.767769e-01 1.414215e+00 7.071075e-01
      vertex -2.164892e-17 1.767769e+00 7.071075e-01
      vertex -6.494677e-17 1.060661e+00 7.071075e-01
    endloop
  endfacet
  facet normal -6.666667e-01 3.333333e-01 6.666667e-01
    outer loop
      vertex 1.767769e-01 1.414215e+00 7.071075e-01
      vertex -6.494677e-17 1.060661e+00 7.071075e-01
      vertex 3.535538e-01 1.060661e+00 1.060661e+00
    endloop
  endfacet
  facet normal 7.071068e-01 7.071068e-01 7.850446e-16
    outer loop
      vertex -6.162976e-33 2.121322e+00 5.303306e-01
      vertex 3.535538e-01 1.767769e+00 3.535537e-01
      vertex -3.535538e-01 2.474876e+00 3.535537e-01
    endloop
  endfacet
  facet normal 6.666667e-01 3.333333e-01 -6.666667e-01
    outer loop
      vertex -6.162976e-33 2.121322e+00 5.303306e-01
      vertex -3.535538e-01 2.474876e+00 3.535537e-01
      vertex 2.164892e-17 2.474876e+00 7.071075e-01
    endloop
  endfacet
  facet normal 1.000000e+00 -6.123234e-17 1.109333e-31
    outer loop
      vertex -6.162976e-33 2.121322e+00 5.303306e-01
      vertex 2.164892e-17 2.474876e+00 7.071075e-01
      vertex -2.164892e-17 1.767769e+00 7.071075e-01
    endloop
  endfacet
  facet normal 6.666667e-01 3.333333e-01 6.666667e-01
    outer loop
      vertex -6.162976e-33 2.121322e+00 5.303306e-01
      vertex -2.164892e-17 1.767769e+00 7.071075e-01
      vertex 3.535538e-01 1.767769e+00 3.535537e-01
    endloop
  endfacet
  facet normal 3.140179e-16 7.071068e-01 -7.071068e-01
    outer loop
      vertex -1.767769e-01 2.828430e+00 7.071075e-01
      vertex -3.535538e-01 2.474876e+00 3.535537e-01
      vertex -3.535538e-01 3.181984e+00 1.060661e+00
    endloop
  endfacet
  facet normal -6.666667e-01 3.333333e-01 -6.666667e-01
    outer loop
      vertex -1.767769e-01 2.828430e+00 7.071075e-01
      vertex -3.535538e-01 3.181984e+00 1.060661e+00
      vertex 6.494677e-17 3.181984e+00 7.071075e-01
    endloop
  endfacet
  facet normal 0.000000e+00 0.000000e+00 -1.000000e+00
    outer loop
      vertex -1.767769e-01 2.828430e+00 7.071075e-01
      vertex 6.494677e-17 3.181984e+00 7.071075e-01
      vertex 2.164892e-17 2.474876e+00 7.071075e-01
    endloop
  endfacet
  facet normal 6.666667e-01 3.333333e-01 -6.666667e-01
    outer loop
      vertex -1.767769e-01 2.828430e+00 7.071075e-01
      vertex 2.164892e-17 2.474876e+00 7.071075e-01
      vertex -3.535538e-01 2.474876e+00 3.535537e-01
    endloop
  endfacet
  facet normal 2.747656e-16 7.071068e-01 7.071068e-01
    outer loop
      vertex 1.060661e+00 1.414215e+00 7.071075e-01
      vertex 3.535538e-01 1.767769e+00 3.535537e-01
      vertex 3.535538e-01 1.060661e+00 1.060661e+00
    endloop
  endfacet
  facet normal -5.773503e-01 5.773503e-01 -5.773503e-01
    outer loop
      vertex 1.060661e+00 1.414215e+00 7.071075e-01
      vertex 3.535538e-01 1.060661e+00 1.060661e+00
      vertex 1.060661e+00 1.767769e+00 1.060661e+00
    endloop
  endfacet
  facet normal -5.773503e-01 5.773503e-01 -5.773503e-01
    outer loop
      vertex 1.060661e+00 1.414215e+00 7.071075e-01
      vertex 1.060661e+00 1.767769e+00 1.060661e+00
      vertex 1.767769e+00 1.767769e+00 3.535537e-01
    endloop
  endfacet
  facet normal 2.747656e-16 -7.071068e-01 -7.071068e-01
    outer loop
      vertex 1.060661e+00 1.414215e+00 7.071075e-01
      vertex 1.767769e+00 1.767769e+00 3.535537e-01
      vertex 1.767769e+00 1.060661e+00 1.060661e+00
    endloop
  endfacet
  facet normal 5.773503e-01 5.773503e-01 -5.773503e-01
    outer loop
      vertex 1.060661e+00 1.414215e+00 7.071075e-01
      vertex 1.767769e+00 1.060661e+00 1.060661e+00
      vertex 1.060661e+00 1.060661e+00 3.535537e-01
    endloop
  endfacet
  facet normal 5.773503e-01 5.773503e-01 -5.773503e-01
    outer loop
      vertex 1.060661e+00 1.414215e+00 7.071075e-01
      vertex 1.060661e+00 1.060661e+00 3.535537e-01
      vertex 3.535538e-01 1.767769e+00 3.535537e-01
    endloop
  endfacet
  facet normal -7.071068e-01 7.071068e-01 -1.570089e-16
    outer loop
      vertex 1.850372e-17 7.071075e-01 1.767769e+00
      vertex 3.535538e-01 1.060661e+00 1.060661e+00
      vertex -3.535538e-01 3.535538e-01 1.060661e+00
    endloop
  endfacet
  facet normal 5.773503e-01 5.773503e-01 -5.773503e-01
    outer loop
      vertex 1.850372e-17 7.071075e-01 1.767769e+00
      vertex -3.535538e-01 3.535538e-01 1.060661e+00
      vertex -3.535538e-01 1.060661e+00 1.767769e+00
    endloop
  endfacet
  facet normal 5.773503e-01 5.773503e-01 -5.773503e-01
    outer loop
      vertex 1.850372e-17 7.071075e-01 1.767769e+00
      vertex -3.535538e-01 1.060661e+00 1.767769e+00
      vertex 3.535538e-01 1.060661e+00 2.474876e+00
    endloop
  endfacet
  facet normal 7.071068e-01 -7.071068e-01 -3.925223e-17
    outer loop
      vertex 1.850372e-17 7.071075e-01 1.767769e+00
      vertex 3.535538e-01 1.060661e+00 2.474876e+00
      vertex -3.535538e-01 3.535538e-01 2.474876e+00
    endloop
  endfacet
  facet normal 5.773503e-01 5.773503e-01 5.773503e-01
    outer loop
      vertex 1.850372e-17 7.071075e-01 1.767769e+00
      vertex -3.535538e-01 3.535538e-01 2.474876e+00
      vertex 3.535538e-01 3.535538e-01 1.767769e+00
    endloop
  endfacet
  facet normal 5.773503e-01 5.773503e-01 5.773503e-01
    outer loop
      vertex 1.850372e-17 7.071075e-01 1.767769e+00
      vertex 3.535538e-01 3.535538e-01 1.767769e+00
      vertex 3.535538e-01 1.060661e+00 1.060661e+00
    endloop
  endfacet
  facet normal -7.071068e-01 7.071068e-01 1.570089e-16
    outer loop
      vertex 2.828430e+00 7.071075e-01 8.838844e-01
      vertex 2.474876e+00 3.535538e-01 1.060661e+00
      vertex 3.181984e+00 1.060661e+00 1.060661e+00
    endloop
  endfacet
  facet normal -6.666667e-01 3.333333e-01 6.666667e-01
    outer loop
      vertex 2.828430e+00 7.071075e-01 8.838844e-01
      vertex 3.181984e+00 1.060661e+00 1.060661e+00
      vertex 2.828430e+00 1.060661e+00 7.071075e-01
    endloop
  endfacet
  facet normal -1.000000e+00 0.000000e+00 -0.000000e+00
    outer loop
      vertex 2.828430e+00 7.071075e-01 8.838844e-01
      vertex 2.828430e+00 1.060661e+00 7.071075e-01
      vertex 2.828430e+00 3.535538e-01 7.071075e-01
    endloop
  endfacet
  facet normal -6.666667e-01 3.333333e-01 -6.666667e-01
    outer loop
      vertex 2.828430e+00 7.071075e-01 8.838844e-01
      vertex 2.828430e+00 3.535538e-01 7.071075e-01
      vertex 2.474876e+00 3.535538e-01 1.060661e+00
    endloop
  endfacet
  facet normal 3.140179e-16 7.071068e-01 7.071068e-01
    outer loop
      vertex 3.005207e+00 1.414215e+00 7.071075e-01
      vertex 3.181984e+00 1.060661e+00 1.060661e+00
      vertex 3.181984e+00 1.767769e+00 3.535537e-01
    endloop
  endfacet
  facet normal 6.666667e-01 3.333333e-01 6.666667e-01
    outer loop
      vertex 3.005207e+00 1.414215e+00 7.071075e-01
      vertex 3.181984e+00 1.767769e+00 3.535537e-01
      vertex 2.828430e+00 1.767769e+00 7.071075e-01
    endloop
  endfacet
  facet normal 0.000000e+00 0.000000e+00 1.000000e+00
    outer loop
      vertex 3.005207e+00 1.414215e+00 7.071075e-01
      vertex 2.828430e+00 1.767769e+00 7.071075e-01
      vertex 2.828430e+00 1.060661e+00 7.071075e-01
    endloop
  endfacet
  facet normal -6.666667e-01 3.333333e-01 6.666667e-01
    outer loop
      vertex 3.005207e+00 1.414215e+00 7.071075e-01
      vertex 2.828430e+00 1.060661e+00 7.071075e-01
      vertex 3.181984e+00 1.060661e+00 1.060661e+00
    endloop
  endfacet
  facet normal 7.071068e-01 7.071068e-01 7.850446e-16
    outer loop
      vertex 2.828430e+00 2.121322e+00 5.303306e-01
      vertex 3.181984e+00 1.767769e+00 3.535537e-01
      vertex 2.474876e+00 2.474876e+00 3.535537e-01
    endloop
  endfacet
  facet normal 6.666667e-01 3.333333e-01 -6.666667e-01
    outer loop
      vertex 2.828430e+00 2.121322e+00 5.303306e-01
      vertex 2.474876e+00 2.474876e+00 3.535537e-01
      vertex 2.828430e+00 2.474876e+00 7.071075e-01
    endloop
  endfacet
  facet normal 1.000000e+00 0.000000e+00 -0.000000e+00
    outer loop
      vertex 2.828430e+00 2.121322e+00 5.303306e-01
      vertex 2.828430e+00 2.474876e+00 7.071075e-01
      vertex 2.828430e+00 1.767769e+00 7.071075e-01
    endloop
  endfacet
  facet normal 6.666667e-01 3.333333e-01 6.666667e-01
    outer loop
      vertex 2.828430e+00 2.121322e+00 5.303306e-01
      vertex 2.828430e+00 1.767769e+00 7.071075e-01
      vertex 3.181984e+00 1.767769e+00 3.535537e-01
    endloop
  endfacet
  facet normal 3.925223e-17 -7.071068e-01 7.071068e-01
    outer loop
      vertex 1.767769e+00 -3.700743e-17 7.071075e-01
      vertex 1.060661e+00 3.535538e-01 1.060661e+00
      vertex 1.060661e+00 -3.535538e-01 3.535537e-01
    endloop
  endfacet
  facet normal -5.773503e-01 5.773503e-01 5.773503e-01
    outer loop
      vertex 1.767769e+00 -3.700743e-17 7.071075e-01
      vertex 1.060661e+00 -3.535538e-01 3.535537e-01
      vertex 1.767769e+00 -3.535538e-01 1.060661e+00
    endloop
  endfacet
  facet normal -5.773503e-01 5.773503e-01 5.773503e-01
    outer loop
      vertex 1.767769e+00 -3.700743e-17 7.071075e-01
      vertex 1.767769e+00 -3.535538e-01 1.060661e+00
      vertex 2.474876e+00 3.535538e-01 1.060661e+00
    endloop
  endfacet
  facet normal 3.925223e-17 7.071068e-01 -7.071068e-01
    outer loop
      vertex 1.767769e+00 -3.700743e-17 7.071075e-01
      vertex 2.474876e+00 3.535538e-01 1.060661e+00
      vertex 2.474876e+00 -3.535538e-01 3.535537e-01
    endloop
  endfacet
  facet normal 5.773503e-01 5.773503e-01 5.773503e-01
    outer loop
      vertex 1.767769e+00 -3.700743e-17 7.071075e-01
      vertex 2.474876e+00 -3.535538e-01 3.535537e-01
      vertex 1.767769e+00 3.535537e-01 3.535537e-01
    endloop
  endfacet
  facet normal 5.773503e-01 5.773503e-01 5.773503e-01
    outer loop
      vertex 1.767769e+00 -3.700743e-17 7.071075e-01
      vertex 1.767769e+00 3.535537e-01 3.535537e-01
      vertex 1.060661e+00 3.535538e-01 1.060661e+00
    endloop
  endfacet
  facet normal 3.140179e-16 -7.071068e-01 7.071068e-01
    outer loop
      vertex 8.838844e-01 2.828430e+00 7.071075e-01
      vertex 1.060661e+00 2.474876e+00 3.535537e-01
      vertex 1.060661e+00 3.181984e+00 1.060661e+00
    endloop
  endfacet
  facet normal 6.666667e-01 -6.666667e-01 3.333333e-01
    outer loop
      vertex 8.838844e-01 2.828430e+00 7.071075e-01
      vertex 1.060661e+00 3.181984e+00 1.060661e+00
      vertex 7.071075e-01 2.828430e+00 1.060661e+00
    endloop
  endfacet
  facet normal -0.000000e+00 -1.000000e+00 0.000000e+00
    outer loop
      vertex 8.838844e-01 2.828430e+00 7.071075e-01
      vertex 7.071075e-01 2.828430e+00 1.060661e+00
      vertex 7.071075e-01 2.828430e+00 3.535538e-01
    endloop
  endfacet
  facet normal -6.666667e-01 -6.666667e-01 3.333333e-01
    outer loop
      vertex 8.838844e-01 2.828430e+00 7.071075e-01
      vertex 7.071075e-01 2.828430e+00 3.535538e-01
      vertex 1.060661e+00 2.474876e+00 3.535537e-01
    endloop
  endfacet
  facet normal 7.071068e-01 1.570089e-16 7.071068e-01
    outer loop
      vertex 7.071075e-01 3.005207e+00 1.414215e+00
      vertex 1.060661e+00 3.181984e+00 1.060661e+00
      vertex 3.535538e-01 3.181984e+00 1.767769e+00
    endloop
  endfacet
  facet normal 6.666667e-01 6.666667e-01 3.333333e-01
    outer loop
      vertex 7.071075e-01 3.005207e+00 1.414215e+00
      vertex 3.535538e-01 3.181984e+00 1.767769e+00
      vertex 7.071075e-01 2.828430e+00 1.767769e+00
    endloop
  endfacet
  facet normal 1.000000e+00 0.000000e+00 0.000000e+00
    outer loop
      vertex 7.071075e-01 3.005207e+00 1.414215e+00
      vertex 7.071075e-01 2.828430e+00 1.767769e+00
      vertex 7.071075e-01 2.828430e+00 1.060661e+00
    endloop
  endfacet
  facet normal 6.666667e-01 -6.666667e-01 3.333333e-01
    outer loop
      vertex 7.071075e-01 3.005207e+00 1.414215e+00
      vertex 7.071075e-01 2.828430e+00 1.060661e+00
      vertex 1.060661e+00 3.181984e+00 1.060661e+00
    endloop
  endfacet
  facet normal 7.850446e-16 7.071068e-01 7.071068e-01
    outer loop
      vertex 5.303306e-01 2.828430e+00 2.121322e+00
      vertex 3.535538e-01 3.181984e+00 1.767769e+00
      vertex 3.535538e-01 2.474876e+00 2.474876e+00
    endloop
  endfacet
  facet normal -6.666667e-01 6.666667e-01 3.333333e-01
    outer loop
      vertex 5.303306e-01 2.828430e+00 2.121322e+00
      vertex 3.535538e-01 2.474876e+00 2.474876e+00
      vertex 7.071075e-01 2.828430e+00 2.474876e+00
    endloop
  endfacet
  facet normal -0.000000e+00 1.000000e+00 0.000000e+00
    outer loop
      vertex 5.303306e-01 2.828430e+00 2.121322e+00
      vertex 7.071075e-01 2.828430e+00 2.474876e+00
      vertex 7.071075e-01 2.828430e+00 1.767769e+00
    endloop
  endfacet
  facet normal 6.666667e-01 6.666667e-01 3.333333e-01
    outer loop
      vertex 5.303306e-01 2.828430e+00 2.121322e+00
      vertex 7.071075e-01 2.828430e+00 1.767769e+00
      vertex 3.535538e-01 3.181984e+00 1.767769e+00
    endloop
  endfacet
  facet normal 7.071068e-01 -4.710268e-16 7.071068e-01
    outer loop
      vertex 7.071075e-01 1.767769e-01 1.414215e+00
      vertex 1.060661e+00 3.535538e-01 1.060661e+00
      vertex 3.535538e-01 3.535538e-01 1.767769e+00
    endloop
  endfacet
  facet normal 6.666667e-01 6.666667e-01 3.333333e-01
    outer loop
      vertex 7.071075e-01 1.767769e-01 1.414215e+00
      vertex 3.535538e-01 3.535538e-01 1.767769e+00
      vertex 7.071075e-01 -2.164892e-17 1.767769e+00
    endloop
  endfacet
  facet normal 1.000000e+00 3.140182e-16 -1.570091e-16
    outer loop
      vertex 7.071075e-01 1.767769e-01 1.414215e+00
      vertex 7.071075e-01 -2.164892e-17 1.767769e+00
      vertex 7.071075e-01 -6.494677e-17 1.060661e+00
    endloop
  endfacet
  facet normal 6.666667e-01 -6.666667e-01 3.333333e-01
    outer loop
      vertex 7.071075e-01 1.767769e-01 1.414215e+00
      vertex 7.071075e-01 -6.494677e-17 1.060661e+00
      vertex 1.060661e+00 3.535538e-01 1.060661e+00
    endloop
  endfacet
  facet normal 7.850446e-16 7.071068e-01 7.071068e-01
    outer loop
      vertex 5.303306e-01 -7.703720e-33 2.121322e+00
      vertex 3.535538e-01 3.535538e-01 1.767769e+00
      vertex 3.535538e-01 -3.535538e-01 2.474876e+00
    endloop
  endfacet
  facet normal -6.666667e-01 6.666667e-01 3.333333e-01
    outer loop
      vertex 5.303306e-01 -7.703720e-33 2.121322e+00
      vertex 3.535538e-01 -3.535538e-01 2.474876e+00
      vertex 7.071075e-01 2.164892e-17 2.474876e+00
    endloop
  endfacet
  facet normal 1.109333e-31 1.000000e+00 -6.123234e-17
    outer loop
      vertex 5.303306e-01 -7.703720e-33 2.121322e+00
      vertex 7.071075e-01 2.164892e-17 2.474876e+00
      vertex 7.071075e-01 -2.164892e-17 1.767769e+00
    endloop
  endfacet
  facet normal 6.666667e-01 6.666667e-01 3.333333e-01
    outer loop
      vertex 5.303306e-01 -7.703720e-33 2.121322e+00
      vertex 7.071075e-01 -2.164892e-17 1.767769e+00
      vertex 3.535538e-01 3.535538e-01 1.767769e+00
    endloop
  endfacet
  facet normal -7.071068e-01 -4.710268e-16 7.071068e-01
    outer loop
      vertex 7.071075e-01 -1.767769e-01 2.828430e+00
      vertex 3.535538e-01 -3.535538e-01 2.474876e+00
      vertex 1.060661e+00 -3.535538e-01 3.181984e+00
    endloop
  endfacet
  facet normal -6.666667e-01 -6.666667e-01 3.333333e-01
    outer loop
      vertex 7.071075e-01 -1.767769e-01 2.828430e+00
      vertex 1.060661e+00 -3.535538e-01 3.181984e+00
      vertex 7.071075e-01 6.494677e-17 3.181984e+00
    endloop
  endfacet
  facet normal -1.000000e+00 3.140182e-16 1.570091e-16
    outer loop
      vertex 7.071075e-01 -1.767769e-01 2.828430e+00
      vertex 7.071075e-01 6.494677e-17 3.181984e+00
      vertex 7.071075e-01 2.164892e-17 2.474876e+00
    endloop
  endfacet
  facet normal -6.666667e-01 6.666667e-01 3.333333e-01
    outer loop
      vertex 7.071075e-01 -1.767769e-01 2.828430e+00
      vertex 7.071075e-01 2.164892e-17 2.474876e+00
      vertex 3.535538e-01 -3.535538e-01 2.474876e+00
    endloop
  endfacet
  facet normal 7.071068e-01 3.532701e-16 7.071068e-01
    outer loop
      vertex 7.071075e-01 1.060661e+00 1.414215e+00
      vertex 3.535538e-01 3.535538e-01 1.767769e+00
      vertex 1.060661e+00 3.535538e-01 1.060661e+00
    endloop
  endfacet
  facet normal -5.773503e-01 -5.773503e-01 5.773503e-01
    outer loop
      vertex 7.071075e-01 1.060661e+00 1.414215e+00
      vertex 1.060661e+00 3.535538e-01 1.060661e+00
      vertex 1.060661e+00 1.060661e+00 1.767769e+00
    endloop
  endfacet
  facet normal -5.773503e-01 -5.773503e-01 5.773503e-01
    outer loop
      vertex 7.071075e-01 1.060661e+00 1.414215e+00
      vertex 1.060661e+00 1.060661e+00 1.767769e+00
      vertex 3.535538e-01 1.767769e+00 1.767769e+00
    endloop
  endfacet
  facet normal -7.071068e-01 3.925223e-16 -7.071068e-01
    outer loop
      vertex 7.071075e-01 1.060661e+00 1.414215e+00
      vertex 3.535538e-01 1.767769e+00 1.767769e+00
      vertex 1.060661e+00 1.767769e+00 1.060661e+00
    endloop
  endfacet
  facet normal -5.773503e-01 5.773503e-01 5.773503e-01
    outer loop
      vertex 7.071075e-01 1.060661e+00 1.414215e+00
      vertex 1.060661e+00 1.767769e+00 1.060661e+00
      vertex 3.535538e-01 1.060661e+00 1.060661e+00
    endloop
  endfacet
  facet normal -5.773503e-01 5.773503e-01 5.773503e-01
    outer loop
      vertex 7.071075e-01 1.060661e+00 1.414215e+00
      vertex 3.535538e-01 1.060661e+00 1.060661e+00
      vertex 3.535538e-01 3.535538e-01 1.767769e+00
    endloop
  endfacet
  facet normal 7.071068e-01 -1.570089e-16 -7.071068e-01
    outer loop
      vertex 7.071075e-01 1.767769e+00 -5.551115e-17
      vertex 1.060661e+00 1.060661e+00 3.535537e-01
      vertex 3.535538e-01 1.060661e+00 -3.535538e-01
    endloop
  endfacet
  facet normal 5.773503e-01 -5.773503e-01 5.773503e-01
    outer loop
      vertex 7.071075e-01 1.767769e+00 -5.551115e-17
      vertex 3.535538e-01 1.060661e+00 -3.535538e-01
      vertex 1.060661e+00 1.767769e+00 -3.535538e-01
    endloop
  endfacet
  facet normal 5.773503e-01 -5.773503e-01 5.773503e-01
    outer loop
      vertex 7.071075e-01 1.767769e+00 -5.551115e-17
      vertex 1.060661e+00 1.767769e+00 -3.535538e-01
      vertex 1.060661e+00 2.474876e+00 3.535537e-01
    endloop
  endfacet
  facet normal -7.071068e-01 3.925223e-17 7.071068e-01
    outer loop
      vertex 7.071075e-01 1.767769e+00 -5.551115e-17
      vertex 1.060661e+00 2.474876e+00 3.535537e-01
      vertex 3.535538e-01 2.474876e+00 -3.535538e-01
    endloop
  endfacet
  facet normal 5.773503e-01 5.773503e-01 5.773503e-01
    outer loop
      vertex 7.071075e-01 1.767769e+00 -5.551115e-17
      vertex 3.535538e-01 2.474876e+00 -3.535538e-01
      vertex 3.535538e-01 1.767769e+00 3.535537e-01
    endloop
  endfacet
  facet normal 5.773503e-01 5.773503e-01 5.773503e-01
    outer loop
      vertex 7.071075e-01 1.767769e+00 -5.551115e-17
      vertex 3.535538e-01 1.767769e+00 3.535537e-01
      vertex 1.060661e+00 1.060661e+00 3.535537e-01
    endloop
  endfacet
  facet normal 7.071068e-01 -3.140179e-16 -7.071068e-01
    outer loop
      vertex 7.071075e-01 8.838844e-01 2.828430e+00
      vertex 3.535538e-01 1.060661e+00 2.474876e+00
      vertex 1.060661e+00 1.060661e+00 3.181984e+00
    endloop
  endfacet
  facet normal 3.333333e-01 6.666667e-01 -6.666667e-01
    outer loop
      vertex 7.071075e-01 8.838844e-01 2.828430e+00
      vertex 1.060661e+00 1.060661e+00 3.181984e+00
      vertex 1.060661e+00 7.071075e-01 2.828430e+00
    endloop
  endfacet
  facet normal 0.000000e+00 -0.000000e+00 -1.000000e+00
    outer loop
      vertex 7.071075e-01 8.838844e-01 2.828430e+00
      vertex 1.060661e+00 7.071075e-01 2.828430e+00
      vertex 3.535538e-01 7.071075e-01 2.828430e+00
    endloop
  endfacet
  facet normal 3.333333e-01 -6.666667e-01 -6.666667e-01
    outer loop
      vertex 7.071075e-01 8.838844e-01 2.828430e+00
      vertex 3.535538e-01 7.071075e-01 2.828430e+00
      vertex 3.535538e-01 1.060661e+00 2.474876e+00
    endloop
  endfacet
  facet normal 7.071068e-01 7.071068e-01 -1.570089e-16
    outer loop
      vertex 1.414215e+00 7.071075e-01 3.005207e+00
      vertex 1.060661e+00 1.060661e+00 3.181984e+00
      vertex 1.767769e+00 3.535538e-01 3.181984e+00
    endloop
  endfacet
  facet normal 3.333333e-01 6.666667e-01 6.666667e-01
    outer loop
      vertex 1.414215e+00 7.071075e-01 3.005207e+00
      vertex 1.767769e+00 3.535538e-01 3.181984e+00
      vertex 1.767769e+00 7.071075e-01 2.828430e+00
    endloop
  endfacet
  facet normal 0.000000e+00 1.000000e+00 0.000000e+00
    outer loop
      vertex 1.414215e+00 7.071075e-01 3.005207e+00
      vertex 1.767769e+00 7.071075e-01 2.828430e+00
      vertex 1.060661e+00 7.071075e-01 2.828430e+00
    endloop
  endfacet
  facet normal 3.333333e-01 6.666667e-01 -6.666667e-01
    outer loop
      vertex 1.414215e+00 7.071075e-01 3.005207e+00
      vertex 1.060661e+00 7.071075e-01 2.828430e+00
      vertex 1.060661e+00 1.060661e+00 3.181984e+00
    endloop
  endfacet
  facet normal 7.071068e-01 -3.140179e-16 7.071068e-01
    outer loop
      vertex 2.121323e+00 5.303306e-01 2.828430e+00
      vertex 1.767769e+00 3.535538e-01 3.181984e+00
      vertex 2.474876e+00 3.535538e-01 2.474876e+00
    endloop
  endfacet
  facet normal 3.333333e-01 -6.666667e-01 6.666667e-01
    outer loop
      vertex 2.121323e+00 5.303306e-01 2.828430e+00
      vertex 2.474876e+00 3.535538e-01 2.474876e+00
      vertex 2.474876e+00 7.071075e-01 2.828430e+00
    endloop
  endfacet
  facet normal 0.000000e+00 -0.000000e+00 1.000000e+00
    outer loop
      vertex 2.121323e+00 5.303306e-01 2.828430e+00
      vertex 2.474876e+00 7.071075e-01 2.828430e+00
      vertex 1.767769e+00 7.071075e-01 2.828430e+00
    endloop
  endfacet
  facet normal 3.333333e-01 6.666667e-01 6.666667e-01
    outer loop
      vertex 2.121323e+00 5.303306e-01 2.828430e+00
      vertex 1.767769e+00 7.071075e-01 2.828430e+00
      vertex 1.767769e+00 3.535538e-01 3.181984e+00
    endloop
  endfacet
  facet normal 7.071068e-01 7.071068e-01 3.140179e-16
    outer loop
      vertex 1.414215e+00 7.071075e-01 1.767769e-01
      vertex 1.060661e+00 1.060661e+00 3.535537e-01
      vertex 1.767769e+00 3.535537e-01 3.535537e-01
    endloop
  endfacet
  facet normal 3.333333e-01 6.666667e-01 6.666667e-01
    outer loop
      vertex 1.414215e+00 7.071075e-01 1.767769e-01
      vertex 1.767769e+00 3.535537e-01 3.535537e-01
      vertex 1.767769e+00 7.071075e-01 -5.551115e-17
    endloop
  endfacet
  facet normal 0.000000e+00 1.000000e+00 0.000000e+00
    outer loop
      vertex 1.414215e+00 7.071075e-01 1.767769e-01
      vertex 1.767769e+00 7.071075e-01 -5.551115e-17
      vertex 1.060661e+00 7.071075e-01 -5.551115e-17
    endloop
  endfacet
  facet normal 3.333333e-01 6.666667e-01 -6.666667e-01
    outer loop
      vertex 1.414215e+00 7.071075e-01 1.767769e-01
      vertex 1.060661e+00 7.071075e-01 -5.551115e-17
      vertex 1.060661e+00 1.060661e+00 3.535537e-01
    endloop
  endfacet
  facet normal 7.071068e-01 9.420536e-16 7.071068e-01
    outer loop
      vertex 2.121322e+00 5.303306e-01 -5.551115e-17
      vertex 1.767769e+00 3.535537e-01 3.535537e-01
      vertex 2.474876e+00 3.535537e-01 -3.535538e-01
    endloop
  endfacet
  facet normal 3.333333e-01 -6.666667e-01 6.666667e-01
    outer loop
      vertex 2.121322e+00 5.303306e-01 -5.551115e-17
      vertex 2.474876e+00 3.535537e-01 -3.535538e-01
      vertex 2.474876e+00 7.071075e-01 -5.551115e-17
    endloop
  endfacet
  facet normal 0.000000e+00 -0.000000e+00 1.000000e+00
    outer loop
      vertex 2.121322e+00 5.303306e-01 -5.551115e-17
      vertex 2.474876e+00 7.071075e-01 -5.551115e-17
      vertex 1.767769e+00 7.071075e-01 -5.551115e-17
    endloop
  endfacet
  facet normal 3.333333e-01 6.666667e-01 6.666667e-01
    outer loop
      vertex 2.121322e+00 5.303306e-01 -5.551115e-17
      vertex 1.767769e+00 7.071075e-01 -5.551115e-17
      vertex 1.767769e+00 3.535537e-01 3.535537e-01
    endloop
  endfacet
  facet normal 7.071068e-01 -7.071068e-01 3.140179e-16
    outer loop
      vertex 2.828430e+00 7.071075e-01 -1.767769e-01
      vertex 2.474876e+00 3.535537e-01 -3.535538e-01
      vertex 3.181984e+00 1.060661e+00 -3.535538e-01
    endloop
  endfacet
  facet normal 3.333333e-01 -6.666667e-01 -6.666667e-01
    outer loop
      vertex 2.828430e+00 7.071075e-01 -1.767769e-01
      vertex 3.181984e+00 1.060661e+00 -3.535538e-01
      vertex 3.181984e+00 7.071075e-01 -5.551115e-17
    endloop
  endfacet
  facet normal 0.000000e+00 -1.000000e+00 0.000000e+00
    outer loop
      vertex 2.828430e+00 7.071075e-01 -1.767769e-01
      vertex 3.181984e+00 7.071075e-01 -5.551115e-17
      vertex 2.474876e+00 7.071075e-01 -5.551115e-17
    endloop
  endfacet
  facet normal 3.333333e-01 -6.666667e-01 6.666667e-01
    outer loop
      vertex 2.828430e+00 7.071075e-01 -1.767769e-01
      vertex 2.474876e+00 7.071075e-01 -5.551115e-17
      vertex 2.474876e+00 3.535537e-01 -3.535538e-01
    endloop
  endfacet
  facet normal 7.071068e-01 7.071068e-01 2.747656e-16
    outer loop
      vertex 1.414215e+00 7.071075e-01 1.060661e+00
      vertex 1.767769e+00 3.535537e-01 3.535537e-01
      vertex 1.060661e+00 1.060661e+00 3.535537e-01
    endloop
  endfacet
  facet normal 5.773503e-01 -5.773503e-01 -5.773503e-01
    outer loop
      vertex 1.414215e+00 7.071075e-01 1.060661e+00
      vertex 1.060661e+00 1.060661e+00 3.535537e-01
      vertex 1.767769e+00 1.060661e+00 1.060661e+00
    endloop
  endfacet
  facet normal 5.773503e-01 -5.773503e-01 -5.773503e-01
    outer loop
      vertex 1.414215e+00 7.071075e-01 1.060661e+00
      vertex 1.767769e+00 1.060661e+00 1.060661e+00
      vertex 1.767769e+00 3.535538e-01 1.767769e+00
    endloop
  endfacet
  facet normal -7.071068e-01 -7.071068e-01 3.532701e-16
    outer loop
      vertex 1.414215e+00 7.071075e-01 1.060661e+00
      vertex 1.767769e+00 3.535538e-01 1.767769e+00
      vertex 1.060661e+00 1.060661e+00 1.767769e+00
    endloop
  endfacet
  facet normal 5.773503e-01 -5.773503e-01 5.773503e-01
    outer loop
      vertex 1.414215e+00 7.071075e-01 1.060661e+00
      vertex 1.060661e+00 1.060661e+00 1.767769e+00
      vertex 1.060661e+00 3.535538e-01 1.060661e+00
    endloop
  endfacet
  facet normal 5.773503e-01 -5.773503e-01 5.773503e-01
    outer loop
      vertex 1.414215e+00 7.071075e-01 1.060661e+00
      vertex 1.060661e+00 3.535538e-01 1.060661e+00
      vertex 1.767769e+00 3.535537e-01 3.535537e-01
    endloop
  endfacet
  facet normal 1.962612e-16 7.071068e-01 7.071068e-01
    outer loop
      vertex -3.535537e-01 2.828430e+00 2.121322e+00
      vertex 3.535538e-01 2.474876e+00 2.474876e+00
      vertex 3.535538e-01 3.181984e+00 1.767769e+00
    endloop
  endfacet
  facet normal 5.773503e-01 -5.773503e-01 5.773503e-01
    outer loop
      vertex -3.535537e-01 2.828430e+00 2.121322e+00
      vertex 3.535538e-01 3.181984e+00 1.767769e+00
      vertex -3.535538e-01 3.181984e+00 2.474876e+00
    endloop
  endfacet
  facet normal 5.773503e-01 -5.773503e-01 5.773503e-01
    outer loop
      vertex -3.535537e-01 2.828430e+00 2.121322e+00
      vertex -3.535538e-01 3.181984e+00 2.474876e+00
      vertex -1.060661e+00 2.474876e+00 2.474876e+00
    endloop
  endfacet
  facet normal 1.962612e-16 -7.071068e-01 -7.071068e-01
    outer loop
      vertex -3.535537e-01 2.828430e+00 2.121322e+00
      vertex -1.060661e+00 2.474876e+00 2.474876e+00
      vertex -1.060661e+00 3.181984e+00 1.767769e+00
    endloop
  endfacet
  facet normal -5.773503e-01 -5.773503e-01 5.773503e-01
    outer loop
      vertex -3.535537e-01 2.828430e+00 2.121322e+00
      vertex -1.060661e+00 3.181984e+00 1.767769e+00
      vertex -3.535538e-01 2.474876e+00 1.767769e+00
    endloop
  endfacet
  facet normal -5.773503e-01 -5.773503e-01 5.773503e-01
    outer loop
      vertex -3.535537e-01 2.828430e+00 2.121322e+00
      vertex -3.535538e-01 2.474876e+00 1.767769e+00
      vertex 3.535538e-01 2.474876e+00 2.474876e+00
    endloop
  endfacet
  facet normal 7.071068e-01 7.071068e-01 1.962612e-16
    outer loop
      vertex 2.828430e+00 2.121322e+00 -3.535537e-01
      vertex 2.474876e+00 2.474876e+00 3.535537e-01
      vertex 3.181984e+00 1.767769e+00 3.535537e-01
    endloop
  endfacet
  facet normal -5.773503e-01 5.773503e-01 5.773503e-01
    outer loop
      vertex 2.828430e+00 2.121322e+00 -3.535537e-01
      vertex 3.181984e+00 1.767769e+00 3.535537e-01
      vertex 3.181984e+00 2.474876e+00 -3.535538e-01
    endloop
  endfacet
  facet normal -5.773503e-01 5.773503e-01 5.773503e-01
    outer loop
      vertex 2.828430e+00 2.121322e+00 -3.535537e-01
      vertex 3.181984e+00 2.474876e+00 -3.535538e-01
      vertex 2.474876e+00 2.474876e+00 -1.060661e+00
    endloop
  endfacet
  facet normal -7.071068e-01 -7.071068e-01 3.140179e-16
    outer loop
      vertex 2.828430e+00 2.121322e+00 -3.535537e-01
      vertex 2.474876e+00 2.474876e+00 -1.060661e+00
      vertex 3.181984e+00 1.767769e+00 -1.060661e+00
    endloop
  endfacet
  facet normal -5.773503e-01 5.773503e-01 -5.773503e-01
    outer loop
      vertex 2.828430e+00 2.121322e+00 -3.535537e-01
      vertex 3.181984e+00 1.767769e+00 -1.060661e+00
      vertex 2.474876e+00 1.767769e+00 -3.535538e-01
    endloop
  endfacet
  facet normal -5.773503e-01 5.773503e-01 -5.773503e-01
    outer loop
      vertex 2.828430e+00 2.121322e+00 -3.535537e-01
      vertex 2.474876e+00 1.767769e+00 -3.535538e-01
      vertex 2.474876e+00 2.474876e+00 3.535537e-01
    endloop
  endfacet
  facet normal 7.071068e-01 5.495312e-16 7.071068e-01
    outer loop
      vertex 2.121323e+00 -3.535537e-01 2.828430e+00
      vertex 2.474876e+00 3.535538e-01 2.474876e+00
      vertex 1.767769e+00 3.535538e-01 3.181984e+00
    endloop
  endfacet
  facet normal 5.773503e-01 5.773503e-01 -5.773503e-01
    outer loop
      vertex 2.121323e+00 -3.535537e-01 2.828430e+00
      vertex 1.767769e+00 3.535538e-01 3.181984e+00
      vertex 2.474876e+00 -3.535538e-01 3.181984e+00
    endloop
  endfacet
  facet normal 5.773503e-01 5.773503e-01 -5.773503e-01
    outer loop
      vertex 2.121323e+00 -3.535537e-01 2.828430e+00
      vertex 2.474876e+00 -3.535538e-01 3.181984e+00
      vertex 2.474876e+00 -1.060661e+00 2.474876e+00
    endloop
  endfacet
  facet normal -7.071068e-01 6.672879e-16 -7.071068e-01
    outer loop
      vertex 2.121323e+00 -3.535537e-01 2.828430e+00
      vertex 2.474876e+00 -1.060661e+00 2.474876e+00
      vertex 1.767769e+00 -1.060661e+00 3.181984e+00
    endloop
  endfacet
  facet normal 5.773503e-01 -5.773503e-01 -5.773503e-01
    outer loop
      vertex 2.121323e+00 -3.535537e-01 2.828430e+00
      vertex 1.767769e+00 -1.060661e+00 3.181984e+00
      vertex 1.767769e+00 -3.535538e-01 2.474876e+00
    endloop
  endfacet
  facet normal 5.773503e-01 -5.773503e-01 -5.773503e-01
    outer loop
      vertex 2.121323e+00 -3.535537e-01 2.828430e+00
      vertex 1.767769e+00 -3.535538e-01 2.474876e+00
      vertex 2.474876e+00 3.535538e-01 2.474876e+00
    endloop
  endfacet
  facet normal -7.071068e-01 -7.071068e-01 0.000000e+00
    outer loop
      vertex 1.414215e+00 7.071075e-01 1.944546e+00
      vertex 1.060661e+00 1.060661e+00 1.767769e+00
      vertex 1.767769e+00 3.535538e-01 1.767769e+00
    endloop
  endfacet
  facet normal -6.666667e-01 -3.333333e-01 -6.666667e-01
    outer loop
      vertex 1.414215e+00 7.071075e-01 1.944546e+00
      vertex 1.767769e+00 3.535538e-01 1.767769e+00
      vertex 1.414215e+00 3.535538e-01 2.121322e+00
    endloop
  endfacet
  facet normal -1.000000e+00 0.000000e+00 0.000000e+00
    outer loop
      vertex 1.414215e+00 7.071075e-01 1.944546e+00
      vertex 1.414215e+00 3.535538e-01 2.121322e+00
      vertex 1.414215e+00 1.060661e+00 2.121322e+00
    endloop
  endfacet
  facet normal -6.666667e-01 -3.333333e-01 6.666667e-01
    outer loop
      vertex 1.414215e+00 7.071075e-01 1.944546e+00
      vertex 1.414215e+00 1.060661e+00 2.121322e+00
      vertex 1.060661e+00 1.060661e+00 1.767769e+00
    endloop
  endfacet
  facet normal 7.850446e-16 -7.071068e-01 -7.071068e-01
    outer loop
      vertex 1.590992e+00 0.000000e+00 2.121322e+00
      vertex 1.767769e+00 3.535538e-01 1.767769e+00
      vertex 1.767769e+00 -3.535538e-01 2.474876e+00
    endloop
  endfacet
  facet normal 6.666667e-01 -3.333333e-01 -6.666667e-01
    outer loop
      vertex 1.590992e+00 0.000000e+00 2.121322e+00
      vertex 1.767769e+00 -3.535538e-01 2.474876e+00
      vertex 1.414215e+00 -3.535538e-01 2.121322e+00
    endloop
  endfacet
  facet normal -0.000000e+00 0.000000e+00 -1.000000e+00
    outer loop
      vertex 1.590992e+00 0.000000e+00 2.121322e+00
      vertex 1.414215e+00 -3.535538e-01 2.121322e+00
      vertex 1.414215e+00 3.535538e-01 2.121322e+00
    endloop
  endfacet
  facet normal -6.666667e-01 -3.333333e-01 -6.666667e-01
    outer loop
      vertex 1.590992e+00 0.000000e+00 2.121322e+00
      vertex 1.414215e+00 3.535538e-01 2.121322e+00
      vertex 1.767769e+00 3.535538e-01 1.767769e+00
    endloop
  endfacet
  facet normal 7.071068e-01 -7.071068e-01 -4.710268e-16
    outer loop
      vertex 1.414215e+00 -7.071075e-01 2.298099e+00
      vertex 1.767769e+00 -3.535538e-01 2.474876e+00
      vertex 1.060661e+00 -1.060661e+00 2.474876e+00
    endloop
  endfacet
  facet normal 6.666667e-01 -3.333333e-01 6.666667e-01
    outer loop
      vertex 1.414215e+00 -7.071075e-01 2.298099e+00
      vertex 1.060661e+00 -1.060661e+00 2.474876e+00
      vertex 1.414215e+00 -1.060661e+00 2.121322e+00
    endloop
  endfacet
  facet normal 1.000000e+00 0.000000e+00 0.000000e+00
    outer loop
      vertex 1.414215e+00 -7.071075e-01 2.298099e+00
      vertex 1.414215e+00 -1.060661e+00 2.121322e+00
      vertex 1.414215e+00 -3.535538e-01 2.121322e+00
    endloop
  endfacet
  facet normal 6.666667e-01 -3.333333e-01 -6.666667e-01
    outer loop
      vertex 1.414215e+00 -7.071075e-01 2.298099e+00
      vertex 1.414215e+00 -3.535538e-01 2.121322e+00
      vertex 1.767769e+00 -3.535538e-01 2.474876e+00
    endloop
  endfacet
  facet normal 1.177567e-16 -7.071068e-01 7.071068e-01
    outer loop
      vertex 3.535537e-01 1.414215e+00 2.121322e+00
      vertex 1.060661e+00 1.060661e+00 1.767769e+00
      vertex 1.060661e+00 1.767769e+00 2.474876e+00
    endloop
  endfacet
  facet normal 5.773503e-01 -5.773503e-01 -5.773503e-01
    outer loop
      vertex 3.535537e-01 1.414215e+00 2.121322e+00
      vertex 1.060661e+00 1.767769e+00 2.474876e+00
      vertex 3.535538e-01 1.060661e+00 2.474876e+00
    endloop
  endfacet
  facet normal 5.773503e-01 -5.773503e-01 -5.773503e-01
    outer loop
      vertex 3.535537e-01 1.414215e+00 2.121322e+00
      vertex 3.535538e-01 1.060661e+00 2.474876e+00
      vertex -3.535538e-01 1.060661e+00 1.767769e+00
    endloop
  endfacet
  facet normal 1.177567e-16 7.071068e-01 -7.071068e-01
    outer loop
      vertex 3.535537e-01 1.414215e+00 2.121322e+00
      vertex -3.535538e-01 1.060661e+00 1.767769e+00
      vertex -3.535538e-01 1.767769e+00 2.474876e+00
    endloop
  endfacet
  facet normal -5.773503e-01 -5.773503e-01 -5.773503e-01
    outer loop
      vertex 3.535537e-01 1.414215e+00 2.121322e+00
      vertex -3.535538e-01 1.767769e+00 2.474876e+00
      vertex 3.535538e-01 1.767769e+00 1.767769e+00
    endloop
  endfacet
  facet normal -5.773503e-01 -5.773503e-01 -5.773503e-01
    outer loop
      vertex 3.535537e-01 1.414215e+00 2.121322e+00
      vertex 3.535538e-01 1.767769e+00 1.767769e+00
      vertex 1.060661e+00 1.060661e+00 1.767769e+00
    endloop
  endfacet
  facet normal 4.710268e-16 -7.071068e-01 7.071068e-01
    outer loop
      vertex 1.237438e+00 1.414215e+00 2.121322e+00
      vertex 1.060661e+00 1.767769e+00 2.474876e+00
      vertex 1.060661e+00 1.060661e+00 1.767769e+00
    endloop
  endfacet
  facet normal -6.666667e-01 -3.333333e-01 6.666667e-01
    outer loop
      vertex 1.237438e+00 1.414215e+00 2.121322e+00
      vertex 1.060661e+00 1.060661e+00 1.767769e+00
      vertex 1.414215e+00 1.060661e+00 2.121322e+00
    endloop
  endfacet
  facet normal -0.000000e+00 0.000000e+00 1.000000e+00
    outer loop
      vertex 1.237438e+00 1.414215e+00 2.121322e+00
      vertex 1.414215e+00 1.060661e+00 2.121322e+00
      vertex 1.414215e+00 1.767769e+00 2.121322e+00
    endloop
  endfacet
  facet normal 6.666667e-01 -3.333333e-01 6.666667e-01
    outer loop
      vertex 1.237438e+00 1.414215e+00 2.121322e+00
      vertex 1.414215e+00 1.767769e+00 2.121322e+00
      vertex 1.060661e+00 1.767769e+00 2.474876e+00
    endloop
  endfacet
  facet normal -7.071068e-01 -7.071068e-01 0.000000e+00
    outer loop
      vertex 1.414215e+00 7.071075e-01 1.944546e+00
      vertex 1.060661e+00 1.060661e+00 1.767769e+00
      vertex 1.767769e+00 3.535538e-01 1.767769e+00
    endloop
  endfacet
  facet normal -6.666667e-01 -3.333333e-01 -6.666667e-01
    outer loop
      vertex 1.414215e+00 7.071075e-01 1.944546e+00
      vertex 1.767769e+00 3.535538e-01 1.767769e+00
      vertex 1.414215e+00 3.535538e-01 2.121322e+00
    endloop
  endfacet
  facet normal -1.000000e+00 0.000000e+00 0.000000e+00
    outer loop
      vertex 1.414215e+00 7.071075e-01 1.944546e+00
      vertex 1.414215e+00 3.535538e-01 2.121322e+00
      vertex 1.414215e+00 1.060661e+00 2.121322e+00
    endloop
  endfacet
  facet normal -6.666667e-01 -3.333333e-01 6.666667e-01
    outer loop
      vertex 1.414215e+00 7.071075e-01 1.944546e+00
      vertex 1.414215e+00 1.060661e+00 2.121322e+00
      vertex 1.060661e+00 1.060661e+00 1.767769e+00
    endloop
  endfacet
  facet normal 7.850446e-16 -7.071068e-01 -7.071068e-01
    outer loop
      vertex 1.590992e+00 0.000000e+00 2.121322e+00
      vertex 1.767769e+00 3.535538e-01 1.767769e+00
      vertex 1.767769e+00 -3.535538e-01 2.474876e+00
    endloop
  endfacet
  facet normal 6.666667e-01 -3.333333e-01 -6.666667e-01
    outer loop
      vertex 1.590992e+00 0.000000e+00 2.121322e+00
      vertex 1.767769e+00 -3.535538e-01 2.474876e+00
      vertex 1.414215e+00 -3.535538e-01 2.121322e+00
    endloop
  endfacet
  facet normal -0.000000e+00 0.000000e+00 -1.000000e+00
    outer loop
      vertex 1.590992e+00 0.000000e+00 2.121322e+00
      vertex 1.414215e+00 -3.535538e-01 2.121322e+00
      vertex 1.414215e+00 3.535538e-01 2.121322e+00
    endloop
  endfacet
  facet normal -6.666667e-01 -3.333333e-01 -6.666667e-01
    outer loop
      vertex 1.590992e+00 0.000000e+00 2.121322e+00
      vertex 1.414215e+00 3.535538e-01 2.121322e+00
      vertex 1.767769e+00 3.535538e-01 1.767769e+00
    endloop
  endfacet
  facet normal -7.071068e-01 -1.570089e-16 -7.071068e-01
    outer loop
      vertex 7.071075e-01 1.944546e+00 1.414215e+00
      vertex 1.060661e+00 1.767769e+00 1.060661e+00
      vertex 3.535538e-01 1.767769e+00 1.767769e+00
    endloop
  endfacet
  facet normal -3.333333e-01 -6.666667e-01 -6.666667e-01
    outer loop
      vertex 7.071075e-01 1.944546e+00 1.414215e+00
      vertex 3.535538e-01 1.767769e+00 1.767769e+00
      vertex 3.535538e-01 2.121322e+00 1.414215e+00
    endloop
  endfacet
  facet normal 0.000000e+00 0.000000e+00 -1.000000e+00
    outer loop
      vertex 7.071075e-01 1.944546e+00 1.414215e+00
      vertex 3.535538e-01 2.121322e+00 1.414215e+00
      vertex 1.060661e+00 2.121322e+00 1.414215e+00
    endloop
  endfacet
  facet normal -3.333333e-01 6.666667e-01 -6.666667e-01
    outer loop
      vertex 7.071075e-01 1.944546e+00 1.414215e+00
      vertex 1.060661e+00 2.121322e+00 1.414215e+00
      vertex 1.060661e+00 1.767769e+00 1.060661e+00
    endloop
  endfacet
  facet normal -7.071068e-01 -7.071068e-01 9.420536e-16
    outer loop
      vertex 5.551115e-17 2.121322e+00 1.590992e+00
      vertex 3.535538e-01 1.767769e+00 1.767769e+00
      vertex -3.535538e-01 2.474876e+00 1.767769e+00
    endloop
  endfacet
  facet normal -3.333333e-01 -6.666667e-01 6.666667e-01
    outer loop
      vertex 5.551115e-17 2.121322e+00 1.590992e+00
      vertex -3.535538e-01 2.474876e+00 1.767769e+00
      vertex -3.535538e-01 2.121322e+00 1.414215e+00
    endloop
  endfacet
  facet normal 0.000000e+00 -1.000000e+00 -0.000000e+00
    outer loop
      vertex 5.551115e-17 2.121322e+00 1.590992e+00
      vertex -3.535538e-01 2.121322e+00 1.414215e+00
      vertex 3.535538e-01 2.121322e+00 1.414215e+00
    endloop
  endfacet
  facet normal -3.333333e-01 -6.666667e-01 -6.666667e-01
    outer loop
      vertex 5.551115e-17 2.121322e+00 1.590992e+00
      vertex 3.535538e-01 2.121322e+00 1.414215e+00
      vertex 3.535538e-01 1.767769e+00 1.767769e+00
    endloop
  endfacet
  facet normal -7.071068e-01 0.000000e+00 7.071068e-01
    outer loop
      vertex -7.071075e-01 2.298099e+00 1.414215e+00
      vertex -3.535538e-01 2.474876e+00 1.767769e+00
      vertex -1.060661e+00 2.474876e+00 1.060661e+00
    endloop
  endfacet
  facet normal -3.333333e-01 6.666667e-01 6.666667e-01
    outer loop
      vertex -7.071075e-01 2.298099e+00 1.414215e+00
      vertex -1.060661e+00 2.474876e+00 1.060661e+00
      vertex -1.060661e+00 2.121322e+00 1.414215e+00
    endloop
  endfacet
  facet normal 0.000000e+00 0.000000e+00 1.000000e+00
    outer loop
      vertex -7.071075e-01 2.298099e+00 1.414215e+00
      vertex -1.060661e+00 2.121322e+00 1.414215e+00
      vertex -3.535538e-01 2.121322e+00 1.414215e+00
    endloop
  endfacet
  facet normal -3.333333e-01 -6.666667e-01 6.666667e-01
    outer loop
      vertex -7.071075e-01 2.298099e+00 1.414215e+00
      vertex -3.535538e-01 2.121322e+00 1.414215e+00
      vertex -3.535538e-01 2.474876e+00 1.767769e+00
    endloop
  endfacet
  facet normal -7.071068e-01 7.071068e-01 1.177567e-16
    outer loop
      vertex 1.414215e+00 2.121322e+00 3.535537e-01
      vertex 1.060661e+00 1.767769e+00 1.060661e+00
      vertex 1.767769e+00 2.474876e+00 1.060661e+00
    endloop
  endfacet
  facet normal -5.773503e-01 -5.773503e-01 5.773503e-01
    outer loop
      vertex 1.414215e+00 2.121322e+00 3.535537e-01
      vertex 1.767769e+00 2.474876e+00 1.060661e+00
      vertex 1.060661e+00 2.474876e+00 3.535537e-01
    endloop
  endfacet
  facet normal -5.773503e-01 -5.773503e-01 5.773503e-01
    outer loop
      vertex 1.414215e+00 2.121322e+00 3.535537e-01
      vertex 1.060661e+00 2.474876e+00 3.535537e-01
      vertex 1.060661e+00 1.767769e+00 -3.535538e-01
    endloop
  endfacet
  facet normal 7.071068e-01 -7.071068e-01 1.177567e-16
    outer loop
      vertex 1.414215e+00 2.121322e+00 3.535537e-01
      vertex 1.060661e+00 1.767769e+00 -3.535538e-01
      vertex 1.767769e+00 2.474876e+00 -3.535538e-01
    endloop
  endfacet
  facet normal -5.773503e-01 -5.773503e-01 -5.773503e-01
    outer loop
      vertex 1.414215e+00 2.121322e+00 3.535537e-01
      vertex 1.767769e+00 2.474876e+00 -3.535538e-01
      vertex 1.767769e+00 1.767769e+00 3.535537e-01
    endloop
  endfacet
  facet normal -5.773503e-01 -5.773503e-01 -5.773503e-01
    outer loop
      vertex 1.414215e+00 2.121322e+00 3.535537e-01
      vertex 1.767769e+00 1.767769e+00 3.535537e-01
      vertex 1.060661e+00 1.767769e+00 1.060661e+00
    endloop
  endfacet
  facet normal -7.071068e-01 7.071068e-01 4.710268e-16
    outer loop
      vertex 1.414215e+00 2.121322e+00 1.237438e+00
      vertex 1.767769e+00 2.474876e+00 1.060661e+00
      vertex 1.060661e+00 1.767769e+00 1.060661e+00
    endloop
  endfacet
  facet normal -3.333333e-01 6.666667e-01 -6.666667e-01
    outer loop
      vertex 1.414215e+00 2.121322e+00 1.237438e+00
      vertex 1.060661e+00 1.767769e+00 1.060661e+00
      vertex 1.060661e+00 2.121322e+00 1.414215e+00
    endloop
  endfacet
  facet normal 0.000000e+00 1.000000e+00 -0.000000e+00
    outer loop
      vertex 1.414215e+00 2.121322e+00 1.237438e+00
      vertex 1.060661e+00 2.121322e+00 1.414215e+00
      vertex 1.767769e+00 2.121322e+00 1.414215e+00
    endloop
  endfacet
  facet normal -3.333333e-01 6.666667e-01 6.666667e-01
    outer loop
      vertex 1.414215e+00 2.121322e+00 1.237438e+00
      vertex 1.767769e+00 2.121322e+00 1.414215e+00
      vertex 1.767769e+00 2.474876e+00 1.060661e+00
    endloop
  endfacet
  facet normal -7.071068e-01 -1.570089e-16 -7.071068e-01
    outer loop
      vertex 7.071075e-01 1.944546e+00 1.414215e+00
      vertex 1.060661e+00 1.767769e+00 1.060661e+00
      vertex 3.535538e-01 1.767769e+00 1.767769e+00
    endloop
  endfacet
  facet normal -3.333333e-01 -6.666667e-01 -6.666667e-01
    outer loop
      vertex 7.071075e-01 1.944546e+00 1.414215e+00
      vertex 3.535538e-01 1.767769e+00 1.767769e+00
      vertex 3.535538e-01 2.121322e+00 1.414215e+00
    endloop
  endfacet
  facet normal 0.000000e+00 0.000000e+00 -1.000000e+00
    outer loop
      vertex 7.071075e-01 1.944546e+00 1.414215e+00
      vertex 3.535538e-01 2.121322e+00 1.414215e+00
      vertex 1.060661e+00 2.121322e+00 1.414215e+00
    endloop
  endfacet
  facet normal -3.333333e-01 6.666667e-01 -6.666667e-01
    outer loop
      vertex 7.071075e-01 1.944546e+00 1.414215e+00
      vertex 1.060661e+00 2.121322e+00 1.414215e+00
      vertex 1.060661e+00 1.767769e+00 1.060661e+00
    endloop
  endfacet
  facet normal -7.071068e-01 -7.071068e-01 9.420536e-16
    outer loop
      vertex 5.551115e-17 2.121322e+00 1.590992e+00
      vertex 3.535538e-01 1.767769e+00 1.767769e+00
      vertex -3.535538e-01 2.474876e+00 1.767769e+00
    endloop
  endfacet
  facet normal -3.333333e-01 -6.666667e-01 6.666667e-01
    outer loop
      vertex 5.551115e-17 2.121322e+00 1.590992e+00
      vertex -3.535538e-01 2.474876e+00 1.767769e+00
      vertex -3.535538e-01 2.121322e+00 1.414215e+00
    endloop
  endfacet
  facet normal 0.000000e+00 -1.000000e+00 -0.000000e+00
    outer loop
      vertex 5.551115e-17 2.121322e+00 1.590992e+00
      vertex -3.535538e-01 2.121322e+00 1.414215e+00
      vertex 3.535538e-01 2.121322e+00 1.414215e+00
    endloop
  endfacet
  facet normal -3.333333e-01 -6.666667e-01 -6.666667e-01
    outer loop
      vertex 5.551115e-17 2.121322e+00 1.590992e+00
      vertex 3.535538e-01 2.121322e+00 1.414215e+00
      vertex 3.535538e-01 1.767769e+00 1.767769e+00
    endloop
  endfacet
  facet normal 3.140179e-16 -7.071068e-01 -7.071068e-01
    outer loop
      vertex 1.944546e+00 1.414215e+00 7.071075e-01
      vertex 1.767769e+00 1.060661e+00 1.060661e+00
      vertex 1.767769e+00 1.767769e+00 3.535537e-01
    endloop
  endfacet
  facet normal -6.666667e-01 -6.666667e-01 -3.333333e-01
    outer loop
      vertex 1.944546e+00 1.414215e+00 7.071075e-01
      vertex 1.767769e+00 1.767769e+00 3.535537e-01
      vertex 2.121322e+00 1.414215e+00 3.535537e-01
    endloop
  endfacet
  facet normal 0.000000e+00 -1.000000e+00 0.000000e+00
    outer loop
      vertex 1.944546e+00 1.414215e+00 7.071075e-01
      vertex 2.121322e+00 1.414215e+00 3.535537e-01
      vertex 2.121322e+00 1.414215e+00 1.060661e+00
    endloop
  endfacet
  facet normal 6.666667e-01 -6.666667e-01 -3.333333e-01
    outer loop
      vertex 1.944546e+00 1.414215e+00 7.071075e-01
      vertex 2.121322e+00 1.414215e+00 1.060661e+00
      vertex 1.767769e+00 1.060661e+00 1.060661e+00
    endloop
  endfacet
  facet normal -7.071068e-01 9.420536e-16 -7.071068e-01
    outer loop
      vertex 2.121322e+00 1.590992e+00 -4.163336e-17
      vertex 1.767769e+00 1.767769e+00 3.535537e-01
      vertex 2.474876e+00 1.767769e+00 -3.535538e-01
    endloop
  endfacet
  facet normal -6.666667e-01 6.666667e-01 -3.333333e-01
    outer loop
      vertex 2.121322e+00 1.590992e+00 -4.163336e-17
      vertex 2.474876e+00 1.767769e+00 -3.535538e-01
      vertex 2.121322e+00 1.414215e+00 -3.535538e-01
    endloop
  endfacet
  facet normal -1.000000e+00 -0.000000e+00 0.000000e+00
    outer loop
      vertex 2.121322e+00 1.590992e+00 -4.163336e-17
      vertex 2.121322e+00 1.414215e+00 -3.535538e-01
      vertex 2.121322e+00 1.414215e+00 3.535537e-01
    endloop
  endfacet
  facet normal -6.666667e-01 -6.666667e-01 -3.333333e-01
    outer loop
      vertex 2.121322e+00 1.590992e+00 -4.163336e-17
      vertex 2.121322e+00 1.414215e+00 3.535537e-01
      vertex 1.767769e+00 1.767769e+00 3.535537e-01
    endloop
  endfacet
  facet normal 4.710268e-16 7.071068e-01 -7.071068e-01
    outer loop
      vertex 2.298099e+00 1.414215e+00 -7.071075e-01
      vertex 2.474876e+00 1.767769e+00 -3.535538e-01
      vertex 2.474876e+00 1.060661e+00 -1.060661e+00
    endloop
  endfacet
  facet normal 6.666667e-01 6.666667e-01 -3.333333e-01
    outer loop
      vertex 2.298099e+00 1.414215e+00 -7.071075e-01
      vertex 2.474876e+00 1.060661e+00 -1.060661e+00
      vertex 2.121322e+00 1.414215e+00 -1.060661e+00
    endloop
  endfacet
  facet normal 0.000000e+00 1.000000e+00 0.000000e+00
    outer loop
      vertex 2.298099e+00 1.414215e+00 -7.071075e-01
      vertex 2.121322e+00 1.414215e+00 -1.060661e+00
      vertex 2.121322e+00 1.414215e+00 -3.535538e-01
    endloop
  endfacet
  facet normal -6.666667e-01 6.666667e-01 -3.333333e-01
    outer loop
      vertex 2.298099e+00 1.414215e+00 -7.071075e-01
      vertex 2.121322e+00 1.414215e+00 -3.535538e-01
      vertex 2.474876e+00 1.767769e+00 -3.535538e-01
    endloop
  endfacet
  facet normal 7.071068e-01 0.000000e+00 -7.071068e-01
    outer loop
      vertex 2.121322e+00 3.535537e-01 1.414215e+00
      vertex 1.767769e+00 1.060661e+00 1.060661e+00
      vertex 2.474876e+00 1.060661e+00 1.767769e+00
    endloop
  endfacet
  facet normal -5.773503e-01 5.773503e-01 -5.773503e-01
    outer loop
      vertex 2.121322e+00 3.535537e-01 1.414215e+00
      vertex 2.474876e+00 1.060661e+00 1.767769e+00
      vertex 2.474876e+00 3.535538e-01 1.060661e+00
    endloop
  endfacet
  facet normal -5.773503e-01 5.773503e-01 -5.773503e-01
    outer loop
      vertex 2.121322e+00 3.535537e-01 1.414215e+00
      vertex 2.474876e+00 3.535538e-01 1.060661e+00
      vertex 1.767769e+00 -3.535538e-01 1.060661e+00
    endloop
  endfacet
  facet normal -7.071068e-01 0.000000e+00 7.071068e-01
    outer loop
      vertex 2.121322e+00 3.535537e-01 1.414215e+00
      vertex 1.767769e+00 -3.535538e-01 1.060661e+00
      vertex 2.474876e+00 -3.535538e-01 1.767769e+00
    endloop
  endfacet
  facet normal -5.773503e-01 -5.773503e-01 -5.773503e-01
    outer loop
      vertex 2.121322e+00 3.535537e-01 1.414215e+00
      vertex 2.474876e+00 -3.535538e-01 1.767769e+00
      vertex 1.767769e+00 3.535538e-01 1.767769e+00
    endloop
  endfacet
  facet normal -5.773503e-01 -5.773503e-01 -5.773503e-01
    outer loop
      vertex 2.121322e+00 3.535537e-01 1.414215e+00
      vertex 1.767769e+00 3.535538e-01 1.767769e+00
      vertex 1.767769e+00 1.060661e+00 1.060661e+00
    endloop
  endfacet
  facet normal 7.071068e-01 7.850446e-16 -7.071068e-01
    outer loop
      vertex 2.121322e+00 1.237438e+00 1.414215e+00
      vertex 2.474876e+00 1.060661e+00 1.767769e+00
      vertex 1.767769e+00 1.060661e+00 1.060661e+00
    endloop
  endfacet
  facet normal 6.666667e-01 -6.666667e-01 -3.333333e-01
    outer loop
      vertex 2.121322e+00 1.237438e+00 1.414215e+00
      vertex 1.767769e+00 1.060661e+00 1.060661e+00
      vertex 2.121322e+00 1.414215e+00 1.060661e+00
    endloop
  endfacet
  facet normal 1.000000e+00 -0.000000e+00 0.000000e+00
    outer loop
      vertex 2.121322e+00 1.237438e+00 1.414215e+00
      vertex 2.121322e+00 1.414215e+00 1.060661e+00
      vertex 2.121322e+00 1.414215e+00 1.767769e+00
    endloop
  endfacet
  facet normal 6.666667e-01 6.666667e-01 -3.333333e-01
    outer loop
      vertex 2.121322e+00 1.237438e+00 1.414215e+00
      vertex 2.121322e+00 1.414215e+00 1.767769e+00
      vertex 2.474876e+00 1.060661e+00 1.767769e+00
    endloop
  endfacet
  facet normal 3.140179e-16 -7.071068e-01 -7.071068e-01
    outer loop
      vertex 1.944546e+00 1.414215e+00 7.071075e-01
      vertex 1.767769e+00 1.060661e+00 1.060661e+00
      vertex 1.767769e+00 1.767769e+00 3.535537e-01
    endloop
  endfacet
  facet normal -6.666667e-01 -6.666667e-01 -3.333333e-01
    outer loop
      vertex 1.944546e+00 1.414215e+00 7.071075e-01
      vertex 1.767769e+00 1.767769e+00 3.535537e-01
      vertex 2.121322e+00 1.414215e+00 3.535537e-01
    endloop
  endfacet
  facet normal 0.000000e+00 -1.000000e+00 0.000000e+00
    outer loop
      vertex 1.944546e+00 1.414215e+00 7.071075e-01
      vertex 2.121322e+00 1.414215e+00 3.535537e-01
      vertex 2.121322e+00 1.414215e+00 1.060661e+00
    endloop
  endfacet
  facet normal 6.666667e-01 -6.666667e-01 -3.333333e-01
    outer loop
      vertex 1.944546e+00 1.414215e+00 7.071075e-01
      vertex 2.121322e+00 1.414215e+00 1.060661e+00
      vertex 1.767769e+00 1.060661e+00 1.060661e+00
    endloop
  endfacet
  facet normal -7.071068e-01 9.420536e-16 -7.071068e-01
    outer loop
      vertex 2.121322e+00 1.590992e+00 -5.551115e-17
      vertex 1.767769e+00 1.767769e+00 3.535537e-01
      vertex 2.474876e+00 1.767769e+00 -3.535538e-01
    endloop
  endfacet
  facet normal -6.666667e-01 6.666667e-01 -3.333333e-01
    outer loop
      vertex 2.121322e+00 1.590992e+00 -5.551115e-17
      vertex 2.474876e+00 1.767769e+00 -3.535538e-01
      vertex 2.121322e+00 1.414215e+00 -3.535538e-01
    endloop
  endfacet
  facet normal -1.000000e+00 -0.000000e+00 0.000000e+00
    outer loop
      vertex 2.121322e+00 1.590992e+00 -5.551115e-17
      vertex 2.121322e+00 1.414215e+00 -3.535538e-01
      vertex 2.121322e+00 1.414215e+00 3.535537e-01
    endloop
  endfacet
  facet normal -6.666667e-01 -6.666667e-01 -3.333333e-01
    outer loop
      vertex 2.121322e+00 1.590992e+00 -5.551115e-17
      vertex 2.121322e+00 1.414215e+00 3.535537e-01
      vertex 1.767769e+00 1.767769e+00 3.535537e-01
    endloop
  endfacet
  facet normal -7.071068e-01 -7.071068e-01 -6.672879e-16
    outer loop
      vertex 2.828430e+00 2.121322e+00 2.474876e+00
      vertex 2.474876e+00 2.474876e+00 1.767769e+00
      vertex 3.181984e+00 1.767769e+00 1.767769e+00
    endloop
  endfacet
  facet normal -5.773503e-01 5.773503e-01 -5.773503e-01
    outer loop
      vertex 2.828430e+00 2.121322e+00 2.474876e+00
      vertex 3.181984e+00 1.767769e+00 1.767769e+00
      vertex 2.474876e+00 1.767769e+00 2.474876e+00
    endloop
  endfacet
  facet normal -5.773503e-01 5.773503e-01 -5.773503e-01
    outer loop
      vertex 2.828430e+00 2.121322e+00 2.474876e+00
      vertex 2.474876e+00 1.767769e+00 2.474876e+00
      vertex 2.474876e+00 2.474876e+00 3.181984e+00
    endloop
  endfacet
  facet normal 7.071068e-01 7.071068e-01 -7.850446e-16
    outer loop
      vertex 2.828430e+00 2.121322e+00 2.474876e+00
      vertex 2.474876e+00 2.474876e+00 3.181984e+00
      vertex 3.181984e+00 1.767769e+00 3.181984e+00
    endloop
  endfacet
  facet normal -5.773503e-01 5.773503e-01 5.773503e-01
    outer loop
      vertex 2.828430e+00 2.121322e+00 2.474876e+00
      vertex 3.181984e+00 1.767769e+00 3.181984e+00
      vertex 3.181984e+00 2.474876e+00 2.474876e+00
    endloop
  endfacet
  facet normal -5.773503e-01 5.773503e-01 5.773503e-01
    outer loop
      vertex 2.828430e+00 2.121322e+00 2.474876e+00
      vertex 3.181984e+00 2.474876e+00 2.474876e+00
      vertex 2.474876e+00 2.474876e+00 1.767769e+00
    endloop
  endfacet
  facet normal -6.672879e-16 -7.071068e-01 -7.071068e-01
    outer loop
      vertex 2.474876e+00 2.828430e+00 2.121322e+00
      vertex 1.767769e+00 2.474876e+00 2.474876e+00
      vertex 1.767769e+00 3.181984e+00 1.767769e+00
    endloop
  endfacet
  facet normal -5.773503e-01 -5.773503e-01 5.773503e-01
    outer loop
      vertex 2.474876e+00 2.828430e+00 2.121322e+00
      vertex 1.767769e+00 3.181984e+00 1.767769e+00
      vertex 2.474876e+00 2.474876e+00 1.767769e+00
    endloop
  endfacet
  facet normal -5.773503e-01 -5.773503e-01 5.773503e-01
    outer loop
      vertex 2.474876e+00 2.828430e+00 2.121322e+00
      vertex 2.474876e+00 2.474876e+00 1.767769e+00
      vertex 3.181984e+00 2.474876e+00 2.474876e+00
    endloop
  endfacet
  facet normal -6.672879e-16 7.071068e-01 7.071068e-01
    outer loop
      vertex 2.474876e+00 2.828430e+00 2.121322e+00
      vertex 3.181984e+00 2.474876e+00 2.474876e+00
      vertex 3.181984e+00 3.181984e+00 1.767769e+00
    endloop
  endfacet
  facet normal 5.773503e-01 -5.773503e-01 5.773503e-01
    outer loop
      vertex 2.474876e+00 2.828430e+00 2.121322e+00
      vertex 3.181984e+00 3.181984e+00 1.767769e+00
      vertex 2.474876e+00 3.181984e+00 2.474876e+00
    endloop
  endfacet
  facet normal 5.773503e-01 -5.773503e-01 5.773503e-01
    outer loop
      vertex 2.474876e+00 2.828430e+00 2.121322e+00
      vertex 2.474876e+00 3.181984e+00 2.474876e+00
      vertex 1.767769e+00 2.474876e+00 2.474876e+00
    endloop
  endfacet
  facet normal -7.071068e-01 -3.140179e-16 -7.071068e-01
    outer loop
      vertex 2.121323e+00 2.474876e+00 2.828430e+00
      vertex 2.474876e+00 1.767769e+00 2.474876e+00
      vertex 1.767769e+00 1.767769e+00 3.181984e+00
    endloop
  endfacet
  facet normal 5.773503e-01 -5.773503e-01 -5.773503e-01
    outer loop
      vertex 2.121323e+00 2.474876e+00 2.828430e+00
      vertex 1.767769e+00 1.767769e+00 3.181984e+00
      vertex 1.767769e+00 2.474876e+00 2.474876e+00
    endloop
  endfacet
  facet normal 5.773503e-01 -5.773503e-01 -5.773503e-01
    outer loop
      vertex 2.121323e+00 2.474876e+00 2.828430e+00
      vertex 1.767769e+00 2.474876e+00 2.474876e+00
      vertex 2.474876e+00 3.181984e+00 2.474876e+00
    endloop
  endfacet
  facet normal 7.071068e-01 -4.317745e-16 7.071068e-01
    outer loop
      vertex 2.121323e+00 2.474876e+00 2.828430e+00
      vertex 2.474876e+00 3.181984e+00 2.474876e+00
      vertex 1.767769e+00 3.181984e+00 3.181984e+00
    endloop
  endfacet
  facet normal 5.773503e-01 5.773503e-01 -5.773503e-01
    outer loop
      vertex 2.121323e+00 2.474876e+00 2.828430e+00
      vertex 1.767769e+00 3.181984e+00 3.181984e+00
      vertex 2.474876e+00 2.474876e+00 3.181984e+00
    endloop
  endfacet
  facet normal 5.773503e-01 5.773503e-01 -5.773503e-01
    outer loop
      vertex 2.121323e+00 2.474876e+00 2.828430e+00
      vertex 2.474876e+00 2.474876e+00 3.181984e+00
      vertex 2.474876e+00 1.767769e+00 2.474876e+00
    endloop
  endfacet
  facet normal 7.071068e-01 -7.071068e-01 0.000000e+00
    outer loop
      vertex 1.414215e+00 2.121323e+00 3.181984e+00
      vertex 1.060661e+00 1.767769e+00 2.474876e+00
      vertex 1.767769e+00 2.474876e+00 2.474876e+00
    endloop
  endfacet
  facet normal -5.773503e-01 -5.773503e-01 -5.773503e-01
    outer loop
      vertex 1.414215e+00 2.121323e+00 3.181984e+00
      vertex 1.767769e+00 2.474876e+00 2.474876e+00
      vertex 1.767769e+00 1.767769e+00 3.181984e+00
    endloop
  endfacet
  facet normal -5.773503e-01 -5.773503e-01 -5.773503e-01
    outer loop
      vertex 1.414215e+00 2.121323e+00 3.181984e+00
      vertex 1.767769e+00 1.767769e+00 3.181984e+00
      vertex 1.060661e+00 1.767769e+00 3.889091e+00
    endloop
  endfacet
  facet normal -7.071068e-01 7.071068e-01 0.000000e+00
    outer loop
      vertex 1.414215e+00 2.121323e+00 3.181984e+00
      vertex 1.060661e+00 1.767769e+00 3.889091e+00
      vertex 1.767769e+00 2.474876e+00 3.889091e+00
    endloop
  endfacet
  facet normal -5.773503e-01 -5.773503e-01 5.773503e-01
    outer loop
      vertex 1.414215e+00 2.121323e+00 3.181984e+00
      vertex 1.767769e+00 2.474876e+00 3.889091e+00
      vertex 1.060661e+00 2.474876e+00 3.181984e+00
    endloop
  endfacet
  facet normal -5.773503e-01 -5.773503e-01 5.773503e-01
    outer loop
      vertex 1.414215e+00 2.121323e+00 3.181984e+00
      vertex 1.060661e+00 2.474876e+00 3.181984e+00
      vertex 1.060661e+00 1.767769e+00 2.474876e+00
    endloop
  endfacet
  facet normal 7.071068e-01 -7.071068e-01 0.000000e+00
    outer loop
      vertex 1.414215e+00 2.121323e+00 2.298099e+00
      vertex 1.767769e+00 2.474876e+00 2.474876e+00
      vertex 1.060661e+00 1.767769e+00 2.474876e+00
    endloop
  endfacet
  facet normal 6.666667e-01 -3.333333e-01 6.666667e-01
    outer loop
      vertex 1.414215e+00 2.121323e+00 2.298099e+00
      vertex 1.060661e+00 1.767769e+00 2.474876e+00
      vertex 1.414215e+00 1.767769e+00 2.121322e+00
    endloop
  endfacet
  facet normal 1.000000e+00 0.000000e+00 -1.256073e-15
    outer loop
      vertex 1.414215e+00 2.121323e+00 2.298099e+00
      vertex 1.414215e+00 1.767769e+00 2.121322e+00
      vertex 1.414215e+00 2.474876e+00 2.121322e+00
    endloop
  endfacet
  facet normal 6.666667e-01 -3.333333e-01 -6.666667e-01
    outer loop
      vertex 1.414215e+00 2.121323e+00 2.298099e+00
      vertex 1.414215e+00 2.474876e+00 2.121322e+00
      vertex 1.767769e+00 2.474876e+00 2.474876e+00
    endloop
  endfacet
  facet normal 4.710268e-16 -7.071068e-01 7.071068e-01
    outer loop
      vertex 1.237438e+00 1.414215e+00 2.121322e+00
      vertex 1.060661e+00 1.767769e+00 2.474876e+00
      vertex 1.060661e+00 1.060661e+00 1.767769e+00
    endloop
  endfacet
  facet normal -6.666667e-01 -3.333333e-01 6.666667e-01
    outer loop
      vertex 1.237438e+00 1.414215e+00 2.121322e+00
      vertex 1.060661e+00 1.060661e+00 1.767769e+00
      vertex 1.414215e+00 1.060661e+00 2.121322e+00
    endloop
  endfacet
  facet normal -0.000000e+00 0.000000e+00 1.000000e+00
    outer loop
      vertex 1.237438e+00 1.414215e+00 2.121322e+00
      vertex 1.414215e+00 1.060661e+00 2.121322e+00
      vertex 1.414215e+00 1.767769e+00 2.121322e+00
    endloop
  endfacet
  facet normal 6.666667e-01 -3.333333e-01 6.666667e-01
    outer loop
      vertex 1.237438e+00 1.414215e+00 2.121322e+00
      vertex 1.414215e+00 1.767769e+00 2.121322e+00
      vertex 1.060661e+00 1.767769e+00 2.474876e+00
    endloop
  endfacet
  facet normal -7.071068e-01 -7.071068e-01 7.850446e-16
    outer loop
      vertex 1.414215e+00 7.071075e-01 1.944546e+00
      vertex 1.060661e+00 1.060661e+00 1.767769e+00
      vertex 1.767769e+00 3.535538e-01 1.767769e+00
    endloop
  endfacet
  facet normal -6.666667e-01 -3.333333e-01 -6.666667e-01
    outer loop
      vertex 1.414215e+00 7.071075e-01 1.944546e+00
      vertex 1.767769e+00 3.535538e-01 1.767769e+00
      vertex 1.414215e+00 3.535538e-01 2.121322e+00
    endloop
  endfacet
  facet normal -1.000000e+00 0.000000e+00 0.000000e+00
    outer loop
      vertex 1.414215e+00 7.071075e-01 1.944546e+00
      vertex 1.414215e+00 3.535538e-01 2.121322e+00
      vertex 1.414215e+00 1.060661e+00 2.121322e+00
    endloop
  endfacet
  facet normal -6.666667e-01 -3.333333e-01 6.666667e-01
    outer loop
      vertex 1.414215e+00 7.071075e-01 1.944546e+00
      vertex 1.414215e+00 1.060661e+00 2.121322e+00
      vertex 1.060661e+00 1.060661e+00 1.767769e+00
    endloop
  endfacet
  facet normal -7.071068e-01 3.140179e-16 7.071068e-01
    outer loop
      vertex 2.121323e+00 3.181984e+00 1.414215e+00
      vertex 1.767769e+00 2.474876e+00 1.060661e+00
      vertex 2.474876e+00 2.474876e+00 1.767769e+00
    endloop
  endfacet
  facet normal -5.773503e-01 -5.773503e-01 -5.773503e-01
    outer loop
      vertex 2.121323e+00 3.181984e+00 1.414215e+00
      vertex 2.474876e+00 2.474876e+00 1.767769e+00
      vertex 1.767769e+00 3.181984e+00 1.767769e+00
    endloop
  endfacet
  facet normal -5.773503e-01 -5.773503e-01 -5.773503e-01
    outer loop
      vertex 2.121323e+00 3.181984e+00 1.414215e+00
      vertex 1.767769e+00 3.181984e+00 1.767769e+00
      vertex 1.767769e+00 3.889091e+00 1.060661e+00
    endloop
  endfacet
  facet normal 7.071068e-01 3.140179e-16 -7.071068e-01
    outer loop
      vertex 2.121323e+00 3.181984e+00 1.414215e+00
      vertex 1.767769e+00 3.889091e+00 1.060661e+00
      vertex 2.474876e+00 3.889091e+00 1.767769e+00
    endloop
  endfacet
  facet normal -5.773503e-01 5.773503e-01 -5.773503e-01
    outer loop
      vertex 2.121323e+00 3.181984e+00 1.414215e+00
      vertex 2.474876e+00 3.889091e+00 1.767769e+00
      vertex 2.474876e+00 3.181984e+00 1.060661e+00
    endloop
  endfacet
  facet normal -5.773503e-01 5.773503e-01 -5.773503e-01
    outer loop
      vertex 2.121323e+00 3.181984e+00 1.414215e+00
      vertex 2.474876e+00 3.181984e+00 1.060661e+00
      vertex 1.767769e+00 2.474876e+00 1.060661e+00
    endloop
  endfacet
  facet normal -7.071068e-01 -3.140179e-16 7.071068e-01
    outer loop
      vertex 2.121323e+00 2.298099e+00 1.414215e+00
      vertex 2.474876e+00 2.474876e+00 1.767769e+00
      vertex 1.767769e+00 2.474876e+00 1.060661e+00
    endloop
  endfacet
  facet normal -3.333333e-01 6.666667e-01 6.666667e-01
    outer loop
      vertex 2.121323e+00 2.298099e+00 1.414215e+00
      vertex 1.767769e+00 2.474876e+00 1.060661e+00
      vertex 1.767769e+00 2.121322e+00 1.414215e+00
    endloop
  endfacet
  facet normal 0.000000e+00 0.000000e+00 1.000000e+00
    outer loop
      vertex 2.121323e+00 2.298099e+00 1.414215e+00
      vertex 1.767769e+00 2.121322e+00 1.414215e+00
      vertex 2.474876e+00 2.121322e+00 1.414215e+00
    endloop
  endfacet
  facet normal -3.333333e-01 -6.666667e-01 6.666667e-01
    outer loop
      vertex 2.121323e+00 2.298099e+00 1.414215e+00
      vertex 2.474876e+00 2.121322e+00 1.414215e+00
      vertex 2.474876e+00 2.474876e+00 1.767769e+00
    endloop
  endfacet
  facet normal -7.071068e-01 7.071068e-01 4.710268e-16
    outer loop
      vertex 1.414215e+00 2.121322e+00 1.237438e+00
      vertex 1.767769e+00 2.474876e+00 1.060661e+00
      vertex 1.060661e+00 1.767769e+00 1.060661e+00
    endloop
  endfacet
  facet normal -3.333333e-01 6.666667e-01 -6.666667e-01
    outer loop
      vertex 1.414215e+00 2.121322e+00 1.237438e+00
      vertex 1.060661e+00 1.767769e+00 1.060661e+00
      vertex 1.060661e+00 2.121322e+00 1.414215e+00
    endloop
  endfacet
  facet normal 0.000000e+00 1.000000e+00 -0.000000e+00
    outer loop
      vertex 1.414215e+00 2.121322e+00 1.237438e+00
      vertex 1.060661e+00 2.121322e+00 1.414215e+00
      vertex 1.767769e+00 2.121322e+00 1.414215e+00
    endloop
  endfacet
  facet normal -3.333333e-01 6.666667e-01 6.666667e-01
    outer loop
      vertex 1.414215e+00 2.121322e+00 1.237438e+00
      vertex 1.767769e+00 2.121322e+00 1.414215e+00
      vertex 1.767769e+00 2.474876e+00 1.060661e+00
    endloop
  endfacet
  facet normal -7.071068e-01 -1.570089e-16 -7.071068e-01
    outer loop
      vertex 7.071075e-01 1.944546e+00 1.414215e+00
      vertex 1.060661e+00 1.767769e+00 1.060661e+00
      vertex 3.535538e-01 1.767769e+00 1.767769e+00
    endloop
  endfacet
  facet normal -3.333333e-01 -6.666667e-01 -6.666667e-01
    outer loop
      vertex 7.071075e-01 1.944546e+00 1.414215e+00
      vertex 3.535538e-01 1.767769e+00 1.767769e+00
      vertex 3.535538e-01 2.121322e+00 1.414215e+00
    endloop
  endfacet
  facet normal 0.000000e+00 0.000000e+00 -1.000000e+00
    outer loop
      vertex 7.071075e-01 1.944546e+00 1.414215e+00
      vertex 3.535538e-01 2.121322e+00 1.414215e+00
      vertex 1.060661e+00 2.121322e+00 1.414215e+00
    endloop
  endfacet
  facet normal -3.333333e-01 6.666667e-01 -6.666667e-01
    outer loop
      vertex 7.071075e-01 1.944546e+00 1.414215e+00
      vertex 1.060661e+00 2.121322e+00 1.414215e+00
      vertex 1.060661e+00 1.767769e+00 1.060661e+00
    endloop
  endfacet
  facet normal -3.140179e-16 7.071068e-01 -7.071068e-01
    outer loop
      vertex 3.181984e+00 1.414215e+00 2.121322e+00
      vertex 2.474876e+00 1.060661e+00 1.767769e+00
      vertex 2.474876e+00 1.767769e+00 2.474876e+00
    endloop
  endfacet
  facet normal -5.773503e-01 -5.773503e-01 -5.773503e-01
    outer loop
      vertex 3.181984e+00 1.414215e+00 2.121322e+00
      vertex 2.474876e+00 1.767769e+00 2.474876e+00
      vertex 3.181984e+00 1.767769e+00 1.767769e+00
    endloop
  endfacet
  facet normal -5.773503e-01 -5.773503e-01 -5.773503e-01
    outer loop
      vertex 3.181984e+00 1.414215e+00 2.121322e+00
      vertex 3.181984e+00 1.767769e+00 1.767769e+00
      vertex 3.889091e+00 1.060661e+00 1.767769e+00
    endloop
  endfacet
  facet normal -3.140179e-16 -7.071068e-01 7.071068e-01
    outer loop
      vertex 3.181984e+00 1.414215e+00 2.121322e+00
      vertex 3.889091e+00 1.060661e+00 1.767769e+00
      vertex 3.889091e+00 1.767769e+00 2.474876e+00
    endloop
  endfacet
  facet normal 5.773503e-01 -5.773503e-01 -5.773503e-01
    outer loop
      vertex 3.181984e+00 1.414215e+00 2.121322e+00
      vertex 3.889091e+00 1.767769e+00 2.474876e+00
      vertex 3.181984e+00 1.060661e+00 2.474876e+00
    endloop
  endfacet
  facet normal 5.773503e-01 -5.773503e-01 -5.773503e-01
    outer loop
      vertex 3.181984e+00 1.414215e+00 2.121322e+00
      vertex 3.181984e+00 1.060661e+00 2.474876e+00
      vertex 2.474876e+00 1.060661e+00 1.767769e+00
    endloop
  endfacet
  facet normal 4.710268e-16 7.071068e-01 -7.071068e-01
    outer loop
      vertex 2.298099e+00 1.414215e+00 2.121322e+00
      vertex 2.474876e+00 1.767769e+00 2.474876e+00
      vertex 2.474876e+00 1.060661e+00 1.767769e+00
    endloop
  endfacet
  facet normal 6.666667e-01 6.666667e-01 -3.333333e-01
    outer loop
      vertex 2.298099e+00 1.414215e+00 2.121322e+00
      vertex 2.474876e+00 1.060661e+00 1.767769e+00
      vertex 2.121322e+00 1.414215e+00 1.767769e+00
    endloop
  endfacet
  facet normal 0.000000e+00 1.000000e+00 0.000000e+00
    outer loop
      vertex 2.298099e+00 1.414215e+00 2.121322e+00
      vertex 2.121322e+00 1.414215e+00 1.767769e+00
      vertex 2.121322e+00 1.414215e+00 2.474876e+00
    endloop
  endfacet
  facet normal -6.666667e-01 6.666667e-01 -3.333333e-01
    outer loop
      vertex 2.298099e+00 1.414215e+00 2.121322e+00
      vertex 2.121322e+00 1.414215e+00 2.474876e+00
      vertex 2.474876e+00 1.767769e+00 2.474876e+00
    endloop
  endfacet
  facet normal 7.071068e-01 7.850446e-16 -7.071068e-01
    outer loop
      vertex 2.121322e+00 1.237438e+00 1.414215e+00
      vertex 2.474876e+00 1.060661e+00 1.767769e+00
      vertex 1.767769e+00 1.060661e+00 1.060661e+00
    endloop
  endfacet
  facet normal 6.666667e-01 -6.666667e-01 -3.333333e-01
    outer loop
      vertex 2.121322e+00 1.237438e+00 1.414215e+00
      vertex 1.767769e+00 1.060661e+00 1.060661e+00
      vertex 2.121322e+00 1.414215e+00 1.060661e+00
    endloop
  endfacet
  facet normal 1.000000e+00 -0.000000e+00 0.000000e+00
    outer loop
      vertex 2.121322e+00 1.237438e+00 1.414215e+00
      vertex 2.121322e+00 1.414215e+00 1.060661e+00
      vertex 2.121322e+00 1.414215e+00 1.767769e+00
    endloop
  endfacet
  facet normal 6.666667e-01 6.666667e-01 -3.333333e-01
    outer loop
      vertex 2.121322e+00 1.237438e+00 1.414215e+00
      vertex 2.121322e+00 1.414215e+00 1.767769e+00
      vertex 2.474876e+00 1.060661e+00 1.767769e+00
    endloop
  endfacet
  facet normal 3.140179e-16 -7.071068e-01 -7.071068e-01
    outer loop
      vertex 1.944546e+00 1.414215e+00 7.071075e-01
      vertex 1.767769e+00 1.060661e+00 1.060661e+00
      vertex 1.767769e+00 1.767769e+00 3.535537e-01
    endloop
  endfacet
  facet normal -6.666667e-01 -6.666667e-01 -3.333333e-01
    outer loop
      vertex 1.944546e+00 1.414215e+00 7.071075e-01
      vertex 1.767769e+00 1.767769e+00 3.535537e-01
      vertex 2.121322e+00 1.414215e+00 3.535537e-01
    endloop
  endfacet
  facet normal 0.000000e+00 -1.000000e+00 0.000000e+00
    outer loop
      vertex 1.944546e+00 1.414215e+00 7.071075e-01
      vertex 2.121322e+00 1.414215e+00 3.535537e-01
      vertex 2.121322e+00 1.414215e+00 1.060661e+00
    endloop
  endfacet
  facet normal 6.666667e-01 -6.666667e-01 -3.333333e-01
    outer loop
      vertex 1.944546e+00 1.414215e+00 7.071075e-01
      vertex 2.121322e+00 1.414215e+00 1.060661e+00
      vertex 1.767769e+00 1.060661e+00 1.060661e+00
    endloop
  endfacet
  facet normal 5.773503e-01 -5.773503e-01 5.773503e-01
    outer loop
      vertex -3.535537e-01 0.000000e+00 2.121322e+00
      vertex 3.535538e-01 3.535538e-01 1.767769e+00
      vertex -3.535538e-01 3.535538e-01 2.474876e+00
    endloop
  endfacet
  facet normal 5.773503e-01 -5.773503e-01 5.773503e-01
    outer loop
      vertex -3.535537e-01 0.000000e+00 2.121322e+00
      vertex -3.535538e-01 3.535538e-01 2.474876e+00
      vertex -1.060661e+00 -3.535538e-01 2.474876e+00
    endloop
  endfacet
  facet normal -1.962612e-16 -7.071068e-01 -7.071068e-01
    outer loop
      vertex -3.535537e-01 0.000000e+00 2.121322e+00
      vertex -1.060661e+00 -3.535538e-01 2.474876e+00
      vertex -1.060661e+00 3.535538e-01 1.767769e+00
    endloop
  endfacet
  facet normal -5.773503e-01 -5.773503e-01 5.773503e-01
    outer loop
      vertex -3.535537e-01 0.000000e+00 2.121322e+00
      vertex -1.060661e+00 3.535538e-01 1.767769e+00
      vertex -3.535538e-01 -3.535538e-01 1.767769e+00
    endloop
  endfacet
  facet normal -5.773503e-01 -5.773503e-01 5.773503e-01
    outer loop
      vertex -3.535537e-01 0.000000e+00 2.121322e+00
      vertex -3.535538e-01 -3.535538e-01 1.767769e+00
      vertex 3.535538e-01 -3.535538e-01 2.474876e+00
    endloop
  endfacet
  facet normal -1.962612e-16 7.071068e-01 7.071068e-01
    outer loop
      vertex -3.535537e-01 0.000000e+00 2.121322e+00
      vertex 3.535538e-01 -3.535538e-01 2.474876e+00
      vertex 3.535538e-01 3.535538e-01 1.767769e+00
    endloop
  endfacet
  facet normal 5.773503e-01 5.773503e-01 5.773503e-01
    outer loop
      vertex 2.828430e+00 7.071075e-01 1.767769e+00
      vertex 2.474876e+00 3.535538e-01 2.474876e+00
      vertex 3.181984e+00 3.535538e-01 1.767769e+00
    endloop
  endfacet
  facet normal 5.773503e-01 5.773503e-01 5.773503e-01
    outer loop
      vertex 2.828430e+00 7.071075e-01 1.767769e+00
      vertex 3.181984e+00 3.535538e-01 1.767769e+00
      vertex 3.181984e+00 1.060661e+00 1.060661e+00
    endloop
  endfacet
  facet normal -7.071068e-01 7.071068e-01 -5.887835e-16
    outer loop
      vertex 2.828430e+00 7.071075e-01 1.767769e+00
      vertex 3.181984e+00 1.060661e+00 1.060661e+00
      vertex 2.474876e+00 3.535538e-01 1.060661e+00
    endloop
  endfacet
  facet normal 5.773503e-01 5.773503e-01 -5.773503e-01
    outer loop
      vertex 2.828430e+00 7.071075e-01 1.767769e+00
      vertex 2.474876e+00 3.535538e-01 1.060661e+00
      vertex 2.474876e+00 1.060661e+00 1.767769e+00
    endloop
  endfacet
  facet normal 5.773503e-01 5.773503e-01 -5.773503e-01
    outer loop
      vertex 2.828430e+00 7.071075e-01 1.767769e+00
      vertex 2.474876e+00 1.060661e+00 1.767769e+00
      vertex 3.181984e+00 1.060661e+00 2.474876e+00
    endloop
  endfacet
  facet normal 7.071068e-01 -7.071068e-01 -4.317745e-16
    outer loop
      vertex 2.828430e+00 7.071075e-01 1.767769e+00
      vertex 3.181984e+00 1.060661e+00 2.474876e+00
      vertex 2.474876e+00 3.535538e-01 2.474876e+00
    endloop
  endfacet
  facet normal -5.773503e-01 5.773503e-01 5.773503e-01
    outer loop
      vertex 0.000000e+00 2.121322e+00 -3.535537e-01
      vertex 3.535538e-01 1.767769e+00 3.535537e-01
      vertex 3.535538e-01 2.474876e+00 -3.535538e-01
    endloop
  endfacet
  facet normal -5.773503e-01 5.773503e-01 5.773503e-01
    outer loop
      vertex 0.000000e+00 2.121322e+00 -3.535537e-01
      vertex 3.535538e-01 2.474876e+00 -3.535538e-01
      vertex -3.535538e-01 2.474876e+00 -1.060661e+00
    endloop
  endfacet
  facet normal -7.071068e-01 -7.071068e-01 -1.177567e-16
    outer loop
      vertex 0.000000e+00 2.121322e+00 -3.535537e-01
      vertex -3.535538e-01 2.474876e+00 -1.060661e+00
      vertex 3.535538e-01 1.767769e+00 -1.060661e+00
    endloop
  endfacet
  facet normal -5.773503e-01 5.773503e-01 -5.773503e-01
    outer loop
      vertex 0.000000e+00 2.121322e+00 -3.535537e-01
      vertex 3.535538e-01 1.767769e+00 -1.060661e+00
      vertex -3.535538e-01 1.767769e+00 -3.535538e-01
    endloop
  endfacet
  facet normal -5.773503e-01 5.773503e-01 -5.773503e-01
    outer loop
      vertex 0.000000e+00 2.121322e+00 -3.535537e-01
      vertex -3.535538e-01 1.767769e+00 -3.535538e-01
      vertex -3.535538e-01 2.474876e+00 3.535537e-01
    endloop
  endfacet
  facet normal 7.071068e-01 7.071068e-01 -1.962612e-16
    outer loop
      vertex 0.000000e+00 2.121322e+00 -3.535537e-01
      vertex -3.535538e-01 2.474876e+00 3.535537e-01
      vertex 3.535538e-01 1.767769e+00 3.535537e-01
    endloop
  endfacet
  facet normal 5.773503e-01 5.773503e-01 5.773503e-01
    outer loop
      vertex 7.071075e-01 1.767769e+00 2.828430e+00
      vertex 3.535538e-01 2.474876e+00 2.474876e+00
      vertex 3.535538e-01 1.767769e+00 3.181984e+00
    endloop
  endfacet
  facet normal 5.773503e-01 5.773503e-01 5.773503e-01
    outer loop
      vertex 7.071075e-01 1.767769e+00 2.828430e+00
      vertex 3.535538e-01 1.767769e+00 3.181984e+00
      vertex 1.060661e+00 1.060661e+00 3.181984e+00
    endloop
  endfacet
  facet normal 7.071068e-01 -4.710268e-16 -7.071068e-01
    outer loop
      vertex 7.071075e-01 1.767769e+00 2.828430e+00
      vertex 1.060661e+00 1.060661e+00 3.181984e+00
      vertex 3.535538e-01 1.060661e+00 2.474876e+00
    endloop
  endfacet
  facet normal 5.773503e-01 -5.773503e-01 5.773503e-01
    outer loop
      vertex 7.071075e-01 1.767769e+00 2.828430e+00
      vertex 3.535538e-01 1.060661e+00 2.474876e+00
      vertex 1.060661e+00 1.767769e+00 2.474876e+00
    endloop
  endfacet
  facet normal 5.773503e-01 -5.773503e-01 5.773503e-01
    outer loop
      vertex 7.071075e-01 1.767769e+00 2.828430e+00
      vertex 1.060661e+00 1.767769e+00 2.474876e+00
      vertex 1.060661e+00 2.474876e+00 3.181984e+00
    endloop
  endfacet
  facet normal -7.071068e-01 -3.140179e-16 7.071068e-01
    outer loop
      vertex 7.071075e-01 1.767769e+00 2.828430e+00
      vertex 1.060661e+00 2.474876e+00 3.181984e+00
      vertex 3.535538e-01 2.474876e+00 2.474876e+00
    endloop
  endfacet
  facet normal 5.773503e-01 5.773503e-01 -5.773503e-01
    outer loop
      vertex 2.121322e+00 -3.535537e-01 -5.551115e-17
      vertex 1.767769e+00 3.535537e-01 3.535537e-01
      vertex 2.474876e+00 -3.535538e-01 3.535537e-01
    endloop
  endfacet
  facet normal 5.773503e-01 5.773503e-01 -5.773503e-01
    outer loop
      vertex 2.121322e+00 -3.535537e-01 -5.551115e-17
      vertex 2.474876e+00 -3.535538e-01 3.535537e-01
      vertex 2.474876e+00 -1.060661e+00 -3.535538e-01
    endloop
  endfacet
  facet normal -7.071068e-01 1.177567e-16 -7.071068e-01
    outer loop
      vertex 2.121322e+00 -3.535537e-01 -5.551115e-17
      vertex 2.474876e+00 -1.060661e+00 -3.535538e-01
      vertex 1.767769e+00 -1.060661e+00 3.535537e-01
    endloop
  endfacet
  facet normal 5.773503e-01 -5.773503e-01 -5.773503e-01
    outer loop
      vertex 2.121322e+00 -3.535537e-01 -5.551115e-17
      vertex 1.767769e+00 -1.060661e+00 3.535537e-01
      vertex 1.767769e+00 -3.535538e-01 -3.535538e-01
    endloop
  endfacet
  facet normal 5.773503e-01 -5.773503e-01 -5.773503e-01
    outer loop
      vertex 2.121322e+00 -3.535537e-01 -5.551115e-17
      vertex 1.767769e+00 -3.535538e-01 -3.535538e-01
      vertex 2.474876e+00 3.535537e-01 -3.535538e-01
    endloop
  endfacet
  facet normal 7.071068e-01 -2.355134e-16 7.071068e-01
    outer loop
      vertex 2.121322e+00 -3.535537e-01 -5.551115e-17
      vertex 2.474876e+00 3.535537e-01 -3.535538e-01
      vertex 1.767769e+00 3.535537e-01 3.535537e-01
    endloop
  endfacet
  facet normal 5.773503e-01 5.773503e-01 5.773503e-01
    outer loop
      vertex 1.767769e+00 2.828430e+00 7.071075e-01
      vertex 2.474876e+00 2.474876e+00 3.535537e-01
      vertex 1.767769e+00 3.181984e+00 3.535537e-01
    endloop
  endfacet
  facet normal 5.773503e-01 5.773503e-01 5.773503e-01
    outer loop
      vertex 1.767769e+00 2.828430e+00 7.071075e-01
      vertex 1.767769e+00 3.181984e+00 3.535537e-01
      vertex 1.060661e+00 3.181984e+00 1.060661e+00
    endloop
  endfacet
  facet normal -3.925223e-16 -7.071068e-01 7.071068e-01
    outer loop
      vertex 1.767769e+00 2.828430e+00 7.071075e-01
      vertex 1.060661e+00 3.181984e+00 1.060661e+00
      vertex 1.060661e+00 2.474876e+00 3.535537e-01
    endloop
  endfacet
  facet normal -5.773503e-01 5.773503e-01 5.773503e-01
    outer loop
      vertex 1.767769e+00 2.828430e+00 7.071075e-01
      vertex 1.060661e+00 2.474876e+00 3.535537e-01
      vertex 1.767769e+00 2.474876e+00 1.060661e+00
    endloop
  endfacet
  facet normal -5.773503e-01 5.773503e-01 5.773503e-01
    outer loop
      vertex 1.767769e+00 2.828430e+00 7.071075e-01
      vertex 1.767769e+00 2.474876e+00 1.060661e+00
      vertex 2.474876e+00 3.181984e+00 1.060661e+00
    endloop
  endfacet
  facet normal -3.925223e-16 7.071068e-01 -7.071068e-01
    outer loop
      vertex 1.767769e+00 2.828430e+00 7.071075e-01
      vertex 2.474876e+00 3.181984e+00 1.060661e+00
      vertex 2.474876e+00 2.474876e+00 3.535537e-01
    endloop
  endfacet
  facet normal -5.773503e-01 5.773503e-01 -5.773503e-01
    outer loop
      vertex 8.326673e-17 2.121322e+00 2.474876e+00
      vertex 3.535538e-01 1.767769e+00 1.767769e+00
      vertex -3.535538e-01 1.767769e+00 2.474876e+00
    endloop
  endfacet
  facet normal -5.773503e-01 5.773503e-01 -5.773503e-01
    outer loop
      vertex 8.326673e-17 2.121322e+00 2.474876e+00
      vertex -3.535538e-01 1.767769e+00 2.474876e+00
      vertex -3.535538e-01 2.474876e+00 3.181984e+00
    endloop
  endfacet
  facet normal 7.071068e-01 7.071068e-01 -3.532701e-16
    outer loop
      vertex 8.326673e-17 2.121322e+00 2.474876e+00
      vertex -3.535538e-01 2.474876e+00 3.181984e+00
      vertex 3.535538e-01 1.767769e+00 3.181984e+00
    endloop
  endfacet
  facet normal -5.773503e-01 5.773503e-01 5.773503e-01
    outer loop
      vertex 8.326673e-17 2.121322e+00 2.474876e+00
      vertex 3.535538e-01 1.767769e+00 3.181984e+00
      vertex 3.535538e-01 2.474876e+00 2.474876e+00
    endloop
  endfacet
  facet normal -5.773503e-01 5.773503e-01 5.773503e-01
    outer loop
      vertex 8.326673e-17 2.121322e+00 2.474876e+00
      vertex 3.535538e-01 2.474876e+00 2.474876e+00
      vertex -3.535538e-01 2.474876e+00 1.767769e+00
    endloop
  endfacet
  facet normal -7.071068e-01 -7.071068e-01 -1.570089e-16
    outer loop
      vertex 8.326673e-17 2.121322e+00 2.474876e+00
      vertex -3.535538e-01 2.474876e+00 1.767769e+00
      vertex 3.535538e-01 1.767769e+00 1.767769e+00
    endloop
  endfacet
  facet normal -5.773503e-01 -5.773503e-01 5.773503e-01
    outer loop
      vertex 2.474876e+00 9.251859e-18 2.121322e+00
      vertex 1.767769e+00 3.535538e-01 1.767769e+00
      vertex 2.474876e+00 -3.535538e-01 1.767769e+00
    endloop
  endfacet
  facet normal -5.773503e-01 -5.773503e-01 5.773503e-01
    outer loop
      vertex 2.474876e+00 9.251859e-18 2.121322e+00
      vertex 2.474876e+00 -3.535538e-01 1.767769e+00
      vertex 3.181984e+00 -3.535538e-01 2.474876e+00
    endloop
  endfacet
  facet normal -1.962612e-16 7.071068e-01 7.071068e-01
    outer loop
      vertex 2.474876e+00 9.251859e-18 2.121322e+00
      vertex 3.181984e+00 -3.535538e-01 2.474876e+00
      vertex 3.181984e+00 3.535538e-01 1.767769e+00
    endloop
  endfacet
  facet normal 5.773503e-01 -5.773503e-01 5.773503e-01
    outer loop
      vertex 2.474876e+00 9.251859e-18 2.121322e+00
      vertex 3.181984e+00 3.535538e-01 1.767769e+00
      vertex 2.474876e+00 3.535538e-01 2.474876e+00
    endloop
  endfacet
  facet normal 5.773503e-01 -5.773503e-01 5.773503e-01
    outer loop
      vertex 2.474876e+00 9.251859e-18 2.121322e+00
      vertex 2.474876e+00 3.535538e-01 2.474876e+00
      vertex 1.767769e+00 -3.535538e-01 2.474876e+00
    endloop
  endfacet
  facet normal -1.962612e-16 -7.071068e-01 -7.071068e-01
    outer loop
      vertex 2.474876e+00 9.251859e-18 2.121322e+00
      vertex 1.767769e+00 -3.535538e-01 2.474876e+00
      vertex 1.767769e+00 3.535538e-01 1.767769e+00
    endloop
  endfacet
  facet normal 5.773503e-01 -5.773503e-01 -5.773503e-01
    outer loop
      vertex 2.121322e+00 2.474876e+00 -5.551115e-17
      vertex 1.767769e+00 1.767769e+00 3.535537e-01
      vertex 1.767769e+00 2.474876e+00 -3.535538e-01
    endloop
  endfacet
  facet normal 5.773503e-01 -5.773503e-01 -5.773503e-01
    outer loop
      vertex 2.121322e+00 2.474876e+00 -5.551115e-17
      vertex 1.767769e+00 2.474876e+00 -3.535538e-01
      vertex 2.474876e+00 3.181984e+00 -3.535538e-01
    endloop
  endfacet
  facet normal 7.071068e-01 -3.532701e-16 7.071068e-01
    outer loop
      vertex 2.121322e+00 2.474876e+00 -5.551115e-17
      vertex 2.474876e+00 3.181984e+00 -3.535538e-01
      vertex 1.767769e+00 3.181984e+00 3.535537e-01
    endloop
  endfacet
  facet normal 5.773503e-01 5.773503e-01 -5.773503e-01
    outer loop
      vertex 2.121322e+00 2.474876e+00 -5.551115e-17
      vertex 1.767769e+00 3.181984e+00 3.535537e-01
      vertex 2.474876e+00 2.474876e+00 3.535537e-01
    endloop
  endfacet
  facet normal 5.773503e-01 5.773503e-01 -5.773503e-01
    outer loop
      vertex 2.121322e+00 2.474876e+00 -5.551115e-17
      vertex 2.474876e+00 2.474876e+00 3.535537e-01
      vertex 2.474876e+00 1.767769e+00 -3.535538e-01
    endloop
  endfacet
  facet normal -7.071068e-01 -2.355134e-16 -7.071068e-01
    outer loop
      vertex 2.121322e+00 2.474876e+00 -5.551115e-17
      vertex 2.474876e+00 1.767769e+00 -3.535538e-01
      vertex 1.767769e+00 1.767769e+00 3.535537e-01
    endloop
  endfacet
endsolid surface_model
