solid surface_model
  facet normal 8.278472e-01 -3.738628e-01 -4.182053e-01
    outer loop
      vertex 3.314560e-01 1.108005e+00 -3.343978e-01
      vertex 2.556832e-01 8.522774e-02 4.299400e-01
      vertex -2.556832e-01 -8.522774e-02 -4.299400e-01
    endloop
  endfacet
  facet normal 8.784640e-01 -4.459839e-01 1.714625e-01
    outer loop
      vertex 3.314560e-01 1.108005e+00 -3.343978e-01
      vertex -2.556832e-01 -8.522774e-02 -4.299400e-01
      vertex 8.522774e-02 2.556832e-01 -1.289820e+00
    endloop
  endfacet
  facet normal 8.341848e-01 -5.005282e-01 2.315324e-01
    outer loop
      vertex 3.314560e-01 1.108005e+00 -3.343978e-01
      vertex 8.522774e-02 2.556832e-01 -1.289820e+00
      vertex 5.966385e-01 1.108005e+00 -1.289820e+00
    endloop
  endfacet
  facet normal 8.341848e-01 5.005282e-01 2.315324e-01
    outer loop
      vertex 3.314560e-01 1.108005e+00 -3.343978e-01
      vertex 5.966385e-01 1.108005e+00 -1.289820e+00
      vertex 8.522774e-02 1.960327e+00 -1.289820e+00
    endloop
  endfacet
  facet normal 8.784640e-01 4.459839e-01 1.714625e-01
    outer loop
      vertex 3.314560e-01 1.108005e+00 -3.343978e-01
      vertex 8.522774e-02 1.960327e+00 -1.289820e+00
      vertex -2.556832e-01 2.301238e+00 -4.299400e-01
    endloop
  endfacet
  facet normal 8.278472e-01 3.738628e-01 -4.182053e-01
    outer loop
      vertex 3.314560e-01 1.108005e+00 -3.343978e-01
      vertex -2.556832e-01 2.301238e+00 -4.299400e-01
      vertex 2.556832e-01 2.130782e+00 4.299400e-01
    endloop
  endfacet
  facet normal 3.467146e-01 5.778376e-01 -7.388456e-01
    outer loop
      vertex 3.314560e-01 1.108005e+00 -3.343978e-01
      vertex 2.556832e-01 2.130782e+00 4.299400e-01
      vertex 1.108005e+00 1.619371e+00 4.299400e-01
    endloop
  endfacet
  facet normal 7.014811e-01 0.000000e+00 -7.126881e-01
    outer loop
      vertex 3.314560e-01 1.108005e+00 -3.343978e-01
      vertex 1.108005e+00 1.619371e+00 4.299400e-01
      vertex 1.108005e+00 5.966385e-01 4.299400e-01
    endloop
  endfacet
  facet normal 3.467146e-01 -5.778376e-01 -7.388456e-01
    outer loop
      vertex 3.314560e-01 1.108005e+00 -3.343978e-01
      vertex 1.108005e+00 5.966385e-01 4.299400e-01
      vertex 2.556832e-01 8.522774e-02 4.299400e-01
    endloop
  endfacet
  facet normal 8.278472e-01 -3.738628e-01 -4.182053e-01
    outer loop
      vertex 4.100564e+00 3.324015e+00 3.773918e+00
      vertex 4.176337e+00 4.346792e+00 3.009580e+00
      vertex 4.687703e+00 4.517248e+00 3.869460e+00
    endloop
  endfacet
  facet normal 8.784640e-01 -4.459839e-01 1.714625e-01
    outer loop
      vertex 4.100564e+00 3.324015e+00 3.773918e+00
      vertex 4.687703e+00 4.517248e+00 3.869460e+00
      vertex 4.346792e+00 4.176337e+00 4.729340e+00
    endloop
  endfacet
  facet normal 8.341848e-01 -5.005282e-01 2.315324e-01
    outer loop
      vertex 4.100564e+00 3.324015e+00 3.773918e+00
      vertex 4.346792e+00 4.176337e+00 4.729340e+00
      vertex 3.835381e+00 3.324015e+00 4.729340e+00
    endloop
  endfacet
  facet normal 8.341848e-01 5.005282e-01 2.315324e-01
    outer loop
      vertex 4.100564e+00 3.324015e+00 3.773918e+00
      vertex 3.835381e+00 3.324015e+00 4.729340e+00
      vertex 4.346792e+00 2.471693e+00 4.729340e+00
    endloop
  endfacet
  facet normal 8.784640e-01 4.459839e-01 1.714625e-01
    outer loop
      vertex 4.100564e+00 3.324015e+00 3.773918e+00
      vertex 4.346792e+00 2.471693e+00 4.729340e+00
      vertex 4.687703e+00 2.130782e+00 3.869460e+00
    endloop
  endfacet
  facet normal 8.278472e-01 3.738628e-01 -4.182053e-01
    outer loop
      vertex 4.100564e+00 3.324015e+00 3.773918e+00
      vertex 4.687703e+00 2.130782e+00 3.869460e+00
      vertex 4.176337e+00 2.301238e+00 3.009580e+00
    endloop
  endfacet
  facet normal 3.467146e-01 5.778376e-01 -7.388456e-01
    outer loop
      vertex 4.100564e+00 3.324015e+00 3.773918e+00
      vertex 4.176337e+00 2.301238e+00 3.009580e+00
      vertex 3.324015e+00 2.812649e+00 3.009580e+00
    endloop
  endfacet
  facet normal 7.014811e-01 -2.988821e-16 -7.126881e-01
    outer loop
      vertex 4.100564e+00 3.324015e+00 3.773918e+00
      vertex 3.324015e+00 2.812649e+00 3.009580e+00
      vertex 3.324015e+00 3.835381e+00 3.009580e+00
    endloop
  endfacet
  facet normal 3.467146e-01 -5.778376e-01 -7.388456e-01
    outer loop
      vertex 4.100564e+00 3.324015e+00 3.773918e+00
      vertex 3.324015e+00 3.835381e+00 3.009580e+00
      vertex 4.176337e+00 4.346792e+00 3.009580e+00
    endloop
  endfacet
  facet normal -8.278472e-01 -3.738628e-01 -4.182053e-01
    outer loop
      vertex 2.547466e+00 -1.108005e+00 3.343978e-01
      vertex 1.960327e+00 8.522774e-02 4.299400e-01
      vertex 2.471693e+00 -8.522774e-02 -4.299400e-01
    endloop
  endfacet
  facet normal -3.467146e-01 -5.778376e-01 -7.388456e-01
    outer loop
      vertex 2.547466e+00 -1.108005e+00 3.343978e-01
      vertex 2.471693e+00 -8.522774e-02 -4.299400e-01
      vertex 3.324015e+00 -5.966385e-01 -4.299400e-01
    endloop
  endfacet
  facet normal -7.014811e-01 2.988821e-16 -7.126881e-01
    outer loop
      vertex 2.547466e+00 -1.108005e+00 3.343978e-01
      vertex 3.324015e+00 -5.966385e-01 -4.299400e-01
      vertex 3.324015e+00 -1.619371e+00 -4.299400e-01
    endloop
  endfacet
  facet normal -3.467146e-01 5.778376e-01 -7.388456e-01
    outer loop
      vertex 2.547466e+00 -1.108005e+00 3.343978e-01
      vertex 3.324015e+00 -1.619371e+00 -4.299400e-01
      vertex 2.471693e+00 -2.130782e+00 -4.299400e-01
    endloop
  endfacet
  facet normal -8.278472e-01 3.738628e-01 -4.182053e-01
    outer loop
      vertex 2.547466e+00 -1.108005e+00 3.343978e-01
      vertex 2.471693e+00 -2.130782e+00 -4.299400e-01
      vertex 1.960327e+00 -2.301238e+00 4.299400e-01
    endloop
  endfacet
  facet normal -8.784640e-01 4.459839e-01 1.714625e-01
    outer loop
      vertex 2.547466e+00 -1.108005e+00 3.343978e-01
      vertex 1.960327e+00 -2.301238e+00 4.299400e-01
      vertex 2.301238e+00 -1.960327e+00 1.289820e+00
    endloop
  endfacet
  facet normal -8.341848e-01 5.005282e-01 2.315324e-01
    outer loop
      vertex 2.547466e+00 -1.108005e+00 3.343978e-01
      vertex 2.301238e+00 -1.960327e+00 1.289820e+00
      vertex 2.812649e+00 -1.108005e+00 1.289820e+00
    endloop
  endfacet
  facet normal -8.341848e-01 -5.005282e-01 2.315324e-01
    outer loop
      vertex 2.547466e+00 -1.108005e+00 3.343978e-01
      vertex 2.812649e+00 -1.108005e+00 1.289820e+00
      vertex 2.301238e+00 -2.556832e-01 1.289820e+00
    endloop
  endfacet
  facet normal -8.784640e-01 -4.459839e-01 1.714625e-01
    outer loop
      vertex 2.547466e+00 -1.108005e+00 3.343978e-01
      vertex 2.301238e+00 -2.556832e-01 1.289820e+00
      vertex 1.960327e+00 8.522774e-02 4.299400e-01
    endloop
  endfacet
  facet normal -8.278472e-01 -3.738628e-01 -4.182053e-01
    outer loop
      vertex 1.884554e+00 5.540025e+00 3.105122e+00
      vertex 2.471693e+00 4.346792e+00 3.009580e+00
      vertex 1.960327e+00 4.517248e+00 3.869460e+00
    endloop
  endfacet
  facet normal -3.467146e-01 -5.778376e-01 -7.388456e-01
    outer loop
      vertex 1.884554e+00 5.540025e+00 3.105122e+00
      vertex 1.960327e+00 4.517248e+00 3.869460e+00
      vertex 1.108005e+00 5.028659e+00 3.869460e+00
    endloop
  endfacet
  facet normal -7.014811e-01 0.000000e+00 -7.126881e-01
    outer loop
      vertex 1.884554e+00 5.540025e+00 3.105122e+00
      vertex 1.108005e+00 5.028659e+00 3.869460e+00
      vertex 1.108005e+00 6.051391e+00 3.869460e+00
    endloop
  endfacet
  facet normal -3.467146e-01 5.778376e-01 -7.388456e-01
    outer loop
      vertex 1.884554e+00 5.540025e+00 3.105122e+00
      vertex 1.108005e+00 6.051391e+00 3.869460e+00
      vertex 1.960327e+00 6.562802e+00 3.869460e+00
    endloop
  endfacet
  facet normal -8.278472e-01 3.738628e-01 -4.182053e-01
    outer loop
      vertex 1.884554e+00 5.540025e+00 3.105122e+00
      vertex 1.960327e+00 6.562802e+00 3.869460e+00
      vertex 2.471693e+00 6.733258e+00 3.009580e+00
    endloop
  endfacet
  facet normal -8.784640e-01 4.459839e-01 1.714625e-01
    outer loop
      vertex 1.884554e+00 5.540025e+00 3.105122e+00
      vertex 2.471693e+00 6.733258e+00 3.009580e+00
      vertex 2.130782e+00 6.392347e+00 2.149700e+00
    endloop
  endfacet
  facet normal -8.341848e-01 5.005282e-01 2.315324e-01
    outer loop
      vertex 1.884554e+00 5.540025e+00 3.105122e+00
      vertex 2.130782e+00 6.392347e+00 2.149700e+00
      vertex 1.619371e+00 5.540025e+00 2.149700e+00
    endloop
  endfacet
  facet normal -8.341848e-01 -5.005282e-01 2.315324e-01
    outer loop
      vertex 1.884554e+00 5.540025e+00 3.105122e+00
      vertex 1.619371e+00 5.540025e+00 2.149700e+00
      vertex 2.130782e+00 4.687703e+00 2.149700e+00
    endloop
  endfacet
  facet normal -8.784640e-01 -4.459839e-01 1.714625e-01
    outer loop
      vertex 1.884554e+00 5.540025e+00 3.105122e+00
      vertex 2.130782e+00 4.687703e+00 2.149700e+00
      vertex 2.471693e+00 4.346792e+00 3.009580e+00
    endloop
  endfacet
  facet normal 8.278472e-01 3.738628e-01 -4.182053e-01
    outer loop
      vertex -3.314560e-01 3.324015e+00 3.343978e-01
      vertex 2.556832e-01 2.130782e+00 4.299400e-01
      vertex -2.556832e-01 2.301238e+00 -4.299400e-01
    endloop
  endfacet
  facet normal 3.467146e-01 5.778376e-01 -7.388456e-01
    outer loop
      vertex -3.314560e-01 3.324015e+00 3.343978e-01
      vertex -2.556832e-01 2.301238e+00 -4.299400e-01
      vertex -1.108005e+00 2.812649e+00 -4.299400e-01
    endloop
  endfacet
  facet normal 7.014811e-01 -2.988821e-16 -7.126881e-01
    outer loop
      vertex -3.314560e-01 3.324015e+00 3.343978e-01
      vertex -1.108005e+00 2.812649e+00 -4.299400e-01
      vertex -1.108005e+00 3.835381e+00 -4.299400e-01
    endloop
  endfacet
  facet normal 3.467146e-01 -5.778376e-01 -7.388456e-01
    outer loop
      vertex -3.314560e-01 3.324015e+00 3.343978e-01
      vertex -1.108005e+00 3.835381e+00 -4.299400e-01
      vertex -2.556832e-01 4.346792e+00 -4.299400e-01
    endloop
  endfacet
  facet normal 8.278472e-01 -3.738628e-01 -4.182053e-01
    outer loop
      vertex -3.314560e-01 3.324015e+00 3.343978e-01
      vertex -2.556832e-01 4.346792e+00 -4.299400e-01
      vertex 2.556832e-01 4.517248e+00 4.299400e-01
    endloop
  endfacet
  facet normal 8.784640e-01 -4.459839e-01 1.714625e-01
    outer loop
      vertex -3.314560e-01 3.324015e+00 3.343978e-01
      vertex 2.556832e-01 4.517248e+00 4.299400e-01
      vertex -8.522774e-02 4.176337e+00 1.289820e+00
    endloop
  endfacet
  facet normal 8.341848e-01 -5.005282e-01 2.315324e-01
    outer loop
      vertex -3.314560e-01 3.324015e+00 3.343978e-01
      vertex -8.522774e-02 4.176337e+00 1.289820e+00
      vertex -5.966385e-01 3.324015e+00 1.289820e+00
    endloop
  endfacet
  facet normal 8.341848e-01 5.005282e-01 2.315324e-01
    outer loop
      vertex -3.314560e-01 3.324015e+00 3.343978e-01
      vertex -5.966385e-01 3.324015e+00 1.289820e+00
      vertex -8.522774e-02 2.471693e+00 1.289820e+00
    endloop
  endfacet
  facet normal 8.784640e-01 4.459839e-01 1.714625e-01
    outer loop
      vertex -3.314560e-01 3.324015e+00 3.343978e-01
      vertex -8.522774e-02 2.471693e+00 1.289820e+00
      vertex 2.556832e-01 2.130782e+00 4.299400e-01
    endloop
  endfacet
  facet normal 8.278472e-01 3.738628e-01 -4.182053e-01
    outer loop
      vertex 4.763476e+00 1.108005e+00 3.105122e+00
      vertex 4.176337e+00 2.301238e+00 3.009580e+00
      vertex 4.687703e+00 2.130782e+00 3.869460e+00
    endloop
  endfacet
  facet normal 3.467146e-01 5.778376e-01 -7.388456e-01
    outer loop
      vertex 4.763476e+00 1.108005e+00 3.105122e+00
      vertex 4.687703e+00 2.130782e+00 3.869460e+00
      vertex 5.540025e+00 1.619371e+00 3.869460e+00
    endloop
  endfacet
  facet normal 7.014811e-01 0.000000e+00 -7.126881e-01
    outer loop
      vertex 4.763476e+00 1.108005e+00 3.105122e+00
      vertex 5.540025e+00 1.619371e+00 3.869460e+00
      vertex 5.540025e+00 5.966385e-01 3.869460e+00
    endloop
  endfacet
  facet normal 3.467146e-01 -5.778376e-01 -7.388456e-01
    outer loop
      vertex 4.763476e+00 1.108005e+00 3.105122e+00
      vertex 5.540025e+00 5.966385e-01 3.869460e+00
      vertex 4.687703e+00 8.522774e-02 3.869460e+00
    endloop
  endfacet
  facet normal 8.278472e-01 -3.738628e-01 -4.182053e-01
    outer loop
      vertex 4.763476e+00 1.108005e+00 3.105122e+00
      vertex 4.687703e+00 8.522774e-02 3.869460e+00
      vertex 4.176337e+00 -8.522774e-02 3.009580e+00
    endloop
  endfacet
  facet normal 8.784640e-01 -4.459839e-01 1.714625e-01
    outer loop
      vertex 4.763476e+00 1.108005e+00 3.105122e+00
      vertex 4.176337e+00 -8.522774e-02 3.009580e+00
      vertex 4.517248e+00 2.556832e-01 2.149700e+00
    endloop
  endfacet
  facet normal 8.341848e-01 -5.005282e-01 2.315324e-01
    outer loop
      vertex 4.763476e+00 1.108005e+00 3.105122e+00
      vertex 4.517248e+00 2.556832e-01 2.149700e+00
      vertex 5.028659e+00 1.108005e+00 2.149700e+00
    endloop
  endfacet
  facet normal 8.341848e-01 5.005282e-01 2.315324e-01
    outer loop
      vertex 4.763476e+00 1.108005e+00 3.105122e+00
      vertex 5.028659e+00 1.108005e+00 2.149700e+00
      vertex 4.517248e+00 1.960327e+00 2.149700e+00
    endloop
  endfacet
  facet normal 8.784640e-01 4.459839e-01 1.714625e-01
    outer loop
      vertex 4.763476e+00 1.108005e+00 3.105122e+00
      vertex 4.517248e+00 1.960327e+00 2.149700e+00
      vertex 4.176337e+00 2.301238e+00 3.009580e+00
    endloop
  endfacet
  facet normal 3.738628e-01 -8.278472e-01 4.182053e-01
    outer loop
      vertex 1.108005e+00 3.314560e-01 1.385362e+00
      vertex 8.522774e-02 2.556832e-01 2.149700e+00
      vertex -8.522774e-02 -2.556832e-01 1.289820e+00
    endloop
  endfacet
  facet normal 4.459839e-01 -8.784640e-01 -1.714625e-01
    outer loop
      vertex 1.108005e+00 3.314560e-01 1.385362e+00
      vertex -8.522774e-02 -2.556832e-01 1.289820e+00
      vertex 2.556832e-01 8.522774e-02 4.299400e-01
    endloop
  endfacet
  facet normal 5.005282e-01 -8.341848e-01 -2.315324e-01
    outer loop
      vertex 1.108005e+00 3.314560e-01 1.385362e+00
      vertex 2.556832e-01 8.522774e-02 4.299400e-01
      vertex 1.108005e+00 5.966385e-01 4.299400e-01
    endloop
  endfacet
  facet normal -5.005282e-01 -8.341848e-01 -2.315324e-01
    outer loop
      vertex 1.108005e+00 3.314560e-01 1.385362e+00
      vertex 1.108005e+00 5.966385e-01 4.299400e-01
      vertex 1.960327e+00 8.522774e-02 4.299400e-01
    endloop
  endfacet
  facet normal -4.459839e-01 -8.784640e-01 -1.714625e-01
    outer loop
      vertex 1.108005e+00 3.314560e-01 1.385362e+00
      vertex 1.960327e+00 8.522774e-02 4.299400e-01
      vertex 2.301238e+00 -2.556832e-01 1.289820e+00
    endloop
  endfacet
  facet normal -3.738628e-01 -8.278472e-01 4.182053e-01
    outer loop
      vertex 1.108005e+00 3.314560e-01 1.385362e+00
      vertex 2.301238e+00 -2.556832e-01 1.289820e+00
      vertex 2.130782e+00 2.556832e-01 2.149700e+00
    endloop
  endfacet
  facet normal -5.778376e-01 -3.467146e-01 7.388456e-01
    outer loop
      vertex 1.108005e+00 3.314560e-01 1.385362e+00
      vertex 2.130782e+00 2.556832e-01 2.149700e+00
      vertex 1.619371e+00 1.108005e+00 2.149700e+00
    endloop
  endfacet
  facet normal 0.000000e+00 -7.014811e-01 7.126881e-01
    outer loop
      vertex 1.108005e+00 3.314560e-01 1.385362e+00
      vertex 1.619371e+00 1.108005e+00 2.149700e+00
      vertex 5.966385e-01 1.108005e+00 2.149700e+00
    endloop
  endfacet
  facet normal 5.778376e-01 -3.467146e-01 7.388456e-01
    outer loop
      vertex 1.108005e+00 3.314560e-01 1.385362e+00
      vertex 5.966385e-01 1.108005e+00 2.149700e+00
      vertex 8.522774e-02 2.556832e-01 2.149700e+00
    endloop
  endfacet
  facet normal 3.738628e-01 -8.278472e-01 4.182053e-01
    outer loop
      vertex 3.324015e+00 4.100564e+00 2.054158e+00
      vertex 4.346792e+00 4.176337e+00 1.289820e+00
      vertex 4.517248e+00 4.687703e+00 2.149700e+00
    endloop
  endfacet
  facet normal 4.459839e-01 -8.784640e-01 -1.714625e-01
    outer loop
      vertex 3.324015e+00 4.100564e+00 2.054158e+00
      vertex 4.517248e+00 4.687703e+00 2.149700e+00
      vertex 4.176337e+00 4.346792e+00 3.009580e+00
    endloop
  endfacet
  facet normal 5.005282e-01 -8.341848e-01 -2.315324e-01
    outer loop
      vertex 3.324015e+00 4.100564e+00 2.054158e+00
      vertex 4.176337e+00 4.346792e+00 3.009580e+00
      vertex 3.324015e+00 3.835381e+00 3.009580e+00
    endloop
  endfacet
  facet normal -5.005282e-01 -8.341848e-01 -2.315324e-01
    outer loop
      vertex 3.324015e+00 4.100564e+00 2.054158e+00
      vertex 3.324015e+00 3.835381e+00 3.009580e+00
      vertex 2.471693e+00 4.346792e+00 3.009580e+00
    endloop
  endfacet
  facet normal -4.459839e-01 -8.784640e-01 -1.714625e-01
    outer loop
      vertex 3.324015e+00 4.100564e+00 2.054158e+00
      vertex 2.471693e+00 4.346792e+00 3.009580e+00
      vertex 2.130782e+00 4.687703e+00 2.149700e+00
    endloop
  endfacet
  facet normal -3.738628e-01 -8.278472e-01 4.182053e-01
    outer loop
      vertex 3.324015e+00 4.100564e+00 2.054158e+00
      vertex 2.130782e+00 4.687703e+00 2.149700e+00
      vertex 2.301238e+00 4.176337e+00 1.289820e+00
    endloop
  endfacet
  facet normal -5.778376e-01 -3.467146e-01 7.388456e-01
    outer loop
      vertex 3.324015e+00 4.100564e+00 2.054158e+00
      vertex 2.301238e+00 4.176337e+00 1.289820e+00
      vertex 2.812649e+00 3.324015e+00 1.289820e+00
    endloop
  endfacet
  facet normal 0.000000e+00 -7.014811e-01 7.126881e-01
    outer loop
      vertex 3.324015e+00 4.100564e+00 2.054158e+00
      vertex 2.812649e+00 3.324015e+00 1.289820e+00
      vertex 3.835381e+00 3.324015e+00 1.289820e+00
    endloop
  endfacet
  facet normal 5.778376e-01 -3.467146e-01 7.388456e-01
    outer loop
      vertex 3.324015e+00 4.100564e+00 2.054158e+00
      vertex 3.835381e+00 3.324015e+00 1.289820e+00
      vertex 4.346792e+00 4.176337e+00 1.289820e+00
    endloop
  endfacet
  facet normal -8.278472e-01 3.738628e-01 -4.182053e-01
    outer loop
      vertex 1.884554e+00 1.108005e+00 -3.343978e-01
      vertex 1.960327e+00 2.130782e+00 4.299400e-01
      vertex 2.471693e+00 2.301238e+00 -4.299400e-01
    endloop
  endfacet
  facet normal -8.784640e-01 4.459839e-01 1.714625e-01
    outer loop
      vertex 1.884554e+00 1.108005e+00 -3.343978e-01
      vertex 2.471693e+00 2.301238e+00 -4.299400e-01
      vertex 2.130782e+00 1.960327e+00 -1.289820e+00
    endloop
  endfacet
  facet normal -8.341848e-01 5.005282e-01 2.315324e-01
    outer loop
      vertex 1.884554e+00 1.108005e+00 -3.343978e-01
      vertex 2.130782e+00 1.960327e+00 -1.289820e+00
      vertex 1.619371e+00 1.108005e+00 -1.289820e+00
    endloop
  endfacet
  facet normal -8.341848e-01 -5.005282e-01 2.315324e-01
    outer loop
      vertex 1.884554e+00 1.108005e+00 -3.343978e-01
      vertex 1.619371e+00 1.108005e+00 -1.289820e+00
      vertex 2.130782e+00 2.556832e-01 -1.289820e+00
    endloop
  endfacet
  facet normal -8.784640e-01 -4.459839e-01 1.714625e-01
    outer loop
      vertex 1.884554e+00 1.108005e+00 -3.343978e-01
      vertex 2.130782e+00 2.556832e-01 -1.289820e+00
      vertex 2.471693e+00 -8.522774e-02 -4.299400e-01
    endloop
  endfacet
  facet normal -8.278472e-01 -3.738628e-01 -4.182053e-01
    outer loop
      vertex 1.884554e+00 1.108005e+00 -3.343978e-01
      vertex 2.471693e+00 -8.522774e-02 -4.299400e-01
      vertex 1.960327e+00 8.522774e-02 4.299400e-01
    endloop
  endfacet
  facet normal -3.467146e-01 -5.778376e-01 -7.388456e-01
    outer loop
      vertex 1.884554e+00 1.108005e+00 -3.343978e-01
      vertex 1.960327e+00 8.522774e-02 4.299400e-01
      vertex 1.108005e+00 5.966385e-01 4.299400e-01
    endloop
  endfacet
  facet normal -7.014811e-01 0.000000e+00 -7.126881e-01
    outer loop
      vertex 1.884554e+00 1.108005e+00 -3.343978e-01
      vertex 1.108005e+00 5.966385e-01 4.299400e-01
      vertex 1.108005e+00 1.619371e+00 4.299400e-01
    endloop
  endfacet
  facet normal -3.467146e-01 5.778376e-01 -7.388456e-01
    outer loop
      vertex 1.884554e+00 1.108005e+00 -3.343978e-01
      vertex 1.108005e+00 1.619371e+00 4.299400e-01
      vertex 1.960327e+00 2.130782e+00 4.299400e-01
    endloop
  endfacet
  facet normal -8.278472e-01 3.738628e-01 -4.182053e-01
    outer loop
      vertex 2.547466e+00 3.324015e+00 3.773918e+00
      vertex 2.471693e+00 2.301238e+00 3.009580e+00
      vertex 1.960327e+00 2.130782e+00 3.869460e+00
    endloop
  endfacet
  facet normal -8.784640e-01 4.459839e-01 1.714625e-01
    outer loop
      vertex 2.547466e+00 3.324015e+00 3.773918e+00
      vertex 1.960327e+00 2.130782e+00 3.869460e+00
      vertex 2.301238e+00 2.471693e+00 4.729340e+00
    endloop
  endfacet
  facet normal -8.341848e-01 5.005282e-01 2.315324e-01
    outer loop
      vertex 2.547466e+00 3.324015e+00 3.773918e+00
      vertex 2.301238e+00 2.471693e+00 4.729340e+00
      vertex 2.812649e+00 3.324015e+00 4.729340e+00
    endloop
  endfacet
  facet normal -8.341848e-01 -5.005282e-01 2.315324e-01
    outer loop
      vertex 2.547466e+00 3.324015e+00 3.773918e+00
      vertex 2.812649e+00 3.324015e+00 4.729340e+00
      vertex 2.301238e+00 4.176337e+00 4.729340e+00
    endloop
  endfacet
  facet normal -8.784640e-01 -4.459839e-01 1.714625e-01
    outer loop
      vertex 2.547466e+00 3.324015e+00 3.773918e+00
      vertex 2.301238e+00 4.176337e+00 4.729340e+00
      vertex 1.960327e+00 4.517248e+00 3.869460e+00
    endloop
  endfacet
  facet normal -8.278472e-01 -3.738628e-01 -4.182053e-01
    outer loop
      vertex 2.547466e+00 3.324015e+00 3.773918e+00
      vertex 1.960327e+00 4.517248e+00 3.869460e+00
      vertex 2.471693e+00 4.346792e+00 3.009580e+00
    endloop
  endfacet
  facet normal -3.467146e-01 -5.778376e-01 -7.388456e-01
    outer loop
      vertex 2.547466e+00 3.324015e+00 3.773918e+00
      vertex 2.471693e+00 4.346792e+00 3.009580e+00
      vertex 3.324015e+00 3.835381e+00 3.009580e+00
    endloop
  endfacet
  facet normal -7.014811e-01 2.988821e-16 -7.126881e-01
    outer loop
      vertex 2.547466e+00 3.324015e+00 3.773918e+00
      vertex 3.324015e+00 3.835381e+00 3.009580e+00
      vertex 3.324015e+00 2.812649e+00 3.009580e+00
    endloop
  endfacet
  facet normal -3.467146e-01 5.778376e-01 -7.388456e-01
    outer loop
      vertex 2.547466e+00 3.324015e+00 3.773918e+00
      vertex 3.324015e+00 2.812649e+00 3.009580e+00
      vertex 2.471693e+00 2.301238e+00 3.009580e+00
    endloop
  endfacet
  facet normal 3.738628e-01 8.278472e-01 4.182053e-01
    outer loop
      vertex -1.108005e+00 2.547466e+00 2.054158e+00
      vertex 8.522774e-02 1.960327e+00 2.149700e+00
      vertex -8.522774e-02 2.471693e+00 1.289820e+00
    endloop
  endfacet
  facet normal 5.778376e-01 3.467146e-01 7.388456e-01
    outer loop
      vertex -1.108005e+00 2.547466e+00 2.054158e+00
      vertex -8.522774e-02 2.471693e+00 1.289820e+00
      vertex -5.966385e-01 3.324015e+00 1.289820e+00
    endloop
  endfacet
  facet normal 0.000000e+00 7.014811e-01 7.126881e-01
    outer loop
      vertex -1.108005e+00 2.547466e+00 2.054158e+00
      vertex -5.966385e-01 3.324015e+00 1.289820e+00
      vertex -1.619371e+00 3.324015e+00 1.289820e+00
    endloop
  endfacet
  facet normal -5.778376e-01 3.467146e-01 7.388456e-01
    outer loop
      vertex -1.108005e+00 2.547466e+00 2.054158e+00
      vertex -1.619371e+00 3.324015e+00 1.289820e+00
      vertex -2.130782e+00 2.471693e+00 1.289820e+00
    endloop
  endfacet
  facet normal -3.738628e-01 8.278472e-01 4.182053e-01
    outer loop
      vertex -1.108005e+00 2.547466e+00 2.054158e+00
      vertex -2.130782e+00 2.471693e+00 1.289820e+00
      vertex -2.301238e+00 1.960327e+00 2.149700e+00
    endloop
  endfacet
  facet normal -4.459839e-01 8.784640e-01 -1.714625e-01
    outer loop
      vertex -1.108005e+00 2.547466e+00 2.054158e+00
      vertex -2.301238e+00 1.960327e+00 2.149700e+00
      vertex -1.960327e+00 2.301238e+00 3.009580e+00
    endloop
  endfacet
  facet normal -5.005282e-01 8.341848e-01 -2.315324e-01
    outer loop
      vertex -1.108005e+00 2.547466e+00 2.054158e+00
      vertex -1.960327e+00 2.301238e+00 3.009580e+00
      vertex -1.108005e+00 2.812649e+00 3.009580e+00
    endloop
  endfacet
  facet normal 5.005282e-01 8.341848e-01 -2.315324e-01
    outer loop
      vertex -1.108005e+00 2.547466e+00 2.054158e+00
      vertex -1.108005e+00 2.812649e+00 3.009580e+00
      vertex -2.556832e-01 2.301238e+00 3.009580e+00
    endloop
  endfacet
  facet normal 4.459839e-01 8.784640e-01 -1.714625e-01
    outer loop
      vertex -1.108005e+00 2.547466e+00 2.054158e+00
      vertex -2.556832e-01 2.301238e+00 3.009580e+00
      vertex 8.522774e-02 1.960327e+00 2.149700e+00
    endloop
  endfacet
  facet normal 3.738628e-01 8.278472e-01 4.182053e-01
    outer loop
      vertex 5.540025e+00 1.884554e+00 1.385362e+00
      vertex 4.346792e+00 2.471693e+00 1.289820e+00
      vertex 4.517248e+00 1.960327e+00 2.149700e+00
    endloop
  endfacet
  facet normal 5.778376e-01 3.467146e-01 7.388456e-01
    outer loop
      vertex 5.540025e+00 1.884554e+00 1.385362e+00
      vertex 4.517248e+00 1.960327e+00 2.149700e+00
      vertex 5.028659e+00 1.108005e+00 2.149700e+00
    endloop
  endfacet
  facet normal 0.000000e+00 7.014811e-01 7.126881e-01
    outer loop
      vertex 5.540025e+00 1.884554e+00 1.385362e+00
      vertex 5.028659e+00 1.108005e+00 2.149700e+00
      vertex 6.051391e+00 1.108005e+00 2.149700e+00
    endloop
  endfacet
  facet normal -5.778376e-01 3.467146e-01 7.388456e-01
    outer loop
      vertex 5.540025e+00 1.884554e+00 1.385362e+00
      vertex 6.051391e+00 1.108005e+00 2.149700e+00
      vertex 6.562802e+00 1.960327e+00 2.149700e+00
    endloop
  endfacet
  facet normal -3.738628e-01 8.278472e-01 4.182053e-01
    outer loop
      vertex 5.540025e+00 1.884554e+00 1.385362e+00
      vertex 6.562802e+00 1.960327e+00 2.149700e+00
      vertex 6.733258e+00 2.471693e+00 1.289820e+00
    endloop
  endfacet
  facet normal -4.459839e-01 8.784640e-01 -1.714625e-01
    outer loop
      vertex 5.540025e+00 1.884554e+00 1.385362e+00
      vertex 6.733258e+00 2.471693e+00 1.289820e+00
      vertex 6.392347e+00 2.130782e+00 4.299400e-01
    endloop
  endfacet
  facet normal -5.005282e-01 8.341848e-01 -2.315324e-01
    outer loop
      vertex 5.540025e+00 1.884554e+00 1.385362e+00
      vertex 6.392347e+00 2.130782e+00 4.299400e-01
      vertex 5.540025e+00 1.619371e+00 4.299400e-01
    endloop
  endfacet
  facet normal 5.005282e-01 8.341848e-01 -2.315324e-01
    outer loop
      vertex 5.540025e+00 1.884554e+00 1.385362e+00
      vertex 5.540025e+00 1.619371e+00 4.299400e-01
      vertex 4.687703e+00 2.130782e+00 4.299400e-01
    endloop
  endfacet
  facet normal 4.459839e-01 8.784640e-01 -1.714625e-01
    outer loop
      vertex 5.540025e+00 1.884554e+00 1.385362e+00
      vertex 4.687703e+00 2.130782e+00 4.299400e-01
      vertex 4.346792e+00 2.471693e+00 1.289820e+00
    endloop
  endfacet
  facet normal -3.738628e-01 -8.278472e-01 4.182053e-01
    outer loop
      vertex 3.324015e+00 -3.314560e-01 2.054158e+00
      vertex 2.130782e+00 2.556832e-01 2.149700e+00
      vertex 2.301238e+00 -2.556832e-01 1.289820e+00
    endloop
  endfacet
  facet normal -5.778376e-01 -3.467146e-01 7.388456e-01
    outer loop
      vertex 3.324015e+00 -3.314560e-01 2.054158e+00
      vertex 2.301238e+00 -2.556832e-01 1.289820e+00
      vertex 2.812649e+00 -1.108005e+00 1.289820e+00
    endloop
  endfacet
  facet normal 0.000000e+00 -7.014811e-01 7.126881e-01
    outer loop
      vertex 3.324015e+00 -3.314560e-01 2.054158e+00
      vertex 2.812649e+00 -1.108005e+00 1.289820e+00
      vertex 3.835381e+00 -1.108005e+00 1.289820e+00
    endloop
  endfacet
  facet normal 5.778376e-01 -3.467146e-01 7.388456e-01
    outer loop
      vertex 3.324015e+00 -3.314560e-01 2.054158e+00
      vertex 3.835381e+00 -1.108005e+00 1.289820e+00
      vertex 4.346792e+00 -2.556832e-01 1.289820e+00
    endloop
  endfacet
  facet normal 3.738628e-01 -8.278472e-01 4.182053e-01
    outer loop
      vertex 3.324015e+00 -3.314560e-01 2.054158e+00
      vertex 4.346792e+00 -2.556832e-01 1.289820e+00
      vertex 4.517248e+00 2.556832e-01 2.149700e+00
    endloop
  endfacet
  facet normal 4.459839e-01 -8.784640e-01 -1.714625e-01
    outer loop
      vertex 3.324015e+00 -3.314560e-01 2.054158e+00
      vertex 4.517248e+00 2.556832e-01 2.149700e+00
      vertex 4.176337e+00 -8.522774e-02 3.009580e+00
    endloop
  endfacet
  facet normal 5.005282e-01 -8.341848e-01 -2.315324e-01
    outer loop
      vertex 3.324015e+00 -3.314560e-01 2.054158e+00
      vertex 4.176337e+00 -8.522774e-02 3.009580e+00
      vertex 3.324015e+00 -5.966385e-01 3.009580e+00
    endloop
  endfacet
  facet normal -5.005282e-01 -8.341848e-01 -2.315324e-01
    outer loop
      vertex 3.324015e+00 -3.314560e-01 2.054158e+00
      vertex 3.324015e+00 -5.966385e-01 3.009580e+00
      vertex 2.471693e+00 -8.522774e-02 3.009580e+00
    endloop
  endfacet
  facet normal -4.459839e-01 -8.784640e-01 -1.714625e-01
    outer loop
      vertex 3.324015e+00 -3.314560e-01 2.054158e+00
      vertex 2.471693e+00 -8.522774e-02 3.009580e+00
      vertex 2.130782e+00 2.556832e-01 2.149700e+00
    endloop
  endfacet
  facet normal -3.738628e-01 -8.278472e-01 4.182053e-01
    outer loop
      vertex 1.108005e+00 4.763476e+00 1.385362e+00
      vertex 2.301238e+00 4.176337e+00 1.289820e+00
      vertex 2.130782e+00 4.687703e+00 2.149700e+00
    endloop
  endfacet
  facet normal -5.778376e-01 -3.467146e-01 7.388456e-01
    outer loop
      vertex 1.108005e+00 4.763476e+00 1.385362e+00
      vertex 2.130782e+00 4.687703e+00 2.149700e+00
      vertex 1.619371e+00 5.540025e+00 2.149700e+00
    endloop
  endfacet
  facet normal 0.000000e+00 -7.014811e-01 7.126881e-01
    outer loop
      vertex 1.108005e+00 4.763476e+00 1.385362e+00
      vertex 1.619371e+00 5.540025e+00 2.149700e+00
      vertex 5.966385e-01 5.540025e+00 2.149700e+00
    endloop
  endfacet
  facet normal 5.778376e-01 -3.467146e-01 7.388456e-01
    outer loop
      vertex 1.108005e+00 4.763476e+00 1.385362e+00
      vertex 5.966385e-01 5.540025e+00 2.149700e+00
      vertex 8.522774e-02 4.687703e+00 2.149700e+00
    endloop
  endfacet
  facet normal 3.738628e-01 -8.278472e-01 4.182053e-01
    outer loop
      vertex 1.108005e+00 4.763476e+00 1.385362e+00
      vertex 8.522774e-02 4.687703e+00 2.149700e+00
      vertex -8.522774e-02 4.176337e+00 1.289820e+00
    endloop
  endfacet
  facet normal 4.459839e-01 -8.784640e-01 -1.714625e-01
    outer loop
      vertex 1.108005e+00 4.763476e+00 1.385362e+00
      vertex -8.522774e-02 4.176337e+00 1.289820e+00
      vertex 2.556832e-01 4.517248e+00 4.299400e-01
    endloop
  endfacet
  facet normal 5.005282e-01 -8.341848e-01 -2.315324e-01
    outer loop
      vertex 1.108005e+00 4.763476e+00 1.385362e+00
      vertex 2.556832e-01 4.517248e+00 4.299400e-01
      vertex 1.108005e+00 5.028659e+00 4.299400e-01
    endloop
  endfacet
  facet normal -5.005282e-01 -8.341848e-01 -2.315324e-01
    outer loop
      vertex 1.108005e+00 4.763476e+00 1.385362e+00
      vertex 1.108005e+00 5.028659e+00 4.299400e-01
      vertex 1.960327e+00 4.517248e+00 4.299400e-01
    endloop
  endfacet
  facet normal -4.459839e-01 -8.784640e-01 -1.714625e-01
    outer loop
      vertex 1.108005e+00 4.763476e+00 1.385362e+00
      vertex 1.960327e+00 4.517248e+00 4.299400e-01
      vertex 2.301238e+00 4.176337e+00 1.289820e+00
    endloop
  endfacet
  facet normal -3.738628e-01 8.278472e-01 4.182053e-01
    outer loop
      vertex 3.324015e+00 2.547466e+00 2.054158e+00
      vertex 2.301238e+00 2.471693e+00 1.289820e+00
      vertex 2.130782e+00 1.960327e+00 2.149700e+00
    endloop
  endfacet
  facet normal -4.459839e-01 8.784640e-01 -1.714625e-01
    outer loop
      vertex 3.324015e+00 2.547466e+00 2.054158e+00
      vertex 2.130782e+00 1.960327e+00 2.149700e+00
      vertex 2.471693e+00 2.301238e+00 3.009580e+00
    endloop
  endfacet
  facet normal -5.005282e-01 8.341848e-01 -2.315324e-01
    outer loop
      vertex 3.324015e+00 2.547466e+00 2.054158e+00
      vertex 2.471693e+00 2.301238e+00 3.009580e+00
      vertex 3.324015e+00 2.812649e+00 3.009580e+00
    endloop
  endfacet
  facet normal 5.005282e-01 8.341848e-01 -2.315324e-01
    outer loop
      vertex 3.324015e+00 2.547466e+00 2.054158e+00
      vertex 3.324015e+00 2.812649e+00 3.009580e+00
      vertex 4.176337e+00 2.301238e+00 3.009580e+00
    endloop
  endfacet
  facet normal 4.459839e-01 8.784640e-01 -1.714625e-01
    outer loop
      vertex 3.324015e+00 2.547466e+00 2.054158e+00
      vertex 4.176337e+00 2.301238e+00 3.009580e+00
      vertex 4.517248e+00 1.960327e+00 2.149700e+00
    endloop
  endfacet
  facet normal 3.738628e-01 8.278472e-01 4.182053e-01
    outer loop
      vertex 3.324015e+00 2.547466e+00 2.054158e+00
      vertex 4.517248e+00 1.960327e+00 2.149700e+00
      vertex 4.346792e+00 2.471693e+00 1.289820e+00
    endloop
  endfacet
  facet normal 5.778376e-01 3.467146e-01 7.388456e-01
    outer loop
      vertex 3.324015e+00 2.547466e+00 2.054158e+00
      vertex 4.346792e+00 2.471693e+00 1.289820e+00
      vertex 3.835381e+00 3.324015e+00 1.289820e+00
    endloop
  endfacet
  facet normal 0.000000e+00 7.014811e-01 7.126881e-01
    outer loop
      vertex 3.324015e+00 2.547466e+00 2.054158e+00
      vertex 3.835381e+00 3.324015e+00 1.289820e+00
      vertex 2.812649e+00 3.324015e+00 1.289820e+00
    endloop
  endfacet
  facet normal -5.778376e-01 3.467146e-01 7.388456e-01
    outer loop
      vertex 3.324015e+00 2.547466e+00 2.054158e+00
      vertex 2.812649e+00 3.324015e+00 1.289820e+00
      vertex 2.301238e+00 2.471693e+00 1.289820e+00
    endloop
  endfacet
  facet normal -3.738628e-01 8.278472e-01 4.182053e-01
    outer loop
      vertex 1.108005e+00 1.884554e+00 1.385362e+00
      vertex 2.130782e+00 1.960327e+00 2.149700e+00
      vertex 2.301238e+00 2.471693e+00 1.289820e+00
    endloop
  endfacet
  facet normal -4.459839e-01 8.784640e-01 -1.714625e-01
    outer loop
      vertex 1.108005e+00 1.884554e+00 1.385362e+00
      vertex 2.301238e+00 2.471693e+00 1.289820e+00
      vertex 1.960327e+00 2.130782e+00 4.299400e-01
    endloop
  endfacet
  facet normal -5.005282e-01 8.341848e-01 -2.315324e-01
    outer loop
      vertex 1.108005e+00 1.884554e+00 1.385362e+00
      vertex 1.960327e+00 2.130782e+00 4.299400e-01
      vertex 1.108005e+00 1.619371e+00 4.299400e-01
    endloop
  endfacet
  facet normal 5.005282e-01 8.341848e-01 -2.315324e-01
    outer loop
      vertex 1.108005e+00 1.884554e+00 1.385362e+00
      vertex 1.108005e+00 1.619371e+00 4.299400e-01
      vertex 2.556832e-01 2.130782e+00 4.299400e-01
    endloop
  endfacet
  facet normal 4.459839e-01 8.784640e-01 -1.714625e-01
    outer loop
      vertex 1.108005e+00 1.884554e+00 1.385362e+00
      vertex 2.556832e-01 2.130782e+00 4.299400e-01
      vertex -8.522774e-02 2.471693e+00 1.289820e+00
    endloop
  endfacet
  facet normal 3.738628e-01 8.278472e-01 4.182053e-01
    outer loop
      vertex 1.108005e+00 1.884554e+00 1.385362e+00
      vertex -8.522774e-02 2.471693e+00 1.289820e+00
      vertex 8.522774e-02 1.960327e+00 2.149700e+00
    endloop
  endfacet
  facet normal 5.778376e-01 3.467146e-01 7.388456e-01
    outer loop
      vertex 1.108005e+00 1.884554e+00 1.385362e+00
      vertex 8.522774e-02 1.960327e+00 2.149700e+00
      vertex 5.966385e-01 1.108005e+00 2.149700e+00
    endloop
  endfacet
  facet normal 0.000000e+00 7.014811e-01 7.126881e-01
    outer loop
      vertex 1.108005e+00 1.884554e+00 1.385362e+00
      vertex 5.966385e-01 1.108005e+00 2.149700e+00
      vertex 1.619371e+00 1.108005e+00 2.149700e+00
    endloop
  endfacet
  facet normal -5.778376e-01 3.467146e-01 7.388456e-01
    outer loop
      vertex 1.108005e+00 1.884554e+00 1.385362e+00
      vertex 1.619371e+00 1.108005e+00 2.149700e+00
      vertex 2.130782e+00 1.960327e+00 2.149700e+00
    endloop
  endfacet
  facet normal 8.784640e-01 -4.459839e-01 1.714625e-01
    outer loop
      vertex -3.314560e-01 -1.108005e+00 3.343978e-01
      vertex 2.556832e-01 8.522774e-02 4.299400e-01
      vertex -8.522774e-02 -2.556832e-01 1.289820e+00
    endloop
  endfacet
  facet normal 8.341848e-01 -5.005282e-01 2.315324e-01
    outer loop
      vertex -3.314560e-01 -1.108005e+00 3.343978e-01
      vertex -8.522774e-02 -2.556832e-01 1.289820e+00
      vertex -5.966385e-01 -1.108005e+00 1.289820e+00
    endloop
  endfacet
  facet normal 8.341848e-01 5.005282e-01 2.315324e-01
    outer loop
      vertex -3.314560e-01 -1.108005e+00 3.343978e-01
      vertex -5.966385e-01 -1.108005e+00 1.289820e+00
      vertex -8.522774e-02 -1.960327e+00 1.289820e+00
    endloop
  endfacet
  facet normal 8.784640e-01 4.459839e-01 1.714625e-01
    outer loop
      vertex -3.314560e-01 -1.108005e+00 3.343978e-01
      vertex -8.522774e-02 -1.960327e+00 1.289820e+00
      vertex 2.556832e-01 -2.301238e+00 4.299400e-01
    endloop
  endfacet
  facet normal 8.278472e-01 3.738628e-01 -4.182053e-01
    outer loop
      vertex -3.314560e-01 -1.108005e+00 3.343978e-01
      vertex 2.556832e-01 -2.301238e+00 4.299400e-01
      vertex -2.556832e-01 -2.130782e+00 -4.299400e-01
    endloop
  endfacet
  facet normal 3.467146e-01 5.778376e-01 -7.388456e-01
    outer loop
      vertex -3.314560e-01 -1.108005e+00 3.343978e-01
      vertex -2.556832e-01 -2.130782e+00 -4.299400e-01
      vertex -1.108005e+00 -1.619371e+00 -4.299400e-01
    endloop
  endfacet
  facet normal 7.014811e-01 -2.988821e-16 -7.126881e-01
    outer loop
      vertex -3.314560e-01 -1.108005e+00 3.343978e-01
      vertex -1.108005e+00 -1.619371e+00 -4.299400e-01
      vertex -1.108005e+00 -5.966385e-01 -4.299400e-01
    endloop
  endfacet
  facet normal 3.467146e-01 -5.778376e-01 -7.388456e-01
    outer loop
      vertex -3.314560e-01 -1.108005e+00 3.343978e-01
      vertex -1.108005e+00 -5.966385e-01 -4.299400e-01
      vertex -2.556832e-01 -8.522774e-02 -4.299400e-01
    endloop
  endfacet
  facet normal 8.278472e-01 -3.738628e-01 -4.182053e-01
    outer loop
      vertex -3.314560e-01 -1.108005e+00 3.343978e-01
      vertex -2.556832e-01 -8.522774e-02 -4.299400e-01
      vertex 2.556832e-01 8.522774e-02 4.299400e-01
    endloop
  endfacet
  facet normal 4.459839e-01 -8.784640e-01 -1.714625e-01
    outer loop
      vertex 5.540025e+00 4.763476e+00 1.385362e+00
      vertex 4.346792e+00 4.176337e+00 1.289820e+00
      vertex 4.687703e+00 4.517248e+00 4.299400e-01
    endloop
  endfacet
  facet normal 5.005282e-01 -8.341848e-01 -2.315324e-01
    outer loop
      vertex 5.540025e+00 4.763476e+00 1.385362e+00
      vertex 4.687703e+00 4.517248e+00 4.299400e-01
      vertex 5.540025e+00 5.028659e+00 4.299400e-01
    endloop
  endfacet
  facet normal -5.005282e-01 -8.341848e-01 -2.315324e-01
    outer loop
      vertex 5.540025e+00 4.763476e+00 1.385362e+00
      vertex 5.540025e+00 5.028659e+00 4.299400e-01
      vertex 6.392347e+00 4.517248e+00 4.299400e-01
    endloop
  endfacet
  facet normal -4.459839e-01 -8.784640e-01 -1.714625e-01
    outer loop
      vertex 5.540025e+00 4.763476e+00 1.385362e+00
      vertex 6.392347e+00 4.517248e+00 4.299400e-01
      vertex 6.733258e+00 4.176337e+00 1.289820e+00
    endloop
  endfacet
  facet normal -3.738628e-01 -8.278472e-01 4.182053e-01
    outer loop
      vertex 5.540025e+00 4.763476e+00 1.385362e+00
      vertex 6.733258e+00 4.176337e+00 1.289820e+00
      vertex 6.562802e+00 4.687703e+00 2.149700e+00
    endloop
  endfacet
  facet normal -5.778376e-01 -3.467146e-01 7.388456e-01
    outer loop
      vertex 5.540025e+00 4.763476e+00 1.385362e+00
      vertex 6.562802e+00 4.687703e+00 2.149700e+00
      vertex 6.051391e+00 5.540025e+00 2.149700e+00
    endloop
  endfacet
  facet normal 0.000000e+00 -7.014811e-01 7.126881e-01
    outer loop
      vertex 5.540025e+00 4.763476e+00 1.385362e+00
      vertex 6.051391e+00 5.540025e+00 2.149700e+00
      vertex 5.028659e+00 5.540025e+00 2.149700e+00
    endloop
  endfacet
  facet normal 5.778376e-01 -3.467146e-01 7.388456e-01
    outer loop
      vertex 5.540025e+00 4.763476e+00 1.385362e+00
      vertex 5.028659e+00 5.540025e+00 2.149700e+00
      vertex 4.517248e+00 4.687703e+00 2.149700e+00
    endloop
  endfacet
  facet normal 3.738628e-01 -8.278472e-01 4.182053e-01
    outer loop
      vertex 5.540025e+00 4.763476e+00 1.385362e+00
      vertex 4.517248e+00 4.687703e+00 2.149700e+00
      vertex 4.346792e+00 4.176337e+00 1.289820e+00
    endloop
  endfacet
  facet normal -8.784640e-01 -4.459839e-01 1.714625e-01
    outer loop
      vertex 2.547466e+00 3.324015e+00 3.343978e-01
      vertex 2.301238e+00 4.176337e+00 1.289820e+00
      vertex 1.960327e+00 4.517248e+00 4.299400e-01
    endloop
  endfacet
  facet normal -8.278472e-01 -3.738628e-01 -4.182053e-01
    outer loop
      vertex 2.547466e+00 3.324015e+00 3.343978e-01
      vertex 1.960327e+00 4.517248e+00 4.299400e-01
      vertex 2.471693e+00 4.346792e+00 -4.299400e-01
    endloop
  endfacet
  facet normal -3.467146e-01 -5.778376e-01 -7.388456e-01
    outer loop
      vertex 2.547466e+00 3.324015e+00 3.343978e-01
      vertex 2.471693e+00 4.346792e+00 -4.299400e-01
      vertex 3.324015e+00 3.835381e+00 -4.299400e-01
    endloop
  endfacet
  facet normal -7.014811e-01 2.988821e-16 -7.126881e-01
    outer loop
      vertex 2.547466e+00 3.324015e+00 3.343978e-01
      vertex 3.324015e+00 3.835381e+00 -4.299400e-01
      vertex 3.324015e+00 2.812649e+00 -4.299400e-01
    endloop
  endfacet
  facet normal -3.467146e-01 5.778376e-01 -7.388456e-01
    outer loop
      vertex 2.547466e+00 3.324015e+00 3.343978e-01
      vertex 3.324015e+00 2.812649e+00 -4.299400e-01
      vertex 2.471693e+00 2.301238e+00 -4.299400e-01
    endloop
  endfacet
  facet normal -8.278472e-01 3.738628e-01 -4.182053e-01
    outer loop
      vertex 2.547466e+00 3.324015e+00 3.343978e-01
      vertex 2.471693e+00 2.301238e+00 -4.299400e-01
      vertex 1.960327e+00 2.130782e+00 4.299400e-01
    endloop
  endfacet
  facet normal -8.784640e-01 4.459839e-01 1.714625e-01
    outer loop
      vertex 2.547466e+00 3.324015e+00 3.343978e-01
      vertex 1.960327e+00 2.130782e+00 4.299400e-01
      vertex 2.301238e+00 2.471693e+00 1.289820e+00
    endloop
  endfacet
  facet normal -8.341848e-01 5.005282e-01 2.315324e-01
    outer loop
      vertex 2.547466e+00 3.324015e+00 3.343978e-01
      vertex 2.301238e+00 2.471693e+00 1.289820e+00
      vertex 2.812649e+00 3.324015e+00 1.289820e+00
    endloop
  endfacet
  facet normal -8.341848e-01 -5.005282e-01 2.315324e-01
    outer loop
      vertex 2.547466e+00 3.324015e+00 3.343978e-01
      vertex 2.812649e+00 3.324015e+00 1.289820e+00
      vertex 2.301238e+00 4.176337e+00 1.289820e+00
    endloop
  endfacet
  facet normal 8.784640e-01 4.459839e-01 1.714625e-01
    outer loop
      vertex 4.100564e+00 3.324015e+00 3.343978e-01
      vertex 4.346792e+00 2.471693e+00 1.289820e+00
      vertex 4.687703e+00 2.130782e+00 4.299400e-01
    endloop
  endfacet
  facet normal 8.278472e-01 3.738628e-01 -4.182053e-01
    outer loop
      vertex 4.100564e+00 3.324015e+00 3.343978e-01
      vertex 4.687703e+00 2.130782e+00 4.299400e-01
      vertex 4.176337e+00 2.301238e+00 -4.299400e-01
    endloop
  endfacet
  facet normal 3.467146e-01 5.778376e-01 -7.388456e-01
    outer loop
      vertex 4.100564e+00 3.324015e+00 3.343978e-01
      vertex 4.176337e+00 2.301238e+00 -4.299400e-01
      vertex 3.324015e+00 2.812649e+00 -4.299400e-01
    endloop
  endfacet
  facet normal 7.014811e-01 -2.988821e-16 -7.126881e-01
    outer loop
      vertex 4.100564e+00 3.324015e+00 3.343978e-01
      vertex 3.324015e+00 2.812649e+00 -4.299400e-01
      vertex 3.324015e+00 3.835381e+00 -4.299400e-01
    endloop
  endfacet
  facet normal 3.467146e-01 -5.778376e-01 -7.388456e-01
    outer loop
      vertex 4.100564e+00 3.324015e+00 3.343978e-01
      vertex 3.324015e+00 3.835381e+00 -4.299400e-01
      vertex 4.176337e+00 4.346792e+00 -4.299400e-01
    endloop
  endfacet
  facet normal 8.278472e-01 -3.738628e-01 -4.182053e-01
    outer loop
      vertex 4.100564e+00 3.324015e+00 3.343978e-01
      vertex 4.176337e+00 4.346792e+00 -4.299400e-01
      vertex 4.687703e+00 4.517248e+00 4.299400e-01
    endloop
  endfacet
  facet normal 8.784640e-01 -4.459839e-01 1.714625e-01
    outer loop
      vertex 4.100564e+00 3.324015e+00 3.343978e-01
      vertex 4.687703e+00 4.517248e+00 4.299400e-01
      vertex 4.346792e+00 4.176337e+00 1.289820e+00
    endloop
  endfacet
  facet normal 8.341848e-01 -5.005282e-01 2.315324e-01
    outer loop
      vertex 4.100564e+00 3.324015e+00 3.343978e-01
      vertex 4.346792e+00 4.176337e+00 1.289820e+00
      vertex 3.835381e+00 3.324015e+00 1.289820e+00
    endloop
  endfacet
  facet normal 8.341848e-01 5.005282e-01 2.315324e-01
    outer loop
      vertex 4.100564e+00 3.324015e+00 3.343978e-01
      vertex 3.835381e+00 3.324015e+00 1.289820e+00
      vertex 4.346792e+00 2.471693e+00 1.289820e+00
    endloop
  endfacet
  facet normal 4.459839e-01 -8.784640e-01 -1.714625e-01
    outer loop
      vertex -1.108005e+00 -3.314560e-01 2.054158e+00
      vertex 8.522774e-02 2.556832e-01 2.149700e+00
      vertex -2.556832e-01 -8.522774e-02 3.009580e+00
    endloop
  endfacet
  facet normal 5.005282e-01 -8.341848e-01 -2.315324e-01
    outer loop
      vertex -1.108005e+00 -3.314560e-01 2.054158e+00
      vertex -2.556832e-01 -8.522774e-02 3.009580e+00
      vertex -1.108005e+00 -5.966385e-01 3.009580e+00
    endloop
  endfacet
  facet normal -5.005282e-01 -8.341848e-01 -2.315324e-01
    outer loop
      vertex -1.108005e+00 -3.314560e-01 2.054158e+00
      vertex -1.108005e+00 -5.966385e-01 3.009580e+00
      vertex -1.960327e+00 -8.522774e-02 3.009580e+00
    endloop
  endfacet
  facet normal -4.459839e-01 -8.784640e-01 -1.714625e-01
    outer loop
      vertex -1.108005e+00 -3.314560e-01 2.054158e+00
      vertex -1.960327e+00 -8.522774e-02 3.009580e+00
      vertex -2.301238e+00 2.556832e-01 2.149700e+00
    endloop
  endfacet
  facet normal -3.738628e-01 -8.278472e-01 4.182053e-01
    outer loop
      vertex -1.108005e+00 -3.314560e-01 2.054158e+00
      vertex -2.301238e+00 2.556832e-01 2.149700e+00
      vertex -2.130782e+00 -2.556832e-01 1.289820e+00
    endloop
  endfacet
  facet normal -5.778376e-01 -3.467146e-01 7.388456e-01
    outer loop
      vertex -1.108005e+00 -3.314560e-01 2.054158e+00
      vertex -2.130782e+00 -2.556832e-01 1.289820e+00
      vertex -1.619371e+00 -1.108005e+00 1.289820e+00
    endloop
  endfacet
  facet normal 0.000000e+00 -7.014811e-01 7.126881e-01
    outer loop
      vertex -1.108005e+00 -3.314560e-01 2.054158e+00
      vertex -1.619371e+00 -1.108005e+00 1.289820e+00
      vertex -5.966385e-01 -1.108005e+00 1.289820e+00
    endloop
  endfacet
  facet normal 5.778376e-01 -3.467146e-01 7.388456e-01
    outer loop
      vertex -1.108005e+00 -3.314560e-01 2.054158e+00
      vertex -5.966385e-01 -1.108005e+00 1.289820e+00
      vertex -8.522774e-02 -2.556832e-01 1.289820e+00
    endloop
  endfacet
  facet normal 3.738628e-01 -8.278472e-01 4.182053e-01
    outer loop
      vertex -1.108005e+00 -3.314560e-01 2.054158e+00
      vertex -8.522774e-02 -2.556832e-01 1.289820e+00
      vertex 8.522774e-02 2.556832e-01 2.149700e+00
    endloop
  endfacet
  facet normal 8.784640e-01 -4.459839e-01 1.714625e-01
    outer loop
      vertex 4.763476e+00 5.540025e+00 3.105122e+00
      vertex 4.176337e+00 4.346792e+00 3.009580e+00
      vertex 4.517248e+00 4.687703e+00 2.149700e+00
    endloop
  endfacet
  facet normal 8.341848e-01 -5.005282e-01 2.315324e-01
    outer loop
      vertex 4.763476e+00 5.540025e+00 3.105122e+00
      vertex 4.517248e+00 4.687703e+00 2.149700e+00
      vertex 5.028659e+00 5.540025e+00 2.149700e+00
    endloop
  endfacet
  facet normal 8.341848e-01 5.005282e-01 2.315324e-01
    outer loop
      vertex 4.763476e+00 5.540025e+00 3.105122e+00
      vertex 5.028659e+00 5.540025e+00 2.149700e+00
      vertex 4.517248e+00 6.392347e+00 2.149700e+00
    endloop
  endfacet
  facet normal 8.784640e-01 4.459839e-01 1.714625e-01
    outer loop
      vertex 4.763476e+00 5.540025e+00 3.105122e+00
      vertex 4.517248e+00 6.392347e+00 2.149700e+00
      vertex 4.176337e+00 6.733258e+00 3.009580e+00
    endloop
  endfacet
  facet normal 8.278472e-01 3.738628e-01 -4.182053e-01
    outer loop
      vertex 4.763476e+00 5.540025e+00 3.105122e+00
      vertex 4.176337e+00 6.733258e+00 3.009580e+00
      vertex 4.687703e+00 6.562802e+00 3.869460e+00
    endloop
  endfacet
  facet normal 3.467146e-01 5.778376e-01 -7.388456e-01
    outer loop
      vertex 4.763476e+00 5.540025e+00 3.105122e+00
      vertex 4.687703e+00 6.562802e+00 3.869460e+00
      vertex 5.540025e+00 6.051391e+00 3.869460e+00
    endloop
  endfacet
  facet normal 7.014811e-01 0.000000e+00 -7.126881e-01
    outer loop
      vertex 4.763476e+00 5.540025e+00 3.105122e+00
      vertex 5.540025e+00 6.051391e+00 3.869460e+00
      vertex 5.540025e+00 5.028659e+00 3.869460e+00
    endloop
  endfacet
  facet normal 3.467146e-01 -5.778376e-01 -7.388456e-01
    outer loop
      vertex 4.763476e+00 5.540025e+00 3.105122e+00
      vertex 5.540025e+00 5.028659e+00 3.869460e+00
      vertex 4.687703e+00 4.517248e+00 3.869460e+00
    endloop
  endfacet
  facet normal 8.278472e-01 -3.738628e-01 -4.182053e-01
    outer loop
      vertex 4.763476e+00 5.540025e+00 3.105122e+00
      vertex 4.687703e+00 4.517248e+00 3.869460e+00
      vertex 4.176337e+00 4.346792e+00 3.009580e+00
    endloop
  endfacet
  facet normal 8.784640e-01 4.459839e-01 1.714625e-01
    outer loop
      vertex 3.314560e-01 1.108005e+00 3.105122e+00
      vertex 8.522774e-02 1.960327e+00 2.149700e+00
      vertex -2.556832e-01 2.301238e+00 3.009580e+00
    endloop
  endfacet
  facet normal 8.278472e-01 3.738628e-01 -4.182053e-01
    outer loop
      vertex 3.314560e-01 1.108005e+00 3.105122e+00
      vertex -2.556832e-01 2.301238e+00 3.009580e+00
      vertex 2.556832e-01 2.130782e+00 3.869460e+00
    endloop
  endfacet
  facet normal 3.467146e-01 5.778376e-01 -7.388456e-01
    outer loop
      vertex 3.314560e-01 1.108005e+00 3.105122e+00
      vertex 2.556832e-01 2.130782e+00 3.869460e+00
      vertex 1.108005e+00 1.619371e+00 3.869460e+00
    endloop
  endfacet
  facet normal 7.014811e-01 0.000000e+00 -7.126881e-01
    outer loop
      vertex 3.314560e-01 1.108005e+00 3.105122e+00
      vertex 1.108005e+00 1.619371e+00 3.869460e+00
      vertex 1.108005e+00 5.966385e-01 3.869460e+00
    endloop
  endfacet
  facet normal 3.467146e-01 -5.778376e-01 -7.388456e-01
    outer loop
      vertex 3.314560e-01 1.108005e+00 3.105122e+00
      vertex 1.108005e+00 5.966385e-01 3.869460e+00
      vertex 2.556832e-01 8.522774e-02 3.869460e+00
    endloop
  endfacet
  facet normal 8.278472e-01 -3.738628e-01 -4.182053e-01
    outer loop
      vertex 3.314560e-01 1.108005e+00 3.105122e+00
      vertex 2.556832e-01 8.522774e-02 3.869460e+00
      vertex -2.556832e-01 -8.522774e-02 3.009580e+00
    endloop
  endfacet
  facet normal 8.784640e-01 -4.459839e-01 1.714625e-01
    outer loop
      vertex 3.314560e-01 1.108005e+00 3.105122e+00
      vertex -2.556832e-01 -8.522774e-02 3.009580e+00
      vertex 8.522774e-02 2.556832e-01 2.149700e+00
    endloop
  endfacet
  facet normal 8.341848e-01 -5.005282e-01 2.315324e-01
    outer loop
      vertex 3.314560e-01 1.108005e+00 3.105122e+00
      vertex 8.522774e-02 2.556832e-01 2.149700e+00
      vertex 5.966385e-01 1.108005e+00 2.149700e+00
    endloop
  endfacet
  facet normal 8.341848e-01 5.005282e-01 2.315324e-01
    outer loop
      vertex 3.314560e-01 1.108005e+00 3.105122e+00
      vertex 5.966385e-01 1.108005e+00 2.149700e+00
      vertex 8.522774e-02 1.960327e+00 2.149700e+00
    endloop
  endfacet
  facet normal -8.784640e-01 -4.459839e-01 1.714625e-01
    outer loop
      vertex 1.884554e+00 1.108005e+00 3.105122e+00
      vertex 2.130782e+00 2.556832e-01 2.149700e+00
      vertex 2.471693e+00 -8.522774e-02 3.009580e+00
    endloop
  endfacet
  facet normal -8.278472e-01 -3.738628e-01 -4.182053e-01
    outer loop
      vertex 1.884554e+00 1.108005e+00 3.105122e+00
      vertex 2.471693e+00 -8.522774e-02 3.009580e+00
      vertex 1.960327e+00 8.522774e-02 3.869460e+00
    endloop
  endfacet
  facet normal -3.467146e-01 -5.778376e-01 -7.388456e-01
    outer loop
      vertex 1.884554e+00 1.108005e+00 3.105122e+00
      vertex 1.960327e+00 8.522774e-02 3.869460e+00
      vertex 1.108005e+00 5.966385e-01 3.869460e+00
    endloop
  endfacet
  facet normal -7.014811e-01 0.000000e+00 -7.126881e-01
    outer loop
      vertex 1.884554e+00 1.108005e+00 3.105122e+00
      vertex 1.108005e+00 5.966385e-01 3.869460e+00
      vertex 1.108005e+00 1.619371e+00 3.869460e+00
    endloop
  endfacet
  facet normal -3.467146e-01 5.778376e-01 -7.388456e-01
    outer loop
      vertex 1.884554e+00 1.108005e+00 3.105122e+00
      vertex 1.108005e+00 1.619371e+00 3.869460e+00
      vertex 1.960327e+00 2.130782e+00 3.869460e+00
    endloop
  endfacet
  facet normal -8.278472e-01 3.738628e-01 -4.182053e-01
    outer loop
      vertex 1.884554e+00 1.108005e+00 3.105122e+00
      vertex 1.960327e+00 2.130782e+00 3.869460e+00
      vertex 2.471693e+00 2.301238e+00 3.009580e+00
    endloop
  endfacet
  facet normal -8.784640e-01 4.459839e-01 1.714625e-01
    outer loop
      vertex 1.884554e+00 1.108005e+00 3.105122e+00
      vertex 2.471693e+00 2.301238e+00 3.009580e+00
      vertex 2.130782e+00 1.960327e+00 2.149700e+00
    endloop
  endfacet
  facet normal -8.341848e-01 5.005282e-01 2.315324e-01
    outer loop
      vertex 1.884554e+00 1.108005e+00 3.105122e+00
      vertex 2.130782e+00 1.960327e+00 2.149700e+00
      vertex 1.619371e+00 1.108005e+00 2.149700e+00
    endloop
  endfacet
  facet normal -8.341848e-01 -5.005282e-01 2.315324e-01
    outer loop
      vertex 1.884554e+00 1.108005e+00 3.105122e+00
      vertex 1.619371e+00 1.108005e+00 2.149700e+00
      vertex 2.130782e+00 2.556832e-01 2.149700e+00
    endloop
  endfacet
endsolid surface_model
