solid surface_model
  facet normal 2.380359e-05 3.626285e-01 -9.319338e-01
    outer loop
      vertex 1.727216e+00 1.110223e-16 1.654380e+00
      vertex 1.295412e+00 9.448320e-01 2.022016e+00
      vertex 2.159020e+00 4.724160e-01 1.838215e+00
    endloop
  endfacet
  facet normal -2.536008e-16 3.626474e-01 -9.319264e-01
    outer loop
      vertex 1.727216e+00 1.110223e-16 1.654380e+00
      vertex 2.159020e+00 4.724160e-01 1.838215e+00
      vertex 2.159020e+00 -4.724160e-01 1.470545e+00
    endloop
  endfacet
  facet normal -2.380359e-05 3.626285e-01 -9.319338e-01
    outer loop
      vertex 1.727216e+00 1.110223e-16 1.654380e+00
      vertex 2.159020e+00 -4.724160e-01 1.470545e+00
      vertex 1.295412e+00 -9.448320e-01 1.286744e+00
    endloop
  endfacet
  facet normal 5.706085e-16 3.626190e-01 -9.319375e-01
    outer loop
      vertex 1.727216e+00 1.110223e-16 1.654380e+00
      vertex 1.295412e+00 -9.448320e-01 1.286744e+00
      vertex 1.295412e+00 9.448320e-01 2.022016e+00
    endloop
  endfacet
  facet normal 2.380359e-05 3.626285e-01 -9.319338e-01
    outer loop
      vertex 2.590824e+00 1.387779e-16 1.654380e+00
      vertex 3.022628e+00 -9.448320e-01 1.286744e+00
      vertex 2.159020e+00 -4.724160e-01 1.470545e+00
    endloop
  endfacet
  facet normal -2.536008e-16 3.626474e-01 -9.319264e-01
    outer loop
      vertex 2.590824e+00 1.387779e-16 1.654380e+00
      vertex 2.159020e+00 -4.724160e-01 1.470545e+00
      vertex 2.159020e+00 4.724160e-01 1.838215e+00
    endloop
  endfacet
  facet normal -2.380359e-05 3.626285e-01 -9.319338e-01
    outer loop
      vertex 2.590824e+00 1.387779e-16 1.654380e+00
      vertex 2.159020e+00 4.724160e-01 1.838215e+00
      vertex 3.022628e+00 9.448320e-01 2.022016e+00
    endloop
  endfacet
  facet normal -6.340095e-17 3.626190e-01 -9.319375e-01
    outer loop
      vertex 2.590824e+00 1.387779e-16 1.654380e+00
      vertex 3.022628e+00 9.448320e-01 2.022016e+00
      vertex 3.022628e+00 -9.448320e-01 1.286744e+00
    endloop
  endfacet
  facet normal 9.510142e-17 -3.626190e-01 9.319375e-01
    outer loop
      vertex 2.159020e+00 -6.344132e-17 1.654380e+00
      vertex 1.295412e+00 9.448320e-01 2.022016e+00
      vertex 1.295412e+00 -9.448320e-01 1.286744e+00
    endloop
  endfacet
  facet normal -7.381216e-01 6.746677e-01 7.549446e-16
    outer loop
      vertex 2.159020e+00 -6.344132e-17 1.654380e+00
      vertex 1.295412e+00 -9.448320e-01 1.286744e+00
      vertex 8.636080e-01 -1.417248e+00 2.022016e+00
    endloop
  endfacet
  facet normal -6.602691e-01 6.839743e-01 3.101997e-01
    outer loop
      vertex 2.159020e+00 -6.344132e-17 1.654380e+00
      vertex 8.636080e-01 -1.417248e+00 2.022016e+00
      vertex 1.295412e+00 -1.417248e+00 2.941124e+00
    endloop
  endfacet
  facet normal 1.656717e-01 6.056635e-01 7.782831e-01
    outer loop
      vertex 2.159020e+00 -6.344132e-17 1.654380e+00
      vertex 1.295412e+00 -1.417248e+00 2.941124e+00
      vertex 2.159020e+00 -1.889664e+00 3.124925e+00
    endloop
  endfacet
  facet normal -1.656717e-01 6.056635e-01 7.782831e-01
    outer loop
      vertex 2.159020e+00 -6.344132e-17 1.654380e+00
      vertex 2.159020e+00 -1.889664e+00 3.124925e+00
      vertex 3.022628e+00 -1.417248e+00 2.941124e+00
    endloop
  endfacet
  facet normal 6.602691e-01 6.839743e-01 3.101997e-01
    outer loop
      vertex 2.159020e+00 -6.344132e-17 1.654380e+00
      vertex 3.022628e+00 -1.417248e+00 2.941124e+00
      vertex 3.454432e+00 -1.417248e+00 2.022016e+00
    endloop
  endfacet
  facet normal 7.381216e-01 6.746677e-01 0.000000e+00
    outer loop
      vertex 2.159020e+00 -6.344132e-17 1.654380e+00
      vertex 3.454432e+00 -1.417248e+00 2.022016e+00
      vertex 3.022628e+00 -9.448320e-01 1.286744e+00
    endloop
  endfacet
  facet normal -9.510142e-17 -3.626190e-01 9.319375e-01
    outer loop
      vertex 2.159020e+00 -6.344132e-17 1.654380e+00
      vertex 3.022628e+00 -9.448320e-01 1.286744e+00
      vertex 3.022628e+00 9.448320e-01 2.022016e+00
    endloop
  endfacet
  facet normal -7.381216e-01 6.746677e-01 -1.132417e-15
    outer loop
      vertex 2.159020e+00 -6.344132e-17 1.654380e+00
      vertex 3.022628e+00 9.448320e-01 2.022016e+00
      vertex 3.454432e+00 1.417248e+00 1.286744e+00
    endloop
  endfacet
  facet normal -6.602691e-01 6.839743e-01 3.101997e-01
    outer loop
      vertex 2.159020e+00 -6.344132e-17 1.654380e+00
      vertex 3.454432e+00 1.417248e+00 1.286744e+00
      vertex 3.022628e+00 1.417248e+00 3.676363e-01
    endloop
  endfacet
  facet normal 1.656717e-01 6.056635e-01 7.782831e-01
    outer loop
      vertex 2.159020e+00 -6.344132e-17 1.654380e+00
      vertex 3.022628e+00 1.417248e+00 3.676363e-01
      vertex 2.159020e+00 1.889664e+00 1.838347e-01
    endloop
  endfacet
  facet normal -1.656717e-01 6.056635e-01 7.782831e-01
    outer loop
      vertex 2.159020e+00 -6.344132e-17 1.654380e+00
      vertex 2.159020e+00 1.889664e+00 1.838347e-01
      vertex 1.295412e+00 1.417248e+00 3.676363e-01
    endloop
  endfacet
  facet normal 6.602691e-01 6.839743e-01 3.101997e-01
    outer loop
      vertex 2.159020e+00 -6.344132e-17 1.654380e+00
      vertex 1.295412e+00 1.417248e+00 3.676363e-01
      vertex 8.636080e-01 1.417248e+00 1.286744e+00
    endloop
  endfacet
  facet normal 7.381216e-01 6.746677e-01 -3.774723e-16
    outer loop
      vertex 2.159020e+00 -6.344132e-17 1.654380e+00
      vertex 8.636080e-01 1.417248e+00 1.286744e+00
      vertex 1.295412e+00 9.448320e-01 2.022016e+00
    endloop
  endfacet
  facet normal -2.380359e-05 3.626285e-01 9.319338e-01
    outer loop
      vertex 4.318040e-01 5.551115e-17 -1.249001e-16
      vertex 8.636080e-01 9.448320e-01 -3.676363e-01
      vertex 1.767051e-17 4.724160e-01 -1.838347e-01
    endloop
  endfacet
  facet normal -6.340020e-17 3.626474e-01 9.319264e-01
    outer loop
      vertex 4.318040e-01 5.551115e-17 -1.249001e-16
      vertex 1.767051e-17 4.724160e-01 -1.838347e-01
      vertex -1.767051e-17 -4.724160e-01 1.838347e-01
    endloop
  endfacet
  facet normal 2.380359e-05 3.626285e-01 9.319338e-01
    outer loop
      vertex 4.318040e-01 5.551115e-17 -1.249001e-16
      vertex -1.767051e-17 -4.724160e-01 1.838347e-01
      vertex 8.636080e-01 -9.448320e-01 3.676363e-01
    endloop
  endfacet
  facet normal -1.268019e-16 3.626190e-01 9.319375e-01
    outer loop
      vertex 4.318040e-01 5.551115e-17 -1.249001e-16
      vertex 8.636080e-01 -9.448320e-01 3.676363e-01
      vertex 8.636080e-01 9.448320e-01 -3.676363e-01
    endloop
  endfacet
  facet normal -2.380359e-05 3.626285e-01 9.319338e-01
    outer loop
      vertex -4.318040e-01 5.551115e-17 -1.110223e-16
      vertex -8.636080e-01 -9.448320e-01 3.676363e-01
      vertex -1.767051e-17 -4.724160e-01 1.838347e-01
    endloop
  endfacet
  facet normal 6.340020e-17 3.626474e-01 9.319264e-01
    outer loop
      vertex -4.318040e-01 5.551115e-17 -1.110223e-16
      vertex -1.767051e-17 -4.724160e-01 1.838347e-01
      vertex 1.767051e-17 4.724160e-01 -1.838347e-01
    endloop
  endfacet
  facet normal 2.380359e-05 3.626285e-01 9.319338e-01
    outer loop
      vertex -4.318040e-01 5.551115e-17 -1.110223e-16
      vertex 1.767051e-17 4.724160e-01 -1.838347e-01
      vertex -8.636080e-01 9.448320e-01 -3.676363e-01
    endloop
  endfacet
  facet normal 1.268019e-16 3.626190e-01 9.319375e-01
    outer loop
      vertex -4.318040e-01 5.551115e-17 -1.110223e-16
      vertex -8.636080e-01 9.448320e-01 -3.676363e-01
      vertex -8.636080e-01 -9.448320e-01 3.676363e-01
    endloop
  endfacet
  facet normal 0.000000e+00 -3.626190e-01 -9.319375e-01
    outer loop
      vertex 1.110223e-16 -1.903239e-16 -1.586033e-17
      vertex 8.636080e-01 9.448320e-01 -3.676363e-01
      vertex 8.636080e-01 -9.448320e-01 3.676363e-01
    endloop
  endfacet
  facet normal 7.381216e-01 6.746677e-01 -3.774723e-16
    outer loop
      vertex 1.110223e-16 -1.903239e-16 -1.586033e-17
      vertex 8.636080e-01 -9.448320e-01 3.676363e-01
      vertex 1.295412e+00 -1.417248e+00 -3.676363e-01
    endloop
  endfacet
  facet normal 6.602691e-01 6.839743e-01 -3.101997e-01
    outer loop
      vertex 1.110223e-16 -1.903239e-16 -1.586033e-17
      vertex 1.295412e+00 -1.417248e+00 -3.676363e-01
      vertex 8.636080e-01 -1.417248e+00 -1.286744e+00
    endloop
  endfacet
  facet normal -1.656717e-01 6.056635e-01 -7.782831e-01
    outer loop
      vertex 1.110223e-16 -1.903239e-16 -1.586033e-17
      vertex 8.636080e-01 -1.417248e+00 -1.286744e+00
      vertex -2.057535e-16 -1.889664e+00 -1.470545e+00
    endloop
  endfacet
  facet normal 1.656717e-01 6.056635e-01 -7.782831e-01
    outer loop
      vertex 1.110223e-16 -1.903239e-16 -1.586033e-17
      vertex -2.057535e-16 -1.889664e+00 -1.470545e+00
      vertex -8.636080e-01 -1.417248e+00 -1.286744e+00
    endloop
  endfacet
  facet normal -6.602691e-01 6.839743e-01 -3.101997e-01
    outer loop
      vertex 1.110223e-16 -1.903239e-16 -1.586033e-17
      vertex -8.636080e-01 -1.417248e+00 -1.286744e+00
      vertex -1.295412e+00 -1.417248e+00 -3.676363e-01
    endloop
  endfacet
  facet normal -7.381216e-01 6.746677e-01 5.662085e-16
    outer loop
      vertex 1.110223e-16 -1.903239e-16 -1.586033e-17
      vertex -1.295412e+00 -1.417248e+00 -3.676363e-01
      vertex -8.636080e-01 -9.448320e-01 3.676363e-01
    endloop
  endfacet
  facet normal 0.000000e+00 -3.626190e-01 -9.319375e-01
    outer loop
      vertex 1.110223e-16 -1.903239e-16 -1.586033e-17
      vertex -8.636080e-01 -9.448320e-01 3.676363e-01
      vertex -8.636080e-01 9.448320e-01 -3.676363e-01
    endloop
  endfacet
  facet normal 7.381216e-01 6.746677e-01 5.662085e-16
    outer loop
      vertex 1.110223e-16 -1.903239e-16 -1.586033e-17
      vertex -8.636080e-01 9.448320e-01 -3.676363e-01
      vertex -1.295412e+00 1.417248e+00 3.676363e-01
    endloop
  endfacet
  facet normal 6.602691e-01 6.839743e-01 -3.101997e-01
    outer loop
      vertex 1.110223e-16 -1.903239e-16 -1.586033e-17
      vertex -1.295412e+00 1.417248e+00 3.676363e-01
      vertex -8.636080e-01 1.417248e+00 1.286744e+00
    endloop
  endfacet
  facet normal -1.656717e-01 6.056635e-01 -7.782831e-01
    outer loop
      vertex 1.110223e-16 -1.903239e-16 -1.586033e-17
      vertex -8.636080e-01 1.417248e+00 1.286744e+00
      vertex 2.057535e-16 1.889664e+00 1.470545e+00
    endloop
  endfacet
  facet normal 1.656717e-01 6.056635e-01 -7.782831e-01
    outer loop
      vertex 1.110223e-16 -1.903239e-16 -1.586033e-17
      vertex 2.057535e-16 1.889664e+00 1.470545e+00
      vertex 8.636080e-01 1.417248e+00 1.286744e+00
    endloop
  endfacet
  facet normal -6.602691e-01 6.839743e-01 -3.101997e-01
    outer loop
      vertex 1.110223e-16 -1.903239e-16 -1.586033e-17
      vertex 8.636080e-01 1.417248e+00 1.286744e+00
      vertex 1.295412e+00 1.417248e+00 3.676363e-01
    endloop
  endfacet
  facet normal -7.381216e-01 6.746677e-01 0.000000e+00
    outer loop
      vertex 1.110223e-16 -1.903239e-16 -1.586033e-17
      vertex 1.295412e+00 1.417248e+00 3.676363e-01
      vertex 8.636080e-01 9.448320e-01 -3.676363e-01
    endloop
  endfacet
  facet normal -2.380359e-05 3.626285e-01 9.319338e-01
    outer loop
      vertex 1.727216e+00 2.362080e+00 3.308760e+00
      vertex 1.295412e+00 1.417248e+00 3.676396e+00
      vertex 2.159020e+00 1.889664e+00 3.492595e+00
    endloop
  endfacet
  facet normal -5.706018e-16 3.626474e-01 9.319264e-01
    outer loop
      vertex 1.727216e+00 2.362080e+00 3.308760e+00
      vertex 2.159020e+00 1.889664e+00 3.492595e+00
      vertex 2.159020e+00 2.834496e+00 3.124925e+00
    endloop
  endfacet
  facet normal 2.380359e-05 3.626285e-01 9.319338e-01
    outer loop
      vertex 1.727216e+00 2.362080e+00 3.308760e+00
      vertex 2.159020e+00 2.834496e+00 3.124925e+00
      vertex 1.295412e+00 3.306912e+00 2.941124e+00
    endloop
  endfacet
  facet normal 4.438066e-16 3.626190e-01 9.319375e-01
    outer loop
      vertex 1.727216e+00 2.362080e+00 3.308760e+00
      vertex 1.295412e+00 3.306912e+00 2.941124e+00
      vertex 1.295412e+00 1.417248e+00 3.676396e+00
    endloop
  endfacet
  facet normal -2.380359e-05 3.626285e-01 9.319338e-01
    outer loop
      vertex 2.590824e+00 2.362080e+00 3.308760e+00
      vertex 3.022628e+00 3.306912e+00 2.941124e+00
      vertex 2.159020e+00 2.834496e+00 3.124925e+00
    endloop
  endfacet
  facet normal 5.706018e-16 3.626474e-01 9.319264e-01
    outer loop
      vertex 2.590824e+00 2.362080e+00 3.308760e+00
      vertex 2.159020e+00 2.834496e+00 3.124925e+00
      vertex 2.159020e+00 1.889664e+00 3.492595e+00
    endloop
  endfacet
  facet normal 2.380359e-05 3.626285e-01 9.319338e-01
    outer loop
      vertex 2.590824e+00 2.362080e+00 3.308760e+00
      vertex 2.159020e+00 1.889664e+00 3.492595e+00
      vertex 3.022628e+00 1.417248e+00 3.676396e+00
    endloop
  endfacet
  facet normal -4.438066e-16 3.626190e-01 9.319375e-01
    outer loop
      vertex 2.590824e+00 2.362080e+00 3.308760e+00
      vertex 3.022628e+00 1.417248e+00 3.676396e+00
      vertex 3.022628e+00 3.306912e+00 2.941124e+00
    endloop
  endfacet
  facet normal -4.121062e-16 -3.626190e-01 -9.319375e-01
    outer loop
      vertex 2.159020e+00 2.362080e+00 3.308760e+00
      vertex 1.295412e+00 1.417248e+00 3.676396e+00
      vertex 1.295412e+00 3.306912e+00 2.941124e+00
    endloop
  endfacet
  facet normal 7.381216e-01 6.746677e-01 -1.887362e-16
    outer loop
      vertex 2.159020e+00 2.362080e+00 3.308760e+00
      vertex 1.295412e+00 3.306912e+00 2.941124e+00
      vertex 8.636080e-01 3.779328e+00 3.676396e+00
    endloop
  endfacet
  facet normal 6.602691e-01 6.839743e-01 -3.101997e-01
    outer loop
      vertex 2.159020e+00 2.362080e+00 3.308760e+00
      vertex 8.636080e-01 3.779328e+00 3.676396e+00
      vertex 1.295412e+00 3.779328e+00 4.595504e+00
    endloop
  endfacet
  facet normal -1.656717e-01 6.056635e-01 -7.782831e-01
    outer loop
      vertex 2.159020e+00 2.362080e+00 3.308760e+00
      vertex 1.295412e+00 3.779328e+00 4.595504e+00
      vertex 2.159020e+00 4.251744e+00 4.779305e+00
    endloop
  endfacet
  facet normal 1.656717e-01 6.056635e-01 -7.782831e-01
    outer loop
      vertex 2.159020e+00 2.362080e+00 3.308760e+00
      vertex 2.159020e+00 4.251744e+00 4.779305e+00
      vertex 3.022628e+00 3.779328e+00 4.595504e+00
    endloop
  endfacet
  facet normal -6.602691e-01 6.839743e-01 -3.101997e-01
    outer loop
      vertex 2.159020e+00 2.362080e+00 3.308760e+00
      vertex 3.022628e+00 3.779328e+00 4.595504e+00
      vertex 3.454432e+00 3.779328e+00 3.676396e+00
    endloop
  endfacet
  facet normal -7.381216e-01 6.746677e-01 9.436808e-16
    outer loop
      vertex 2.159020e+00 2.362080e+00 3.308760e+00
      vertex 3.454432e+00 3.779328e+00 3.676396e+00
      vertex 3.022628e+00 3.306912e+00 2.941124e+00
    endloop
  endfacet
  facet normal 4.121062e-16 -3.626190e-01 -9.319375e-01
    outer loop
      vertex 2.159020e+00 2.362080e+00 3.308760e+00
      vertex 3.022628e+00 3.306912e+00 2.941124e+00
      vertex 3.022628e+00 1.417248e+00 3.676396e+00
    endloop
  endfacet
  facet normal 7.381216e-01 6.746677e-01 5.662085e-16
    outer loop
      vertex 2.159020e+00 2.362080e+00 3.308760e+00
      vertex 3.022628e+00 1.417248e+00 3.676396e+00
      vertex 3.454432e+00 9.448320e-01 2.941124e+00
    endloop
  endfacet
  facet normal 6.602691e-01 6.839743e-01 -3.101997e-01
    outer loop
      vertex 2.159020e+00 2.362080e+00 3.308760e+00
      vertex 3.454432e+00 9.448320e-01 2.941124e+00
      vertex 3.022628e+00 9.448320e-01 2.022016e+00
    endloop
  endfacet
  facet normal -1.656717e-01 6.056635e-01 -7.782831e-01
    outer loop
      vertex 2.159020e+00 2.362080e+00 3.308760e+00
      vertex 3.022628e+00 9.448320e-01 2.022016e+00
      vertex 2.159020e+00 4.724160e-01 1.838215e+00
    endloop
  endfacet
  facet normal 1.656717e-01 6.056635e-01 -7.782831e-01
    outer loop
      vertex 2.159020e+00 2.362080e+00 3.308760e+00
      vertex 2.159020e+00 4.724160e-01 1.838215e+00
      vertex 1.295412e+00 9.448320e-01 2.022016e+00
    endloop
  endfacet
  facet normal -6.602691e-01 6.839743e-01 -3.101997e-01
    outer loop
      vertex 2.159020e+00 2.362080e+00 3.308760e+00
      vertex 1.295412e+00 9.448320e-01 2.022016e+00
      vertex 8.636080e-01 9.448320e-01 2.941124e+00
    endloop
  endfacet
  facet normal -7.381216e-01 6.746677e-01 -3.774723e-16
    outer loop
      vertex 2.159020e+00 2.362080e+00 3.308760e+00
      vertex 8.636080e-01 9.448320e-01 2.941124e+00
      vertex 1.295412e+00 1.417248e+00 3.676396e+00
    endloop
  endfacet
  facet normal 2.380359e-05 3.626285e-01 -9.319338e-01
    outer loop
      vertex 4.318040e-01 2.362080e+00 1.654380e+00
      vertex 8.636080e-01 1.417248e+00 1.286744e+00
      vertex 2.057535e-16 1.889664e+00 1.470545e+00
    endloop
  endfacet
  facet normal -2.219007e-16 3.626474e-01 -9.319264e-01
    outer loop
      vertex 4.318040e-01 2.362080e+00 1.654380e+00
      vertex 2.057535e-16 1.889664e+00 1.470545e+00
      vertex 2.861210e-16 2.834496e+00 1.838215e+00
    endloop
  endfacet
  facet normal -2.380359e-05 3.626285e-01 -9.319338e-01
    outer loop
      vertex 4.318040e-01 2.362080e+00 1.654380e+00
      vertex 2.861210e-16 2.834496e+00 1.838215e+00
      vertex 8.636080e-01 3.306912e+00 2.022016e+00
    endloop
  endfacet
  facet normal 1.268019e-16 3.626190e-01 -9.319375e-01
    outer loop
      vertex 4.318040e-01 2.362080e+00 1.654380e+00
      vertex 8.636080e-01 3.306912e+00 2.022016e+00
      vertex 8.636080e-01 1.417248e+00 1.286744e+00
    endloop
  endfacet
  facet normal 2.380359e-05 3.626285e-01 -9.319338e-01
    outer loop
      vertex -4.318040e-01 2.362080e+00 1.654380e+00
      vertex -8.636080e-01 3.306912e+00 2.022016e+00
      vertex 2.861210e-16 2.834496e+00 1.838215e+00
    endloop
  endfacet
  facet normal -2.219007e-16 3.626474e-01 -9.319264e-01
    outer loop
      vertex -4.318040e-01 2.362080e+00 1.654380e+00
      vertex 2.861210e-16 2.834496e+00 1.838215e+00
      vertex 2.057535e-16 1.889664e+00 1.470545e+00
    endloop
  endfacet
  facet normal -2.380359e-05 3.626285e-01 -9.319338e-01
    outer loop
      vertex -4.318040e-01 2.362080e+00 1.654380e+00
      vertex 2.057535e-16 1.889664e+00 1.470545e+00
      vertex -8.636080e-01 1.417248e+00 1.286744e+00
    endloop
  endfacet
  facet normal 3.804057e-16 3.626190e-01 -9.319375e-01
    outer loop
      vertex -4.318040e-01 2.362080e+00 1.654380e+00
      vertex -8.636080e-01 1.417248e+00 1.286744e+00
      vertex -8.636080e-01 3.306912e+00 2.022016e+00
    endloop
  endfacet
  facet normal 1.268019e-16 -3.626190e-01 9.319375e-01
    outer loop
      vertex 2.696256e-16 2.362080e+00 1.654380e+00
      vertex 8.636080e-01 1.417248e+00 1.286744e+00
      vertex 8.636080e-01 3.306912e+00 2.022016e+00
    endloop
  endfacet
  facet normal -7.381216e-01 6.746677e-01 1.887362e-16
    outer loop
      vertex 2.696256e-16 2.362080e+00 1.654380e+00
      vertex 8.636080e-01 3.306912e+00 2.022016e+00
      vertex 1.295412e+00 3.779328e+00 1.286744e+00
    endloop
  endfacet
  facet normal -6.602691e-01 6.839743e-01 3.101997e-01
    outer loop
      vertex 2.696256e-16 2.362080e+00 1.654380e+00
      vertex 1.295412e+00 3.779328e+00 1.286744e+00
      vertex 8.636080e-01 3.779328e+00 3.676363e-01
    endloop
  endfacet
  facet normal 1.656717e-01 6.056635e-01 7.782831e-01
    outer loop
      vertex 2.696256e-16 2.362080e+00 1.654380e+00
      vertex 8.636080e-01 3.779328e+00 3.676363e-01
      vertex 2.716009e-16 4.251744e+00 1.838347e-01
    endloop
  endfacet
  facet normal -1.656717e-01 6.056635e-01 7.782831e-01
    outer loop
      vertex 2.696256e-16 2.362080e+00 1.654380e+00
      vertex 2.716009e-16 4.251744e+00 1.838347e-01
      vertex -8.636080e-01 3.779328e+00 3.676363e-01
    endloop
  endfacet
  facet normal 6.602691e-01 6.839743e-01 3.101997e-01
    outer loop
      vertex 2.696256e-16 2.362080e+00 1.654380e+00
      vertex -8.636080e-01 3.779328e+00 3.676363e-01
      vertex -1.295412e+00 3.779328e+00 1.286744e+00
    endloop
  endfacet
  facet normal 7.381216e-01 6.746677e-01 0.000000e+00
    outer loop
      vertex 2.696256e-16 2.362080e+00 1.654380e+00
      vertex -1.295412e+00 3.779328e+00 1.286744e+00
      vertex -8.636080e-01 3.306912e+00 2.022016e+00
    endloop
  endfacet
  facet normal -1.268019e-16 -3.626190e-01 9.319375e-01
    outer loop
      vertex 2.696256e-16 2.362080e+00 1.654380e+00
      vertex -8.636080e-01 3.306912e+00 2.022016e+00
      vertex -8.636080e-01 1.417248e+00 1.286744e+00
    endloop
  endfacet
  facet normal -7.381216e-01 6.746677e-01 -5.662085e-16
    outer loop
      vertex 2.696256e-16 2.362080e+00 1.654380e+00
      vertex -8.636080e-01 1.417248e+00 1.286744e+00
      vertex -1.295412e+00 9.448320e-01 2.022016e+00
    endloop
  endfacet
  facet normal -6.602691e-01 6.839743e-01 3.101997e-01
    outer loop
      vertex 2.696256e-16 2.362080e+00 1.654380e+00
      vertex -1.295412e+00 9.448320e-01 2.022016e+00
      vertex -8.636080e-01 9.448320e-01 2.941124e+00
    endloop
  endfacet
  facet normal 1.656717e-01 6.056635e-01 7.782831e-01
    outer loop
      vertex 2.696256e-16 2.362080e+00 1.654380e+00
      vertex -8.636080e-01 9.448320e-01 2.941124e+00
      vertex 2.202736e-16 4.724160e-01 3.124925e+00
    endloop
  endfacet
  facet normal -1.656717e-01 6.056635e-01 7.782831e-01
    outer loop
      vertex 2.696256e-16 2.362080e+00 1.654380e+00
      vertex 2.202736e-16 4.724160e-01 3.124925e+00
      vertex 8.636080e-01 9.448320e-01 2.941124e+00
    endloop
  endfacet
  facet normal 6.602691e-01 6.839743e-01 3.101997e-01
    outer loop
      vertex 2.696256e-16 2.362080e+00 1.654380e+00
      vertex 8.636080e-01 9.448320e-01 2.941124e+00
      vertex 1.295412e+00 9.448320e-01 2.022016e+00
    endloop
  endfacet
  facet normal 7.381216e-01 6.746677e-01 0.000000e+00
    outer loop
      vertex 2.696256e-16 2.362080e+00 1.654380e+00
      vertex 1.295412e+00 9.448320e-01 2.022016e+00
      vertex 8.636080e-01 1.417248e+00 1.286744e+00
    endloop
  endfacet
  facet normal -2.380359e-05 3.626285e-01 9.319338e-01
    outer loop
      vertex 4.749844e+00 5.551115e-17 -1.249001e-16
      vertex 5.181648e+00 9.448320e-01 -3.676363e-01
      vertex 4.318040e+00 4.724160e-01 -1.838347e-01
    endloop
  endfacet
  facet normal -6.340020e-17 3.626474e-01 9.319264e-01
    outer loop
      vertex 4.749844e+00 5.551115e-17 -1.249001e-16
      vertex 4.318040e+00 4.724160e-01 -1.838347e-01
      vertex 4.318040e+00 -4.724160e-01 1.838347e-01
    endloop
  endfacet
  facet normal 2.380359e-05 3.626285e-01 9.319338e-01
    outer loop
      vertex 4.749844e+00 5.551115e-17 -1.249001e-16
      vertex 4.318040e+00 -4.724160e-01 1.838347e-01
      vertex 5.181648e+00 -9.448320e-01 3.676363e-01
    endloop
  endfacet
  facet normal -1.268019e-16 3.626190e-01 9.319375e-01
    outer loop
      vertex 4.749844e+00 5.551115e-17 -1.249001e-16
      vertex 5.181648e+00 -9.448320e-01 3.676363e-01
      vertex 5.181648e+00 9.448320e-01 -3.676363e-01
    endloop
  endfacet
  facet normal -2.380359e-05 3.626285e-01 9.319338e-01
    outer loop
      vertex 3.886236e+00 5.551115e-17 -1.110223e-16
      vertex 3.454432e+00 -9.448320e-01 3.676363e-01
      vertex 4.318040e+00 -4.724160e-01 1.838347e-01
    endloop
  endfacet
  facet normal 6.340020e-17 3.626474e-01 9.319264e-01
    outer loop
      vertex 3.886236e+00 5.551115e-17 -1.110223e-16
      vertex 4.318040e+00 -4.724160e-01 1.838347e-01
      vertex 4.318040e+00 4.724160e-01 -1.838347e-01
    endloop
  endfacet
  facet normal 2.380359e-05 3.626285e-01 9.319338e-01
    outer loop
      vertex 3.886236e+00 5.551115e-17 -1.110223e-16
      vertex 4.318040e+00 4.724160e-01 -1.838347e-01
      vertex 3.454432e+00 9.448320e-01 -3.676363e-01
    endloop
  endfacet
  facet normal 1.268019e-16 3.626190e-01 9.319375e-01
    outer loop
      vertex 3.886236e+00 5.551115e-17 -1.110223e-16
      vertex 3.454432e+00 9.448320e-01 -3.676363e-01
      vertex 3.454432e+00 -9.448320e-01 3.676363e-01
    endloop
  endfacet
  facet normal 0.000000e+00 -3.626190e-01 -9.319375e-01
    outer loop
      vertex 4.318040e+00 -1.903239e-16 -1.586033e-17
      vertex 5.181648e+00 9.448320e-01 -3.676363e-01
      vertex 5.181648e+00 -9.448320e-01 3.676363e-01
    endloop
  endfacet
  facet normal 7.381216e-01 6.746677e-01 -5.662085e-16
    outer loop
      vertex 4.318040e+00 -1.903239e-16 -1.586033e-17
      vertex 5.181648e+00 -9.448320e-01 3.676363e-01
      vertex 5.613452e+00 -1.417248e+00 -3.676363e-01
    endloop
  endfacet
  facet normal 6.602691e-01 6.839743e-01 -3.101997e-01
    outer loop
      vertex 4.318040e+00 -1.903239e-16 -1.586033e-17
      vertex 5.613452e+00 -1.417248e+00 -3.676363e-01
      vertex 5.181648e+00 -1.417248e+00 -1.286744e+00
    endloop
  endfacet
  facet normal -1.656717e-01 6.056635e-01 -7.782831e-01
    outer loop
      vertex 4.318040e+00 -1.903239e-16 -1.586033e-17
      vertex 5.181648e+00 -1.417248e+00 -1.286744e+00
      vertex 4.318040e+00 -1.889664e+00 -1.470545e+00
    endloop
  endfacet
  facet normal 1.656717e-01 6.056635e-01 -7.782831e-01
    outer loop
      vertex 4.318040e+00 -1.903239e-16 -1.586033e-17
      vertex 4.318040e+00 -1.889664e+00 -1.470545e+00
      vertex 3.454432e+00 -1.417248e+00 -1.286744e+00
    endloop
  endfacet
  facet normal -6.602691e-01 6.839743e-01 -3.101997e-01
    outer loop
      vertex 4.318040e+00 -1.903239e-16 -1.586033e-17
      vertex 3.454432e+00 -1.417248e+00 -1.286744e+00
      vertex 3.022628e+00 -1.417248e+00 -3.676363e-01
    endloop
  endfacet
  facet normal -7.381216e-01 6.746677e-01 9.436808e-16
    outer loop
      vertex 4.318040e+00 -1.903239e-16 -1.586033e-17
      vertex 3.022628e+00 -1.417248e+00 -3.676363e-01
      vertex 3.454432e+00 -9.448320e-01 3.676363e-01
    endloop
  endfacet
  facet normal 0.000000e+00 -3.626190e-01 -9.319375e-01
    outer loop
      vertex 4.318040e+00 -1.903239e-16 -1.586033e-17
      vertex 3.454432e+00 -9.448320e-01 3.676363e-01
      vertex 3.454432e+00 9.448320e-01 -3.676363e-01
    endloop
  endfacet
  facet normal 7.381216e-01 6.746677e-01 1.132417e-15
    outer loop
      vertex 4.318040e+00 -1.903239e-16 -1.586033e-17
      vertex 3.454432e+00 9.448320e-01 -3.676363e-01
      vertex 3.022628e+00 1.417248e+00 3.676363e-01
    endloop
  endfacet
  facet normal 6.602691e-01 6.839743e-01 -3.101997e-01
    outer loop
      vertex 4.318040e+00 -1.903239e-16 -1.586033e-17
      vertex 3.022628e+00 1.417248e+00 3.676363e-01
      vertex 3.454432e+00 1.417248e+00 1.286744e+00
    endloop
  endfacet
  facet normal -1.656717e-01 6.056635e-01 -7.782831e-01
    outer loop
      vertex 4.318040e+00 -1.903239e-16 -1.586033e-17
      vertex 3.454432e+00 1.417248e+00 1.286744e+00
      vertex 4.318040e+00 1.889664e+00 1.470545e+00
    endloop
  endfacet
  facet normal 1.656717e-01 6.056635e-01 -7.782831e-01
    outer loop
      vertex 4.318040e+00 -1.903239e-16 -1.586033e-17
      vertex 4.318040e+00 1.889664e+00 1.470545e+00
      vertex 5.181648e+00 1.417248e+00 1.286744e+00
    endloop
  endfacet
  facet normal -6.602691e-01 6.839743e-01 -3.101997e-01
    outer loop
      vertex 4.318040e+00 -1.903239e-16 -1.586033e-17
      vertex 5.181648e+00 1.417248e+00 1.286744e+00
      vertex 5.613452e+00 1.417248e+00 3.676363e-01
    endloop
  endfacet
  facet normal -7.381216e-01 6.746677e-01 -5.662085e-16
    outer loop
      vertex 4.318040e+00 -1.903239e-16 -1.586033e-17
      vertex 5.613452e+00 1.417248e+00 3.676363e-01
      vertex 5.181648e+00 9.448320e-01 -3.676363e-01
    endloop
  endfacet
  facet normal -2.380359e-05 3.626285e-01 9.319338e-01
    outer loop
      vertex 2.590824e+00 2.362080e+00 -1.249001e-16
      vertex 3.022628e+00 3.306912e+00 -3.676363e-01
      vertex 2.159020e+00 2.834496e+00 -1.838347e-01
    endloop
  endfacet
  facet normal -6.340020e-17 3.626474e-01 9.319264e-01
    outer loop
      vertex 2.590824e+00 2.362080e+00 -1.249001e-16
      vertex 2.159020e+00 2.834496e+00 -1.838347e-01
      vertex 2.159020e+00 1.889664e+00 1.838347e-01
    endloop
  endfacet
  facet normal 2.380359e-05 3.626285e-01 9.319338e-01
    outer loop
      vertex 2.590824e+00 2.362080e+00 -1.249001e-16
      vertex 2.159020e+00 1.889664e+00 1.838347e-01
      vertex 3.022628e+00 1.417248e+00 3.676363e-01
    endloop
  endfacet
  facet normal 1.268019e-16 3.626190e-01 9.319375e-01
    outer loop
      vertex 2.590824e+00 2.362080e+00 -1.249001e-16
      vertex 3.022628e+00 1.417248e+00 3.676363e-01
      vertex 3.022628e+00 3.306912e+00 -3.676363e-01
    endloop
  endfacet
  facet normal -2.380359e-05 3.626285e-01 9.319338e-01
    outer loop
      vertex 1.727216e+00 2.362080e+00 -1.110223e-16
      vertex 1.295412e+00 1.417248e+00 3.676363e-01
      vertex 2.159020e+00 1.889664e+00 1.838347e-01
    endloop
  endfacet
  facet normal 6.340020e-17 3.626474e-01 9.319264e-01
    outer loop
      vertex 1.727216e+00 2.362080e+00 -1.110223e-16
      vertex 2.159020e+00 1.889664e+00 1.838347e-01
      vertex 2.159020e+00 2.834496e+00 -1.838347e-01
    endloop
  endfacet
  facet normal 2.380359e-05 3.626285e-01 9.319338e-01
    outer loop
      vertex 1.727216e+00 2.362080e+00 -1.110223e-16
      vertex 2.159020e+00 2.834496e+00 -1.838347e-01
      vertex 1.295412e+00 3.306912e+00 -3.676363e-01
    endloop
  endfacet
  facet normal -1.268019e-16 3.626190e-01 9.319375e-01
    outer loop
      vertex 1.727216e+00 2.362080e+00 -1.110223e-16
      vertex 1.295412e+00 3.306912e+00 -3.676363e-01
      vertex 1.295412e+00 1.417248e+00 3.676363e-01
    endloop
  endfacet
  facet normal 0.000000e+00 -3.626190e-01 -9.319375e-01
    outer loop
      vertex 2.159020e+00 2.362080e+00 -1.586033e-17
      vertex 3.022628e+00 3.306912e+00 -3.676363e-01
      vertex 3.022628e+00 1.417248e+00 3.676363e-01
    endloop
  endfacet
  facet normal 7.381216e-01 6.746677e-01 5.662085e-16
    outer loop
      vertex 2.159020e+00 2.362080e+00 -1.586033e-17
      vertex 3.022628e+00 1.417248e+00 3.676363e-01
      vertex 3.454432e+00 9.448320e-01 -3.676363e-01
    endloop
  endfacet
  facet normal 6.602691e-01 6.839743e-01 -3.101997e-01
    outer loop
      vertex 2.159020e+00 2.362080e+00 -1.586033e-17
      vertex 3.454432e+00 9.448320e-01 -3.676363e-01
      vertex 3.022628e+00 9.448320e-01 -1.286744e+00
    endloop
  endfacet
  facet normal -1.656717e-01 6.056635e-01 -7.782831e-01
    outer loop
      vertex 2.159020e+00 2.362080e+00 -1.586033e-17
      vertex 3.022628e+00 9.448320e-01 -1.286744e+00
      vertex 2.159020e+00 4.724160e-01 -1.470545e+00
    endloop
  endfacet
  facet normal 1.656717e-01 6.056635e-01 -7.782831e-01
    outer loop
      vertex 2.159020e+00 2.362080e+00 -1.586033e-17
      vertex 2.159020e+00 4.724160e-01 -1.470545e+00
      vertex 1.295412e+00 9.448320e-01 -1.286744e+00
    endloop
  endfacet
  facet normal -6.602691e-01 6.839743e-01 -3.101997e-01
    outer loop
      vertex 2.159020e+00 2.362080e+00 -1.586033e-17
      vertex 1.295412e+00 9.448320e-01 -1.286744e+00
      vertex 8.636080e-01 9.448320e-01 -3.676363e-01
    endloop
  endfacet
  facet normal -7.381216e-01 6.746677e-01 -1.887362e-16
    outer loop
      vertex 2.159020e+00 2.362080e+00 -1.586033e-17
      vertex 8.636080e-01 9.448320e-01 -3.676363e-01
      vertex 1.295412e+00 1.417248e+00 3.676363e-01
    endloop
  endfacet
  facet normal 0.000000e+00 -3.626190e-01 -9.319375e-01
    outer loop
      vertex 2.159020e+00 2.362080e+00 -1.586033e-17
      vertex 1.295412e+00 1.417248e+00 3.676363e-01
      vertex 1.295412e+00 3.306912e+00 -3.676363e-01
    endloop
  endfacet
  facet normal 7.381216e-01 6.746677e-01 0.000000e+00
    outer loop
      vertex 2.159020e+00 2.362080e+00 -1.586033e-17
      vertex 1.295412e+00 3.306912e+00 -3.676363e-01
      vertex 8.636080e-01 3.779328e+00 3.676363e-01
    endloop
  endfacet
  facet normal 6.602691e-01 6.839743e-01 -3.101997e-01
    outer loop
      vertex 2.159020e+00 2.362080e+00 -1.586033e-17
      vertex 8.636080e-01 3.779328e+00 3.676363e-01
      vertex 1.295412e+00 3.779328e+00 1.286744e+00
    endloop
  endfacet
  facet normal -1.656717e-01 6.056635e-01 -7.782831e-01
    outer loop
      vertex 2.159020e+00 2.362080e+00 -1.586033e-17
      vertex 1.295412e+00 3.779328e+00 1.286744e+00
      vertex 2.159020e+00 4.251744e+00 1.470545e+00
    endloop
  endfacet
  facet normal 1.656717e-01 6.056635e-01 -7.782831e-01
    outer loop
      vertex 2.159020e+00 2.362080e+00 -1.586033e-17
      vertex 2.159020e+00 4.251744e+00 1.470545e+00
      vertex 3.022628e+00 3.779328e+00 1.286744e+00
    endloop
  endfacet
  facet normal -6.602691e-01 6.839743e-01 -3.101997e-01
    outer loop
      vertex 2.159020e+00 2.362080e+00 -1.586033e-17
      vertex 3.022628e+00 3.779328e+00 1.286744e+00
      vertex 3.454432e+00 3.779328e+00 3.676363e-01
    endloop
  endfacet
  facet normal -7.381216e-01 6.746677e-01 5.662085e-16
    outer loop
      vertex 2.159020e+00 2.362080e+00 -1.586033e-17
      vertex 3.454432e+00 3.779328e+00 3.676363e-01
      vertex 3.022628e+00 3.306912e+00 -3.676363e-01
    endloop
  endfacet
  facet normal 2.380359e-05 3.626285e-01 -9.319338e-01
    outer loop
      vertex 2.590824e+00 4.724160e+00 1.654380e+00
      vertex 3.022628e+00 3.779328e+00 1.286744e+00
      vertex 2.159020e+00 4.251744e+00 1.470545e+00
    endloop
  endfacet
  facet normal -2.219007e-16 3.626474e-01 -9.319264e-01
    outer loop
      vertex 2.590824e+00 4.724160e+00 1.654380e+00
      vertex 2.159020e+00 4.251744e+00 1.470545e+00
      vertex 2.159020e+00 5.196576e+00 1.838215e+00
    endloop
  endfacet
  facet normal -2.380359e-05 3.626285e-01 -9.319338e-01
    outer loop
      vertex 2.590824e+00 4.724160e+00 1.654380e+00
      vertex 2.159020e+00 5.196576e+00 1.838215e+00
      vertex 3.022628e+00 5.668992e+00 2.022016e+00
    endloop
  endfacet
  facet normal 0.000000e+00 3.626190e-01 -9.319375e-01
    outer loop
      vertex 2.590824e+00 4.724160e+00 1.654380e+00
      vertex 3.022628e+00 5.668992e+00 2.022016e+00
      vertex 3.022628e+00 3.779328e+00 1.286744e+00
    endloop
  endfacet
  facet normal 2.380359e-05 3.626285e-01 -9.319338e-01
    outer loop
      vertex 1.727216e+00 4.724160e+00 1.654380e+00
      vertex 1.295412e+00 5.668992e+00 2.022016e+00
      vertex 2.159020e+00 5.196576e+00 1.838215e+00
    endloop
  endfacet
  facet normal -2.219007e-16 3.626474e-01 -9.319264e-01
    outer loop
      vertex 1.727216e+00 4.724160e+00 1.654380e+00
      vertex 2.159020e+00 5.196576e+00 1.838215e+00
      vertex 2.159020e+00 4.251744e+00 1.470545e+00
    endloop
  endfacet
  facet normal -2.380359e-05 3.626285e-01 -9.319338e-01
    outer loop
      vertex 1.727216e+00 4.724160e+00 1.654380e+00
      vertex 2.159020e+00 4.251744e+00 1.470545e+00
      vertex 1.295412e+00 3.779328e+00 1.286744e+00
    endloop
  endfacet
  facet normal 4.438066e-16 3.626190e-01 -9.319375e-01
    outer loop
      vertex 1.727216e+00 4.724160e+00 1.654380e+00
      vertex 1.295412e+00 3.779328e+00 1.286744e+00
      vertex 1.295412e+00 5.668992e+00 2.022016e+00
    endloop
  endfacet
  facet normal 3.487052e-16 -3.626190e-01 9.319375e-01
    outer loop
      vertex 2.159020e+00 4.724160e+00 1.654380e+00
      vertex 3.022628e+00 3.779328e+00 1.286744e+00
      vertex 3.022628e+00 5.668992e+00 2.022016e+00
    endloop
  endfacet
  facet normal -7.381216e-01 6.746677e-01 -5.662085e-16
    outer loop
      vertex 2.159020e+00 4.724160e+00 1.654380e+00
      vertex 3.022628e+00 5.668992e+00 2.022016e+00
      vertex 3.454432e+00 6.141408e+00 1.286744e+00
    endloop
  endfacet
  facet normal -6.602691e-01 6.839743e-01 3.101997e-01
    outer loop
      vertex 2.159020e+00 4.724160e+00 1.654380e+00
      vertex 3.454432e+00 6.141408e+00 1.286744e+00
      vertex 3.022628e+00 6.141408e+00 3.676363e-01
    endloop
  endfacet
  facet normal 1.656717e-01 6.056635e-01 7.782831e-01
    outer loop
      vertex 2.159020e+00 4.724160e+00 1.654380e+00
      vertex 3.022628e+00 6.141408e+00 3.676363e-01
      vertex 2.159020e+00 6.613824e+00 1.838347e-01
    endloop
  endfacet
  facet normal -1.656717e-01 6.056635e-01 7.782831e-01
    outer loop
      vertex 2.159020e+00 4.724160e+00 1.654380e+00
      vertex 2.159020e+00 6.613824e+00 1.838347e-01
      vertex 1.295412e+00 6.141408e+00 3.676363e-01
    endloop
  endfacet
  facet normal 6.602691e-01 6.839743e-01 3.101997e-01
    outer loop
      vertex 2.159020e+00 4.724160e+00 1.654380e+00
      vertex 1.295412e+00 6.141408e+00 3.676363e-01
      vertex 8.636080e-01 6.141408e+00 1.286744e+00
    endloop
  endfacet
  facet normal 7.381216e-01 6.746677e-01 -7.549446e-16
    outer loop
      vertex 2.159020e+00 4.724160e+00 1.654380e+00
      vertex 8.636080e-01 6.141408e+00 1.286744e+00
      vertex 1.295412e+00 5.668992e+00 2.022016e+00
    endloop
  endfacet
  facet normal -3.487052e-16 -3.626190e-01 9.319375e-01
    outer loop
      vertex 2.159020e+00 4.724160e+00 1.654380e+00
      vertex 1.295412e+00 5.668992e+00 2.022016e+00
      vertex 1.295412e+00 3.779328e+00 1.286744e+00
    endloop
  endfacet
  facet normal -7.381216e-01 6.746677e-01 5.662085e-16
    outer loop
      vertex 2.159020e+00 4.724160e+00 1.654380e+00
      vertex 1.295412e+00 3.779328e+00 1.286744e+00
      vertex 8.636080e-01 3.306912e+00 2.022016e+00
    endloop
  endfacet
  facet normal -6.602691e-01 6.839743e-01 3.101997e-01
    outer loop
      vertex 2.159020e+00 4.724160e+00 1.654380e+00
      vertex 8.636080e-01 3.306912e+00 2.022016e+00
      vertex 1.295412e+00 3.306912e+00 2.941124e+00
    endloop
  endfacet
  facet normal 1.656717e-01 6.056635e-01 7.782831e-01
    outer loop
      vertex 2.159020e+00 4.724160e+00 1.654380e+00
      vertex 1.295412e+00 3.306912e+00 2.941124e+00
      vertex 2.159020e+00 2.834496e+00 3.124925e+00
    endloop
  endfacet
  facet normal -1.656717e-01 6.056635e-01 7.782831e-01
    outer loop
      vertex 2.159020e+00 4.724160e+00 1.654380e+00
      vertex 2.159020e+00 2.834496e+00 3.124925e+00
      vertex 3.022628e+00 3.306912e+00 2.941124e+00
    endloop
  endfacet
  facet normal 6.602691e-01 6.839743e-01 3.101997e-01
    outer loop
      vertex 2.159020e+00 4.724160e+00 1.654380e+00
      vertex 3.022628e+00 3.306912e+00 2.941124e+00
      vertex 3.454432e+00 3.306912e+00 2.022016e+00
    endloop
  endfacet
  facet normal 7.381216e-01 6.746677e-01 7.549446e-16
    outer loop
      vertex 2.159020e+00 4.724160e+00 1.654380e+00
      vertex 3.454432e+00 3.306912e+00 2.022016e+00
      vertex 3.022628e+00 3.779328e+00 1.286744e+00
    endloop
  endfacet
  facet normal -2.380359e-05 3.626285e-01 9.319338e-01
    outer loop
      vertex -4.318040e-01 4.724160e+00 3.308760e+00
      vertex -8.636080e-01 3.779328e+00 3.676396e+00
      vertex 4.742040e-16 4.251744e+00 3.492595e+00
    endloop
  endfacet
  facet normal 2.536008e-16 3.626474e-01 9.319264e-01
    outer loop
      vertex -4.318040e-01 4.724160e+00 3.308760e+00
      vertex 4.742040e-16 4.251744e+00 3.492595e+00
      vertex 5.095450e-16 5.196576e+00 3.124925e+00
    endloop
  endfacet
  facet normal 2.380359e-05 3.626285e-01 9.319338e-01
    outer loop
      vertex -4.318040e-01 4.724160e+00 3.308760e+00
      vertex 5.095450e-16 5.196576e+00 3.124925e+00
      vertex -8.636080e-01 5.668992e+00 2.941124e+00
    endloop
  endfacet
  facet normal 1.268019e-16 3.626190e-01 9.319375e-01
    outer loop
      vertex -4.318040e-01 4.724160e+00 3.308760e+00
      vertex -8.636080e-01 5.668992e+00 2.941124e+00
      vertex -8.636080e-01 3.779328e+00 3.676396e+00
    endloop
  endfacet
  facet normal -2.380359e-05 3.626285e-01 9.319338e-01
    outer loop
      vertex 4.318040e-01 4.724160e+00 3.308760e+00
      vertex 8.636080e-01 5.668992e+00 2.941124e+00
      vertex 5.095450e-16 5.196576e+00 3.124925e+00
    endloop
  endfacet
  facet normal 4.755015e-16 3.626474e-01 9.319264e-01
    outer loop
      vertex 4.318040e-01 4.724160e+00 3.308760e+00
      vertex 5.095450e-16 5.196576e+00 3.124925e+00
      vertex 4.742040e-16 4.251744e+00 3.492595e+00
    endloop
  endfacet
  facet normal 2.380359e-05 3.626285e-01 9.319338e-01
    outer loop
      vertex 4.318040e-01 4.724160e+00 3.308760e+00
      vertex 4.742040e-16 4.251744e+00 3.492595e+00
      vertex 8.636080e-01 3.779328e+00 3.676396e+00
    endloop
  endfacet
  facet normal -8.242123e-16 3.626190e-01 9.319375e-01
    outer loop
      vertex 4.318040e-01 4.724160e+00 3.308760e+00
      vertex 8.636080e-01 3.779328e+00 3.676396e+00
      vertex 8.636080e-01 5.668992e+00 2.941124e+00
    endloop
  endfacet
  facet normal -7.925119e-16 -3.626190e-01 -9.319375e-01
    outer loop
      vertex 4.123686e-16 4.724160e+00 3.308760e+00
      vertex -8.636080e-01 3.779328e+00 3.676396e+00
      vertex -8.636080e-01 5.668992e+00 2.941124e+00
    endloop
  endfacet
  facet normal 7.381216e-01 6.746677e-01 1.698625e-15
    outer loop
      vertex 4.123686e-16 4.724160e+00 3.308760e+00
      vertex -8.636080e-01 5.668992e+00 2.941124e+00
      vertex -1.295412e+00 6.141408e+00 3.676396e+00
    endloop
  endfacet
  facet normal 6.602691e-01 6.839743e-01 -3.101997e-01
    outer loop
      vertex 4.123686e-16 4.724160e+00 3.308760e+00
      vertex -1.295412e+00 6.141408e+00 3.676396e+00
      vertex -8.636080e-01 6.141408e+00 4.595504e+00
    endloop
  endfacet
  facet normal -1.656717e-01 6.056635e-01 -7.782831e-01
    outer loop
      vertex 4.123686e-16 4.724160e+00 3.308760e+00
      vertex -8.636080e-01 6.141408e+00 4.595504e+00
      vertex 6.976280e-16 6.613824e+00 4.779305e+00
    endloop
  endfacet
  facet normal 1.656717e-01 6.056635e-01 -7.782831e-01
    outer loop
      vertex 4.123686e-16 4.724160e+00 3.308760e+00
      vertex 6.976280e-16 6.613824e+00 4.779305e+00
      vertex 8.636080e-01 6.141408e+00 4.595504e+00
    endloop
  endfacet
  facet normal -6.602691e-01 6.839743e-01 -3.101997e-01
    outer loop
      vertex 4.123686e-16 4.724160e+00 3.308760e+00
      vertex 8.636080e-01 6.141408e+00 4.595504e+00
      vertex 1.295412e+00 6.141408e+00 3.676396e+00
    endloop
  endfacet
  facet normal -7.381216e-01 6.746677e-01 9.436808e-16
    outer loop
      vertex 4.123686e-16 4.724160e+00 3.308760e+00
      vertex 1.295412e+00 6.141408e+00 3.676396e+00
      vertex 8.636080e-01 5.668992e+00 2.941124e+00
    endloop
  endfacet
  facet normal 7.925119e-16 -3.626190e-01 -9.319375e-01
    outer loop
      vertex 4.123686e-16 4.724160e+00 3.308760e+00
      vertex 8.636080e-01 5.668992e+00 2.941124e+00
      vertex 8.636080e-01 3.779328e+00 3.676396e+00
    endloop
  endfacet
  facet normal 7.381216e-01 6.746677e-01 -7.549446e-16
    outer loop
      vertex 4.123686e-16 4.724160e+00 3.308760e+00
      vertex 8.636080e-01 3.779328e+00 3.676396e+00
      vertex 1.295412e+00 3.306912e+00 2.941124e+00
    endloop
  endfacet
  facet normal 6.602691e-01 6.839743e-01 -3.101997e-01
    outer loop
      vertex 4.123686e-16 4.724160e+00 3.308760e+00
      vertex 1.295412e+00 3.306912e+00 2.941124e+00
      vertex 8.636080e-01 3.306912e+00 2.022016e+00
    endloop
  endfacet
  facet normal -1.656717e-01 6.056635e-01 -7.782831e-01
    outer loop
      vertex 4.123686e-16 4.724160e+00 3.308760e+00
      vertex 8.636080e-01 3.306912e+00 2.022016e+00
      vertex 2.861210e-16 2.834496e+00 1.838215e+00
    endloop
  endfacet
  facet normal 1.656717e-01 6.056635e-01 -7.782831e-01
    outer loop
      vertex 4.123686e-16 4.724160e+00 3.308760e+00
      vertex 2.861210e-16 2.834496e+00 1.838215e+00
      vertex -8.636080e-01 3.306912e+00 2.022016e+00
    endloop
  endfacet
  facet normal -6.602691e-01 6.839743e-01 -3.101997e-01
    outer loop
      vertex 4.123686e-16 4.724160e+00 3.308760e+00
      vertex -8.636080e-01 3.306912e+00 2.022016e+00
      vertex -1.295412e+00 3.306912e+00 2.941124e+00
    endloop
  endfacet
  facet normal -7.381216e-01 6.746677e-01 3.774723e-16
    outer loop
      vertex 4.123686e-16 4.724160e+00 3.308760e+00
      vertex -1.295412e+00 3.306912e+00 2.941124e+00
      vertex -8.636080e-01 3.779328e+00 3.676396e+00
    endloop
  endfacet
  facet normal 2.380359e-05 3.626285e-01 -9.319338e-01
    outer loop
      vertex 4.749844e+00 2.362080e+00 1.654380e+00
      vertex 5.181648e+00 1.417248e+00 1.286744e+00
      vertex 4.318040e+00 1.889664e+00 1.470545e+00
    endloop
  endfacet
  facet normal -2.219007e-16 3.626474e-01 -9.319264e-01
    outer loop
      vertex 4.749844e+00 2.362080e+00 1.654380e+00
      vertex 4.318040e+00 1.889664e+00 1.470545e+00
      vertex 4.318040e+00 2.834496e+00 1.838215e+00
    endloop
  endfacet
  facet normal -2.380359e-05 3.626285e-01 -9.319338e-01
    outer loop
      vertex 4.749844e+00 2.362080e+00 1.654380e+00
      vertex 4.318040e+00 2.834496e+00 1.838215e+00
      vertex 5.181648e+00 3.306912e+00 2.022016e+00
    endloop
  endfacet
  facet normal 1.268019e-16 3.626190e-01 -9.319375e-01
    outer loop
      vertex 4.749844e+00 2.362080e+00 1.654380e+00
      vertex 5.181648e+00 3.306912e+00 2.022016e+00
      vertex 5.181648e+00 1.417248e+00 1.286744e+00
    endloop
  endfacet
  facet normal 2.380359e-05 3.626285e-01 -9.319338e-01
    outer loop
      vertex 3.886236e+00 2.362080e+00 1.654380e+00
      vertex 3.454432e+00 3.306912e+00 2.022016e+00
      vertex 4.318040e+00 2.834496e+00 1.838215e+00
    endloop
  endfacet
  facet normal -2.219007e-16 3.626474e-01 -9.319264e-01
    outer loop
      vertex 3.886236e+00 2.362080e+00 1.654380e+00
      vertex 4.318040e+00 2.834496e+00 1.838215e+00
      vertex 4.318040e+00 1.889664e+00 1.470545e+00
    endloop
  endfacet
  facet normal -2.380359e-05 3.626285e-01 -9.319338e-01
    outer loop
      vertex 3.886236e+00 2.362080e+00 1.654380e+00
      vertex 4.318040e+00 1.889664e+00 1.470545e+00
      vertex 3.454432e+00 1.417248e+00 1.286744e+00
    endloop
  endfacet
  facet normal 3.804057e-16 3.626190e-01 -9.319375e-01
    outer loop
      vertex 3.886236e+00 2.362080e+00 1.654380e+00
      vertex 3.454432e+00 1.417248e+00 1.286744e+00
      vertex 3.454432e+00 3.306912e+00 2.022016e+00
    endloop
  endfacet
  facet normal 1.268019e-16 -3.626190e-01 9.319375e-01
    outer loop
      vertex 4.318040e+00 2.362080e+00 1.654380e+00
      vertex 5.181648e+00 1.417248e+00 1.286744e+00
      vertex 5.181648e+00 3.306912e+00 2.022016e+00
    endloop
  endfacet
  facet normal -7.381216e-01 6.746677e-01 1.887362e-16
    outer loop
      vertex 4.318040e+00 2.362080e+00 1.654380e+00
      vertex 5.181648e+00 3.306912e+00 2.022016e+00
      vertex 5.613452e+00 3.779328e+00 1.286744e+00
    endloop
  endfacet
  facet normal -6.602691e-01 6.839743e-01 3.101997e-01
    outer loop
      vertex 4.318040e+00 2.362080e+00 1.654380e+00
      vertex 5.613452e+00 3.779328e+00 1.286744e+00
      vertex 5.181648e+00 3.779328e+00 3.676363e-01
    endloop
  endfacet
  facet normal 1.656717e-01 6.056635e-01 7.782831e-01
    outer loop
      vertex 4.318040e+00 2.362080e+00 1.654380e+00
      vertex 5.181648e+00 3.779328e+00 3.676363e-01
      vertex 4.318040e+00 4.251744e+00 1.838347e-01
    endloop
  endfacet
  facet normal -1.656717e-01 6.056635e-01 7.782831e-01
    outer loop
      vertex 4.318040e+00 2.362080e+00 1.654380e+00
      vertex 4.318040e+00 4.251744e+00 1.838347e-01
      vertex 3.454432e+00 3.779328e+00 3.676363e-01
    endloop
  endfacet
  facet normal 6.602691e-01 6.839743e-01 3.101997e-01
    outer loop
      vertex 4.318040e+00 2.362080e+00 1.654380e+00
      vertex 3.454432e+00 3.779328e+00 3.676363e-01
      vertex 3.022628e+00 3.779328e+00 1.286744e+00
    endloop
  endfacet
  facet normal 7.381216e-01 6.746677e-01 -3.774723e-16
    outer loop
      vertex 4.318040e+00 2.362080e+00 1.654380e+00
      vertex 3.022628e+00 3.779328e+00 1.286744e+00
      vertex 3.454432e+00 3.306912e+00 2.022016e+00
    endloop
  endfacet
  facet normal -1.268019e-16 -3.626190e-01 9.319375e-01
    outer loop
      vertex 4.318040e+00 2.362080e+00 1.654380e+00
      vertex 3.454432e+00 3.306912e+00 2.022016e+00
      vertex 3.454432e+00 1.417248e+00 1.286744e+00
    endloop
  endfacet
  facet normal -7.381216e-01 6.746677e-01 -9.436808e-16
    outer loop
      vertex 4.318040e+00 2.362080e+00 1.654380e+00
      vertex 3.454432e+00 1.417248e+00 1.286744e+00
      vertex 3.022628e+00 9.448320e-01 2.022016e+00
    endloop
  endfacet
  facet normal -6.602691e-01 6.839743e-01 3.101997e-01
    outer loop
      vertex 4.318040e+00 2.362080e+00 1.654380e+00
      vertex 3.022628e+00 9.448320e-01 2.022016e+00
      vertex 3.454432e+00 9.448320e-01 2.941124e+00
    endloop
  endfacet
  facet normal 1.656717e-01 6.056635e-01 7.782831e-01
    outer loop
      vertex 4.318040e+00 2.362080e+00 1.654380e+00
      vertex 3.454432e+00 9.448320e-01 2.941124e+00
      vertex 4.318040e+00 4.724160e-01 3.124925e+00
    endloop
  endfacet
  facet normal -1.656717e-01 6.056635e-01 7.782831e-01
    outer loop
      vertex 4.318040e+00 2.362080e+00 1.654380e+00
      vertex 4.318040e+00 4.724160e-01 3.124925e+00
      vertex 5.181648e+00 9.448320e-01 2.941124e+00
    endloop
  endfacet
  facet normal 6.602691e-01 6.839743e-01 3.101997e-01
    outer loop
      vertex 4.318040e+00 2.362080e+00 1.654380e+00
      vertex 5.181648e+00 9.448320e-01 2.941124e+00
      vertex 5.613452e+00 9.448320e-01 2.022016e+00
    endloop
  endfacet
  facet normal 7.381216e-01 6.746677e-01 0.000000e+00
    outer loop
      vertex 4.318040e+00 2.362080e+00 1.654380e+00
      vertex 5.613452e+00 9.448320e-01 2.022016e+00
      vertex 5.181648e+00 1.417248e+00 1.286744e+00
    endloop
  endfacet
  facet normal -2.380359e-05 3.626285e-01 9.319338e-01
    outer loop
      vertex 3.886236e+00 4.724160e+00 3.308760e+00
      vertex 3.454432e+00 3.779328e+00 3.676396e+00
      vertex 4.318040e+00 4.251744e+00 3.492595e+00
    endloop
  endfacet
  facet normal 2.536008e-16 3.626474e-01 9.319264e-01
    outer loop
      vertex 3.886236e+00 4.724160e+00 3.308760e+00
      vertex 4.318040e+00 4.251744e+00 3.492595e+00
      vertex 4.318040e+00 5.196576e+00 3.124925e+00
    endloop
  endfacet
  facet normal 2.380359e-05 3.626285e-01 9.319338e-01
    outer loop
      vertex 3.886236e+00 4.724160e+00 3.308760e+00
      vertex 4.318040e+00 5.196576e+00 3.124925e+00
      vertex 3.454432e+00 5.668992e+00 2.941124e+00
    endloop
  endfacet
  facet normal 1.268019e-16 3.626190e-01 9.319375e-01
    outer loop
      vertex 3.886236e+00 4.724160e+00 3.308760e+00
      vertex 3.454432e+00 5.668992e+00 2.941124e+00
      vertex 3.454432e+00 3.779328e+00 3.676396e+00
    endloop
  endfacet
  facet normal -2.380359e-05 3.626285e-01 9.319338e-01
    outer loop
      vertex 4.749844e+00 4.724160e+00 3.308760e+00
      vertex 5.181648e+00 5.668992e+00 2.941124e+00
      vertex 4.318040e+00 5.196576e+00 3.124925e+00
    endloop
  endfacet
  facet normal 4.755015e-16 3.626474e-01 9.319264e-01
    outer loop
      vertex 4.749844e+00 4.724160e+00 3.308760e+00
      vertex 4.318040e+00 5.196576e+00 3.124925e+00
      vertex 4.318040e+00 4.251744e+00 3.492595e+00
    endloop
  endfacet
  facet normal 2.380359e-05 3.626285e-01 9.319338e-01
    outer loop
      vertex 4.749844e+00 4.724160e+00 3.308760e+00
      vertex 4.318040e+00 4.251744e+00 3.492595e+00
      vertex 5.181648e+00 3.779328e+00 3.676396e+00
    endloop
  endfacet
  facet normal -8.242123e-16 3.626190e-01 9.319375e-01
    outer loop
      vertex 4.749844e+00 4.724160e+00 3.308760e+00
      vertex 5.181648e+00 3.779328e+00 3.676396e+00
      vertex 5.181648e+00 5.668992e+00 2.941124e+00
    endloop
  endfacet
  facet normal -7.925119e-16 -3.626190e-01 -9.319375e-01
    outer loop
      vertex 4.318040e+00 4.724160e+00 3.308760e+00
      vertex 3.454432e+00 3.779328e+00 3.676396e+00
      vertex 3.454432e+00 5.668992e+00 2.941124e+00
    endloop
  endfacet
  facet normal 7.381216e-01 6.746677e-01 1.698625e-15
    outer loop
      vertex 4.318040e+00 4.724160e+00 3.308760e+00
      vertex 3.454432e+00 5.668992e+00 2.941124e+00
      vertex 3.022628e+00 6.141408e+00 3.676396e+00
    endloop
  endfacet
  facet normal 6.602691e-01 6.839743e-01 -3.101997e-01
    outer loop
      vertex 4.318040e+00 4.724160e+00 3.308760e+00
      vertex 3.022628e+00 6.141408e+00 3.676396e+00
      vertex 3.454432e+00 6.141408e+00 4.595504e+00
    endloop
  endfacet
  facet normal -1.656717e-01 6.056635e-01 -7.782831e-01
    outer loop
      vertex 4.318040e+00 4.724160e+00 3.308760e+00
      vertex 3.454432e+00 6.141408e+00 4.595504e+00
      vertex 4.318040e+00 6.613824e+00 4.779305e+00
    endloop
  endfacet
  facet normal 1.656717e-01 6.056635e-01 -7.782831e-01
    outer loop
      vertex 4.318040e+00 4.724160e+00 3.308760e+00
      vertex 4.318040e+00 6.613824e+00 4.779305e+00
      vertex 5.181648e+00 6.141408e+00 4.595504e+00
    endloop
  endfacet
  facet normal -6.602691e-01 6.839743e-01 -3.101997e-01
    outer loop
      vertex 4.318040e+00 4.724160e+00 3.308760e+00
      vertex 5.181648e+00 6.141408e+00 4.595504e+00
      vertex 5.613452e+00 6.141408e+00 3.676396e+00
    endloop
  endfacet
  facet normal -7.381216e-01 6.746677e-01 1.321153e-15
    outer loop
      vertex 4.318040e+00 4.724160e+00 3.308760e+00
      vertex 5.613452e+00 6.141408e+00 3.676396e+00
      vertex 5.181648e+00 5.668992e+00 2.941124e+00
    endloop
  endfacet
  facet normal 7.925119e-16 -3.626190e-01 -9.319375e-01
    outer loop
      vertex 4.318040e+00 4.724160e+00 3.308760e+00
      vertex 5.181648e+00 5.668992e+00 2.941124e+00
      vertex 5.181648e+00 3.779328e+00 3.676396e+00
    endloop
  endfacet
  facet normal 7.381216e-01 6.746677e-01 0.000000e+00
    outer loop
      vertex 4.318040e+00 4.724160e+00 3.308760e+00
      vertex 5.181648e+00 3.779328e+00 3.676396e+00
      vertex 5.613452e+00 3.306912e+00 2.941124e+00
    endloop
  endfacet
  facet normal 6.602691e-01 6.839743e-01 -3.101997e-01
    outer loop
      vertex 4.318040e+00 4.724160e+00 3.308760e+00
      vertex 5.613452e+00 3.306912e+00 2.941124e+00
      vertex 5.181648e+00 3.306912e+00 2.022016e+00
    endloop
  endfacet
  facet normal -1.656717e-01 6.056635e-01 -7.782831e-01
    outer loop
      vertex 4.318040e+00 4.724160e+00 3.308760e+00
      vertex 5.181648e+00 3.306912e+00 2.022016e+00
      vertex 4.318040e+00 2.834496e+00 1.838215e+00
    endloop
  endfacet
  facet normal 1.656717e-01 6.056635e-01 -7.782831e-01
    outer loop
      vertex 4.318040e+00 4.724160e+00 3.308760e+00
      vertex 4.318040e+00 2.834496e+00 1.838215e+00
      vertex 3.454432e+00 3.306912e+00 2.022016e+00
    endloop
  endfacet
  facet normal -6.602691e-01 6.839743e-01 -3.101997e-01
    outer loop
      vertex 4.318040e+00 4.724160e+00 3.308760e+00
      vertex 3.454432e+00 3.306912e+00 2.022016e+00
      vertex 3.022628e+00 3.306912e+00 2.941124e+00
    endloop
  endfacet
  facet normal -7.381216e-01 6.746677e-01 1.887362e-16
    outer loop
      vertex 4.318040e+00 4.724160e+00 3.308760e+00
      vertex 3.022628e+00 3.306912e+00 2.941124e+00
      vertex 3.454432e+00 3.779328e+00 3.676396e+00
    endloop
  endfacet
  facet normal -2.380359e-05 3.626285e-01 9.319338e-01
    outer loop
      vertex -4.318040e-01 4.724160e+00 -1.110223e-16
      vertex -8.636080e-01 3.779328e+00 3.676363e-01
      vertex 2.716009e-16 4.251744e+00 1.838347e-01
    endloop
  endfacet
  facet normal 7.925025e-16 3.626474e-01 9.319264e-01
    outer loop
      vertex -4.318040e-01 4.724160e+00 -1.110223e-16
      vertex 2.716009e-16 4.251744e+00 1.838347e-01
      vertex 3.069419e-16 5.196576e+00 -1.838347e-01
    endloop
  endfacet
  facet normal 2.380359e-05 3.626285e-01 9.319338e-01
    outer loop
      vertex -4.318040e-01 4.724160e+00 -1.110223e-16
      vertex 3.069419e-16 5.196576e+00 -1.838347e-01
      vertex -8.636080e-01 5.668992e+00 -3.676363e-01
    endloop
  endfacet
  facet normal -3.804057e-16 3.626190e-01 9.319375e-01
    outer loop
      vertex -4.318040e-01 4.724160e+00 -1.110223e-16
      vertex -8.636080e-01 5.668992e+00 -3.676363e-01
      vertex -8.636080e-01 3.779328e+00 3.676363e-01
    endloop
  endfacet
  facet normal -2.380359e-05 3.626285e-01 9.319338e-01
    outer loop
      vertex 4.318040e-01 4.724160e+00 -1.249001e-16
      vertex 8.636080e-01 5.668992e+00 -3.676363e-01
      vertex 3.069419e-16 5.196576e+00 -1.838347e-01
    endloop
  endfacet
  facet normal -6.340020e-17 3.626474e-01 9.319264e-01
    outer loop
      vertex 4.318040e-01 4.724160e+00 -1.249001e-16
      vertex 3.069419e-16 5.196576e+00 -1.838347e-01
      vertex 2.716009e-16 4.251744e+00 1.838347e-01
    endloop
  endfacet
  facet normal 2.380359e-05 3.626285e-01 9.319338e-01
    outer loop
      vertex 4.318040e-01 4.724160e+00 -1.249001e-16
      vertex 2.716009e-16 4.251744e+00 1.838347e-01
      vertex 8.636080e-01 3.779328e+00 3.676363e-01
    endloop
  endfacet
  facet normal -3.804057e-16 3.626190e-01 9.319375e-01
    outer loop
      vertex 4.318040e-01 4.724160e+00 -1.249001e-16
      vertex 8.636080e-01 3.779328e+00 3.676363e-01
      vertex 8.636080e-01 5.668992e+00 -3.676363e-01
    endloop
  endfacet
  facet normal -5.072076e-16 -3.626190e-01 -9.319375e-01
    outer loop
      vertex 2.537653e-16 4.724160e+00 -4.758099e-17
      vertex -8.636080e-01 3.779328e+00 3.676363e-01
      vertex -8.636080e-01 5.668992e+00 -3.676363e-01
    endloop
  endfacet
  facet normal 7.381216e-01 6.746677e-01 1.698625e-15
    outer loop
      vertex 2.537653e-16 4.724160e+00 -4.758099e-17
      vertex -8.636080e-01 5.668992e+00 -3.676363e-01
      vertex -1.295412e+00 6.141408e+00 3.676363e-01
    endloop
  endfacet
  facet normal 6.602691e-01 6.839743e-01 -3.101997e-01
    outer loop
      vertex 2.537653e-16 4.724160e+00 -4.758099e-17
      vertex -1.295412e+00 6.141408e+00 3.676363e-01
      vertex -8.636080e-01 6.141408e+00 1.286744e+00
    endloop
  endfacet
  facet normal -1.656717e-01 6.056635e-01 -7.782831e-01
    outer loop
      vertex 2.537653e-16 4.724160e+00 -4.758099e-17
      vertex -8.636080e-01 6.141408e+00 1.286744e+00
      vertex 4.950248e-16 6.613824e+00 1.470545e+00
    endloop
  endfacet
  facet normal 1.656717e-01 6.056635e-01 -7.782831e-01
    outer loop
      vertex 2.537653e-16 4.724160e+00 -4.758099e-17
      vertex 4.950248e-16 6.613824e+00 1.470545e+00
      vertex 8.636080e-01 6.141408e+00 1.286744e+00
    endloop
  endfacet
  facet normal -6.602691e-01 6.839743e-01 -3.101997e-01
    outer loop
      vertex 2.537653e-16 4.724160e+00 -4.758099e-17
      vertex 8.636080e-01 6.141408e+00 1.286744e+00
      vertex 1.295412e+00 6.141408e+00 3.676363e-01
    endloop
  endfacet
  facet normal -7.381216e-01 6.746677e-01 9.436808e-16
    outer loop
      vertex 2.537653e-16 4.724160e+00 -4.758099e-17
      vertex 1.295412e+00 6.141408e+00 3.676363e-01
      vertex 8.636080e-01 5.668992e+00 -3.676363e-01
    endloop
  endfacet
  facet normal 5.072076e-16 -3.626190e-01 -9.319375e-01
    outer loop
      vertex 2.537653e-16 4.724160e+00 -4.758099e-17
      vertex 8.636080e-01 5.668992e+00 -3.676363e-01
      vertex 8.636080e-01 3.779328e+00 3.676363e-01
    endloop
  endfacet
  facet normal 7.381216e-01 6.746677e-01 -7.549446e-16
    outer loop
      vertex 2.537653e-16 4.724160e+00 -4.758099e-17
      vertex 8.636080e-01 3.779328e+00 3.676363e-01
      vertex 1.295412e+00 3.306912e+00 -3.676363e-01
    endloop
  endfacet
  facet normal 6.602691e-01 6.839743e-01 -3.101997e-01
    outer loop
      vertex 2.537653e-16 4.724160e+00 -4.758099e-17
      vertex 1.295412e+00 3.306912e+00 -3.676363e-01
      vertex 8.636080e-01 3.306912e+00 -1.286744e+00
    endloop
  endfacet
  facet normal -1.656717e-01 6.056635e-01 -7.782831e-01
    outer loop
      vertex 2.537653e-16 4.724160e+00 -4.758099e-17
      vertex 8.636080e-01 3.306912e+00 -1.286744e+00
      vertex 8.351789e-17 2.834496e+00 -1.470545e+00
    endloop
  endfacet
  facet normal 1.656717e-01 6.056635e-01 -7.782831e-01
    outer loop
      vertex 2.537653e-16 4.724160e+00 -4.758099e-17
      vertex 8.351789e-17 2.834496e+00 -1.470545e+00
      vertex -8.636080e-01 3.306912e+00 -1.286744e+00
    endloop
  endfacet
  facet normal -6.602691e-01 6.839743e-01 -3.101997e-01
    outer loop
      vertex 2.537653e-16 4.724160e+00 -4.758099e-17
      vertex -8.636080e-01 3.306912e+00 -1.286744e+00
      vertex -1.295412e+00 3.306912e+00 -3.676363e-01
    endloop
  endfacet
  facet normal -7.381216e-01 6.746677e-01 3.774723e-16
    outer loop
      vertex 2.537653e-16 4.724160e+00 -4.758099e-17
      vertex -1.295412e+00 3.306912e+00 -3.676363e-01
      vertex -8.636080e-01 3.779328e+00 3.676363e-01
    endloop
  endfacet
  facet normal -2.380359e-05 3.626285e-01 9.319338e-01
    outer loop
      vertex 4.318040e-01 1.665335e-16 3.308760e+00
      vertex 8.636080e-01 9.448320e-01 2.941124e+00
      vertex 2.202736e-16 4.724160e-01 3.124925e+00
    endloop
  endfacet
  facet normal 4.438014e-16 3.626474e-01 9.319264e-01
    outer loop
      vertex 4.318040e-01 1.665335e-16 3.308760e+00
      vertex 2.202736e-16 4.724160e-01 3.124925e+00
      vertex 1.849326e-16 -4.724160e-01 3.492595e+00
    endloop
  endfacet
  facet normal 2.380359e-05 3.626285e-01 9.319338e-01
    outer loop
      vertex 4.318040e-01 1.665335e-16 3.308760e+00
      vertex 1.849326e-16 -4.724160e-01 3.492595e+00
      vertex 8.636080e-01 -9.448320e-01 3.676396e+00
    endloop
  endfacet
  facet normal -5.072076e-16 3.626190e-01 9.319375e-01
    outer loop
      vertex 4.318040e-01 1.665335e-16 3.308760e+00
      vertex 8.636080e-01 -9.448320e-01 3.676396e+00
      vertex 8.636080e-01 9.448320e-01 2.941124e+00
    endloop
  endfacet
  facet normal -2.380359e-05 3.626285e-01 9.319338e-01
    outer loop
      vertex -4.318040e-01 1.665335e-16 3.308760e+00
      vertex -8.636080e-01 -9.448320e-01 3.676396e+00
      vertex 1.849326e-16 -4.724160e-01 3.492595e+00
    endloop
  endfacet
  facet normal -4.438014e-16 3.626474e-01 9.319264e-01
    outer loop
      vertex -4.318040e-01 1.665335e-16 3.308760e+00
      vertex 1.849326e-16 -4.724160e-01 3.492595e+00
      vertex 2.202736e-16 4.724160e-01 3.124925e+00
    endloop
  endfacet
  facet normal 2.380359e-05 3.626285e-01 9.319338e-01
    outer loop
      vertex -4.318040e-01 1.665335e-16 3.308760e+00
      vertex 2.202736e-16 4.724160e-01 3.124925e+00
      vertex -8.636080e-01 9.448320e-01 2.941124e+00
    endloop
  endfacet
  facet normal 5.072076e-16 3.626190e-01 9.319375e-01
    outer loop
      vertex -4.318040e-01 1.665335e-16 3.308760e+00
      vertex -8.636080e-01 9.448320e-01 2.941124e+00
      vertex -8.636080e-01 -9.448320e-01 3.676396e+00
    endloop
  endfacet
  facet normal -6.657100e-16 -3.626190e-01 -9.319375e-01
    outer loop
      vertex 2.537653e-16 1.268826e-16 3.308760e+00
      vertex 8.636080e-01 9.448320e-01 2.941124e+00
      vertex 8.636080e-01 -9.448320e-01 3.676396e+00
    endloop
  endfacet
  facet normal 7.381216e-01 6.746677e-01 -1.887362e-16
    outer loop
      vertex 2.537653e-16 1.268826e-16 3.308760e+00
      vertex 8.636080e-01 -9.448320e-01 3.676396e+00
      vertex 1.295412e+00 -1.417248e+00 2.941124e+00
    endloop
  endfacet
  facet normal 6.602691e-01 6.839743e-01 -3.101997e-01
    outer loop
      vertex 2.537653e-16 1.268826e-16 3.308760e+00
      vertex 1.295412e+00 -1.417248e+00 2.941124e+00
      vertex 8.636080e-01 -1.417248e+00 2.022016e+00
    endloop
  endfacet
  facet normal -1.656717e-01 6.056635e-01 -7.782831e-01
    outer loop
      vertex 2.537653e-16 1.268826e-16 3.308760e+00
      vertex 8.636080e-01 -1.417248e+00 2.022016e+00
      vertex -3.150361e-18 -1.889664e+00 1.838215e+00
    endloop
  endfacet
  facet normal 1.656717e-01 6.056635e-01 -7.782831e-01
    outer loop
      vertex 2.537653e-16 1.268826e-16 3.308760e+00
      vertex -3.150361e-18 -1.889664e+00 1.838215e+00
      vertex -8.636080e-01 -1.417248e+00 2.022016e+00
    endloop
  endfacet
  facet normal -6.602691e-01 6.839743e-01 -3.101997e-01
    outer loop
      vertex 2.537653e-16 1.268826e-16 3.308760e+00
      vertex -8.636080e-01 -1.417248e+00 2.022016e+00
      vertex -1.295412e+00 -1.417248e+00 2.941124e+00
    endloop
  endfacet
  facet normal -7.381216e-01 6.746677e-01 7.549446e-16
    outer loop
      vertex 2.537653e-16 1.268826e-16 3.308760e+00
      vertex -1.295412e+00 -1.417248e+00 2.941124e+00
      vertex -8.636080e-01 -9.448320e-01 3.676396e+00
    endloop
  endfacet
  facet normal 6.657100e-16 -3.626190e-01 -9.319375e-01
    outer loop
      vertex 2.537653e-16 1.268826e-16 3.308760e+00
      vertex -8.636080e-01 -9.448320e-01 3.676396e+00
      vertex -8.636080e-01 9.448320e-01 2.941124e+00
    endloop
  endfacet
  facet normal 7.381216e-01 6.746677e-01 7.549446e-16
    outer loop
      vertex 2.537653e-16 1.268826e-16 3.308760e+00
      vertex -8.636080e-01 9.448320e-01 2.941124e+00
      vertex -1.295412e+00 1.417248e+00 3.676396e+00
    endloop
  endfacet
  facet normal 6.602691e-01 6.839743e-01 -3.101997e-01
    outer loop
      vertex 2.537653e-16 1.268826e-16 3.308760e+00
      vertex -1.295412e+00 1.417248e+00 3.676396e+00
      vertex -8.636080e-01 1.417248e+00 4.595504e+00
    endloop
  endfacet
  facet normal -1.656717e-01 6.056635e-01 -7.782831e-01
    outer loop
      vertex 2.537653e-16 1.268826e-16 3.308760e+00
      vertex -8.636080e-01 1.417248e+00 4.595504e+00
      vertex 4.083566e-16 1.889664e+00 4.779305e+00
    endloop
  endfacet
  facet normal 1.656717e-01 6.056635e-01 -7.782831e-01
    outer loop
      vertex 2.537653e-16 1.268826e-16 3.308760e+00
      vertex 4.083566e-16 1.889664e+00 4.779305e+00
      vertex 8.636080e-01 1.417248e+00 4.595504e+00
    endloop
  endfacet
  facet normal -6.602691e-01 6.839743e-01 -3.101997e-01
    outer loop
      vertex 2.537653e-16 1.268826e-16 3.308760e+00
      vertex 8.636080e-01 1.417248e+00 4.595504e+00
      vertex 1.295412e+00 1.417248e+00 3.676396e+00
    endloop
  endfacet
  facet normal -7.381216e-01 6.746677e-01 0.000000e+00
    outer loop
      vertex 2.537653e-16 1.268826e-16 3.308760e+00
      vertex 1.295412e+00 1.417248e+00 3.676396e+00
      vertex 8.636080e-01 9.448320e-01 2.941124e+00
    endloop
  endfacet
  facet normal -2.380359e-05 3.626285e-01 9.319338e-01
    outer loop
      vertex 3.886236e+00 4.724160e+00 -1.110223e-16
      vertex 3.454432e+00 3.779328e+00 3.676363e-01
      vertex 4.318040e+00 4.251744e+00 1.838347e-01
    endloop
  endfacet
  facet normal 7.925025e-16 3.626474e-01 9.319264e-01
    outer loop
      vertex 3.886236e+00 4.724160e+00 -1.110223e-16
      vertex 4.318040e+00 4.251744e+00 1.838347e-01
      vertex 4.318040e+00 5.196576e+00 -1.838347e-01
    endloop
  endfacet
  facet normal 2.380359e-05 3.626285e-01 9.319338e-01
    outer loop
      vertex 3.886236e+00 4.724160e+00 -1.110223e-16
      vertex 4.318040e+00 5.196576e+00 -1.838347e-01
      vertex 3.454432e+00 5.668992e+00 -3.676363e-01
    endloop
  endfacet
  facet normal -3.804057e-16 3.626190e-01 9.319375e-01
    outer loop
      vertex 3.886236e+00 4.724160e+00 -1.110223e-16
      vertex 3.454432e+00 5.668992e+00 -3.676363e-01
      vertex 3.454432e+00 3.779328e+00 3.676363e-01
    endloop
  endfacet
  facet normal -2.380359e-05 3.626285e-01 9.319338e-01
    outer loop
      vertex 4.749844e+00 4.724160e+00 -1.249001e-16
      vertex 5.181648e+00 5.668992e+00 -3.676363e-01
      vertex 4.318040e+00 5.196576e+00 -1.838347e-01
    endloop
  endfacet
  facet normal -6.340020e-17 3.626474e-01 9.319264e-01
    outer loop
      vertex 4.749844e+00 4.724160e+00 -1.249001e-16
      vertex 4.318040e+00 5.196576e+00 -1.838347e-01
      vertex 4.318040e+00 4.251744e+00 1.838347e-01
    endloop
  endfacet
  facet normal 2.380359e-05 3.626285e-01 9.319338e-01
    outer loop
      vertex 4.749844e+00 4.724160e+00 -1.249001e-16
      vertex 4.318040e+00 4.251744e+00 1.838347e-01
      vertex 5.181648e+00 3.779328e+00 3.676363e-01
    endloop
  endfacet
  facet normal -3.804057e-16 3.626190e-01 9.319375e-01
    outer loop
      vertex 4.749844e+00 4.724160e+00 -1.249001e-16
      vertex 5.181648e+00 3.779328e+00 3.676363e-01
      vertex 5.181648e+00 5.668992e+00 -3.676363e-01
    endloop
  endfacet
  facet normal -5.072076e-16 -3.626190e-01 -9.319375e-01
    outer loop
      vertex 4.318040e+00 4.724160e+00 -4.758099e-17
      vertex 3.454432e+00 3.779328e+00 3.676363e-01
      vertex 3.454432e+00 5.668992e+00 -3.676363e-01
    endloop
  endfacet
  facet normal 7.381216e-01 6.746677e-01 1.132417e-15
    outer loop
      vertex 4.318040e+00 4.724160e+00 -4.758099e-17
      vertex 3.454432e+00 5.668992e+00 -3.676363e-01
      vertex 3.022628e+00 6.141408e+00 3.676363e-01
    endloop
  endfacet
  facet normal 6.602691e-01 6.839743e-01 -3.101997e-01
    outer loop
      vertex 4.318040e+00 4.724160e+00 -4.758099e-17
      vertex 3.022628e+00 6.141408e+00 3.676363e-01
      vertex 3.454432e+00 6.141408e+00 1.286744e+00
    endloop
  endfacet
  facet normal -1.656717e-01 6.056635e-01 -7.782831e-01
    outer loop
      vertex 4.318040e+00 4.724160e+00 -4.758099e-17
      vertex 3.454432e+00 6.141408e+00 1.286744e+00
      vertex 4.318040e+00 6.613824e+00 1.470545e+00
    endloop
  endfacet
  facet normal 1.656717e-01 6.056635e-01 -7.782831e-01
    outer loop
      vertex 4.318040e+00 4.724160e+00 -4.758099e-17
      vertex 4.318040e+00 6.613824e+00 1.470545e+00
      vertex 5.181648e+00 6.141408e+00 1.286744e+00
    endloop
  endfacet
  facet normal -6.602691e-01 6.839743e-01 -3.101997e-01
    outer loop
      vertex 4.318040e+00 4.724160e+00 -4.758099e-17
      vertex 5.181648e+00 6.141408e+00 1.286744e+00
      vertex 5.613452e+00 6.141408e+00 3.676363e-01
    endloop
  endfacet
  facet normal -7.381216e-01 6.746677e-01 1.321153e-15
    outer loop
      vertex 4.318040e+00 4.724160e+00 -4.758099e-17
      vertex 5.613452e+00 6.141408e+00 3.676363e-01
      vertex 5.181648e+00 5.668992e+00 -3.676363e-01
    endloop
  endfacet
  facet normal 5.072076e-16 -3.626190e-01 -9.319375e-01
    outer loop
      vertex 4.318040e+00 4.724160e+00 -4.758099e-17
      vertex 5.181648e+00 5.668992e+00 -3.676363e-01
      vertex 5.181648e+00 3.779328e+00 3.676363e-01
    endloop
  endfacet
  facet normal 7.381216e-01 6.746677e-01 0.000000e+00
    outer loop
      vertex 4.318040e+00 4.724160e+00 -4.758099e-17
      vertex 5.181648e+00 3.779328e+00 3.676363e-01
      vertex 5.613452e+00 3.306912e+00 -3.676363e-01
    endloop
  endfacet
  facet normal 6.602691e-01 6.839743e-01 -3.101997e-01
    outer loop
      vertex 4.318040e+00 4.724160e+00 -4.758099e-17
      vertex 5.613452e+00 3.306912e+00 -3.676363e-01
      vertex 5.181648e+00 3.306912e+00 -1.286744e+00
    endloop
  endfacet
  facet normal -1.656717e-01 6.056635e-01 -7.782831e-01
    outer loop
      vertex 4.318040e+00 4.724160e+00 -4.758099e-17
      vertex 5.181648e+00 3.306912e+00 -1.286744e+00
      vertex 4.318040e+00 2.834496e+00 -1.470545e+00
    endloop
  endfacet
  facet normal 1.656717e-01 6.056635e-01 -7.782831e-01
    outer loop
      vertex 4.318040e+00 4.724160e+00 -4.758099e-17
      vertex 4.318040e+00 2.834496e+00 -1.470545e+00
      vertex 3.454432e+00 3.306912e+00 -1.286744e+00
    endloop
  endfacet
  facet normal -6.602691e-01 6.839743e-01 -3.101997e-01
    outer loop
      vertex 4.318040e+00 4.724160e+00 -4.758099e-17
      vertex 3.454432e+00 3.306912e+00 -1.286744e+00
      vertex 3.022628e+00 3.306912e+00 -3.676363e-01
    endloop
  endfacet
  facet normal -7.381216e-01 6.746677e-01 1.887362e-16
    outer loop
      vertex 4.318040e+00 4.724160e+00 -4.758099e-17
      vertex 3.022628e+00 3.306912e+00 -3.676363e-01
      vertex 3.454432e+00 3.779328e+00 3.676363e-01
    endloop
  endfacet
  facet normal -2.380359e-05 3.626285e-01 9.319338e-01
    outer loop
      vertex 4.749844e+00 1.665335e-16 3.308760e+00
      vertex 5.181648e+00 9.448320e-01 2.941124e+00
      vertex 4.318040e+00 4.724160e-01 3.124925e+00
    endloop
  endfacet
  facet normal 4.438014e-16 3.626474e-01 9.319264e-01
    outer loop
      vertex 4.749844e+00 1.665335e-16 3.308760e+00
      vertex 4.318040e+00 4.724160e-01 3.124925e+00
      vertex 4.318040e+00 -4.724160e-01 3.492595e+00
    endloop
  endfacet
  facet normal 2.380359e-05 3.626285e-01 9.319338e-01
    outer loop
      vertex 4.749844e+00 1.665335e-16 3.308760e+00
      vertex 4.318040e+00 -4.724160e-01 3.492595e+00
      vertex 5.181648e+00 -9.448320e-01 3.676396e+00
    endloop
  endfacet
  facet normal -5.072076e-16 3.626190e-01 9.319375e-01
    outer loop
      vertex 4.749844e+00 1.665335e-16 3.308760e+00
      vertex 5.181648e+00 -9.448320e-01 3.676396e+00
      vertex 5.181648e+00 9.448320e-01 2.941124e+00
    endloop
  endfacet
  facet normal -2.380359e-05 3.626285e-01 9.319338e-01
    outer loop
      vertex 3.886236e+00 1.665335e-16 3.308760e+00
      vertex 3.454432e+00 -9.448320e-01 3.676396e+00
      vertex 4.318040e+00 -4.724160e-01 3.492595e+00
    endloop
  endfacet
  facet normal -4.438014e-16 3.626474e-01 9.319264e-01
    outer loop
      vertex 3.886236e+00 1.665335e-16 3.308760e+00
      vertex 4.318040e+00 -4.724160e-01 3.492595e+00
      vertex 4.318040e+00 4.724160e-01 3.124925e+00
    endloop
  endfacet
  facet normal 2.380359e-05 3.626285e-01 9.319338e-01
    outer loop
      vertex 3.886236e+00 1.665335e-16 3.308760e+00
      vertex 4.318040e+00 4.724160e-01 3.124925e+00
      vertex 3.454432e+00 9.448320e-01 2.941124e+00
    endloop
  endfacet
  facet normal 5.072076e-16 3.626190e-01 9.319375e-01
    outer loop
      vertex 3.886236e+00 1.665335e-16 3.308760e+00
      vertex 3.454432e+00 9.448320e-01 2.941124e+00
      vertex 3.454432e+00 -9.448320e-01 3.676396e+00
    endloop
  endfacet
  facet normal -6.657100e-16 -3.626190e-01 -9.319375e-01
    outer loop
      vertex 4.318040e+00 1.268826e-16 3.308760e+00
      vertex 5.181648e+00 9.448320e-01 2.941124e+00
      vertex 5.181648e+00 -9.448320e-01 3.676396e+00
    endloop
  endfacet
  facet normal 7.381216e-01 6.746677e-01 -3.774723e-16
    outer loop
      vertex 4.318040e+00 1.268826e-16 3.308760e+00
      vertex 5.181648e+00 -9.448320e-01 3.676396e+00
      vertex 5.613452e+00 -1.417248e+00 2.941124e+00
    endloop
  endfacet
  facet normal 6.602691e-01 6.839743e-01 -3.101997e-01
    outer loop
      vertex 4.318040e+00 1.268826e-16 3.308760e+00
      vertex 5.613452e+00 -1.417248e+00 2.941124e+00
      vertex 5.181648e+00 -1.417248e+00 2.022016e+00
    endloop
  endfacet
  facet normal -1.656717e-01 6.056635e-01 -7.782831e-01
    outer loop
      vertex 4.318040e+00 1.268826e-16 3.308760e+00
      vertex 5.181648e+00 -1.417248e+00 2.022016e+00
      vertex 4.318040e+00 -1.889664e+00 1.838215e+00
    endloop
  endfacet
  facet normal 1.656717e-01 6.056635e-01 -7.782831e-01
    outer loop
      vertex 4.318040e+00 1.268826e-16 3.308760e+00
      vertex 4.318040e+00 -1.889664e+00 1.838215e+00
      vertex 3.454432e+00 -1.417248e+00 2.022016e+00
    endloop
  endfacet
  facet normal -6.602691e-01 6.839743e-01 -3.101997e-01
    outer loop
      vertex 4.318040e+00 1.268826e-16 3.308760e+00
      vertex 3.454432e+00 -1.417248e+00 2.022016e+00
      vertex 3.022628e+00 -1.417248e+00 2.941124e+00
    endloop
  endfacet
  facet normal -7.381216e-01 6.746677e-01 1.509889e-15
    outer loop
      vertex 4.318040e+00 1.268826e-16 3.308760e+00
      vertex 3.022628e+00 -1.417248e+00 2.941124e+00
      vertex 3.454432e+00 -9.448320e-01 3.676396e+00
    endloop
  endfacet
  facet normal 6.657100e-16 -3.626190e-01 -9.319375e-01
    outer loop
      vertex 4.318040e+00 1.268826e-16 3.308760e+00
      vertex 3.454432e+00 -9.448320e-01 3.676396e+00
      vertex 3.454432e+00 9.448320e-01 2.941124e+00
    endloop
  endfacet
  facet normal 7.381216e-01 6.746677e-01 1.132417e-15
    outer loop
      vertex 4.318040e+00 1.268826e-16 3.308760e+00
      vertex 3.454432e+00 9.448320e-01 2.941124e+00
      vertex 3.022628e+00 1.417248e+00 3.676396e+00
    endloop
  endfacet
  facet normal 6.602691e-01 6.839743e-01 -3.101997e-01
    outer loop
      vertex 4.318040e+00 1.268826e-16 3.308760e+00
      vertex 3.022628e+00 1.417248e+00 3.676396e+00
      vertex 3.454432e+00 1.417248e+00 4.595504e+00
    endloop
  endfacet
  facet normal -1.656717e-01 6.056635e-01 -7.782831e-01
    outer loop
      vertex 4.318040e+00 1.268826e-16 3.308760e+00
      vertex 3.454432e+00 1.417248e+00 4.595504e+00
      vertex 4.318040e+00 1.889664e+00 4.779305e+00
    endloop
  endfacet
  facet normal 1.656717e-01 6.056635e-01 -7.782831e-01
    outer loop
      vertex 4.318040e+00 1.268826e-16 3.308760e+00
      vertex 4.318040e+00 1.889664e+00 4.779305e+00
      vertex 5.181648e+00 1.417248e+00 4.595504e+00
    endloop
  endfacet
  facet normal -6.602691e-01 6.839743e-01 -3.101997e-01
    outer loop
      vertex 4.318040e+00 1.268826e-16 3.308760e+00
      vertex 5.181648e+00 1.417248e+00 4.595504e+00
      vertex 5.613452e+00 1.417248e+00 3.676396e+00
    endloop
  endfacet
  facet normal -7.381216e-01 6.746677e-01 -5.662085e-16
    outer loop
      vertex 4.318040e+00 1.268826e-16 3.308760e+00
      vertex 5.613452e+00 1.417248e+00 3.676396e+00
      vertex 5.181648e+00 9.448320e-01 2.941124e+00
    endloop
  endfacet
endsolid surface_model
