solid surface_model
  facet normal 0.000000e+00 -2.425356e-01 -9.701425e-01
    outer loop
      vertex 3.330669e-16 2.745190e+00 1.372595e+00
      vertex 5.490380e-01 1.647114e+00 1.647114e+00
      vertex -5.490380e-01 1.647114e+00 1.647114e+00
    endloop
  endfacet
  facet normal 4.082483e-01 -4.082483e-01 -8.164966e-01
    outer loop
      vertex 3.330669e-16 2.745190e+00 1.372595e+00
      vertex -5.490380e-01 1.647114e+00 1.647114e+00
      vertex -1.098076e+00 2.196152e+00 1.098076e+00
    endloop
  endfacet
  facet normal 2.425356e-01 0.000000e+00 -9.701425e-01
    outer loop
      vertex 3.330669e-16 2.745190e+00 1.372595e+00
      vertex -1.098076e+00 2.196152e+00 1.098076e+00
      vertex -1.098076e+00 3.294228e+00 1.098076e+00
    endloop
  endfacet
  facet normal 4.082483e-01 4.082483e-01 -8.164966e-01
    outer loop
      vertex 3.330669e-16 2.745190e+00 1.372595e+00
      vertex -1.098076e+00 3.294228e+00 1.098076e+00
      vertex -5.490380e-01 3.843266e+00 1.647114e+00
    endloop
  endfacet
  facet normal 0.000000e+00 2.425356e-01 -9.701425e-01
    outer loop
      vertex 3.330669e-16 2.745190e+00 1.372595e+00
      vertex -5.490380e-01 3.843266e+00 1.647114e+00
      vertex 5.490380e-01 3.843266e+00 1.647114e+00
    endloop
  endfacet
  facet normal -4.082483e-01 4.082483e-01 -8.164966e-01
    outer loop
      vertex 3.330669e-16 2.745190e+00 1.372595e+00
      vertex 5.490380e-01 3.843266e+00 1.647114e+00
      vertex 1.098076e+00 3.294228e+00 1.098076e+00
    endloop
  endfacet
  facet normal -2.425356e-01 0.000000e+00 -9.701425e-01
    outer loop
      vertex 3.330669e-16 2.745190e+00 1.372595e+00
      vertex 1.098076e+00 3.294228e+00 1.098076e+00
      vertex 1.098076e+00 2.196152e+00 1.098076e+00
    endloop
  endfacet
  facet normal -4.082483e-01 -4.082483e-01 -8.164966e-01
    outer loop
      vertex 3.330669e-16 2.745190e+00 1.372595e+00
      vertex 1.098076e+00 2.196152e+00 1.098076e+00
      vertex 5.490380e-01 1.647114e+00 1.647114e+00
    endloop
  endfacet
  facet normal 0.000000e+00 -9.701425e-01 -2.425356e-01
    outer loop
      vertex 5.490380e+00 1.372595e+00 2.745190e+00
      vertex 4.941342e+00 1.647114e+00 1.647114e+00
      vertex 6.039418e+00 1.647114e+00 1.647114e+00
    endloop
  endfacet
  facet normal -4.082483e-01 -8.164966e-01 -4.082483e-01
    outer loop
      vertex 5.490380e+00 1.372595e+00 2.745190e+00
      vertex 6.039418e+00 1.647114e+00 1.647114e+00
      vertex 6.588456e+00 1.098076e+00 2.196152e+00
    endloop
  endfacet
  facet normal -2.425356e-01 -9.701425e-01 0.000000e+00
    outer loop
      vertex 5.490380e+00 1.372595e+00 2.745190e+00
      vertex 6.588456e+00 1.098076e+00 2.196152e+00
      vertex 6.588456e+00 1.098076e+00 3.294228e+00
    endloop
  endfacet
  facet normal -4.082483e-01 -8.164966e-01 4.082483e-01
    outer loop
      vertex 5.490380e+00 1.372595e+00 2.745190e+00
      vertex 6.588456e+00 1.098076e+00 3.294228e+00
      vertex 6.039418e+00 1.647114e+00 3.843266e+00
    endloop
  endfacet
  facet normal 0.000000e+00 -9.701425e-01 2.425356e-01
    outer loop
      vertex 5.490380e+00 1.372595e+00 2.745190e+00
      vertex 6.039418e+00 1.647114e+00 3.843266e+00
      vertex 4.941342e+00 1.647114e+00 3.843266e+00
    endloop
  endfacet
  facet normal 4.082483e-01 -8.164966e-01 4.082483e-01
    outer loop
      vertex 5.490380e+00 1.372595e+00 2.745190e+00
      vertex 4.941342e+00 1.647114e+00 3.843266e+00
      vertex 4.392304e+00 1.098076e+00 3.294228e+00
    endloop
  endfacet
  facet normal 2.425356e-01 -9.701425e-01 0.000000e+00
    outer loop
      vertex 5.490380e+00 1.372595e+00 2.745190e+00
      vertex 4.392304e+00 1.098076e+00 3.294228e+00
      vertex 4.392304e+00 1.098076e+00 2.196152e+00
    endloop
  endfacet
  facet normal 4.082483e-01 -8.164966e-01 -4.082483e-01
    outer loop
      vertex 5.490380e+00 1.372595e+00 2.745190e+00
      vertex 4.392304e+00 1.098076e+00 2.196152e+00
      vertex 4.941342e+00 1.647114e+00 1.647114e+00
    endloop
  endfacet
  facet normal -9.701425e-01 1.786533e-16 -2.425356e-01
    outer loop
      vertex 1.372595e+00 3.330669e-16 2.745190e+00
      vertex 1.647114e+00 5.490380e-01 1.647114e+00
      vertex 1.647114e+00 -5.490380e-01 1.647114e+00
    endloop
  endfacet
  facet normal -8.164966e-01 4.082483e-01 -4.082483e-01
    outer loop
      vertex 1.372595e+00 3.330669e-16 2.745190e+00
      vertex 1.647114e+00 -5.490380e-01 1.647114e+00
      vertex 1.098076e+00 -1.098076e+00 2.196152e+00
    endloop
  endfacet
  facet normal -9.701425e-01 2.425356e-01 0.000000e+00
    outer loop
      vertex 1.372595e+00 3.330669e-16 2.745190e+00
      vertex 1.098076e+00 -1.098076e+00 2.196152e+00
      vertex 1.098076e+00 -1.098076e+00 3.294228e+00
    endloop
  endfacet
  facet normal -8.164966e-01 4.082483e-01 4.082483e-01
    outer loop
      vertex 1.372595e+00 3.330669e-16 2.745190e+00
      vertex 1.098076e+00 -1.098076e+00 3.294228e+00
      vertex 1.647114e+00 -5.490380e-01 3.843266e+00
    endloop
  endfacet
  facet normal -9.701425e-01 1.786533e-16 2.425356e-01
    outer loop
      vertex 1.372595e+00 3.330669e-16 2.745190e+00
      vertex 1.647114e+00 -5.490380e-01 3.843266e+00
      vertex 1.647114e+00 5.490380e-01 3.843266e+00
    endloop
  endfacet
  facet normal -8.164966e-01 -4.082483e-01 4.082483e-01
    outer loop
      vertex 1.372595e+00 3.330669e-16 2.745190e+00
      vertex 1.647114e+00 5.490380e-01 3.843266e+00
      vertex 1.098076e+00 1.098076e+00 3.294228e+00
    endloop
  endfacet
  facet normal -9.701425e-01 -2.425356e-01 0.000000e+00
    outer loop
      vertex 1.372595e+00 3.330669e-16 2.745190e+00
      vertex 1.098076e+00 1.098076e+00 3.294228e+00
      vertex 1.098076e+00 1.098076e+00 2.196152e+00
    endloop
  endfacet
  facet normal -8.164966e-01 -4.082483e-01 -4.082483e-01
    outer loop
      vertex 1.372595e+00 3.330669e-16 2.745190e+00
      vertex 1.098076e+00 1.098076e+00 2.196152e+00
      vertex 1.647114e+00 5.490380e-01 1.647114e+00
    endloop
  endfacet
  facet normal -2.425356e-01 4.466332e-17 -9.701425e-01
    outer loop
      vertex 2.745190e+00 5.490380e+00 1.372595e+00
      vertex 1.647114e+00 4.941342e+00 1.647114e+00
      vertex 1.647114e+00 6.039418e+00 1.647114e+00
    endloop
  endfacet
  facet normal -4.082483e-01 -4.082483e-01 -8.164966e-01
    outer loop
      vertex 2.745190e+00 5.490380e+00 1.372595e+00
      vertex 1.647114e+00 6.039418e+00 1.647114e+00
      vertex 2.196152e+00 6.588456e+00 1.098076e+00
    endloop
  endfacet
  facet normal 0.000000e+00 -2.425356e-01 -9.701425e-01
    outer loop
      vertex 2.745190e+00 5.490380e+00 1.372595e+00
      vertex 2.196152e+00 6.588456e+00 1.098076e+00
      vertex 3.294228e+00 6.588456e+00 1.098076e+00
    endloop
  endfacet
  facet normal 4.082483e-01 -4.082483e-01 -8.164966e-01
    outer loop
      vertex 2.745190e+00 5.490380e+00 1.372595e+00
      vertex 3.294228e+00 6.588456e+00 1.098076e+00
      vertex 3.843266e+00 6.039418e+00 1.647114e+00
    endloop
  endfacet
  facet normal 2.425356e-01 0.000000e+00 -9.701425e-01
    outer loop
      vertex 2.745190e+00 5.490380e+00 1.372595e+00
      vertex 3.843266e+00 6.039418e+00 1.647114e+00
      vertex 3.843266e+00 4.941342e+00 1.647114e+00
    endloop
  endfacet
  facet normal 4.082483e-01 4.082483e-01 -8.164966e-01
    outer loop
      vertex 2.745190e+00 5.490380e+00 1.372595e+00
      vertex 3.843266e+00 4.941342e+00 1.647114e+00
      vertex 3.294228e+00 4.392304e+00 1.098076e+00
    endloop
  endfacet
  facet normal 0.000000e+00 2.425356e-01 -9.701425e-01
    outer loop
      vertex 2.745190e+00 5.490380e+00 1.372595e+00
      vertex 3.294228e+00 4.392304e+00 1.098076e+00
      vertex 2.196152e+00 4.392304e+00 1.098076e+00
    endloop
  endfacet
  facet normal -4.082483e-01 4.082483e-01 -8.164966e-01
    outer loop
      vertex 2.745190e+00 5.490380e+00 1.372595e+00
      vertex 2.196152e+00 4.392304e+00 1.098076e+00
      vertex 1.647114e+00 4.941342e+00 1.647114e+00
    endloop
  endfacet
  facet normal -2.425356e-01 -9.701425e-01 2.233166e-16
    outer loop
      vertex 2.745190e+00 1.372595e+00 1.665335e-16
      vertex 1.647114e+00 1.647114e+00 5.490380e-01
      vertex 1.647114e+00 1.647114e+00 -5.490380e-01
    endloop
  endfacet
  facet normal -4.082483e-01 -8.164966e-01 4.082483e-01
    outer loop
      vertex 2.745190e+00 1.372595e+00 1.665335e-16
      vertex 1.647114e+00 1.647114e+00 -5.490380e-01
      vertex 2.196152e+00 1.098076e+00 -1.098076e+00
    endloop
  endfacet
  facet normal 0.000000e+00 -9.701425e-01 2.425356e-01
    outer loop
      vertex 2.745190e+00 1.372595e+00 1.665335e-16
      vertex 2.196152e+00 1.098076e+00 -1.098076e+00
      vertex 3.294228e+00 1.098076e+00 -1.098076e+00
    endloop
  endfacet
  facet normal 4.082483e-01 -8.164966e-01 4.082483e-01
    outer loop
      vertex 2.745190e+00 1.372595e+00 1.665335e-16
      vertex 3.294228e+00 1.098076e+00 -1.098076e+00
      vertex 3.843266e+00 1.647114e+00 -5.490380e-01
    endloop
  endfacet
  facet normal 2.425356e-01 -9.701425e-01 2.233166e-16
    outer loop
      vertex 2.745190e+00 1.372595e+00 1.665335e-16
      vertex 3.843266e+00 1.647114e+00 -5.490380e-01
      vertex 3.843266e+00 1.647114e+00 5.490380e-01
    endloop
  endfacet
  facet normal 4.082483e-01 -8.164966e-01 -4.082483e-01
    outer loop
      vertex 2.745190e+00 1.372595e+00 1.665335e-16
      vertex 3.843266e+00 1.647114e+00 5.490380e-01
      vertex 3.294228e+00 1.098076e+00 1.098076e+00
    endloop
  endfacet
  facet normal 0.000000e+00 -9.701425e-01 -2.425356e-01
    outer loop
      vertex 2.745190e+00 1.372595e+00 1.665335e-16
      vertex 3.294228e+00 1.098076e+00 1.098076e+00
      vertex 2.196152e+00 1.098076e+00 1.098076e+00
    endloop
  endfacet
  facet normal -4.082483e-01 -8.164966e-01 -4.082483e-01
    outer loop
      vertex 2.745190e+00 1.372595e+00 1.665335e-16
      vertex 2.196152e+00 1.098076e+00 1.098076e+00
      vertex 1.647114e+00 1.647114e+00 5.490380e-01
    endloop
  endfacet
  facet normal -9.701425e-01 -2.425356e-01 2.233166e-16
    outer loop
      vertex 1.372595e+00 2.745190e+00 5.490380e+00
      vertex 1.647114e+00 1.647114e+00 4.941342e+00
      vertex 1.647114e+00 1.647114e+00 6.039418e+00
    endloop
  endfacet
  facet normal -8.164966e-01 -4.082483e-01 -4.082483e-01
    outer loop
      vertex 1.372595e+00 2.745190e+00 5.490380e+00
      vertex 1.647114e+00 1.647114e+00 6.039418e+00
      vertex 1.098076e+00 2.196152e+00 6.588456e+00
    endloop
  endfacet
  facet normal -9.701425e-01 0.000000e+00 -2.425356e-01
    outer loop
      vertex 1.372595e+00 2.745190e+00 5.490380e+00
      vertex 1.098076e+00 2.196152e+00 6.588456e+00
      vertex 1.098076e+00 3.294228e+00 6.588456e+00
    endloop
  endfacet
  facet normal -8.164966e-01 4.082483e-01 -4.082483e-01
    outer loop
      vertex 1.372595e+00 2.745190e+00 5.490380e+00
      vertex 1.098076e+00 3.294228e+00 6.588456e+00
      vertex 1.647114e+00 3.843266e+00 6.039418e+00
    endloop
  endfacet
  facet normal -9.701425e-01 2.425356e-01 1.786533e-16
    outer loop
      vertex 1.372595e+00 2.745190e+00 5.490380e+00
      vertex 1.647114e+00 3.843266e+00 6.039418e+00
      vertex 1.647114e+00 3.843266e+00 4.941342e+00
    endloop
  endfacet
  facet normal -8.164966e-01 4.082483e-01 4.082483e-01
    outer loop
      vertex 1.372595e+00 2.745190e+00 5.490380e+00
      vertex 1.647114e+00 3.843266e+00 4.941342e+00
      vertex 1.098076e+00 3.294228e+00 4.392304e+00
    endloop
  endfacet
  facet normal -9.701425e-01 0.000000e+00 2.425356e-01
    outer loop
      vertex 1.372595e+00 2.745190e+00 5.490380e+00
      vertex 1.098076e+00 3.294228e+00 4.392304e+00
      vertex 1.098076e+00 2.196152e+00 4.392304e+00
    endloop
  endfacet
  facet normal -8.164966e-01 -4.082483e-01 4.082483e-01
    outer loop
      vertex 1.372595e+00 2.745190e+00 5.490380e+00
      vertex 1.098076e+00 2.196152e+00 4.392304e+00
      vertex 1.647114e+00 1.647114e+00 4.941342e+00
    endloop
  endfacet
  facet normal -2.425356e-01 -9.701425e-01 0.000000e+00
    outer loop
      vertex 3.191891e-16 1.372595e+00 2.745190e+00
      vertex 1.098076e+00 1.098076e+00 2.196152e+00
      vertex 1.098076e+00 1.098076e+00 3.294228e+00
    endloop
  endfacet
  facet normal -4.082483e-01 -8.164966e-01 4.082483e-01
    outer loop
      vertex 3.191891e-16 1.372595e+00 2.745190e+00
      vertex 1.098076e+00 1.098076e+00 3.294228e+00
      vertex 5.490380e-01 1.647114e+00 3.843266e+00
    endloop
  endfacet
  facet normal 0.000000e+00 -9.701425e-01 2.425356e-01
    outer loop
      vertex 3.191891e-16 1.372595e+00 2.745190e+00
      vertex 5.490380e-01 1.647114e+00 3.843266e+00
      vertex -5.490380e-01 1.647114e+00 3.843266e+00
    endloop
  endfacet
  facet normal 4.082483e-01 -8.164966e-01 4.082483e-01
    outer loop
      vertex 3.191891e-16 1.372595e+00 2.745190e+00
      vertex -5.490380e-01 1.647114e+00 3.843266e+00
      vertex -1.098076e+00 1.098076e+00 3.294228e+00
    endloop
  endfacet
  facet normal 2.425356e-01 -9.701425e-01 0.000000e+00
    outer loop
      vertex 3.191891e-16 1.372595e+00 2.745190e+00
      vertex -1.098076e+00 1.098076e+00 3.294228e+00
      vertex -1.098076e+00 1.098076e+00 2.196152e+00
    endloop
  endfacet
  facet normal 4.082483e-01 -8.164966e-01 -4.082483e-01
    outer loop
      vertex 3.191891e-16 1.372595e+00 2.745190e+00
      vertex -1.098076e+00 1.098076e+00 2.196152e+00
      vertex -5.490380e-01 1.647114e+00 1.647114e+00
    endloop
  endfacet
  facet normal 0.000000e+00 -9.701425e-01 -2.425356e-01
    outer loop
      vertex 3.191891e-16 1.372595e+00 2.745190e+00
      vertex -5.490380e-01 1.647114e+00 1.647114e+00
      vertex 5.490380e-01 1.647114e+00 1.647114e+00
    endloop
  endfacet
  facet normal -4.082483e-01 -8.164966e-01 -4.082483e-01
    outer loop
      vertex 3.191891e-16 1.372595e+00 2.745190e+00
      vertex 5.490380e-01 1.647114e+00 1.647114e+00
      vertex 1.098076e+00 1.098076e+00 2.196152e+00
    endloop
  endfacet
  facet normal -9.701425e-01 0.000000e+00 -2.425356e-01
    outer loop
      vertex 1.372595e+00 2.745190e+00 1.804112e-16
      vertex 1.098076e+00 2.196152e+00 1.098076e+00
      vertex 1.098076e+00 3.294228e+00 1.098076e+00
    endloop
  endfacet
  facet normal -8.164966e-01 4.082483e-01 -4.082483e-01
    outer loop
      vertex 1.372595e+00 2.745190e+00 1.804112e-16
      vertex 1.098076e+00 3.294228e+00 1.098076e+00
      vertex 1.647114e+00 3.843266e+00 5.490380e-01
    endloop
  endfacet
  facet normal -9.701425e-01 2.425356e-01 1.786533e-16
    outer loop
      vertex 1.372595e+00 2.745190e+00 1.804112e-16
      vertex 1.647114e+00 3.843266e+00 5.490380e-01
      vertex 1.647114e+00 3.843266e+00 -5.490380e-01
    endloop
  endfacet
  facet normal -8.164966e-01 4.082483e-01 4.082483e-01
    outer loop
      vertex 1.372595e+00 2.745190e+00 1.804112e-16
      vertex 1.647114e+00 3.843266e+00 -5.490380e-01
      vertex 1.098076e+00 3.294228e+00 -1.098076e+00
    endloop
  endfacet
  facet normal -9.701425e-01 0.000000e+00 2.425356e-01
    outer loop
      vertex 1.372595e+00 2.745190e+00 1.804112e-16
      vertex 1.098076e+00 3.294228e+00 -1.098076e+00
      vertex 1.098076e+00 2.196152e+00 -1.098076e+00
    endloop
  endfacet
  facet normal -8.164966e-01 -4.082483e-01 4.082483e-01
    outer loop
      vertex 1.372595e+00 2.745190e+00 1.804112e-16
      vertex 1.098076e+00 2.196152e+00 -1.098076e+00
      vertex 1.647114e+00 1.647114e+00 -5.490380e-01
    endloop
  endfacet
  facet normal -9.701425e-01 -2.425356e-01 2.679799e-16
    outer loop
      vertex 1.372595e+00 2.745190e+00 1.804112e-16
      vertex 1.647114e+00 1.647114e+00 -5.490380e-01
      vertex 1.647114e+00 1.647114e+00 5.490380e-01
    endloop
  endfacet
  facet normal -8.164966e-01 -4.082483e-01 -4.082483e-01
    outer loop
      vertex 1.372595e+00 2.745190e+00 1.804112e-16
      vertex 1.647114e+00 1.647114e+00 5.490380e-01
      vertex 1.098076e+00 2.196152e+00 1.098076e+00
    endloop
  endfacet
  facet normal 0.000000e+00 -2.425356e-01 -9.701425e-01
    outer loop
      vertex 2.745190e+00 1.942890e-16 1.372595e+00
      vertex 2.196152e+00 1.098076e+00 1.098076e+00
      vertex 3.294228e+00 1.098076e+00 1.098076e+00
    endloop
  endfacet
  facet normal 4.082483e-01 -4.082483e-01 -8.164966e-01
    outer loop
      vertex 2.745190e+00 1.942890e-16 1.372595e+00
      vertex 3.294228e+00 1.098076e+00 1.098076e+00
      vertex 3.843266e+00 5.490380e-01 1.647114e+00
    endloop
  endfacet
  facet normal 2.425356e-01 0.000000e+00 -9.701425e-01
    outer loop
      vertex 2.745190e+00 1.942890e-16 1.372595e+00
      vertex 3.843266e+00 5.490380e-01 1.647114e+00
      vertex 3.843266e+00 -5.490380e-01 1.647114e+00
    endloop
  endfacet
  facet normal 4.082483e-01 4.082483e-01 -8.164966e-01
    outer loop
      vertex 2.745190e+00 1.942890e-16 1.372595e+00
      vertex 3.843266e+00 -5.490380e-01 1.647114e+00
      vertex 3.294228e+00 -1.098076e+00 1.098076e+00
    endloop
  endfacet
  facet normal 0.000000e+00 2.425356e-01 -9.701425e-01
    outer loop
      vertex 2.745190e+00 1.942890e-16 1.372595e+00
      vertex 3.294228e+00 -1.098076e+00 1.098076e+00
      vertex 2.196152e+00 -1.098076e+00 1.098076e+00
    endloop
  endfacet
  facet normal -4.082483e-01 4.082483e-01 -8.164966e-01
    outer loop
      vertex 2.745190e+00 1.942890e-16 1.372595e+00
      vertex 2.196152e+00 -1.098076e+00 1.098076e+00
      vertex 1.647114e+00 -5.490380e-01 1.647114e+00
    endloop
  endfacet
  facet normal -2.425356e-01 4.466332e-17 -9.701425e-01
    outer loop
      vertex 2.745190e+00 1.942890e-16 1.372595e+00
      vertex 1.647114e+00 -5.490380e-01 1.647114e+00
      vertex 1.647114e+00 5.490380e-01 1.647114e+00
    endloop
  endfacet
  facet normal -4.082483e-01 -4.082483e-01 -8.164966e-01
    outer loop
      vertex 2.745190e+00 1.942890e-16 1.372595e+00
      vertex 1.647114e+00 5.490380e-01 1.647114e+00
      vertex 2.196152e+00 1.098076e+00 1.098076e+00
    endloop
  endfacet
  facet normal 0.000000e+00 -2.425356e-01 9.701425e-01
    outer loop
      vertex 5.490380e+00 2.745190e+00 4.117785e+00
      vertex 4.941342e+00 1.647114e+00 3.843266e+00
      vertex 6.039418e+00 1.647114e+00 3.843266e+00
    endloop
  endfacet
  facet normal -4.082483e-01 -4.082483e-01 8.164966e-01
    outer loop
      vertex 5.490380e+00 2.745190e+00 4.117785e+00
      vertex 6.039418e+00 1.647114e+00 3.843266e+00
      vertex 6.588456e+00 2.196152e+00 4.392304e+00
    endloop
  endfacet
  facet normal -2.425356e-01 0.000000e+00 9.701425e-01
    outer loop
      vertex 5.490380e+00 2.745190e+00 4.117785e+00
      vertex 6.588456e+00 2.196152e+00 4.392304e+00
      vertex 6.588456e+00 3.294228e+00 4.392304e+00
    endloop
  endfacet
  facet normal -4.082483e-01 4.082483e-01 8.164966e-01
    outer loop
      vertex 5.490380e+00 2.745190e+00 4.117785e+00
      vertex 6.588456e+00 3.294228e+00 4.392304e+00
      vertex 6.039418e+00 3.843266e+00 3.843266e+00
    endloop
  endfacet
  facet normal 0.000000e+00 2.425356e-01 9.701425e-01
    outer loop
      vertex 5.490380e+00 2.745190e+00 4.117785e+00
      vertex 6.039418e+00 3.843266e+00 3.843266e+00
      vertex 4.941342e+00 3.843266e+00 3.843266e+00
    endloop
  endfacet
  facet normal 4.082483e-01 4.082483e-01 8.164966e-01
    outer loop
      vertex 5.490380e+00 2.745190e+00 4.117785e+00
      vertex 4.941342e+00 3.843266e+00 3.843266e+00
      vertex 4.392304e+00 3.294228e+00 4.392304e+00
    endloop
  endfacet
  facet normal 2.425356e-01 0.000000e+00 9.701425e-01
    outer loop
      vertex 5.490380e+00 2.745190e+00 4.117785e+00
      vertex 4.392304e+00 3.294228e+00 4.392304e+00
      vertex 4.392304e+00 2.196152e+00 4.392304e+00
    endloop
  endfacet
  facet normal 4.082483e-01 -4.082483e-01 8.164966e-01
    outer loop
      vertex 5.490380e+00 2.745190e+00 4.117785e+00
      vertex 4.392304e+00 2.196152e+00 4.392304e+00
      vertex 4.941342e+00 1.647114e+00 3.843266e+00
    endloop
  endfacet
  facet normal 0.000000e+00 9.701425e-01 -2.425356e-01
    outer loop
      vertex 3.885781e-16 4.117785e+00 2.745190e+00
      vertex 5.490380e-01 3.843266e+00 1.647114e+00
      vertex -5.490380e-01 3.843266e+00 1.647114e+00
    endloop
  endfacet
  facet normal 4.082483e-01 8.164966e-01 -4.082483e-01
    outer loop
      vertex 3.885781e-16 4.117785e+00 2.745190e+00
      vertex -5.490380e-01 3.843266e+00 1.647114e+00
      vertex -1.098076e+00 4.392304e+00 2.196152e+00
    endloop
  endfacet
  facet normal 2.425356e-01 9.701425e-01 0.000000e+00
    outer loop
      vertex 3.885781e-16 4.117785e+00 2.745190e+00
      vertex -1.098076e+00 4.392304e+00 2.196152e+00
      vertex -1.098076e+00 4.392304e+00 3.294228e+00
    endloop
  endfacet
  facet normal 4.082483e-01 8.164966e-01 4.082483e-01
    outer loop
      vertex 3.885781e-16 4.117785e+00 2.745190e+00
      vertex -1.098076e+00 4.392304e+00 3.294228e+00
      vertex -5.490380e-01 3.843266e+00 3.843266e+00
    endloop
  endfacet
  facet normal 0.000000e+00 9.701425e-01 2.425356e-01
    outer loop
      vertex 3.885781e-16 4.117785e+00 2.745190e+00
      vertex -5.490380e-01 3.843266e+00 3.843266e+00
      vertex 5.490380e-01 3.843266e+00 3.843266e+00
    endloop
  endfacet
  facet normal -4.082483e-01 8.164966e-01 4.082483e-01
    outer loop
      vertex 3.885781e-16 4.117785e+00 2.745190e+00
      vertex 5.490380e-01 3.843266e+00 3.843266e+00
      vertex 1.098076e+00 4.392304e+00 3.294228e+00
    endloop
  endfacet
  facet normal -2.425356e-01 9.701425e-01 0.000000e+00
    outer loop
      vertex 3.885781e-16 4.117785e+00 2.745190e+00
      vertex 1.098076e+00 4.392304e+00 3.294228e+00
      vertex 1.098076e+00 4.392304e+00 2.196152e+00
    endloop
  endfacet
  facet normal -4.082483e-01 8.164966e-01 -4.082483e-01
    outer loop
      vertex 3.885781e-16 4.117785e+00 2.745190e+00
      vertex 1.098076e+00 4.392304e+00 2.196152e+00
      vertex 5.490380e-01 3.843266e+00 1.647114e+00
    endloop
  endfacet
  facet normal 0.000000e+00 2.425356e-01 -9.701425e-01
    outer loop
      vertex 5.490380e+00 2.745190e+00 1.372595e+00
      vertex 4.941342e+00 3.843266e+00 1.647114e+00
      vertex 6.039418e+00 3.843266e+00 1.647114e+00
    endloop
  endfacet
  facet normal -4.082483e-01 4.082483e-01 -8.164966e-01
    outer loop
      vertex 5.490380e+00 2.745190e+00 1.372595e+00
      vertex 6.039418e+00 3.843266e+00 1.647114e+00
      vertex 6.588456e+00 3.294228e+00 1.098076e+00
    endloop
  endfacet
  facet normal -2.425356e-01 0.000000e+00 -9.701425e-01
    outer loop
      vertex 5.490380e+00 2.745190e+00 1.372595e+00
      vertex 6.588456e+00 3.294228e+00 1.098076e+00
      vertex 6.588456e+00 2.196152e+00 1.098076e+00
    endloop
  endfacet
  facet normal -4.082483e-01 -4.082483e-01 -8.164966e-01
    outer loop
      vertex 5.490380e+00 2.745190e+00 1.372595e+00
      vertex 6.588456e+00 2.196152e+00 1.098076e+00
      vertex 6.039418e+00 1.647114e+00 1.647114e+00
    endloop
  endfacet
  facet normal 0.000000e+00 -2.425356e-01 -9.701425e-01
    outer loop
      vertex 5.490380e+00 2.745190e+00 1.372595e+00
      vertex 6.039418e+00 1.647114e+00 1.647114e+00
      vertex 4.941342e+00 1.647114e+00 1.647114e+00
    endloop
  endfacet
  facet normal 4.082483e-01 -4.082483e-01 -8.164966e-01
    outer loop
      vertex 5.490380e+00 2.745190e+00 1.372595e+00
      vertex 4.941342e+00 1.647114e+00 1.647114e+00
      vertex 4.392304e+00 2.196152e+00 1.098076e+00
    endloop
  endfacet
  facet normal 2.425356e-01 0.000000e+00 -9.701425e-01
    outer loop
      vertex 5.490380e+00 2.745190e+00 1.372595e+00
      vertex 4.392304e+00 2.196152e+00 1.098076e+00
      vertex 4.392304e+00 3.294228e+00 1.098076e+00
    endloop
  endfacet
  facet normal 4.082483e-01 4.082483e-01 -8.164966e-01
    outer loop
      vertex 5.490380e+00 2.745190e+00 1.372595e+00
      vertex 4.392304e+00 3.294228e+00 1.098076e+00
      vertex 4.941342e+00 3.843266e+00 1.647114e+00
    endloop
  endfacet
  facet normal -2.425356e-01 4.466332e-17 9.701425e-01
    outer loop
      vertex 2.745190e+00 3.330669e-16 4.117785e+00
      vertex 1.647114e+00 5.490380e-01 3.843266e+00
      vertex 1.647114e+00 -5.490380e-01 3.843266e+00
    endloop
  endfacet
  facet normal -4.082483e-01 4.082483e-01 8.164966e-01
    outer loop
      vertex 2.745190e+00 3.330669e-16 4.117785e+00
      vertex 1.647114e+00 -5.490380e-01 3.843266e+00
      vertex 2.196152e+00 -1.098076e+00 4.392304e+00
    endloop
  endfacet
  facet normal 0.000000e+00 2.425356e-01 9.701425e-01
    outer loop
      vertex 2.745190e+00 3.330669e-16 4.117785e+00
      vertex 2.196152e+00 -1.098076e+00 4.392304e+00
      vertex 3.294228e+00 -1.098076e+00 4.392304e+00
    endloop
  endfacet
  facet normal 4.082483e-01 4.082483e-01 8.164966e-01
    outer loop
      vertex 2.745190e+00 3.330669e-16 4.117785e+00
      vertex 3.294228e+00 -1.098076e+00 4.392304e+00
      vertex 3.843266e+00 -5.490380e-01 3.843266e+00
    endloop
  endfacet
  facet normal 2.425356e-01 0.000000e+00 9.701425e-01
    outer loop
      vertex 2.745190e+00 3.330669e-16 4.117785e+00
      vertex 3.843266e+00 -5.490380e-01 3.843266e+00
      vertex 3.843266e+00 5.490380e-01 3.843266e+00
    endloop
  endfacet
  facet normal 4.082483e-01 -4.082483e-01 8.164966e-01
    outer loop
      vertex 2.745190e+00 3.330669e-16 4.117785e+00
      vertex 3.843266e+00 5.490380e-01 3.843266e+00
      vertex 3.294228e+00 1.098076e+00 4.392304e+00
    endloop
  endfacet
  facet normal 0.000000e+00 -2.425356e-01 9.701425e-01
    outer loop
      vertex 2.745190e+00 3.330669e-16 4.117785e+00
      vertex 3.294228e+00 1.098076e+00 4.392304e+00
      vertex 2.196152e+00 1.098076e+00 4.392304e+00
    endloop
  endfacet
  facet normal -4.082483e-01 -4.082483e-01 8.164966e-01
    outer loop
      vertex 2.745190e+00 3.330669e-16 4.117785e+00
      vertex 2.196152e+00 1.098076e+00 4.392304e+00
      vertex 1.647114e+00 5.490380e-01 3.843266e+00
    endloop
  endfacet
  facet normal -9.701425e-01 1.786533e-16 2.425356e-01
    outer loop
      vertex 1.372595e+00 5.490380e+00 2.745190e+00
      vertex 1.647114e+00 4.941342e+00 3.843266e+00
      vertex 1.647114e+00 6.039418e+00 3.843266e+00
    endloop
  endfacet
  facet normal -8.164966e-01 -4.082483e-01 4.082483e-01
    outer loop
      vertex 1.372595e+00 5.490380e+00 2.745190e+00
      vertex 1.647114e+00 6.039418e+00 3.843266e+00
      vertex 1.098076e+00 6.588456e+00 3.294228e+00
    endloop
  endfacet
  facet normal -9.701425e-01 -2.425356e-01 0.000000e+00
    outer loop
      vertex 1.372595e+00 5.490380e+00 2.745190e+00
      vertex 1.098076e+00 6.588456e+00 3.294228e+00
      vertex 1.098076e+00 6.588456e+00 2.196152e+00
    endloop
  endfacet
  facet normal -8.164966e-01 -4.082483e-01 -4.082483e-01
    outer loop
      vertex 1.372595e+00 5.490380e+00 2.745190e+00
      vertex 1.098076e+00 6.588456e+00 2.196152e+00
      vertex 1.647114e+00 6.039418e+00 1.647114e+00
    endloop
  endfacet
  facet normal -9.701425e-01 1.786533e-16 -2.425356e-01
    outer loop
      vertex 1.372595e+00 5.490380e+00 2.745190e+00
      vertex 1.647114e+00 6.039418e+00 1.647114e+00
      vertex 1.647114e+00 4.941342e+00 1.647114e+00
    endloop
  endfacet
  facet normal -8.164966e-01 4.082483e-01 -4.082483e-01
    outer loop
      vertex 1.372595e+00 5.490380e+00 2.745190e+00
      vertex 1.647114e+00 4.941342e+00 1.647114e+00
      vertex 1.098076e+00 4.392304e+00 2.196152e+00
    endloop
  endfacet
  facet normal -9.701425e-01 2.425356e-01 0.000000e+00
    outer loop
      vertex 1.372595e+00 5.490380e+00 2.745190e+00
      vertex 1.098076e+00 4.392304e+00 2.196152e+00
      vertex 1.098076e+00 4.392304e+00 3.294228e+00
    endloop
  endfacet
  facet normal -8.164966e-01 4.082483e-01 4.082483e-01
    outer loop
      vertex 1.372595e+00 5.490380e+00 2.745190e+00
      vertex 1.098076e+00 4.392304e+00 3.294228e+00
      vertex 1.647114e+00 4.941342e+00 3.843266e+00
    endloop
  endfacet
  facet normal -2.425356e-01 9.701425e-01 4.466332e-17
    outer loop
      vertex 2.745190e+00 4.117785e+00 5.490380e+00
      vertex 1.647114e+00 3.843266e+00 4.941342e+00
      vertex 1.647114e+00 3.843266e+00 6.039418e+00
    endloop
  endfacet
  facet normal -4.082483e-01 8.164966e-01 -4.082483e-01
    outer loop
      vertex 2.745190e+00 4.117785e+00 5.490380e+00
      vertex 1.647114e+00 3.843266e+00 6.039418e+00
      vertex 2.196152e+00 4.392304e+00 6.588456e+00
    endloop
  endfacet
  facet normal 0.000000e+00 9.701425e-01 -2.425356e-01
    outer loop
      vertex 2.745190e+00 4.117785e+00 5.490380e+00
      vertex 2.196152e+00 4.392304e+00 6.588456e+00
      vertex 3.294228e+00 4.392304e+00 6.588456e+00
    endloop
  endfacet
  facet normal 4.082483e-01 8.164966e-01 -4.082483e-01
    outer loop
      vertex 2.745190e+00 4.117785e+00 5.490380e+00
      vertex 3.294228e+00 4.392304e+00 6.588456e+00
      vertex 3.843266e+00 3.843266e+00 6.039418e+00
    endloop
  endfacet
  facet normal 2.425356e-01 9.701425e-01 0.000000e+00
    outer loop
      vertex 2.745190e+00 4.117785e+00 5.490380e+00
      vertex 3.843266e+00 3.843266e+00 6.039418e+00
      vertex 3.843266e+00 3.843266e+00 4.941342e+00
    endloop
  endfacet
  facet normal 4.082483e-01 8.164966e-01 4.082483e-01
    outer loop
      vertex 2.745190e+00 4.117785e+00 5.490380e+00
      vertex 3.843266e+00 3.843266e+00 4.941342e+00
      vertex 3.294228e+00 4.392304e+00 4.392304e+00
    endloop
  endfacet
  facet normal 0.000000e+00 9.701425e-01 2.425356e-01
    outer loop
      vertex 2.745190e+00 4.117785e+00 5.490380e+00
      vertex 3.294228e+00 4.392304e+00 4.392304e+00
      vertex 2.196152e+00 4.392304e+00 4.392304e+00
    endloop
  endfacet
  facet normal -4.082483e-01 8.164966e-01 4.082483e-01
    outer loop
      vertex 2.745190e+00 4.117785e+00 5.490380e+00
      vertex 2.196152e+00 4.392304e+00 4.392304e+00
      vertex 1.647114e+00 3.843266e+00 4.941342e+00
    endloop
  endfacet
  facet normal 9.701425e-01 0.000000e+00 -2.425356e-01
    outer loop
      vertex 4.117785e+00 5.490380e+00 2.745190e+00
      vertex 3.843266e+00 4.941342e+00 1.647114e+00
      vertex 3.843266e+00 6.039418e+00 1.647114e+00
    endloop
  endfacet
  facet normal 8.164966e-01 -4.082483e-01 -4.082483e-01
    outer loop
      vertex 4.117785e+00 5.490380e+00 2.745190e+00
      vertex 3.843266e+00 6.039418e+00 1.647114e+00
      vertex 4.392304e+00 6.588456e+00 2.196152e+00
    endloop
  endfacet
  facet normal 9.701425e-01 -2.425356e-01 0.000000e+00
    outer loop
      vertex 4.117785e+00 5.490380e+00 2.745190e+00
      vertex 4.392304e+00 6.588456e+00 2.196152e+00
      vertex 4.392304e+00 6.588456e+00 3.294228e+00
    endloop
  endfacet
  facet normal 8.164966e-01 -4.082483e-01 4.082483e-01
    outer loop
      vertex 4.117785e+00 5.490380e+00 2.745190e+00
      vertex 4.392304e+00 6.588456e+00 3.294228e+00
      vertex 3.843266e+00 6.039418e+00 3.843266e+00
    endloop
  endfacet
  facet normal 9.701425e-01 0.000000e+00 2.425356e-01
    outer loop
      vertex 4.117785e+00 5.490380e+00 2.745190e+00
      vertex 3.843266e+00 6.039418e+00 3.843266e+00
      vertex 3.843266e+00 4.941342e+00 3.843266e+00
    endloop
  endfacet
  facet normal 8.164966e-01 4.082483e-01 4.082483e-01
    outer loop
      vertex 4.117785e+00 5.490380e+00 2.745190e+00
      vertex 3.843266e+00 4.941342e+00 3.843266e+00
      vertex 4.392304e+00 4.392304e+00 3.294228e+00
    endloop
  endfacet
  facet normal 9.701425e-01 2.425356e-01 0.000000e+00
    outer loop
      vertex 4.117785e+00 5.490380e+00 2.745190e+00
      vertex 4.392304e+00 4.392304e+00 3.294228e+00
      vertex 4.392304e+00 4.392304e+00 2.196152e+00
    endloop
  endfacet
  facet normal 8.164966e-01 4.082483e-01 -4.082483e-01
    outer loop
      vertex 4.117785e+00 5.490380e+00 2.745190e+00
      vertex 4.392304e+00 4.392304e+00 2.196152e+00
      vertex 3.843266e+00 4.941342e+00 1.647114e+00
    endloop
  endfacet
  facet normal 9.701425e-01 -2.425356e-01 4.466332e-17
    outer loop
      vertex 4.117785e+00 2.745190e+00 1.665335e-16
      vertex 3.843266e+00 1.647114e+00 5.490380e-01
      vertex 3.843266e+00 1.647114e+00 -5.490380e-01
    endloop
  endfacet
  facet normal 8.164966e-01 -4.082483e-01 4.082483e-01
    outer loop
      vertex 4.117785e+00 2.745190e+00 1.665335e-16
      vertex 3.843266e+00 1.647114e+00 -5.490380e-01
      vertex 4.392304e+00 2.196152e+00 -1.098076e+00
    endloop
  endfacet
  facet normal 9.701425e-01 0.000000e+00 2.425356e-01
    outer loop
      vertex 4.117785e+00 2.745190e+00 1.665335e-16
      vertex 4.392304e+00 2.196152e+00 -1.098076e+00
      vertex 4.392304e+00 3.294228e+00 -1.098076e+00
    endloop
  endfacet
  facet normal 8.164966e-01 4.082483e-01 4.082483e-01
    outer loop
      vertex 4.117785e+00 2.745190e+00 1.665335e-16
      vertex 4.392304e+00 3.294228e+00 -1.098076e+00
      vertex 3.843266e+00 3.843266e+00 -5.490380e-01
    endloop
  endfacet
  facet normal 9.701425e-01 2.425356e-01 0.000000e+00
    outer loop
      vertex 4.117785e+00 2.745190e+00 1.665335e-16
      vertex 3.843266e+00 3.843266e+00 -5.490380e-01
      vertex 3.843266e+00 3.843266e+00 5.490380e-01
    endloop
  endfacet
  facet normal 8.164966e-01 4.082483e-01 -4.082483e-01
    outer loop
      vertex 4.117785e+00 2.745190e+00 1.665335e-16
      vertex 3.843266e+00 3.843266e+00 5.490380e-01
      vertex 4.392304e+00 3.294228e+00 1.098076e+00
    endloop
  endfacet
  facet normal 9.701425e-01 0.000000e+00 -2.425356e-01
    outer loop
      vertex 4.117785e+00 2.745190e+00 1.665335e-16
      vertex 4.392304e+00 3.294228e+00 1.098076e+00
      vertex 4.392304e+00 2.196152e+00 1.098076e+00
    endloop
  endfacet
  facet normal 8.164966e-01 -4.082483e-01 -4.082483e-01
    outer loop
      vertex 4.117785e+00 2.745190e+00 1.665335e-16
      vertex 4.392304e+00 2.196152e+00 1.098076e+00
      vertex 3.843266e+00 1.647114e+00 5.490380e-01
    endloop
  endfacet
  facet normal 2.425356e-01 -9.701425e-01 2.233166e-16
    outer loop
      vertex 2.745190e+00 1.372595e+00 5.490380e+00
      vertex 3.843266e+00 1.647114e+00 4.941342e+00
      vertex 3.843266e+00 1.647114e+00 6.039418e+00
    endloop
  endfacet
  facet normal 4.082483e-01 -8.164966e-01 -4.082483e-01
    outer loop
      vertex 2.745190e+00 1.372595e+00 5.490380e+00
      vertex 3.843266e+00 1.647114e+00 6.039418e+00
      vertex 3.294228e+00 1.098076e+00 6.588456e+00
    endloop
  endfacet
  facet normal 0.000000e+00 -9.701425e-01 -2.425356e-01
    outer loop
      vertex 2.745190e+00 1.372595e+00 5.490380e+00
      vertex 3.294228e+00 1.098076e+00 6.588456e+00
      vertex 2.196152e+00 1.098076e+00 6.588456e+00
    endloop
  endfacet
  facet normal -4.082483e-01 -8.164966e-01 -4.082483e-01
    outer loop
      vertex 2.745190e+00 1.372595e+00 5.490380e+00
      vertex 2.196152e+00 1.098076e+00 6.588456e+00
      vertex 1.647114e+00 1.647114e+00 6.039418e+00
    endloop
  endfacet
  facet normal -2.425356e-01 -9.701425e-01 2.233166e-16
    outer loop
      vertex 2.745190e+00 1.372595e+00 5.490380e+00
      vertex 1.647114e+00 1.647114e+00 6.039418e+00
      vertex 1.647114e+00 1.647114e+00 4.941342e+00
    endloop
  endfacet
  facet normal -4.082483e-01 -8.164966e-01 4.082483e-01
    outer loop
      vertex 2.745190e+00 1.372595e+00 5.490380e+00
      vertex 1.647114e+00 1.647114e+00 4.941342e+00
      vertex 2.196152e+00 1.098076e+00 4.392304e+00
    endloop
  endfacet
  facet normal 0.000000e+00 -9.701425e-01 2.425356e-01
    outer loop
      vertex 2.745190e+00 1.372595e+00 5.490380e+00
      vertex 2.196152e+00 1.098076e+00 4.392304e+00
      vertex 3.294228e+00 1.098076e+00 4.392304e+00
    endloop
  endfacet
  facet normal 4.082483e-01 -8.164966e-01 4.082483e-01
    outer loop
      vertex 2.745190e+00 1.372595e+00 5.490380e+00
      vertex 3.294228e+00 1.098076e+00 4.392304e+00
      vertex 3.843266e+00 1.647114e+00 4.941342e+00
    endloop
  endfacet
  facet normal -2.425356e-01 0.000000e+00 9.701425e-01
    outer loop
      vertex 3.885781e-16 2.745190e+00 4.117785e+00
      vertex 1.098076e+00 2.196152e+00 4.392304e+00
      vertex 1.098076e+00 3.294228e+00 4.392304e+00
    endloop
  endfacet
  facet normal -4.082483e-01 4.082483e-01 8.164966e-01
    outer loop
      vertex 3.885781e-16 2.745190e+00 4.117785e+00
      vertex 1.098076e+00 3.294228e+00 4.392304e+00
      vertex 5.490380e-01 3.843266e+00 3.843266e+00
    endloop
  endfacet
  facet normal 0.000000e+00 2.425356e-01 9.701425e-01
    outer loop
      vertex 3.885781e-16 2.745190e+00 4.117785e+00
      vertex 5.490380e-01 3.843266e+00 3.843266e+00
      vertex -5.490380e-01 3.843266e+00 3.843266e+00
    endloop
  endfacet
  facet normal 4.082483e-01 4.082483e-01 8.164966e-01
    outer loop
      vertex 3.885781e-16 2.745190e+00 4.117785e+00
      vertex -5.490380e-01 3.843266e+00 3.843266e+00
      vertex -1.098076e+00 3.294228e+00 4.392304e+00
    endloop
  endfacet
  facet normal 2.425356e-01 0.000000e+00 9.701425e-01
    outer loop
      vertex 3.885781e-16 2.745190e+00 4.117785e+00
      vertex -1.098076e+00 3.294228e+00 4.392304e+00
      vertex -1.098076e+00 2.196152e+00 4.392304e+00
    endloop
  endfacet
  facet normal 4.082483e-01 -4.082483e-01 8.164966e-01
    outer loop
      vertex 3.885781e-16 2.745190e+00 4.117785e+00
      vertex -1.098076e+00 2.196152e+00 4.392304e+00
      vertex -5.490380e-01 1.647114e+00 3.843266e+00
    endloop
  endfacet
  facet normal 0.000000e+00 -2.425356e-01 9.701425e-01
    outer loop
      vertex 3.885781e-16 2.745190e+00 4.117785e+00
      vertex -5.490380e-01 1.647114e+00 3.843266e+00
      vertex 5.490380e-01 1.647114e+00 3.843266e+00
    endloop
  endfacet
  facet normal -4.082483e-01 -4.082483e-01 8.164966e-01
    outer loop
      vertex 3.885781e-16 2.745190e+00 4.117785e+00
      vertex 5.490380e-01 1.647114e+00 3.843266e+00
      vertex 1.098076e+00 2.196152e+00 4.392304e+00
    endloop
  endfacet
  facet normal 0.000000e+00 9.701425e-01 -2.425356e-01
    outer loop
      vertex 2.745190e+00 4.117785e+00 1.804112e-16
      vertex 2.196152e+00 4.392304e+00 1.098076e+00
      vertex 3.294228e+00 4.392304e+00 1.098076e+00
    endloop
  endfacet
  facet normal 4.082483e-01 8.164966e-01 -4.082483e-01
    outer loop
      vertex 2.745190e+00 4.117785e+00 1.804112e-16
      vertex 3.294228e+00 4.392304e+00 1.098076e+00
      vertex 3.843266e+00 3.843266e+00 5.490380e-01
    endloop
  endfacet
  facet normal 2.425356e-01 9.701425e-01 0.000000e+00
    outer loop
      vertex 2.745190e+00 4.117785e+00 1.804112e-16
      vertex 3.843266e+00 3.843266e+00 5.490380e-01
      vertex 3.843266e+00 3.843266e+00 -5.490380e-01
    endloop
  endfacet
  facet normal 4.082483e-01 8.164966e-01 4.082483e-01
    outer loop
      vertex 2.745190e+00 4.117785e+00 1.804112e-16
      vertex 3.843266e+00 3.843266e+00 -5.490380e-01
      vertex 3.294228e+00 4.392304e+00 -1.098076e+00
    endloop
  endfacet
  facet normal 0.000000e+00 9.701425e-01 2.425356e-01
    outer loop
      vertex 2.745190e+00 4.117785e+00 1.804112e-16
      vertex 3.294228e+00 4.392304e+00 -1.098076e+00
      vertex 2.196152e+00 4.392304e+00 -1.098076e+00
    endloop
  endfacet
  facet normal -4.082483e-01 8.164966e-01 4.082483e-01
    outer loop
      vertex 2.745190e+00 4.117785e+00 1.804112e-16
      vertex 2.196152e+00 4.392304e+00 -1.098076e+00
      vertex 1.647114e+00 3.843266e+00 -5.490380e-01
    endloop
  endfacet
  facet normal -2.425356e-01 9.701425e-01 8.932663e-17
    outer loop
      vertex 2.745190e+00 4.117785e+00 1.804112e-16
      vertex 1.647114e+00 3.843266e+00 -5.490380e-01
      vertex 1.647114e+00 3.843266e+00 5.490380e-01
    endloop
  endfacet
  facet normal -4.082483e-01 8.164966e-01 -4.082483e-01
    outer loop
      vertex 2.745190e+00 4.117785e+00 1.804112e-16
      vertex 1.647114e+00 3.843266e+00 5.490380e-01
      vertex 2.196152e+00 4.392304e+00 1.098076e+00
    endloop
  endfacet
  facet normal 9.701425e-01 -2.425356e-01 0.000000e+00
    outer loop
      vertex 4.117785e+00 3.053113e-16 2.745190e+00
      vertex 4.392304e+00 1.098076e+00 2.196152e+00
      vertex 4.392304e+00 1.098076e+00 3.294228e+00
    endloop
  endfacet
  facet normal 8.164966e-01 -4.082483e-01 4.082483e-01
    outer loop
      vertex 4.117785e+00 3.053113e-16 2.745190e+00
      vertex 4.392304e+00 1.098076e+00 3.294228e+00
      vertex 3.843266e+00 5.490380e-01 3.843266e+00
    endloop
  endfacet
  facet normal 9.701425e-01 0.000000e+00 2.425356e-01
    outer loop
      vertex 4.117785e+00 3.053113e-16 2.745190e+00
      vertex 3.843266e+00 5.490380e-01 3.843266e+00
      vertex 3.843266e+00 -5.490380e-01 3.843266e+00
    endloop
  endfacet
  facet normal 8.164966e-01 4.082483e-01 4.082483e-01
    outer loop
      vertex 4.117785e+00 3.053113e-16 2.745190e+00
      vertex 3.843266e+00 -5.490380e-01 3.843266e+00
      vertex 4.392304e+00 -1.098076e+00 3.294228e+00
    endloop
  endfacet
  facet normal 9.701425e-01 2.425356e-01 0.000000e+00
    outer loop
      vertex 4.117785e+00 3.053113e-16 2.745190e+00
      vertex 4.392304e+00 -1.098076e+00 3.294228e+00
      vertex 4.392304e+00 -1.098076e+00 2.196152e+00
    endloop
  endfacet
  facet normal 8.164966e-01 4.082483e-01 -4.082483e-01
    outer loop
      vertex 4.117785e+00 3.053113e-16 2.745190e+00
      vertex 4.392304e+00 -1.098076e+00 2.196152e+00
      vertex 3.843266e+00 -5.490380e-01 1.647114e+00
    endloop
  endfacet
  facet normal 9.701425e-01 0.000000e+00 -2.425356e-01
    outer loop
      vertex 4.117785e+00 3.053113e-16 2.745190e+00
      vertex 3.843266e+00 -5.490380e-01 1.647114e+00
      vertex 3.843266e+00 5.490380e-01 1.647114e+00
    endloop
  endfacet
  facet normal 8.164966e-01 -4.082483e-01 -4.082483e-01
    outer loop
      vertex 4.117785e+00 3.053113e-16 2.745190e+00
      vertex 3.843266e+00 5.490380e-01 1.647114e+00
      vertex 4.392304e+00 1.098076e+00 2.196152e+00
    endloop
  endfacet
  facet normal 0.000000e+00 9.701425e-01 2.425356e-01
    outer loop
      vertex 5.490380e+00 4.117785e+00 2.745190e+00
      vertex 4.941342e+00 3.843266e+00 3.843266e+00
      vertex 6.039418e+00 3.843266e+00 3.843266e+00
    endloop
  endfacet
  facet normal -4.082483e-01 8.164966e-01 4.082483e-01
    outer loop
      vertex 5.490380e+00 4.117785e+00 2.745190e+00
      vertex 6.039418e+00 3.843266e+00 3.843266e+00
      vertex 6.588456e+00 4.392304e+00 3.294228e+00
    endloop
  endfacet
  facet normal -2.425356e-01 9.701425e-01 0.000000e+00
    outer loop
      vertex 5.490380e+00 4.117785e+00 2.745190e+00
      vertex 6.588456e+00 4.392304e+00 3.294228e+00
      vertex 6.588456e+00 4.392304e+00 2.196152e+00
    endloop
  endfacet
  facet normal -4.082483e-01 8.164966e-01 -4.082483e-01
    outer loop
      vertex 5.490380e+00 4.117785e+00 2.745190e+00
      vertex 6.588456e+00 4.392304e+00 2.196152e+00
      vertex 6.039418e+00 3.843266e+00 1.647114e+00
    endloop
  endfacet
  facet normal 0.000000e+00 9.701425e-01 -2.425356e-01
    outer loop
      vertex 5.490380e+00 4.117785e+00 2.745190e+00
      vertex 6.039418e+00 3.843266e+00 1.647114e+00
      vertex 4.941342e+00 3.843266e+00 1.647114e+00
    endloop
  endfacet
  facet normal 4.082483e-01 8.164966e-01 -4.082483e-01
    outer loop
      vertex 5.490380e+00 4.117785e+00 2.745190e+00
      vertex 4.941342e+00 3.843266e+00 1.647114e+00
      vertex 4.392304e+00 4.392304e+00 2.196152e+00
    endloop
  endfacet
  facet normal 2.425356e-01 9.701425e-01 0.000000e+00
    outer loop
      vertex 5.490380e+00 4.117785e+00 2.745190e+00
      vertex 4.392304e+00 4.392304e+00 2.196152e+00
      vertex 4.392304e+00 4.392304e+00 3.294228e+00
    endloop
  endfacet
  facet normal 4.082483e-01 8.164966e-01 4.082483e-01
    outer loop
      vertex 5.490380e+00 4.117785e+00 2.745190e+00
      vertex 4.392304e+00 4.392304e+00 3.294228e+00
      vertex 4.941342e+00 3.843266e+00 3.843266e+00
    endloop
  endfacet
  facet normal 2.425356e-01 0.000000e+00 9.701425e-01
    outer loop
      vertex 2.745190e+00 5.490380e+00 4.117785e+00
      vertex 3.843266e+00 4.941342e+00 3.843266e+00
      vertex 3.843266e+00 6.039418e+00 3.843266e+00
    endloop
  endfacet
  facet normal 4.082483e-01 -4.082483e-01 8.164966e-01
    outer loop
      vertex 2.745190e+00 5.490380e+00 4.117785e+00
      vertex 3.843266e+00 6.039418e+00 3.843266e+00
      vertex 3.294228e+00 6.588456e+00 4.392304e+00
    endloop
  endfacet
  facet normal 0.000000e+00 -2.425356e-01 9.701425e-01
    outer loop
      vertex 2.745190e+00 5.490380e+00 4.117785e+00
      vertex 3.294228e+00 6.588456e+00 4.392304e+00
      vertex 2.196152e+00 6.588456e+00 4.392304e+00
    endloop
  endfacet
  facet normal -4.082483e-01 -4.082483e-01 8.164966e-01
    outer loop
      vertex 2.745190e+00 5.490380e+00 4.117785e+00
      vertex 2.196152e+00 6.588456e+00 4.392304e+00
      vertex 1.647114e+00 6.039418e+00 3.843266e+00
    endloop
  endfacet
  facet normal -2.425356e-01 4.466332e-17 9.701425e-01
    outer loop
      vertex 2.745190e+00 5.490380e+00 4.117785e+00
      vertex 1.647114e+00 6.039418e+00 3.843266e+00
      vertex 1.647114e+00 4.941342e+00 3.843266e+00
    endloop
  endfacet
  facet normal -4.082483e-01 4.082483e-01 8.164966e-01
    outer loop
      vertex 2.745190e+00 5.490380e+00 4.117785e+00
      vertex 1.647114e+00 4.941342e+00 3.843266e+00
      vertex 2.196152e+00 4.392304e+00 4.392304e+00
    endloop
  endfacet
  facet normal 0.000000e+00 2.425356e-01 9.701425e-01
    outer loop
      vertex 2.745190e+00 5.490380e+00 4.117785e+00
      vertex 2.196152e+00 4.392304e+00 4.392304e+00
      vertex 3.294228e+00 4.392304e+00 4.392304e+00
    endloop
  endfacet
  facet normal 4.082483e-01 4.082483e-01 8.164966e-01
    outer loop
      vertex 2.745190e+00 5.490380e+00 4.117785e+00
      vertex 3.294228e+00 4.392304e+00 4.392304e+00
      vertex 3.843266e+00 4.941342e+00 3.843266e+00
    endloop
  endfacet
  facet normal 9.701425e-01 2.425356e-01 0.000000e+00
    outer loop
      vertex 4.117785e+00 2.745190e+00 5.490380e+00
      vertex 3.843266e+00 3.843266e+00 4.941342e+00
      vertex 3.843266e+00 3.843266e+00 6.039418e+00
    endloop
  endfacet
  facet normal 8.164966e-01 4.082483e-01 -4.082483e-01
    outer loop
      vertex 4.117785e+00 2.745190e+00 5.490380e+00
      vertex 3.843266e+00 3.843266e+00 6.039418e+00
      vertex 4.392304e+00 3.294228e+00 6.588456e+00
    endloop
  endfacet
  facet normal 9.701425e-01 0.000000e+00 -2.425356e-01
    outer loop
      vertex 4.117785e+00 2.745190e+00 5.490380e+00
      vertex 4.392304e+00 3.294228e+00 6.588456e+00
      vertex 4.392304e+00 2.196152e+00 6.588456e+00
    endloop
  endfacet
  facet normal 8.164966e-01 -4.082483e-01 -4.082483e-01
    outer loop
      vertex 4.117785e+00 2.745190e+00 5.490380e+00
      vertex 4.392304e+00 2.196152e+00 6.588456e+00
      vertex 3.843266e+00 1.647114e+00 6.039418e+00
    endloop
  endfacet
  facet normal 9.701425e-01 -2.425356e-01 4.466332e-17
    outer loop
      vertex 4.117785e+00 2.745190e+00 5.490380e+00
      vertex 3.843266e+00 1.647114e+00 6.039418e+00
      vertex 3.843266e+00 1.647114e+00 4.941342e+00
    endloop
  endfacet
  facet normal 8.164966e-01 -4.082483e-01 4.082483e-01
    outer loop
      vertex 4.117785e+00 2.745190e+00 5.490380e+00
      vertex 3.843266e+00 1.647114e+00 4.941342e+00
      vertex 4.392304e+00 2.196152e+00 4.392304e+00
    endloop
  endfacet
  facet normal 9.701425e-01 0.000000e+00 2.425356e-01
    outer loop
      vertex 4.117785e+00 2.745190e+00 5.490380e+00
      vertex 4.392304e+00 2.196152e+00 4.392304e+00
      vertex 4.392304e+00 3.294228e+00 4.392304e+00
    endloop
  endfacet
  facet normal 8.164966e-01 4.082483e-01 4.082483e-01
    outer loop
      vertex 4.117785e+00 2.745190e+00 5.490380e+00
      vertex 4.392304e+00 3.294228e+00 4.392304e+00
      vertex 3.843266e+00 3.843266e+00 4.941342e+00
    endloop
  endfacet
  facet normal -4.082483e-01 -8.164966e-01 -4.082483e-01
    outer loop
      vertex 1.372595e+00 1.372595e+00 1.372595e+00
      vertex 1.098076e+00 1.098076e+00 2.196152e+00
      vertex 5.490380e-01 1.647114e+00 1.647114e+00
    endloop
  endfacet
  facet normal -4.082483e-01 -4.082483e-01 -8.164966e-01
    outer loop
      vertex 1.372595e+00 1.372595e+00 1.372595e+00
      vertex 5.490380e-01 1.647114e+00 1.647114e+00
      vertex 1.098076e+00 2.196152e+00 1.098076e+00
    endloop
  endfacet
  facet normal -8.164966e-01 -4.082483e-01 -4.082483e-01
    outer loop
      vertex 1.372595e+00 1.372595e+00 1.372595e+00
      vertex 1.098076e+00 2.196152e+00 1.098076e+00
      vertex 1.647114e+00 1.647114e+00 5.490380e-01
    endloop
  endfacet
  facet normal -4.082483e-01 -8.164966e-01 -4.082483e-01
    outer loop
      vertex 1.372595e+00 1.372595e+00 1.372595e+00
      vertex 1.647114e+00 1.647114e+00 5.490380e-01
      vertex 2.196152e+00 1.098076e+00 1.098076e+00
    endloop
  endfacet
  facet normal -4.082483e-01 -4.082483e-01 -8.164966e-01
    outer loop
      vertex 1.372595e+00 1.372595e+00 1.372595e+00
      vertex 2.196152e+00 1.098076e+00 1.098076e+00
      vertex 1.647114e+00 5.490380e-01 1.647114e+00
    endloop
  endfacet
  facet normal -8.164966e-01 -4.082483e-01 -4.082483e-01
    outer loop
      vertex 1.372595e+00 1.372595e+00 1.372595e+00
      vertex 1.647114e+00 5.490380e-01 1.647114e+00
      vertex 1.098076e+00 1.098076e+00 2.196152e+00
    endloop
  endfacet
  facet normal -4.082483e-01 -8.164966e-01 4.082483e-01
    outer loop
      vertex 1.372595e+00 1.372595e+00 4.117785e+00
      vertex 5.490380e-01 1.647114e+00 3.843266e+00
      vertex 1.098076e+00 1.098076e+00 3.294228e+00
    endloop
  endfacet
  facet normal -8.164966e-01 -4.082483e-01 4.082483e-01
    outer loop
      vertex 1.372595e+00 1.372595e+00 4.117785e+00
      vertex 1.098076e+00 1.098076e+00 3.294228e+00
      vertex 1.647114e+00 5.490380e-01 3.843266e+00
    endloop
  endfacet
  facet normal -4.082483e-01 -4.082483e-01 8.164966e-01
    outer loop
      vertex 1.372595e+00 1.372595e+00 4.117785e+00
      vertex 1.647114e+00 5.490380e-01 3.843266e+00
      vertex 2.196152e+00 1.098076e+00 4.392304e+00
    endloop
  endfacet
  facet normal -4.082483e-01 -8.164966e-01 4.082483e-01
    outer loop
      vertex 1.372595e+00 1.372595e+00 4.117785e+00
      vertex 2.196152e+00 1.098076e+00 4.392304e+00
      vertex 1.647114e+00 1.647114e+00 4.941342e+00
    endloop
  endfacet
  facet normal -8.164966e-01 -4.082483e-01 4.082483e-01
    outer loop
      vertex 1.372595e+00 1.372595e+00 4.117785e+00
      vertex 1.647114e+00 1.647114e+00 4.941342e+00
      vertex 1.098076e+00 2.196152e+00 4.392304e+00
    endloop
  endfacet
  facet normal -4.082483e-01 -4.082483e-01 8.164966e-01
    outer loop
      vertex 1.372595e+00 1.372595e+00 4.117785e+00
      vertex 1.098076e+00 2.196152e+00 4.392304e+00
      vertex 5.490380e-01 1.647114e+00 3.843266e+00
    endloop
  endfacet
  facet normal -4.082483e-01 4.082483e-01 -8.164966e-01
    outer loop
      vertex 1.372595e+00 4.117785e+00 1.372595e+00
      vertex 1.098076e+00 3.294228e+00 1.098076e+00
      vertex 5.490380e-01 3.843266e+00 1.647114e+00
    endloop
  endfacet
  facet normal -4.082483e-01 8.164966e-01 -4.082483e-01
    outer loop
      vertex 1.372595e+00 4.117785e+00 1.372595e+00
      vertex 5.490380e-01 3.843266e+00 1.647114e+00
      vertex 1.098076e+00 4.392304e+00 2.196152e+00
    endloop
  endfacet
  facet normal -8.164966e-01 4.082483e-01 -4.082483e-01
    outer loop
      vertex 1.372595e+00 4.117785e+00 1.372595e+00
      vertex 1.098076e+00 4.392304e+00 2.196152e+00
      vertex 1.647114e+00 4.941342e+00 1.647114e+00
    endloop
  endfacet
  facet normal -4.082483e-01 4.082483e-01 -8.164966e-01
    outer loop
      vertex 1.372595e+00 4.117785e+00 1.372595e+00
      vertex 1.647114e+00 4.941342e+00 1.647114e+00
      vertex 2.196152e+00 4.392304e+00 1.098076e+00
    endloop
  endfacet
  facet normal -4.082483e-01 8.164966e-01 -4.082483e-01
    outer loop
      vertex 1.372595e+00 4.117785e+00 1.372595e+00
      vertex 2.196152e+00 4.392304e+00 1.098076e+00
      vertex 1.647114e+00 3.843266e+00 5.490380e-01
    endloop
  endfacet
  facet normal -8.164966e-01 4.082483e-01 -4.082483e-01
    outer loop
      vertex 1.372595e+00 4.117785e+00 1.372595e+00
      vertex 1.647114e+00 3.843266e+00 5.490380e-01
      vertex 1.098076e+00 3.294228e+00 1.098076e+00
    endloop
  endfacet
  facet normal 4.082483e-01 -4.082483e-01 -8.164966e-01
    outer loop
      vertex 4.117785e+00 1.372595e+00 1.372595e+00
      vertex 3.843266e+00 5.490380e-01 1.647114e+00
      vertex 3.294228e+00 1.098076e+00 1.098076e+00
    endloop
  endfacet
  facet normal 4.082483e-01 -8.164966e-01 -4.082483e-01
    outer loop
      vertex 4.117785e+00 1.372595e+00 1.372595e+00
      vertex 3.294228e+00 1.098076e+00 1.098076e+00
      vertex 3.843266e+00 1.647114e+00 5.490380e-01
    endloop
  endfacet
  facet normal 8.164966e-01 -4.082483e-01 -4.082483e-01
    outer loop
      vertex 4.117785e+00 1.372595e+00 1.372595e+00
      vertex 3.843266e+00 1.647114e+00 5.490380e-01
      vertex 4.392304e+00 2.196152e+00 1.098076e+00
    endloop
  endfacet
  facet normal 4.082483e-01 -4.082483e-01 -8.164966e-01
    outer loop
      vertex 4.117785e+00 1.372595e+00 1.372595e+00
      vertex 4.392304e+00 2.196152e+00 1.098076e+00
      vertex 4.941342e+00 1.647114e+00 1.647114e+00
    endloop
  endfacet
  facet normal 4.082483e-01 -8.164966e-01 -4.082483e-01
    outer loop
      vertex 4.117785e+00 1.372595e+00 1.372595e+00
      vertex 4.941342e+00 1.647114e+00 1.647114e+00
      vertex 4.392304e+00 1.098076e+00 2.196152e+00
    endloop
  endfacet
  facet normal 8.164966e-01 -4.082483e-01 -4.082483e-01
    outer loop
      vertex 4.117785e+00 1.372595e+00 1.372595e+00
      vertex 4.392304e+00 1.098076e+00 2.196152e+00
      vertex 3.843266e+00 5.490380e-01 1.647114e+00
    endloop
  endfacet
  facet normal -4.082483e-01 4.082483e-01 8.164966e-01
    outer loop
      vertex 1.372595e+00 4.117785e+00 4.117785e+00
      vertex 5.490380e-01 3.843266e+00 3.843266e+00
      vertex 1.098076e+00 3.294228e+00 4.392304e+00
    endloop
  endfacet
  facet normal -8.164966e-01 4.082483e-01 4.082483e-01
    outer loop
      vertex 1.372595e+00 4.117785e+00 4.117785e+00
      vertex 1.098076e+00 3.294228e+00 4.392304e+00
      vertex 1.647114e+00 3.843266e+00 4.941342e+00
    endloop
  endfacet
  facet normal -4.082483e-01 8.164966e-01 4.082483e-01
    outer loop
      vertex 1.372595e+00 4.117785e+00 4.117785e+00
      vertex 1.647114e+00 3.843266e+00 4.941342e+00
      vertex 2.196152e+00 4.392304e+00 4.392304e+00
    endloop
  endfacet
  facet normal -4.082483e-01 4.082483e-01 8.164966e-01
    outer loop
      vertex 1.372595e+00 4.117785e+00 4.117785e+00
      vertex 2.196152e+00 4.392304e+00 4.392304e+00
      vertex 1.647114e+00 4.941342e+00 3.843266e+00
    endloop
  endfacet
  facet normal -8.164966e-01 4.082483e-01 4.082483e-01
    outer loop
      vertex 1.372595e+00 4.117785e+00 4.117785e+00
      vertex 1.647114e+00 4.941342e+00 3.843266e+00
      vertex 1.098076e+00 4.392304e+00 3.294228e+00
    endloop
  endfacet
  facet normal -4.082483e-01 8.164966e-01 4.082483e-01
    outer loop
      vertex 1.372595e+00 4.117785e+00 4.117785e+00
      vertex 1.098076e+00 4.392304e+00 3.294228e+00
      vertex 5.490380e-01 3.843266e+00 3.843266e+00
    endloop
  endfacet
  facet normal 4.082483e-01 -4.082483e-01 8.164966e-01
    outer loop
      vertex 4.117785e+00 1.372595e+00 4.117785e+00
      vertex 3.294228e+00 1.098076e+00 4.392304e+00
      vertex 3.843266e+00 5.490380e-01 3.843266e+00
    endloop
  endfacet
  facet normal 8.164966e-01 -4.082483e-01 4.082483e-01
    outer loop
      vertex 4.117785e+00 1.372595e+00 4.117785e+00
      vertex 3.843266e+00 5.490380e-01 3.843266e+00
      vertex 4.392304e+00 1.098076e+00 3.294228e+00
    endloop
  endfacet
  facet normal 4.082483e-01 -8.164966e-01 4.082483e-01
    outer loop
      vertex 4.117785e+00 1.372595e+00 4.117785e+00
      vertex 4.392304e+00 1.098076e+00 3.294228e+00
      vertex 4.941342e+00 1.647114e+00 3.843266e+00
    endloop
  endfacet
  facet normal 4.082483e-01 -4.082483e-01 8.164966e-01
    outer loop
      vertex 4.117785e+00 1.372595e+00 4.117785e+00
      vertex 4.941342e+00 1.647114e+00 3.843266e+00
      vertex 4.392304e+00 2.196152e+00 4.392304e+00
    endloop
  endfacet
  facet normal 8.164966e-01 -4.082483e-01 4.082483e-01
    outer loop
      vertex 4.117785e+00 1.372595e+00 4.117785e+00
      vertex 4.392304e+00 2.196152e+00 4.392304e+00
      vertex 3.843266e+00 1.647114e+00 4.941342e+00
    endloop
  endfacet
  facet normal 4.082483e-01 -8.164966e-01 4.082483e-01
    outer loop
      vertex 4.117785e+00 1.372595e+00 4.117785e+00
      vertex 3.843266e+00 1.647114e+00 4.941342e+00
      vertex 3.294228e+00 1.098076e+00 4.392304e+00
    endloop
  endfacet
  facet normal 4.082483e-01 8.164966e-01 -4.082483e-01
    outer loop
      vertex 4.117785e+00 4.117785e+00 1.372595e+00
      vertex 3.843266e+00 3.843266e+00 5.490380e-01
      vertex 3.294228e+00 4.392304e+00 1.098076e+00
    endloop
  endfacet
  facet normal 4.082483e-01 4.082483e-01 -8.164966e-01
    outer loop
      vertex 4.117785e+00 4.117785e+00 1.372595e+00
      vertex 3.294228e+00 4.392304e+00 1.098076e+00
      vertex 3.843266e+00 4.941342e+00 1.647114e+00
    endloop
  endfacet
  facet normal 8.164966e-01 4.082483e-01 -4.082483e-01
    outer loop
      vertex 4.117785e+00 4.117785e+00 1.372595e+00
      vertex 3.843266e+00 4.941342e+00 1.647114e+00
      vertex 4.392304e+00 4.392304e+00 2.196152e+00
    endloop
  endfacet
  facet normal 4.082483e-01 8.164966e-01 -4.082483e-01
    outer loop
      vertex 4.117785e+00 4.117785e+00 1.372595e+00
      vertex 4.392304e+00 4.392304e+00 2.196152e+00
      vertex 4.941342e+00 3.843266e+00 1.647114e+00
    endloop
  endfacet
  facet normal 4.082483e-01 4.082483e-01 -8.164966e-01
    outer loop
      vertex 4.117785e+00 4.117785e+00 1.372595e+00
      vertex 4.941342e+00 3.843266e+00 1.647114e+00
      vertex 4.392304e+00 3.294228e+00 1.098076e+00
    endloop
  endfacet
  facet normal 8.164966e-01 4.082483e-01 -4.082483e-01
    outer loop
      vertex 4.117785e+00 4.117785e+00 1.372595e+00
      vertex 4.392304e+00 3.294228e+00 1.098076e+00
      vertex 3.843266e+00 3.843266e+00 5.490380e-01
    endloop
  endfacet
  facet normal 4.082483e-01 8.164966e-01 4.082483e-01
    outer loop
      vertex 4.117785e+00 4.117785e+00 4.117785e+00
      vertex 3.294228e+00 4.392304e+00 4.392304e+00
      vertex 3.843266e+00 3.843266e+00 4.941342e+00
    endloop
  endfacet
  facet normal 8.164966e-01 4.082483e-01 4.082483e-01
    outer loop
      vertex 4.117785e+00 4.117785e+00 4.117785e+00
      vertex 3.843266e+00 3.843266e+00 4.941342e+00
      vertex 4.392304e+00 3.294228e+00 4.392304e+00
    endloop
  endfacet
  facet normal 4.082483e-01 4.082483e-01 8.164966e-01
    outer loop
      vertex 4.117785e+00 4.117785e+00 4.117785e+00
      vertex 4.392304e+00 3.294228e+00 4.392304e+00
      vertex 4.941342e+00 3.843266e+00 3.843266e+00
    endloop
  endfacet
  facet normal 4.082483e-01 8.164966e-01 4.082483e-01
    outer loop
      vertex 4.117785e+00 4.117785e+00 4.117785e+00
      vertex 4.941342e+00 3.843266e+00 3.843266e+00
      vertex 4.392304e+00 4.392304e+00 3.294228e+00
    endloop
  endfacet
  facet normal 8.164966e-01 4.082483e-01 4.082483e-01
    outer loop
      vertex 4.117785e+00 4.117785e+00 4.117785e+00
      vertex 4.392304e+00 4.392304e+00 3.294228e+00
      vertex 3.843266e+00 4.941342e+00 3.843266e+00
    endloop
  endfacet
  facet normal 4.082483e-01 4.082483e-01 8.164966e-01
    outer loop
      vertex 4.117785e+00 4.117785e+00 4.117785e+00
      vertex 3.843266e+00 4.941342e+00 3.843266e+00
      vertex 3.294228e+00 4.392304e+00 4.392304e+00
    endloop
  endfacet
endsolid surface_model
