solid surface_model
  facet normal 1.517335e-01 -8.760336e-02 -9.845317e-01
    outer loop
      vertex -1.110223e-16 -4.625929e-17 7.767050e-01
      vertex 3.587109e-16 9.699676e-01 6.903975e-01
      vertex 8.400166e-01 4.849838e-01 8.630125e-01
    endloop
  endfacet
  facet normal -4.192227e-17 1.752067e-01 -9.845317e-01
    outer loop
      vertex -1.110223e-16 -4.625929e-17 7.767050e-01
      vertex 8.400166e-01 4.849838e-01 8.630125e-01
      vertex 8.400166e-01 -4.849838e-01 6.903975e-01
    endloop
  endfacet
  facet normal -1.517335e-01 -8.760336e-02 -9.845317e-01
    outer loop
      vertex -1.110223e-16 -4.625929e-17 7.767050e-01
      vertex 8.400166e-01 -4.849838e-01 6.903975e-01
      vertex -8.881784e-16 -9.699676e-01 8.630125e-01
    endloop
  endfacet
  facet normal 1.517335e-01 -8.760336e-02 -9.845317e-01
    outer loop
      vertex -1.110223e-16 -4.625929e-17 7.767050e-01
      vertex -8.881784e-16 -9.699676e-01 8.630125e-01
      vertex -8.400166e-01 -4.849838e-01 6.903975e-01
    endloop
  endfacet
  facet normal 4.192227e-17 1.752067e-01 -9.845317e-01
    outer loop
      vertex -1.110223e-16 -4.625929e-17 7.767050e-01
      vertex -8.400166e-01 -4.849838e-01 6.903975e-01
      vertex -8.400166e-01 4.849838e-01 8.630125e-01
    endloop
  endfacet
  facet normal -1.517335e-01 -8.760336e-02 -9.845317e-01
    outer loop
      vertex -1.110223e-16 -4.625929e-17 7.767050e-01
      vertex -8.400166e-01 4.849838e-01 8.630125e-01
      vertex 3.587109e-16 9.699676e-01 6.903975e-01
    endloop
  endfacet
  facet normal 1.517335e-01 -8.760336e-02 -9.845317e-01
    outer loop
      vertex 6.300145e-01 1.091217e+00 7.767050e-01
      vertex 8.400166e-01 4.849838e-01 8.630125e-01
      vertex 3.587109e-16 9.699676e-01 6.903975e-01
    endloop
  endfacet
  facet normal 1.900655e-01 -3.291998e-01 -9.249338e-01
    outer loop
      vertex 6.300145e-01 1.091217e+00 7.767050e-01
      vertex 3.587109e-16 9.699676e-01 6.903975e-01
      vertex 8.400208e-01 1.454959e+00 6.903975e-01
    endloop
  endfacet
  facet normal 8.660254e-01 -5.000000e-01 0.000000e+00
    outer loop
      vertex 6.300145e-01 1.091217e+00 7.767050e-01
      vertex 8.400208e-01 1.454959e+00 6.903975e-01
      vertex 8.400208e-01 1.454959e+00 8.630125e-01
    endloop
  endfacet
  facet normal 3.801282e-01 -1.646007e-06 -9.249338e-01
    outer loop
      vertex 6.300145e-01 1.091217e+00 7.767050e-01
      vertex 8.400208e-01 1.454959e+00 8.630125e-01
      vertex 8.400166e-01 4.849838e-01 8.630125e-01
    endloop
  endfacet
  facet normal 2.903683e-06 -3.352868e-01 -9.421161e-01
    outer loop
      vertex 4.200104e-01 1.454955e+00 5.177982e-01
      vertex 3.587109e-16 9.699676e-01 6.903975e-01
      vertex 6.540098e-16 1.939935e+00 3.451988e-01
    endloop
  endfacet
  facet normal -3.174694e-01 -5.498841e-01 -7.725546e-01
    outer loop
      vertex 4.200104e-01 1.454955e+00 5.177982e-01
      vertex 6.540098e-16 1.939935e+00 3.451988e-01
      vertex 8.400208e-01 1.454959e+00 3.451988e-01
    endloop
  endfacet
  facet normal 8.660297e-06 -1.000000e+00 0.000000e+00
    outer loop
      vertex 4.200104e-01 1.454955e+00 5.177982e-01
      vertex 8.400208e-01 1.454959e+00 3.451988e-01
      vertex 8.400208e-01 1.454959e+00 6.903975e-01
    endloop
  endfacet
  facet normal 3.174780e-01 -5.498825e-01 -7.725523e-01
    outer loop
      vertex 4.200104e-01 1.454955e+00 5.177982e-01
      vertex 8.400208e-01 1.454959e+00 6.903975e-01
      vertex 3.587109e-16 9.699676e-01 6.903975e-01
    endloop
  endfacet
  facet normal -1.517195e-01 -8.759704e-02 -9.845344e-01
    outer loop
      vertex 6.300082e-01 1.818704e+00 2.588991e-01
      vertex 6.540098e-16 1.939935e+00 3.451988e-01
      vertex 8.399914e-01 2.424963e+00 1.725994e-01
    endloop
  endfacet
  facet normal -3.801038e-01 -1.152097e-05 -9.249439e-01
    outer loop
      vertex 6.300082e-01 1.818704e+00 2.588991e-01
      vertex 8.399914e-01 2.424963e+00 1.725994e-01
      vertex 8.400208e-01 1.454959e+00 1.725994e-01
    endloop
  endfacet
  facet normal -8.660211e-01 -5.000075e-01 0.000000e+00
    outer loop
      vertex 6.300082e-01 1.818704e+00 2.588991e-01
      vertex 8.400208e-01 1.454959e+00 1.725994e-01
      vertex 8.400208e-01 1.454959e+00 3.451988e-01
    endloop
  endfacet
  facet normal -1.900429e-01 -3.291706e-01 -9.249489e-01
    outer loop
      vertex 6.300082e-01 1.818704e+00 2.588991e-01
      vertex 8.400208e-01 1.454959e+00 3.451988e-01
      vertex 6.540098e-16 1.939935e+00 3.451988e-01
    endloop
  endfacet
  facet normal -2.903437e-01 1.676300e-01 -9.421256e-01
    outer loop
      vertex 1.050029e+00 1.818704e+00 0.000000e+00
      vertex 8.399914e-01 2.424963e+00 1.725994e-01
      vertex 1.680084e+00 1.939935e+00 -1.725994e-01
    endloop
  endfacet
  facet normal -3.174447e-01 5.498689e-01 -7.725756e-01
    outer loop
      vertex 1.050029e+00 1.818704e+00 0.000000e+00
      vertex 1.680084e+00 1.939935e+00 -1.725994e-01
      vertex 8.400208e-01 1.454959e+00 -1.725994e-01
    endloop
  endfacet
  facet normal -8.660254e-01 5.000000e-01 0.000000e+00
    outer loop
      vertex 1.050029e+00 1.818704e+00 0.000000e+00
      vertex 8.400208e-01 1.454959e+00 -1.725994e-01
      vertex 8.400208e-01 1.454959e+00 1.725994e-01
    endloop
  endfacet
  facet normal -6.349227e-01 -1.924454e-05 -7.725756e-01
    outer loop
      vertex 1.050029e+00 1.818704e+00 0.000000e+00
      vertex 8.400208e-01 1.454959e+00 1.725994e-01
      vertex 8.399914e-01 2.424963e+00 1.725994e-01
    endloop
  endfacet
  facet normal 1.517180e-06 1.751914e-01 -9.845344e-01
    outer loop
      vertex 1.260040e+00 1.454955e+00 -2.588991e-01
      vertex 1.680084e+00 1.939935e+00 -1.725994e-01
      vertex 1.680033e+00 9.699676e-01 -3.451988e-01
    endloop
  endfacet
  facet normal 1.900486e-01 3.291673e-01 -9.249489e-01
    outer loop
      vertex 1.260040e+00 1.454955e+00 -2.588991e-01
      vertex 1.680033e+00 9.699676e-01 -3.451988e-01
      vertex 8.400208e-01 1.454959e+00 -3.451988e-01
    endloop
  endfacet
  facet normal 8.660124e-06 1.000000e+00 0.000000e+00
    outer loop
      vertex 1.260040e+00 1.454955e+00 -2.588991e-01
      vertex 8.400208e-01 1.454959e+00 -3.451988e-01
      vertex 8.400208e-01 1.454959e+00 -1.725994e-01
    endloop
  endfacet
  facet normal -1.900419e-01 3.291853e-01 -9.249439e-01
    outer loop
      vertex 1.260040e+00 1.454955e+00 -2.588991e-01
      vertex 8.400208e-01 1.454959e+00 -1.725994e-01
      vertex 1.680084e+00 1.939935e+00 -1.725994e-01
    endloop
  endfacet
  facet normal -1.517335e-01 -8.760336e-02 -9.845317e-01
    outer loop
      vertex -6.300145e-01 1.091217e+00 7.767050e-01
      vertex 3.587109e-16 9.699676e-01 6.903975e-01
      vertex -8.400166e-01 4.849838e-01 8.630125e-01
    endloop
  endfacet
  facet normal -3.801282e-01 -1.646007e-06 -9.249338e-01
    outer loop
      vertex -6.300145e-01 1.091217e+00 7.767050e-01
      vertex -8.400166e-01 4.849838e-01 8.630125e-01
      vertex -8.400208e-01 1.454959e+00 8.630125e-01
    endloop
  endfacet
  facet normal -8.660254e-01 -5.000000e-01 0.000000e+00
    outer loop
      vertex -6.300145e-01 1.091217e+00 7.767050e-01
      vertex -8.400208e-01 1.454959e+00 8.630125e-01
      vertex -8.400208e-01 1.454959e+00 6.903975e-01
    endloop
  endfacet
  facet normal -1.900655e-01 -3.291998e-01 -9.249338e-01
    outer loop
      vertex -6.300145e-01 1.091217e+00 7.767050e-01
      vertex -8.400208e-01 1.454959e+00 6.903975e-01
      vertex 3.587109e-16 9.699676e-01 6.903975e-01
    endloop
  endfacet
  facet normal -2.903683e-01 1.676409e-01 -9.421161e-01
    outer loop
      vertex -1.050023e+00 1.091217e+00 1.035612e+00
      vertex -8.400166e-01 4.849838e-01 8.630125e-01
      vertex -1.680033e+00 9.699676e-01 1.208211e+00
    endloop
  endfacet
  facet normal -3.174789e-01 5.498786e-01 -7.725546e-01
    outer loop
      vertex -1.050023e+00 1.091217e+00 1.035612e+00
      vertex -1.680033e+00 9.699676e-01 1.208211e+00
      vertex -8.400208e-01 1.454959e+00 1.208211e+00
    endloop
  endfacet
  facet normal -8.660297e-01 4.999925e-01 0.000000e+00
    outer loop
      vertex -1.050023e+00 1.091217e+00 1.035612e+00
      vertex -8.400208e-01 1.454959e+00 1.208211e+00
      vertex -8.400208e-01 1.454959e+00 8.630125e-01
    endloop
  endfacet
  facet normal -6.349512e-01 -2.749426e-06 -7.725523e-01
    outer loop
      vertex -1.050023e+00 1.091217e+00 1.035612e+00
      vertex -8.400208e-01 1.454959e+00 8.630125e-01
      vertex -8.400166e-01 4.849838e-01 8.630125e-01
    endloop
  endfacet
  facet normal -1.517225e-06 1.751914e-01 -9.845344e-01
    outer loop
      vertex -1.260027e+00 1.454955e+00 1.294511e+00
      vertex -1.680033e+00 9.699676e-01 1.208211e+00
      vertex -1.680033e+00 1.939935e+00 1.380811e+00
    endloop
  endfacet
  facet normal 1.900480e-01 3.291761e-01 -9.249459e-01
    outer loop
      vertex -1.260027e+00 1.454955e+00 1.294511e+00
      vertex -1.680033e+00 1.939935e+00 1.380811e+00
      vertex -8.400208e-01 1.454959e+00 1.380811e+00
    endloop
  endfacet
  facet normal -8.660384e-06 1.000000e+00 0.000000e+00
    outer loop
      vertex -1.260027e+00 1.454955e+00 1.294511e+00
      vertex -8.400208e-01 1.454959e+00 1.380811e+00
      vertex -8.400208e-01 1.454959e+00 1.208211e+00
    endloop
  endfacet
  facet normal -1.900535e-01 3.291758e-01 -9.249449e-01
    outer loop
      vertex -1.260027e+00 1.454955e+00 1.294511e+00
      vertex -8.400208e-01 1.454959e+00 1.208211e+00
      vertex -1.680033e+00 9.699676e-01 1.208211e+00
    endloop
  endfacet
  facet normal 2.903669e-01 1.676434e-01 -9.421161e-01
    outer loop
      vertex -1.050029e+00 1.818704e+00 1.553410e+00
      vertex -1.680033e+00 1.939935e+00 1.380811e+00
      vertex -8.400418e-01 2.424963e+00 1.726009e+00
    endloop
  endfacet
  facet normal 6.349569e-01 1.374684e-05 -7.725476e-01
    outer loop
      vertex -1.050029e+00 1.818704e+00 1.553410e+00
      vertex -8.400418e-01 2.424963e+00 1.726009e+00
      vertex -8.400208e-01 1.454959e+00 1.726009e+00
    endloop
  endfacet
  facet normal 8.660254e-01 5.000000e-01 0.000000e+00
    outer loop
      vertex -1.050029e+00 1.818704e+00 1.553410e+00
      vertex -8.400208e-01 1.454959e+00 1.726009e+00
      vertex -8.400208e-01 1.454959e+00 1.380811e+00
    endloop
  endfacet
  facet normal 3.174675e-01 5.498754e-01 -7.725616e-01
    outer loop
      vertex -1.050029e+00 1.818704e+00 1.553410e+00
      vertex -8.400208e-01 1.454959e+00 1.380811e+00
      vertex -1.680033e+00 1.939935e+00 1.380811e+00
    endloop
  endfacet
  facet normal 1.517151e-01 -8.758927e-02 -9.845357e-01
    outer loop
      vertex -6.300209e-01 1.818704e+00 1.812309e+00
      vertex -8.400418e-01 2.424963e+00 1.726009e+00
      vertex 7.491287e-16 1.939935e+00 1.898609e+00
    endloop
  endfacet
  facet normal 1.900381e-01 -3.291622e-01 -9.249529e-01
    outer loop
      vertex -6.300209e-01 1.818704e+00 1.812309e+00
      vertex 7.491287e-16 1.939935e+00 1.898609e+00
      vertex -8.400208e-01 1.454959e+00 1.898609e+00
    endloop
  endfacet
  facet normal 8.660341e-01 -4.999850e-01 0.000000e+00
    outer loop
      vertex -6.300209e-01 1.818704e+00 1.812309e+00
      vertex -8.400208e-01 1.454959e+00 1.898609e+00
      vertex -8.400208e-01 1.454959e+00 1.726009e+00
    endloop
  endfacet
  facet normal 3.800940e-01 8.229050e-06 -9.249479e-01
    outer loop
      vertex -6.300209e-01 1.818704e+00 1.812309e+00
      vertex -8.400208e-01 1.454959e+00 1.726009e+00
      vertex -8.400418e-01 2.424963e+00 1.726009e+00
    endloop
  endfacet
  facet normal -1.517335e-01 -8.760336e-02 -9.845317e-01
    outer loop
      vertex 5.040150e+00 -3.700743e-17 7.767050e-01
      vertex 4.200133e+00 4.849838e-01 8.630125e-01
      vertex 5.040150e+00 9.699676e-01 6.903975e-01
    endloop
  endfacet
  facet normal 1.517335e-01 -8.760336e-02 -9.845317e-01
    outer loop
      vertex 5.040150e+00 -3.700743e-17 7.767050e-01
      vertex 5.040150e+00 9.699676e-01 6.903975e-01
      vertex 5.880167e+00 4.849838e-01 8.630125e-01
    endloop
  endfacet
  facet normal -4.192227e-17 1.752067e-01 -9.845317e-01
    outer loop
      vertex 5.040150e+00 -3.700743e-17 7.767050e-01
      vertex 5.880167e+00 4.849838e-01 8.630125e-01
      vertex 5.880167e+00 -4.849838e-01 6.903975e-01
    endloop
  endfacet
  facet normal -1.517335e-01 -8.760336e-02 -9.845317e-01
    outer loop
      vertex 5.040150e+00 -3.700743e-17 7.767050e-01
      vertex 5.880167e+00 -4.849838e-01 6.903975e-01
      vertex 5.040150e+00 -9.699676e-01 8.630125e-01
    endloop
  endfacet
  facet normal 1.517335e-01 -8.760336e-02 -9.845317e-01
    outer loop
      vertex 5.040150e+00 -3.700743e-17 7.767050e-01
      vertex 5.040150e+00 -9.699676e-01 8.630125e-01
      vertex 4.200133e+00 -4.849838e-01 6.903975e-01
    endloop
  endfacet
  facet normal 4.192227e-17 1.752067e-01 -9.845317e-01
    outer loop
      vertex 5.040150e+00 -3.700743e-17 7.767050e-01
      vertex 4.200133e+00 -4.849838e-01 6.903975e-01
      vertex 4.200133e+00 4.849838e-01 8.630125e-01
    endloop
  endfacet
  facet normal 1.517144e-01 -8.759059e-02 -9.845357e-01
    outer loop
      vertex -1.260037e-05 2.909939e+00 2.588991e-01
      vertex 6.540098e-16 1.939935e+00 3.451988e-01
      vertex -8.400418e-01 2.424963e+00 1.725994e-01
    endloop
  endfacet
  facet normal 1.517195e-06 1.751914e-01 -9.845344e-01
    outer loop
      vertex -1.260037e-05 2.909939e+00 2.588991e-01
      vertex -8.400418e-01 2.424963e+00 1.725994e-01
      vertex -8.400418e-01 3.394930e+00 3.451988e-01
    endloop
  endfacet
  facet normal -1.517195e-01 -8.759704e-02 -9.845344e-01
    outer loop
      vertex -1.260037e-05 2.909939e+00 2.588991e-01
      vertex -8.400418e-01 3.394930e+00 3.451988e-01
      vertex -2.520075e-05 3.879914e+00 1.725994e-01
    endloop
  endfacet
  facet normal 1.517129e-01 -8.759322e-02 -9.845357e-01
    outer loop
      vertex -1.260037e-05 2.909939e+00 2.588991e-01
      vertex -2.520075e-05 3.879914e+00 1.725994e-01
      vertex 8.400418e-01 3.394930e+00 3.451988e-01
    endloop
  endfacet
  facet normal -1.517195e-06 1.751914e-01 -9.845344e-01
    outer loop
      vertex -1.260037e-05 2.909939e+00 2.588991e-01
      vertex 8.400418e-01 3.394930e+00 3.451988e-01
      vertex 8.399914e-01 2.424963e+00 1.725994e-01
    endloop
  endfacet
  facet normal -1.517210e-01 -8.759441e-02 -9.845344e-01
    outer loop
      vertex -1.260037e-05 2.909939e+00 2.588991e-01
      vertex 8.399914e-01 2.424963e+00 1.725994e-01
      vertex 6.540098e-16 1.939935e+00 3.451988e-01
    endloop
  endfacet
  facet normal 1.517151e-01 -8.758927e-02 -9.845357e-01
    outer loop
      vertex -6.300209e-01 1.818704e+00 2.588991e-01
      vertex -8.400418e-01 2.424963e+00 1.725994e-01
      vertex 6.540098e-16 1.939935e+00 3.451988e-01
    endloop
  endfacet
  facet normal 1.900381e-01 -3.291622e-01 -9.249529e-01
    outer loop
      vertex -6.300209e-01 1.818704e+00 2.588991e-01
      vertex 6.540098e-16 1.939935e+00 3.451988e-01
      vertex -8.400208e-01 1.454959e+00 3.451988e-01
    endloop
  endfacet
  facet normal 8.660341e-01 -4.999850e-01 0.000000e+00
    outer loop
      vertex -6.300209e-01 1.818704e+00 2.588991e-01
      vertex -8.400208e-01 1.454959e+00 3.451988e-01
      vertex -8.400208e-01 1.454959e+00 1.725994e-01
    endloop
  endfacet
  facet normal 3.800940e-01 8.229050e-06 -9.249479e-01
    outer loop
      vertex -6.300209e-01 1.818704e+00 2.588991e-01
      vertex -8.400208e-01 1.454959e+00 1.725994e-01
      vertex -8.400418e-01 2.424963e+00 1.725994e-01
    endloop
  endfacet
  facet normal -2.903683e-06 -3.352868e-01 -9.421161e-01
    outer loop
      vertex -4.200104e-01 1.454955e+00 5.177982e-01
      vertex 6.540098e-16 1.939935e+00 3.451988e-01
      vertex 3.587109e-16 9.699676e-01 6.903975e-01
    endloop
  endfacet
  facet normal -3.174780e-01 -5.498825e-01 -7.725523e-01
    outer loop
      vertex -4.200104e-01 1.454955e+00 5.177982e-01
      vertex 3.587109e-16 9.699676e-01 6.903975e-01
      vertex -8.400208e-01 1.454959e+00 6.903975e-01
    endloop
  endfacet
  facet normal -8.660297e-06 -1.000000e+00 0.000000e+00
    outer loop
      vertex -4.200104e-01 1.454955e+00 5.177982e-01
      vertex -8.400208e-01 1.454959e+00 6.903975e-01
      vertex -8.400208e-01 1.454959e+00 3.451988e-01
    endloop
  endfacet
  facet normal 3.174694e-01 -5.498841e-01 -7.725546e-01
    outer loop
      vertex -4.200104e-01 1.454955e+00 5.177982e-01
      vertex -8.400208e-01 1.454959e+00 3.451988e-01
      vertex 6.540098e-16 1.939935e+00 3.451988e-01
    endloop
  endfacet
  facet normal -1.517335e-01 -8.760336e-02 -9.845317e-01
    outer loop
      vertex -6.300145e-01 1.091217e+00 7.767050e-01
      vertex 3.587109e-16 9.699676e-01 6.903975e-01
      vertex -8.400166e-01 4.849838e-01 8.630125e-01
    endloop
  endfacet
  facet normal -3.801282e-01 -1.646007e-06 -9.249338e-01
    outer loop
      vertex -6.300145e-01 1.091217e+00 7.767050e-01
      vertex -8.400166e-01 4.849838e-01 8.630125e-01
      vertex -8.400208e-01 1.454959e+00 8.630125e-01
    endloop
  endfacet
  facet normal -8.660254e-01 -5.000000e-01 0.000000e+00
    outer loop
      vertex -6.300145e-01 1.091217e+00 7.767050e-01
      vertex -8.400208e-01 1.454959e+00 8.630125e-01
      vertex -8.400208e-01 1.454959e+00 6.903975e-01
    endloop
  endfacet
  facet normal -1.900655e-01 -3.291998e-01 -9.249338e-01
    outer loop
      vertex -6.300145e-01 1.091217e+00 7.767050e-01
      vertex -8.400208e-01 1.454959e+00 6.903975e-01
      vertex 3.587109e-16 9.699676e-01 6.903975e-01
    endloop
  endfacet
  facet normal -2.903683e-01 1.676409e-01 -9.421161e-01
    outer loop
      vertex -1.050023e+00 1.091217e+00 1.035612e+00
      vertex -8.400166e-01 4.849838e-01 8.630125e-01
      vertex -1.680033e+00 9.699676e-01 1.208211e+00
    endloop
  endfacet
  facet normal -3.174789e-01 5.498786e-01 -7.725546e-01
    outer loop
      vertex -1.050023e+00 1.091217e+00 1.035612e+00
      vertex -1.680033e+00 9.699676e-01 1.208211e+00
      vertex -8.400208e-01 1.454959e+00 1.208211e+00
    endloop
  endfacet
  facet normal -8.660297e-01 4.999925e-01 0.000000e+00
    outer loop
      vertex -1.050023e+00 1.091217e+00 1.035612e+00
      vertex -8.400208e-01 1.454959e+00 1.208211e+00
      vertex -8.400208e-01 1.454959e+00 8.630125e-01
    endloop
  endfacet
  facet normal -6.349512e-01 -2.749426e-06 -7.725523e-01
    outer loop
      vertex -1.050023e+00 1.091217e+00 1.035612e+00
      vertex -8.400208e-01 1.454959e+00 8.630125e-01
      vertex -8.400166e-01 4.849838e-01 8.630125e-01
    endloop
  endfacet
  facet normal -1.517225e-06 1.751914e-01 -9.845344e-01
    outer loop
      vertex -1.260027e+00 1.454955e+00 1.294511e+00
      vertex -1.680033e+00 9.699676e-01 1.208211e+00
      vertex -1.680033e+00 1.939935e+00 1.380811e+00
    endloop
  endfacet
  facet normal 1.900480e-01 3.291761e-01 -9.249459e-01
    outer loop
      vertex -1.260027e+00 1.454955e+00 1.294511e+00
      vertex -1.680033e+00 1.939935e+00 1.380811e+00
      vertex -8.400208e-01 1.454959e+00 1.380811e+00
    endloop
  endfacet
  facet normal -8.660384e-06 1.000000e+00 0.000000e+00
    outer loop
      vertex -1.260027e+00 1.454955e+00 1.294511e+00
      vertex -8.400208e-01 1.454959e+00 1.380811e+00
      vertex -8.400208e-01 1.454959e+00 1.208211e+00
    endloop
  endfacet
  facet normal -1.900535e-01 3.291758e-01 -9.249449e-01
    outer loop
      vertex -1.260027e+00 1.454955e+00 1.294511e+00
      vertex -8.400208e-01 1.454959e+00 1.208211e+00
      vertex -1.680033e+00 9.699676e-01 1.208211e+00
    endloop
  endfacet
  facet normal -1.517225e-06 1.751914e-01 -9.845344e-01
    outer loop
      vertex -1.260048e+00 2.909943e+00 2.588991e-01
      vertex -8.400418e-01 3.394930e+00 3.451988e-01
      vertex -8.400418e-01 2.424963e+00 1.725994e-01
    endloop
  endfacet
  facet normal 1.900480e-01 3.291761e-01 -9.249459e-01
    outer loop
      vertex -1.260048e+00 2.909943e+00 2.588991e-01
      vertex -8.400418e-01 2.424963e+00 1.725994e-01
      vertex -1.680054e+00 2.909939e+00 1.725994e-01
    endloop
  endfacet
  facet normal -8.660384e-06 1.000000e+00 0.000000e+00
    outer loop
      vertex -1.260048e+00 2.909943e+00 2.588991e-01
      vertex -1.680054e+00 2.909939e+00 1.725994e-01
      vertex -1.680054e+00 2.909939e+00 3.451988e-01
    endloop
  endfacet
  facet normal -1.900535e-01 3.291758e-01 -9.249449e-01
    outer loop
      vertex -1.260048e+00 2.909943e+00 2.588991e-01
      vertex -1.680054e+00 2.909939e+00 3.451988e-01
      vertex -8.400418e-01 3.394930e+00 3.451988e-01
    endloop
  endfacet
  facet normal 2.903669e-01 1.676434e-01 -9.421161e-01
    outer loop
      vertex -1.470046e+00 2.546194e+00 -4.163336e-17
      vertex -8.400418e-01 2.424963e+00 1.725994e-01
      vertex -1.680033e+00 1.939935e+00 -1.725994e-01
    endloop
  endfacet
  facet normal 6.349569e-01 1.374684e-05 -7.725476e-01
    outer loop
      vertex -1.470046e+00 2.546194e+00 -4.163336e-17
      vertex -1.680033e+00 1.939935e+00 -1.725994e-01
      vertex -1.680054e+00 2.909939e+00 -1.725994e-01
    endloop
  endfacet
  facet normal 8.660254e-01 5.000000e-01 0.000000e+00
    outer loop
      vertex -1.470046e+00 2.546194e+00 -4.163336e-17
      vertex -1.680054e+00 2.909939e+00 -1.725994e-01
      vertex -1.680054e+00 2.909939e+00 1.725994e-01
    endloop
  endfacet
  facet normal 3.174675e-01 5.498754e-01 -7.725616e-01
    outer loop
      vertex -1.470046e+00 2.546194e+00 -4.163336e-17
      vertex -1.680054e+00 2.909939e+00 1.725994e-01
      vertex -8.400418e-01 2.424963e+00 1.725994e-01
    endloop
  endfacet
  facet normal 1.517151e-01 -8.758927e-02 -9.845357e-01
    outer loop
      vertex -1.890054e+00 2.546194e+00 -2.588991e-01
      vertex -1.680033e+00 1.939935e+00 -1.725994e-01
      vertex -2.520075e+00 2.424963e+00 -3.451988e-01
    endloop
  endfacet
  facet normal 1.900381e-01 -3.291622e-01 -9.249529e-01
    outer loop
      vertex -1.890054e+00 2.546194e+00 -2.588991e-01
      vertex -2.520075e+00 2.424963e+00 -3.451988e-01
      vertex -1.680054e+00 2.909939e+00 -3.451988e-01
    endloop
  endfacet
  facet normal 8.660341e-01 -4.999850e-01 0.000000e+00
    outer loop
      vertex -1.890054e+00 2.546194e+00 -2.588991e-01
      vertex -1.680054e+00 2.909939e+00 -3.451988e-01
      vertex -1.680054e+00 2.909939e+00 -1.725994e-01
    endloop
  endfacet
  facet normal 3.800940e-01 8.229050e-06 -9.249479e-01
    outer loop
      vertex -1.890054e+00 2.546194e+00 -2.588991e-01
      vertex -1.680054e+00 2.909939e+00 -1.725994e-01
      vertex -1.680033e+00 1.939935e+00 -1.725994e-01
    endloop
  endfacet
  facet normal -2.903683e-06 -3.352868e-01 -9.421161e-01
    outer loop
      vertex -2.100065e+00 2.909943e+00 -5.177982e-01
      vertex -2.520075e+00 2.424963e+00 -3.451988e-01
      vertex -2.520075e+00 3.394930e+00 -6.903975e-01
    endloop
  endfacet
  facet normal -3.174780e-01 -5.498825e-01 -7.725523e-01
    outer loop
      vertex -2.100065e+00 2.909943e+00 -5.177982e-01
      vertex -2.520075e+00 3.394930e+00 -6.903975e-01
      vertex -1.680054e+00 2.909939e+00 -6.903975e-01
    endloop
  endfacet
  facet normal -8.660297e-06 -1.000000e+00 0.000000e+00
    outer loop
      vertex -2.100065e+00 2.909943e+00 -5.177982e-01
      vertex -1.680054e+00 2.909939e+00 -6.903975e-01
      vertex -1.680054e+00 2.909939e+00 -3.451988e-01
    endloop
  endfacet
  facet normal 3.174694e-01 -5.498841e-01 -7.725546e-01
    outer loop
      vertex -2.100065e+00 2.909943e+00 -5.177982e-01
      vertex -1.680054e+00 2.909939e+00 -3.451988e-01
      vertex -2.520075e+00 2.424963e+00 -3.451988e-01
    endloop
  endfacet
  facet normal -1.517335e-01 -8.760336e-02 -9.845317e-01
    outer loop
      vertex -1.890060e+00 3.273681e+00 -7.767050e-01
      vertex -2.520075e+00 3.394930e+00 -6.903975e-01
      vertex -1.680058e+00 3.879914e+00 -8.630125e-01
    endloop
  endfacet
  facet normal -3.801282e-01 -1.646007e-06 -9.249338e-01
    outer loop
      vertex -1.890060e+00 3.273681e+00 -7.767050e-01
      vertex -1.680058e+00 3.879914e+00 -8.630125e-01
      vertex -1.680054e+00 2.909939e+00 -8.630125e-01
    endloop
  endfacet
  facet normal -8.660254e-01 -5.000000e-01 0.000000e+00
    outer loop
      vertex -1.890060e+00 3.273681e+00 -7.767050e-01
      vertex -1.680054e+00 2.909939e+00 -8.630125e-01
      vertex -1.680054e+00 2.909939e+00 -6.903975e-01
    endloop
  endfacet
  facet normal -1.900655e-01 -3.291998e-01 -9.249338e-01
    outer loop
      vertex -1.890060e+00 3.273681e+00 -7.767050e-01
      vertex -1.680054e+00 2.909939e+00 -6.903975e-01
      vertex -2.520075e+00 3.394930e+00 -6.903975e-01
    endloop
  endfacet
  facet normal -2.179936e-16 1.752067e-01 -9.845317e-01
    outer loop
      vertex -1.260046e+00 4.364898e+00 7.767050e-01
      vertex -1.680058e+00 3.879914e+00 6.903975e-01
      vertex -1.680058e+00 4.849882e+00 8.630125e-01
    endloop
  endfacet
  facet normal 1.900627e-01 3.292015e-01 -9.249338e-01
    outer loop
      vertex -1.260046e+00 4.364898e+00 7.767050e-01
      vertex -1.680058e+00 4.849882e+00 8.630125e-01
      vertex -8.400334e-01 4.364898e+00 8.630125e-01
    endloop
  endfacet
  facet normal -0.000000e+00 1.000000e+00 0.000000e+00
    outer loop
      vertex -1.260046e+00 4.364898e+00 7.767050e-01
      vertex -8.400334e-01 4.364898e+00 8.630125e-01
      vertex -8.400334e-01 4.364898e+00 6.903975e-01
    endloop
  endfacet
  facet normal -1.900627e-01 3.292015e-01 -9.249338e-01
    outer loop
      vertex -1.260046e+00 4.364898e+00 7.767050e-01
      vertex -8.400334e-01 4.364898e+00 6.903975e-01
      vertex -1.680058e+00 3.879914e+00 6.903975e-01
    endloop
  endfacet
  facet normal 2.903654e-01 1.676459e-01 -9.421161e-01
    outer loop
      vertex -1.050042e+00 4.728636e+00 1.035612e+00
      vertex -1.680058e+00 4.849882e+00 8.630125e-01
      vertex -8.400418e-01 5.334866e+00 1.208211e+00
    endloop
  endfacet
  facet normal 6.349483e-01 5.498869e-06 -7.725546e-01
    outer loop
      vertex -1.050042e+00 4.728636e+00 1.035612e+00
      vertex -8.400418e-01 5.334866e+00 1.208211e+00
      vertex -8.400334e-01 4.364898e+00 1.208211e+00
    endloop
  endfacet
  facet normal 8.660211e-01 5.000075e-01 0.000000e+00
    outer loop
      vertex -1.050042e+00 4.728636e+00 1.035612e+00
      vertex -8.400334e-01 4.364898e+00 1.208211e+00
      vertex -8.400334e-01 4.364898e+00 8.630125e-01
    endloop
  endfacet
  facet normal 3.174732e-01 5.498852e-01 -7.725523e-01
    outer loop
      vertex -1.050042e+00 4.728636e+00 1.035612e+00
      vertex -8.400334e-01 4.364898e+00 8.630125e-01
      vertex -1.680058e+00 4.849882e+00 8.630125e-01
    endloop
  endfacet
  facet normal 1.517121e-01 -8.759453e-02 -9.845357e-01
    outer loop
      vertex -6.300209e-01 4.728636e+00 1.294511e+00
      vertex -8.400418e-01 5.334866e+00 1.208211e+00
      vertex 2.520075e-05 4.849882e+00 1.380811e+00
    endloop
  endfacet
  facet normal 1.900399e-01 -3.291752e-01 -9.249479e-01
    outer loop
      vertex -6.300209e-01 4.728636e+00 1.294511e+00
      vertex 2.520075e-05 4.849882e+00 1.380811e+00
      vertex -8.400334e-01 4.364898e+00 1.380811e+00
    endloop
  endfacet
  facet normal 8.660167e-01 -5.000150e-01 0.000000e+00
    outer loop
      vertex -6.300209e-01 4.728636e+00 1.294511e+00
      vertex -8.400334e-01 4.364898e+00 1.380811e+00
      vertex -8.400334e-01 4.364898e+00 1.208211e+00
    endloop
  endfacet
  facet normal 3.800818e-01 3.291638e-06 -9.249529e-01
    outer loop
      vertex -6.300209e-01 4.728636e+00 1.294511e+00
      vertex -8.400334e-01 4.364898e+00 1.208211e+00
      vertex -8.400418e-01 5.334866e+00 1.208211e+00
    endloop
  endfacet
  facet normal -1.925538e-16 -3.352868e-01 -9.421161e-01
    outer loop
      vertex -4.200167e-01 4.364898e+00 1.553410e+00
      vertex 2.520075e-05 4.849882e+00 1.380811e+00
      vertex -2.520075e-05 3.879914e+00 1.726009e+00
    endloop
  endfacet
  facet normal -3.174723e-01 -5.498726e-01 -7.725616e-01
    outer loop
      vertex -4.200167e-01 4.364898e+00 1.553410e+00
      vertex -2.520075e-05 3.879914e+00 1.726009e+00
      vertex -8.400334e-01 4.364898e+00 1.726009e+00
    endloop
  endfacet
  facet normal -0.000000e+00 -1.000000e+00 0.000000e+00
    outer loop
      vertex -4.200167e-01 4.364898e+00 1.553410e+00
      vertex -8.400334e-01 4.364898e+00 1.726009e+00
      vertex -8.400334e-01 4.364898e+00 1.380811e+00
    endloop
  endfacet
  facet normal 3.174665e-01 -5.498956e-01 -7.725476e-01
    outer loop
      vertex -4.200167e-01 4.364898e+00 1.553410e+00
      vertex -8.400334e-01 4.364898e+00 1.380811e+00
      vertex 2.520075e-05 4.849882e+00 1.380811e+00
    endloop
  endfacet
  facet normal -1.517210e-01 -8.759441e-02 -9.845344e-01
    outer loop
      vertex -6.300335e-01 4.001160e+00 1.812309e+00
      vertex -2.520075e-05 3.879914e+00 1.726009e+00
      vertex -8.400418e-01 3.394930e+00 1.898609e+00
    endloop
  endfacet
  facet normal -3.801013e-01 3.291807e-06 -9.249449e-01
    outer loop
      vertex -6.300335e-01 4.001160e+00 1.812309e+00
      vertex -8.400418e-01 3.394930e+00 1.898609e+00
      vertex -8.400334e-01 4.364898e+00 1.898609e+00
    endloop
  endfacet
  facet normal -8.660297e-01 -4.999925e-01 0.000000e+00
    outer loop
      vertex -6.300335e-01 4.001160e+00 1.812309e+00
      vertex -8.400334e-01 4.364898e+00 1.898609e+00
      vertex -8.400334e-01 4.364898e+00 1.726009e+00
    endloop
  endfacet
  facet normal -1.900509e-01 -3.291745e-01 -9.249459e-01
    outer loop
      vertex -6.300335e-01 4.001160e+00 1.812309e+00
      vertex -8.400334e-01 4.364898e+00 1.726009e+00
      vertex -2.520075e-05 3.879914e+00 1.726009e+00
    endloop
  endfacet
  facet normal 1.517180e-06 1.751914e-01 -9.845344e-01
    outer loop
      vertex 1.260035e+00 2.909943e+00 2.588991e-01
      vertex 8.399914e-01 2.424963e+00 1.725994e-01
      vertex 8.400418e-01 3.394930e+00 3.451988e-01
    endloop
  endfacet
  facet normal 1.900486e-01 3.291673e-01 -9.249489e-01
    outer loop
      vertex 1.260035e+00 2.909943e+00 2.588991e-01
      vertex 8.400418e-01 3.394930e+00 3.451988e-01
      vertex 1.680054e+00 2.909939e+00 3.451988e-01
    endloop
  endfacet
  facet normal 8.660124e-06 1.000000e+00 0.000000e+00
    outer loop
      vertex 1.260035e+00 2.909943e+00 2.588991e-01
      vertex 1.680054e+00 2.909939e+00 3.451988e-01
      vertex 1.680054e+00 2.909939e+00 1.725994e-01
    endloop
  endfacet
  facet normal -1.900419e-01 3.291853e-01 -9.249439e-01
    outer loop
      vertex 1.260035e+00 2.909943e+00 2.588991e-01
      vertex 1.680054e+00 2.909939e+00 1.725994e-01
      vertex 8.399914e-01 2.424963e+00 1.725994e-01
    endloop
  endfacet
  facet normal 2.903683e-01 1.676409e-01 -9.421161e-01
    outer loop
      vertex 1.470052e+00 3.273681e+00 5.177982e-01
      vertex 8.400418e-01 3.394930e+00 3.451988e-01
      vertex 1.680058e+00 3.879914e+00 6.903975e-01
    endloop
  endfacet
  facet normal 6.349512e-01 -2.749426e-06 -7.725523e-01
    outer loop
      vertex 1.470052e+00 3.273681e+00 5.177982e-01
      vertex 1.680058e+00 3.879914e+00 6.903975e-01
      vertex 1.680054e+00 2.909939e+00 6.903975e-01
    endloop
  endfacet
  facet normal 8.660297e-01 4.999925e-01 0.000000e+00
    outer loop
      vertex 1.470052e+00 3.273681e+00 5.177982e-01
      vertex 1.680054e+00 2.909939e+00 6.903975e-01
      vertex 1.680054e+00 2.909939e+00 3.451988e-01
    endloop
  endfacet
  facet normal 3.174789e-01 5.498786e-01 -7.725546e-01
    outer loop
      vertex 1.470052e+00 3.273681e+00 5.177982e-01
      vertex 1.680054e+00 2.909939e+00 3.451988e-01
      vertex 8.400418e-01 3.394930e+00 3.451988e-01
    endloop
  endfacet
  facet normal 1.517335e-01 -8.760336e-02 -9.845317e-01
    outer loop
      vertex 1.890060e+00 3.273681e+00 7.767050e-01
      vertex 1.680058e+00 3.879914e+00 6.903975e-01
      vertex 2.520075e+00 3.394930e+00 8.630125e-01
    endloop
  endfacet
  facet normal 1.900655e-01 -3.291998e-01 -9.249338e-01
    outer loop
      vertex 1.890060e+00 3.273681e+00 7.767050e-01
      vertex 2.520075e+00 3.394930e+00 8.630125e-01
      vertex 1.680054e+00 2.909939e+00 8.630125e-01
    endloop
  endfacet
  facet normal 8.660254e-01 -5.000000e-01 0.000000e+00
    outer loop
      vertex 1.890060e+00 3.273681e+00 7.767050e-01
      vertex 1.680054e+00 2.909939e+00 8.630125e-01
      vertex 1.680054e+00 2.909939e+00 6.903975e-01
    endloop
  endfacet
  facet normal 3.801282e-01 -1.646007e-06 -9.249338e-01
    outer loop
      vertex 1.890060e+00 3.273681e+00 7.767050e-01
      vertex 1.680054e+00 2.909939e+00 6.903975e-01
      vertex 1.680058e+00 3.879914e+00 6.903975e-01
    endloop
  endfacet
  facet normal 2.903683e-06 -3.352868e-01 -9.421161e-01
    outer loop
      vertex 2.100065e+00 2.909943e+00 1.035612e+00
      vertex 2.520075e+00 3.394930e+00 8.630125e-01
      vertex 2.520075e+00 2.424963e+00 1.208211e+00
    endloop
  endfacet
  facet normal -3.174694e-01 -5.498841e-01 -7.725546e-01
    outer loop
      vertex 2.100065e+00 2.909943e+00 1.035612e+00
      vertex 2.520075e+00 2.424963e+00 1.208211e+00
      vertex 1.680054e+00 2.909939e+00 1.208211e+00
    endloop
  endfacet
  facet normal 8.660297e-06 -1.000000e+00 0.000000e+00
    outer loop
      vertex 2.100065e+00 2.909943e+00 1.035612e+00
      vertex 1.680054e+00 2.909939e+00 1.208211e+00
      vertex 1.680054e+00 2.909939e+00 8.630125e-01
    endloop
  endfacet
  facet normal 3.174780e-01 -5.498825e-01 -7.725523e-01
    outer loop
      vertex 2.100065e+00 2.909943e+00 1.035612e+00
      vertex 1.680054e+00 2.909939e+00 8.630125e-01
      vertex 2.520075e+00 3.394930e+00 8.630125e-01
    endloop
  endfacet
  facet normal -1.517195e-01 -8.759704e-02 -9.845344e-01
    outer loop
      vertex 1.890067e+00 2.546194e+00 1.294511e+00
      vertex 2.520075e+00 2.424963e+00 1.208211e+00
      vertex 1.680084e+00 1.939935e+00 1.380811e+00
    endloop
  endfacet
  facet normal -3.801038e-01 -1.152097e-05 -9.249439e-01
    outer loop
      vertex 1.890067e+00 2.546194e+00 1.294511e+00
      vertex 1.680084e+00 1.939935e+00 1.380811e+00
      vertex 1.680054e+00 2.909939e+00 1.380811e+00
    endloop
  endfacet
  facet normal -8.660211e-01 -5.000075e-01 0.000000e+00
    outer loop
      vertex 1.890067e+00 2.546194e+00 1.294511e+00
      vertex 1.680054e+00 2.909939e+00 1.380811e+00
      vertex 1.680054e+00 2.909939e+00 1.208211e+00
    endloop
  endfacet
  facet normal -1.900429e-01 -3.291706e-01 -9.249489e-01
    outer loop
      vertex 1.890067e+00 2.546194e+00 1.294511e+00
      vertex 1.680054e+00 2.909939e+00 1.208211e+00
      vertex 2.520075e+00 2.424963e+00 1.208211e+00
    endloop
  endfacet
  facet normal -1.517210e-01 -8.759441e-02 -9.845344e-01
    outer loop
      vertex -6.300335e-01 4.001160e+00 2.588991e-01
      vertex -2.520075e-05 3.879914e+00 1.725994e-01
      vertex -8.400418e-01 3.394930e+00 3.451988e-01
    endloop
  endfacet
  facet normal -3.801013e-01 3.291807e-06 -9.249449e-01
    outer loop
      vertex -6.300335e-01 4.001160e+00 2.588991e-01
      vertex -8.400418e-01 3.394930e+00 3.451988e-01
      vertex -8.400334e-01 4.364898e+00 3.451988e-01
    endloop
  endfacet
  facet normal -8.660297e-01 -4.999925e-01 0.000000e+00
    outer loop
      vertex -6.300335e-01 4.001160e+00 2.588991e-01
      vertex -8.400334e-01 4.364898e+00 3.451988e-01
      vertex -8.400334e-01 4.364898e+00 1.725994e-01
    endloop
  endfacet
  facet normal -1.900509e-01 -3.291745e-01 -9.249459e-01
    outer loop
      vertex -6.300335e-01 4.001160e+00 2.588991e-01
      vertex -8.400334e-01 4.364898e+00 1.725994e-01
      vertex -2.520075e-05 3.879914e+00 1.725994e-01
    endloop
  endfacet
  facet normal -2.903654e-01 1.676459e-01 -9.421161e-01
    outer loop
      vertex -1.050042e+00 4.001160e+00 5.177982e-01
      vertex -8.400418e-01 3.394930e+00 3.451988e-01
      vertex -1.680058e+00 3.879914e+00 6.903975e-01
    endloop
  endfacet
  facet normal -3.174732e-01 5.498852e-01 -7.725523e-01
    outer loop
      vertex -1.050042e+00 4.001160e+00 5.177982e-01
      vertex -1.680058e+00 3.879914e+00 6.903975e-01
      vertex -8.400334e-01 4.364898e+00 6.903975e-01
    endloop
  endfacet
  facet normal -8.660211e-01 5.000075e-01 0.000000e+00
    outer loop
      vertex -1.050042e+00 4.001160e+00 5.177982e-01
      vertex -8.400334e-01 4.364898e+00 6.903975e-01
      vertex -8.400334e-01 4.364898e+00 3.451988e-01
    endloop
  endfacet
  facet normal -6.349483e-01 5.498869e-06 -7.725546e-01
    outer loop
      vertex -1.050042e+00 4.001160e+00 5.177982e-01
      vertex -8.400334e-01 4.364898e+00 3.451988e-01
      vertex -8.400418e-01 3.394930e+00 3.451988e-01
    endloop
  endfacet
  facet normal -2.179936e-16 1.752067e-01 -9.845317e-01
    outer loop
      vertex -1.260046e+00 4.364898e+00 7.767050e-01
      vertex -1.680058e+00 3.879914e+00 6.903975e-01
      vertex -1.680058e+00 4.849882e+00 8.630125e-01
    endloop
  endfacet
  facet normal 1.900627e-01 3.292015e-01 -9.249338e-01
    outer loop
      vertex -1.260046e+00 4.364898e+00 7.767050e-01
      vertex -1.680058e+00 4.849882e+00 8.630125e-01
      vertex -8.400334e-01 4.364898e+00 8.630125e-01
    endloop
  endfacet
  facet normal -0.000000e+00 1.000000e+00 0.000000e+00
    outer loop
      vertex -1.260046e+00 4.364898e+00 7.767050e-01
      vertex -8.400334e-01 4.364898e+00 8.630125e-01
      vertex -8.400334e-01 4.364898e+00 6.903975e-01
    endloop
  endfacet
  facet normal -1.900627e-01 3.292015e-01 -9.249338e-01
    outer loop
      vertex -1.260046e+00 4.364898e+00 7.767050e-01
      vertex -8.400334e-01 4.364898e+00 6.903975e-01
      vertex -1.680058e+00 3.879914e+00 6.903975e-01
    endloop
  endfacet
  facet normal 2.903654e-01 1.676459e-01 -9.421161e-01
    outer loop
      vertex -1.050042e+00 4.728636e+00 1.035612e+00
      vertex -1.680058e+00 4.849882e+00 8.630125e-01
      vertex -8.400418e-01 5.334866e+00 1.208211e+00
    endloop
  endfacet
  facet normal 6.349483e-01 5.498869e-06 -7.725546e-01
    outer loop
      vertex -1.050042e+00 4.728636e+00 1.035612e+00
      vertex -8.400418e-01 5.334866e+00 1.208211e+00
      vertex -8.400334e-01 4.364898e+00 1.208211e+00
    endloop
  endfacet
  facet normal 8.660211e-01 5.000075e-01 0.000000e+00
    outer loop
      vertex -1.050042e+00 4.728636e+00 1.035612e+00
      vertex -8.400334e-01 4.364898e+00 1.208211e+00
      vertex -8.400334e-01 4.364898e+00 8.630125e-01
    endloop
  endfacet
  facet normal 3.174732e-01 5.498852e-01 -7.725523e-01
    outer loop
      vertex -1.050042e+00 4.728636e+00 1.035612e+00
      vertex -8.400334e-01 4.364898e+00 8.630125e-01
      vertex -1.680058e+00 4.849882e+00 8.630125e-01
    endloop
  endfacet
  facet normal 1.517121e-01 -8.759453e-02 -9.845357e-01
    outer loop
      vertex -6.300209e-01 4.728636e+00 1.294511e+00
      vertex -8.400418e-01 5.334866e+00 1.208211e+00
      vertex 2.520075e-05 4.849882e+00 1.380811e+00
    endloop
  endfacet
  facet normal 1.900399e-01 -3.291752e-01 -9.249479e-01
    outer loop
      vertex -6.300209e-01 4.728636e+00 1.294511e+00
      vertex 2.520075e-05 4.849882e+00 1.380811e+00
      vertex -8.400334e-01 4.364898e+00 1.380811e+00
    endloop
  endfacet
  facet normal 8.660167e-01 -5.000150e-01 0.000000e+00
    outer loop
      vertex -6.300209e-01 4.728636e+00 1.294511e+00
      vertex -8.400334e-01 4.364898e+00 1.380811e+00
      vertex -8.400334e-01 4.364898e+00 1.208211e+00
    endloop
  endfacet
  facet normal 3.800818e-01 3.291638e-06 -9.249529e-01
    outer loop
      vertex -6.300209e-01 4.728636e+00 1.294511e+00
      vertex -8.400334e-01 4.364898e+00 1.208211e+00
      vertex -8.400418e-01 5.334866e+00 1.208211e+00
    endloop
  endfacet
  facet normal 1.517121e-01 -8.759453e-02 -9.845357e-01
    outer loop
      vertex 1.890054e+00 3.637379e-01 1.294511e+00
      vertex 1.680033e+00 9.699676e-01 1.208211e+00
      vertex 2.520100e+00 4.849838e-01 1.380811e+00
    endloop
  endfacet
  facet normal 1.900399e-01 -3.291752e-01 -9.249479e-01
    outer loop
      vertex 1.890054e+00 3.637379e-01 1.294511e+00
      vertex 2.520100e+00 4.849838e-01 1.380811e+00
      vertex 1.680042e+00 -5.417739e-17 1.380811e+00
    endloop
  endfacet
  facet normal 8.660167e-01 -5.000150e-01 0.000000e+00
    outer loop
      vertex 1.890054e+00 3.637379e-01 1.294511e+00
      vertex 1.680042e+00 -5.417739e-17 1.380811e+00
      vertex 1.680042e+00 -6.474606e-17 1.208211e+00
    endloop
  endfacet
  facet normal 3.800818e-01 3.291638e-06 -9.249529e-01
    outer loop
      vertex 1.890054e+00 3.637379e-01 1.294511e+00
      vertex 1.680042e+00 -6.474606e-17 1.208211e+00
      vertex 1.680033e+00 9.699676e-01 1.208211e+00
    endloop
  endfacet
  facet normal -3.209230e-17 -3.352868e-01 -9.421161e-01
    outer loop
      vertex 2.100058e+00 -7.731552e-17 1.553410e+00
      vertex 2.520100e+00 4.849838e-01 1.380811e+00
      vertex 2.520050e+00 -4.849838e-01 1.726009e+00
    endloop
  endfacet
  facet normal -3.174723e-01 -5.498726e-01 -7.725616e-01
    outer loop
      vertex 2.100058e+00 -7.731552e-17 1.553410e+00
      vertex 2.520050e+00 -4.849838e-01 1.726009e+00
      vertex 1.680042e+00 -3.304007e-17 1.726009e+00
    endloop
  endfacet
  facet normal -8.025106e-17 -1.000000e+00 6.123234e-17
    outer loop
      vertex 2.100058e+00 -7.731552e-17 1.553410e+00
      vertex 1.680042e+00 -3.304007e-17 1.726009e+00
      vertex 1.680042e+00 -5.417739e-17 1.380811e+00
    endloop
  endfacet
  facet normal 3.174665e-01 -5.498956e-01 -7.725476e-01
    outer loop
      vertex 2.100058e+00 -7.731552e-17 1.553410e+00
      vertex 1.680042e+00 -5.417739e-17 1.380811e+00
      vertex 2.520100e+00 4.849838e-01 1.380811e+00
    endloop
  endfacet
  facet normal -1.517210e-01 -8.759441e-02 -9.845344e-01
    outer loop
      vertex 1.890042e+00 -3.637379e-01 1.812309e+00
      vertex 2.520050e+00 -4.849838e-01 1.726009e+00
      vertex 1.680033e+00 -9.699676e-01 1.898609e+00
    endloop
  endfacet
  facet normal -3.801013e-01 3.291807e-06 -9.249449e-01
    outer loop
      vertex 1.890042e+00 -3.637379e-01 1.812309e+00
      vertex 1.680033e+00 -9.699676e-01 1.898609e+00
      vertex 1.680042e+00 -2.247140e-17 1.898609e+00
    endloop
  endfacet
  facet normal -8.660297e-01 -4.999925e-01 1.914367e-16
    outer loop
      vertex 1.890042e+00 -3.637379e-01 1.812309e+00
      vertex 1.680042e+00 -2.247140e-17 1.898609e+00
      vertex 1.680042e+00 -3.304007e-17 1.726009e+00
    endloop
  endfacet
  facet normal -1.900509e-01 -3.291745e-01 -9.249459e-01
    outer loop
      vertex 1.890042e+00 -3.637379e-01 1.812309e+00
      vertex 1.680042e+00 -3.304007e-17 1.726009e+00
      vertex 2.520050e+00 -4.849838e-01 1.726009e+00
    endloop
  endfacet
  facet normal -2.903654e-01 1.676459e-01 -9.421161e-01
    outer loop
      vertex 1.470033e+00 -3.637379e-01 2.071208e+00
      vertex 1.680033e+00 -9.699676e-01 1.898609e+00
      vertex 8.400166e-01 -4.849838e-01 2.243808e+00
    endloop
  endfacet
  facet normal -3.174732e-01 5.498852e-01 -7.725523e-01
    outer loop
      vertex 1.470033e+00 -3.637379e-01 2.071208e+00
      vertex 8.400166e-01 -4.849838e-01 2.243808e+00
      vertex 1.680042e+00 -1.334074e-18 2.243808e+00
    endloop
  endfacet
  facet normal -8.660211e-01 5.000075e-01 0.000000e+00
    outer loop
      vertex 1.470033e+00 -3.637379e-01 2.071208e+00
      vertex 1.680042e+00 -1.334074e-18 2.243808e+00
      vertex 1.680042e+00 -2.247140e-17 1.898609e+00
    endloop
  endfacet
  facet normal -6.349483e-01 5.498869e-06 -7.725546e-01
    outer loop
      vertex 1.470033e+00 -3.637379e-01 2.071208e+00
      vertex 1.680042e+00 -2.247140e-17 1.898609e+00
      vertex 1.680033e+00 -9.699676e-01 1.898609e+00
    endloop
  endfacet
  facet normal 5.030623e-16 1.752067e-01 -9.845317e-01
    outer loop
      vertex 1.260029e+00 -3.965800e-17 2.330115e+00
      vertex 8.400166e-01 -4.849838e-01 2.243808e+00
      vertex 8.400166e-01 4.849838e-01 2.416422e+00
    endloop
  endfacet
  facet normal 1.900627e-01 3.292015e-01 -9.249338e-01
    outer loop
      vertex 1.260029e+00 -3.965800e-17 2.330115e+00
      vertex 8.400166e-01 4.849838e-01 2.416422e+00
      vertex 1.680042e+00 9.235542e-18 2.416422e+00
    endloop
  endfacet
  facet normal -1.038272e-16 1.000000e+00 -6.123234e-17
    outer loop
      vertex 1.260029e+00 -3.965800e-17 2.330115e+00
      vertex 1.680042e+00 9.235542e-18 2.416422e+00
      vertex 1.680042e+00 -1.334074e-18 2.243808e+00
    endloop
  endfacet
  facet normal -1.900627e-01 3.292015e-01 -9.249338e-01
    outer loop
      vertex 1.260029e+00 -3.965800e-17 2.330115e+00
      vertex 1.680042e+00 -1.334074e-18 2.243808e+00
      vertex 8.400166e-01 -4.849838e-01 2.243808e+00
    endloop
  endfacet
  facet normal 1.517129e-01 -8.759322e-02 -9.845357e-01
    outer loop
      vertex 2.520088e+00 1.454959e+00 1.294511e+00
      vertex 2.520100e+00 4.849838e-01 1.380811e+00
      vertex 1.680033e+00 9.699676e-01 1.208211e+00
    endloop
  endfacet
  facet normal -1.517195e-06 1.751914e-01 -9.845344e-01
    outer loop
      vertex 2.520088e+00 1.454959e+00 1.294511e+00
      vertex 1.680033e+00 9.699676e-01 1.208211e+00
      vertex 1.680084e+00 1.939935e+00 1.380811e+00
    endloop
  endfacet
  facet normal -1.517210e-01 -8.759441e-02 -9.845344e-01
    outer loop
      vertex 2.520088e+00 1.454959e+00 1.294511e+00
      vertex 1.680084e+00 1.939935e+00 1.380811e+00
      vertex 2.520075e+00 2.424963e+00 1.208211e+00
    endloop
  endfacet
  facet normal 1.517144e-01 -8.759059e-02 -9.845357e-01
    outer loop
      vertex 2.520088e+00 1.454959e+00 1.294511e+00
      vertex 2.520075e+00 2.424963e+00 1.208211e+00
      vertex 3.360117e+00 1.939935e+00 1.380811e+00
    endloop
  endfacet
  facet normal 1.517195e-06 1.751914e-01 -9.845344e-01
    outer loop
      vertex 2.520088e+00 1.454959e+00 1.294511e+00
      vertex 3.360117e+00 1.939935e+00 1.380811e+00
      vertex 3.360117e+00 9.699676e-01 1.208211e+00
    endloop
  endfacet
  facet normal -1.517195e-01 -8.759704e-02 -9.845344e-01
    outer loop
      vertex 2.520088e+00 1.454959e+00 1.294511e+00
      vertex 3.360117e+00 9.699676e-01 1.208211e+00
      vertex 2.520100e+00 4.849838e-01 1.380811e+00
    endloop
  endfacet
  facet normal 1.517180e-06 1.751914e-01 -9.845344e-01
    outer loop
      vertex 1.260040e+00 1.454955e+00 1.294511e+00
      vertex 1.680084e+00 1.939935e+00 1.380811e+00
      vertex 1.680033e+00 9.699676e-01 1.208211e+00
    endloop
  endfacet
  facet normal 1.900486e-01 3.291673e-01 -9.249489e-01
    outer loop
      vertex 1.260040e+00 1.454955e+00 1.294511e+00
      vertex 1.680033e+00 9.699676e-01 1.208211e+00
      vertex 8.400208e-01 1.454959e+00 1.208211e+00
    endloop
  endfacet
  facet normal 8.660124e-06 1.000000e+00 0.000000e+00
    outer loop
      vertex 1.260040e+00 1.454955e+00 1.294511e+00
      vertex 8.400208e-01 1.454959e+00 1.208211e+00
      vertex 8.400208e-01 1.454959e+00 1.380811e+00
    endloop
  endfacet
  facet normal -1.900419e-01 3.291853e-01 -9.249439e-01
    outer loop
      vertex 1.260040e+00 1.454955e+00 1.294511e+00
      vertex 8.400208e-01 1.454959e+00 1.380811e+00
      vertex 1.680084e+00 1.939935e+00 1.380811e+00
    endloop
  endfacet
  facet normal 2.903683e-01 1.676409e-01 -9.421161e-01
    outer loop
      vertex 1.050023e+00 1.091217e+00 1.035612e+00
      vertex 1.680033e+00 9.699676e-01 1.208211e+00
      vertex 8.400166e-01 4.849838e-01 8.630125e-01
    endloop
  endfacet
  facet normal 6.349512e-01 -2.749426e-06 -7.725523e-01
    outer loop
      vertex 1.050023e+00 1.091217e+00 1.035612e+00
      vertex 8.400166e-01 4.849838e-01 8.630125e-01
      vertex 8.400208e-01 1.454959e+00 8.630125e-01
    endloop
  endfacet
  facet normal 8.660297e-01 4.999925e-01 0.000000e+00
    outer loop
      vertex 1.050023e+00 1.091217e+00 1.035612e+00
      vertex 8.400208e-01 1.454959e+00 8.630125e-01
      vertex 8.400208e-01 1.454959e+00 1.208211e+00
    endloop
  endfacet
  facet normal 3.174789e-01 5.498786e-01 -7.725546e-01
    outer loop
      vertex 1.050023e+00 1.091217e+00 1.035612e+00
      vertex 8.400208e-01 1.454959e+00 1.208211e+00
      vertex 1.680033e+00 9.699676e-01 1.208211e+00
    endloop
  endfacet
  facet normal 1.517335e-01 -8.760336e-02 -9.845317e-01
    outer loop
      vertex 6.300145e-01 1.091217e+00 7.767050e-01
      vertex 8.400166e-01 4.849838e-01 8.630125e-01
      vertex 3.587109e-16 9.699676e-01 6.903975e-01
    endloop
  endfacet
  facet normal 1.900655e-01 -3.291998e-01 -9.249338e-01
    outer loop
      vertex 6.300145e-01 1.091217e+00 7.767050e-01
      vertex 3.587109e-16 9.699676e-01 6.903975e-01
      vertex 8.400208e-01 1.454959e+00 6.903975e-01
    endloop
  endfacet
  facet normal 8.660254e-01 -5.000000e-01 0.000000e+00
    outer loop
      vertex 6.300145e-01 1.091217e+00 7.767050e-01
      vertex 8.400208e-01 1.454959e+00 6.903975e-01
      vertex 8.400208e-01 1.454959e+00 8.630125e-01
    endloop
  endfacet
  facet normal 3.801282e-01 -1.646007e-06 -9.249338e-01
    outer loop
      vertex 6.300145e-01 1.091217e+00 7.767050e-01
      vertex 8.400208e-01 1.454959e+00 8.630125e-01
      vertex 8.400166e-01 4.849838e-01 8.630125e-01
    endloop
  endfacet
  facet normal 2.903683e-06 -3.352868e-01 -9.421161e-01
    outer loop
      vertex 4.200104e-01 1.454955e+00 5.177982e-01
      vertex 3.587109e-16 9.699676e-01 6.903975e-01
      vertex 6.540098e-16 1.939935e+00 3.451988e-01
    endloop
  endfacet
  facet normal -3.174694e-01 -5.498841e-01 -7.725546e-01
    outer loop
      vertex 4.200104e-01 1.454955e+00 5.177982e-01
      vertex 6.540098e-16 1.939935e+00 3.451988e-01
      vertex 8.400208e-01 1.454959e+00 3.451988e-01
    endloop
  endfacet
  facet normal 8.660297e-06 -1.000000e+00 0.000000e+00
    outer loop
      vertex 4.200104e-01 1.454955e+00 5.177982e-01
      vertex 8.400208e-01 1.454959e+00 3.451988e-01
      vertex 8.400208e-01 1.454959e+00 6.903975e-01
    endloop
  endfacet
  facet normal 3.174780e-01 -5.498825e-01 -7.725523e-01
    outer loop
      vertex 4.200104e-01 1.454955e+00 5.177982e-01
      vertex 8.400208e-01 1.454959e+00 6.903975e-01
      vertex 3.587109e-16 9.699676e-01 6.903975e-01
    endloop
  endfacet
  facet normal -1.517195e-01 -8.759704e-02 -9.845344e-01
    outer loop
      vertex 6.300082e-01 1.818704e+00 2.588991e-01
      vertex 6.540098e-16 1.939935e+00 3.451988e-01
      vertex 8.399914e-01 2.424963e+00 1.725994e-01
    endloop
  endfacet
  facet normal -3.801038e-01 -1.152097e-05 -9.249439e-01
    outer loop
      vertex 6.300082e-01 1.818704e+00 2.588991e-01
      vertex 8.399914e-01 2.424963e+00 1.725994e-01
      vertex 8.400208e-01 1.454959e+00 1.725994e-01
    endloop
  endfacet
  facet normal -8.660211e-01 -5.000075e-01 0.000000e+00
    outer loop
      vertex 6.300082e-01 1.818704e+00 2.588991e-01
      vertex 8.400208e-01 1.454959e+00 1.725994e-01
      vertex 8.400208e-01 1.454959e+00 3.451988e-01
    endloop
  endfacet
  facet normal -1.900429e-01 -3.291706e-01 -9.249489e-01
    outer loop
      vertex 6.300082e-01 1.818704e+00 2.588991e-01
      vertex 8.400208e-01 1.454959e+00 3.451988e-01
      vertex 6.540098e-16 1.939935e+00 3.451988e-01
    endloop
  endfacet
  facet normal 1.517121e-01 -8.759453e-02 -9.845357e-01
    outer loop
      vertex 6.300209e-01 4.001160e+00 2.588991e-01
      vertex 8.400418e-01 3.394930e+00 3.451988e-01
      vertex -2.520075e-05 3.879914e+00 1.725994e-01
    endloop
  endfacet
  facet normal 1.900399e-01 -3.291752e-01 -9.249479e-01
    outer loop
      vertex 6.300209e-01 4.001160e+00 2.588991e-01
      vertex -2.520075e-05 3.879914e+00 1.725994e-01
      vertex 8.400334e-01 4.364898e+00 1.725994e-01
    endloop
  endfacet
  facet normal 8.660167e-01 -5.000150e-01 0.000000e+00
    outer loop
      vertex 6.300209e-01 4.001160e+00 2.588991e-01
      vertex 8.400334e-01 4.364898e+00 1.725994e-01
      vertex 8.400334e-01 4.364898e+00 3.451988e-01
    endloop
  endfacet
  facet normal 3.800818e-01 3.291638e-06 -9.249529e-01
    outer loop
      vertex 6.300209e-01 4.001160e+00 2.588991e-01
      vertex 8.400334e-01 4.364898e+00 3.451988e-01
      vertex 8.400418e-01 3.394930e+00 3.451988e-01
    endloop
  endfacet
  facet normal 1.283692e-16 -3.352868e-01 -9.421161e-01
    outer loop
      vertex 4.200167e-01 4.364898e+00 -4.857226e-17
      vertex -2.520075e-05 3.879914e+00 1.725994e-01
      vertex 2.520075e-05 4.849882e+00 -1.725994e-01
    endloop
  endfacet
  facet normal -3.174723e-01 -5.498726e-01 -7.725616e-01
    outer loop
      vertex 4.200167e-01 4.364898e+00 -4.857226e-17
      vertex 2.520075e-05 4.849882e+00 -1.725994e-01
      vertex 8.400334e-01 4.364898e+00 -1.725994e-01
    endloop
  endfacet
  facet normal 0.000000e+00 -1.000000e+00 0.000000e+00
    outer loop
      vertex 4.200167e-01 4.364898e+00 -4.857226e-17
      vertex 8.400334e-01 4.364898e+00 -1.725994e-01
      vertex 8.400334e-01 4.364898e+00 1.725994e-01
    endloop
  endfacet
  facet normal 3.174665e-01 -5.498956e-01 -7.725476e-01
    outer loop
      vertex 4.200167e-01 4.364898e+00 -4.857226e-17
      vertex 8.400334e-01 4.364898e+00 1.725994e-01
      vertex -2.520075e-05 3.879914e+00 1.725994e-01
    endloop
  endfacet
  facet normal -1.517210e-01 -8.759441e-02 -9.845344e-01
    outer loop
      vertex 6.300335e-01 4.728636e+00 -2.588991e-01
      vertex 2.520075e-05 4.849882e+00 -1.725994e-01
      vertex 8.400418e-01 5.334866e+00 -3.451988e-01
    endloop
  endfacet
  facet normal -3.801013e-01 3.291807e-06 -9.249449e-01
    outer loop
      vertex 6.300335e-01 4.728636e+00 -2.588991e-01
      vertex 8.400418e-01 5.334866e+00 -3.451988e-01
      vertex 8.400334e-01 4.364898e+00 -3.451988e-01
    endloop
  endfacet
  facet normal -8.660297e-01 -4.999925e-01 0.000000e+00
    outer loop
      vertex 6.300335e-01 4.728636e+00 -2.588991e-01
      vertex 8.400334e-01 4.364898e+00 -3.451988e-01
      vertex 8.400334e-01 4.364898e+00 -1.725994e-01
    endloop
  endfacet
  facet normal -1.900509e-01 -3.291745e-01 -9.249459e-01
    outer loop
      vertex 6.300335e-01 4.728636e+00 -2.588991e-01
      vertex 8.400334e-01 4.364898e+00 -1.725994e-01
      vertex 2.520075e-05 4.849882e+00 -1.725994e-01
    endloop
  endfacet
  facet normal -2.903654e-01 1.676459e-01 -9.421161e-01
    outer loop
      vertex 1.050042e+00 4.728636e+00 -5.177982e-01
      vertex 8.400418e-01 5.334866e+00 -3.451988e-01
      vertex 1.680058e+00 4.849882e+00 -6.903975e-01
    endloop
  endfacet
  facet normal -3.174732e-01 5.498852e-01 -7.725523e-01
    outer loop
      vertex 1.050042e+00 4.728636e+00 -5.177982e-01
      vertex 1.680058e+00 4.849882e+00 -6.903975e-01
      vertex 8.400334e-01 4.364898e+00 -6.903975e-01
    endloop
  endfacet
  facet normal -8.660211e-01 5.000075e-01 0.000000e+00
    outer loop
      vertex 1.050042e+00 4.728636e+00 -5.177982e-01
      vertex 8.400334e-01 4.364898e+00 -6.903975e-01
      vertex 8.400334e-01 4.364898e+00 -3.451988e-01
    endloop
  endfacet
  facet normal -6.349483e-01 5.498869e-06 -7.725546e-01
    outer loop
      vertex 1.050042e+00 4.728636e+00 -5.177982e-01
      vertex 8.400334e-01 4.364898e+00 -3.451988e-01
      vertex 8.400418e-01 5.334866e+00 -3.451988e-01
    endloop
  endfacet
  facet normal -5.030623e-17 1.752067e-01 -9.845317e-01
    outer loop
      vertex 1.260046e+00 4.364898e+00 -7.767050e-01
      vertex 1.680058e+00 4.849882e+00 -6.903975e-01
      vertex 1.680058e+00 3.879914e+00 -8.630125e-01
    endloop
  endfacet
  facet normal 1.900627e-01 3.292015e-01 -9.249338e-01
    outer loop
      vertex 1.260046e+00 4.364898e+00 -7.767050e-01
      vertex 1.680058e+00 3.879914e+00 -8.630125e-01
      vertex 8.400334e-01 4.364898e+00 -8.630125e-01
    endloop
  endfacet
  facet normal 0.000000e+00 1.000000e+00 0.000000e+00
    outer loop
      vertex 1.260046e+00 4.364898e+00 -7.767050e-01
      vertex 8.400334e-01 4.364898e+00 -8.630125e-01
      vertex 8.400334e-01 4.364898e+00 -6.903975e-01
    endloop
  endfacet
  facet normal -1.900627e-01 3.292015e-01 -9.249338e-01
    outer loop
      vertex 1.260046e+00 4.364898e+00 -7.767050e-01
      vertex 8.400334e-01 4.364898e+00 -6.903975e-01
      vertex 1.680058e+00 4.849882e+00 -6.903975e-01
    endloop
  endfacet
  facet normal -1.517335e-01 -8.760336e-02 -9.845317e-01
    outer loop
      vertex -2.520075e+00 4.364898e+00 7.767050e-01
      vertex -1.680058e+00 3.879914e+00 6.903975e-01
      vertex -2.520075e+00 3.394930e+00 8.630125e-01
    endloop
  endfacet
  facet normal 1.517335e-01 -8.760336e-02 -9.845317e-01
    outer loop
      vertex -2.520075e+00 4.364898e+00 7.767050e-01
      vertex -2.520075e+00 3.394930e+00 8.630125e-01
      vertex -3.360092e+00 3.879914e+00 6.903975e-01
    endloop
  endfacet
  facet normal 2.515336e-17 1.752067e-01 -9.845317e-01
    outer loop
      vertex -2.520075e+00 4.364898e+00 7.767050e-01
      vertex -3.360092e+00 3.879914e+00 6.903975e-01
      vertex -3.360092e+00 4.849882e+00 8.630125e-01
    endloop
  endfacet
  facet normal -1.517335e-01 -8.760336e-02 -9.845317e-01
    outer loop
      vertex -2.520075e+00 4.364898e+00 7.767050e-01
      vertex -3.360092e+00 4.849882e+00 8.630125e-01
      vertex -2.520075e+00 5.334866e+00 6.903975e-01
    endloop
  endfacet
  facet normal 1.517335e-01 -8.760336e-02 -9.845317e-01
    outer loop
      vertex -2.520075e+00 4.364898e+00 7.767050e-01
      vertex -2.520075e+00 5.334866e+00 6.903975e-01
      vertex -1.680058e+00 4.849882e+00 8.630125e-01
    endloop
  endfacet
  facet normal -2.515336e-17 1.752067e-01 -9.845317e-01
    outer loop
      vertex -2.520075e+00 4.364898e+00 7.767050e-01
      vertex -1.680058e+00 4.849882e+00 8.630125e-01
      vertex -1.680058e+00 3.879914e+00 6.903975e-01
    endloop
  endfacet
  facet normal -1.517335e-01 -8.760336e-02 -9.845317e-01
    outer loop
      vertex 3.150090e+00 3.273681e+00 7.767050e-01
      vertex 2.520075e+00 3.394930e+00 8.630125e-01
      vertex 3.360092e+00 3.879914e+00 6.903975e-01
    endloop
  endfacet
  facet normal -3.801282e-01 -1.646007e-06 -9.249338e-01
    outer loop
      vertex 3.150090e+00 3.273681e+00 7.767050e-01
      vertex 3.360092e+00 3.879914e+00 6.903975e-01
      vertex 3.360096e+00 2.909939e+00 6.903975e-01
    endloop
  endfacet
  facet normal -8.660254e-01 -5.000000e-01 0.000000e+00
    outer loop
      vertex 3.150090e+00 3.273681e+00 7.767050e-01
      vertex 3.360096e+00 2.909939e+00 6.903975e-01
      vertex 3.360096e+00 2.909939e+00 8.630125e-01
    endloop
  endfacet
  facet normal -1.900655e-01 -3.291998e-01 -9.249338e-01
    outer loop
      vertex 3.150090e+00 3.273681e+00 7.767050e-01
      vertex 3.360096e+00 2.909939e+00 8.630125e-01
      vertex 2.520075e+00 3.394930e+00 8.630125e-01
    endloop
  endfacet
  facet normal -2.903683e-01 1.676409e-01 -9.421161e-01
    outer loop
      vertex 3.570098e+00 3.273681e+00 5.177982e-01
      vertex 3.360092e+00 3.879914e+00 6.903975e-01
      vertex 4.200108e+00 3.394930e+00 3.451988e-01
    endloop
  endfacet
  facet normal -3.174789e-01 5.498786e-01 -7.725546e-01
    outer loop
      vertex 3.570098e+00 3.273681e+00 5.177982e-01
      vertex 4.200108e+00 3.394930e+00 3.451988e-01
      vertex 3.360096e+00 2.909939e+00 3.451988e-01
    endloop
  endfacet
  facet normal -8.660297e-01 4.999925e-01 0.000000e+00
    outer loop
      vertex 3.570098e+00 3.273681e+00 5.177982e-01
      vertex 3.360096e+00 2.909939e+00 3.451988e-01
      vertex 3.360096e+00 2.909939e+00 6.903975e-01
    endloop
  endfacet
  facet normal -6.349512e-01 -2.749426e-06 -7.725523e-01
    outer loop
      vertex 3.570098e+00 3.273681e+00 5.177982e-01
      vertex 3.360096e+00 2.909939e+00 6.903975e-01
      vertex 3.360092e+00 3.879914e+00 6.903975e-01
    endloop
  endfacet
  facet normal -1.517225e-06 1.751914e-01 -9.845344e-01
    outer loop
      vertex 3.780102e+00 2.909943e+00 2.588991e-01
      vertex 4.200108e+00 3.394930e+00 3.451988e-01
      vertex 4.200108e+00 2.424963e+00 1.725994e-01
    endloop
  endfacet
  facet normal 1.900480e-01 3.291761e-01 -9.249459e-01
    outer loop
      vertex 3.780102e+00 2.909943e+00 2.588991e-01
      vertex 4.200108e+00 2.424963e+00 1.725994e-01
      vertex 3.360096e+00 2.909939e+00 1.725994e-01
    endloop
  endfacet
  facet normal -8.660384e-06 1.000000e+00 0.000000e+00
    outer loop
      vertex 3.780102e+00 2.909943e+00 2.588991e-01
      vertex 3.360096e+00 2.909939e+00 1.725994e-01
      vertex 3.360096e+00 2.909939e+00 3.451988e-01
    endloop
  endfacet
  facet normal -1.900535e-01 3.291758e-01 -9.249449e-01
    outer loop
      vertex 3.780102e+00 2.909943e+00 2.588991e-01
      vertex 3.360096e+00 2.909939e+00 3.451988e-01
      vertex 4.200108e+00 3.394930e+00 3.451988e-01
    endloop
  endfacet
  facet normal 2.903669e-01 1.676434e-01 -9.421161e-01
    outer loop
      vertex 3.570104e+00 2.546194e+00 -3.469447e-17
      vertex 4.200108e+00 2.424963e+00 1.725994e-01
      vertex 3.360117e+00 1.939935e+00 -1.725994e-01
    endloop
  endfacet
  facet normal 6.349569e-01 1.374684e-05 -7.725476e-01
    outer loop
      vertex 3.570104e+00 2.546194e+00 -3.469447e-17
      vertex 3.360117e+00 1.939935e+00 -1.725994e-01
      vertex 3.360096e+00 2.909939e+00 -1.725994e-01
    endloop
  endfacet
  facet normal 8.660254e-01 5.000000e-01 0.000000e+00
    outer loop
      vertex 3.570104e+00 2.546194e+00 -3.469447e-17
      vertex 3.360096e+00 2.909939e+00 -1.725994e-01
      vertex 3.360096e+00 2.909939e+00 1.725994e-01
    endloop
  endfacet
  facet normal 3.174675e-01 5.498754e-01 -7.725616e-01
    outer loop
      vertex 3.570104e+00 2.546194e+00 -3.469447e-17
      vertex 3.360096e+00 2.909939e+00 1.725994e-01
      vertex 4.200108e+00 2.424963e+00 1.725994e-01
    endloop
  endfacet
  facet normal 1.517151e-01 -8.758927e-02 -9.845357e-01
    outer loop
      vertex 3.150096e+00 2.546194e+00 -2.588991e-01
      vertex 3.360117e+00 1.939935e+00 -1.725994e-01
      vertex 2.520075e+00 2.424963e+00 -3.451988e-01
    endloop
  endfacet
  facet normal 1.900381e-01 -3.291622e-01 -9.249529e-01
    outer loop
      vertex 3.150096e+00 2.546194e+00 -2.588991e-01
      vertex 2.520075e+00 2.424963e+00 -3.451988e-01
      vertex 3.360096e+00 2.909939e+00 -3.451988e-01
    endloop
  endfacet
  facet normal 8.660341e-01 -4.999850e-01 0.000000e+00
    outer loop
      vertex 3.150096e+00 2.546194e+00 -2.588991e-01
      vertex 3.360096e+00 2.909939e+00 -3.451988e-01
      vertex 3.360096e+00 2.909939e+00 -1.725994e-01
    endloop
  endfacet
  facet normal 3.800940e-01 8.229050e-06 -9.249479e-01
    outer loop
      vertex 3.150096e+00 2.546194e+00 -2.588991e-01
      vertex 3.360096e+00 2.909939e+00 -1.725994e-01
      vertex 3.360117e+00 1.939935e+00 -1.725994e-01
    endloop
  endfacet
  facet normal -1.517210e-01 -8.759441e-02 -9.845344e-01
    outer loop
      vertex 3.150108e+00 3.637379e-01 1.294511e+00
      vertex 2.520100e+00 4.849838e-01 1.380811e+00
      vertex 3.360117e+00 9.699676e-01 1.208211e+00
    endloop
  endfacet
  facet normal -3.801013e-01 3.291807e-06 -9.249449e-01
    outer loop
      vertex 3.150108e+00 3.637379e-01 1.294511e+00
      vertex 3.360117e+00 9.699676e-01 1.208211e+00
      vertex 3.360108e+00 -1.058530e-17 1.208211e+00
    endloop
  endfacet
  facet normal -8.660297e-01 -4.999925e-01 0.000000e+00
    outer loop
      vertex 3.150108e+00 3.637379e-01 1.294511e+00
      vertex 3.360108e+00 -1.058530e-17 1.208211e+00
      vertex 3.360108e+00 -1.663377e-20 1.380811e+00
    endloop
  endfacet
  facet normal -1.900509e-01 -3.291745e-01 -9.249459e-01
    outer loop
      vertex 3.150108e+00 3.637379e-01 1.294511e+00
      vertex 3.360108e+00 -1.663377e-20 1.380811e+00
      vertex 2.520100e+00 4.849838e-01 1.380811e+00
    endloop
  endfacet
  facet normal -2.903654e-01 1.676459e-01 -9.421161e-01
    outer loop
      vertex 3.570117e+00 3.637379e-01 1.035612e+00
      vertex 3.360117e+00 9.699676e-01 1.208211e+00
      vertex 4.200133e+00 4.849838e-01 8.630125e-01
    endloop
  endfacet
  facet normal -3.174732e-01 5.498852e-01 -7.725523e-01
    outer loop
      vertex 3.570117e+00 3.637379e-01 1.035612e+00
      vertex 4.200133e+00 4.849838e-01 8.630125e-01
      vertex 3.360108e+00 -3.172263e-17 8.630125e-01
    endloop
  endfacet
  facet normal -8.660211e-01 5.000075e-01 0.000000e+00
    outer loop
      vertex 3.570117e+00 3.637379e-01 1.035612e+00
      vertex 3.360108e+00 -3.172263e-17 8.630125e-01
      vertex 3.360108e+00 -1.058530e-17 1.208211e+00
    endloop
  endfacet
  facet normal -6.349483e-01 5.498869e-06 -7.725546e-01
    outer loop
      vertex 3.570117e+00 3.637379e-01 1.035612e+00
      vertex 3.360108e+00 -1.058530e-17 1.208211e+00
      vertex 3.360117e+00 9.699676e-01 1.208211e+00
    endloop
  endfacet
  facet normal 1.509187e-16 1.752067e-01 -9.845317e-01
    outer loop
      vertex 3.780121e+00 -8.789266e-17 7.767050e-01
      vertex 4.200133e+00 4.849838e-01 8.630125e-01
      vertex 4.200133e+00 -4.849838e-01 6.903975e-01
    endloop
  endfacet
  facet normal 1.900627e-01 3.292015e-01 -9.249338e-01
    outer loop
      vertex 3.780121e+00 -8.789266e-17 7.767050e-01
      vertex 4.200133e+00 -4.849838e-01 6.903975e-01
      vertex 3.360108e+00 -4.229224e-17 6.903975e-01
    endloop
  endfacet
  facet normal 1.211517e-16 1.000000e+00 -6.123234e-17
    outer loop
      vertex 3.780121e+00 -8.789266e-17 7.767050e-01
      vertex 3.360108e+00 -4.229224e-17 6.903975e-01
      vertex 3.360108e+00 -3.172263e-17 8.630125e-01
    endloop
  endfacet
  facet normal -1.900627e-01 3.292015e-01 -9.249338e-01
    outer loop
      vertex 3.780121e+00 -8.789266e-17 7.767050e-01
      vertex 3.360108e+00 -3.172263e-17 8.630125e-01
      vertex 4.200133e+00 4.849838e-01 8.630125e-01
    endloop
  endfacet
  facet normal 2.903654e-01 1.676459e-01 -9.421161e-01
    outer loop
      vertex 3.570117e+00 -3.637379e-01 5.177982e-01
      vertex 4.200133e+00 -4.849838e-01 6.903975e-01
      vertex 3.360117e+00 -9.699676e-01 3.451988e-01
    endloop
  endfacet
  facet normal 6.349483e-01 5.498869e-06 -7.725546e-01
    outer loop
      vertex 3.570117e+00 -3.637379e-01 5.177982e-01
      vertex 3.360117e+00 -9.699676e-01 3.451988e-01
      vertex 3.360108e+00 -6.342957e-17 3.451988e-01
    endloop
  endfacet
  facet normal 8.660211e-01 5.000075e-01 0.000000e+00
    outer loop
      vertex 3.570117e+00 -3.637379e-01 5.177982e-01
      vertex 3.360108e+00 -6.342957e-17 3.451988e-01
      vertex 3.360108e+00 -4.229224e-17 6.903975e-01
    endloop
  endfacet
  facet normal 3.174732e-01 5.498852e-01 -7.725523e-01
    outer loop
      vertex 3.570117e+00 -3.637379e-01 5.177982e-01
      vertex 3.360108e+00 -4.229224e-17 6.903975e-01
      vertex 4.200133e+00 -4.849838e-01 6.903975e-01
    endloop
  endfacet
  facet normal 1.517121e-01 -8.759453e-02 -9.845357e-01
    outer loop
      vertex 3.150096e+00 -3.637379e-01 2.588991e-01
      vertex 3.360117e+00 -9.699676e-01 3.451988e-01
      vertex 2.520050e+00 -4.849838e-01 1.725994e-01
    endloop
  endfacet
  facet normal 1.900399e-01 -3.291752e-01 -9.249479e-01
    outer loop
      vertex 3.150096e+00 -3.637379e-01 2.588991e-01
      vertex 2.520050e+00 -4.849838e-01 1.725994e-01
      vertex 3.360108e+00 -7.399823e-17 1.725994e-01
    endloop
  endfacet
  facet normal 8.660167e-01 -5.000150e-01 0.000000e+00
    outer loop
      vertex 3.150096e+00 -3.637379e-01 2.588991e-01
      vertex 3.360108e+00 -7.399823e-17 1.725994e-01
      vertex 3.360108e+00 -6.342957e-17 3.451988e-01
    endloop
  endfacet
  facet normal 3.800818e-01 3.291638e-06 -9.249529e-01
    outer loop
      vertex 3.150096e+00 -3.637379e-01 2.588991e-01
      vertex 3.360108e+00 -6.342957e-17 3.451988e-01
      vertex 3.360117e+00 -9.699676e-01 3.451988e-01
    endloop
  endfacet
  facet normal 2.515336e-17 1.752067e-01 -9.845317e-01
    outer loop
      vertex 2.520075e+00 4.364898e+00 7.767050e-01
      vertex 1.680058e+00 3.879914e+00 6.903975e-01
      vertex 1.680058e+00 4.849882e+00 8.630125e-01
    endloop
  endfacet
  facet normal -1.517335e-01 -8.760336e-02 -9.845317e-01
    outer loop
      vertex 2.520075e+00 4.364898e+00 7.767050e-01
      vertex 1.680058e+00 4.849882e+00 8.630125e-01
      vertex 2.520075e+00 5.334866e+00 6.903975e-01
    endloop
  endfacet
  facet normal 1.517335e-01 -8.760336e-02 -9.845317e-01
    outer loop
      vertex 2.520075e+00 4.364898e+00 7.767050e-01
      vertex 2.520075e+00 5.334866e+00 6.903975e-01
      vertex 3.360092e+00 4.849882e+00 8.630125e-01
    endloop
  endfacet
  facet normal -2.515336e-17 1.752067e-01 -9.845317e-01
    outer loop
      vertex 2.520075e+00 4.364898e+00 7.767050e-01
      vertex 3.360092e+00 4.849882e+00 8.630125e-01
      vertex 3.360092e+00 3.879914e+00 6.903975e-01
    endloop
  endfacet
  facet normal -1.517335e-01 -8.760336e-02 -9.845317e-01
    outer loop
      vertex 2.520075e+00 4.364898e+00 7.767050e-01
      vertex 3.360092e+00 3.879914e+00 6.903975e-01
      vertex 2.520075e+00 3.394930e+00 8.630125e-01
    endloop
  endfacet
  facet normal 1.517335e-01 -8.760336e-02 -9.845317e-01
    outer loop
      vertex 2.520075e+00 4.364898e+00 7.767050e-01
      vertex 2.520075e+00 3.394930e+00 8.630125e-01
      vertex 1.680058e+00 3.879914e+00 6.903975e-01
    endloop
  endfacet
  facet normal -1.517225e-06 1.751914e-01 -9.845344e-01
    outer loop
      vertex 3.780123e+00 1.454955e+00 1.294511e+00
      vertex 3.360117e+00 9.699676e-01 1.208211e+00
      vertex 3.360117e+00 1.939935e+00 1.380811e+00
    endloop
  endfacet
  facet normal 1.900480e-01 3.291761e-01 -9.249459e-01
    outer loop
      vertex 3.780123e+00 1.454955e+00 1.294511e+00
      vertex 3.360117e+00 1.939935e+00 1.380811e+00
      vertex 4.200129e+00 1.454959e+00 1.380811e+00
    endloop
  endfacet
  facet normal -8.660384e-06 1.000000e+00 0.000000e+00
    outer loop
      vertex 3.780123e+00 1.454955e+00 1.294511e+00
      vertex 4.200129e+00 1.454959e+00 1.380811e+00
      vertex 4.200129e+00 1.454959e+00 1.208211e+00
    endloop
  endfacet
  facet normal -1.900535e-01 3.291758e-01 -9.249449e-01
    outer loop
      vertex 3.780123e+00 1.454955e+00 1.294511e+00
      vertex 4.200129e+00 1.454959e+00 1.208211e+00
      vertex 3.360117e+00 9.699676e-01 1.208211e+00
    endloop
  endfacet
  facet normal 2.903669e-01 1.676434e-01 -9.421161e-01
    outer loop
      vertex 3.990121e+00 1.818704e+00 1.553410e+00
      vertex 3.360117e+00 1.939935e+00 1.380811e+00
      vertex 4.200108e+00 2.424963e+00 1.726009e+00
    endloop
  endfacet
  facet normal 6.349569e-01 1.374684e-05 -7.725476e-01
    outer loop
      vertex 3.990121e+00 1.818704e+00 1.553410e+00
      vertex 4.200108e+00 2.424963e+00 1.726009e+00
      vertex 4.200129e+00 1.454959e+00 1.726009e+00
    endloop
  endfacet
  facet normal 8.660254e-01 5.000000e-01 0.000000e+00
    outer loop
      vertex 3.990121e+00 1.818704e+00 1.553410e+00
      vertex 4.200129e+00 1.454959e+00 1.726009e+00
      vertex 4.200129e+00 1.454959e+00 1.380811e+00
    endloop
  endfacet
  facet normal 3.174675e-01 5.498754e-01 -7.725616e-01
    outer loop
      vertex 3.990121e+00 1.818704e+00 1.553410e+00
      vertex 4.200129e+00 1.454959e+00 1.380811e+00
      vertex 3.360117e+00 1.939935e+00 1.380811e+00
    endloop
  endfacet
  facet normal 1.517151e-01 -8.758927e-02 -9.845357e-01
    outer loop
      vertex 4.410129e+00 1.818704e+00 1.812309e+00
      vertex 4.200108e+00 2.424963e+00 1.726009e+00
      vertex 5.040150e+00 1.939935e+00 1.898609e+00
    endloop
  endfacet
  facet normal 1.900381e-01 -3.291622e-01 -9.249529e-01
    outer loop
      vertex 4.410129e+00 1.818704e+00 1.812309e+00
      vertex 5.040150e+00 1.939935e+00 1.898609e+00
      vertex 4.200129e+00 1.454959e+00 1.898609e+00
    endloop
  endfacet
  facet normal 8.660341e-01 -4.999850e-01 0.000000e+00
    outer loop
      vertex 4.410129e+00 1.818704e+00 1.812309e+00
      vertex 4.200129e+00 1.454959e+00 1.898609e+00
      vertex 4.200129e+00 1.454959e+00 1.726009e+00
    endloop
  endfacet
  facet normal 3.800940e-01 8.229050e-06 -9.249479e-01
    outer loop
      vertex 4.410129e+00 1.818704e+00 1.812309e+00
      vertex 4.200129e+00 1.454959e+00 1.726009e+00
      vertex 4.200108e+00 2.424963e+00 1.726009e+00
    endloop
  endfacet
  facet normal -2.903683e-06 -3.352868e-01 -9.421161e-01
    outer loop
      vertex 4.620140e+00 1.454955e+00 2.071208e+00
      vertex 5.040150e+00 1.939935e+00 1.898609e+00
      vertex 5.040150e+00 9.699676e-01 2.243808e+00
    endloop
  endfacet
  facet normal -3.174780e-01 -5.498825e-01 -7.725523e-01
    outer loop
      vertex 4.620140e+00 1.454955e+00 2.071208e+00
      vertex 5.040150e+00 9.699676e-01 2.243808e+00
      vertex 4.200129e+00 1.454959e+00 2.243808e+00
    endloop
  endfacet
  facet normal -8.660297e-06 -1.000000e+00 0.000000e+00
    outer loop
      vertex 4.620140e+00 1.454955e+00 2.071208e+00
      vertex 4.200129e+00 1.454959e+00 2.243808e+00
      vertex 4.200129e+00 1.454959e+00 1.898609e+00
    endloop
  endfacet
  facet normal 3.174694e-01 -5.498841e-01 -7.725546e-01
    outer loop
      vertex 4.620140e+00 1.454955e+00 2.071208e+00
      vertex 4.200129e+00 1.454959e+00 1.898609e+00
      vertex 5.040150e+00 1.939935e+00 1.898609e+00
    endloop
  endfacet
  facet normal -1.517335e-01 -8.760336e-02 -9.845317e-01
    outer loop
      vertex 4.410135e+00 1.091217e+00 2.330115e+00
      vertex 5.040150e+00 9.699676e-01 2.243808e+00
      vertex 4.200133e+00 4.849838e-01 2.416422e+00
    endloop
  endfacet
  facet normal -3.801282e-01 -1.646007e-06 -9.249338e-01
    outer loop
      vertex 4.410135e+00 1.091217e+00 2.330115e+00
      vertex 4.200133e+00 4.849838e-01 2.416422e+00
      vertex 4.200129e+00 1.454959e+00 2.416422e+00
    endloop
  endfacet
  facet normal -8.660254e-01 -5.000000e-01 0.000000e+00
    outer loop
      vertex 4.410135e+00 1.091217e+00 2.330115e+00
      vertex 4.200129e+00 1.454959e+00 2.416422e+00
      vertex 4.200129e+00 1.454959e+00 2.243808e+00
    endloop
  endfacet
  facet normal -1.900655e-01 -3.291998e-01 -9.249338e-01
    outer loop
      vertex 4.410135e+00 1.091217e+00 2.330115e+00
      vertex 4.200129e+00 1.454959e+00 2.243808e+00
      vertex 5.040150e+00 9.699676e-01 2.243808e+00
    endloop
  endfacet
  facet normal 1.517151e-01 -8.758927e-02 -9.845357e-01
    outer loop
      vertex 3.150096e+00 2.546194e+00 1.294511e+00
      vertex 3.360117e+00 1.939935e+00 1.380811e+00
      vertex 2.520075e+00 2.424963e+00 1.208211e+00
    endloop
  endfacet
  facet normal 1.900381e-01 -3.291622e-01 -9.249529e-01
    outer loop
      vertex 3.150096e+00 2.546194e+00 1.294511e+00
      vertex 2.520075e+00 2.424963e+00 1.208211e+00
      vertex 3.360096e+00 2.909939e+00 1.208211e+00
    endloop
  endfacet
  facet normal 8.660341e-01 -4.999850e-01 0.000000e+00
    outer loop
      vertex 3.150096e+00 2.546194e+00 1.294511e+00
      vertex 3.360096e+00 2.909939e+00 1.208211e+00
      vertex 3.360096e+00 2.909939e+00 1.380811e+00
    endloop
  endfacet
  facet normal 3.800940e-01 8.229050e-06 -9.249479e-01
    outer loop
      vertex 3.150096e+00 2.546194e+00 1.294511e+00
      vertex 3.360096e+00 2.909939e+00 1.380811e+00
      vertex 3.360117e+00 1.939935e+00 1.380811e+00
    endloop
  endfacet
  facet normal -2.903683e-06 -3.352868e-01 -9.421161e-01
    outer loop
      vertex 2.940085e+00 2.909943e+00 1.035612e+00
      vertex 2.520075e+00 2.424963e+00 1.208211e+00
      vertex 2.520075e+00 3.394930e+00 8.630125e-01
    endloop
  endfacet
  facet normal -3.174780e-01 -5.498825e-01 -7.725523e-01
    outer loop
      vertex 2.940085e+00 2.909943e+00 1.035612e+00
      vertex 2.520075e+00 3.394930e+00 8.630125e-01
      vertex 3.360096e+00 2.909939e+00 8.630125e-01
    endloop
  endfacet
  facet normal -8.660297e-06 -1.000000e+00 0.000000e+00
    outer loop
      vertex 2.940085e+00 2.909943e+00 1.035612e+00
      vertex 3.360096e+00 2.909939e+00 8.630125e-01
      vertex 3.360096e+00 2.909939e+00 1.208211e+00
    endloop
  endfacet
  facet normal 3.174694e-01 -5.498841e-01 -7.725546e-01
    outer loop
      vertex 2.940085e+00 2.909943e+00 1.035612e+00
      vertex 3.360096e+00 2.909939e+00 1.208211e+00
      vertex 2.520075e+00 2.424963e+00 1.208211e+00
    endloop
  endfacet
  facet normal -1.517335e-01 -8.760336e-02 -9.845317e-01
    outer loop
      vertex 3.150090e+00 3.273681e+00 7.767050e-01
      vertex 2.520075e+00 3.394930e+00 8.630125e-01
      vertex 3.360092e+00 3.879914e+00 6.903975e-01
    endloop
  endfacet
  facet normal -3.801282e-01 -1.646007e-06 -9.249338e-01
    outer loop
      vertex 3.150090e+00 3.273681e+00 7.767050e-01
      vertex 3.360092e+00 3.879914e+00 6.903975e-01
      vertex 3.360096e+00 2.909939e+00 6.903975e-01
    endloop
  endfacet
  facet normal -8.660254e-01 -5.000000e-01 0.000000e+00
    outer loop
      vertex 3.150090e+00 3.273681e+00 7.767050e-01
      vertex 3.360096e+00 2.909939e+00 6.903975e-01
      vertex 3.360096e+00 2.909939e+00 8.630125e-01
    endloop
  endfacet
  facet normal -1.900655e-01 -3.291998e-01 -9.249338e-01
    outer loop
      vertex 3.150090e+00 3.273681e+00 7.767050e-01
      vertex 3.360096e+00 2.909939e+00 8.630125e-01
      vertex 2.520075e+00 3.394930e+00 8.630125e-01
    endloop
  endfacet
  facet normal -2.903683e-01 1.676409e-01 -9.421161e-01
    outer loop
      vertex 3.570098e+00 3.273681e+00 5.177982e-01
      vertex 3.360092e+00 3.879914e+00 6.903975e-01
      vertex 4.200108e+00 3.394930e+00 3.451988e-01
    endloop
  endfacet
  facet normal -3.174789e-01 5.498786e-01 -7.725546e-01
    outer loop
      vertex 3.570098e+00 3.273681e+00 5.177982e-01
      vertex 4.200108e+00 3.394930e+00 3.451988e-01
      vertex 3.360096e+00 2.909939e+00 3.451988e-01
    endloop
  endfacet
  facet normal -8.660297e-01 4.999925e-01 0.000000e+00
    outer loop
      vertex 3.570098e+00 3.273681e+00 5.177982e-01
      vertex 3.360096e+00 2.909939e+00 3.451988e-01
      vertex 3.360096e+00 2.909939e+00 6.903975e-01
    endloop
  endfacet
  facet normal -6.349512e-01 -2.749426e-06 -7.725523e-01
    outer loop
      vertex 3.570098e+00 3.273681e+00 5.177982e-01
      vertex 3.360096e+00 2.909939e+00 6.903975e-01
      vertex 3.360092e+00 3.879914e+00 6.903975e-01
    endloop
  endfacet
  facet normal -1.517225e-06 1.751914e-01 -9.845344e-01
    outer loop
      vertex 3.780102e+00 2.909943e+00 2.588991e-01
      vertex 4.200108e+00 3.394930e+00 3.451988e-01
      vertex 4.200108e+00 2.424963e+00 1.725994e-01
    endloop
  endfacet
  facet normal 1.900480e-01 3.291761e-01 -9.249459e-01
    outer loop
      vertex 3.780102e+00 2.909943e+00 2.588991e-01
      vertex 4.200108e+00 2.424963e+00 1.725994e-01
      vertex 3.360096e+00 2.909939e+00 1.725994e-01
    endloop
  endfacet
  facet normal -8.660384e-06 1.000000e+00 0.000000e+00
    outer loop
      vertex 3.780102e+00 2.909943e+00 2.588991e-01
      vertex 3.360096e+00 2.909939e+00 1.725994e-01
      vertex 3.360096e+00 2.909939e+00 3.451988e-01
    endloop
  endfacet
  facet normal -1.900535e-01 3.291758e-01 -9.249449e-01
    outer loop
      vertex 3.780102e+00 2.909943e+00 2.588991e-01
      vertex 3.360096e+00 2.909939e+00 3.451988e-01
      vertex 4.200108e+00 3.394930e+00 3.451988e-01
    endloop
  endfacet
  facet normal 2.903654e-01 1.676459e-01 -9.421161e-01
    outer loop
      vertex 1.470033e+00 3.637379e-01 1.035612e+00
      vertex 8.400166e-01 4.849838e-01 8.630125e-01
      vertex 1.680033e+00 9.699676e-01 1.208211e+00
    endloop
  endfacet
  facet normal 6.349483e-01 5.498869e-06 -7.725546e-01
    outer loop
      vertex 1.470033e+00 3.637379e-01 1.035612e+00
      vertex 1.680033e+00 9.699676e-01 1.208211e+00
      vertex 1.680042e+00 -5.814476e-17 1.208211e+00
    endloop
  endfacet
  facet normal 8.660211e-01 5.000075e-01 0.000000e+00
    outer loop
      vertex 1.470033e+00 3.637379e-01 1.035612e+00
      vertex 1.680042e+00 -5.814476e-17 1.208211e+00
      vertex 1.680042e+00 -7.928209e-17 8.630125e-01
    endloop
  endfacet
  facet normal 3.174732e-01 5.498852e-01 -7.725523e-01
    outer loop
      vertex 1.470033e+00 3.637379e-01 1.035612e+00
      vertex 1.680042e+00 -7.928209e-17 8.630125e-01
      vertex 8.400166e-01 4.849838e-01 8.630125e-01
    endloop
  endfacet
  facet normal 1.517121e-01 -8.759453e-02 -9.845357e-01
    outer loop
      vertex 1.890054e+00 3.637379e-01 1.294511e+00
      vertex 1.680033e+00 9.699676e-01 1.208211e+00
      vertex 2.520100e+00 4.849838e-01 1.380811e+00
    endloop
  endfacet
  facet normal 1.900399e-01 -3.291752e-01 -9.249479e-01
    outer loop
      vertex 1.890054e+00 3.637379e-01 1.294511e+00
      vertex 2.520100e+00 4.849838e-01 1.380811e+00
      vertex 1.680042e+00 -4.757610e-17 1.380811e+00
    endloop
  endfacet
  facet normal 8.660167e-01 -5.000150e-01 0.000000e+00
    outer loop
      vertex 1.890054e+00 3.637379e-01 1.294511e+00
      vertex 1.680042e+00 -4.757610e-17 1.380811e+00
      vertex 1.680042e+00 -5.814476e-17 1.208211e+00
    endloop
  endfacet
  facet normal 3.800818e-01 3.291638e-06 -9.249529e-01
    outer loop
      vertex 1.890054e+00 3.637379e-01 1.294511e+00
      vertex 1.680042e+00 -5.814476e-17 1.208211e+00
      vertex 1.680033e+00 9.699676e-01 1.208211e+00
    endloop
  endfacet
  facet normal -3.209230e-17 -3.352868e-01 -9.421161e-01
    outer loop
      vertex 2.100058e+00 -7.401487e-17 1.553410e+00
      vertex 2.520100e+00 4.849838e-01 1.380811e+00
      vertex 2.520050e+00 -4.849838e-01 1.726009e+00
    endloop
  endfacet
  facet normal -3.174723e-01 -5.498726e-01 -7.725616e-01
    outer loop
      vertex 2.100058e+00 -7.401487e-17 1.553410e+00
      vertex 2.520050e+00 -4.849838e-01 1.726009e+00
      vertex 1.680042e+00 -2.643877e-17 1.726009e+00
    endloop
  endfacet
  facet normal -8.810944e-17 -1.000000e+00 6.123234e-17
    outer loop
      vertex 2.100058e+00 -7.401487e-17 1.553410e+00
      vertex 1.680042e+00 -2.643877e-17 1.726009e+00
      vertex 1.680042e+00 -4.757610e-17 1.380811e+00
    endloop
  endfacet
  facet normal 3.174665e-01 -5.498956e-01 -7.725476e-01
    outer loop
      vertex 2.100058e+00 -7.401487e-17 1.553410e+00
      vertex 1.680042e+00 -4.757610e-17 1.380811e+00
      vertex 2.520100e+00 4.849838e-01 1.380811e+00
    endloop
  endfacet
  facet normal -1.517210e-01 -8.759441e-02 -9.845344e-01
    outer loop
      vertex 1.890042e+00 -3.637379e-01 1.812309e+00
      vertex 2.520050e+00 -4.849838e-01 1.726009e+00
      vertex 1.680033e+00 -9.699676e-01 1.898609e+00
    endloop
  endfacet
  facet normal -3.801013e-01 3.291807e-06 -9.249449e-01
    outer loop
      vertex 1.890042e+00 -3.637379e-01 1.812309e+00
      vertex 1.680033e+00 -9.699676e-01 1.898609e+00
      vertex 1.680042e+00 -1.587011e-17 1.898609e+00
    endloop
  endfacet
  facet normal -8.660297e-01 -4.999925e-01 0.000000e+00
    outer loop
      vertex 1.890042e+00 -3.637379e-01 1.812309e+00
      vertex 1.680042e+00 -1.587011e-17 1.898609e+00
      vertex 1.680042e+00 -2.643877e-17 1.726009e+00
    endloop
  endfacet
  facet normal -1.900509e-01 -3.291745e-01 -9.249459e-01
    outer loop
      vertex 1.890042e+00 -3.637379e-01 1.812309e+00
      vertex 1.680042e+00 -2.643877e-17 1.726009e+00
      vertex 2.520050e+00 -4.849838e-01 1.726009e+00
    endloop
  endfacet
  facet normal -2.903654e-01 1.676459e-01 -9.421161e-01
    outer loop
      vertex 1.470033e+00 -3.637379e-01 2.071208e+00
      vertex 1.680033e+00 -9.699676e-01 1.898609e+00
      vertex 8.400166e-01 -4.849838e-01 2.243808e+00
    endloop
  endfacet
  facet normal -3.174732e-01 5.498852e-01 -7.725523e-01
    outer loop
      vertex 1.470033e+00 -3.637379e-01 2.071208e+00
      vertex 8.400166e-01 -4.849838e-01 2.243808e+00
      vertex 1.680042e+00 5.267223e-18 2.243808e+00
    endloop
  endfacet
  facet normal -8.660211e-01 5.000075e-01 0.000000e+00
    outer loop
      vertex 1.470033e+00 -3.637379e-01 2.071208e+00
      vertex 1.680042e+00 5.267223e-18 2.243808e+00
      vertex 1.680042e+00 -1.587011e-17 1.898609e+00
    endloop
  endfacet
  facet normal -6.349483e-01 5.498869e-06 -7.725546e-01
    outer loop
      vertex 1.470033e+00 -3.637379e-01 2.071208e+00
      vertex 1.680042e+00 -1.587011e-17 1.898609e+00
      vertex 1.680033e+00 -9.699676e-01 1.898609e+00
    endloop
  endfacet
  facet normal -2.903683e-01 1.676409e-01 -9.421161e-01
    outer loop
      vertex -1.470052e+00 3.273681e+00 5.177982e-01
      vertex -1.680058e+00 3.879914e+00 6.903975e-01
      vertex -8.400418e-01 3.394930e+00 3.451988e-01
    endloop
  endfacet
  facet normal -3.174789e-01 5.498786e-01 -7.725546e-01
    outer loop
      vertex -1.470052e+00 3.273681e+00 5.177982e-01
      vertex -8.400418e-01 3.394930e+00 3.451988e-01
      vertex -1.680054e+00 2.909939e+00 3.451988e-01
    endloop
  endfacet
  facet normal -8.660297e-01 4.999925e-01 0.000000e+00
    outer loop
      vertex -1.470052e+00 3.273681e+00 5.177982e-01
      vertex -1.680054e+00 2.909939e+00 3.451988e-01
      vertex -1.680054e+00 2.909939e+00 6.903975e-01
    endloop
  endfacet
  facet normal -6.349512e-01 -2.749426e-06 -7.725523e-01
    outer loop
      vertex -1.470052e+00 3.273681e+00 5.177982e-01
      vertex -1.680054e+00 2.909939e+00 6.903975e-01
      vertex -1.680058e+00 3.879914e+00 6.903975e-01
    endloop
  endfacet
  facet normal -1.517225e-06 1.751914e-01 -9.845344e-01
    outer loop
      vertex -1.260048e+00 2.909943e+00 2.588991e-01
      vertex -8.400418e-01 3.394930e+00 3.451988e-01
      vertex -8.400418e-01 2.424963e+00 1.725994e-01
    endloop
  endfacet
  facet normal 1.900480e-01 3.291761e-01 -9.249459e-01
    outer loop
      vertex -1.260048e+00 2.909943e+00 2.588991e-01
      vertex -8.400418e-01 2.424963e+00 1.725994e-01
      vertex -1.680054e+00 2.909939e+00 1.725994e-01
    endloop
  endfacet
  facet normal -8.660384e-06 1.000000e+00 0.000000e+00
    outer loop
      vertex -1.260048e+00 2.909943e+00 2.588991e-01
      vertex -1.680054e+00 2.909939e+00 1.725994e-01
      vertex -1.680054e+00 2.909939e+00 3.451988e-01
    endloop
  endfacet
  facet normal -1.900535e-01 3.291758e-01 -9.249449e-01
    outer loop
      vertex -1.260048e+00 2.909943e+00 2.588991e-01
      vertex -1.680054e+00 2.909939e+00 3.451988e-01
      vertex -8.400418e-01 3.394930e+00 3.451988e-01
    endloop
  endfacet
  facet normal 2.903669e-01 1.676434e-01 -9.421161e-01
    outer loop
      vertex -1.470046e+00 2.546194e+00 -3.469447e-17
      vertex -8.400418e-01 2.424963e+00 1.725994e-01
      vertex -1.680033e+00 1.939935e+00 -1.725994e-01
    endloop
  endfacet
  facet normal 6.349569e-01 1.374684e-05 -7.725476e-01
    outer loop
      vertex -1.470046e+00 2.546194e+00 -3.469447e-17
      vertex -1.680033e+00 1.939935e+00 -1.725994e-01
      vertex -1.680054e+00 2.909939e+00 -1.725994e-01
    endloop
  endfacet
  facet normal 8.660254e-01 5.000000e-01 0.000000e+00
    outer loop
      vertex -1.470046e+00 2.546194e+00 -3.469447e-17
      vertex -1.680054e+00 2.909939e+00 -1.725994e-01
      vertex -1.680054e+00 2.909939e+00 1.725994e-01
    endloop
  endfacet
  facet normal 3.174675e-01 5.498754e-01 -7.725616e-01
    outer loop
      vertex -1.470046e+00 2.546194e+00 -3.469447e-17
      vertex -1.680054e+00 2.909939e+00 1.725994e-01
      vertex -8.400418e-01 2.424963e+00 1.725994e-01
    endloop
  endfacet
  facet normal 1.517151e-01 -8.758927e-02 -9.845357e-01
    outer loop
      vertex -1.890054e+00 2.546194e+00 -2.588991e-01
      vertex -1.680033e+00 1.939935e+00 -1.725994e-01
      vertex -2.520075e+00 2.424963e+00 -3.451988e-01
    endloop
  endfacet
  facet normal 1.900381e-01 -3.291622e-01 -9.249529e-01
    outer loop
      vertex -1.890054e+00 2.546194e+00 -2.588991e-01
      vertex -2.520075e+00 2.424963e+00 -3.451988e-01
      vertex -1.680054e+00 2.909939e+00 -3.451988e-01
    endloop
  endfacet
  facet normal 8.660341e-01 -4.999850e-01 0.000000e+00
    outer loop
      vertex -1.890054e+00 2.546194e+00 -2.588991e-01
      vertex -1.680054e+00 2.909939e+00 -3.451988e-01
      vertex -1.680054e+00 2.909939e+00 -1.725994e-01
    endloop
  endfacet
  facet normal 3.800940e-01 8.229050e-06 -9.249479e-01
    outer loop
      vertex -1.890054e+00 2.546194e+00 -2.588991e-01
      vertex -1.680054e+00 2.909939e+00 -1.725994e-01
      vertex -1.680033e+00 1.939935e+00 -1.725994e-01
    endloop
  endfacet
  facet normal -2.903683e-06 -3.352868e-01 -9.421161e-01
    outer loop
      vertex -2.100065e+00 2.909943e+00 -5.177982e-01
      vertex -2.520075e+00 2.424963e+00 -3.451988e-01
      vertex -2.520075e+00 3.394930e+00 -6.903975e-01
    endloop
  endfacet
  facet normal -3.174780e-01 -5.498825e-01 -7.725523e-01
    outer loop
      vertex -2.100065e+00 2.909943e+00 -5.177982e-01
      vertex -2.520075e+00 3.394930e+00 -6.903975e-01
      vertex -1.680054e+00 2.909939e+00 -6.903975e-01
    endloop
  endfacet
  facet normal -8.660297e-06 -1.000000e+00 0.000000e+00
    outer loop
      vertex -2.100065e+00 2.909943e+00 -5.177982e-01
      vertex -1.680054e+00 2.909939e+00 -6.903975e-01
      vertex -1.680054e+00 2.909939e+00 -3.451988e-01
    endloop
  endfacet
  facet normal 3.174694e-01 -5.498841e-01 -7.725546e-01
    outer loop
      vertex -2.100065e+00 2.909943e+00 -5.177982e-01
      vertex -1.680054e+00 2.909939e+00 -3.451988e-01
      vertex -2.520075e+00 2.424963e+00 -3.451988e-01
    endloop
  endfacet
  facet normal 2.903654e-01 1.676459e-01 -9.421161e-01
    outer loop
      vertex 1.050042e+00 4.001160e+00 5.177982e-01
      vertex 1.680058e+00 3.879914e+00 6.903975e-01
      vertex 8.400418e-01 3.394930e+00 3.451988e-01
    endloop
  endfacet
  facet normal 6.349483e-01 5.498869e-06 -7.725546e-01
    outer loop
      vertex 1.050042e+00 4.001160e+00 5.177982e-01
      vertex 8.400418e-01 3.394930e+00 3.451988e-01
      vertex 8.400334e-01 4.364898e+00 3.451988e-01
    endloop
  endfacet
  facet normal 8.660211e-01 5.000075e-01 0.000000e+00
    outer loop
      vertex 1.050042e+00 4.001160e+00 5.177982e-01
      vertex 8.400334e-01 4.364898e+00 3.451988e-01
      vertex 8.400334e-01 4.364898e+00 6.903975e-01
    endloop
  endfacet
  facet normal 3.174732e-01 5.498852e-01 -7.725523e-01
    outer loop
      vertex 1.050042e+00 4.001160e+00 5.177982e-01
      vertex 8.400334e-01 4.364898e+00 6.903975e-01
      vertex 1.680058e+00 3.879914e+00 6.903975e-01
    endloop
  endfacet
  facet normal 1.517121e-01 -8.759453e-02 -9.845357e-01
    outer loop
      vertex 6.300209e-01 4.001160e+00 2.588991e-01
      vertex 8.400418e-01 3.394930e+00 3.451988e-01
      vertex -2.520075e-05 3.879914e+00 1.725994e-01
    endloop
  endfacet
  facet normal 1.900399e-01 -3.291752e-01 -9.249479e-01
    outer loop
      vertex 6.300209e-01 4.001160e+00 2.588991e-01
      vertex -2.520075e-05 3.879914e+00 1.725994e-01
      vertex 8.400334e-01 4.364898e+00 1.725994e-01
    endloop
  endfacet
  facet normal 8.660167e-01 -5.000150e-01 0.000000e+00
    outer loop
      vertex 6.300209e-01 4.001160e+00 2.588991e-01
      vertex 8.400334e-01 4.364898e+00 1.725994e-01
      vertex 8.400334e-01 4.364898e+00 3.451988e-01
    endloop
  endfacet
  facet normal 3.800818e-01 3.291638e-06 -9.249529e-01
    outer loop
      vertex 6.300209e-01 4.001160e+00 2.588991e-01
      vertex 8.400334e-01 4.364898e+00 3.451988e-01
      vertex 8.400418e-01 3.394930e+00 3.451988e-01
    endloop
  endfacet
  facet normal 1.283692e-16 -3.352868e-01 -9.421161e-01
    outer loop
      vertex 4.200167e-01 4.364898e+00 -5.551115e-17
      vertex -2.520075e-05 3.879914e+00 1.725994e-01
      vertex 2.520075e-05 4.849882e+00 -1.725994e-01
    endloop
  endfacet
  facet normal -3.174723e-01 -5.498726e-01 -7.725616e-01
    outer loop
      vertex 4.200167e-01 4.364898e+00 -5.551115e-17
      vertex 2.520075e-05 4.849882e+00 -1.725994e-01
      vertex 8.400334e-01 4.364898e+00 -1.725994e-01
    endloop
  endfacet
  facet normal 0.000000e+00 -1.000000e+00 0.000000e+00
    outer loop
      vertex 4.200167e-01 4.364898e+00 -5.551115e-17
      vertex 8.400334e-01 4.364898e+00 -1.725994e-01
      vertex 8.400334e-01 4.364898e+00 1.725994e-01
    endloop
  endfacet
  facet normal 3.174665e-01 -5.498956e-01 -7.725476e-01
    outer loop
      vertex 4.200167e-01 4.364898e+00 -5.551115e-17
      vertex 8.400334e-01 4.364898e+00 1.725994e-01
      vertex -2.520075e-05 3.879914e+00 1.725994e-01
    endloop
  endfacet
  facet normal -1.517210e-01 -8.759441e-02 -9.845344e-01
    outer loop
      vertex 6.300335e-01 4.728636e+00 -2.588991e-01
      vertex 2.520075e-05 4.849882e+00 -1.725994e-01
      vertex 8.400418e-01 5.334866e+00 -3.451988e-01
    endloop
  endfacet
  facet normal -3.801013e-01 3.291807e-06 -9.249449e-01
    outer loop
      vertex 6.300335e-01 4.728636e+00 -2.588991e-01
      vertex 8.400418e-01 5.334866e+00 -3.451988e-01
      vertex 8.400334e-01 4.364898e+00 -3.451988e-01
    endloop
  endfacet
  facet normal -8.660297e-01 -4.999925e-01 0.000000e+00
    outer loop
      vertex 6.300335e-01 4.728636e+00 -2.588991e-01
      vertex 8.400334e-01 4.364898e+00 -3.451988e-01
      vertex 8.400334e-01 4.364898e+00 -1.725994e-01
    endloop
  endfacet
  facet normal -1.900509e-01 -3.291745e-01 -9.249459e-01
    outer loop
      vertex 6.300335e-01 4.728636e+00 -2.588991e-01
      vertex 8.400334e-01 4.364898e+00 -1.725994e-01
      vertex 2.520075e-05 4.849882e+00 -1.725994e-01
    endloop
  endfacet
  facet normal -2.903654e-01 1.676459e-01 -9.421161e-01
    outer loop
      vertex 1.050042e+00 4.728636e+00 -5.177982e-01
      vertex 8.400418e-01 5.334866e+00 -3.451988e-01
      vertex 1.680058e+00 4.849882e+00 -6.903975e-01
    endloop
  endfacet
  facet normal -3.174732e-01 5.498852e-01 -7.725523e-01
    outer loop
      vertex 1.050042e+00 4.728636e+00 -5.177982e-01
      vertex 1.680058e+00 4.849882e+00 -6.903975e-01
      vertex 8.400334e-01 4.364898e+00 -6.903975e-01
    endloop
  endfacet
  facet normal -8.660211e-01 5.000075e-01 0.000000e+00
    outer loop
      vertex 1.050042e+00 4.728636e+00 -5.177982e-01
      vertex 8.400334e-01 4.364898e+00 -6.903975e-01
      vertex 8.400334e-01 4.364898e+00 -3.451988e-01
    endloop
  endfacet
  facet normal -6.349483e-01 5.498869e-06 -7.725546e-01
    outer loop
      vertex 1.050042e+00 4.728636e+00 -5.177982e-01
      vertex 8.400334e-01 4.364898e+00 -3.451988e-01
      vertex 8.400418e-01 5.334866e+00 -3.451988e-01
    endloop
  endfacet
  facet normal -2.903683e-01 1.676409e-01 -9.421161e-01
    outer loop
      vertex 3.990127e+00 1.091217e+00 1.035612e+00
      vertex 4.200133e+00 4.849838e-01 8.630125e-01
      vertex 3.360117e+00 9.699676e-01 1.208211e+00
    endloop
  endfacet
  facet normal -3.174789e-01 5.498786e-01 -7.725546e-01
    outer loop
      vertex 3.990127e+00 1.091217e+00 1.035612e+00
      vertex 3.360117e+00 9.699676e-01 1.208211e+00
      vertex 4.200129e+00 1.454959e+00 1.208211e+00
    endloop
  endfacet
  facet normal -8.660297e-01 4.999925e-01 0.000000e+00
    outer loop
      vertex 3.990127e+00 1.091217e+00 1.035612e+00
      vertex 4.200129e+00 1.454959e+00 1.208211e+00
      vertex 4.200129e+00 1.454959e+00 8.630125e-01
    endloop
  endfacet
  facet normal -6.349512e-01 -2.749426e-06 -7.725523e-01
    outer loop
      vertex 3.990127e+00 1.091217e+00 1.035612e+00
      vertex 4.200129e+00 1.454959e+00 8.630125e-01
      vertex 4.200133e+00 4.849838e-01 8.630125e-01
    endloop
  endfacet
  facet normal -1.517225e-06 1.751914e-01 -9.845344e-01
    outer loop
      vertex 3.780123e+00 1.454955e+00 1.294511e+00
      vertex 3.360117e+00 9.699676e-01 1.208211e+00
      vertex 3.360117e+00 1.939935e+00 1.380811e+00
    endloop
  endfacet
  facet normal 1.900480e-01 3.291761e-01 -9.249459e-01
    outer loop
      vertex 3.780123e+00 1.454955e+00 1.294511e+00
      vertex 3.360117e+00 1.939935e+00 1.380811e+00
      vertex 4.200129e+00 1.454959e+00 1.380811e+00
    endloop
  endfacet
  facet normal -8.660384e-06 1.000000e+00 0.000000e+00
    outer loop
      vertex 3.780123e+00 1.454955e+00 1.294511e+00
      vertex 4.200129e+00 1.454959e+00 1.380811e+00
      vertex 4.200129e+00 1.454959e+00 1.208211e+00
    endloop
  endfacet
  facet normal -1.900535e-01 3.291758e-01 -9.249449e-01
    outer loop
      vertex 3.780123e+00 1.454955e+00 1.294511e+00
      vertex 4.200129e+00 1.454959e+00 1.208211e+00
      vertex 3.360117e+00 9.699676e-01 1.208211e+00
    endloop
  endfacet
  facet normal 2.903669e-01 1.676434e-01 -9.421161e-01
    outer loop
      vertex 3.990121e+00 1.818704e+00 1.553410e+00
      vertex 3.360117e+00 1.939935e+00 1.380811e+00
      vertex 4.200108e+00 2.424963e+00 1.726009e+00
    endloop
  endfacet
  facet normal 6.349569e-01 1.374684e-05 -7.725476e-01
    outer loop
      vertex 3.990121e+00 1.818704e+00 1.553410e+00
      vertex 4.200108e+00 2.424963e+00 1.726009e+00
      vertex 4.200129e+00 1.454959e+00 1.726009e+00
    endloop
  endfacet
  facet normal 8.660254e-01 5.000000e-01 0.000000e+00
    outer loop
      vertex 3.990121e+00 1.818704e+00 1.553410e+00
      vertex 4.200129e+00 1.454959e+00 1.726009e+00
      vertex 4.200129e+00 1.454959e+00 1.380811e+00
    endloop
  endfacet
  facet normal 3.174675e-01 5.498754e-01 -7.725616e-01
    outer loop
      vertex 3.990121e+00 1.818704e+00 1.553410e+00
      vertex 4.200129e+00 1.454959e+00 1.380811e+00
      vertex 3.360117e+00 1.939935e+00 1.380811e+00
    endloop
  endfacet
  facet normal 1.517151e-01 -8.758927e-02 -9.845357e-01
    outer loop
      vertex 4.410129e+00 1.818704e+00 1.812309e+00
      vertex 4.200108e+00 2.424963e+00 1.726009e+00
      vertex 5.040150e+00 1.939935e+00 1.898609e+00
    endloop
  endfacet
  facet normal 1.900381e-01 -3.291622e-01 -9.249529e-01
    outer loop
      vertex 4.410129e+00 1.818704e+00 1.812309e+00
      vertex 5.040150e+00 1.939935e+00 1.898609e+00
      vertex 4.200129e+00 1.454959e+00 1.898609e+00
    endloop
  endfacet
  facet normal 8.660341e-01 -4.999850e-01 0.000000e+00
    outer loop
      vertex 4.410129e+00 1.818704e+00 1.812309e+00
      vertex 4.200129e+00 1.454959e+00 1.898609e+00
      vertex 4.200129e+00 1.454959e+00 1.726009e+00
    endloop
  endfacet
  facet normal 3.800940e-01 8.229050e-06 -9.249479e-01
    outer loop
      vertex 4.410129e+00 1.818704e+00 1.812309e+00
      vertex 4.200129e+00 1.454959e+00 1.726009e+00
      vertex 4.200108e+00 2.424963e+00 1.726009e+00
    endloop
  endfacet
  facet normal -2.903683e-06 -3.352868e-01 -9.421161e-01
    outer loop
      vertex 4.620140e+00 1.454955e+00 2.071208e+00
      vertex 5.040150e+00 1.939935e+00 1.898609e+00
      vertex 5.040150e+00 9.699676e-01 2.243808e+00
    endloop
  endfacet
  facet normal -3.174780e-01 -5.498825e-01 -7.725523e-01
    outer loop
      vertex 4.620140e+00 1.454955e+00 2.071208e+00
      vertex 5.040150e+00 9.699676e-01 2.243808e+00
      vertex 4.200129e+00 1.454959e+00 2.243808e+00
    endloop
  endfacet
  facet normal -8.660297e-06 -1.000000e+00 0.000000e+00
    outer loop
      vertex 4.620140e+00 1.454955e+00 2.071208e+00
      vertex 4.200129e+00 1.454959e+00 2.243808e+00
      vertex 4.200129e+00 1.454959e+00 1.898609e+00
    endloop
  endfacet
  facet normal 3.174694e-01 -5.498841e-01 -7.725546e-01
    outer loop
      vertex 4.620140e+00 1.454955e+00 2.071208e+00
      vertex 4.200129e+00 1.454959e+00 1.898609e+00
      vertex 5.040150e+00 1.939935e+00 1.898609e+00
    endloop
  endfacet
endsolid surface_model
