solid surface_model
  facet normal -7.467587e-01 6.500380e-01 -1.407198e-01
    outer loop
      vertex 1.810681e+00 2.773018e+00 -5.232711e-01
      vertex 1.473594e+00 2.565365e+00 3.063235e-01
      vertex 2.140478e+00 3.298320e+00 1.531618e-01
    endloop
  endfacet
  facet normal -8.676580e-01 4.957011e-01 3.807944e-02
    outer loop
      vertex 1.810681e+00 2.773018e+00 -5.232711e-01
      vertex 2.140478e+00 3.298320e+00 1.531618e-01
      vertex 2.264270e+00 3.591475e+00 -8.423423e-01
    endloop
  endfacet
  facet normal -8.181524e-01 5.352846e-01 2.099928e-01
    outer loop
      vertex 1.810681e+00 2.773018e+00 -5.232711e-01
      vertex 2.264270e+00 3.591475e+00 -8.423423e-01
      vertex 1.791020e+00 3.078420e+00 -1.378361e+00
    endloop
  endfacet
  facet normal -9.972274e-01 -7.432711e-02 -3.617094e-03
    outer loop
      vertex 1.810681e+00 2.773018e+00 -5.232711e-01
      vertex 1.791020e+00 3.078420e+00 -1.378361e+00
      vertex 1.860929e+00 2.125565e+00 -1.072085e+00
    endloop
  endfacet
  facet normal -8.017886e-01 3.489876e-01 -4.851214e-01
    outer loop
      vertex 1.810681e+00 2.773018e+00 -5.232711e-01
      vertex 1.860929e+00 2.125565e+00 -1.072085e+00
      vertex 1.333796e+00 1.978965e+00 -3.063235e-01
    endloop
  endfacet
  facet normal -8.601364e-01 4.519950e-01 -2.363598e-01
    outer loop
      vertex 1.810681e+00 2.773018e+00 -5.232711e-01
      vertex 1.333796e+00 1.978965e+00 -3.063235e-01
      vertex 1.473594e+00 2.565365e+00 3.063235e-01
    endloop
  endfacet
  facet normal -7.467587e-01 6.519910e-01 -1.313741e-01
    outer loop
      vertex 1.807036e+00 2.990476e+00 5.207310e-01
      vertex 2.140478e+00 3.298320e+00 1.531618e-01
      vertex 1.473594e+00 2.565365e+00 3.063235e-01
    endloop
  endfacet
  facet normal -4.300845e-01 6.521854e-01 -6.242448e-01
    outer loop
      vertex 1.807036e+00 2.990476e+00 5.207310e-01
      vertex 1.473594e+00 2.565365e+00 3.063235e-01
      vertex 1.473594e+00 3.049109e+00 8.117194e-01
    endloop
  endfacet
  facet normal 0.000000e+00 9.802975e-01 -1.975268e-01
    outer loop
      vertex 1.807036e+00 2.990476e+00 5.207310e-01
      vertex 1.473594e+00 3.049109e+00 8.117194e-01
      vertex 2.140478e+00 3.049109e+00 8.117194e-01
    endloop
  endfacet
  facet normal -4.278210e-01 8.453596e-01 3.199006e-01
    outer loop
      vertex 1.807036e+00 2.990476e+00 5.207310e-01
      vertex 2.140478e+00 3.049109e+00 8.117194e-01
      vertex 2.140478e+00 3.298320e+00 1.531618e-01
    endloop
  endfacet
  facet normal -8.283292e-01 1.203422e-01 -5.471640e-01
    outer loop
      vertex 1.210027e+00 2.770587e+00 7.504618e-01
      vertex 1.473594e+00 2.565365e+00 3.063235e-01
      vertex 9.464612e-01 2.418765e+00 1.072085e+00
    endloop
  endfacet
  facet normal -5.258610e-01 -3.247204e-01 -7.861469e-01
    outer loop
      vertex 1.210027e+00 2.770587e+00 7.504618e-01
      vertex 9.464612e-01 2.418765e+00 1.072085e+00
      vertex 9.464612e-01 3.049109e+00 8.117194e-01
    endloop
  endfacet
  facet normal 0.000000e+00 2.148041e-01 -9.766572e-01
    outer loop
      vertex 1.210027e+00 2.770587e+00 7.504618e-01
      vertex 9.464612e-01 3.049109e+00 8.117194e-01
      vertex 1.473594e+00 3.049109e+00 8.117194e-01
    endloop
  endfacet
  facet normal -5.161925e-01 6.187261e-01 -5.922189e-01
    outer loop
      vertex 1.210027e+00 2.770587e+00 7.504618e-01
      vertex 1.473594e+00 3.049109e+00 8.117194e-01
      vertex 1.473594e+00 2.565365e+00 3.063235e-01
    endloop
  endfacet
  facet normal -8.401368e-01 -4.920622e-01 -2.281335e-01
    outer loop
      vertex 6.479737e-01 2.935501e+00 1.056762e+00
      vertex 9.464612e-01 2.418765e+00 1.072085e+00
      vertex 3.494861e-01 3.225020e+00 1.531523e+00
    endloop
  endfacet
  facet normal -4.916665e-01 -8.458894e-01 2.067249e-01
    outer loop
      vertex 6.479737e-01 2.935501e+00 1.056762e+00
      vertex 3.494861e-01 3.225020e+00 1.531523e+00
      vertex 3.494861e-01 3.049109e+00 8.117194e-01
    endloop
  endfacet
  facet normal 0.000000e+00 -9.072370e-01 -4.206198e-01
    outer loop
      vertex 6.479737e-01 2.935501e+00 1.056762e+00
      vertex 3.494861e-01 3.049109e+00 8.117194e-01
      vertex 9.464612e-01 3.049109e+00 8.117194e-01
    endloop
  endfacet
  facet normal -5.229074e-01 -3.254148e-01 -7.878281e-01
    outer loop
      vertex 6.479737e-01 2.935501e+00 1.056762e+00
      vertex 9.464612e-01 3.049109e+00 8.117194e-01
      vertex 9.464612e-01 2.418765e+00 1.072085e+00
    endloop
  endfacet
  facet normal -8.428726e-01 -3.887394e-01 3.720852e-01
    outer loop
      vertex 1.128612e-01 3.265328e+00 1.037616e+00
      vertex 3.494861e-01 3.225020e+00 1.531523e+00
      vertex -1.237636e-01 3.738075e+00 9.955040e-01
    endloop
  endfacet
  facet normal -5.661893e-01 -2.124501e-01 7.964262e-01
    outer loop
      vertex 1.128612e-01 3.265328e+00 1.037616e+00
      vertex -1.237636e-01 3.738075e+00 9.955040e-01
      vertex -1.237636e-01 3.049109e+00 8.117194e-01
    endloop
  endfacet
  facet normal 0.000000e+00 -7.224121e-01 6.914628e-01
    outer loop
      vertex 1.128612e-01 3.265328e+00 1.037616e+00
      vertex -1.237636e-01 3.049109e+00 8.117194e-01
      vertex 3.494861e-01 3.049109e+00 8.117194e-01
    endloop
  endfacet
  facet normal -5.514248e-01 -8.103756e-01 1.980457e-01
    outer loop
      vertex 1.128612e-01 3.265328e+00 1.037616e+00
      vertex 3.494861e-01 3.049109e+00 8.117194e-01
      vertex 3.494861e-01 3.225020e+00 1.531523e+00
    endloop
  endfacet
  facet normal -7.467587e-01 -6.519910e-01 -1.313741e-01
    outer loop
      vertex 1.892961e+00 7.183109e-01 1.853134e+00
      vertex 2.226403e+00 2.932002e-01 2.067541e+00
      vertex 1.559519e+00 1.026155e+00 2.220703e+00
    endloop
  endfacet
  facet normal -4.278210e-01 -8.453596e-01 3.199006e-01
    outer loop
      vertex 1.892961e+00 7.183109e-01 1.853134e+00
      vertex 1.559519e+00 1.026155e+00 2.220703e+00
      vertex 1.559519e+00 7.769441e-01 1.562146e+00
    endloop
  endfacet
  facet normal 0.000000e+00 -9.802975e-01 -1.975268e-01
    outer loop
      vertex 1.892961e+00 7.183109e-01 1.853134e+00
      vertex 1.559519e+00 7.769441e-01 1.562146e+00
      vertex 2.226403e+00 7.769441e-01 1.562146e+00
    endloop
  endfacet
  facet normal -4.300845e-01 -6.521854e-01 -6.242448e-01
    outer loop
      vertex 1.892961e+00 7.183109e-01 1.853134e+00
      vertex 2.226403e+00 7.769441e-01 1.562146e+00
      vertex 2.226403e+00 2.932002e-01 2.067541e+00
    endloop
  endfacet
  facet normal -8.681616e-01 -2.240877e-01 4.428094e-01
    outer loop
      vertex 1.287944e+00 1.011488e+00 1.680839e+00
      vertex 1.559519e+00 1.026155e+00 2.220703e+00
      vertex 1.016370e+00 1.465910e+00 1.378361e+00
    endloop
  endfacet
  facet normal -5.419645e-01 2.166065e-01 8.120074e-01
    outer loop
      vertex 1.287944e+00 1.011488e+00 1.680839e+00
      vertex 1.016370e+00 1.465910e+00 1.378361e+00
      vertex 1.016370e+00 7.769441e-01 1.562146e+00
    endloop
  endfacet
  facet normal 0.000000e+00 -4.515334e-01 8.922542e-01
    outer loop
      vertex 1.287944e+00 1.011488e+00 1.680839e+00
      vertex 1.016370e+00 7.769441e-01 1.562146e+00
      vertex 1.559519e+00 7.769441e-01 1.562146e+00
    endloop
  endfacet
  facet normal -5.467885e-01 -7.830772e-01 2.963317e-01
    outer loop
      vertex 1.287944e+00 1.011488e+00 1.680839e+00
      vertex 1.559519e+00 7.769441e-01 1.562146e+00
      vertex 1.559519e+00 1.026155e+00 2.220703e+00
    endloop
  endfacet
  facet normal -8.428726e-01 3.887394e-01 3.720852e-01
    outer loop
      vertex 7.797453e-01 9.931633e-01 1.336249e+00
      vertex 1.016370e+00 1.465910e+00 1.378361e+00
      vertex 5.431204e-01 9.528551e-01 8.423423e-01
    endloop
  endfacet
  facet normal -5.514248e-01 8.103756e-01 1.980457e-01
    outer loop
      vertex 7.797453e-01 9.931633e-01 1.336249e+00
      vertex 5.431204e-01 9.528551e-01 8.423423e-01
      vertex 5.431204e-01 7.769441e-01 1.562146e+00
    endloop
  endfacet
  facet normal 0.000000e+00 7.224121e-01 6.914628e-01
    outer loop
      vertex 7.797453e-01 9.931633e-01 1.336249e+00
      vertex 5.431204e-01 7.769441e-01 1.562146e+00
      vertex 1.016370e+00 7.769441e-01 1.562146e+00
    endloop
  endfacet
  facet normal -5.661893e-01 2.124501e-01 7.964262e-01
    outer loop
      vertex 7.797453e-01 9.931633e-01 1.336249e+00
      vertex 1.016370e+00 7.769441e-01 1.562146e+00
      vertex 1.016370e+00 1.465910e+00 1.378361e+00
    endloop
  endfacet
  facet normal -8.401368e-01 4.920622e-01 -2.281335e-01
    outer loop
      vertex 2.446329e-01 6.633359e-01 1.317103e+00
      vertex 5.431204e-01 9.528551e-01 8.423423e-01
      vertex -5.385468e-02 1.466001e-01 1.301780e+00
    endloop
  endfacet
  facet normal -5.229074e-01 3.254148e-01 -7.878281e-01
    outer loop
      vertex 2.446329e-01 6.633359e-01 1.317103e+00
      vertex -5.385468e-02 1.466001e-01 1.301780e+00
      vertex -5.385468e-02 7.769441e-01 1.562146e+00
    endloop
  endfacet
  facet normal 0.000000e+00 9.072370e-01 -4.206198e-01
    outer loop
      vertex 2.446329e-01 6.633359e-01 1.317103e+00
      vertex -5.385468e-02 7.769441e-01 1.562146e+00
      vertex 5.431204e-01 7.769441e-01 1.562146e+00
    endloop
  endfacet
  facet normal -4.916665e-01 8.458894e-01 2.067249e-01
    outer loop
      vertex 2.446329e-01 6.633359e-01 1.317103e+00
      vertex 5.431204e-01 7.769441e-01 1.562146e+00
      vertex 5.431204e-01 9.528551e-01 8.423423e-01
    endloop
  endfacet
  facet normal -7.467587e-01 -6.500380e-01 -1.407198e-01
    outer loop
      vertex 1.889316e+00 5.008533e-01 2.897136e+00
      vertex 1.559519e+00 1.026155e+00 2.220703e+00
      vertex 2.226403e+00 2.932002e-01 2.067541e+00
    endloop
  endfacet
  facet normal -8.601364e-01 -4.519950e-01 -2.363598e-01
    outer loop
      vertex 1.889316e+00 5.008533e-01 2.897136e+00
      vertex 2.226403e+00 2.932002e-01 2.067541e+00
      vertex 2.366200e+00 -2.932002e-01 2.680189e+00
    endloop
  endfacet
  facet normal -8.017886e-01 -3.489876e-01 -4.851214e-01
    outer loop
      vertex 1.889316e+00 5.008533e-01 2.897136e+00
      vertex 2.366200e+00 -2.932002e-01 2.680189e+00
      vertex 1.839068e+00 -1.466001e-01 3.445950e+00
    endloop
  endfacet
  facet normal -9.972274e-01 7.432711e-02 -3.617094e-03
    outer loop
      vertex 1.889316e+00 5.008533e-01 2.897136e+00
      vertex 1.839068e+00 -1.466001e-01 3.445950e+00
      vertex 1.908977e+00 8.062550e-01 3.752226e+00
    endloop
  endfacet
  facet normal -8.181524e-01 -5.352846e-01 2.099928e-01
    outer loop
      vertex 1.889316e+00 5.008533e-01 2.897136e+00
      vertex 1.908977e+00 8.062550e-01 3.752226e+00
      vertex 1.435727e+00 1.319310e+00 3.216207e+00
    endloop
  endfacet
  facet normal -8.676580e-01 -4.957011e-01 3.807944e-02
    outer loop
      vertex 1.889316e+00 5.008533e-01 2.897136e+00
      vertex 1.435727e+00 1.319310e+00 3.216207e+00
      vertex 1.559519e+00 1.026155e+00 2.220703e+00
    endloop
  endfacet
  facet normal -7.467587e-01 -6.519910e-01 -1.313741e-01
    outer loop
      vertex -1.077476e-01 3.826019e+00 2.894596e+00
      vertex -4.411897e-01 4.251130e+00 2.680189e+00
      vertex 2.256944e-01 3.518175e+00 2.527027e+00
    endloop
  endfacet
  facet normal -4.278210e-01 -8.453596e-01 3.199006e-01
    outer loop
      vertex -1.077476e-01 3.826019e+00 2.894596e+00
      vertex 2.256944e-01 3.518175e+00 2.527027e+00
      vertex 2.256944e-01 3.767386e+00 3.185584e+00
    endloop
  endfacet
  facet normal 0.000000e+00 -9.802975e-01 -1.975268e-01
    outer loop
      vertex -1.077476e-01 3.826019e+00 2.894596e+00
      vertex 2.256944e-01 3.767386e+00 3.185584e+00
      vertex -4.411897e-01 3.767386e+00 3.185584e+00
    endloop
  endfacet
  facet normal -4.300845e-01 -6.521854e-01 -6.242448e-01
    outer loop
      vertex -1.077476e-01 3.826019e+00 2.894596e+00
      vertex -4.411897e-01 3.767386e+00 3.185584e+00
      vertex -4.411897e-01 4.251130e+00 2.680189e+00
    endloop
  endfacet
  facet normal -8.681616e-01 -2.240877e-01 4.428094e-01
    outer loop
      vertex 4.972687e-01 3.532842e+00 3.066891e+00
      vertex 2.256944e-01 3.518175e+00 2.527027e+00
      vertex 7.688429e-01 3.078420e+00 3.369369e+00
    endloop
  endfacet
  facet normal -5.419645e-01 2.166065e-01 8.120074e-01
    outer loop
      vertex 4.972687e-01 3.532842e+00 3.066891e+00
      vertex 7.688429e-01 3.078420e+00 3.369369e+00
      vertex 7.688429e-01 3.767386e+00 3.185584e+00
    endloop
  endfacet
  facet normal 0.000000e+00 -4.515334e-01 8.922542e-01
    outer loop
      vertex 4.972687e-01 3.532842e+00 3.066891e+00
      vertex 7.688429e-01 3.767386e+00 3.185584e+00
      vertex 2.256944e-01 3.767386e+00 3.185584e+00
    endloop
  endfacet
  facet normal -5.467885e-01 -7.830772e-01 2.963317e-01
    outer loop
      vertex 4.972687e-01 3.532842e+00 3.066891e+00
      vertex 2.256944e-01 3.767386e+00 3.185584e+00
      vertex 2.256944e-01 3.518175e+00 2.527027e+00
    endloop
  endfacet
  facet normal -8.428726e-01 3.887394e-01 3.720852e-01
    outer loop
      vertex 1.005468e+00 3.551167e+00 3.411481e+00
      vertex 7.688429e-01 3.078420e+00 3.369369e+00
      vertex 1.242093e+00 3.591475e+00 3.905388e+00
    endloop
  endfacet
  facet normal -5.514248e-01 8.103756e-01 1.980457e-01
    outer loop
      vertex 1.005468e+00 3.551167e+00 3.411481e+00
      vertex 1.242093e+00 3.591475e+00 3.905388e+00
      vertex 1.242093e+00 3.767386e+00 3.185584e+00
    endloop
  endfacet
  facet normal 0.000000e+00 7.224121e-01 6.914628e-01
    outer loop
      vertex 1.005468e+00 3.551167e+00 3.411481e+00
      vertex 1.242093e+00 3.767386e+00 3.185584e+00
      vertex 7.688429e-01 3.767386e+00 3.185584e+00
    endloop
  endfacet
  facet normal -5.661893e-01 2.124501e-01 7.964262e-01
    outer loop
      vertex 1.005468e+00 3.551167e+00 3.411481e+00
      vertex 7.688429e-01 3.767386e+00 3.185584e+00
      vertex 7.688429e-01 3.078420e+00 3.369369e+00
    endloop
  endfacet
  facet normal -8.401368e-01 4.920622e-01 -2.281335e-01
    outer loop
      vertex 1.540580e+00 3.880994e+00 3.430627e+00
      vertex 1.242093e+00 3.591475e+00 3.905388e+00
      vertex 1.839068e+00 4.397730e+00 3.445950e+00
    endloop
  endfacet
  facet normal -5.229074e-01 3.254148e-01 -7.878281e-01
    outer loop
      vertex 1.540580e+00 3.880994e+00 3.430627e+00
      vertex 1.839068e+00 4.397730e+00 3.445950e+00
      vertex 1.839068e+00 3.767386e+00 3.185584e+00
    endloop
  endfacet
  facet normal 0.000000e+00 9.072370e-01 -4.206198e-01
    outer loop
      vertex 1.540580e+00 3.880994e+00 3.430627e+00
      vertex 1.839068e+00 3.767386e+00 3.185584e+00
      vertex 1.242093e+00 3.767386e+00 3.185584e+00
    endloop
  endfacet
  facet normal -4.916665e-01 8.458894e-01 2.067249e-01
    outer loop
      vertex 1.540580e+00 3.880994e+00 3.430627e+00
      vertex 1.242093e+00 3.767386e+00 3.185584e+00
      vertex 1.242093e+00 3.591475e+00 3.905388e+00
    endloop
  endfacet
  facet normal -7.467587e-01 -6.500380e-01 -1.407198e-01
    outer loop
      vertex -1.041024e-01 4.043477e+00 1.850594e+00
      vertex 2.256944e-01 3.518175e+00 2.527027e+00
      vertex -4.411897e-01 4.251130e+00 2.680189e+00
    endloop
  endfacet
  facet normal -8.601364e-01 -4.519950e-01 -2.363598e-01
    outer loop
      vertex -1.041024e-01 4.043477e+00 1.850594e+00
      vertex -4.411897e-01 4.251130e+00 2.680189e+00
      vertex -5.809872e-01 4.837530e+00 2.067541e+00
    endloop
  endfacet
  facet normal -8.017886e-01 -3.489876e-01 -4.851214e-01
    outer loop
      vertex -1.041024e-01 4.043477e+00 1.850594e+00
      vertex -5.809872e-01 4.837530e+00 2.067541e+00
      vertex -5.385468e-02 4.690930e+00 1.301780e+00
    endloop
  endfacet
  facet normal -9.972274e-01 7.432711e-02 -3.617094e-03
    outer loop
      vertex -1.041024e-01 4.043477e+00 1.850594e+00
      vertex -5.385468e-02 4.690930e+00 1.301780e+00
      vertex -1.237636e-01 3.738075e+00 9.955040e-01
    endloop
  endfacet
  facet normal -8.181524e-01 -5.352846e-01 2.099928e-01
    outer loop
      vertex -1.041024e-01 4.043477e+00 1.850594e+00
      vertex -1.237636e-01 3.738075e+00 9.955040e-01
      vertex 3.494861e-01 3.225020e+00 1.531523e+00
    endloop
  endfacet
  facet normal -8.676580e-01 -4.957011e-01 3.807944e-02
    outer loop
      vertex -1.041024e-01 4.043477e+00 1.850594e+00
      vertex 3.494861e-01 3.225020e+00 1.531523e+00
      vertex 2.256944e-01 3.518175e+00 2.527027e+00
    endloop
  endfacet
  facet normal -7.467587e-01 6.500380e-01 -1.407198e-01
    outer loop
      vertex -2.546788e-02 1.771312e+00 5.271001e+00
      vertex 3.116194e-01 1.978965e+00 4.441407e+00
      vertex -3.552647e-01 1.246010e+00 4.594568e+00
    endloop
  endfacet
  facet normal -8.676580e-01 4.957011e-01 3.807944e-02
    outer loop
      vertex -2.546788e-02 1.771312e+00 5.271001e+00
      vertex -3.552647e-01 1.246010e+00 4.594568e+00
      vertex -4.790564e-01 9.528551e-01 5.590072e+00
    endloop
  endfacet
  facet normal -8.181524e-01 5.352846e-01 2.099928e-01
    outer loop
      vertex -2.546788e-02 1.771312e+00 5.271001e+00
      vertex -4.790564e-01 9.528551e-01 5.590072e+00
      vertex -5.806678e-03 1.465910e+00 6.126091e+00
    endloop
  endfacet
  facet normal -9.972274e-01 -7.432711e-02 -3.617094e-03
    outer loop
      vertex -2.546788e-02 1.771312e+00 5.271001e+00
      vertex -5.806678e-03 1.465910e+00 6.126091e+00
      vertex -7.571565e-02 2.418765e+00 5.819815e+00
    endloop
  endfacet
  facet normal -8.017886e-01 3.489876e-01 -4.851214e-01
    outer loop
      vertex -2.546788e-02 1.771312e+00 5.271001e+00
      vertex -7.571565e-02 2.418765e+00 5.819815e+00
      vertex 4.514169e-01 2.565365e+00 5.054054e+00
    endloop
  endfacet
  facet normal -8.601364e-01 4.519950e-01 -2.363598e-01
    outer loop
      vertex -2.546788e-02 1.771312e+00 5.271001e+00
      vertex 4.514169e-01 2.565365e+00 5.054054e+00
      vertex 3.116194e-01 1.978965e+00 4.441407e+00
    endloop
  endfacet
  facet normal -7.467587e-01 6.519910e-01 -1.313741e-01
    outer loop
      vertex -2.182268e-02 1.553854e+00 4.226999e+00
      vertex -3.552647e-01 1.246010e+00 4.594568e+00
      vertex 3.116194e-01 1.978965e+00 4.441407e+00
    endloop
  endfacet
  facet normal -4.300845e-01 6.521854e-01 -6.242448e-01
    outer loop
      vertex -2.182268e-02 1.553854e+00 4.226999e+00
      vertex 3.116194e-01 1.978965e+00 4.441407e+00
      vertex 3.116194e-01 1.495221e+00 3.936011e+00
    endloop
  endfacet
  facet normal 0.000000e+00 9.802975e-01 -1.975268e-01
    outer loop
      vertex -2.182268e-02 1.553854e+00 4.226999e+00
      vertex 3.116194e-01 1.495221e+00 3.936011e+00
      vertex -3.552647e-01 1.495221e+00 3.936011e+00
    endloop
  endfacet
  facet normal -4.278210e-01 8.453596e-01 3.199006e-01
    outer loop
      vertex -2.182268e-02 1.553854e+00 4.226999e+00
      vertex -3.552647e-01 1.495221e+00 3.936011e+00
      vertex -3.552647e-01 1.246010e+00 4.594568e+00
    endloop
  endfacet
  facet normal -8.283292e-01 1.203422e-01 -5.471640e-01
    outer loop
      vertex 5.751856e-01 1.773743e+00 3.997268e+00
      vertex 3.116194e-01 1.978965e+00 4.441407e+00
      vertex 8.387519e-01 2.125565e+00 3.675645e+00
    endloop
  endfacet
  facet normal -5.258610e-01 -3.247204e-01 -7.861469e-01
    outer loop
      vertex 5.751856e-01 1.773743e+00 3.997268e+00
      vertex 8.387519e-01 2.125565e+00 3.675645e+00
      vertex 8.387519e-01 1.495221e+00 3.936011e+00
    endloop
  endfacet
  facet normal 0.000000e+00 2.148041e-01 -9.766572e-01
    outer loop
      vertex 5.751856e-01 1.773743e+00 3.997268e+00
      vertex 8.387519e-01 1.495221e+00 3.936011e+00
      vertex 3.116194e-01 1.495221e+00 3.936011e+00
    endloop
  endfacet
  facet normal -5.161925e-01 6.187261e-01 -5.922189e-01
    outer loop
      vertex 5.751856e-01 1.773743e+00 3.997268e+00
      vertex 3.116194e-01 1.495221e+00 3.936011e+00
      vertex 3.116194e-01 1.978965e+00 4.441407e+00
    endloop
  endfacet
  facet normal -8.401368e-01 -4.920622e-01 -2.281335e-01
    outer loop
      vertex 1.137239e+00 1.608829e+00 3.690968e+00
      vertex 8.387519e-01 2.125565e+00 3.675645e+00
      vertex 1.435727e+00 1.319310e+00 3.216207e+00
    endloop
  endfacet
  facet normal -4.916665e-01 -8.458894e-01 2.067249e-01
    outer loop
      vertex 1.137239e+00 1.608829e+00 3.690968e+00
      vertex 1.435727e+00 1.319310e+00 3.216207e+00
      vertex 1.435727e+00 1.495221e+00 3.936011e+00
    endloop
  endfacet
  facet normal 0.000000e+00 -9.072370e-01 -4.206198e-01
    outer loop
      vertex 1.137239e+00 1.608829e+00 3.690968e+00
      vertex 1.435727e+00 1.495221e+00 3.936011e+00
      vertex 8.387519e-01 1.495221e+00 3.936011e+00
    endloop
  endfacet
  facet normal -5.229074e-01 -3.254148e-01 -7.878281e-01
    outer loop
      vertex 1.137239e+00 1.608829e+00 3.690968e+00
      vertex 8.387519e-01 1.495221e+00 3.936011e+00
      vertex 8.387519e-01 2.125565e+00 3.675645e+00
    endloop
  endfacet
  facet normal -8.428726e-01 -3.887394e-01 3.720852e-01
    outer loop
      vertex 1.672352e+00 1.279002e+00 3.710114e+00
      vertex 1.435727e+00 1.319310e+00 3.216207e+00
      vertex 1.908977e+00 8.062550e-01 3.752226e+00
    endloop
  endfacet
  facet normal -5.661893e-01 -2.124501e-01 7.964262e-01
    outer loop
      vertex 1.672352e+00 1.279002e+00 3.710114e+00
      vertex 1.908977e+00 8.062550e-01 3.752226e+00
      vertex 1.908977e+00 1.495221e+00 3.936011e+00
    endloop
  endfacet
  facet normal 0.000000e+00 -7.224121e-01 6.914628e-01
    outer loop
      vertex 1.672352e+00 1.279002e+00 3.710114e+00
      vertex 1.908977e+00 1.495221e+00 3.936011e+00
      vertex 1.435727e+00 1.495221e+00 3.936011e+00
    endloop
  endfacet
  facet normal -5.514248e-01 -8.103756e-01 1.980457e-01
    outer loop
      vertex 1.672352e+00 1.279002e+00 3.710114e+00
      vertex 1.435727e+00 1.495221e+00 3.936011e+00
      vertex 1.435727e+00 1.319310e+00 3.216207e+00
    endloop
  endfacet
  facet normal -8.796906e-01 4.745763e-01 3.036237e-02
    outer loop
      vertex -3.642919e-17 8.673617e-17 -2.775558e-17
      vertex 5.431204e-01 9.528551e-01 8.423423e-01
      vertex 6.669122e-01 1.246010e+00 -1.531618e-01
    endloop
  endfacet
  facet normal -8.300750e-01 4.793210e-01 2.850032e-01
    outer loop
      vertex -3.642919e-17 8.673617e-17 -2.775558e-17
      vertex 6.669122e-01 1.246010e+00 -1.531618e-01
      vertex 1.237636e-01 8.062550e-01 -9.955040e-01
    endloop
  endfacet
  facet normal -9.946741e-01 8.944147e-02 -5.122215e-02
    outer loop
      vertex -3.642919e-17 8.673617e-17 -2.775558e-17
      vertex 1.237636e-01 8.062550e-01 -9.955040e-01
      vertex 5.385468e-02 -1.466001e-01 -1.301780e+00
    endloop
  endfacet
  facet normal -8.254838e-01 5.560680e-01 -9.677194e-02
    outer loop
      vertex -3.642919e-17 8.673617e-17 -2.775558e-17
      vertex 5.385468e-02 -1.466001e-01 -1.301780e+00
      vertex -5.431204e-01 -9.528551e-01 -8.423423e-01
    endloop
  endfacet
  facet normal -8.796906e-01 4.745763e-01 3.036237e-02
    outer loop
      vertex -3.642919e-17 8.673617e-17 -2.775558e-17
      vertex -5.431204e-01 -9.528551e-01 -8.423423e-01
      vertex -6.669122e-01 -1.246010e+00 1.531618e-01
    endloop
  endfacet
  facet normal -8.300750e-01 4.793210e-01 2.850032e-01
    outer loop
      vertex -3.642919e-17 8.673617e-17 -2.775558e-17
      vertex -6.669122e-01 -1.246010e+00 1.531618e-01
      vertex -1.237636e-01 -8.062550e-01 9.955040e-01
    endloop
  endfacet
  facet normal -9.946741e-01 8.944147e-02 -5.122215e-02
    outer loop
      vertex -3.642919e-17 8.673617e-17 -2.775558e-17
      vertex -1.237636e-01 -8.062550e-01 9.955040e-01
      vertex -5.385468e-02 1.466001e-01 1.301780e+00
    endloop
  endfacet
  facet normal -8.254838e-01 5.560680e-01 -9.677194e-02
    outer loop
      vertex -3.642919e-17 8.673617e-17 -2.775558e-17
      vertex -5.385468e-02 1.466001e-01 1.301780e+00
      vertex 5.431204e-01 9.528551e-01 8.423423e-01
    endloop
  endfacet
  facet normal -8.796906e-01 -4.745763e-01 3.036237e-02
    outer loop
      vertex 8.926066e-01 2.272165e+00 2.373865e+00
      vertex 2.256944e-01 3.518175e+00 2.527027e+00
      vertex 3.494861e-01 3.225020e+00 1.531523e+00
    endloop
  endfacet
  facet normal -8.254838e-01 -5.560680e-01 -9.677194e-02
    outer loop
      vertex 8.926066e-01 2.272165e+00 2.373865e+00
      vertex 3.494861e-01 3.225020e+00 1.531523e+00
      vertex 9.464612e-01 2.418765e+00 1.072085e+00
    endloop
  endfacet
  facet normal -9.946741e-01 -8.944147e-02 -5.122215e-02
    outer loop
      vertex 8.926066e-01 2.272165e+00 2.373865e+00
      vertex 9.464612e-01 2.418765e+00 1.072085e+00
      vertex 1.016370e+00 1.465910e+00 1.378361e+00
    endloop
  endfacet
  facet normal -8.300750e-01 -4.793210e-01 2.850032e-01
    outer loop
      vertex 8.926066e-01 2.272165e+00 2.373865e+00
      vertex 1.016370e+00 1.465910e+00 1.378361e+00
      vertex 1.559519e+00 1.026155e+00 2.220703e+00
    endloop
  endfacet
  facet normal -8.796906e-01 -4.745763e-01 3.036237e-02
    outer loop
      vertex 8.926066e-01 2.272165e+00 2.373865e+00
      vertex 1.559519e+00 1.026155e+00 2.220703e+00
      vertex 1.435727e+00 1.319310e+00 3.216207e+00
    endloop
  endfacet
  facet normal -8.254838e-01 -5.560680e-01 -9.677194e-02
    outer loop
      vertex 8.926066e-01 2.272165e+00 2.373865e+00
      vertex 1.435727e+00 1.319310e+00 3.216207e+00
      vertex 8.387519e-01 2.125565e+00 3.675645e+00
    endloop
  endfacet
  facet normal -9.946741e-01 -8.944147e-02 -5.122215e-02
    outer loop
      vertex 8.926066e-01 2.272165e+00 2.373865e+00
      vertex 8.387519e-01 2.125565e+00 3.675645e+00
      vertex 7.688429e-01 3.078420e+00 3.369369e+00
    endloop
  endfacet
  facet normal -8.300750e-01 -4.793210e-01 2.850032e-01
    outer loop
      vertex 8.926066e-01 2.272165e+00 2.373865e+00
      vertex 7.688429e-01 3.078420e+00 3.369369e+00
      vertex 2.256944e-01 3.518175e+00 2.527027e+00
    endloop
  endfacet
  facet normal -8.796906e-01 4.745763e-01 3.036237e-02
    outer loop
      vertex 1.785213e+00 4.544330e+00 4.747730e+00
      vertex 1.242093e+00 3.591475e+00 3.905388e+00
      vertex 1.118301e+00 3.298320e+00 4.900892e+00
    endloop
  endfacet
  facet normal -8.300750e-01 4.793210e-01 2.850032e-01
    outer loop
      vertex 1.785213e+00 4.544330e+00 4.747730e+00
      vertex 1.118301e+00 3.298320e+00 4.900892e+00
      vertex 1.661449e+00 3.738075e+00 5.743234e+00
    endloop
  endfacet
  facet normal -9.946741e-01 8.944147e-02 -5.122215e-02
    outer loop
      vertex 1.785213e+00 4.544330e+00 4.747730e+00
      vertex 1.661449e+00 3.738075e+00 5.743234e+00
      vertex 1.731358e+00 4.690930e+00 6.049510e+00
    endloop
  endfacet
  facet normal -8.254838e-01 5.560680e-01 -9.677194e-02
    outer loop
      vertex 1.785213e+00 4.544330e+00 4.747730e+00
      vertex 1.731358e+00 4.690930e+00 6.049510e+00
      vertex 2.328334e+00 5.497185e+00 5.590072e+00
    endloop
  endfacet
  facet normal -8.796906e-01 4.745763e-01 3.036237e-02
    outer loop
      vertex 1.785213e+00 4.544330e+00 4.747730e+00
      vertex 2.328334e+00 5.497185e+00 5.590072e+00
      vertex 2.452125e+00 5.790340e+00 4.594568e+00
    endloop
  endfacet
  facet normal -8.300750e-01 4.793210e-01 2.850032e-01
    outer loop
      vertex 1.785213e+00 4.544330e+00 4.747730e+00
      vertex 2.452125e+00 5.790340e+00 4.594568e+00
      vertex 1.908977e+00 5.350585e+00 3.752226e+00
    endloop
  endfacet
  facet normal -9.946741e-01 8.944147e-02 -5.122215e-02
    outer loop
      vertex 1.785213e+00 4.544330e+00 4.747730e+00
      vertex 1.908977e+00 5.350585e+00 3.752226e+00
      vertex 1.839068e+00 4.397730e+00 3.445950e+00
    endloop
  endfacet
  facet normal -8.254838e-01 5.560680e-01 -9.677194e-02
    outer loop
      vertex 1.785213e+00 4.544330e+00 4.747730e+00
      vertex 1.839068e+00 4.397730e+00 3.445950e+00
      vertex 1.242093e+00 3.591475e+00 3.905388e+00
    endloop
  endfacet
  facet normal -8.300750e-01 4.793210e-01 2.850032e-01
    outer loop
      vertex -1.022177e+00 2.220446e-16 4.747730e+00
      vertex -3.552647e-01 1.246010e+00 4.594568e+00
      vertex -8.984132e-01 8.062550e-01 3.752226e+00
    endloop
  endfacet
  facet normal -9.946741e-01 8.944147e-02 -5.122215e-02
    outer loop
      vertex -1.022177e+00 2.220446e-16 4.747730e+00
      vertex -8.984132e-01 8.062550e-01 3.752226e+00
      vertex -9.683222e-01 -1.466001e-01 3.445950e+00
    endloop
  endfacet
  facet normal -8.254838e-01 5.560680e-01 -9.677194e-02
    outer loop
      vertex -1.022177e+00 2.220446e-16 4.747730e+00
      vertex -9.683222e-01 -1.466001e-01 3.445950e+00
      vertex -1.565297e+00 -9.528551e-01 3.905388e+00
    endloop
  endfacet
  facet normal -8.796906e-01 4.745763e-01 3.036237e-02
    outer loop
      vertex -1.022177e+00 2.220446e-16 4.747730e+00
      vertex -1.565297e+00 -9.528551e-01 3.905388e+00
      vertex -1.689089e+00 -1.246010e+00 4.900892e+00
    endloop
  endfacet
  facet normal -8.300750e-01 4.793210e-01 2.850032e-01
    outer loop
      vertex -1.022177e+00 2.220446e-16 4.747730e+00
      vertex -1.689089e+00 -1.246010e+00 4.900892e+00
      vertex -1.145941e+00 -8.062550e-01 5.743234e+00
    endloop
  endfacet
  facet normal -9.946741e-01 8.944147e-02 -5.122215e-02
    outer loop
      vertex -1.022177e+00 2.220446e-16 4.747730e+00
      vertex -1.145941e+00 -8.062550e-01 5.743234e+00
      vertex -1.076032e+00 1.466001e-01 6.049510e+00
    endloop
  endfacet
  facet normal -8.254838e-01 5.560680e-01 -9.677194e-02
    outer loop
      vertex -1.022177e+00 2.220446e-16 4.747730e+00
      vertex -1.076032e+00 1.466001e-01 6.049510e+00
      vertex -4.790564e-01 9.528551e-01 5.590072e+00
    endloop
  endfacet
  facet normal -8.796906e-01 4.745763e-01 3.036237e-02
    outer loop
      vertex -1.022177e+00 2.220446e-16 4.747730e+00
      vertex -4.790564e-01 9.528551e-01 5.590072e+00
      vertex -3.552647e-01 1.246010e+00 4.594568e+00
    endloop
  endfacet
  facet normal -8.300750e-01 4.793210e-01 2.850032e-01
    outer loop
      vertex 2.807390e+00 4.544330e+00 5.551115e-17
      vertex 2.140478e+00 3.298320e+00 1.531618e-01
      vertex 2.683626e+00 3.738075e+00 9.955040e-01
    endloop
  endfacet
  facet normal -9.946741e-01 8.944147e-02 -5.122215e-02
    outer loop
      vertex 2.807390e+00 4.544330e+00 5.551115e-17
      vertex 2.683626e+00 3.738075e+00 9.955040e-01
      vertex 2.753535e+00 4.690930e+00 1.301780e+00
    endloop
  endfacet
  facet normal -8.254838e-01 5.560680e-01 -9.677194e-02
    outer loop
      vertex 2.807390e+00 4.544330e+00 5.551115e-17
      vertex 2.753535e+00 4.690930e+00 1.301780e+00
      vertex 3.350510e+00 5.497185e+00 8.423423e-01
    endloop
  endfacet
  facet normal -8.796906e-01 4.745763e-01 3.036237e-02
    outer loop
      vertex 2.807390e+00 4.544330e+00 5.551115e-17
      vertex 3.350510e+00 5.497185e+00 8.423423e-01
      vertex 3.474302e+00 5.790340e+00 -1.531618e-01
    endloop
  endfacet
  facet normal -8.300750e-01 4.793210e-01 2.850032e-01
    outer loop
      vertex 2.807390e+00 4.544330e+00 5.551115e-17
      vertex 3.474302e+00 5.790340e+00 -1.531618e-01
      vertex 2.931154e+00 5.350585e+00 -9.955040e-01
    endloop
  endfacet
  facet normal -9.946741e-01 8.944147e-02 -5.122215e-02
    outer loop
      vertex 2.807390e+00 4.544330e+00 5.551115e-17
      vertex 2.931154e+00 5.350585e+00 -9.955040e-01
      vertex 2.861245e+00 4.397730e+00 -1.301780e+00
    endloop
  endfacet
  facet normal -8.254838e-01 5.560680e-01 -9.677194e-02
    outer loop
      vertex 2.807390e+00 4.544330e+00 5.551115e-17
      vertex 2.861245e+00 4.397730e+00 -1.301780e+00
      vertex 2.264270e+00 3.591475e+00 -8.423423e-01
    endloop
  endfacet
  facet normal -8.796906e-01 4.745763e-01 3.036237e-02
    outer loop
      vertex 2.807390e+00 4.544330e+00 5.551115e-17
      vertex 2.264270e+00 3.591475e+00 -8.423423e-01
      vertex 2.140478e+00 3.298320e+00 1.531618e-01
    endloop
  endfacet
  facet normal -8.181524e-01 5.352846e-01 2.099928e-01
    outer loop
      vertex 9.967090e-01 1.771312e+00 5.232711e-01
      vertex 5.431204e-01 9.528551e-01 8.423423e-01
      vertex 1.016370e+00 1.465910e+00 1.378361e+00
    endloop
  endfacet
  facet normal -9.972274e-01 -7.432711e-02 -3.617094e-03
    outer loop
      vertex 9.967090e-01 1.771312e+00 5.232711e-01
      vertex 1.016370e+00 1.465910e+00 1.378361e+00
      vertex 9.464612e-01 2.418765e+00 1.072085e+00
    endloop
  endfacet
  facet normal -8.017886e-01 3.489876e-01 -4.851214e-01
    outer loop
      vertex 9.967090e-01 1.771312e+00 5.232711e-01
      vertex 9.464612e-01 2.418765e+00 1.072085e+00
      vertex 1.473594e+00 2.565365e+00 3.063235e-01
    endloop
  endfacet
  facet normal -8.601364e-01 4.519950e-01 -2.363598e-01
    outer loop
      vertex 9.967090e-01 1.771312e+00 5.232711e-01
      vertex 1.473594e+00 2.565365e+00 3.063235e-01
      vertex 1.333796e+00 1.978965e+00 -3.063235e-01
    endloop
  endfacet
  facet normal -7.467587e-01 6.500380e-01 -1.407198e-01
    outer loop
      vertex 9.967090e-01 1.771312e+00 5.232711e-01
      vertex 1.333796e+00 1.978965e+00 -3.063235e-01
      vertex 6.669122e-01 1.246010e+00 -1.531618e-01
    endloop
  endfacet
  facet normal -8.676580e-01 4.957011e-01 3.807944e-02
    outer loop
      vertex 9.967090e-01 1.771312e+00 5.232711e-01
      vertex 6.669122e-01 1.246010e+00 -1.531618e-01
      vertex 5.431204e-01 9.528551e-01 8.423423e-01
    endloop
  endfacet
  facet normal -8.181524e-01 5.352846e-01 2.099928e-01
    outer loop
      vertex 7.885041e-01 2.773018e+00 4.224459e+00
      vertex 1.242093e+00 3.591475e+00 3.905388e+00
      vertex 7.688429e-01 3.078420e+00 3.369369e+00
    endloop
  endfacet
  facet normal -9.972274e-01 -7.432711e-02 -3.617094e-03
    outer loop
      vertex 7.885041e-01 2.773018e+00 4.224459e+00
      vertex 7.688429e-01 3.078420e+00 3.369369e+00
      vertex 8.387519e-01 2.125565e+00 3.675645e+00
    endloop
  endfacet
  facet normal -8.017886e-01 3.489876e-01 -4.851214e-01
    outer loop
      vertex 7.885041e-01 2.773018e+00 4.224459e+00
      vertex 8.387519e-01 2.125565e+00 3.675645e+00
      vertex 3.116194e-01 1.978965e+00 4.441407e+00
    endloop
  endfacet
  facet normal -8.601364e-01 4.519950e-01 -2.363598e-01
    outer loop
      vertex 7.885041e-01 2.773018e+00 4.224459e+00
      vertex 3.116194e-01 1.978965e+00 4.441407e+00
      vertex 4.514169e-01 2.565365e+00 5.054054e+00
    endloop
  endfacet
  facet normal -7.467587e-01 6.500380e-01 -1.407198e-01
    outer loop
      vertex 7.885041e-01 2.773018e+00 4.224459e+00
      vertex 4.514169e-01 2.565365e+00 5.054054e+00
      vertex 1.118301e+00 3.298320e+00 4.900892e+00
    endloop
  endfacet
  facet normal -8.676580e-01 4.957011e-01 3.807944e-02
    outer loop
      vertex 7.885041e-01 2.773018e+00 4.224459e+00
      vertex 1.118301e+00 3.298320e+00 4.900892e+00
      vertex 1.242093e+00 3.591475e+00 3.905388e+00
    endloop
  endfacet
  facet normal -9.972274e-01 7.432711e-02 -3.617094e-03
    outer loop
      vertex -1.041024e-01 -5.008533e-01 1.850594e+00
      vertex -5.385468e-02 1.466001e-01 1.301780e+00
      vertex -1.237636e-01 -8.062550e-01 9.955040e-01
    endloop
  endfacet
  facet normal -8.181524e-01 -5.352846e-01 2.099928e-01
    outer loop
      vertex -1.041024e-01 -5.008533e-01 1.850594e+00
      vertex -1.237636e-01 -8.062550e-01 9.955040e-01
      vertex 3.494861e-01 -1.319310e+00 1.531523e+00
    endloop
  endfacet
  facet normal -8.676580e-01 -4.957011e-01 3.807944e-02
    outer loop
      vertex -1.041024e-01 -5.008533e-01 1.850594e+00
      vertex 3.494861e-01 -1.319310e+00 1.531523e+00
      vertex 2.256944e-01 -1.026155e+00 2.527027e+00
    endloop
  endfacet
  facet normal -7.467587e-01 -6.500380e-01 -1.407198e-01
    outer loop
      vertex -1.041024e-01 -5.008533e-01 1.850594e+00
      vertex 2.256944e-01 -1.026155e+00 2.527027e+00
      vertex -4.411897e-01 -2.932002e-01 2.680189e+00
    endloop
  endfacet
  facet normal -8.601364e-01 -4.519950e-01 -2.363598e-01
    outer loop
      vertex -1.041024e-01 -5.008533e-01 1.850594e+00
      vertex -4.411897e-01 -2.932002e-01 2.680189e+00
      vertex -5.809872e-01 2.932002e-01 2.067541e+00
    endloop
  endfacet
  facet normal -8.017886e-01 -3.489876e-01 -4.851214e-01
    outer loop
      vertex -1.041024e-01 -5.008533e-01 1.850594e+00
      vertex -5.809872e-01 2.932002e-01 2.067541e+00
      vertex -5.385468e-02 1.466001e-01 1.301780e+00
    endloop
  endfacet
  facet normal -9.946741e-01 8.944147e-02 -5.122215e-02
    outer loop
      vertex 3.330669e-16 4.544330e+00 2.081668e-17
      vertex -1.237636e-01 3.738075e+00 9.955040e-01
      vertex -5.385468e-02 4.690930e+00 1.301780e+00
    endloop
  endfacet
  facet normal -8.254838e-01 5.560680e-01 -9.677194e-02
    outer loop
      vertex 3.330669e-16 4.544330e+00 2.081668e-17
      vertex -5.385468e-02 4.690930e+00 1.301780e+00
      vertex 5.431204e-01 5.497185e+00 8.423423e-01
    endloop
  endfacet
  facet normal -8.796906e-01 4.745763e-01 3.036237e-02
    outer loop
      vertex 3.330669e-16 4.544330e+00 2.081668e-17
      vertex 5.431204e-01 5.497185e+00 8.423423e-01
      vertex 6.669122e-01 5.790340e+00 -1.531618e-01
    endloop
  endfacet
  facet normal -8.300750e-01 4.793210e-01 2.850032e-01
    outer loop
      vertex 3.330669e-16 4.544330e+00 2.081668e-17
      vertex 6.669122e-01 5.790340e+00 -1.531618e-01
      vertex 1.237636e-01 5.350585e+00 -9.955040e-01
    endloop
  endfacet
  facet normal -9.946741e-01 8.944147e-02 -5.122215e-02
    outer loop
      vertex 3.330669e-16 4.544330e+00 2.081668e-17
      vertex 1.237636e-01 5.350585e+00 -9.955040e-01
      vertex 5.385468e-02 4.397730e+00 -1.301780e+00
    endloop
  endfacet
  facet normal -8.254838e-01 5.560680e-01 -9.677194e-02
    outer loop
      vertex 3.330669e-16 4.544330e+00 2.081668e-17
      vertex 5.385468e-02 4.397730e+00 -1.301780e+00
      vertex -5.431204e-01 3.591475e+00 -8.423423e-01
    endloop
  endfacet
  facet normal -8.796906e-01 4.745763e-01 3.036237e-02
    outer loop
      vertex 3.330669e-16 4.544330e+00 2.081668e-17
      vertex -5.431204e-01 3.591475e+00 -8.423423e-01
      vertex -6.669122e-01 3.298320e+00 1.531618e-01
    endloop
  endfacet
  facet normal -8.300750e-01 4.793210e-01 2.850032e-01
    outer loop
      vertex 3.330669e-16 4.544330e+00 2.081668e-17
      vertex -6.669122e-01 3.298320e+00 1.531618e-01
      vertex -1.237636e-01 3.738075e+00 9.955040e-01
    endloop
  endfacet
  facet normal -9.972274e-01 7.432711e-02 -3.617094e-03
    outer loop
      vertex 1.889316e+00 5.045183e+00 2.897136e+00
      vertex 1.839068e+00 4.397730e+00 3.445950e+00
      vertex 1.908977e+00 5.350585e+00 3.752226e+00
    endloop
  endfacet
  facet normal -8.181524e-01 -5.352846e-01 2.099928e-01
    outer loop
      vertex 1.889316e+00 5.045183e+00 2.897136e+00
      vertex 1.908977e+00 5.350585e+00 3.752226e+00
      vertex 1.435727e+00 5.863640e+00 3.216207e+00
    endloop
  endfacet
  facet normal -8.676580e-01 -4.957011e-01 3.807944e-02
    outer loop
      vertex 1.889316e+00 5.045183e+00 2.897136e+00
      vertex 1.435727e+00 5.863640e+00 3.216207e+00
      vertex 1.559519e+00 5.570485e+00 2.220703e+00
    endloop
  endfacet
  facet normal -7.467587e-01 -6.500380e-01 -1.407198e-01
    outer loop
      vertex 1.889316e+00 5.045183e+00 2.897136e+00
      vertex 1.559519e+00 5.570485e+00 2.220703e+00
      vertex 2.226403e+00 4.837530e+00 2.067541e+00
    endloop
  endfacet
  facet normal -8.601364e-01 -4.519950e-01 -2.363598e-01
    outer loop
      vertex 1.889316e+00 5.045183e+00 2.897136e+00
      vertex 2.226403e+00 4.837530e+00 2.067541e+00
      vertex 2.366200e+00 4.251130e+00 2.680189e+00
    endloop
  endfacet
  facet normal -8.017886e-01 -3.489876e-01 -4.851214e-01
    outer loop
      vertex 1.889316e+00 5.045183e+00 2.897136e+00
      vertex 2.366200e+00 4.251130e+00 2.680189e+00
      vertex 1.839068e+00 4.397730e+00 3.445950e+00
    endloop
  endfacet
  facet normal -9.946741e-01 8.944147e-02 -5.122215e-02
    outer loop
      vertex 1.785213e+00 2.220446e-16 4.747730e+00
      vertex 1.908977e+00 8.062550e-01 3.752226e+00
      vertex 1.839068e+00 -1.466001e-01 3.445950e+00
    endloop
  endfacet
  facet normal -8.254838e-01 5.560680e-01 -9.677194e-02
    outer loop
      vertex 1.785213e+00 2.220446e-16 4.747730e+00
      vertex 1.839068e+00 -1.466001e-01 3.445950e+00
      vertex 1.242093e+00 -9.528551e-01 3.905388e+00
    endloop
  endfacet
  facet normal -8.796906e-01 4.745763e-01 3.036237e-02
    outer loop
      vertex 1.785213e+00 2.220446e-16 4.747730e+00
      vertex 1.242093e+00 -9.528551e-01 3.905388e+00
      vertex 1.118301e+00 -1.246010e+00 4.900892e+00
    endloop
  endfacet
  facet normal -8.300750e-01 4.793210e-01 2.850032e-01
    outer loop
      vertex 1.785213e+00 2.220446e-16 4.747730e+00
      vertex 1.118301e+00 -1.246010e+00 4.900892e+00
      vertex 1.661449e+00 -8.062550e-01 5.743234e+00
    endloop
  endfacet
  facet normal -9.946741e-01 8.944147e-02 -5.122215e-02
    outer loop
      vertex 1.785213e+00 2.220446e-16 4.747730e+00
      vertex 1.661449e+00 -8.062550e-01 5.743234e+00
      vertex 1.731358e+00 1.466001e-01 6.049510e+00
    endloop
  endfacet
  facet normal -8.254838e-01 5.560680e-01 -9.677194e-02
    outer loop
      vertex 1.785213e+00 2.220446e-16 4.747730e+00
      vertex 1.731358e+00 1.466001e-01 6.049510e+00
      vertex 2.328334e+00 9.528551e-01 5.590072e+00
    endloop
  endfacet
  facet normal -8.796906e-01 4.745763e-01 3.036237e-02
    outer loop
      vertex 1.785213e+00 2.220446e-16 4.747730e+00
      vertex 2.328334e+00 9.528551e-01 5.590072e+00
      vertex 2.452125e+00 1.246010e+00 4.594568e+00
    endloop
  endfacet
  facet normal -8.300750e-01 4.793210e-01 2.850032e-01
    outer loop
      vertex 1.785213e+00 2.220446e-16 4.747730e+00
      vertex 2.452125e+00 1.246010e+00 4.594568e+00
      vertex 1.908977e+00 8.062550e-01 3.752226e+00
    endloop
  endfacet
  facet normal -8.017886e-01 -3.489876e-01 -4.851214e-01
    outer loop
      vertex 2.703288e+00 -5.008533e-01 1.850594e+00
      vertex 2.226403e+00 2.932002e-01 2.067541e+00
      vertex 2.753535e+00 1.466001e-01 1.301780e+00
    endloop
  endfacet
  facet normal -9.972274e-01 7.432711e-02 -3.617094e-03
    outer loop
      vertex 2.703288e+00 -5.008533e-01 1.850594e+00
      vertex 2.753535e+00 1.466001e-01 1.301780e+00
      vertex 2.683626e+00 -8.062550e-01 9.955040e-01
    endloop
  endfacet
  facet normal -8.181524e-01 -5.352846e-01 2.099928e-01
    outer loop
      vertex 2.703288e+00 -5.008533e-01 1.850594e+00
      vertex 2.683626e+00 -8.062550e-01 9.955040e-01
      vertex 3.156876e+00 -1.319310e+00 1.531523e+00
    endloop
  endfacet
  facet normal -8.676580e-01 -4.957011e-01 3.807944e-02
    outer loop
      vertex 2.703288e+00 -5.008533e-01 1.850594e+00
      vertex 3.156876e+00 -1.319310e+00 1.531523e+00
      vertex 3.033084e+00 -1.026155e+00 2.527027e+00
    endloop
  endfacet
  facet normal -7.467587e-01 -6.500380e-01 -1.407198e-01
    outer loop
      vertex 2.703288e+00 -5.008533e-01 1.850594e+00
      vertex 3.033084e+00 -1.026155e+00 2.527027e+00
      vertex 2.366200e+00 -2.932002e-01 2.680189e+00
    endloop
  endfacet
  facet normal -8.601364e-01 -4.519950e-01 -2.363598e-01
    outer loop
      vertex 2.703288e+00 -5.008533e-01 1.850594e+00
      vertex 2.366200e+00 -2.932002e-01 2.680189e+00
      vertex 2.226403e+00 2.932002e-01 2.067541e+00
    endloop
  endfacet
  facet normal -8.017886e-01 -3.489876e-01 -4.851214e-01
    outer loop
      vertex -9.180744e-01 5.045183e+00 2.897136e+00
      vertex -4.411897e-01 4.251130e+00 2.680189e+00
      vertex -9.683222e-01 4.397730e+00 3.445950e+00
    endloop
  endfacet
  facet normal -9.972274e-01 7.432711e-02 -3.617094e-03
    outer loop
      vertex -9.180744e-01 5.045183e+00 2.897136e+00
      vertex -9.683222e-01 4.397730e+00 3.445950e+00
      vertex -8.984132e-01 5.350585e+00 3.752226e+00
    endloop
  endfacet
  facet normal -8.181524e-01 -5.352846e-01 2.099928e-01
    outer loop
      vertex -9.180744e-01 5.045183e+00 2.897136e+00
      vertex -8.984132e-01 5.350585e+00 3.752226e+00
      vertex -1.371663e+00 5.863640e+00 3.216207e+00
    endloop
  endfacet
  facet normal -8.676580e-01 -4.957011e-01 3.807944e-02
    outer loop
      vertex -9.180744e-01 5.045183e+00 2.897136e+00
      vertex -1.371663e+00 5.863640e+00 3.216207e+00
      vertex -1.247871e+00 5.570485e+00 2.220703e+00
    endloop
  endfacet
  facet normal -7.467587e-01 -6.500380e-01 -1.407198e-01
    outer loop
      vertex -9.180744e-01 5.045183e+00 2.897136e+00
      vertex -1.247871e+00 5.570485e+00 2.220703e+00
      vertex -5.809872e-01 4.837530e+00 2.067541e+00
    endloop
  endfacet
  facet normal -8.601364e-01 -4.519950e-01 -2.363598e-01
    outer loop
      vertex -9.180744e-01 5.045183e+00 2.897136e+00
      vertex -5.809872e-01 4.837530e+00 2.067541e+00
      vertex -4.411897e-01 4.251130e+00 2.680189e+00
    endloop
  endfacet
endsolid surface_model
