solid surface_model
  facet normal -5.773503e-01 -5.773503e-01 -5.773503e-01
    outer loop
      vertex 0.000000e+00 1.414215e+00 7.071075e-01
      vertex 7.071075e-01 7.071075e-01 7.071075e-01
      vertex 1.298935e-16 7.071075e-01 1.414215e+00
    endloop
  endfacet
  facet normal 5.773503e-01 -5.773503e-01 -5.773503e-01
    outer loop
      vertex 0.000000e+00 1.414215e+00 7.071075e-01
      vertex 1.298935e-16 7.071075e-01 1.414215e+00
      vertex -7.071075e-01 7.071075e-01 7.071075e-01
    endloop
  endfacet
  facet normal 5.773503e-01 -5.773503e-01 -5.773503e-01
    outer loop
      vertex 0.000000e+00 1.414215e+00 7.071075e-01
      vertex -7.071075e-01 7.071075e-01 7.071075e-01
      vertex -7.071075e-01 1.414215e+00 0.000000e+00
    endloop
  endfacet
  facet normal 5.773503e-01 5.773503e-01 -5.773503e-01
    outer loop
      vertex 0.000000e+00 1.414215e+00 7.071075e-01
      vertex -7.071075e-01 1.414215e+00 0.000000e+00
      vertex -7.071075e-01 2.121322e+00 7.071075e-01
    endloop
  endfacet
  facet normal 5.773503e-01 5.773503e-01 -5.773503e-01
    outer loop
      vertex 0.000000e+00 1.414215e+00 7.071075e-01
      vertex -7.071075e-01 2.121322e+00 7.071075e-01
      vertex 2.164892e-16 2.121322e+00 1.414215e+00
    endloop
  endfacet
  facet normal -5.773503e-01 5.773503e-01 -5.773503e-01
    outer loop
      vertex 0.000000e+00 1.414215e+00 7.071075e-01
      vertex 2.164892e-16 2.121322e+00 1.414215e+00
      vertex 7.071075e-01 2.121322e+00 7.071075e-01
    endloop
  endfacet
  facet normal -5.773503e-01 5.773503e-01 -5.773503e-01
    outer loop
      vertex 0.000000e+00 1.414215e+00 7.071075e-01
      vertex 7.071075e-01 2.121322e+00 7.071075e-01
      vertex 7.071075e-01 1.414215e+00 0.000000e+00
    endloop
  endfacet
  facet normal -5.773503e-01 -5.773503e-01 -5.773503e-01
    outer loop
      vertex 0.000000e+00 1.414215e+00 7.071075e-01
      vertex 7.071075e-01 1.414215e+00 0.000000e+00
      vertex 7.071075e-01 7.071075e-01 7.071075e-01
    endloop
  endfacet
  facet normal -5.773503e-01 -5.773503e-01 -5.773503e-01
    outer loop
      vertex 7.071075e-01 -5.551115e-17 1.414215e+00
      vertex 1.298935e-16 7.071075e-01 1.414215e+00
      vertex 7.071075e-01 7.071075e-01 7.071075e-01
    endloop
  endfacet
  facet normal -5.773503e-01 -5.773503e-01 -5.773503e-01
    outer loop
      vertex 7.071075e-01 -5.551115e-17 1.414215e+00
      vertex 7.071075e-01 7.071075e-01 7.071075e-01
      vertex 1.414215e+00 4.329785e-17 7.071075e-01
    endloop
  endfacet
  facet normal -5.773503e-01 5.773503e-01 -5.773503e-01
    outer loop
      vertex 7.071075e-01 -5.551115e-17 1.414215e+00
      vertex 1.414215e+00 4.329785e-17 7.071075e-01
      vertex 7.071075e-01 -7.071075e-01 7.071075e-01
    endloop
  endfacet
  facet normal -5.773503e-01 5.773503e-01 -5.773503e-01
    outer loop
      vertex 7.071075e-01 -5.551115e-17 1.414215e+00
      vertex 7.071075e-01 -7.071075e-01 7.071075e-01
      vertex 4.329785e-17 -7.071075e-01 1.414215e+00
    endloop
  endfacet
  facet normal -5.773503e-01 5.773503e-01 5.773503e-01
    outer loop
      vertex 7.071075e-01 -5.551115e-17 1.414215e+00
      vertex 4.329785e-17 -7.071075e-01 1.414215e+00
      vertex 7.071075e-01 -7.071075e-01 2.121322e+00
    endloop
  endfacet
  facet normal -5.773503e-01 5.773503e-01 5.773503e-01
    outer loop
      vertex 7.071075e-01 -5.551115e-17 1.414215e+00
      vertex 7.071075e-01 -7.071075e-01 2.121322e+00
      vertex 1.414215e+00 1.298935e-16 2.121322e+00
    endloop
  endfacet
  facet normal -5.773503e-01 -5.773503e-01 5.773503e-01
    outer loop
      vertex 7.071075e-01 -5.551115e-17 1.414215e+00
      vertex 1.414215e+00 1.298935e-16 2.121322e+00
      vertex 7.071075e-01 7.071075e-01 2.121322e+00
    endloop
  endfacet
  facet normal -5.773503e-01 -5.773503e-01 5.773503e-01
    outer loop
      vertex 7.071075e-01 -5.551115e-17 1.414215e+00
      vertex 7.071075e-01 7.071075e-01 2.121322e+00
      vertex 1.298935e-16 7.071075e-01 1.414215e+00
    endloop
  endfacet
  facet normal -5.773503e-01 -5.773503e-01 -5.773503e-01
    outer loop
      vertex 1.414215e+00 7.071075e-01 -8.326673e-17
      vertex 7.071075e-01 7.071075e-01 7.071075e-01
      vertex 7.071075e-01 1.414215e+00 0.000000e+00
    endloop
  endfacet
  facet normal -5.773503e-01 -5.773503e-01 5.773503e-01
    outer loop
      vertex 1.414215e+00 7.071075e-01 -8.326673e-17
      vertex 7.071075e-01 1.414215e+00 0.000000e+00
      vertex 7.071075e-01 7.071075e-01 -7.071075e-01
    endloop
  endfacet
  facet normal -5.773503e-01 -5.773503e-01 5.773503e-01
    outer loop
      vertex 1.414215e+00 7.071075e-01 -8.326673e-17
      vertex 7.071075e-01 7.071075e-01 -7.071075e-01
      vertex 1.414215e+00 -4.329785e-17 -7.071075e-01
    endloop
  endfacet
  facet normal 5.773503e-01 -5.773503e-01 5.773503e-01
    outer loop
      vertex 1.414215e+00 7.071075e-01 -8.326673e-17
      vertex 1.414215e+00 -4.329785e-17 -7.071075e-01
      vertex 2.121322e+00 7.071075e-01 -7.071075e-01
    endloop
  endfacet
  facet normal 5.773503e-01 -5.773503e-01 5.773503e-01
    outer loop
      vertex 1.414215e+00 7.071075e-01 -8.326673e-17
      vertex 2.121322e+00 7.071075e-01 -7.071075e-01
      vertex 2.121322e+00 1.414215e+00 0.000000e+00
    endloop
  endfacet
  facet normal 5.773503e-01 -5.773503e-01 -5.773503e-01
    outer loop
      vertex 1.414215e+00 7.071075e-01 -8.326673e-17
      vertex 2.121322e+00 1.414215e+00 0.000000e+00
      vertex 2.121322e+00 7.071075e-01 7.071075e-01
    endloop
  endfacet
  facet normal 5.773503e-01 -5.773503e-01 -5.773503e-01
    outer loop
      vertex 1.414215e+00 7.071075e-01 -8.326673e-17
      vertex 2.121322e+00 7.071075e-01 7.071075e-01
      vertex 1.414215e+00 4.329785e-17 7.071075e-01
    endloop
  endfacet
  facet normal -5.773503e-01 -5.773503e-01 -5.773503e-01
    outer loop
      vertex 1.414215e+00 7.071075e-01 -8.326673e-17
      vertex 1.414215e+00 4.329785e-17 7.071075e-01
      vertex 7.071075e-01 7.071075e-01 7.071075e-01
    endloop
  endfacet
  facet normal -5.773503e-01 -5.773503e-01 5.773503e-01
    outer loop
      vertex 0.000000e+00 1.414215e+00 2.121322e+00
      vertex 1.298935e-16 7.071075e-01 1.414215e+00
      vertex 7.071075e-01 7.071075e-01 2.121322e+00
    endloop
  endfacet
  facet normal -5.773503e-01 -5.773503e-01 5.773503e-01
    outer loop
      vertex 0.000000e+00 1.414215e+00 2.121322e+00
      vertex 7.071075e-01 7.071075e-01 2.121322e+00
      vertex 7.071075e-01 1.414215e+00 2.828430e+00
    endloop
  endfacet
  facet normal -5.773503e-01 5.773503e-01 5.773503e-01
    outer loop
      vertex 0.000000e+00 1.414215e+00 2.121322e+00
      vertex 7.071075e-01 1.414215e+00 2.828430e+00
      vertex 7.071075e-01 2.121322e+00 2.121322e+00
    endloop
  endfacet
  facet normal -5.773503e-01 5.773503e-01 5.773503e-01
    outer loop
      vertex 0.000000e+00 1.414215e+00 2.121322e+00
      vertex 7.071075e-01 2.121322e+00 2.121322e+00
      vertex 2.164892e-16 2.121322e+00 1.414215e+00
    endloop
  endfacet
  facet normal 5.773503e-01 5.773503e-01 5.773503e-01
    outer loop
      vertex 0.000000e+00 1.414215e+00 2.121322e+00
      vertex 2.164892e-16 2.121322e+00 1.414215e+00
      vertex -7.071075e-01 2.121322e+00 2.121322e+00
    endloop
  endfacet
  facet normal 5.773503e-01 5.773503e-01 5.773503e-01
    outer loop
      vertex 0.000000e+00 1.414215e+00 2.121322e+00
      vertex -7.071075e-01 2.121322e+00 2.121322e+00
      vertex -7.071075e-01 1.414215e+00 2.828430e+00
    endloop
  endfacet
  facet normal 5.773503e-01 -5.773503e-01 5.773503e-01
    outer loop
      vertex 0.000000e+00 1.414215e+00 2.121322e+00
      vertex -7.071075e-01 1.414215e+00 2.828430e+00
      vertex -7.071075e-01 7.071075e-01 2.121322e+00
    endloop
  endfacet
  facet normal 5.773503e-01 -5.773503e-01 5.773503e-01
    outer loop
      vertex 0.000000e+00 1.414215e+00 2.121322e+00
      vertex -7.071075e-01 7.071075e-01 2.121322e+00
      vertex 1.298935e-16 7.071075e-01 1.414215e+00
    endloop
  endfacet
  facet normal -5.773503e-01 -5.773503e-01 5.773503e-01
    outer loop
      vertex 1.414215e+00 7.071075e-01 2.828430e+00
      vertex 7.071075e-01 7.071075e-01 2.121322e+00
      vertex 1.414215e+00 1.298935e-16 2.121322e+00
    endloop
  endfacet
  facet normal 5.773503e-01 -5.773503e-01 5.773503e-01
    outer loop
      vertex 1.414215e+00 7.071075e-01 2.828430e+00
      vertex 1.414215e+00 1.298935e-16 2.121322e+00
      vertex 2.121322e+00 7.071075e-01 2.121322e+00
    endloop
  endfacet
  facet normal 5.773503e-01 -5.773503e-01 5.773503e-01
    outer loop
      vertex 1.414215e+00 7.071075e-01 2.828430e+00
      vertex 2.121322e+00 7.071075e-01 2.121322e+00
      vertex 2.121322e+00 1.414215e+00 2.828430e+00
    endloop
  endfacet
  facet normal 5.773503e-01 -5.773503e-01 -5.773503e-01
    outer loop
      vertex 1.414215e+00 7.071075e-01 2.828430e+00
      vertex 2.121322e+00 1.414215e+00 2.828430e+00
      vertex 2.121322e+00 7.071075e-01 3.535538e+00
    endloop
  endfacet
  facet normal 5.773503e-01 -5.773503e-01 -5.773503e-01
    outer loop
      vertex 1.414215e+00 7.071075e-01 2.828430e+00
      vertex 2.121322e+00 7.071075e-01 3.535538e+00
      vertex 1.414215e+00 2.164892e-16 3.535538e+00
    endloop
  endfacet
  facet normal -5.773503e-01 -5.773503e-01 -5.773503e-01
    outer loop
      vertex 1.414215e+00 7.071075e-01 2.828430e+00
      vertex 1.414215e+00 2.164892e-16 3.535538e+00
      vertex 7.071075e-01 7.071075e-01 3.535538e+00
    endloop
  endfacet
  facet normal -5.773503e-01 -5.773503e-01 -5.773503e-01
    outer loop
      vertex 1.414215e+00 7.071075e-01 2.828430e+00
      vertex 7.071075e-01 7.071075e-01 3.535538e+00
      vertex 7.071075e-01 1.414215e+00 2.828430e+00
    endloop
  endfacet
  facet normal -5.773503e-01 -5.773503e-01 5.773503e-01
    outer loop
      vertex 1.414215e+00 7.071075e-01 2.828430e+00
      vertex 7.071075e-01 1.414215e+00 2.828430e+00
      vertex 7.071075e-01 7.071075e-01 2.121322e+00
    endloop
  endfacet
  facet normal -5.773503e-01 5.773503e-01 -5.773503e-01
    outer loop
      vertex 1.414215e+00 2.121322e+00 -1.110223e-16
      vertex 7.071075e-01 1.414215e+00 0.000000e+00
      vertex 7.071075e-01 2.121322e+00 7.071075e-01
    endloop
  endfacet
  facet normal -5.773503e-01 5.773503e-01 -5.773503e-01
    outer loop
      vertex 1.414215e+00 2.121322e+00 -1.110223e-16
      vertex 7.071075e-01 2.121322e+00 7.071075e-01
      vertex 1.414215e+00 2.828430e+00 7.071075e-01
    endloop
  endfacet
  facet normal 5.773503e-01 5.773503e-01 -5.773503e-01
    outer loop
      vertex 1.414215e+00 2.121322e+00 -1.110223e-16
      vertex 1.414215e+00 2.828430e+00 7.071075e-01
      vertex 2.121322e+00 2.121322e+00 7.071075e-01
    endloop
  endfacet
  facet normal 5.773503e-01 5.773503e-01 -5.773503e-01
    outer loop
      vertex 1.414215e+00 2.121322e+00 -1.110223e-16
      vertex 2.121322e+00 2.121322e+00 7.071075e-01
      vertex 2.121322e+00 1.414215e+00 0.000000e+00
    endloop
  endfacet
  facet normal 5.773503e-01 5.773503e-01 5.773503e-01
    outer loop
      vertex 1.414215e+00 2.121322e+00 -1.110223e-16
      vertex 2.121322e+00 1.414215e+00 0.000000e+00
      vertex 2.121322e+00 2.121322e+00 -7.071075e-01
    endloop
  endfacet
  facet normal 5.773503e-01 5.773503e-01 5.773503e-01
    outer loop
      vertex 1.414215e+00 2.121322e+00 -1.110223e-16
      vertex 2.121322e+00 2.121322e+00 -7.071075e-01
      vertex 1.414215e+00 2.828430e+00 -7.071075e-01
    endloop
  endfacet
  facet normal -5.773503e-01 5.773503e-01 5.773503e-01
    outer loop
      vertex 1.414215e+00 2.121322e+00 -1.110223e-16
      vertex 1.414215e+00 2.828430e+00 -7.071075e-01
      vertex 7.071075e-01 2.121322e+00 -7.071075e-01
    endloop
  endfacet
  facet normal -5.773503e-01 5.773503e-01 5.773503e-01
    outer loop
      vertex 1.414215e+00 2.121322e+00 -1.110223e-16
      vertex 7.071075e-01 2.121322e+00 -7.071075e-01
      vertex 7.071075e-01 1.414215e+00 0.000000e+00
    endloop
  endfacet
  facet normal -5.773503e-01 5.773503e-01 -5.773503e-01
    outer loop
      vertex 7.071075e-01 2.828430e+00 1.414215e+00
      vertex 7.071075e-01 2.121322e+00 7.071075e-01
      vertex 2.164892e-16 2.121322e+00 1.414215e+00
    endloop
  endfacet
  facet normal -5.773503e-01 5.773503e-01 5.773503e-01
    outer loop
      vertex 7.071075e-01 2.828430e+00 1.414215e+00
      vertex 2.164892e-16 2.121322e+00 1.414215e+00
      vertex 7.071075e-01 2.121322e+00 2.121322e+00
    endloop
  endfacet
  facet normal -5.773503e-01 5.773503e-01 5.773503e-01
    outer loop
      vertex 7.071075e-01 2.828430e+00 1.414215e+00
      vertex 7.071075e-01 2.121322e+00 2.121322e+00
      vertex 1.414215e+00 2.828430e+00 2.121322e+00
    endloop
  endfacet
  facet normal -5.773503e-01 -5.773503e-01 5.773503e-01
    outer loop
      vertex 7.071075e-01 2.828430e+00 1.414215e+00
      vertex 1.414215e+00 2.828430e+00 2.121322e+00
      vertex 7.071075e-01 3.535538e+00 2.121322e+00
    endloop
  endfacet
  facet normal -5.773503e-01 -5.773503e-01 5.773503e-01
    outer loop
      vertex 7.071075e-01 2.828430e+00 1.414215e+00
      vertex 7.071075e-01 3.535538e+00 2.121322e+00
      vertex 3.030849e-16 3.535538e+00 1.414215e+00
    endloop
  endfacet
  facet normal -5.773503e-01 -5.773503e-01 -5.773503e-01
    outer loop
      vertex 7.071075e-01 2.828430e+00 1.414215e+00
      vertex 3.030849e-16 3.535538e+00 1.414215e+00
      vertex 7.071075e-01 3.535538e+00 7.071075e-01
    endloop
  endfacet
  facet normal -5.773503e-01 -5.773503e-01 -5.773503e-01
    outer loop
      vertex 7.071075e-01 2.828430e+00 1.414215e+00
      vertex 7.071075e-01 3.535538e+00 7.071075e-01
      vertex 1.414215e+00 2.828430e+00 7.071075e-01
    endloop
  endfacet
  facet normal -5.773503e-01 5.773503e-01 -5.773503e-01
    outer loop
      vertex 7.071075e-01 2.828430e+00 1.414215e+00
      vertex 1.414215e+00 2.828430e+00 7.071075e-01
      vertex 7.071075e-01 2.121322e+00 7.071075e-01
    endloop
  endfacet
  facet normal 5.773503e-01 -5.773503e-01 -5.773503e-01
    outer loop
      vertex 2.121322e+00 -5.551115e-17 1.414215e+00
      vertex 1.414215e+00 4.329785e-17 7.071075e-01
      vertex 2.121322e+00 7.071075e-01 7.071075e-01
    endloop
  endfacet
  facet normal 5.773503e-01 -5.773503e-01 -5.773503e-01
    outer loop
      vertex 2.121322e+00 -5.551115e-17 1.414215e+00
      vertex 2.121322e+00 7.071075e-01 7.071075e-01
      vertex 2.828430e+00 7.071075e-01 1.414215e+00
    endloop
  endfacet
  facet normal 5.773503e-01 -5.773503e-01 5.773503e-01
    outer loop
      vertex 2.121322e+00 -5.551115e-17 1.414215e+00
      vertex 2.828430e+00 7.071075e-01 1.414215e+00
      vertex 2.121322e+00 7.071075e-01 2.121322e+00
    endloop
  endfacet
  facet normal 5.773503e-01 -5.773503e-01 5.773503e-01
    outer loop
      vertex 2.121322e+00 -5.551115e-17 1.414215e+00
      vertex 2.121322e+00 7.071075e-01 2.121322e+00
      vertex 1.414215e+00 1.298935e-16 2.121322e+00
    endloop
  endfacet
  facet normal 5.773503e-01 5.773503e-01 5.773503e-01
    outer loop
      vertex 2.121322e+00 -5.551115e-17 1.414215e+00
      vertex 1.414215e+00 1.298935e-16 2.121322e+00
      vertex 2.121322e+00 -7.071075e-01 2.121322e+00
    endloop
  endfacet
  facet normal 5.773503e-01 5.773503e-01 5.773503e-01
    outer loop
      vertex 2.121322e+00 -5.551115e-17 1.414215e+00
      vertex 2.121322e+00 -7.071075e-01 2.121322e+00
      vertex 2.828430e+00 -7.071075e-01 1.414215e+00
    endloop
  endfacet
  facet normal 5.773503e-01 5.773503e-01 -5.773503e-01
    outer loop
      vertex 2.121322e+00 -5.551115e-17 1.414215e+00
      vertex 2.828430e+00 -7.071075e-01 1.414215e+00
      vertex 2.121322e+00 -7.071075e-01 7.071075e-01
    endloop
  endfacet
  facet normal 5.773503e-01 5.773503e-01 -5.773503e-01
    outer loop
      vertex 2.121322e+00 -5.551115e-17 1.414215e+00
      vertex 2.121322e+00 -7.071075e-01 7.071075e-01
      vertex 1.414215e+00 4.329785e-17 7.071075e-01
    endloop
  endfacet
  facet normal 5.773503e-01 -5.773503e-01 -5.773503e-01
    outer loop
      vertex 2.828430e+00 1.414215e+00 7.071075e-01
      vertex 2.121322e+00 7.071075e-01 7.071075e-01
      vertex 2.121322e+00 1.414215e+00 0.000000e+00
    endloop
  endfacet
  facet normal 5.773503e-01 5.773503e-01 -5.773503e-01
    outer loop
      vertex 2.828430e+00 1.414215e+00 7.071075e-01
      vertex 2.121322e+00 1.414215e+00 0.000000e+00
      vertex 2.121322e+00 2.121322e+00 7.071075e-01
    endloop
  endfacet
  facet normal 5.773503e-01 5.773503e-01 -5.773503e-01
    outer loop
      vertex 2.828430e+00 1.414215e+00 7.071075e-01
      vertex 2.121322e+00 2.121322e+00 7.071075e-01
      vertex 2.828430e+00 2.121322e+00 1.414215e+00
    endloop
  endfacet
  facet normal -5.773503e-01 5.773503e-01 -5.773503e-01
    outer loop
      vertex 2.828430e+00 1.414215e+00 7.071075e-01
      vertex 2.828430e+00 2.121322e+00 1.414215e+00
      vertex 3.535538e+00 2.121322e+00 7.071075e-01
    endloop
  endfacet
  facet normal -5.773503e-01 5.773503e-01 -5.773503e-01
    outer loop
      vertex 2.828430e+00 1.414215e+00 7.071075e-01
      vertex 3.535538e+00 2.121322e+00 7.071075e-01
      vertex 3.535538e+00 1.414215e+00 0.000000e+00
    endloop
  endfacet
  facet normal -5.773503e-01 -5.773503e-01 -5.773503e-01
    outer loop
      vertex 2.828430e+00 1.414215e+00 7.071075e-01
      vertex 3.535538e+00 1.414215e+00 0.000000e+00
      vertex 3.535538e+00 7.071075e-01 7.071075e-01
    endloop
  endfacet
  facet normal -5.773503e-01 -5.773503e-01 -5.773503e-01
    outer loop
      vertex 2.828430e+00 1.414215e+00 7.071075e-01
      vertex 3.535538e+00 7.071075e-01 7.071075e-01
      vertex 2.828430e+00 7.071075e-01 1.414215e+00
    endloop
  endfacet
  facet normal 5.773503e-01 -5.773503e-01 -5.773503e-01
    outer loop
      vertex 2.828430e+00 1.414215e+00 7.071075e-01
      vertex 2.828430e+00 7.071075e-01 1.414215e+00
      vertex 2.121322e+00 7.071075e-01 7.071075e-01
    endloop
  endfacet
  facet normal -5.773503e-01 5.773503e-01 5.773503e-01
    outer loop
      vertex 1.414215e+00 2.121322e+00 2.828430e+00
      vertex 7.071075e-01 2.121322e+00 2.121322e+00
      vertex 7.071075e-01 1.414215e+00 2.828430e+00
    endloop
  endfacet
  facet normal -5.773503e-01 5.773503e-01 -5.773503e-01
    outer loop
      vertex 1.414215e+00 2.121322e+00 2.828430e+00
      vertex 7.071075e-01 1.414215e+00 2.828430e+00
      vertex 7.071075e-01 2.121322e+00 3.535538e+00
    endloop
  endfacet
  facet normal -5.773503e-01 5.773503e-01 -5.773503e-01
    outer loop
      vertex 1.414215e+00 2.121322e+00 2.828430e+00
      vertex 7.071075e-01 2.121322e+00 3.535538e+00
      vertex 1.414215e+00 2.828430e+00 3.535538e+00
    endloop
  endfacet
  facet normal 5.773503e-01 5.773503e-01 -5.773503e-01
    outer loop
      vertex 1.414215e+00 2.121322e+00 2.828430e+00
      vertex 1.414215e+00 2.828430e+00 3.535538e+00
      vertex 2.121322e+00 2.121322e+00 3.535538e+00
    endloop
  endfacet
  facet normal 5.773503e-01 5.773503e-01 -5.773503e-01
    outer loop
      vertex 1.414215e+00 2.121322e+00 2.828430e+00
      vertex 2.121322e+00 2.121322e+00 3.535538e+00
      vertex 2.121322e+00 1.414215e+00 2.828430e+00
    endloop
  endfacet
  facet normal 5.773503e-01 5.773503e-01 5.773503e-01
    outer loop
      vertex 1.414215e+00 2.121322e+00 2.828430e+00
      vertex 2.121322e+00 1.414215e+00 2.828430e+00
      vertex 2.121322e+00 2.121322e+00 2.121322e+00
    endloop
  endfacet
  facet normal 5.773503e-01 5.773503e-01 5.773503e-01
    outer loop
      vertex 1.414215e+00 2.121322e+00 2.828430e+00
      vertex 2.121322e+00 2.121322e+00 2.121322e+00
      vertex 1.414215e+00 2.828430e+00 2.121322e+00
    endloop
  endfacet
  facet normal -5.773503e-01 5.773503e-01 5.773503e-01
    outer loop
      vertex 1.414215e+00 2.121322e+00 2.828430e+00
      vertex 1.414215e+00 2.828430e+00 2.121322e+00
      vertex 7.071075e-01 2.121322e+00 2.121322e+00
    endloop
  endfacet
  facet normal -5.773503e-01 5.773503e-01 5.773503e-01
    outer loop
      vertex -9.714451e-17 1.414215e+00 -7.071075e-01
      vertex 7.071075e-01 1.414215e+00 0.000000e+00
      vertex 7.071075e-01 2.121322e+00 -7.071075e-01
    endloop
  endfacet
  facet normal -5.773503e-01 5.773503e-01 5.773503e-01
    outer loop
      vertex -9.714451e-17 1.414215e+00 -7.071075e-01
      vertex 7.071075e-01 2.121322e+00 -7.071075e-01
      vertex 4.329785e-17 2.121322e+00 -1.414215e+00
    endloop
  endfacet
  facet normal 5.773503e-01 5.773503e-01 5.773503e-01
    outer loop
      vertex -9.714451e-17 1.414215e+00 -7.071075e-01
      vertex 4.329785e-17 2.121322e+00 -1.414215e+00
      vertex -7.071075e-01 2.121322e+00 -7.071075e-01
    endloop
  endfacet
  facet normal 5.773503e-01 5.773503e-01 5.773503e-01
    outer loop
      vertex -9.714451e-17 1.414215e+00 -7.071075e-01
      vertex -7.071075e-01 2.121322e+00 -7.071075e-01
      vertex -7.071075e-01 1.414215e+00 0.000000e+00
    endloop
  endfacet
  facet normal 5.773503e-01 -5.773503e-01 5.773503e-01
    outer loop
      vertex -9.714451e-17 1.414215e+00 -7.071075e-01
      vertex -7.071075e-01 1.414215e+00 0.000000e+00
      vertex -7.071075e-01 7.071075e-01 -7.071075e-01
    endloop
  endfacet
  facet normal 5.773503e-01 -5.773503e-01 5.773503e-01
    outer loop
      vertex -9.714451e-17 1.414215e+00 -7.071075e-01
      vertex -7.071075e-01 7.071075e-01 -7.071075e-01
      vertex -4.329785e-17 7.071075e-01 -1.414215e+00
    endloop
  endfacet
  facet normal -5.773503e-01 -5.773503e-01 5.773503e-01
    outer loop
      vertex -9.714451e-17 1.414215e+00 -7.071075e-01
      vertex -4.329785e-17 7.071075e-01 -1.414215e+00
      vertex 7.071075e-01 7.071075e-01 -7.071075e-01
    endloop
  endfacet
  facet normal -5.773503e-01 -5.773503e-01 5.773503e-01
    outer loop
      vertex -9.714451e-17 1.414215e+00 -7.071075e-01
      vertex 7.071075e-01 7.071075e-01 -7.071075e-01
      vertex 7.071075e-01 1.414215e+00 0.000000e+00
    endloop
  endfacet
  facet normal -5.773503e-01 5.773503e-01 5.773503e-01
    outer loop
      vertex 1.414215e+00 -7.071075e-01 2.828430e+00
      vertex 1.414215e+00 1.298935e-16 2.121322e+00
      vertex 7.071075e-01 -7.071075e-01 2.121322e+00
    endloop
  endfacet
  facet normal -5.773503e-01 5.773503e-01 5.773503e-01
    outer loop
      vertex 1.414215e+00 -7.071075e-01 2.828430e+00
      vertex 7.071075e-01 -7.071075e-01 2.121322e+00
      vertex 7.071075e-01 -1.414215e+00 2.828430e+00
    endloop
  endfacet
  facet normal -5.773503e-01 5.773503e-01 -5.773503e-01
    outer loop
      vertex 1.414215e+00 -7.071075e-01 2.828430e+00
      vertex 7.071075e-01 -1.414215e+00 2.828430e+00
      vertex 7.071075e-01 -7.071075e-01 3.535538e+00
    endloop
  endfacet
  facet normal -5.773503e-01 5.773503e-01 -5.773503e-01
    outer loop
      vertex 1.414215e+00 -7.071075e-01 2.828430e+00
      vertex 7.071075e-01 -7.071075e-01 3.535538e+00
      vertex 1.414215e+00 2.164892e-16 3.535538e+00
    endloop
  endfacet
  facet normal 5.773503e-01 5.773503e-01 -5.773503e-01
    outer loop
      vertex 1.414215e+00 -7.071075e-01 2.828430e+00
      vertex 1.414215e+00 2.164892e-16 3.535538e+00
      vertex 2.121322e+00 -7.071075e-01 3.535538e+00
    endloop
  endfacet
  facet normal 5.773503e-01 5.773503e-01 -5.773503e-01
    outer loop
      vertex 1.414215e+00 -7.071075e-01 2.828430e+00
      vertex 2.121322e+00 -7.071075e-01 3.535538e+00
      vertex 2.121322e+00 -1.414215e+00 2.828430e+00
    endloop
  endfacet
  facet normal 5.773503e-01 5.773503e-01 5.773503e-01
    outer loop
      vertex 1.414215e+00 -7.071075e-01 2.828430e+00
      vertex 2.121322e+00 -1.414215e+00 2.828430e+00
      vertex 2.121322e+00 -7.071075e-01 2.121322e+00
    endloop
  endfacet
  facet normal 5.773503e-01 5.773503e-01 5.773503e-01
    outer loop
      vertex 1.414215e+00 -7.071075e-01 2.828430e+00
      vertex 2.121322e+00 -7.071075e-01 2.121322e+00
      vertex 1.414215e+00 1.298935e-16 2.121322e+00
    endloop
  endfacet
  facet normal 5.773503e-01 -5.773503e-01 5.773503e-01
    outer loop
      vertex 2.828430e+00 1.414215e+00 2.121322e+00
      vertex 2.121322e+00 7.071075e-01 2.121322e+00
      vertex 2.828430e+00 7.071075e-01 1.414215e+00
    endloop
  endfacet
  facet normal -5.773503e-01 -5.773503e-01 5.773503e-01
    outer loop
      vertex 2.828430e+00 1.414215e+00 2.121322e+00
      vertex 2.828430e+00 7.071075e-01 1.414215e+00
      vertex 3.535538e+00 7.071075e-01 2.121322e+00
    endloop
  endfacet
  facet normal -5.773503e-01 -5.773503e-01 5.773503e-01
    outer loop
      vertex 2.828430e+00 1.414215e+00 2.121322e+00
      vertex 3.535538e+00 7.071075e-01 2.121322e+00
      vertex 3.535538e+00 1.414215e+00 2.828430e+00
    endloop
  endfacet
  facet normal -5.773503e-01 5.773503e-01 5.773503e-01
    outer loop
      vertex 2.828430e+00 1.414215e+00 2.121322e+00
      vertex 3.535538e+00 1.414215e+00 2.828430e+00
      vertex 3.535538e+00 2.121322e+00 2.121322e+00
    endloop
  endfacet
  facet normal -5.773503e-01 5.773503e-01 5.773503e-01
    outer loop
      vertex 2.828430e+00 1.414215e+00 2.121322e+00
      vertex 3.535538e+00 2.121322e+00 2.121322e+00
      vertex 2.828430e+00 2.121322e+00 1.414215e+00
    endloop
  endfacet
  facet normal 5.773503e-01 5.773503e-01 5.773503e-01
    outer loop
      vertex 2.828430e+00 1.414215e+00 2.121322e+00
      vertex 2.828430e+00 2.121322e+00 1.414215e+00
      vertex 2.121322e+00 2.121322e+00 2.121322e+00
    endloop
  endfacet
  facet normal 5.773503e-01 5.773503e-01 5.773503e-01
    outer loop
      vertex 2.828430e+00 1.414215e+00 2.121322e+00
      vertex 2.121322e+00 2.121322e+00 2.121322e+00
      vertex 2.121322e+00 1.414215e+00 2.828430e+00
    endloop
  endfacet
  facet normal 5.773503e-01 -5.773503e-01 5.773503e-01
    outer loop
      vertex 2.828430e+00 1.414215e+00 2.121322e+00
      vertex 2.121322e+00 1.414215e+00 2.828430e+00
      vertex 2.121322e+00 7.071075e-01 2.121322e+00
    endloop
  endfacet
  facet normal 5.773503e-01 -5.773503e-01 5.773503e-01
    outer loop
      vertex -7.071075e-01 -2.775558e-17 1.414215e+00
      vertex 1.298935e-16 7.071075e-01 1.414215e+00
      vertex -7.071075e-01 7.071075e-01 2.121322e+00
    endloop
  endfacet
  facet normal 5.773503e-01 -5.773503e-01 5.773503e-01
    outer loop
      vertex -7.071075e-01 -2.775558e-17 1.414215e+00
      vertex -7.071075e-01 7.071075e-01 2.121322e+00
      vertex -1.414215e+00 1.298935e-16 2.121322e+00
    endloop
  endfacet
  facet normal 5.773503e-01 5.773503e-01 5.773503e-01
    outer loop
      vertex -7.071075e-01 -2.775558e-17 1.414215e+00
      vertex -1.414215e+00 1.298935e-16 2.121322e+00
      vertex -7.071075e-01 -7.071075e-01 2.121322e+00
    endloop
  endfacet
  facet normal 5.773503e-01 5.773503e-01 5.773503e-01
    outer loop
      vertex -7.071075e-01 -2.775558e-17 1.414215e+00
      vertex -7.071075e-01 -7.071075e-01 2.121322e+00
      vertex 4.329785e-17 -7.071075e-01 1.414215e+00
    endloop
  endfacet
  facet normal 5.773503e-01 5.773503e-01 -5.773503e-01
    outer loop
      vertex -7.071075e-01 -2.775558e-17 1.414215e+00
      vertex 4.329785e-17 -7.071075e-01 1.414215e+00
      vertex -7.071075e-01 -7.071075e-01 7.071075e-01
    endloop
  endfacet
  facet normal 5.773503e-01 5.773503e-01 -5.773503e-01
    outer loop
      vertex -7.071075e-01 -2.775558e-17 1.414215e+00
      vertex -7.071075e-01 -7.071075e-01 7.071075e-01
      vertex -1.414215e+00 4.329785e-17 7.071075e-01
    endloop
  endfacet
  facet normal 5.773503e-01 -5.773503e-01 -5.773503e-01
    outer loop
      vertex -7.071075e-01 -2.775558e-17 1.414215e+00
      vertex -1.414215e+00 4.329785e-17 7.071075e-01
      vertex -7.071075e-01 7.071075e-01 7.071075e-01
    endloop
  endfacet
  facet normal 5.773503e-01 -5.773503e-01 -5.773503e-01
    outer loop
      vertex -7.071075e-01 -2.775558e-17 1.414215e+00
      vertex -7.071075e-01 7.071075e-01 7.071075e-01
      vertex 1.298935e-16 7.071075e-01 1.414215e+00
    endloop
  endfacet
  facet normal 5.773503e-01 -5.773503e-01 5.773503e-01
    outer loop
      vertex 2.828430e+00 1.414215e+00 -7.071075e-01
      vertex 2.121322e+00 1.414215e+00 0.000000e+00
      vertex 2.121322e+00 7.071075e-01 -7.071075e-01
    endloop
  endfacet
  facet normal 5.773503e-01 -5.773503e-01 5.773503e-01
    outer loop
      vertex 2.828430e+00 1.414215e+00 -7.071075e-01
      vertex 2.121322e+00 7.071075e-01 -7.071075e-01
      vertex 2.828430e+00 7.071075e-01 -1.414215e+00
    endloop
  endfacet
  facet normal -5.773503e-01 -5.773503e-01 5.773503e-01
    outer loop
      vertex 2.828430e+00 1.414215e+00 -7.071075e-01
      vertex 2.828430e+00 7.071075e-01 -1.414215e+00
      vertex 3.535538e+00 7.071075e-01 -7.071075e-01
    endloop
  endfacet
  facet normal -5.773503e-01 -5.773503e-01 5.773503e-01
    outer loop
      vertex 2.828430e+00 1.414215e+00 -7.071075e-01
      vertex 3.535538e+00 7.071075e-01 -7.071075e-01
      vertex 3.535538e+00 1.414215e+00 0.000000e+00
    endloop
  endfacet
  facet normal -5.773503e-01 5.773503e-01 5.773503e-01
    outer loop
      vertex 2.828430e+00 1.414215e+00 -7.071075e-01
      vertex 3.535538e+00 1.414215e+00 0.000000e+00
      vertex 3.535538e+00 2.121322e+00 -7.071075e-01
    endloop
  endfacet
  facet normal -5.773503e-01 5.773503e-01 5.773503e-01
    outer loop
      vertex 2.828430e+00 1.414215e+00 -7.071075e-01
      vertex 3.535538e+00 2.121322e+00 -7.071075e-01
      vertex 2.828430e+00 2.121322e+00 -1.414215e+00
    endloop
  endfacet
  facet normal 5.773503e-01 5.773503e-01 5.773503e-01
    outer loop
      vertex 2.828430e+00 1.414215e+00 -7.071075e-01
      vertex 2.828430e+00 2.121322e+00 -1.414215e+00
      vertex 2.121322e+00 2.121322e+00 -7.071075e-01
    endloop
  endfacet
  facet normal 5.773503e-01 5.773503e-01 5.773503e-01
    outer loop
      vertex 2.828430e+00 1.414215e+00 -7.071075e-01
      vertex 2.121322e+00 2.121322e+00 -7.071075e-01
      vertex 2.121322e+00 1.414215e+00 0.000000e+00
    endloop
  endfacet
  facet normal 5.773503e-01 5.773503e-01 -5.773503e-01
    outer loop
      vertex 2.121322e+00 2.828430e+00 1.414215e+00
      vertex 2.121322e+00 2.121322e+00 7.071075e-01
      vertex 1.414215e+00 2.828430e+00 7.071075e-01
    endloop
  endfacet
  facet normal 5.773503e-01 -5.773503e-01 -5.773503e-01
    outer loop
      vertex 2.121322e+00 2.828430e+00 1.414215e+00
      vertex 1.414215e+00 2.828430e+00 7.071075e-01
      vertex 2.121322e+00 3.535538e+00 7.071075e-01
    endloop
  endfacet
  facet normal 5.773503e-01 -5.773503e-01 -5.773503e-01
    outer loop
      vertex 2.121322e+00 2.828430e+00 1.414215e+00
      vertex 2.121322e+00 3.535538e+00 7.071075e-01
      vertex 2.828430e+00 3.535538e+00 1.414215e+00
    endloop
  endfacet
  facet normal 5.773503e-01 -5.773503e-01 5.773503e-01
    outer loop
      vertex 2.121322e+00 2.828430e+00 1.414215e+00
      vertex 2.828430e+00 3.535538e+00 1.414215e+00
      vertex 2.121322e+00 3.535538e+00 2.121322e+00
    endloop
  endfacet
  facet normal 5.773503e-01 -5.773503e-01 5.773503e-01
    outer loop
      vertex 2.121322e+00 2.828430e+00 1.414215e+00
      vertex 2.121322e+00 3.535538e+00 2.121322e+00
      vertex 1.414215e+00 2.828430e+00 2.121322e+00
    endloop
  endfacet
  facet normal 5.773503e-01 5.773503e-01 5.773503e-01
    outer loop
      vertex 2.121322e+00 2.828430e+00 1.414215e+00
      vertex 1.414215e+00 2.828430e+00 2.121322e+00
      vertex 2.121322e+00 2.121322e+00 2.121322e+00
    endloop
  endfacet
  facet normal 5.773503e-01 5.773503e-01 5.773503e-01
    outer loop
      vertex 2.121322e+00 2.828430e+00 1.414215e+00
      vertex 2.121322e+00 2.121322e+00 2.121322e+00
      vertex 2.828430e+00 2.121322e+00 1.414215e+00
    endloop
  endfacet
  facet normal 5.773503e-01 5.773503e-01 -5.773503e-01
    outer loop
      vertex 2.121322e+00 2.828430e+00 1.414215e+00
      vertex 2.828430e+00 2.121322e+00 1.414215e+00
      vertex 2.121322e+00 2.121322e+00 7.071075e-01
    endloop
  endfacet
  facet normal 5.773503e-01 5.773503e-01 -5.773503e-01
    outer loop
      vertex 1.414215e+00 -7.071075e-01 -8.326673e-17
      vertex 1.414215e+00 4.329785e-17 7.071075e-01
      vertex 2.121322e+00 -7.071075e-01 7.071075e-01
    endloop
  endfacet
  facet normal 5.773503e-01 5.773503e-01 -5.773503e-01
    outer loop
      vertex 1.414215e+00 -7.071075e-01 -8.326673e-17
      vertex 2.121322e+00 -7.071075e-01 7.071075e-01
      vertex 2.121322e+00 -1.414215e+00 0.000000e+00
    endloop
  endfacet
  facet normal 5.773503e-01 5.773503e-01 5.773503e-01
    outer loop
      vertex 1.414215e+00 -7.071075e-01 -8.326673e-17
      vertex 2.121322e+00 -1.414215e+00 0.000000e+00
      vertex 2.121322e+00 -7.071075e-01 -7.071075e-01
    endloop
  endfacet
  facet normal 5.773503e-01 5.773503e-01 5.773503e-01
    outer loop
      vertex 1.414215e+00 -7.071075e-01 -8.326673e-17
      vertex 2.121322e+00 -7.071075e-01 -7.071075e-01
      vertex 1.414215e+00 -4.329785e-17 -7.071075e-01
    endloop
  endfacet
  facet normal -5.773503e-01 5.773503e-01 5.773503e-01
    outer loop
      vertex 1.414215e+00 -7.071075e-01 -8.326673e-17
      vertex 1.414215e+00 -4.329785e-17 -7.071075e-01
      vertex 7.071075e-01 -7.071075e-01 -7.071075e-01
    endloop
  endfacet
  facet normal -5.773503e-01 5.773503e-01 5.773503e-01
    outer loop
      vertex 1.414215e+00 -7.071075e-01 -8.326673e-17
      vertex 7.071075e-01 -7.071075e-01 -7.071075e-01
      vertex 7.071075e-01 -1.414215e+00 0.000000e+00
    endloop
  endfacet
  facet normal -5.773503e-01 5.773503e-01 -5.773503e-01
    outer loop
      vertex 1.414215e+00 -7.071075e-01 -8.326673e-17
      vertex 7.071075e-01 -1.414215e+00 0.000000e+00
      vertex 7.071075e-01 -7.071075e-01 7.071075e-01
    endloop
  endfacet
  facet normal -5.773503e-01 5.773503e-01 -5.773503e-01
    outer loop
      vertex 1.414215e+00 -7.071075e-01 -8.326673e-17
      vertex 7.071075e-01 -7.071075e-01 7.071075e-01
      vertex 1.414215e+00 4.329785e-17 7.071075e-01
    endloop
  endfacet
  facet normal 5.773503e-01 5.773503e-01 -5.773503e-01
    outer loop
      vertex -7.071075e-01 2.828430e+00 1.414215e+00
      vertex 2.164892e-16 2.121322e+00 1.414215e+00
      vertex -7.071075e-01 2.121322e+00 7.071075e-01
    endloop
  endfacet
  facet normal 5.773503e-01 5.773503e-01 -5.773503e-01
    outer loop
      vertex -7.071075e-01 2.828430e+00 1.414215e+00
      vertex -7.071075e-01 2.121322e+00 7.071075e-01
      vertex -1.414215e+00 2.828430e+00 7.071075e-01
    endloop
  endfacet
  facet normal 5.773503e-01 -5.773503e-01 -5.773503e-01
    outer loop
      vertex -7.071075e-01 2.828430e+00 1.414215e+00
      vertex -1.414215e+00 2.828430e+00 7.071075e-01
      vertex -7.071075e-01 3.535538e+00 7.071075e-01
    endloop
  endfacet
  facet normal 5.773503e-01 -5.773503e-01 -5.773503e-01
    outer loop
      vertex -7.071075e-01 2.828430e+00 1.414215e+00
      vertex -7.071075e-01 3.535538e+00 7.071075e-01
      vertex 3.030849e-16 3.535538e+00 1.414215e+00
    endloop
  endfacet
  facet normal 5.773503e-01 -5.773503e-01 5.773503e-01
    outer loop
      vertex -7.071075e-01 2.828430e+00 1.414215e+00
      vertex 3.030849e-16 3.535538e+00 1.414215e+00
      vertex -7.071075e-01 3.535538e+00 2.121322e+00
    endloop
  endfacet
  facet normal 5.773503e-01 -5.773503e-01 5.773503e-01
    outer loop
      vertex -7.071075e-01 2.828430e+00 1.414215e+00
      vertex -7.071075e-01 3.535538e+00 2.121322e+00
      vertex -1.414215e+00 2.828430e+00 2.121322e+00
    endloop
  endfacet
  facet normal 5.773503e-01 5.773503e-01 5.773503e-01
    outer loop
      vertex -7.071075e-01 2.828430e+00 1.414215e+00
      vertex -1.414215e+00 2.828430e+00 2.121322e+00
      vertex -7.071075e-01 2.121322e+00 2.121322e+00
    endloop
  endfacet
  facet normal 5.773503e-01 5.773503e-01 5.773503e-01
    outer loop
      vertex -7.071075e-01 2.828430e+00 1.414215e+00
      vertex -7.071075e-01 2.121322e+00 2.121322e+00
      vertex 2.164892e-16 2.121322e+00 1.414215e+00
    endloop
  endfacet
endsolid surface_model
