solid surface_model
  facet normal 4.440694e-01 -8.959924e-01 0.000000e+00
    outer loop
      vertex 1.514223e+00 6.566525e-01 -1.110223e-16
      vertex 3.785556e-01 9.379624e-02 4.215488e-01
      vertex 3.785556e-01 9.379624e-02 -4.215488e-01
    endloop
  endfacet
  facet normal 3.932800e-01 -9.068746e-01 1.513585e-01
    outer loop
      vertex 1.514223e+00 6.566525e-01 -1.110223e-16
      vertex 3.785556e-01 9.379624e-02 -4.215488e-01
      vertex 1.135667e+00 2.814150e-01 -1.264646e+00
    endloop
  endfacet
  facet normal 7.039873e-01 -7.102125e-01 -2.058779e-17
    outer loop
      vertex 1.514223e+00 6.566525e-01 -1.110223e-16
      vertex 1.135667e+00 2.814150e-01 -1.264646e+00
      vertex 1.892778e+00 1.031890e+00 -1.264646e+00
    endloop
  endfacet
  facet normal 3.932800e-01 -9.068746e-01 -1.513585e-01
    outer loop
      vertex 1.514223e+00 6.566525e-01 -1.110223e-16
      vertex 1.892778e+00 1.031890e+00 -1.264646e+00
      vertex 2.649889e+00 1.219509e+00 -4.215488e-01
    endloop
  endfacet
  facet normal 4.440694e-01 -8.959924e-01 0.000000e+00
    outer loop
      vertex 1.514223e+00 6.566525e-01 -1.110223e-16
      vertex 2.649889e+00 1.219509e+00 -4.215488e-01
      vertex 2.649889e+00 1.219509e+00 4.215488e-01
    endloop
  endfacet
  facet normal 3.932800e-01 -9.068746e-01 1.513585e-01
    outer loop
      vertex 1.514223e+00 6.566525e-01 -1.110223e-16
      vertex 2.649889e+00 1.219509e+00 4.215488e-01
      vertex 1.892778e+00 1.031890e+00 1.264646e+00
    endloop
  endfacet
  facet normal 7.039873e-01 -7.102125e-01 6.176338e-17
    outer loop
      vertex 1.514223e+00 6.566525e-01 -1.110223e-16
      vertex 1.892778e+00 1.031890e+00 1.264646e+00
      vertex 1.135667e+00 2.814150e-01 1.264646e+00
    endloop
  endfacet
  facet normal 3.932800e-01 -9.068746e-01 -1.513585e-01
    outer loop
      vertex 1.514223e+00 6.566525e-01 -1.110223e-16
      vertex 1.135667e+00 2.814150e-01 1.264646e+00
      vertex 3.785556e-01 9.379624e-02 4.215488e-01
    endloop
  endfacet
  facet normal 2.405015e-01 -9.706488e-01 6.330909e-17
    outer loop
      vertex 3.330669e-16 4.787837e-16 6.744780e+00
      vertex 3.785556e-01 9.379624e-02 6.323231e+00
      vertex 3.785556e-01 9.379624e-02 7.166329e+00
    endloop
  endfacet
  facet normal 2.405015e-01 -9.706488e-01 4.220606e-17
    outer loop
      vertex 3.330669e-16 4.787837e-16 6.744780e+00
      vertex 3.785556e-01 9.379624e-02 7.166329e+00
      vertex -3.785556e-01 -9.379624e-02 7.166329e+00
    endloop
  endfacet
  facet normal 2.405015e-01 -9.706488e-01 0.000000e+00
    outer loop
      vertex 3.330669e-16 4.787837e-16 6.744780e+00
      vertex -3.785556e-01 -9.379624e-02 7.166329e+00
      vertex -3.785556e-01 -9.379624e-02 6.323231e+00
    endloop
  endfacet
  facet normal 2.405015e-01 -9.706488e-01 2.110303e-17
    outer loop
      vertex 3.330669e-16 4.787837e-16 6.744780e+00
      vertex -3.785556e-01 -9.379624e-02 6.323231e+00
      vertex 3.785556e-01 9.379624e-02 6.323231e+00
    endloop
  endfacet
  facet normal 2.405015e-01 -9.706488e-01 0.000000e+00
    outer loop
      vertex 3.028445e+00 1.313305e+00 -1.665335e-16
      vertex 2.649889e+00 1.219509e+00 4.215488e-01
      vertex 2.649889e+00 1.219509e+00 -4.215488e-01
    endloop
  endfacet
  facet normal 2.405015e-01 -9.706488e-01 0.000000e+00
    outer loop
      vertex 3.028445e+00 1.313305e+00 -1.665335e-16
      vertex 2.649889e+00 1.219509e+00 -4.215488e-01
      vertex 3.407001e+00 1.407101e+00 -4.215488e-01
    endloop
  endfacet
  facet normal 2.405015e-01 -9.706488e-01 0.000000e+00
    outer loop
      vertex 3.028445e+00 1.313305e+00 -1.665335e-16
      vertex 3.407001e+00 1.407101e+00 -4.215488e-01
      vertex 3.407001e+00 1.407101e+00 4.215488e-01
    endloop
  endfacet
  facet normal 2.405015e-01 -9.706488e-01 0.000000e+00
    outer loop
      vertex 3.028445e+00 1.313305e+00 -1.665335e-16
      vertex 3.407001e+00 1.407101e+00 4.215488e-01
      vertex 2.649889e+00 1.219509e+00 4.215488e-01
    endloop
  endfacet
  facet normal 4.440694e-01 -8.959924e-01 0.000000e+00
    outer loop
      vertex 1.514223e+00 6.566525e-01 6.744780e+00
      vertex 2.649889e+00 1.219509e+00 6.323231e+00
      vertex 2.649889e+00 1.219509e+00 7.166329e+00
    endloop
  endfacet
  facet normal 3.932800e-01 -9.068746e-01 1.513585e-01
    outer loop
      vertex 1.514223e+00 6.566525e-01 6.744780e+00
      vertex 2.649889e+00 1.219509e+00 7.166329e+00
      vertex 1.892778e+00 1.031890e+00 8.009426e+00
    endloop
  endfacet
  facet normal 7.039873e-01 -7.102125e-01 -8.235117e-17
    outer loop
      vertex 1.514223e+00 6.566525e-01 6.744780e+00
      vertex 1.892778e+00 1.031890e+00 8.009426e+00
      vertex 1.135667e+00 2.814150e-01 8.009426e+00
    endloop
  endfacet
  facet normal 3.932800e-01 -9.068746e-01 -1.513585e-01
    outer loop
      vertex 1.514223e+00 6.566525e-01 6.744780e+00
      vertex 1.135667e+00 2.814150e-01 8.009426e+00
      vertex 3.785556e-01 9.379624e-02 7.166329e+00
    endloop
  endfacet
  facet normal 4.440694e-01 -8.959924e-01 1.038929e-16
    outer loop
      vertex 1.514223e+00 6.566525e-01 6.744780e+00
      vertex 3.785556e-01 9.379624e-02 7.166329e+00
      vertex 3.785556e-01 9.379624e-02 6.323231e+00
    endloop
  endfacet
  facet normal 3.932800e-01 -9.068746e-01 1.513585e-01
    outer loop
      vertex 1.514223e+00 6.566525e-01 6.744780e+00
      vertex 3.785556e-01 9.379624e-02 6.323231e+00
      vertex 1.135667e+00 2.814150e-01 5.480134e+00
    endloop
  endfacet
  facet normal 7.039873e-01 -7.102125e-01 1.029390e-16
    outer loop
      vertex 1.514223e+00 6.566525e-01 6.744780e+00
      vertex 1.135667e+00 2.814150e-01 5.480134e+00
      vertex 1.892778e+00 1.031890e+00 5.480134e+00
    endloop
  endfacet
  facet normal 3.932800e-01 -9.068746e-01 -1.513585e-01
    outer loop
      vertex 1.514223e+00 6.566525e-01 6.744780e+00
      vertex 1.892778e+00 1.031890e+00 5.480134e+00
      vertex 2.649889e+00 1.219509e+00 6.323231e+00
    endloop
  endfacet
  facet normal 4.440694e-01 -8.959924e-01 0.000000e+00
    outer loop
      vertex 4.542668e+00 1.969957e+00 -1.110223e-16
      vertex 3.407001e+00 1.407101e+00 4.215488e-01
      vertex 3.407001e+00 1.407101e+00 -4.215488e-01
    endloop
  endfacet
  facet normal 3.932800e-01 -9.068746e-01 1.513585e-01
    outer loop
      vertex 4.542668e+00 1.969957e+00 -1.110223e-16
      vertex 3.407001e+00 1.407101e+00 -4.215488e-01
      vertex 4.164112e+00 1.594720e+00 -1.264646e+00
    endloop
  endfacet
  facet normal 7.039873e-01 -7.102125e-01 -3.088169e-16
    outer loop
      vertex 4.542668e+00 1.969957e+00 -1.110223e-16
      vertex 4.164112e+00 1.594720e+00 -1.264646e+00
      vertex 4.921223e+00 2.345195e+00 -1.264646e+00
    endloop
  endfacet
  facet normal 3.932800e-01 -9.068746e-01 -1.513585e-01
    outer loop
      vertex 4.542668e+00 1.969957e+00 -1.110223e-16
      vertex 4.921223e+00 2.345195e+00 -1.264646e+00
      vertex 5.678334e+00 2.532814e+00 -4.215488e-01
    endloop
  endfacet
  facet normal 4.440694e-01 -8.959924e-01 0.000000e+00
    outer loop
      vertex 4.542668e+00 1.969957e+00 -1.110223e-16
      vertex 5.678334e+00 2.532814e+00 -4.215488e-01
      vertex 5.678334e+00 2.532814e+00 4.215488e-01
    endloop
  endfacet
  facet normal 3.932800e-01 -9.068746e-01 1.513585e-01
    outer loop
      vertex 4.542668e+00 1.969957e+00 -1.110223e-16
      vertex 5.678334e+00 2.532814e+00 4.215488e-01
      vertex 4.921223e+00 2.345195e+00 1.264646e+00
    endloop
  endfacet
  facet normal 7.039873e-01 -7.102125e-01 3.088169e-16
    outer loop
      vertex 4.542668e+00 1.969957e+00 -1.110223e-16
      vertex 4.921223e+00 2.345195e+00 1.264646e+00
      vertex 4.164112e+00 1.594720e+00 1.264646e+00
    endloop
  endfacet
  facet normal 3.932800e-01 -9.068746e-01 -1.513585e-01
    outer loop
      vertex 4.542668e+00 1.969957e+00 -1.110223e-16
      vertex 4.164112e+00 1.594720e+00 1.264646e+00
      vertex 3.407001e+00 1.407101e+00 4.215488e-01
    endloop
  endfacet
  facet normal 2.405015e-01 -9.706488e-01 0.000000e+00
    outer loop
      vertex 3.028445e+00 1.313305e+00 6.744780e+00
      vertex 3.407001e+00 1.407101e+00 6.323231e+00
      vertex 3.407001e+00 1.407101e+00 7.166329e+00
    endloop
  endfacet
  facet normal 2.405015e-01 -9.706488e-01 5.064728e-16
    outer loop
      vertex 3.028445e+00 1.313305e+00 6.744780e+00
      vertex 3.407001e+00 1.407101e+00 7.166329e+00
      vertex 2.649889e+00 1.219509e+00 7.166329e+00
    endloop
  endfacet
  facet normal 2.405015e-01 -9.706488e-01 0.000000e+00
    outer loop
      vertex 3.028445e+00 1.313305e+00 6.744780e+00
      vertex 2.649889e+00 1.219509e+00 7.166329e+00
      vertex 2.649889e+00 1.219509e+00 6.323231e+00
    endloop
  endfacet
  facet normal 2.405015e-01 -9.706488e-01 -5.064728e-16
    outer loop
      vertex 3.028445e+00 1.313305e+00 6.744780e+00
      vertex 2.649889e+00 1.219509e+00 6.323231e+00
      vertex 3.407001e+00 1.407101e+00 6.323231e+00
    endloop
  endfacet
  facet normal -4.440694e-01 -8.959924e-01 2.077858e-16
    outer loop
      vertex 1.514223e+00 1.969958e+00 3.372390e+00
      vertex 2.649889e+00 1.407101e+00 2.950841e+00
      vertex 2.649889e+00 1.407101e+00 3.793939e+00
    endloop
  endfacet
  facet normal -3.932800e-01 -9.068746e-01 -1.513585e-01
    outer loop
      vertex 1.514223e+00 1.969958e+00 3.372390e+00
      vertex 2.649889e+00 1.407101e+00 3.793939e+00
      vertex 1.892778e+00 1.594720e+00 4.637036e+00
    endloop
  endfacet
  facet normal -7.039873e-01 -7.102125e-01 6.176338e-17
    outer loop
      vertex 1.514223e+00 1.969958e+00 3.372390e+00
      vertex 1.892778e+00 1.594720e+00 4.637036e+00
      vertex 1.135667e+00 2.345195e+00 4.637036e+00
    endloop
  endfacet
  facet normal -3.932800e-01 -9.068746e-01 1.513585e-01
    outer loop
      vertex 1.514223e+00 1.969958e+00 3.372390e+00
      vertex 1.135667e+00 2.345195e+00 4.637036e+00
      vertex 3.785556e-01 2.532814e+00 3.793939e+00
    endloop
  endfacet
  facet normal -4.440694e-01 -8.959924e-01 5.194644e-16
    outer loop
      vertex 1.514223e+00 1.969958e+00 3.372390e+00
      vertex 3.785556e-01 2.532814e+00 3.793939e+00
      vertex 3.785556e-01 2.532814e+00 2.950841e+00
    endloop
  endfacet
  facet normal -3.932800e-01 -9.068746e-01 -1.513585e-01
    outer loop
      vertex 1.514223e+00 1.969958e+00 3.372390e+00
      vertex 3.785556e-01 2.532814e+00 2.950841e+00
      vertex 1.135667e+00 2.345195e+00 2.107744e+00
    endloop
  endfacet
  facet normal -7.039873e-01 -7.102125e-01 6.176338e-17
    outer loop
      vertex 1.514223e+00 1.969958e+00 3.372390e+00
      vertex 1.135667e+00 2.345195e+00 2.107744e+00
      vertex 1.892778e+00 1.594720e+00 2.107744e+00
    endloop
  endfacet
  facet normal -3.932800e-01 -9.068746e-01 1.513585e-01
    outer loop
      vertex 1.514223e+00 1.969958e+00 3.372390e+00
      vertex 1.892778e+00 1.594720e+00 2.107744e+00
      vertex 2.649889e+00 1.407101e+00 2.950841e+00
    endloop
  endfacet
  facet normal -2.405015e-01 -9.706488e-01 1.266182e-16
    outer loop
      vertex 3.028445e+00 1.313305e+00 3.372390e+00
      vertex 2.649889e+00 1.407101e+00 3.793939e+00
      vertex 2.649889e+00 1.407101e+00 2.950841e+00
    endloop
  endfacet
  facet normal -2.405015e-01 -9.706488e-01 0.000000e+00
    outer loop
      vertex 3.028445e+00 1.313305e+00 3.372390e+00
      vertex 2.649889e+00 1.407101e+00 2.950841e+00
      vertex 3.407001e+00 1.219509e+00 2.950841e+00
    endloop
  endfacet
  facet normal -2.405015e-01 -9.706488e-01 1.266182e-16
    outer loop
      vertex 3.028445e+00 1.313305e+00 3.372390e+00
      vertex 3.407001e+00 1.219509e+00 2.950841e+00
      vertex 3.407001e+00 1.219509e+00 3.793939e+00
    endloop
  endfacet
  facet normal -2.405015e-01 -9.706488e-01 2.532364e-16
    outer loop
      vertex 3.028445e+00 1.313305e+00 3.372390e+00
      vertex 3.407001e+00 1.219509e+00 3.793939e+00
      vertex 2.649889e+00 1.407101e+00 3.793939e+00
    endloop
  endfacet
  facet normal -4.440694e-01 -8.959924e-01 2.077858e-16
    outer loop
      vertex 4.542668e+00 6.566525e-01 3.372390e+00
      vertex 3.407001e+00 1.219509e+00 3.793939e+00
      vertex 3.407001e+00 1.219509e+00 2.950841e+00
    endloop
  endfacet
  facet normal -3.932800e-01 -9.068746e-01 -1.513585e-01
    outer loop
      vertex 4.542668e+00 6.566525e-01 3.372390e+00
      vertex 3.407001e+00 1.219509e+00 2.950841e+00
      vertex 4.164112e+00 1.031890e+00 2.107744e+00
    endloop
  endfacet
  facet normal -7.039873e-01 -7.102125e-01 2.882291e-16
    outer loop
      vertex 4.542668e+00 6.566525e-01 3.372390e+00
      vertex 4.164112e+00 1.031890e+00 2.107744e+00
      vertex 4.921223e+00 2.814150e-01 2.107744e+00
    endloop
  endfacet
  facet normal -3.932800e-01 -9.068746e-01 1.513585e-01
    outer loop
      vertex 4.542668e+00 6.566525e-01 3.372390e+00
      vertex 4.921223e+00 2.814150e-01 2.107744e+00
      vertex 5.678334e+00 9.379624e-02 2.950841e+00
    endloop
  endfacet
  facet normal -4.440694e-01 -8.959924e-01 0.000000e+00
    outer loop
      vertex 4.542668e+00 6.566525e-01 3.372390e+00
      vertex 5.678334e+00 9.379624e-02 2.950841e+00
      vertex 5.678334e+00 9.379624e-02 3.793939e+00
    endloop
  endfacet
  facet normal -3.932800e-01 -9.068746e-01 -1.513585e-01
    outer loop
      vertex 4.542668e+00 6.566525e-01 3.372390e+00
      vertex 5.678334e+00 9.379624e-02 3.793939e+00
      vertex 4.921223e+00 2.814150e-01 4.637036e+00
    endloop
  endfacet
  facet normal -7.039873e-01 -7.102125e-01 -2.470535e-16
    outer loop
      vertex 4.542668e+00 6.566525e-01 3.372390e+00
      vertex 4.921223e+00 2.814150e-01 4.637036e+00
      vertex 4.164112e+00 1.031890e+00 4.637036e+00
    endloop
  endfacet
  facet normal -3.932800e-01 -9.068746e-01 1.513585e-01
    outer loop
      vertex 4.542668e+00 6.566525e-01 3.372390e+00
      vertex 4.164112e+00 1.031890e+00 4.637036e+00
      vertex 3.407001e+00 1.219509e+00 3.793939e+00
    endloop
  endfacet
  facet normal -2.405015e-01 -9.706488e-01 6.330909e-17
    outer loop
      vertex 6.056890e+00 2.636780e-16 3.372390e+00
      vertex 5.678334e+00 9.379624e-02 3.793939e+00
      vertex 5.678334e+00 9.379624e-02 2.950841e+00
    endloop
  endfacet
  facet normal -2.405015e-01 -9.706488e-01 2.110303e-17
    outer loop
      vertex 6.056890e+00 2.636780e-16 3.372390e+00
      vertex 5.678334e+00 9.379624e-02 2.950841e+00
      vertex 6.435446e+00 -9.379624e-02 2.950841e+00
    endloop
  endfacet
  facet normal -2.405015e-01 -9.706488e-01 5.064728e-16
    outer loop
      vertex 6.056890e+00 2.636780e-16 3.372390e+00
      vertex 6.435446e+00 -9.379624e-02 2.950841e+00
      vertex 6.435446e+00 -9.379624e-02 3.793939e+00
    endloop
  endfacet
  facet normal -2.405015e-01 -9.706488e-01 5.486788e-16
    outer loop
      vertex 6.056890e+00 2.636780e-16 3.372390e+00
      vertex 6.435446e+00 -9.379624e-02 3.793939e+00
      vertex 5.678334e+00 9.379624e-02 3.793939e+00
    endloop
  endfacet
  facet normal -2.405015e-01 -9.706488e-01 5.275758e-16
    outer loop
      vertex 3.330669e-16 2.626610e+00 3.372390e+00
      vertex 3.785556e-01 2.532814e+00 2.950841e+00
      vertex 3.785556e-01 2.532814e+00 3.793939e+00
    endloop
  endfacet
  facet normal -2.405015e-01 -9.706488e-01 0.000000e+00
    outer loop
      vertex 3.330669e-16 2.626610e+00 3.372390e+00
      vertex 3.785556e-01 2.532814e+00 3.793939e+00
      vertex -3.785556e-01 2.720406e+00 3.793939e+00
    endloop
  endfacet
  facet normal -2.405015e-01 -9.706488e-01 0.000000e+00
    outer loop
      vertex 3.330669e-16 2.626610e+00 3.372390e+00
      vertex -3.785556e-01 2.720406e+00 3.793939e+00
      vertex -3.785556e-01 2.720406e+00 2.950841e+00
    endloop
  endfacet
  facet normal -2.405015e-01 -9.706488e-01 5.275758e-16
    outer loop
      vertex 3.330669e-16 2.626610e+00 3.372390e+00
      vertex -3.785556e-01 2.720406e+00 2.950841e+00
      vertex 3.785556e-01 2.532814e+00 2.950841e+00
    endloop
  endfacet
  facet normal 2.405015e-01 -9.706488e-01 0.000000e+00
    outer loop
      vertex 6.056890e+00 2.626610e+00 -1.665335e-16
      vertex 5.678334e+00 2.532814e+00 4.215488e-01
      vertex 5.678334e+00 2.532814e+00 -4.215488e-01
    endloop
  endfacet
  facet normal 2.405015e-01 -9.706488e-01 2.532364e-16
    outer loop
      vertex 6.056890e+00 2.626610e+00 -1.665335e-16
      vertex 5.678334e+00 2.532814e+00 -4.215488e-01
      vertex 6.435446e+00 2.720406e+00 -4.215488e-01
    endloop
  endfacet
  facet normal 2.405015e-01 -9.706488e-01 2.532364e-16
    outer loop
      vertex 6.056890e+00 2.626610e+00 -1.665335e-16
      vertex 6.435446e+00 2.720406e+00 -4.215488e-01
      vertex 6.435446e+00 2.720406e+00 4.215488e-01
    endloop
  endfacet
  facet normal 2.405015e-01 -9.706488e-01 0.000000e+00
    outer loop
      vertex 6.056890e+00 2.626610e+00 -1.665335e-16
      vertex 6.435446e+00 2.720406e+00 4.215488e-01
      vertex 5.678334e+00 2.532814e+00 4.215488e-01
    endloop
  endfacet
  facet normal 4.440694e-01 -8.959924e-01 0.000000e+00
    outer loop
      vertex 4.542668e+00 1.969958e+00 6.744780e+00
      vertex 5.678334e+00 2.532814e+00 6.323231e+00
      vertex 5.678334e+00 2.532814e+00 7.166329e+00
    endloop
  endfacet
  facet normal 3.932800e-01 -9.068746e-01 1.513585e-01
    outer loop
      vertex 4.542668e+00 1.969958e+00 6.744780e+00
      vertex 5.678334e+00 2.532814e+00 7.166329e+00
      vertex 4.921223e+00 2.345195e+00 8.009426e+00
    endloop
  endfacet
  facet normal 7.039873e-01 -7.102125e-01 6.176338e-17
    outer loop
      vertex 4.542668e+00 1.969958e+00 6.744780e+00
      vertex 4.921223e+00 2.345195e+00 8.009426e+00
      vertex 4.164112e+00 1.594720e+00 8.009426e+00
    endloop
  endfacet
  facet normal 3.932800e-01 -9.068746e-01 -1.513585e-01
    outer loop
      vertex 4.542668e+00 1.969958e+00 6.744780e+00
      vertex 4.164112e+00 1.594720e+00 8.009426e+00
      vertex 3.407001e+00 1.407101e+00 7.166329e+00
    endloop
  endfacet
  facet normal 4.440694e-01 -8.959924e-01 0.000000e+00
    outer loop
      vertex 4.542668e+00 1.969958e+00 6.744780e+00
      vertex 3.407001e+00 1.407101e+00 7.166329e+00
      vertex 3.407001e+00 1.407101e+00 6.323231e+00
    endloop
  endfacet
  facet normal 3.932800e-01 -9.068746e-01 1.513585e-01
    outer loop
      vertex 4.542668e+00 1.969958e+00 6.744780e+00
      vertex 3.407001e+00 1.407101e+00 6.323231e+00
      vertex 4.164112e+00 1.594720e+00 5.480134e+00
    endloop
  endfacet
  facet normal 7.039873e-01 -7.102125e-01 -6.176338e-17
    outer loop
      vertex 4.542668e+00 1.969958e+00 6.744780e+00
      vertex 4.164112e+00 1.594720e+00 5.480134e+00
      vertex 4.921223e+00 2.345195e+00 5.480134e+00
    endloop
  endfacet
  facet normal 3.932800e-01 -9.068746e-01 -1.513585e-01
    outer loop
      vertex 4.542668e+00 1.969958e+00 6.744780e+00
      vertex 4.921223e+00 2.345195e+00 5.480134e+00
      vertex 5.678334e+00 2.532814e+00 6.323231e+00
    endloop
  endfacet
  facet normal 2.405253e-01 -9.706429e-01 7.559921e-06
    outer loop
      vertex 1.110223e-16 5.551115e-17 1.686195e+00
      vertex 3.785556e-01 9.379624e-02 4.215488e-01
      vertex 1.135667e+00 2.814150e-01 1.264646e+00
    endloop
  endfacet
  facet normal 7.232866e-17 -8.317018e-01 -5.552225e-01
    outer loop
      vertex 1.110223e-16 5.551115e-17 1.686195e+00
      vertex 1.135667e+00 2.814150e-01 1.264646e+00
      vertex 1.135667e+00 -2.814150e-01 2.107744e+00
    endloop
  endfacet
  facet normal -2.405253e-01 -9.706429e-01 7.559921e-06
    outer loop
      vertex 1.110223e-16 5.551115e-17 1.686195e+00
      vertex 1.135667e+00 -2.814150e-01 2.107744e+00
      vertex 3.785556e-01 -9.379624e-02 2.950841e+00
    endloop
  endfacet
  facet normal -2.405015e-01 -9.706488e-01 8.441213e-17
    outer loop
      vertex 1.110223e-16 5.551115e-17 1.686195e+00
      vertex 3.785556e-01 -9.379624e-02 2.950841e+00
      vertex -3.785556e-01 9.379624e-02 2.950841e+00
    endloop
  endfacet
  facet normal -2.405253e-01 -9.706429e-01 -7.559921e-06
    outer loop
      vertex 1.110223e-16 5.551115e-17 1.686195e+00
      vertex -3.785556e-01 9.379624e-02 2.950841e+00
      vertex -1.135667e+00 2.814150e-01 2.107744e+00
    endloop
  endfacet
  facet normal 1.326025e-16 -8.317018e-01 5.552225e-01
    outer loop
      vertex 1.110223e-16 5.551115e-17 1.686195e+00
      vertex -1.135667e+00 2.814150e-01 2.107744e+00
      vertex -1.135667e+00 -2.814150e-01 1.264646e+00
    endloop
  endfacet
  facet normal 2.405253e-01 -9.706429e-01 -7.559921e-06
    outer loop
      vertex 1.110223e-16 5.551115e-17 1.686195e+00
      vertex -1.135667e+00 -2.814150e-01 1.264646e+00
      vertex -3.785556e-01 -9.379624e-02 4.215488e-01
    endloop
  endfacet
  facet normal 2.405015e-01 -9.706488e-01 0.000000e+00
    outer loop
      vertex 1.110223e-16 5.551115e-17 1.686195e+00
      vertex -3.785556e-01 -9.379624e-02 4.215488e-01
      vertex 3.785556e-01 9.379624e-02 4.215488e-01
    endloop
  endfacet
  facet normal 2.405253e-01 -9.706429e-01 -7.559921e-06
    outer loop
      vertex 3.028445e+00 1.313305e+00 1.686195e+00
      vertex 1.892778e+00 1.031890e+00 1.264646e+00
      vertex 2.649889e+00 1.219509e+00 4.215488e-01
    endloop
  endfacet
  facet normal 2.405015e-01 -9.706488e-01 -8.441213e-17
    outer loop
      vertex 3.028445e+00 1.313305e+00 1.686195e+00
      vertex 2.649889e+00 1.219509e+00 4.215488e-01
      vertex 3.407001e+00 1.407101e+00 4.215488e-01
    endloop
  endfacet
  facet normal 2.405253e-01 -9.706429e-01 7.559921e-06
    outer loop
      vertex 3.028445e+00 1.313305e+00 1.686195e+00
      vertex 3.407001e+00 1.407101e+00 4.215488e-01
      vertex 4.164112e+00 1.594720e+00 1.264646e+00
    endloop
  endfacet
  facet normal 8.438343e-17 -8.317018e-01 -5.552225e-01
    outer loop
      vertex 3.028445e+00 1.313305e+00 1.686195e+00
      vertex 4.164112e+00 1.594720e+00 1.264646e+00
      vertex 4.164112e+00 1.031890e+00 2.107744e+00
    endloop
  endfacet
  facet normal -2.405253e-01 -9.706429e-01 7.559921e-06
    outer loop
      vertex 3.028445e+00 1.313305e+00 1.686195e+00
      vertex 4.164112e+00 1.031890e+00 2.107744e+00
      vertex 3.407001e+00 1.219509e+00 2.950841e+00
    endloop
  endfacet
  facet normal -2.405015e-01 -9.706488e-01 8.441213e-17
    outer loop
      vertex 3.028445e+00 1.313305e+00 1.686195e+00
      vertex 3.407001e+00 1.219509e+00 2.950841e+00
      vertex 2.649889e+00 1.407101e+00 2.950841e+00
    endloop
  endfacet
  facet normal -2.405253e-01 -9.706429e-01 -7.559921e-06
    outer loop
      vertex 3.028445e+00 1.313305e+00 1.686195e+00
      vertex 2.649889e+00 1.407101e+00 2.950841e+00
      vertex 1.892778e+00 1.594720e+00 2.107744e+00
    endloop
  endfacet
  facet normal -8.438343e-17 -8.317018e-01 5.552225e-01
    outer loop
      vertex 3.028445e+00 1.313305e+00 1.686195e+00
      vertex 1.892778e+00 1.594720e+00 2.107744e+00
      vertex 1.892778e+00 1.031890e+00 1.264646e+00
    endloop
  endfacet
  facet normal 2.405253e-01 -9.706429e-01 -7.559921e-06
    outer loop
      vertex 2.220446e-16 3.885781e-16 5.058585e+00
      vertex 1.135667e+00 2.814150e-01 5.480134e+00
      vertex 3.785556e-01 9.379624e-02 6.323231e+00
    endloop
  endfacet
  facet normal 2.405015e-01 -9.706488e-01 3.517172e-17
    outer loop
      vertex 2.220446e-16 3.885781e-16 5.058585e+00
      vertex 3.785556e-01 9.379624e-02 6.323231e+00
      vertex -3.785556e-01 -9.379624e-02 6.323231e+00
    endloop
  endfacet
  facet normal 2.405253e-01 -9.706429e-01 7.559921e-06
    outer loop
      vertex 2.220446e-16 3.885781e-16 5.058585e+00
      vertex -3.785556e-01 -9.379624e-02 6.323231e+00
      vertex -1.135667e+00 -2.814150e-01 5.480134e+00
    endloop
  endfacet
  facet normal 2.531503e-16 -8.317018e-01 -5.552225e-01
    outer loop
      vertex 2.220446e-16 3.885781e-16 5.058585e+00
      vertex -1.135667e+00 -2.814150e-01 5.480134e+00
      vertex -1.135667e+00 2.814150e-01 4.637036e+00
    endloop
  endfacet
  facet normal -2.405253e-01 -9.706429e-01 7.559921e-06
    outer loop
      vertex 2.220446e-16 3.885781e-16 5.058585e+00
      vertex -1.135667e+00 2.814150e-01 4.637036e+00
      vertex -3.785556e-01 9.379624e-02 3.793939e+00
    endloop
  endfacet
  facet normal -2.405015e-01 -9.706488e-01 -7.034344e-18
    outer loop
      vertex 2.220446e-16 3.885781e-16 5.058585e+00
      vertex -3.785556e-01 9.379624e-02 3.793939e+00
      vertex 3.785556e-01 -9.379624e-02 3.793939e+00
    endloop
  endfacet
  facet normal -2.405253e-01 -9.706429e-01 -7.559921e-06
    outer loop
      vertex 2.220446e-16 3.885781e-16 5.058585e+00
      vertex 3.785556e-01 -9.379624e-02 3.793939e+00
      vertex 1.135667e+00 -2.814150e-01 4.637036e+00
    endloop
  endfacet
  facet normal 2.049312e-16 -8.317018e-01 5.552225e-01
    outer loop
      vertex 2.220446e-16 3.885781e-16 5.058585e+00
      vertex 1.135667e+00 -2.814150e-01 4.637036e+00
      vertex 1.135667e+00 2.814150e-01 5.480134e+00
    endloop
  endfacet
  facet normal -2.405253e-01 -9.706429e-01 -7.559921e-06
    outer loop
      vertex 6.056890e+00 5.551115e-17 1.686195e+00
      vertex 5.678334e+00 9.379624e-02 2.950841e+00
      vertex 4.921223e+00 2.814150e-01 2.107744e+00
    endloop
  endfacet
  facet normal 2.410955e-17 -8.317018e-01 5.552225e-01
    outer loop
      vertex 6.056890e+00 5.551115e-17 1.686195e+00
      vertex 4.921223e+00 2.814150e-01 2.107744e+00
      vertex 4.921223e+00 -2.814150e-01 1.264646e+00
    endloop
  endfacet
  facet normal 2.405253e-01 -9.706429e-01 -7.559921e-06
    outer loop
      vertex 6.056890e+00 5.551115e-17 1.686195e+00
      vertex 4.921223e+00 -2.814150e-01 1.264646e+00
      vertex 5.678334e+00 -9.379624e-02 4.215488e-01
    endloop
  endfacet
  facet normal 2.405015e-01 -9.706488e-01 -7.034344e-18
    outer loop
      vertex 6.056890e+00 5.551115e-17 1.686195e+00
      vertex 5.678334e+00 -9.379624e-02 4.215488e-01
      vertex 6.435446e+00 9.379624e-02 4.215488e-01
    endloop
  endfacet
  facet normal 2.405253e-01 -9.706429e-01 7.559921e-06
    outer loop
      vertex 6.056890e+00 5.551115e-17 1.686195e+00
      vertex 6.435446e+00 9.379624e-02 4.215488e-01
      vertex 7.192557e+00 2.814150e-01 1.264646e+00
    endloop
  endfacet
  facet normal -4.821910e-17 -8.317018e-01 -5.552225e-01
    outer loop
      vertex 6.056890e+00 5.551115e-17 1.686195e+00
      vertex 7.192557e+00 2.814150e-01 1.264646e+00
      vertex 7.192557e+00 -2.814150e-01 2.107744e+00
    endloop
  endfacet
  facet normal -2.405253e-01 -9.706429e-01 7.559921e-06
    outer loop
      vertex 6.056890e+00 5.551115e-17 1.686195e+00
      vertex 7.192557e+00 -2.814150e-01 2.107744e+00
      vertex 6.435446e+00 -9.379624e-02 2.950841e+00
    endloop
  endfacet
  facet normal -2.405015e-01 -9.706488e-01 1.477212e-16
    outer loop
      vertex 6.056890e+00 5.551115e-17 1.686195e+00
      vertex 6.435446e+00 -9.379624e-02 2.950841e+00
      vertex 5.678334e+00 9.379624e-02 2.950841e+00
    endloop
  endfacet
  facet normal 2.405253e-01 -9.706429e-01 7.559921e-06
    outer loop
      vertex 3.028445e+00 1.313305e+00 5.058585e+00
      vertex 2.649889e+00 1.219509e+00 6.323231e+00
      vertex 1.892778e+00 1.031890e+00 5.480134e+00
    endloop
  endfacet
  facet normal -3.013694e-16 -8.317018e-01 -5.552225e-01
    outer loop
      vertex 3.028445e+00 1.313305e+00 5.058585e+00
      vertex 1.892778e+00 1.031890e+00 5.480134e+00
      vertex 1.892778e+00 1.594720e+00 4.637036e+00
    endloop
  endfacet
  facet normal -2.405253e-01 -9.706429e-01 7.559921e-06
    outer loop
      vertex 3.028445e+00 1.313305e+00 5.058585e+00
      vertex 1.892778e+00 1.594720e+00 4.637036e+00
      vertex 2.649889e+00 1.407101e+00 3.793939e+00
    endloop
  endfacet
  facet normal -2.405015e-01 -9.706488e-01 -8.441213e-17
    outer loop
      vertex 3.028445e+00 1.313305e+00 5.058585e+00
      vertex 2.649889e+00 1.407101e+00 3.793939e+00
      vertex 3.407001e+00 1.219509e+00 3.793939e+00
    endloop
  endfacet
  facet normal -2.405253e-01 -9.706429e-01 -7.559921e-06
    outer loop
      vertex 3.028445e+00 1.313305e+00 5.058585e+00
      vertex 3.407001e+00 1.219509e+00 3.793939e+00
      vertex 4.164112e+00 1.031890e+00 4.637036e+00
    endloop
  endfacet
  facet normal -1.326025e-16 -8.317018e-01 5.552225e-01
    outer loop
      vertex 3.028445e+00 1.313305e+00 5.058585e+00
      vertex 4.164112e+00 1.031890e+00 4.637036e+00
      vertex 4.164112e+00 1.594720e+00 5.480134e+00
    endloop
  endfacet
  facet normal 2.405253e-01 -9.706429e-01 -7.559921e-06
    outer loop
      vertex 3.028445e+00 1.313305e+00 5.058585e+00
      vertex 4.164112e+00 1.594720e+00 5.480134e+00
      vertex 3.407001e+00 1.407101e+00 6.323231e+00
    endloop
  endfacet
  facet normal 2.405015e-01 -9.706488e-01 8.441213e-17
    outer loop
      vertex 3.028445e+00 1.313305e+00 5.058585e+00
      vertex 3.407001e+00 1.407101e+00 6.323231e+00
      vertex 2.649889e+00 1.219509e+00 6.323231e+00
    endloop
  endfacet
  facet normal -2.405253e-01 -9.706429e-01 7.559921e-06
    outer loop
      vertex 2.220446e-16 2.626610e+00 1.686195e+00
      vertex 1.135667e+00 2.345195e+00 2.107744e+00
      vertex 3.785556e-01 2.532814e+00 2.950841e+00
    endloop
  endfacet
  facet normal -2.405015e-01 -9.706488e-01 -1.547556e-16
    outer loop
      vertex 2.220446e-16 2.626610e+00 1.686195e+00
      vertex 3.785556e-01 2.532814e+00 2.950841e+00
      vertex -3.785556e-01 2.720406e+00 2.950841e+00
    endloop
  endfacet
  facet normal -2.405253e-01 -9.706429e-01 -7.559921e-06
    outer loop
      vertex 2.220446e-16 2.626610e+00 1.686195e+00
      vertex -3.785556e-01 2.720406e+00 2.950841e+00
      vertex -1.135667e+00 2.908025e+00 2.107744e+00
    endloop
  endfacet
  facet normal 3.254789e-16 -8.317018e-01 5.552225e-01
    outer loop
      vertex 2.220446e-16 2.626610e+00 1.686195e+00
      vertex -1.135667e+00 2.908025e+00 2.107744e+00
      vertex -1.135667e+00 2.345195e+00 1.264646e+00
    endloop
  endfacet
  facet normal 2.405253e-01 -9.706429e-01 -7.559921e-06
    outer loop
      vertex 2.220446e-16 2.626610e+00 1.686195e+00
      vertex -1.135667e+00 2.345195e+00 1.264646e+00
      vertex -3.785556e-01 2.532814e+00 4.215488e-01
    endloop
  endfacet
  facet normal 2.405015e-01 -9.706488e-01 3.376485e-16
    outer loop
      vertex 2.220446e-16 2.626610e+00 1.686195e+00
      vertex -3.785556e-01 2.532814e+00 4.215488e-01
      vertex 3.785556e-01 2.720406e+00 4.215488e-01
    endloop
  endfacet
  facet normal 2.405253e-01 -9.706429e-01 7.559921e-06
    outer loop
      vertex 2.220446e-16 2.626610e+00 1.686195e+00
      vertex 3.785556e-01 2.720406e+00 4.215488e-01
      vertex 1.135667e+00 2.908025e+00 1.264646e+00
    endloop
  endfacet
  facet normal -3.254789e-16 -8.317018e-01 -5.552225e-01
    outer loop
      vertex 2.220446e-16 2.626610e+00 1.686195e+00
      vertex 1.135667e+00 2.908025e+00 1.264646e+00
      vertex 1.135667e+00 2.345195e+00 2.107744e+00
    endloop
  endfacet
  facet normal -2.405253e-01 -9.706429e-01 7.559921e-06
    outer loop
      vertex 6.056890e+00 3.885781e-16 5.058585e+00
      vertex 4.921223e+00 2.814150e-01 4.637036e+00
      vertex 5.678334e+00 9.379624e-02 3.793939e+00
    endloop
  endfacet
  facet normal -2.405015e-01 -9.706488e-01 -8.441213e-17
    outer loop
      vertex 6.056890e+00 3.885781e-16 5.058585e+00
      vertex 5.678334e+00 9.379624e-02 3.793939e+00
      vertex 6.435446e+00 -9.379624e-02 3.793939e+00
    endloop
  endfacet
  facet normal -2.405253e-01 -9.706429e-01 -7.559921e-06
    outer loop
      vertex 6.056890e+00 3.885781e-16 5.058585e+00
      vertex 6.435446e+00 -9.379624e-02 3.793939e+00
      vertex 7.192557e+00 -2.814150e-01 4.637036e+00
    endloop
  endfacet
  facet normal -2.290407e-16 -8.317018e-01 5.552225e-01
    outer loop
      vertex 6.056890e+00 3.885781e-16 5.058585e+00
      vertex 7.192557e+00 -2.814150e-01 4.637036e+00
      vertex 7.192557e+00 2.814150e-01 5.480134e+00
    endloop
  endfacet
  facet normal 2.405253e-01 -9.706429e-01 -7.559921e-06
    outer loop
      vertex 6.056890e+00 3.885781e-16 5.058585e+00
      vertex 7.192557e+00 2.814150e-01 5.480134e+00
      vertex 6.435446e+00 9.379624e-02 6.323231e+00
    endloop
  endfacet
  facet normal 2.405015e-01 -9.706488e-01 -2.813738e-17
    outer loop
      vertex 6.056890e+00 3.885781e-16 5.058585e+00
      vertex 6.435446e+00 9.379624e-02 6.323231e+00
      vertex 5.678334e+00 -9.379624e-02 6.323231e+00
    endloop
  endfacet
  facet normal 2.405253e-01 -9.706429e-01 7.559921e-06
    outer loop
      vertex 6.056890e+00 3.885781e-16 5.058585e+00
      vertex 5.678334e+00 -9.379624e-02 6.323231e+00
      vertex 4.921223e+00 -2.814150e-01 5.480134e+00
    endloop
  endfacet
  facet normal -1.808216e-16 -8.317018e-01 -5.552225e-01
    outer loop
      vertex 6.056890e+00 3.885781e-16 5.058585e+00
      vertex 4.921223e+00 -2.814150e-01 5.480134e+00
      vertex 4.921223e+00 2.814150e-01 4.637036e+00
    endloop
  endfacet
  facet normal -2.405253e-01 -9.706429e-01 -7.559921e-06
    outer loop
      vertex 3.330669e-16 2.626610e+00 5.058585e+00
      vertex 3.785556e-01 2.532814e+00 3.793939e+00
      vertex 1.135667e+00 2.345195e+00 4.637036e+00
    endloop
  endfacet
  facet normal 2.169860e-16 -8.317018e-01 5.552225e-01
    outer loop
      vertex 3.330669e-16 2.626610e+00 5.058585e+00
      vertex 1.135667e+00 2.345195e+00 4.637036e+00
      vertex 1.135667e+00 2.908025e+00 5.480134e+00
    endloop
  endfacet
  facet normal 2.405253e-01 -9.706429e-01 -7.559921e-06
    outer loop
      vertex 3.330669e-16 2.626610e+00 5.058585e+00
      vertex 1.135667e+00 2.908025e+00 5.480134e+00
      vertex 3.785556e-01 2.720406e+00 6.323231e+00
    endloop
  endfacet
  facet normal 2.405015e-01 -9.706488e-01 -1.406869e-17
    outer loop
      vertex 3.330669e-16 2.626610e+00 5.058585e+00
      vertex 3.785556e-01 2.720406e+00 6.323231e+00
      vertex -3.785556e-01 2.532814e+00 6.323231e+00
    endloop
  endfacet
  facet normal 2.405253e-01 -9.706429e-01 7.559921e-06
    outer loop
      vertex 3.330669e-16 2.626610e+00 5.058585e+00
      vertex -3.785556e-01 2.532814e+00 6.323231e+00
      vertex -1.135667e+00 2.345195e+00 5.480134e+00
    endloop
  endfacet
  facet normal 3.857528e-16 -8.317018e-01 -5.552225e-01
    outer loop
      vertex 3.330669e-16 2.626610e+00 5.058585e+00
      vertex -1.135667e+00 2.345195e+00 5.480134e+00
      vertex -1.135667e+00 2.908025e+00 4.637036e+00
    endloop
  endfacet
  facet normal -2.405253e-01 -9.706429e-01 7.559921e-06
    outer loop
      vertex 3.330669e-16 2.626610e+00 5.058585e+00
      vertex -1.135667e+00 2.908025e+00 4.637036e+00
      vertex -3.785556e-01 2.720406e+00 3.793939e+00
    endloop
  endfacet
  facet normal -2.405015e-01 -9.706488e-01 0.000000e+00
    outer loop
      vertex 3.330669e-16 2.626610e+00 5.058585e+00
      vertex -3.785556e-01 2.720406e+00 3.793939e+00
      vertex 3.785556e-01 2.532814e+00 3.793939e+00
    endloop
  endfacet
  facet normal 2.405253e-01 -9.706429e-01 -7.559921e-06
    outer loop
      vertex 6.056890e+00 2.626610e+00 1.686195e+00
      vertex 4.921223e+00 2.345195e+00 1.264646e+00
      vertex 5.678334e+00 2.532814e+00 4.215488e-01
    endloop
  endfacet
  facet normal 2.405015e-01 -9.706488e-01 -3.376485e-16
    outer loop
      vertex 6.056890e+00 2.626610e+00 1.686195e+00
      vertex 5.678334e+00 2.532814e+00 4.215488e-01
      vertex 6.435446e+00 2.720406e+00 4.215488e-01
    endloop
  endfacet
  facet normal 2.405253e-01 -9.706429e-01 7.559921e-06
    outer loop
      vertex 6.056890e+00 2.626610e+00 1.686195e+00
      vertex 6.435446e+00 2.720406e+00 4.215488e-01
      vertex 7.192557e+00 2.908025e+00 1.264646e+00
    endloop
  endfacet
  facet normal 3.254789e-16 -8.317018e-01 -5.552225e-01
    outer loop
      vertex 6.056890e+00 2.626610e+00 1.686195e+00
      vertex 7.192557e+00 2.908025e+00 1.264646e+00
      vertex 7.192557e+00 2.345195e+00 2.107744e+00
    endloop
  endfacet
  facet normal -2.405253e-01 -9.706429e-01 7.559921e-06
    outer loop
      vertex 6.056890e+00 2.626610e+00 1.686195e+00
      vertex 7.192557e+00 2.345195e+00 2.107744e+00
      vertex 6.435446e+00 2.532814e+00 2.950841e+00
    endloop
  endfacet
  facet normal -2.405015e-01 -9.706488e-01 5.979192e-16
    outer loop
      vertex 6.056890e+00 2.626610e+00 1.686195e+00
      vertex 6.435446e+00 2.532814e+00 2.950841e+00
      vertex 5.678334e+00 2.720406e+00 2.950841e+00
    endloop
  endfacet
  facet normal -2.405253e-01 -9.706429e-01 -7.559921e-06
    outer loop
      vertex 6.056890e+00 2.626610e+00 1.686195e+00
      vertex 5.678334e+00 2.720406e+00 2.950841e+00
      vertex 4.921223e+00 2.908025e+00 2.107744e+00
    endloop
  endfacet
  facet normal -3.254789e-16 -8.317018e-01 5.552225e-01
    outer loop
      vertex 6.056890e+00 2.626610e+00 1.686195e+00
      vertex 4.921223e+00 2.908025e+00 2.107744e+00
      vertex 4.921223e+00 2.345195e+00 1.264646e+00
    endloop
  endfacet
  facet normal 2.405253e-01 -9.706429e-01 7.559921e-06
    outer loop
      vertex 6.056890e+00 2.626610e+00 5.058585e+00
      vertex 5.678334e+00 2.532814e+00 6.323231e+00
      vertex 4.921223e+00 2.345195e+00 5.480134e+00
    endloop
  endfacet
  facet normal 2.652051e-16 -8.317018e-01 -5.552225e-01
    outer loop
      vertex 6.056890e+00 2.626610e+00 5.058585e+00
      vertex 4.921223e+00 2.345195e+00 5.480134e+00
      vertex 4.921223e+00 2.908025e+00 4.637036e+00
    endloop
  endfacet
  facet normal -2.405253e-01 -9.706429e-01 7.559921e-06
    outer loop
      vertex 6.056890e+00 2.626610e+00 5.058585e+00
      vertex 4.921223e+00 2.908025e+00 4.637036e+00
      vertex 5.678334e+00 2.720406e+00 3.793939e+00
    endloop
  endfacet
  facet normal -2.405015e-01 -9.706488e-01 2.532364e-16
    outer loop
      vertex 6.056890e+00 2.626610e+00 5.058585e+00
      vertex 5.678334e+00 2.720406e+00 3.793939e+00
      vertex 6.435446e+00 2.532814e+00 3.793939e+00
    endloop
  endfacet
  facet normal -2.405253e-01 -9.706429e-01 -7.559921e-06
    outer loop
      vertex 6.056890e+00 2.626610e+00 5.058585e+00
      vertex 6.435446e+00 2.532814e+00 3.793939e+00
      vertex 7.192557e+00 2.345195e+00 4.637036e+00
    endloop
  endfacet
  facet normal -5.424649e-16 -8.317018e-01 5.552225e-01
    outer loop
      vertex 6.056890e+00 2.626610e+00 5.058585e+00
      vertex 7.192557e+00 2.345195e+00 4.637036e+00
      vertex 7.192557e+00 2.908025e+00 5.480134e+00
    endloop
  endfacet
  facet normal 2.405253e-01 -9.706429e-01 -7.559921e-06
    outer loop
      vertex 6.056890e+00 2.626610e+00 5.058585e+00
      vertex 7.192557e+00 2.908025e+00 5.480134e+00
      vertex 6.435446e+00 2.720406e+00 6.323231e+00
    endloop
  endfacet
  facet normal 2.405015e-01 -9.706488e-01 -4.220606e-16
    outer loop
      vertex 6.056890e+00 2.626610e+00 5.058585e+00
      vertex 6.435446e+00 2.720406e+00 6.323231e+00
      vertex 5.678334e+00 2.532814e+00 6.323231e+00
    endloop
  endfacet
  facet normal 7.039873e-01 -7.102125e-01 -7.411606e-16
    outer loop
      vertex 1.514223e+00 6.566525e-01 1.475421e+00
      vertex 1.135667e+00 2.814150e-01 1.264646e+00
      vertex 1.892778e+00 1.031890e+00 1.264646e+00
    endloop
  endfacet
  facet normal 6.965867e-01 -3.513732e-01 6.255429e-01
    outer loop
      vertex 1.514223e+00 6.566525e-01 1.475421e+00
      vertex 1.892778e+00 1.031890e+00 1.264646e+00
      vertex 1.514223e+00 1.031890e+00 1.686195e+00
    endloop
  endfacet
  facet normal 1.000000e+00 0.000000e+00 -0.000000e+00
    outer loop
      vertex 1.514223e+00 6.566525e-01 1.475421e+00
      vertex 1.514223e+00 1.031890e+00 1.686195e+00
      vertex 1.514223e+00 2.814150e-01 1.686195e+00
    endloop
  endfacet
  facet normal 6.965867e-01 -3.513732e-01 -6.255429e-01
    outer loop
      vertex 1.514223e+00 6.566525e-01 1.475421e+00
      vertex 1.514223e+00 2.814150e-01 1.686195e+00
      vertex 1.135667e+00 2.814150e-01 1.264646e+00
    endloop
  endfacet
  facet normal -5.063006e-16 -8.317018e-01 5.552225e-01
    outer loop
      vertex 1.703500e+00 1.313305e+00 1.686195e+00
      vertex 1.892778e+00 1.031890e+00 1.264646e+00
      vertex 1.892778e+00 1.594720e+00 2.107744e+00
    endloop
  endfacet
  facet normal -6.653659e-01 -4.475205e-01 5.975062e-01
    outer loop
      vertex 1.703500e+00 1.313305e+00 1.686195e+00
      vertex 1.892778e+00 1.594720e+00 2.107744e+00
      vertex 1.514223e+00 1.594720e+00 1.686195e+00
    endloop
  endfacet
  facet normal 0.000000e+00 0.000000e+00 1.000000e+00
    outer loop
      vertex 1.703500e+00 1.313305e+00 1.686195e+00
      vertex 1.514223e+00 1.594720e+00 1.686195e+00
      vertex 1.514223e+00 1.031890e+00 1.686195e+00
    endloop
  endfacet
  facet normal 6.653659e-01 -4.475205e-01 5.975062e-01
    outer loop
      vertex 1.703500e+00 1.313305e+00 1.686195e+00
      vertex 1.514223e+00 1.031890e+00 1.686195e+00
      vertex 1.892778e+00 1.031890e+00 1.264646e+00
    endloop
  endfacet
  facet normal -7.039873e-01 -7.102125e-01 3.705803e-16
    outer loop
      vertex 1.514223e+00 1.969958e+00 1.896969e+00
      vertex 1.892778e+00 1.594720e+00 2.107744e+00
      vertex 1.135667e+00 2.345195e+00 2.107744e+00
    endloop
  endfacet
  facet normal -6.965867e-01 -3.513732e-01 -6.255429e-01
    outer loop
      vertex 1.514223e+00 1.969958e+00 1.896969e+00
      vertex 1.135667e+00 2.345195e+00 2.107744e+00
      vertex 1.514223e+00 2.345195e+00 1.686195e+00
    endloop
  endfacet
  facet normal -1.000000e+00 0.000000e+00 -0.000000e+00
    outer loop
      vertex 1.514223e+00 1.969958e+00 1.896969e+00
      vertex 1.514223e+00 2.345195e+00 1.686195e+00
      vertex 1.514223e+00 1.594720e+00 1.686195e+00
    endloop
  endfacet
  facet normal -6.965867e-01 -3.513732e-01 6.255429e-01
    outer loop
      vertex 1.514223e+00 1.969958e+00 1.896969e+00
      vertex 1.514223e+00 1.594720e+00 1.686195e+00
      vertex 1.892778e+00 1.594720e+00 2.107744e+00
    endloop
  endfacet
  facet normal 7.039873e-01 -7.102125e-01 -6.176338e-16
    outer loop
      vertex 1.514223e+00 6.566525e-01 5.269359e+00
      vertex 1.892778e+00 1.031890e+00 5.480134e+00
      vertex 1.135667e+00 2.814150e-01 5.480134e+00
    endloop
  endfacet
  facet normal 6.965867e-01 -3.513732e-01 6.255429e-01
    outer loop
      vertex 1.514223e+00 6.566525e-01 5.269359e+00
      vertex 1.135667e+00 2.814150e-01 5.480134e+00
      vertex 1.514223e+00 2.814150e-01 5.058585e+00
    endloop
  endfacet
  facet normal 1.000000e+00 0.000000e+00 0.000000e+00
    outer loop
      vertex 1.514223e+00 6.566525e-01 5.269359e+00
      vertex 1.514223e+00 2.814150e-01 5.058585e+00
      vertex 1.514223e+00 1.031890e+00 5.058585e+00
    endloop
  endfacet
  facet normal 6.965867e-01 -3.513732e-01 -6.255429e-01
    outer loop
      vertex 1.514223e+00 6.566525e-01 5.269359e+00
      vertex 1.514223e+00 1.031890e+00 5.058585e+00
      vertex 1.892778e+00 1.031890e+00 5.480134e+00
    endloop
  endfacet
  facet normal -1.301916e-15 -8.317018e-01 5.552225e-01
    outer loop
      vertex 1.324945e+00 3.608225e-16 5.058585e+00
      vertex 1.135667e+00 2.814150e-01 5.480134e+00
      vertex 1.135667e+00 -2.814150e-01 4.637036e+00
    endloop
  endfacet
  facet normal -6.653659e-01 -4.475205e-01 5.975062e-01
    outer loop
      vertex 1.324945e+00 3.608225e-16 5.058585e+00
      vertex 1.135667e+00 -2.814150e-01 4.637036e+00
      vertex 1.514223e+00 -2.814150e-01 5.058585e+00
    endloop
  endfacet
  facet normal -0.000000e+00 0.000000e+00 1.000000e+00
    outer loop
      vertex 1.324945e+00 3.608225e-16 5.058585e+00
      vertex 1.514223e+00 -2.814150e-01 5.058585e+00
      vertex 1.514223e+00 2.814150e-01 5.058585e+00
    endloop
  endfacet
  facet normal 6.653659e-01 -4.475205e-01 5.975062e-01
    outer loop
      vertex 1.324945e+00 3.608225e-16 5.058585e+00
      vertex 1.514223e+00 2.814150e-01 5.058585e+00
      vertex 1.135667e+00 2.814150e-01 5.480134e+00
    endloop
  endfacet
  facet normal -7.039873e-01 -7.102125e-01 3.705803e-16
    outer loop
      vertex 1.514223e+00 -6.566525e-01 4.847811e+00
      vertex 1.135667e+00 -2.814150e-01 4.637036e+00
      vertex 1.892778e+00 -1.031890e+00 4.637036e+00
    endloop
  endfacet
  facet normal -6.965867e-01 -3.513732e-01 -6.255429e-01
    outer loop
      vertex 1.514223e+00 -6.566525e-01 4.847811e+00
      vertex 1.892778e+00 -1.031890e+00 4.637036e+00
      vertex 1.514223e+00 -1.031890e+00 5.058585e+00
    endloop
  endfacet
  facet normal -1.000000e+00 0.000000e+00 0.000000e+00
    outer loop
      vertex 1.514223e+00 -6.566525e-01 4.847811e+00
      vertex 1.514223e+00 -1.031890e+00 5.058585e+00
      vertex 1.514223e+00 -2.814150e-01 5.058585e+00
    endloop
  endfacet
  facet normal -6.965867e-01 -3.513732e-01 6.255429e-01
    outer loop
      vertex 1.514223e+00 -6.566525e-01 4.847811e+00
      vertex 1.514223e+00 -2.814150e-01 5.058585e+00
      vertex 1.135667e+00 -2.814150e-01 4.637036e+00
    endloop
  endfacet
  facet normal -7.039873e-01 -7.102125e-01 -1.358794e-15
    outer loop
      vertex 4.542668e+00 6.566525e-01 1.896969e+00
      vertex 4.921223e+00 2.814150e-01 2.107744e+00
      vertex 4.164112e+00 1.031890e+00 2.107744e+00
    endloop
  endfacet
  facet normal -6.965867e-01 -3.513732e-01 -6.255429e-01
    outer loop
      vertex 4.542668e+00 6.566525e-01 1.896969e+00
      vertex 4.164112e+00 1.031890e+00 2.107744e+00
      vertex 4.542668e+00 1.031890e+00 1.686195e+00
    endloop
  endfacet
  facet normal -1.000000e+00 0.000000e+00 -0.000000e+00
    outer loop
      vertex 4.542668e+00 6.566525e-01 1.896969e+00
      vertex 4.542668e+00 1.031890e+00 1.686195e+00
      vertex 4.542668e+00 2.814150e-01 1.686195e+00
    endloop
  endfacet
  facet normal -6.965867e-01 -3.513732e-01 6.255429e-01
    outer loop
      vertex 4.542668e+00 6.566525e-01 1.896969e+00
      vertex 4.542668e+00 2.814150e-01 1.686195e+00
      vertex 4.921223e+00 2.814150e-01 2.107744e+00
    endloop
  endfacet
  facet normal 5.063006e-16 -8.317018e-01 -5.552225e-01
    outer loop
      vertex 4.353390e+00 1.313305e+00 1.686195e+00
      vertex 4.164112e+00 1.031890e+00 2.107744e+00
      vertex 4.164112e+00 1.594720e+00 1.264646e+00
    endloop
  endfacet
  facet normal 6.653659e-01 -4.475205e-01 -5.975062e-01
    outer loop
      vertex 4.353390e+00 1.313305e+00 1.686195e+00
      vertex 4.164112e+00 1.594720e+00 1.264646e+00
      vertex 4.542668e+00 1.594720e+00 1.686195e+00
    endloop
  endfacet
  facet normal 0.000000e+00 0.000000e+00 -1.000000e+00
    outer loop
      vertex 4.353390e+00 1.313305e+00 1.686195e+00
      vertex 4.542668e+00 1.594720e+00 1.686195e+00
      vertex 4.542668e+00 1.031890e+00 1.686195e+00
    endloop
  endfacet
  facet normal -6.653659e-01 -4.475205e-01 -5.975062e-01
    outer loop
      vertex 4.353390e+00 1.313305e+00 1.686195e+00
      vertex 4.542668e+00 1.031890e+00 1.686195e+00
      vertex 4.164112e+00 1.031890e+00 2.107744e+00
    endloop
  endfacet
  facet normal 7.039873e-01 -7.102125e-01 -1.111741e-15
    outer loop
      vertex 4.542668e+00 1.969958e+00 1.475421e+00
      vertex 4.164112e+00 1.594720e+00 1.264646e+00
      vertex 4.921223e+00 2.345195e+00 1.264646e+00
    endloop
  endfacet
  facet normal 6.965867e-01 -3.513732e-01 6.255429e-01
    outer loop
      vertex 4.542668e+00 1.969958e+00 1.475421e+00
      vertex 4.921223e+00 2.345195e+00 1.264646e+00
      vertex 4.542668e+00 2.345195e+00 1.686195e+00
    endloop
  endfacet
  facet normal 1.000000e+00 0.000000e+00 -0.000000e+00
    outer loop
      vertex 4.542668e+00 1.969958e+00 1.475421e+00
      vertex 4.542668e+00 2.345195e+00 1.686195e+00
      vertex 4.542668e+00 1.594720e+00 1.686195e+00
    endloop
  endfacet
  facet normal 6.965867e-01 -3.513732e-01 -6.255429e-01
    outer loop
      vertex 4.542668e+00 1.969958e+00 1.475421e+00
      vertex 4.542668e+00 1.594720e+00 1.686195e+00
      vertex 4.164112e+00 1.594720e+00 1.264646e+00
    endloop
  endfacet
  facet normal -7.039873e-01 -7.102125e-01 3.705803e-16
    outer loop
      vertex 1.514223e+00 1.969958e+00 4.847811e+00
      vertex 1.135667e+00 2.345195e+00 4.637036e+00
      vertex 1.892778e+00 1.594720e+00 4.637036e+00
    endloop
  endfacet
  facet normal -6.965867e-01 -3.513732e-01 -6.255429e-01
    outer loop
      vertex 1.514223e+00 1.969958e+00 4.847811e+00
      vertex 1.892778e+00 1.594720e+00 4.637036e+00
      vertex 1.514223e+00 1.594720e+00 5.058585e+00
    endloop
  endfacet
  facet normal -1.000000e+00 0.000000e+00 0.000000e+00
    outer loop
      vertex 1.514223e+00 1.969958e+00 4.847811e+00
      vertex 1.514223e+00 1.594720e+00 5.058585e+00
      vertex 1.514223e+00 2.345195e+00 5.058585e+00
    endloop
  endfacet
  facet normal -6.965867e-01 -3.513732e-01 6.255429e-01
    outer loop
      vertex 1.514223e+00 1.969958e+00 4.847811e+00
      vertex 1.514223e+00 2.345195e+00 5.058585e+00
      vertex 1.135667e+00 2.345195e+00 4.637036e+00
    endloop
  endfacet
  facet normal -7.956152e-16 -8.317018e-01 -5.552225e-01
    outer loop
      vertex 1.703500e+00 1.313305e+00 5.058585e+00
      vertex 1.892778e+00 1.594720e+00 4.637036e+00
      vertex 1.892778e+00 1.031890e+00 5.480134e+00
    endloop
  endfacet
  facet normal 6.653659e-01 -4.475205e-01 -5.975062e-01
    outer loop
      vertex 1.703500e+00 1.313305e+00 5.058585e+00
      vertex 1.892778e+00 1.031890e+00 5.480134e+00
      vertex 1.514223e+00 1.031890e+00 5.058585e+00
    endloop
  endfacet
  facet normal -0.000000e+00 0.000000e+00 -1.000000e+00
    outer loop
      vertex 1.703500e+00 1.313305e+00 5.058585e+00
      vertex 1.514223e+00 1.031890e+00 5.058585e+00
      vertex 1.514223e+00 1.594720e+00 5.058585e+00
    endloop
  endfacet
  facet normal -6.653659e-01 -4.475205e-01 -5.975062e-01
    outer loop
      vertex 1.703500e+00 1.313305e+00 5.058585e+00
      vertex 1.514223e+00 1.594720e+00 5.058585e+00
      vertex 1.892778e+00 1.594720e+00 4.637036e+00
    endloop
  endfacet
  facet normal 7.039873e-01 -7.102125e-01 -6.176338e-16
    outer loop
      vertex 1.514223e+00 6.566525e-01 5.269359e+00
      vertex 1.892778e+00 1.031890e+00 5.480134e+00
      vertex 1.135667e+00 2.814150e-01 5.480134e+00
    endloop
  endfacet
  facet normal 6.965867e-01 -3.513732e-01 6.255429e-01
    outer loop
      vertex 1.514223e+00 6.566525e-01 5.269359e+00
      vertex 1.135667e+00 2.814150e-01 5.480134e+00
      vertex 1.514223e+00 2.814150e-01 5.058585e+00
    endloop
  endfacet
  facet normal 1.000000e+00 0.000000e+00 0.000000e+00
    outer loop
      vertex 1.514223e+00 6.566525e-01 5.269359e+00
      vertex 1.514223e+00 2.814150e-01 5.058585e+00
      vertex 1.514223e+00 1.031890e+00 5.058585e+00
    endloop
  endfacet
  facet normal 6.965867e-01 -3.513732e-01 -6.255429e-01
    outer loop
      vertex 1.514223e+00 6.566525e-01 5.269359e+00
      vertex 1.514223e+00 1.031890e+00 5.058585e+00
      vertex 1.892778e+00 1.031890e+00 5.480134e+00
    endloop
  endfacet
  facet normal -7.039873e-01 -7.102125e-01 1.482321e-15
    outer loop
      vertex 4.542668e+00 6.566525e-01 4.847811e+00
      vertex 4.164112e+00 1.031890e+00 4.637036e+00
      vertex 4.921223e+00 2.814150e-01 4.637036e+00
    endloop
  endfacet
  facet normal -6.965867e-01 -3.513732e-01 -6.255429e-01
    outer loop
      vertex 4.542668e+00 6.566525e-01 4.847811e+00
      vertex 4.921223e+00 2.814150e-01 4.637036e+00
      vertex 4.542668e+00 2.814150e-01 5.058585e+00
    endloop
  endfacet
  facet normal -1.000000e+00 0.000000e+00 0.000000e+00
    outer loop
      vertex 4.542668e+00 6.566525e-01 4.847811e+00
      vertex 4.542668e+00 2.814150e-01 5.058585e+00
      vertex 4.542668e+00 1.031890e+00 5.058585e+00
    endloop
  endfacet
  facet normal -6.965867e-01 -3.513732e-01 6.255429e-01
    outer loop
      vertex 4.542668e+00 6.566525e-01 4.847811e+00
      vertex 4.542668e+00 1.031890e+00 5.058585e+00
      vertex 4.164112e+00 1.031890e+00 4.637036e+00
    endloop
  endfacet
  facet normal -1.301916e-15 -8.317018e-01 -5.552225e-01
    outer loop
      vertex 4.731945e+00 3.330669e-16 5.058585e+00
      vertex 4.921223e+00 2.814150e-01 4.637036e+00
      vertex 4.921223e+00 -2.814150e-01 5.480134e+00
    endloop
  endfacet
  facet normal 6.653659e-01 -4.475205e-01 -5.975062e-01
    outer loop
      vertex 4.731945e+00 3.330669e-16 5.058585e+00
      vertex 4.921223e+00 -2.814150e-01 5.480134e+00
      vertex 4.542668e+00 -2.814150e-01 5.058585e+00
    endloop
  endfacet
  facet normal -0.000000e+00 0.000000e+00 -1.000000e+00
    outer loop
      vertex 4.731945e+00 3.330669e-16 5.058585e+00
      vertex 4.542668e+00 -2.814150e-01 5.058585e+00
      vertex 4.542668e+00 2.814150e-01 5.058585e+00
    endloop
  endfacet
  facet normal -6.653659e-01 -4.475205e-01 -5.975062e-01
    outer loop
      vertex 4.731945e+00 3.330669e-16 5.058585e+00
      vertex 4.542668e+00 2.814150e-01 5.058585e+00
      vertex 4.921223e+00 2.814150e-01 4.637036e+00
    endloop
  endfacet
  facet normal 7.039873e-01 -7.102125e-01 1.111741e-15
    outer loop
      vertex 4.542668e+00 -6.566525e-01 5.269359e+00
      vertex 4.921223e+00 -2.814150e-01 5.480134e+00
      vertex 4.164112e+00 -1.031890e+00 5.480134e+00
    endloop
  endfacet
  facet normal 6.965867e-01 -3.513732e-01 6.255429e-01
    outer loop
      vertex 4.542668e+00 -6.566525e-01 5.269359e+00
      vertex 4.164112e+00 -1.031890e+00 5.480134e+00
      vertex 4.542668e+00 -1.031890e+00 5.058585e+00
    endloop
  endfacet
  facet normal 1.000000e+00 0.000000e+00 0.000000e+00
    outer loop
      vertex 4.542668e+00 -6.566525e-01 5.269359e+00
      vertex 4.542668e+00 -1.031890e+00 5.058585e+00
      vertex 4.542668e+00 -2.814150e-01 5.058585e+00
    endloop
  endfacet
  facet normal 6.965867e-01 -3.513732e-01 -6.255429e-01
    outer loop
      vertex 4.542668e+00 -6.566525e-01 5.269359e+00
      vertex 4.542668e+00 -2.814150e-01 5.058585e+00
      vertex 4.921223e+00 -2.814150e-01 5.480134e+00
    endloop
  endfacet
  facet normal 7.039873e-01 -7.102125e-01 1.111741e-15
    outer loop
      vertex 4.542668e+00 1.969958e+00 5.269359e+00
      vertex 4.921223e+00 2.345195e+00 5.480134e+00
      vertex 4.164112e+00 1.594720e+00 5.480134e+00
    endloop
  endfacet
  facet normal 6.965867e-01 -3.513732e-01 6.255429e-01
    outer loop
      vertex 4.542668e+00 1.969958e+00 5.269359e+00
      vertex 4.164112e+00 1.594720e+00 5.480134e+00
      vertex 4.542668e+00 1.594720e+00 5.058585e+00
    endloop
  endfacet
  facet normal 1.000000e+00 0.000000e+00 0.000000e+00
    outer loop
      vertex 4.542668e+00 1.969958e+00 5.269359e+00
      vertex 4.542668e+00 1.594720e+00 5.058585e+00
      vertex 4.542668e+00 2.345195e+00 5.058585e+00
    endloop
  endfacet
  facet normal 6.965867e-01 -3.513732e-01 -6.255429e-01
    outer loop
      vertex 4.542668e+00 1.969958e+00 5.269359e+00
      vertex 4.542668e+00 2.345195e+00 5.058585e+00
      vertex 4.921223e+00 2.345195e+00 5.480134e+00
    endloop
  endfacet
  facet normal -1.808216e-15 -8.317018e-01 5.552225e-01
    outer loop
      vertex 4.353390e+00 1.313305e+00 5.058585e+00
      vertex 4.164112e+00 1.594720e+00 5.480134e+00
      vertex 4.164112e+00 1.031890e+00 4.637036e+00
    endloop
  endfacet
  facet normal -6.653659e-01 -4.475205e-01 5.975062e-01
    outer loop
      vertex 4.353390e+00 1.313305e+00 5.058585e+00
      vertex 4.164112e+00 1.031890e+00 4.637036e+00
      vertex 4.542668e+00 1.031890e+00 5.058585e+00
    endloop
  endfacet
  facet normal -0.000000e+00 0.000000e+00 1.000000e+00
    outer loop
      vertex 4.353390e+00 1.313305e+00 5.058585e+00
      vertex 4.542668e+00 1.031890e+00 5.058585e+00
      vertex 4.542668e+00 1.594720e+00 5.058585e+00
    endloop
  endfacet
  facet normal 6.653659e-01 -4.475205e-01 5.975062e-01
    outer loop
      vertex 4.353390e+00 1.313305e+00 5.058585e+00
      vertex 4.542668e+00 1.594720e+00 5.058585e+00
      vertex 4.164112e+00 1.594720e+00 5.480134e+00
    endloop
  endfacet
  facet normal -7.039873e-01 -7.102125e-01 1.482321e-15
    outer loop
      vertex 4.542668e+00 6.566525e-01 4.847811e+00
      vertex 4.164112e+00 1.031890e+00 4.637036e+00
      vertex 4.921223e+00 2.814150e-01 4.637036e+00
    endloop
  endfacet
  facet normal -6.965867e-01 -3.513732e-01 -6.255429e-01
    outer loop
      vertex 4.542668e+00 6.566525e-01 4.847811e+00
      vertex 4.921223e+00 2.814150e-01 4.637036e+00
      vertex 4.542668e+00 2.814150e-01 5.058585e+00
    endloop
  endfacet
  facet normal -1.000000e+00 0.000000e+00 0.000000e+00
    outer loop
      vertex 4.542668e+00 6.566525e-01 4.847811e+00
      vertex 4.542668e+00 2.814150e-01 5.058585e+00
      vertex 4.542668e+00 1.031890e+00 5.058585e+00
    endloop
  endfacet
  facet normal -6.965867e-01 -3.513732e-01 6.255429e-01
    outer loop
      vertex 4.542668e+00 6.566525e-01 4.847811e+00
      vertex 4.542668e+00 1.031890e+00 5.058585e+00
      vertex 4.164112e+00 1.031890e+00 4.637036e+00
    endloop
  endfacet
  facet normal 2.405015e-01 -9.706488e-01 2.110303e-17
    outer loop
      vertex 1.387779e-16 4.857226e-17 -1.665335e-16
      vertex 3.785556e-01 9.379624e-02 4.215488e-01
      vertex -3.785556e-01 -9.379624e-02 4.215488e-01
    endloop
  endfacet
  facet normal 2.405015e-01 -9.706488e-01 0.000000e+00
    outer loop
      vertex 1.387779e-16 4.857226e-17 -1.665335e-16
      vertex -3.785556e-01 -9.379624e-02 4.215488e-01
      vertex -3.785556e-01 -9.379624e-02 -4.215488e-01
    endloop
  endfacet
  facet normal 2.405015e-01 -9.706488e-01 4.220606e-17
    outer loop
      vertex 1.387779e-16 4.857226e-17 -1.665335e-16
      vertex -3.785556e-01 -9.379624e-02 -4.215488e-01
      vertex 3.785556e-01 9.379624e-02 -4.215488e-01
    endloop
  endfacet
  facet normal 2.405015e-01 -9.706488e-01 6.330909e-17
    outer loop
      vertex 1.387779e-16 4.857226e-17 -1.665335e-16
      vertex 3.785556e-01 9.379624e-02 -4.215488e-01
      vertex 3.785556e-01 9.379624e-02 4.215488e-01
    endloop
  endfacet
  facet normal 2.405015e-01 -9.706488e-01 -2.532364e-16
    outer loop
      vertex 6.056890e+00 2.626610e+00 6.744780e+00
      vertex 5.678334e+00 2.532814e+00 6.323231e+00
      vertex 6.435446e+00 2.720406e+00 6.323231e+00
    endloop
  endfacet
  facet normal 2.405015e-01 -9.706488e-01 2.532364e-16
    outer loop
      vertex 6.056890e+00 2.626610e+00 6.744780e+00
      vertex 6.435446e+00 2.720406e+00 6.323231e+00
      vertex 6.435446e+00 2.720406e+00 7.166329e+00
    endloop
  endfacet
  facet normal 2.405015e-01 -9.706488e-01 5.064728e-16
    outer loop
      vertex 6.056890e+00 2.626610e+00 6.744780e+00
      vertex 6.435446e+00 2.720406e+00 7.166329e+00
      vertex 5.678334e+00 2.532814e+00 7.166329e+00
    endloop
  endfacet
  facet normal 2.405015e-01 -9.706488e-01 0.000000e+00
    outer loop
      vertex 6.056890e+00 2.626610e+00 6.744780e+00
      vertex 5.678334e+00 2.532814e+00 7.166329e+00
      vertex 5.678334e+00 2.532814e+00 6.323231e+00
    endloop
  endfacet
endsolid surface_model
