solid surface_model
  facet normal -5.183109e-01 -6.047122e-01 -6.047122e-01
    outer loop
      vertex 1.668645e+00 1.668645e+00 1.668645e+00
      vertex 2.919263e-16 1.906994e+00 2.860525e+00
      vertex 2.919263e-16 2.860525e+00 1.906994e+00
    endloop
  endfacet
  facet normal -4.082102e-01 -4.082102e-01 -8.165347e-01
    outer loop
      vertex 1.668645e+00 1.668645e+00 1.668645e+00
      vertex 2.919263e-16 2.860525e+00 1.906994e+00
      vertex 4.767652e-01 3.337290e+00 1.430296e+00
    endloop
  endfacet
  facet normal -6.047122e-01 -5.183109e-01 -6.047122e-01
    outer loop
      vertex 1.668645e+00 1.668645e+00 1.668645e+00
      vertex 4.767652e-01 3.337290e+00 1.430296e+00
      vertex 1.430296e+00 3.337290e+00 4.767652e-01
    endloop
  endfacet
  facet normal -8.165347e-01 -4.082102e-01 -4.082102e-01
    outer loop
      vertex 1.668645e+00 1.668645e+00 1.668645e+00
      vertex 1.430296e+00 3.337290e+00 4.767652e-01
      vertex 1.906994e+00 2.860525e+00 0.000000e+00
    endloop
  endfacet
  facet normal -6.047122e-01 -6.047122e-01 -5.183109e-01
    outer loop
      vertex 1.668645e+00 1.668645e+00 1.668645e+00
      vertex 1.906994e+00 2.860525e+00 0.000000e+00
      vertex 2.860525e+00 1.906994e+00 0.000000e+00
    endloop
  endfacet
  facet normal -4.082102e-01 -8.165347e-01 -4.082102e-01
    outer loop
      vertex 1.668645e+00 1.668645e+00 1.668645e+00
      vertex 2.860525e+00 1.906994e+00 0.000000e+00
      vertex 3.337290e+00 1.430296e+00 4.767652e-01
    endloop
  endfacet
  facet normal -5.183109e-01 -6.047122e-01 -6.047122e-01
    outer loop
      vertex 1.668645e+00 1.668645e+00 1.668645e+00
      vertex 3.337290e+00 1.430296e+00 4.767652e-01
      vertex 3.337290e+00 4.767652e-01 1.430296e+00
    endloop
  endfacet
  facet normal -4.082102e-01 -4.082102e-01 -8.165347e-01
    outer loop
      vertex 1.668645e+00 1.668645e+00 1.668645e+00
      vertex 3.337290e+00 4.767652e-01 1.430296e+00
      vertex 2.860525e+00 1.167697e-16 1.906994e+00
    endloop
  endfacet
  facet normal -6.047122e-01 -5.183109e-01 -6.047122e-01
    outer loop
      vertex 1.668645e+00 1.668645e+00 1.668645e+00
      vertex 2.860525e+00 1.167697e-16 1.906994e+00
      vertex 1.906994e+00 1.751566e-16 2.860525e+00
    endloop
  endfacet
  facet normal -8.165347e-01 -4.082102e-01 -4.082102e-01
    outer loop
      vertex 1.668645e+00 1.668645e+00 1.668645e+00
      vertex 1.906994e+00 1.751566e-16 2.860525e+00
      vertex 1.430296e+00 4.767652e-01 3.337290e+00
    endloop
  endfacet
  facet normal -6.047122e-01 -6.047122e-01 -5.183109e-01
    outer loop
      vertex 1.668645e+00 1.668645e+00 1.668645e+00
      vertex 1.430296e+00 4.767652e-01 3.337290e+00
      vertex 4.767652e-01 1.430296e+00 3.337290e+00
    endloop
  endfacet
  facet normal -4.082102e-01 -8.165347e-01 -4.082102e-01
    outer loop
      vertex 1.668645e+00 1.668645e+00 1.668645e+00
      vertex 4.767652e-01 1.430296e+00 3.337290e+00
      vertex 2.919263e-16 1.906994e+00 2.860525e+00
    endloop
  endfacet
  facet normal 5.183109e-01 -6.047122e-01 -6.047122e-01
    outer loop
      vertex -1.668645e+00 1.668645e+00 1.668645e+00
      vertex 2.919263e-16 2.860525e+00 1.906994e+00
      vertex 2.919263e-16 1.906994e+00 2.860525e+00
    endloop
  endfacet
  facet normal 4.082102e-01 -8.165347e-01 -4.082102e-01
    outer loop
      vertex -1.668645e+00 1.668645e+00 1.668645e+00
      vertex 2.919263e-16 1.906994e+00 2.860525e+00
      vertex -4.767652e-01 1.430296e+00 3.337290e+00
    endloop
  endfacet
  facet normal 6.047122e-01 -6.047122e-01 -5.183109e-01
    outer loop
      vertex -1.668645e+00 1.668645e+00 1.668645e+00
      vertex -4.767652e-01 1.430296e+00 3.337290e+00
      vertex -1.430296e+00 4.767652e-01 3.337290e+00
    endloop
  endfacet
  facet normal 8.165347e-01 -4.082102e-01 -4.082102e-01
    outer loop
      vertex -1.668645e+00 1.668645e+00 1.668645e+00
      vertex -1.430296e+00 4.767652e-01 3.337290e+00
      vertex -1.906994e+00 1.751566e-16 2.860525e+00
    endloop
  endfacet
  facet normal 6.047122e-01 -5.183109e-01 -6.047122e-01
    outer loop
      vertex -1.668645e+00 1.668645e+00 1.668645e+00
      vertex -1.906994e+00 1.751566e-16 2.860525e+00
      vertex -2.860525e+00 1.167697e-16 1.906994e+00
    endloop
  endfacet
  facet normal 4.082102e-01 -4.082102e-01 -8.165347e-01
    outer loop
      vertex -1.668645e+00 1.668645e+00 1.668645e+00
      vertex -2.860525e+00 1.167697e-16 1.906994e+00
      vertex -3.337290e+00 4.767652e-01 1.430296e+00
    endloop
  endfacet
  facet normal 5.183109e-01 -6.047122e-01 -6.047122e-01
    outer loop
      vertex -1.668645e+00 1.668645e+00 1.668645e+00
      vertex -3.337290e+00 4.767652e-01 1.430296e+00
      vertex -3.337290e+00 1.430296e+00 4.767652e-01
    endloop
  endfacet
  facet normal 4.082102e-01 -8.165347e-01 -4.082102e-01
    outer loop
      vertex -1.668645e+00 1.668645e+00 1.668645e+00
      vertex -3.337290e+00 1.430296e+00 4.767652e-01
      vertex -2.860525e+00 1.906994e+00 0.000000e+00
    endloop
  endfacet
  facet normal 6.047122e-01 -6.047122e-01 -5.183109e-01
    outer loop
      vertex -1.668645e+00 1.668645e+00 1.668645e+00
      vertex -2.860525e+00 1.906994e+00 0.000000e+00
      vertex -1.906994e+00 2.860525e+00 0.000000e+00
    endloop
  endfacet
  facet normal 8.165347e-01 -4.082102e-01 -4.082102e-01
    outer loop
      vertex -1.668645e+00 1.668645e+00 1.668645e+00
      vertex -1.906994e+00 2.860525e+00 0.000000e+00
      vertex -1.430296e+00 3.337290e+00 4.767652e-01
    endloop
  endfacet
  facet normal 6.047122e-01 -5.183109e-01 -6.047122e-01
    outer loop
      vertex -1.668645e+00 1.668645e+00 1.668645e+00
      vertex -1.430296e+00 3.337290e+00 4.767652e-01
      vertex -4.767652e-01 3.337290e+00 1.430296e+00
    endloop
  endfacet
  facet normal 4.082102e-01 -4.082102e-01 -8.165347e-01
    outer loop
      vertex -1.668645e+00 1.668645e+00 1.668645e+00
      vertex -4.767652e-01 3.337290e+00 1.430296e+00
      vertex 2.919263e-16 2.860525e+00 1.906994e+00
    endloop
  endfacet
  facet normal -6.047122e-01 5.183109e-01 -6.047122e-01
    outer loop
      vertex 1.668645e+00 -1.668645e+00 1.668645e+00
      vertex 1.906994e+00 1.751566e-16 2.860525e+00
      vertex 2.860525e+00 1.167697e-16 1.906994e+00
    endloop
  endfacet
  facet normal -4.082102e-01 4.082102e-01 -8.165347e-01
    outer loop
      vertex 1.668645e+00 -1.668645e+00 1.668645e+00
      vertex 2.860525e+00 1.167697e-16 1.906994e+00
      vertex 3.337290e+00 -4.767652e-01 1.430296e+00
    endloop
  endfacet
  facet normal -5.183109e-01 6.047122e-01 -6.047122e-01
    outer loop
      vertex 1.668645e+00 -1.668645e+00 1.668645e+00
      vertex 3.337290e+00 -4.767652e-01 1.430296e+00
      vertex 3.337290e+00 -1.430296e+00 4.767652e-01
    endloop
  endfacet
  facet normal -4.082102e-01 8.165347e-01 -4.082102e-01
    outer loop
      vertex 1.668645e+00 -1.668645e+00 1.668645e+00
      vertex 3.337290e+00 -1.430296e+00 4.767652e-01
      vertex 2.860525e+00 -1.906994e+00 0.000000e+00
    endloop
  endfacet
  facet normal -6.047122e-01 6.047122e-01 -5.183109e-01
    outer loop
      vertex 1.668645e+00 -1.668645e+00 1.668645e+00
      vertex 2.860525e+00 -1.906994e+00 0.000000e+00
      vertex 1.906994e+00 -2.860525e+00 0.000000e+00
    endloop
  endfacet
  facet normal -8.165347e-01 4.082102e-01 -4.082102e-01
    outer loop
      vertex 1.668645e+00 -1.668645e+00 1.668645e+00
      vertex 1.906994e+00 -2.860525e+00 0.000000e+00
      vertex 1.430296e+00 -3.337290e+00 4.767652e-01
    endloop
  endfacet
  facet normal -6.047122e-01 5.183109e-01 -6.047122e-01
    outer loop
      vertex 1.668645e+00 -1.668645e+00 1.668645e+00
      vertex 1.430296e+00 -3.337290e+00 4.767652e-01
      vertex 4.767652e-01 -3.337290e+00 1.430296e+00
    endloop
  endfacet
  facet normal -4.082102e-01 4.082102e-01 -8.165347e-01
    outer loop
      vertex 1.668645e+00 -1.668645e+00 1.668645e+00
      vertex 4.767652e-01 -3.337290e+00 1.430296e+00
      vertex -5.838690e-17 -2.860525e+00 1.906994e+00
    endloop
  endfacet
  facet normal -5.183109e-01 6.047122e-01 -6.047122e-01
    outer loop
      vertex 1.668645e+00 -1.668645e+00 1.668645e+00
      vertex -5.838690e-17 -2.860525e+00 1.906994e+00
      vertex 5.838690e-17 -1.906994e+00 2.860525e+00
    endloop
  endfacet
  facet normal -4.082102e-01 8.165347e-01 -4.082102e-01
    outer loop
      vertex 1.668645e+00 -1.668645e+00 1.668645e+00
      vertex 5.838690e-17 -1.906994e+00 2.860525e+00
      vertex 4.767652e-01 -1.430296e+00 3.337290e+00
    endloop
  endfacet
  facet normal -6.047122e-01 6.047122e-01 -5.183109e-01
    outer loop
      vertex 1.668645e+00 -1.668645e+00 1.668645e+00
      vertex 4.767652e-01 -1.430296e+00 3.337290e+00
      vertex 1.430296e+00 -4.767652e-01 3.337290e+00
    endloop
  endfacet
  facet normal -8.165347e-01 4.082102e-01 -4.082102e-01
    outer loop
      vertex 1.668645e+00 -1.668645e+00 1.668645e+00
      vertex 1.430296e+00 -4.767652e-01 3.337290e+00
      vertex 1.906994e+00 1.751566e-16 2.860525e+00
    endloop
  endfacet
  facet normal -6.047122e-01 -6.047122e-01 5.183109e-01
    outer loop
      vertex 1.668645e+00 1.668645e+00 -1.668645e+00
      vertex 2.860525e+00 1.906994e+00 0.000000e+00
      vertex 1.906994e+00 2.860525e+00 0.000000e+00
    endloop
  endfacet
  facet normal -8.165347e-01 -4.082102e-01 4.082102e-01
    outer loop
      vertex 1.668645e+00 1.668645e+00 -1.668645e+00
      vertex 1.906994e+00 2.860525e+00 0.000000e+00
      vertex 1.430296e+00 3.337290e+00 -4.767652e-01
    endloop
  endfacet
  facet normal -6.047122e-01 -5.183109e-01 6.047122e-01
    outer loop
      vertex 1.668645e+00 1.668645e+00 -1.668645e+00
      vertex 1.430296e+00 3.337290e+00 -4.767652e-01
      vertex 4.767652e-01 3.337290e+00 -1.430296e+00
    endloop
  endfacet
  facet normal -4.082102e-01 -4.082102e-01 8.165347e-01
    outer loop
      vertex 1.668645e+00 1.668645e+00 -1.668645e+00
      vertex 4.767652e-01 3.337290e+00 -1.430296e+00
      vertex 5.838690e-17 2.860525e+00 -1.906994e+00
    endloop
  endfacet
  facet normal -5.183109e-01 -6.047122e-01 6.047122e-01
    outer loop
      vertex 1.668645e+00 1.668645e+00 -1.668645e+00
      vertex 5.838690e-17 2.860525e+00 -1.906994e+00
      vertex -5.838690e-17 1.906994e+00 -2.860525e+00
    endloop
  endfacet
  facet normal -4.082102e-01 -8.165347e-01 4.082102e-01
    outer loop
      vertex 1.668645e+00 1.668645e+00 -1.668645e+00
      vertex -5.838690e-17 1.906994e+00 -2.860525e+00
      vertex 4.767652e-01 1.430296e+00 -3.337290e+00
    endloop
  endfacet
  facet normal -6.047122e-01 -6.047122e-01 5.183109e-01
    outer loop
      vertex 1.668645e+00 1.668645e+00 -1.668645e+00
      vertex 4.767652e-01 1.430296e+00 -3.337290e+00
      vertex 1.430296e+00 4.767652e-01 -3.337290e+00
    endloop
  endfacet
  facet normal -8.165347e-01 -4.082102e-01 4.082102e-01
    outer loop
      vertex 1.668645e+00 1.668645e+00 -1.668645e+00
      vertex 1.430296e+00 4.767652e-01 -3.337290e+00
      vertex 1.906994e+00 -1.751566e-16 -2.860525e+00
    endloop
  endfacet
  facet normal -6.047122e-01 -5.183109e-01 6.047122e-01
    outer loop
      vertex 1.668645e+00 1.668645e+00 -1.668645e+00
      vertex 1.906994e+00 -1.751566e-16 -2.860525e+00
      vertex 2.860525e+00 -1.167697e-16 -1.906994e+00
    endloop
  endfacet
  facet normal -4.082102e-01 -4.082102e-01 8.165347e-01
    outer loop
      vertex 1.668645e+00 1.668645e+00 -1.668645e+00
      vertex 2.860525e+00 -1.167697e-16 -1.906994e+00
      vertex 3.337290e+00 4.767652e-01 -1.430296e+00
    endloop
  endfacet
  facet normal -5.183109e-01 -6.047122e-01 6.047122e-01
    outer loop
      vertex 1.668645e+00 1.668645e+00 -1.668645e+00
      vertex 3.337290e+00 4.767652e-01 -1.430296e+00
      vertex 3.337290e+00 1.430296e+00 -4.767652e-01
    endloop
  endfacet
  facet normal -4.082102e-01 -8.165347e-01 4.082102e-01
    outer loop
      vertex 1.668645e+00 1.668645e+00 -1.668645e+00
      vertex 3.337290e+00 1.430296e+00 -4.767652e-01
      vertex 2.860525e+00 1.906994e+00 0.000000e+00
    endloop
  endfacet
  facet normal 5.183109e-01 -6.047122e-01 6.047122e-01
    outer loop
      vertex -1.668645e+00 1.668645e+00 5.005935e+00
      vertex 3.503132e-16 1.906994e+00 3.814055e+00
      vertex 4.670871e-16 2.860525e+00 4.767586e+00
    endloop
  endfacet
  facet normal 4.082102e-01 -4.082102e-01 8.165347e-01
    outer loop
      vertex -1.668645e+00 1.668645e+00 5.005935e+00
      vertex 4.670871e-16 2.860525e+00 4.767586e+00
      vertex -4.767652e-01 3.337290e+00 5.244284e+00
    endloop
  endfacet
  facet normal 6.047122e-01 -5.183109e-01 6.047122e-01
    outer loop
      vertex -1.668645e+00 1.668645e+00 5.005935e+00
      vertex -4.767652e-01 3.337290e+00 5.244284e+00
      vertex -1.430296e+00 3.337290e+00 6.197815e+00
    endloop
  endfacet
  facet normal 8.165347e-01 -4.082102e-01 4.082102e-01
    outer loop
      vertex -1.668645e+00 1.668645e+00 5.005935e+00
      vertex -1.430296e+00 3.337290e+00 6.197815e+00
      vertex -1.906994e+00 2.860525e+00 6.674580e+00
    endloop
  endfacet
  facet normal 6.047122e-01 -6.047122e-01 5.183109e-01
    outer loop
      vertex -1.668645e+00 1.668645e+00 5.005935e+00
      vertex -1.906994e+00 2.860525e+00 6.674580e+00
      vertex -2.860525e+00 1.906994e+00 6.674580e+00
    endloop
  endfacet
  facet normal 4.082102e-01 -8.165347e-01 4.082102e-01
    outer loop
      vertex -1.668645e+00 1.668645e+00 5.005935e+00
      vertex -2.860525e+00 1.906994e+00 6.674580e+00
      vertex -3.337290e+00 1.430296e+00 6.197815e+00
    endloop
  endfacet
  facet normal 5.183109e-01 -6.047122e-01 6.047122e-01
    outer loop
      vertex -1.668645e+00 1.668645e+00 5.005935e+00
      vertex -3.337290e+00 1.430296e+00 6.197815e+00
      vertex -3.337290e+00 4.767652e-01 5.244284e+00
    endloop
  endfacet
  facet normal 4.082102e-01 -4.082102e-01 8.165347e-01
    outer loop
      vertex -1.668645e+00 1.668645e+00 5.005935e+00
      vertex -3.337290e+00 4.767652e-01 5.244284e+00
      vertex -2.860525e+00 2.919304e-16 4.767586e+00
    endloop
  endfacet
  facet normal 6.047122e-01 -5.183109e-01 6.047122e-01
    outer loop
      vertex -1.668645e+00 1.668645e+00 5.005935e+00
      vertex -2.860525e+00 2.919304e-16 4.767586e+00
      vertex -1.906994e+00 2.335435e-16 3.814055e+00
    endloop
  endfacet
  facet normal 8.165347e-01 -4.082102e-01 4.082102e-01
    outer loop
      vertex -1.668645e+00 1.668645e+00 5.005935e+00
      vertex -1.906994e+00 2.335435e-16 3.814055e+00
      vertex -1.430296e+00 4.767652e-01 3.337290e+00
    endloop
  endfacet
  facet normal 6.047122e-01 -6.047122e-01 5.183109e-01
    outer loop
      vertex -1.668645e+00 1.668645e+00 5.005935e+00
      vertex -1.430296e+00 4.767652e-01 3.337290e+00
      vertex -4.767652e-01 1.430296e+00 3.337290e+00
    endloop
  endfacet
  facet normal 4.082102e-01 -8.165347e-01 4.082102e-01
    outer loop
      vertex -1.668645e+00 1.668645e+00 5.005935e+00
      vertex -4.767652e-01 1.430296e+00 3.337290e+00
      vertex 3.503132e-16 1.906994e+00 3.814055e+00
    endloop
  endfacet
  facet normal -5.183109e-01 -6.047122e-01 6.047122e-01
    outer loop
      vertex 1.668645e+00 1.668645e+00 5.005935e+00
      vertex 4.670871e-16 2.860525e+00 4.767586e+00
      vertex 3.503132e-16 1.906994e+00 3.814055e+00
    endloop
  endfacet
  facet normal -4.082102e-01 -8.165347e-01 4.082102e-01
    outer loop
      vertex 1.668645e+00 1.668645e+00 5.005935e+00
      vertex 3.503132e-16 1.906994e+00 3.814055e+00
      vertex 4.767652e-01 1.430296e+00 3.337290e+00
    endloop
  endfacet
  facet normal -6.047122e-01 -6.047122e-01 5.183109e-01
    outer loop
      vertex 1.668645e+00 1.668645e+00 5.005935e+00
      vertex 4.767652e-01 1.430296e+00 3.337290e+00
      vertex 1.430296e+00 4.767652e-01 3.337290e+00
    endloop
  endfacet
  facet normal -8.165347e-01 -4.082102e-01 4.082102e-01
    outer loop
      vertex 1.668645e+00 1.668645e+00 5.005935e+00
      vertex 1.430296e+00 4.767652e-01 3.337290e+00
      vertex 1.906994e+00 2.335435e-16 3.814055e+00
    endloop
  endfacet
  facet normal -6.047122e-01 -5.183109e-01 6.047122e-01
    outer loop
      vertex 1.668645e+00 1.668645e+00 5.005935e+00
      vertex 1.906994e+00 2.335435e-16 3.814055e+00
      vertex 2.860525e+00 2.919304e-16 4.767586e+00
    endloop
  endfacet
  facet normal -4.082102e-01 -4.082102e-01 8.165347e-01
    outer loop
      vertex 1.668645e+00 1.668645e+00 5.005935e+00
      vertex 2.860525e+00 2.919304e-16 4.767586e+00
      vertex 3.337290e+00 4.767652e-01 5.244284e+00
    endloop
  endfacet
  facet normal -5.183109e-01 -6.047122e-01 6.047122e-01
    outer loop
      vertex 1.668645e+00 1.668645e+00 5.005935e+00
      vertex 3.337290e+00 4.767652e-01 5.244284e+00
      vertex 3.337290e+00 1.430296e+00 6.197815e+00
    endloop
  endfacet
  facet normal -4.082102e-01 -8.165347e-01 4.082102e-01
    outer loop
      vertex 1.668645e+00 1.668645e+00 5.005935e+00
      vertex 3.337290e+00 1.430296e+00 6.197815e+00
      vertex 2.860525e+00 1.906994e+00 6.674580e+00
    endloop
  endfacet
  facet normal -6.047122e-01 -6.047122e-01 5.183109e-01
    outer loop
      vertex 1.668645e+00 1.668645e+00 5.005935e+00
      vertex 2.860525e+00 1.906994e+00 6.674580e+00
      vertex 1.906994e+00 2.860525e+00 6.674580e+00
    endloop
  endfacet
  facet normal -8.165347e-01 -4.082102e-01 4.082102e-01
    outer loop
      vertex 1.668645e+00 1.668645e+00 5.005935e+00
      vertex 1.906994e+00 2.860525e+00 6.674580e+00
      vertex 1.430296e+00 3.337290e+00 6.197815e+00
    endloop
  endfacet
  facet normal -6.047122e-01 -5.183109e-01 6.047122e-01
    outer loop
      vertex 1.668645e+00 1.668645e+00 5.005935e+00
      vertex 1.430296e+00 3.337290e+00 6.197815e+00
      vertex 4.767652e-01 3.337290e+00 5.244284e+00
    endloop
  endfacet
  facet normal -4.082102e-01 -4.082102e-01 8.165347e-01
    outer loop
      vertex 1.668645e+00 1.668645e+00 5.005935e+00
      vertex 4.767652e-01 3.337290e+00 5.244284e+00
      vertex 4.670871e-16 2.860525e+00 4.767586e+00
    endloop
  endfacet
  facet normal -5.183109e-01 6.047122e-01 -6.047122e-01
    outer loop
      vertex 1.668645e+00 5.005935e+00 1.668645e+00
      vertex 3.503132e-16 3.814055e+00 1.906994e+00
      vertex 4.670871e-16 4.767586e+00 2.860525e+00
    endloop
  endfacet
  facet normal -4.082102e-01 8.165347e-01 -4.082102e-01
    outer loop
      vertex 1.668645e+00 5.005935e+00 1.668645e+00
      vertex 4.670871e-16 4.767586e+00 2.860525e+00
      vertex 4.767652e-01 5.244284e+00 3.337290e+00
    endloop
  endfacet
  facet normal -6.047122e-01 6.047122e-01 -5.183109e-01
    outer loop
      vertex 1.668645e+00 5.005935e+00 1.668645e+00
      vertex 4.767652e-01 5.244284e+00 3.337290e+00
      vertex 1.430296e+00 6.197815e+00 3.337290e+00
    endloop
  endfacet
  facet normal -8.165347e-01 4.082102e-01 -4.082102e-01
    outer loop
      vertex 1.668645e+00 5.005935e+00 1.668645e+00
      vertex 1.430296e+00 6.197815e+00 3.337290e+00
      vertex 1.906994e+00 6.674580e+00 2.860525e+00
    endloop
  endfacet
  facet normal -6.047122e-01 5.183109e-01 -6.047122e-01
    outer loop
      vertex 1.668645e+00 5.005935e+00 1.668645e+00
      vertex 1.906994e+00 6.674580e+00 2.860525e+00
      vertex 2.860525e+00 6.674580e+00 1.906994e+00
    endloop
  endfacet
  facet normal -4.082102e-01 4.082102e-01 -8.165347e-01
    outer loop
      vertex 1.668645e+00 5.005935e+00 1.668645e+00
      vertex 2.860525e+00 6.674580e+00 1.906994e+00
      vertex 3.337290e+00 6.197815e+00 1.430296e+00
    endloop
  endfacet
  facet normal -5.183109e-01 6.047122e-01 -6.047122e-01
    outer loop
      vertex 1.668645e+00 5.005935e+00 1.668645e+00
      vertex 3.337290e+00 6.197815e+00 1.430296e+00
      vertex 3.337290e+00 5.244284e+00 4.767652e-01
    endloop
  endfacet
  facet normal -4.082102e-01 8.165347e-01 -4.082102e-01
    outer loop
      vertex 1.668645e+00 5.005935e+00 1.668645e+00
      vertex 3.337290e+00 5.244284e+00 4.767652e-01
      vertex 2.860525e+00 4.767586e+00 0.000000e+00
    endloop
  endfacet
  facet normal -6.047122e-01 6.047122e-01 -5.183109e-01
    outer loop
      vertex 1.668645e+00 5.005935e+00 1.668645e+00
      vertex 2.860525e+00 4.767586e+00 0.000000e+00
      vertex 1.906994e+00 3.814055e+00 0.000000e+00
    endloop
  endfacet
  facet normal -8.165347e-01 4.082102e-01 -4.082102e-01
    outer loop
      vertex 1.668645e+00 5.005935e+00 1.668645e+00
      vertex 1.906994e+00 3.814055e+00 0.000000e+00
      vertex 1.430296e+00 3.337290e+00 4.767652e-01
    endloop
  endfacet
  facet normal -6.047122e-01 5.183109e-01 -6.047122e-01
    outer loop
      vertex 1.668645e+00 5.005935e+00 1.668645e+00
      vertex 1.430296e+00 3.337290e+00 4.767652e-01
      vertex 4.767652e-01 3.337290e+00 1.430296e+00
    endloop
  endfacet
  facet normal -4.082102e-01 4.082102e-01 -8.165347e-01
    outer loop
      vertex 1.668645e+00 5.005935e+00 1.668645e+00
      vertex 4.767652e-01 3.337290e+00 1.430296e+00
      vertex 3.503132e-16 3.814055e+00 1.906994e+00
    endloop
  endfacet
  facet normal 5.183109e-01 6.047122e-01 -6.047122e-01
    outer loop
      vertex -1.668645e+00 5.005935e+00 1.668645e+00
      vertex 4.670871e-16 4.767586e+00 2.860525e+00
      vertex 3.503132e-16 3.814055e+00 1.906994e+00
    endloop
  endfacet
  facet normal 4.082102e-01 4.082102e-01 -8.165347e-01
    outer loop
      vertex -1.668645e+00 5.005935e+00 1.668645e+00
      vertex 3.503132e-16 3.814055e+00 1.906994e+00
      vertex -4.767652e-01 3.337290e+00 1.430296e+00
    endloop
  endfacet
  facet normal 6.047122e-01 5.183109e-01 -6.047122e-01
    outer loop
      vertex -1.668645e+00 5.005935e+00 1.668645e+00
      vertex -4.767652e-01 3.337290e+00 1.430296e+00
      vertex -1.430296e+00 3.337290e+00 4.767652e-01
    endloop
  endfacet
  facet normal 8.165347e-01 4.082102e-01 -4.082102e-01
    outer loop
      vertex -1.668645e+00 5.005935e+00 1.668645e+00
      vertex -1.430296e+00 3.337290e+00 4.767652e-01
      vertex -1.906994e+00 3.814055e+00 0.000000e+00
    endloop
  endfacet
  facet normal 6.047122e-01 6.047122e-01 -5.183109e-01
    outer loop
      vertex -1.668645e+00 5.005935e+00 1.668645e+00
      vertex -1.906994e+00 3.814055e+00 0.000000e+00
      vertex -2.860525e+00 4.767586e+00 0.000000e+00
    endloop
  endfacet
  facet normal 4.082102e-01 8.165347e-01 -4.082102e-01
    outer loop
      vertex -1.668645e+00 5.005935e+00 1.668645e+00
      vertex -2.860525e+00 4.767586e+00 0.000000e+00
      vertex -3.337290e+00 5.244284e+00 4.767652e-01
    endloop
  endfacet
  facet normal 5.183109e-01 6.047122e-01 -6.047122e-01
    outer loop
      vertex -1.668645e+00 5.005935e+00 1.668645e+00
      vertex -3.337290e+00 5.244284e+00 4.767652e-01
      vertex -3.337290e+00 6.197815e+00 1.430296e+00
    endloop
  endfacet
  facet normal 4.082102e-01 4.082102e-01 -8.165347e-01
    outer loop
      vertex -1.668645e+00 5.005935e+00 1.668645e+00
      vertex -3.337290e+00 6.197815e+00 1.430296e+00
      vertex -2.860525e+00 6.674580e+00 1.906994e+00
    endloop
  endfacet
  facet normal 6.047122e-01 5.183109e-01 -6.047122e-01
    outer loop
      vertex -1.668645e+00 5.005935e+00 1.668645e+00
      vertex -2.860525e+00 6.674580e+00 1.906994e+00
      vertex -1.906994e+00 6.674580e+00 2.860525e+00
    endloop
  endfacet
  facet normal 8.165347e-01 4.082102e-01 -4.082102e-01
    outer loop
      vertex -1.668645e+00 5.005935e+00 1.668645e+00
      vertex -1.906994e+00 6.674580e+00 2.860525e+00
      vertex -1.430296e+00 6.197815e+00 3.337290e+00
    endloop
  endfacet
  facet normal 6.047122e-01 6.047122e-01 -5.183109e-01
    outer loop
      vertex -1.668645e+00 5.005935e+00 1.668645e+00
      vertex -1.430296e+00 6.197815e+00 3.337290e+00
      vertex -4.767652e-01 5.244284e+00 3.337290e+00
    endloop
  endfacet
  facet normal 4.082102e-01 8.165347e-01 -4.082102e-01
    outer loop
      vertex -1.668645e+00 5.005935e+00 1.668645e+00
      vertex -4.767652e-01 5.244284e+00 3.337290e+00
      vertex 4.670871e-16 4.767586e+00 2.860525e+00
    endloop
  endfacet
  facet normal -6.047122e-01 5.183109e-01 6.047122e-01
    outer loop
      vertex 1.668645e+00 -1.668645e+00 5.005935e+00
      vertex 2.860525e+00 2.919304e-16 4.767586e+00
      vertex 1.906994e+00 2.335435e-16 3.814055e+00
    endloop
  endfacet
  facet normal -8.165347e-01 4.082102e-01 4.082102e-01
    outer loop
      vertex 1.668645e+00 -1.668645e+00 5.005935e+00
      vertex 1.906994e+00 2.335435e-16 3.814055e+00
      vertex 1.430296e+00 -4.767652e-01 3.337290e+00
    endloop
  endfacet
  facet normal -6.047122e-01 6.047122e-01 5.183109e-01
    outer loop
      vertex 1.668645e+00 -1.668645e+00 5.005935e+00
      vertex 1.430296e+00 -4.767652e-01 3.337290e+00
      vertex 4.767652e-01 -1.430296e+00 3.337290e+00
    endloop
  endfacet
  facet normal -4.082102e-01 8.165347e-01 4.082102e-01
    outer loop
      vertex 1.668645e+00 -1.668645e+00 5.005935e+00
      vertex 4.767652e-01 -1.430296e+00 3.337290e+00
      vertex 1.167738e-16 -1.906994e+00 3.814055e+00
    endloop
  endfacet
  facet normal -5.183109e-01 6.047122e-01 6.047122e-01
    outer loop
      vertex 1.668645e+00 -1.668645e+00 5.005935e+00
      vertex 1.167738e-16 -1.906994e+00 3.814055e+00
      vertex 1.167738e-16 -2.860525e+00 4.767586e+00
    endloop
  endfacet
  facet normal -4.082102e-01 4.082102e-01 8.165347e-01
    outer loop
      vertex 1.668645e+00 -1.668645e+00 5.005935e+00
      vertex 1.167738e-16 -2.860525e+00 4.767586e+00
      vertex 4.767652e-01 -3.337290e+00 5.244284e+00
    endloop
  endfacet
  facet normal -6.047122e-01 5.183109e-01 6.047122e-01
    outer loop
      vertex 1.668645e+00 -1.668645e+00 5.005935e+00
      vertex 4.767652e-01 -3.337290e+00 5.244284e+00
      vertex 1.430296e+00 -3.337290e+00 6.197815e+00
    endloop
  endfacet
  facet normal -8.165347e-01 4.082102e-01 4.082102e-01
    outer loop
      vertex 1.668645e+00 -1.668645e+00 5.005935e+00
      vertex 1.430296e+00 -3.337290e+00 6.197815e+00
      vertex 1.906994e+00 -2.860525e+00 6.674580e+00
    endloop
  endfacet
  facet normal -6.047122e-01 6.047122e-01 5.183109e-01
    outer loop
      vertex 1.668645e+00 -1.668645e+00 5.005935e+00
      vertex 1.906994e+00 -2.860525e+00 6.674580e+00
      vertex 2.860525e+00 -1.906994e+00 6.674580e+00
    endloop
  endfacet
  facet normal -4.082102e-01 8.165347e-01 4.082102e-01
    outer loop
      vertex 1.668645e+00 -1.668645e+00 5.005935e+00
      vertex 2.860525e+00 -1.906994e+00 6.674580e+00
      vertex 3.337290e+00 -1.430296e+00 6.197815e+00
    endloop
  endfacet
  facet normal -5.183109e-01 6.047122e-01 6.047122e-01
    outer loop
      vertex 1.668645e+00 -1.668645e+00 5.005935e+00
      vertex 3.337290e+00 -1.430296e+00 6.197815e+00
      vertex 3.337290e+00 -4.767652e-01 5.244284e+00
    endloop
  endfacet
  facet normal -4.082102e-01 4.082102e-01 8.165347e-01
    outer loop
      vertex 1.668645e+00 -1.668645e+00 5.005935e+00
      vertex 3.337290e+00 -4.767652e-01 5.244284e+00
      vertex 2.860525e+00 2.919304e-16 4.767586e+00
    endloop
  endfacet
  facet normal -6.047122e-01 6.047122e-01 5.183109e-01
    outer loop
      vertex 1.668645e+00 5.005935e+00 -1.668645e+00
      vertex 1.906994e+00 3.814055e+00 0.000000e+00
      vertex 2.860525e+00 4.767586e+00 0.000000e+00
    endloop
  endfacet
  facet normal -4.082102e-01 8.165347e-01 4.082102e-01
    outer loop
      vertex 1.668645e+00 5.005935e+00 -1.668645e+00
      vertex 2.860525e+00 4.767586e+00 0.000000e+00
      vertex 3.337290e+00 5.244284e+00 -4.767652e-01
    endloop
  endfacet
  facet normal -5.183109e-01 6.047122e-01 6.047122e-01
    outer loop
      vertex 1.668645e+00 5.005935e+00 -1.668645e+00
      vertex 3.337290e+00 5.244284e+00 -4.767652e-01
      vertex 3.337290e+00 6.197815e+00 -1.430296e+00
    endloop
  endfacet
  facet normal -4.082102e-01 4.082102e-01 8.165347e-01
    outer loop
      vertex 1.668645e+00 5.005935e+00 -1.668645e+00
      vertex 3.337290e+00 6.197815e+00 -1.430296e+00
      vertex 2.860525e+00 6.674580e+00 -1.906994e+00
    endloop
  endfacet
  facet normal -6.047122e-01 5.183109e-01 6.047122e-01
    outer loop
      vertex 1.668645e+00 5.005935e+00 -1.668645e+00
      vertex 2.860525e+00 6.674580e+00 -1.906994e+00
      vertex 1.906994e+00 6.674580e+00 -2.860525e+00
    endloop
  endfacet
  facet normal -8.165347e-01 4.082102e-01 4.082102e-01
    outer loop
      vertex 1.668645e+00 5.005935e+00 -1.668645e+00
      vertex 1.906994e+00 6.674580e+00 -2.860525e+00
      vertex 1.430296e+00 6.197815e+00 -3.337290e+00
    endloop
  endfacet
  facet normal -6.047122e-01 6.047122e-01 5.183109e-01
    outer loop
      vertex 1.668645e+00 5.005935e+00 -1.668645e+00
      vertex 1.430296e+00 6.197815e+00 -3.337290e+00
      vertex 4.767652e-01 5.244284e+00 -3.337290e+00
    endloop
  endfacet
  facet normal -4.082102e-01 8.165347e-01 4.082102e-01
    outer loop
      vertex 1.668645e+00 5.005935e+00 -1.668645e+00
      vertex 4.767652e-01 5.244284e+00 -3.337290e+00
      vertex 1.167738e-16 4.767586e+00 -2.860525e+00
    endloop
  endfacet
  facet normal -5.183109e-01 6.047122e-01 6.047122e-01
    outer loop
      vertex 1.668645e+00 5.005935e+00 -1.668645e+00
      vertex 1.167738e-16 4.767586e+00 -2.860525e+00
      vertex 1.167738e-16 3.814055e+00 -1.906994e+00
    endloop
  endfacet
  facet normal -4.082102e-01 4.082102e-01 8.165347e-01
    outer loop
      vertex 1.668645e+00 5.005935e+00 -1.668645e+00
      vertex 1.167738e-16 3.814055e+00 -1.906994e+00
      vertex 4.767652e-01 3.337290e+00 -1.430296e+00
    endloop
  endfacet
  facet normal -6.047122e-01 5.183109e-01 6.047122e-01
    outer loop
      vertex 1.668645e+00 5.005935e+00 -1.668645e+00
      vertex 4.767652e-01 3.337290e+00 -1.430296e+00
      vertex 1.430296e+00 3.337290e+00 -4.767652e-01
    endloop
  endfacet
  facet normal -8.165347e-01 4.082102e-01 4.082102e-01
    outer loop
      vertex 1.668645e+00 5.005935e+00 -1.668645e+00
      vertex 1.430296e+00 3.337290e+00 -4.767652e-01
      vertex 1.906994e+00 3.814055e+00 0.000000e+00
    endloop
  endfacet
  facet normal 6.047122e-01 5.183109e-01 -6.047122e-01
    outer loop
      vertex 5.005935e+00 -1.668645e+00 1.668645e+00
      vertex 3.814055e+00 1.167697e-16 1.906994e+00
      vertex 4.767586e+00 1.751566e-16 2.860525e+00
    endloop
  endfacet
  facet normal 8.165347e-01 4.082102e-01 -4.082102e-01
    outer loop
      vertex 5.005935e+00 -1.668645e+00 1.668645e+00
      vertex 4.767586e+00 1.751566e-16 2.860525e+00
      vertex 5.244284e+00 -4.767652e-01 3.337290e+00
    endloop
  endfacet
  facet normal 6.047122e-01 6.047122e-01 -5.183109e-01
    outer loop
      vertex 5.005935e+00 -1.668645e+00 1.668645e+00
      vertex 5.244284e+00 -4.767652e-01 3.337290e+00
      vertex 6.197815e+00 -1.430296e+00 3.337290e+00
    endloop
  endfacet
  facet normal 4.082102e-01 8.165347e-01 -4.082102e-01
    outer loop
      vertex 5.005935e+00 -1.668645e+00 1.668645e+00
      vertex 6.197815e+00 -1.430296e+00 3.337290e+00
      vertex 6.674580e+00 -1.906994e+00 2.860525e+00
    endloop
  endfacet
  facet normal 5.183109e-01 6.047122e-01 -6.047122e-01
    outer loop
      vertex 5.005935e+00 -1.668645e+00 1.668645e+00
      vertex 6.674580e+00 -1.906994e+00 2.860525e+00
      vertex 6.674580e+00 -2.860525e+00 1.906994e+00
    endloop
  endfacet
  facet normal 4.082102e-01 4.082102e-01 -8.165347e-01
    outer loop
      vertex 5.005935e+00 -1.668645e+00 1.668645e+00
      vertex 6.674580e+00 -2.860525e+00 1.906994e+00
      vertex 6.197815e+00 -3.337290e+00 1.430296e+00
    endloop
  endfacet
  facet normal 6.047122e-01 5.183109e-01 -6.047122e-01
    outer loop
      vertex 5.005935e+00 -1.668645e+00 1.668645e+00
      vertex 6.197815e+00 -3.337290e+00 1.430296e+00
      vertex 5.244284e+00 -3.337290e+00 4.767652e-01
    endloop
  endfacet
  facet normal 8.165347e-01 4.082102e-01 -4.082102e-01
    outer loop
      vertex 5.005935e+00 -1.668645e+00 1.668645e+00
      vertex 5.244284e+00 -3.337290e+00 4.767652e-01
      vertex 4.767586e+00 -2.860525e+00 0.000000e+00
    endloop
  endfacet
  facet normal 6.047122e-01 6.047122e-01 -5.183109e-01
    outer loop
      vertex 5.005935e+00 -1.668645e+00 1.668645e+00
      vertex 4.767586e+00 -2.860525e+00 0.000000e+00
      vertex 3.814055e+00 -1.906994e+00 0.000000e+00
    endloop
  endfacet
  facet normal 4.082102e-01 8.165347e-01 -4.082102e-01
    outer loop
      vertex 5.005935e+00 -1.668645e+00 1.668645e+00
      vertex 3.814055e+00 -1.906994e+00 0.000000e+00
      vertex 3.337290e+00 -1.430296e+00 4.767652e-01
    endloop
  endfacet
  facet normal 5.183109e-01 6.047122e-01 -6.047122e-01
    outer loop
      vertex 5.005935e+00 -1.668645e+00 1.668645e+00
      vertex 3.337290e+00 -1.430296e+00 4.767652e-01
      vertex 3.337290e+00 -4.767652e-01 1.430296e+00
    endloop
  endfacet
  facet normal 4.082102e-01 4.082102e-01 -8.165347e-01
    outer loop
      vertex 5.005935e+00 -1.668645e+00 1.668645e+00
      vertex 3.337290e+00 -4.767652e-01 1.430296e+00
      vertex 3.814055e+00 1.167697e-16 1.906994e+00
    endloop
  endfacet
  facet normal 6.047122e-01 -5.183109e-01 -6.047122e-01
    outer loop
      vertex 5.005935e+00 1.668645e+00 1.668645e+00
      vertex 4.767586e+00 1.751566e-16 2.860525e+00
      vertex 3.814055e+00 1.167697e-16 1.906994e+00
    endloop
  endfacet
  facet normal 4.082102e-01 -4.082102e-01 -8.165347e-01
    outer loop
      vertex 5.005935e+00 1.668645e+00 1.668645e+00
      vertex 3.814055e+00 1.167697e-16 1.906994e+00
      vertex 3.337290e+00 4.767652e-01 1.430296e+00
    endloop
  endfacet
  facet normal 5.183109e-01 -6.047122e-01 -6.047122e-01
    outer loop
      vertex 5.005935e+00 1.668645e+00 1.668645e+00
      vertex 3.337290e+00 4.767652e-01 1.430296e+00
      vertex 3.337290e+00 1.430296e+00 4.767652e-01
    endloop
  endfacet
  facet normal 4.082102e-01 -8.165347e-01 -4.082102e-01
    outer loop
      vertex 5.005935e+00 1.668645e+00 1.668645e+00
      vertex 3.337290e+00 1.430296e+00 4.767652e-01
      vertex 3.814055e+00 1.906994e+00 0.000000e+00
    endloop
  endfacet
  facet normal 6.047122e-01 -6.047122e-01 -5.183109e-01
    outer loop
      vertex 5.005935e+00 1.668645e+00 1.668645e+00
      vertex 3.814055e+00 1.906994e+00 0.000000e+00
      vertex 4.767586e+00 2.860525e+00 0.000000e+00
    endloop
  endfacet
  facet normal 8.165347e-01 -4.082102e-01 -4.082102e-01
    outer loop
      vertex 5.005935e+00 1.668645e+00 1.668645e+00
      vertex 4.767586e+00 2.860525e+00 0.000000e+00
      vertex 5.244284e+00 3.337290e+00 4.767652e-01
    endloop
  endfacet
  facet normal 6.047122e-01 -5.183109e-01 -6.047122e-01
    outer loop
      vertex 5.005935e+00 1.668645e+00 1.668645e+00
      vertex 5.244284e+00 3.337290e+00 4.767652e-01
      vertex 6.197815e+00 3.337290e+00 1.430296e+00
    endloop
  endfacet
  facet normal 4.082102e-01 -4.082102e-01 -8.165347e-01
    outer loop
      vertex 5.005935e+00 1.668645e+00 1.668645e+00
      vertex 6.197815e+00 3.337290e+00 1.430296e+00
      vertex 6.674580e+00 2.860525e+00 1.906994e+00
    endloop
  endfacet
  facet normal 5.183109e-01 -6.047122e-01 -6.047122e-01
    outer loop
      vertex 5.005935e+00 1.668645e+00 1.668645e+00
      vertex 6.674580e+00 2.860525e+00 1.906994e+00
      vertex 6.674580e+00 1.906994e+00 2.860525e+00
    endloop
  endfacet
  facet normal 4.082102e-01 -8.165347e-01 -4.082102e-01
    outer loop
      vertex 5.005935e+00 1.668645e+00 1.668645e+00
      vertex 6.674580e+00 1.906994e+00 2.860525e+00
      vertex 6.197815e+00 1.430296e+00 3.337290e+00
    endloop
  endfacet
  facet normal 6.047122e-01 -6.047122e-01 -5.183109e-01
    outer loop
      vertex 5.005935e+00 1.668645e+00 1.668645e+00
      vertex 6.197815e+00 1.430296e+00 3.337290e+00
      vertex 5.244284e+00 4.767652e-01 3.337290e+00
    endloop
  endfacet
  facet normal 8.165347e-01 -4.082102e-01 -4.082102e-01
    outer loop
      vertex 5.005935e+00 1.668645e+00 1.668645e+00
      vertex 5.244284e+00 4.767652e-01 3.337290e+00
      vertex 4.767586e+00 1.751566e-16 2.860525e+00
    endloop
  endfacet
  facet normal 6.047122e-01 -6.047122e-01 5.183109e-01
    outer loop
      vertex 5.005935e+00 1.668645e+00 -1.668645e+00
      vertex 4.767586e+00 2.860525e+00 0.000000e+00
      vertex 3.814055e+00 1.906994e+00 0.000000e+00
    endloop
  endfacet
  facet normal 4.082102e-01 -8.165347e-01 4.082102e-01
    outer loop
      vertex 5.005935e+00 1.668645e+00 -1.668645e+00
      vertex 3.814055e+00 1.906994e+00 0.000000e+00
      vertex 3.337290e+00 1.430296e+00 -4.767652e-01
    endloop
  endfacet
  facet normal 5.183109e-01 -6.047122e-01 6.047122e-01
    outer loop
      vertex 5.005935e+00 1.668645e+00 -1.668645e+00
      vertex 3.337290e+00 1.430296e+00 -4.767652e-01
      vertex 3.337290e+00 4.767652e-01 -1.430296e+00
    endloop
  endfacet
  facet normal 4.082102e-01 -4.082102e-01 8.165347e-01
    outer loop
      vertex 5.005935e+00 1.668645e+00 -1.668645e+00
      vertex 3.337290e+00 4.767652e-01 -1.430296e+00
      vertex 3.814055e+00 -1.167697e-16 -1.906994e+00
    endloop
  endfacet
  facet normal 6.047122e-01 -5.183109e-01 6.047122e-01
    outer loop
      vertex 5.005935e+00 1.668645e+00 -1.668645e+00
      vertex 3.814055e+00 -1.167697e-16 -1.906994e+00
      vertex 4.767586e+00 -1.751566e-16 -2.860525e+00
    endloop
  endfacet
  facet normal 8.165347e-01 -4.082102e-01 4.082102e-01
    outer loop
      vertex 5.005935e+00 1.668645e+00 -1.668645e+00
      vertex 4.767586e+00 -1.751566e-16 -2.860525e+00
      vertex 5.244284e+00 4.767652e-01 -3.337290e+00
    endloop
  endfacet
  facet normal 6.047122e-01 -6.047122e-01 5.183109e-01
    outer loop
      vertex 5.005935e+00 1.668645e+00 -1.668645e+00
      vertex 5.244284e+00 4.767652e-01 -3.337290e+00
      vertex 6.197815e+00 1.430296e+00 -3.337290e+00
    endloop
  endfacet
  facet normal 4.082102e-01 -8.165347e-01 4.082102e-01
    outer loop
      vertex 5.005935e+00 1.668645e+00 -1.668645e+00
      vertex 6.197815e+00 1.430296e+00 -3.337290e+00
      vertex 6.674580e+00 1.906994e+00 -2.860525e+00
    endloop
  endfacet
  facet normal 5.183109e-01 -6.047122e-01 6.047122e-01
    outer loop
      vertex 5.005935e+00 1.668645e+00 -1.668645e+00
      vertex 6.674580e+00 1.906994e+00 -2.860525e+00
      vertex 6.674580e+00 2.860525e+00 -1.906994e+00
    endloop
  endfacet
  facet normal 4.082102e-01 -4.082102e-01 8.165347e-01
    outer loop
      vertex 5.005935e+00 1.668645e+00 -1.668645e+00
      vertex 6.674580e+00 2.860525e+00 -1.906994e+00
      vertex 6.197815e+00 3.337290e+00 -1.430296e+00
    endloop
  endfacet
  facet normal 6.047122e-01 -5.183109e-01 6.047122e-01
    outer loop
      vertex 5.005935e+00 1.668645e+00 -1.668645e+00
      vertex 6.197815e+00 3.337290e+00 -1.430296e+00
      vertex 5.244284e+00 3.337290e+00 -4.767652e-01
    endloop
  endfacet
  facet normal 8.165347e-01 -4.082102e-01 4.082102e-01
    outer loop
      vertex 5.005935e+00 1.668645e+00 -1.668645e+00
      vertex 5.244284e+00 3.337290e+00 -4.767652e-01
      vertex 4.767586e+00 2.860525e+00 0.000000e+00
    endloop
  endfacet
  facet normal 5.183109e-01 6.047122e-01 6.047122e-01
    outer loop
      vertex -1.668645e+00 5.005935e+00 5.005935e+00
      vertex 5.254740e-16 3.814055e+00 4.767586e+00
      vertex 5.254740e-16 4.767586e+00 3.814055e+00
    endloop
  endfacet
  facet normal 4.082102e-01 8.165347e-01 4.082102e-01
    outer loop
      vertex -1.668645e+00 5.005935e+00 5.005935e+00
      vertex 5.254740e-16 4.767586e+00 3.814055e+00
      vertex -4.767652e-01 5.244284e+00 3.337290e+00
    endloop
  endfacet
  facet normal 6.047122e-01 6.047122e-01 5.183109e-01
    outer loop
      vertex -1.668645e+00 5.005935e+00 5.005935e+00
      vertex -4.767652e-01 5.244284e+00 3.337290e+00
      vertex -1.430296e+00 6.197815e+00 3.337290e+00
    endloop
  endfacet
  facet normal 8.165347e-01 4.082102e-01 4.082102e-01
    outer loop
      vertex -1.668645e+00 5.005935e+00 5.005935e+00
      vertex -1.430296e+00 6.197815e+00 3.337290e+00
      vertex -1.906994e+00 6.674580e+00 3.814055e+00
    endloop
  endfacet
  facet normal 6.047122e-01 5.183109e-01 6.047122e-01
    outer loop
      vertex -1.668645e+00 5.005935e+00 5.005935e+00
      vertex -1.906994e+00 6.674580e+00 3.814055e+00
      vertex -2.860525e+00 6.674580e+00 4.767586e+00
    endloop
  endfacet
  facet normal 4.082102e-01 4.082102e-01 8.165347e-01
    outer loop
      vertex -1.668645e+00 5.005935e+00 5.005935e+00
      vertex -2.860525e+00 6.674580e+00 4.767586e+00
      vertex -3.337290e+00 6.197815e+00 5.244284e+00
    endloop
  endfacet
  facet normal 5.183109e-01 6.047122e-01 6.047122e-01
    outer loop
      vertex -1.668645e+00 5.005935e+00 5.005935e+00
      vertex -3.337290e+00 6.197815e+00 5.244284e+00
      vertex -3.337290e+00 5.244284e+00 6.197815e+00
    endloop
  endfacet
  facet normal 4.082102e-01 8.165347e-01 4.082102e-01
    outer loop
      vertex -1.668645e+00 5.005935e+00 5.005935e+00
      vertex -3.337290e+00 5.244284e+00 6.197815e+00
      vertex -2.860525e+00 4.767586e+00 6.674580e+00
    endloop
  endfacet
  facet normal 6.047122e-01 6.047122e-01 5.183109e-01
    outer loop
      vertex -1.668645e+00 5.005935e+00 5.005935e+00
      vertex -2.860525e+00 4.767586e+00 6.674580e+00
      vertex -1.906994e+00 3.814055e+00 6.674580e+00
    endloop
  endfacet
  facet normal 8.165347e-01 4.082102e-01 4.082102e-01
    outer loop
      vertex -1.668645e+00 5.005935e+00 5.005935e+00
      vertex -1.906994e+00 3.814055e+00 6.674580e+00
      vertex -1.430296e+00 3.337290e+00 6.197815e+00
    endloop
  endfacet
  facet normal 6.047122e-01 5.183109e-01 6.047122e-01
    outer loop
      vertex -1.668645e+00 5.005935e+00 5.005935e+00
      vertex -1.430296e+00 3.337290e+00 6.197815e+00
      vertex -4.767652e-01 3.337290e+00 5.244284e+00
    endloop
  endfacet
  facet normal 4.082102e-01 4.082102e-01 8.165347e-01
    outer loop
      vertex -1.668645e+00 5.005935e+00 5.005935e+00
      vertex -4.767652e-01 3.337290e+00 5.244284e+00
      vertex 5.254740e-16 3.814055e+00 4.767586e+00
    endloop
  endfacet
  facet normal -5.183109e-01 6.047122e-01 6.047122e-01
    outer loop
      vertex 1.668645e+00 5.005935e+00 5.005935e+00
      vertex 5.254740e-16 4.767586e+00 3.814055e+00
      vertex 5.254740e-16 3.814055e+00 4.767586e+00
    endloop
  endfacet
  facet normal -4.082102e-01 4.082102e-01 8.165347e-01
    outer loop
      vertex 1.668645e+00 5.005935e+00 5.005935e+00
      vertex 5.254740e-16 3.814055e+00 4.767586e+00
      vertex 4.767652e-01 3.337290e+00 5.244284e+00
    endloop
  endfacet
  facet normal -6.047122e-01 5.183109e-01 6.047122e-01
    outer loop
      vertex 1.668645e+00 5.005935e+00 5.005935e+00
      vertex 4.767652e-01 3.337290e+00 5.244284e+00
      vertex 1.430296e+00 3.337290e+00 6.197815e+00
    endloop
  endfacet
  facet normal -8.165347e-01 4.082102e-01 4.082102e-01
    outer loop
      vertex 1.668645e+00 5.005935e+00 5.005935e+00
      vertex 1.430296e+00 3.337290e+00 6.197815e+00
      vertex 1.906994e+00 3.814055e+00 6.674580e+00
    endloop
  endfacet
  facet normal -6.047122e-01 6.047122e-01 5.183109e-01
    outer loop
      vertex 1.668645e+00 5.005935e+00 5.005935e+00
      vertex 1.906994e+00 3.814055e+00 6.674580e+00
      vertex 2.860525e+00 4.767586e+00 6.674580e+00
    endloop
  endfacet
  facet normal -4.082102e-01 8.165347e-01 4.082102e-01
    outer loop
      vertex 1.668645e+00 5.005935e+00 5.005935e+00
      vertex 2.860525e+00 4.767586e+00 6.674580e+00
      vertex 3.337290e+00 5.244284e+00 6.197815e+00
    endloop
  endfacet
  facet normal -5.183109e-01 6.047122e-01 6.047122e-01
    outer loop
      vertex 1.668645e+00 5.005935e+00 5.005935e+00
      vertex 3.337290e+00 5.244284e+00 6.197815e+00
      vertex 3.337290e+00 6.197815e+00 5.244284e+00
    endloop
  endfacet
  facet normal -4.082102e-01 4.082102e-01 8.165347e-01
    outer loop
      vertex 1.668645e+00 5.005935e+00 5.005935e+00
      vertex 3.337290e+00 6.197815e+00 5.244284e+00
      vertex 2.860525e+00 6.674580e+00 4.767586e+00
    endloop
  endfacet
  facet normal -6.047122e-01 5.183109e-01 6.047122e-01
    outer loop
      vertex 1.668645e+00 5.005935e+00 5.005935e+00
      vertex 2.860525e+00 6.674580e+00 4.767586e+00
      vertex 1.906994e+00 6.674580e+00 3.814055e+00
    endloop
  endfacet
  facet normal -8.165347e-01 4.082102e-01 4.082102e-01
    outer loop
      vertex 1.668645e+00 5.005935e+00 5.005935e+00
      vertex 1.906994e+00 6.674580e+00 3.814055e+00
      vertex 1.430296e+00 6.197815e+00 3.337290e+00
    endloop
  endfacet
  facet normal -6.047122e-01 6.047122e-01 5.183109e-01
    outer loop
      vertex 1.668645e+00 5.005935e+00 5.005935e+00
      vertex 1.430296e+00 6.197815e+00 3.337290e+00
      vertex 4.767652e-01 5.244284e+00 3.337290e+00
    endloop
  endfacet
  facet normal -4.082102e-01 8.165347e-01 4.082102e-01
    outer loop
      vertex 1.668645e+00 5.005935e+00 5.005935e+00
      vertex 4.767652e-01 5.244284e+00 3.337290e+00
      vertex 5.254740e-16 4.767586e+00 3.814055e+00
    endloop
  endfacet
  facet normal 6.047122e-01 -5.183109e-01 6.047122e-01
    outer loop
      vertex 5.005935e+00 1.668645e+00 5.005935e+00
      vertex 3.814055e+00 2.919304e-16 4.767586e+00
      vertex 4.767586e+00 2.335435e-16 3.814055e+00
    endloop
  endfacet
  facet normal 8.165347e-01 -4.082102e-01 4.082102e-01
    outer loop
      vertex 5.005935e+00 1.668645e+00 5.005935e+00
      vertex 4.767586e+00 2.335435e-16 3.814055e+00
      vertex 5.244284e+00 4.767652e-01 3.337290e+00
    endloop
  endfacet
  facet normal 6.047122e-01 -6.047122e-01 5.183109e-01
    outer loop
      vertex 5.005935e+00 1.668645e+00 5.005935e+00
      vertex 5.244284e+00 4.767652e-01 3.337290e+00
      vertex 6.197815e+00 1.430296e+00 3.337290e+00
    endloop
  endfacet
  facet normal 4.082102e-01 -8.165347e-01 4.082102e-01
    outer loop
      vertex 5.005935e+00 1.668645e+00 5.005935e+00
      vertex 6.197815e+00 1.430296e+00 3.337290e+00
      vertex 6.674580e+00 1.906994e+00 3.814055e+00
    endloop
  endfacet
  facet normal 5.183109e-01 -6.047122e-01 6.047122e-01
    outer loop
      vertex 5.005935e+00 1.668645e+00 5.005935e+00
      vertex 6.674580e+00 1.906994e+00 3.814055e+00
      vertex 6.674580e+00 2.860525e+00 4.767586e+00
    endloop
  endfacet
  facet normal 4.082102e-01 -4.082102e-01 8.165347e-01
    outer loop
      vertex 5.005935e+00 1.668645e+00 5.005935e+00
      vertex 6.674580e+00 2.860525e+00 4.767586e+00
      vertex 6.197815e+00 3.337290e+00 5.244284e+00
    endloop
  endfacet
  facet normal 6.047122e-01 -5.183109e-01 6.047122e-01
    outer loop
      vertex 5.005935e+00 1.668645e+00 5.005935e+00
      vertex 6.197815e+00 3.337290e+00 5.244284e+00
      vertex 5.244284e+00 3.337290e+00 6.197815e+00
    endloop
  endfacet
  facet normal 8.165347e-01 -4.082102e-01 4.082102e-01
    outer loop
      vertex 5.005935e+00 1.668645e+00 5.005935e+00
      vertex 5.244284e+00 3.337290e+00 6.197815e+00
      vertex 4.767586e+00 2.860525e+00 6.674580e+00
    endloop
  endfacet
  facet normal 6.047122e-01 -6.047122e-01 5.183109e-01
    outer loop
      vertex 5.005935e+00 1.668645e+00 5.005935e+00
      vertex 4.767586e+00 2.860525e+00 6.674580e+00
      vertex 3.814055e+00 1.906994e+00 6.674580e+00
    endloop
  endfacet
  facet normal 4.082102e-01 -8.165347e-01 4.082102e-01
    outer loop
      vertex 5.005935e+00 1.668645e+00 5.005935e+00
      vertex 3.814055e+00 1.906994e+00 6.674580e+00
      vertex 3.337290e+00 1.430296e+00 6.197815e+00
    endloop
  endfacet
  facet normal 5.183109e-01 -6.047122e-01 6.047122e-01
    outer loop
      vertex 5.005935e+00 1.668645e+00 5.005935e+00
      vertex 3.337290e+00 1.430296e+00 6.197815e+00
      vertex 3.337290e+00 4.767652e-01 5.244284e+00
    endloop
  endfacet
  facet normal 4.082102e-01 -4.082102e-01 8.165347e-01
    outer loop
      vertex 5.005935e+00 1.668645e+00 5.005935e+00
      vertex 3.337290e+00 4.767652e-01 5.244284e+00
      vertex 3.814055e+00 2.919304e-16 4.767586e+00
    endloop
  endfacet
  facet normal 6.047122e-01 5.183109e-01 6.047122e-01
    outer loop
      vertex 5.005935e+00 -1.668645e+00 5.005935e+00
      vertex 4.767586e+00 2.335435e-16 3.814055e+00
      vertex 3.814055e+00 2.919304e-16 4.767586e+00
    endloop
  endfacet
  facet normal 4.082102e-01 4.082102e-01 8.165347e-01
    outer loop
      vertex 5.005935e+00 -1.668645e+00 5.005935e+00
      vertex 3.814055e+00 2.919304e-16 4.767586e+00
      vertex 3.337290e+00 -4.767652e-01 5.244284e+00
    endloop
  endfacet
  facet normal 5.183109e-01 6.047122e-01 6.047122e-01
    outer loop
      vertex 5.005935e+00 -1.668645e+00 5.005935e+00
      vertex 3.337290e+00 -4.767652e-01 5.244284e+00
      vertex 3.337290e+00 -1.430296e+00 6.197815e+00
    endloop
  endfacet
  facet normal 4.082102e-01 8.165347e-01 4.082102e-01
    outer loop
      vertex 5.005935e+00 -1.668645e+00 5.005935e+00
      vertex 3.337290e+00 -1.430296e+00 6.197815e+00
      vertex 3.814055e+00 -1.906994e+00 6.674580e+00
    endloop
  endfacet
  facet normal 6.047122e-01 6.047122e-01 5.183109e-01
    outer loop
      vertex 5.005935e+00 -1.668645e+00 5.005935e+00
      vertex 3.814055e+00 -1.906994e+00 6.674580e+00
      vertex 4.767586e+00 -2.860525e+00 6.674580e+00
    endloop
  endfacet
  facet normal 8.165347e-01 4.082102e-01 4.082102e-01
    outer loop
      vertex 5.005935e+00 -1.668645e+00 5.005935e+00
      vertex 4.767586e+00 -2.860525e+00 6.674580e+00
      vertex 5.244284e+00 -3.337290e+00 6.197815e+00
    endloop
  endfacet
  facet normal 6.047122e-01 5.183109e-01 6.047122e-01
    outer loop
      vertex 5.005935e+00 -1.668645e+00 5.005935e+00
      vertex 5.244284e+00 -3.337290e+00 6.197815e+00
      vertex 6.197815e+00 -3.337290e+00 5.244284e+00
    endloop
  endfacet
  facet normal 4.082102e-01 4.082102e-01 8.165347e-01
    outer loop
      vertex 5.005935e+00 -1.668645e+00 5.005935e+00
      vertex 6.197815e+00 -3.337290e+00 5.244284e+00
      vertex 6.674580e+00 -2.860525e+00 4.767586e+00
    endloop
  endfacet
  facet normal 5.183109e-01 6.047122e-01 6.047122e-01
    outer loop
      vertex 5.005935e+00 -1.668645e+00 5.005935e+00
      vertex 6.674580e+00 -2.860525e+00 4.767586e+00
      vertex 6.674580e+00 -1.906994e+00 3.814055e+00
    endloop
  endfacet
  facet normal 4.082102e-01 8.165347e-01 4.082102e-01
    outer loop
      vertex 5.005935e+00 -1.668645e+00 5.005935e+00
      vertex 6.674580e+00 -1.906994e+00 3.814055e+00
      vertex 6.197815e+00 -1.430296e+00 3.337290e+00
    endloop
  endfacet
  facet normal 6.047122e-01 6.047122e-01 5.183109e-01
    outer loop
      vertex 5.005935e+00 -1.668645e+00 5.005935e+00
      vertex 6.197815e+00 -1.430296e+00 3.337290e+00
      vertex 5.244284e+00 -4.767652e-01 3.337290e+00
    endloop
  endfacet
  facet normal 8.165347e-01 4.082102e-01 4.082102e-01
    outer loop
      vertex 5.005935e+00 -1.668645e+00 5.005935e+00
      vertex 5.244284e+00 -4.767652e-01 3.337290e+00
      vertex 4.767586e+00 2.335435e-16 3.814055e+00
    endloop
  endfacet
  facet normal 6.047122e-01 6.047122e-01 5.183109e-01
    outer loop
      vertex 5.005935e+00 5.005935e+00 -1.668645e+00
      vertex 3.814055e+00 4.767586e+00 0.000000e+00
      vertex 4.767586e+00 3.814055e+00 0.000000e+00
    endloop
  endfacet
  facet normal 8.165347e-01 4.082102e-01 4.082102e-01
    outer loop
      vertex 5.005935e+00 5.005935e+00 -1.668645e+00
      vertex 4.767586e+00 3.814055e+00 0.000000e+00
      vertex 5.244284e+00 3.337290e+00 -4.767652e-01
    endloop
  endfacet
  facet normal 6.047122e-01 5.183109e-01 6.047122e-01
    outer loop
      vertex 5.005935e+00 5.005935e+00 -1.668645e+00
      vertex 5.244284e+00 3.337290e+00 -4.767652e-01
      vertex 6.197815e+00 3.337290e+00 -1.430296e+00
    endloop
  endfacet
  facet normal 4.082102e-01 4.082102e-01 8.165347e-01
    outer loop
      vertex 5.005935e+00 5.005935e+00 -1.668645e+00
      vertex 6.197815e+00 3.337290e+00 -1.430296e+00
      vertex 6.674580e+00 3.814055e+00 -1.906994e+00
    endloop
  endfacet
  facet normal 5.183109e-01 6.047122e-01 6.047122e-01
    outer loop
      vertex 5.005935e+00 5.005935e+00 -1.668645e+00
      vertex 6.674580e+00 3.814055e+00 -1.906994e+00
      vertex 6.674580e+00 4.767586e+00 -2.860525e+00
    endloop
  endfacet
  facet normal 4.082102e-01 8.165347e-01 4.082102e-01
    outer loop
      vertex 5.005935e+00 5.005935e+00 -1.668645e+00
      vertex 6.674580e+00 4.767586e+00 -2.860525e+00
      vertex 6.197815e+00 5.244284e+00 -3.337290e+00
    endloop
  endfacet
  facet normal 6.047122e-01 6.047122e-01 5.183109e-01
    outer loop
      vertex 5.005935e+00 5.005935e+00 -1.668645e+00
      vertex 6.197815e+00 5.244284e+00 -3.337290e+00
      vertex 5.244284e+00 6.197815e+00 -3.337290e+00
    endloop
  endfacet
  facet normal 8.165347e-01 4.082102e-01 4.082102e-01
    outer loop
      vertex 5.005935e+00 5.005935e+00 -1.668645e+00
      vertex 5.244284e+00 6.197815e+00 -3.337290e+00
      vertex 4.767586e+00 6.674580e+00 -2.860525e+00
    endloop
  endfacet
  facet normal 6.047122e-01 5.183109e-01 6.047122e-01
    outer loop
      vertex 5.005935e+00 5.005935e+00 -1.668645e+00
      vertex 4.767586e+00 6.674580e+00 -2.860525e+00
      vertex 3.814055e+00 6.674580e+00 -1.906994e+00
    endloop
  endfacet
  facet normal 4.082102e-01 4.082102e-01 8.165347e-01
    outer loop
      vertex 5.005935e+00 5.005935e+00 -1.668645e+00
      vertex 3.814055e+00 6.674580e+00 -1.906994e+00
      vertex 3.337290e+00 6.197815e+00 -1.430296e+00
    endloop
  endfacet
  facet normal 5.183109e-01 6.047122e-01 6.047122e-01
    outer loop
      vertex 5.005935e+00 5.005935e+00 -1.668645e+00
      vertex 3.337290e+00 6.197815e+00 -1.430296e+00
      vertex 3.337290e+00 5.244284e+00 -4.767652e-01
    endloop
  endfacet
  facet normal 4.082102e-01 8.165347e-01 4.082102e-01
    outer loop
      vertex 5.005935e+00 5.005935e+00 -1.668645e+00
      vertex 3.337290e+00 5.244284e+00 -4.767652e-01
      vertex 3.814055e+00 4.767586e+00 0.000000e+00
    endloop
  endfacet
  facet normal 6.047122e-01 6.047122e-01 -5.183109e-01
    outer loop
      vertex 5.005935e+00 5.005935e+00 1.668645e+00
      vertex 4.767586e+00 3.814055e+00 0.000000e+00
      vertex 3.814055e+00 4.767586e+00 0.000000e+00
    endloop
  endfacet
  facet normal 4.082102e-01 8.165347e-01 -4.082102e-01
    outer loop
      vertex 5.005935e+00 5.005935e+00 1.668645e+00
      vertex 3.814055e+00 4.767586e+00 0.000000e+00
      vertex 3.337290e+00 5.244284e+00 4.767652e-01
    endloop
  endfacet
  facet normal 5.183109e-01 6.047122e-01 -6.047122e-01
    outer loop
      vertex 5.005935e+00 5.005935e+00 1.668645e+00
      vertex 3.337290e+00 5.244284e+00 4.767652e-01
      vertex 3.337290e+00 6.197815e+00 1.430296e+00
    endloop
  endfacet
  facet normal 4.082102e-01 4.082102e-01 -8.165347e-01
    outer loop
      vertex 5.005935e+00 5.005935e+00 1.668645e+00
      vertex 3.337290e+00 6.197815e+00 1.430296e+00
      vertex 3.814055e+00 6.674580e+00 1.906994e+00
    endloop
  endfacet
  facet normal 6.047122e-01 5.183109e-01 -6.047122e-01
    outer loop
      vertex 5.005935e+00 5.005935e+00 1.668645e+00
      vertex 3.814055e+00 6.674580e+00 1.906994e+00
      vertex 4.767586e+00 6.674580e+00 2.860525e+00
    endloop
  endfacet
  facet normal 8.165347e-01 4.082102e-01 -4.082102e-01
    outer loop
      vertex 5.005935e+00 5.005935e+00 1.668645e+00
      vertex 4.767586e+00 6.674580e+00 2.860525e+00
      vertex 5.244284e+00 6.197815e+00 3.337290e+00
    endloop
  endfacet
  facet normal 6.047122e-01 6.047122e-01 -5.183109e-01
    outer loop
      vertex 5.005935e+00 5.005935e+00 1.668645e+00
      vertex 5.244284e+00 6.197815e+00 3.337290e+00
      vertex 6.197815e+00 5.244284e+00 3.337290e+00
    endloop
  endfacet
  facet normal 4.082102e-01 8.165347e-01 -4.082102e-01
    outer loop
      vertex 5.005935e+00 5.005935e+00 1.668645e+00
      vertex 6.197815e+00 5.244284e+00 3.337290e+00
      vertex 6.674580e+00 4.767586e+00 2.860525e+00
    endloop
  endfacet
  facet normal 5.183109e-01 6.047122e-01 -6.047122e-01
    outer loop
      vertex 5.005935e+00 5.005935e+00 1.668645e+00
      vertex 6.674580e+00 4.767586e+00 2.860525e+00
      vertex 6.674580e+00 3.814055e+00 1.906994e+00
    endloop
  endfacet
  facet normal 4.082102e-01 4.082102e-01 -8.165347e-01
    outer loop
      vertex 5.005935e+00 5.005935e+00 1.668645e+00
      vertex 6.674580e+00 3.814055e+00 1.906994e+00
      vertex 6.197815e+00 3.337290e+00 1.430296e+00
    endloop
  endfacet
  facet normal 6.047122e-01 5.183109e-01 -6.047122e-01
    outer loop
      vertex 5.005935e+00 5.005935e+00 1.668645e+00
      vertex 6.197815e+00 3.337290e+00 1.430296e+00
      vertex 5.244284e+00 3.337290e+00 4.767652e-01
    endloop
  endfacet
  facet normal 8.165347e-01 4.082102e-01 -4.082102e-01
    outer loop
      vertex 5.005935e+00 5.005935e+00 1.668645e+00
      vertex 5.244284e+00 3.337290e+00 4.767652e-01
      vertex 4.767586e+00 3.814055e+00 0.000000e+00
    endloop
  endfacet
  facet normal 5.183109e-01 6.047122e-01 6.047122e-01
    outer loop
      vertex 5.005935e+00 5.005935e+00 5.005935e+00
      vertex 3.337290e+00 6.197815e+00 5.244284e+00
      vertex 3.337290e+00 5.244284e+00 6.197815e+00
    endloop
  endfacet
  facet normal 4.082102e-01 8.165347e-01 4.082102e-01
    outer loop
      vertex 5.005935e+00 5.005935e+00 5.005935e+00
      vertex 3.337290e+00 5.244284e+00 6.197815e+00
      vertex 3.814055e+00 4.767586e+00 6.674580e+00
    endloop
  endfacet
  facet normal 6.047122e-01 6.047122e-01 5.183109e-01
    outer loop
      vertex 5.005935e+00 5.005935e+00 5.005935e+00
      vertex 3.814055e+00 4.767586e+00 6.674580e+00
      vertex 4.767586e+00 3.814055e+00 6.674580e+00
    endloop
  endfacet
  facet normal 8.165347e-01 4.082102e-01 4.082102e-01
    outer loop
      vertex 5.005935e+00 5.005935e+00 5.005935e+00
      vertex 4.767586e+00 3.814055e+00 6.674580e+00
      vertex 5.244284e+00 3.337290e+00 6.197815e+00
    endloop
  endfacet
  facet normal 6.047122e-01 5.183109e-01 6.047122e-01
    outer loop
      vertex 5.005935e+00 5.005935e+00 5.005935e+00
      vertex 5.244284e+00 3.337290e+00 6.197815e+00
      vertex 6.197815e+00 3.337290e+00 5.244284e+00
    endloop
  endfacet
  facet normal 4.082102e-01 4.082102e-01 8.165347e-01
    outer loop
      vertex 5.005935e+00 5.005935e+00 5.005935e+00
      vertex 6.197815e+00 3.337290e+00 5.244284e+00
      vertex 6.674580e+00 3.814055e+00 4.767586e+00
    endloop
  endfacet
  facet normal 5.183109e-01 6.047122e-01 6.047122e-01
    outer loop
      vertex 5.005935e+00 5.005935e+00 5.005935e+00
      vertex 6.674580e+00 3.814055e+00 4.767586e+00
      vertex 6.674580e+00 4.767586e+00 3.814055e+00
    endloop
  endfacet
  facet normal 4.082102e-01 8.165347e-01 4.082102e-01
    outer loop
      vertex 5.005935e+00 5.005935e+00 5.005935e+00
      vertex 6.674580e+00 4.767586e+00 3.814055e+00
      vertex 6.197815e+00 5.244284e+00 3.337290e+00
    endloop
  endfacet
  facet normal 6.047122e-01 6.047122e-01 5.183109e-01
    outer loop
      vertex 5.005935e+00 5.005935e+00 5.005935e+00
      vertex 6.197815e+00 5.244284e+00 3.337290e+00
      vertex 5.244284e+00 6.197815e+00 3.337290e+00
    endloop
  endfacet
  facet normal 8.165347e-01 4.082102e-01 4.082102e-01
    outer loop
      vertex 5.005935e+00 5.005935e+00 5.005935e+00
      vertex 5.244284e+00 6.197815e+00 3.337290e+00
      vertex 4.767586e+00 6.674580e+00 3.814055e+00
    endloop
  endfacet
  facet normal 6.047122e-01 5.183109e-01 6.047122e-01
    outer loop
      vertex 5.005935e+00 5.005935e+00 5.005935e+00
      vertex 4.767586e+00 6.674580e+00 3.814055e+00
      vertex 3.814055e+00 6.674580e+00 4.767586e+00
    endloop
  endfacet
  facet normal 4.082102e-01 4.082102e-01 8.165347e-01
    outer loop
      vertex 5.005935e+00 5.005935e+00 5.005935e+00
      vertex 3.814055e+00 6.674580e+00 4.767586e+00
      vertex 3.337290e+00 6.197815e+00 5.244284e+00
    endloop
  endfacet
  facet normal -4.082102e-01 -8.165347e-01 -4.082102e-01
    outer loop
      vertex 3.053113e-16 1.668645e+00 3.337290e+00
      vertex 2.919263e-16 1.906994e+00 2.860525e+00
      vertex 4.767652e-01 1.430296e+00 3.337290e+00
    endloop
  endfacet
  facet normal -4.082102e-01 -8.165347e-01 4.082102e-01
    outer loop
      vertex 3.053113e-16 1.668645e+00 3.337290e+00
      vertex 4.767652e-01 1.430296e+00 3.337290e+00
      vertex 3.503132e-16 1.906994e+00 3.814055e+00
    endloop
  endfacet
  facet normal 4.082102e-01 -8.165347e-01 4.082102e-01
    outer loop
      vertex 3.053113e-16 1.668645e+00 3.337290e+00
      vertex 3.503132e-16 1.906994e+00 3.814055e+00
      vertex -4.767652e-01 1.430296e+00 3.337290e+00
    endloop
  endfacet
  facet normal 4.082102e-01 -8.165347e-01 -4.082102e-01
    outer loop
      vertex 3.053113e-16 1.668645e+00 3.337290e+00
      vertex -4.767652e-01 1.430296e+00 3.337290e+00
      vertex 2.919263e-16 1.906994e+00 2.860525e+00
    endloop
  endfacet
  facet normal 4.082102e-01 -8.165347e-01 -4.082102e-01
    outer loop
      vertex 6.674580e+00 1.668645e+00 3.337290e+00
      vertex 6.197815e+00 1.430296e+00 3.337290e+00
      vertex 6.674580e+00 1.906994e+00 2.860525e+00
    endloop
  endfacet
  facet normal -4.082102e-01 -8.165347e-01 -4.082102e-01
    outer loop
      vertex 6.674580e+00 1.668645e+00 3.337290e+00
      vertex 6.674580e+00 1.906994e+00 2.860525e+00
      vertex 7.151345e+00 1.430296e+00 3.337290e+00
    endloop
  endfacet
  facet normal -4.082102e-01 -8.165347e-01 4.082102e-01
    outer loop
      vertex 6.674580e+00 1.668645e+00 3.337290e+00
      vertex 7.151345e+00 1.430296e+00 3.337290e+00
      vertex 6.674580e+00 1.906994e+00 3.814055e+00
    endloop
  endfacet
  facet normal 4.082102e-01 -8.165347e-01 4.082102e-01
    outer loop
      vertex 6.674580e+00 1.668645e+00 3.337290e+00
      vertex 6.674580e+00 1.906994e+00 3.814055e+00
      vertex 6.197815e+00 1.430296e+00 3.337290e+00
    endloop
  endfacet
  facet normal -4.082102e-01 -4.082102e-01 -8.165347e-01
    outer loop
      vertex 3.096229e-16 3.337290e+00 1.668645e+00
      vertex 4.767652e-01 3.337290e+00 1.430296e+00
      vertex 2.919263e-16 2.860525e+00 1.906994e+00
    endloop
  endfacet
  facet normal 4.082102e-01 -4.082102e-01 -8.165347e-01
    outer loop
      vertex 3.096229e-16 3.337290e+00 1.668645e+00
      vertex 2.919263e-16 2.860525e+00 1.906994e+00
      vertex -4.767652e-01 3.337290e+00 1.430296e+00
    endloop
  endfacet
  facet normal 4.082102e-01 4.082102e-01 -8.165347e-01
    outer loop
      vertex 3.096229e-16 3.337290e+00 1.668645e+00
      vertex -4.767652e-01 3.337290e+00 1.430296e+00
      vertex 3.503132e-16 3.814055e+00 1.906994e+00
    endloop
  endfacet
  facet normal -4.082102e-01 4.082102e-01 -8.165347e-01
    outer loop
      vertex 3.096229e-16 3.337290e+00 1.668645e+00
      vertex 3.503132e-16 3.814055e+00 1.906994e+00
      vertex 4.767652e-01 3.337290e+00 1.430296e+00
    endloop
  endfacet
  facet normal -8.165347e-01 -4.082102e-01 -4.082102e-01
    outer loop
      vertex 1.668645e+00 2.249193e-16 3.337290e+00
      vertex 1.430296e+00 4.767652e-01 3.337290e+00
      vertex 1.906994e+00 1.751566e-16 2.860525e+00
    endloop
  endfacet
  facet normal -8.165347e-01 4.082102e-01 -4.082102e-01
    outer loop
      vertex 1.668645e+00 2.249193e-16 3.337290e+00
      vertex 1.906994e+00 1.751566e-16 2.860525e+00
      vertex 1.430296e+00 -4.767652e-01 3.337290e+00
    endloop
  endfacet
  facet normal -8.165347e-01 4.082102e-01 4.082102e-01
    outer loop
      vertex 1.668645e+00 2.249193e-16 3.337290e+00
      vertex 1.430296e+00 -4.767652e-01 3.337290e+00
      vertex 1.906994e+00 2.335435e-16 3.814055e+00
    endloop
  endfacet
  facet normal -8.165347e-01 -4.082102e-01 4.082102e-01
    outer loop
      vertex 1.668645e+00 2.249193e-16 3.337290e+00
      vertex 1.906994e+00 2.335435e-16 3.814055e+00
      vertex 1.430296e+00 4.767652e-01 3.337290e+00
    endloop
  endfacet
  facet normal -8.165347e-01 -4.082102e-01 -4.082102e-01
    outer loop
      vertex 1.668645e+00 3.337290e+00 6.938894e-17
      vertex 1.906994e+00 2.860525e+00 0.000000e+00
      vertex 1.430296e+00 3.337290e+00 4.767652e-01
    endloop
  endfacet
  facet normal -8.165347e-01 4.082102e-01 -4.082102e-01
    outer loop
      vertex 1.668645e+00 3.337290e+00 6.938894e-17
      vertex 1.430296e+00 3.337290e+00 4.767652e-01
      vertex 1.906994e+00 3.814055e+00 0.000000e+00
    endloop
  endfacet
  facet normal -8.165347e-01 4.082102e-01 4.082102e-01
    outer loop
      vertex 1.668645e+00 3.337290e+00 6.938894e-17
      vertex 1.906994e+00 3.814055e+00 0.000000e+00
      vertex 1.430296e+00 3.337290e+00 -4.767652e-01
    endloop
  endfacet
  facet normal -8.165347e-01 -4.082102e-01 4.082102e-01
    outer loop
      vertex 1.668645e+00 3.337290e+00 6.938894e-17
      vertex 1.430296e+00 3.337290e+00 -4.767652e-01
      vertex 1.906994e+00 2.860525e+00 0.000000e+00
    endloop
  endfacet
  facet normal -8.165347e-01 -4.082102e-01 4.082102e-01
    outer loop
      vertex 1.668645e+00 3.337290e+00 6.674580e+00
      vertex 1.430296e+00 3.337290e+00 6.197815e+00
      vertex 1.906994e+00 2.860525e+00 6.674580e+00
    endloop
  endfacet
  facet normal -8.165347e-01 -4.082102e-01 -4.082102e-01
    outer loop
      vertex 1.668645e+00 3.337290e+00 6.674580e+00
      vertex 1.906994e+00 2.860525e+00 6.674580e+00
      vertex 1.430296e+00 3.337290e+00 7.151345e+00
    endloop
  endfacet
  facet normal -8.165347e-01 4.082102e-01 -4.082102e-01
    outer loop
      vertex 1.668645e+00 3.337290e+00 6.674580e+00
      vertex 1.430296e+00 3.337290e+00 7.151345e+00
      vertex 1.906994e+00 3.814055e+00 6.674580e+00
    endloop
  endfacet
  facet normal -8.165347e-01 4.082102e-01 4.082102e-01
    outer loop
      vertex 1.668645e+00 3.337290e+00 6.674580e+00
      vertex 1.906994e+00 3.814055e+00 6.674580e+00
      vertex 1.430296e+00 3.337290e+00 6.197815e+00
    endloop
  endfacet
  facet normal -4.082102e-01 -4.082102e-01 -8.165347e-01
    outer loop
      vertex 3.337290e+00 1.526557e-16 1.668645e+00
      vertex 2.860525e+00 1.167697e-16 1.906994e+00
      vertex 3.337290e+00 4.767652e-01 1.430296e+00
    endloop
  endfacet
  facet normal 4.082102e-01 -4.082102e-01 -8.165347e-01
    outer loop
      vertex 3.337290e+00 1.526557e-16 1.668645e+00
      vertex 3.337290e+00 4.767652e-01 1.430296e+00
      vertex 3.814055e+00 1.167697e-16 1.906994e+00
    endloop
  endfacet
  facet normal 4.082102e-01 4.082102e-01 -8.165347e-01
    outer loop
      vertex 3.337290e+00 1.526557e-16 1.668645e+00
      vertex 3.814055e+00 1.167697e-16 1.906994e+00
      vertex 3.337290e+00 -4.767652e-01 1.430296e+00
    endloop
  endfacet
  facet normal -4.082102e-01 4.082102e-01 -8.165347e-01
    outer loop
      vertex 3.337290e+00 1.526557e-16 1.668645e+00
      vertex 3.337290e+00 -4.767652e-01 1.430296e+00
      vertex 2.860525e+00 1.167697e-16 1.906994e+00
    endloop
  endfacet
  facet normal -4.082102e-01 4.082102e-01 -8.165347e-01
    outer loop
      vertex 3.337290e+00 6.674580e+00 1.668645e+00
      vertex 3.337290e+00 6.197815e+00 1.430296e+00
      vertex 2.860525e+00 6.674580e+00 1.906994e+00
    endloop
  endfacet
  facet normal -4.082102e-01 -4.082102e-01 -8.165347e-01
    outer loop
      vertex 3.337290e+00 6.674580e+00 1.668645e+00
      vertex 2.860525e+00 6.674580e+00 1.906994e+00
      vertex 3.337290e+00 7.151345e+00 1.430296e+00
    endloop
  endfacet
  facet normal 4.082102e-01 -4.082102e-01 -8.165347e-01
    outer loop
      vertex 3.337290e+00 6.674580e+00 1.668645e+00
      vertex 3.337290e+00 7.151345e+00 1.430296e+00
      vertex 3.814055e+00 6.674580e+00 1.906994e+00
    endloop
  endfacet
  facet normal 4.082102e-01 4.082102e-01 -8.165347e-01
    outer loop
      vertex 3.337290e+00 6.674580e+00 1.668645e+00
      vertex 3.814055e+00 6.674580e+00 1.906994e+00
      vertex 3.337290e+00 6.197815e+00 1.430296e+00
    endloop
  endfacet
  facet normal -4.082102e-01 -8.165347e-01 -4.082102e-01
    outer loop
      vertex 3.337290e+00 1.668645e+00 6.938894e-17
      vertex 3.337290e+00 1.430296e+00 4.767652e-01
      vertex 2.860525e+00 1.906994e+00 0.000000e+00
    endloop
  endfacet
  facet normal -4.082102e-01 -8.165347e-01 4.082102e-01
    outer loop
      vertex 3.337290e+00 1.668645e+00 6.938894e-17
      vertex 2.860525e+00 1.906994e+00 0.000000e+00
      vertex 3.337290e+00 1.430296e+00 -4.767652e-01
    endloop
  endfacet
  facet normal 4.082102e-01 -8.165347e-01 4.082102e-01
    outer loop
      vertex 3.337290e+00 1.668645e+00 6.938894e-17
      vertex 3.337290e+00 1.430296e+00 -4.767652e-01
      vertex 3.814055e+00 1.906994e+00 0.000000e+00
    endloop
  endfacet
  facet normal 4.082102e-01 -8.165347e-01 -4.082102e-01
    outer loop
      vertex 3.337290e+00 1.668645e+00 6.938894e-17
      vertex 3.814055e+00 1.906994e+00 0.000000e+00
      vertex 3.337290e+00 1.430296e+00 4.767652e-01
    endloop
  endfacet
  facet normal 4.082102e-01 4.082102e-01 -8.165347e-01
    outer loop
      vertex 6.674580e+00 3.337290e+00 1.668645e+00
      vertex 6.197815e+00 3.337290e+00 1.430296e+00
      vertex 6.674580e+00 3.814055e+00 1.906994e+00
    endloop
  endfacet
  facet normal -4.082102e-01 4.082102e-01 -8.165347e-01
    outer loop
      vertex 6.674580e+00 3.337290e+00 1.668645e+00
      vertex 6.674580e+00 3.814055e+00 1.906994e+00
      vertex 7.151345e+00 3.337290e+00 1.430296e+00
    endloop
  endfacet
  facet normal -4.082102e-01 -4.082102e-01 -8.165347e-01
    outer loop
      vertex 6.674580e+00 3.337290e+00 1.668645e+00
      vertex 7.151345e+00 3.337290e+00 1.430296e+00
      vertex 6.674580e+00 2.860525e+00 1.906994e+00
    endloop
  endfacet
  facet normal 4.082102e-01 -4.082102e-01 -8.165347e-01
    outer loop
      vertex 6.674580e+00 3.337290e+00 1.668645e+00
      vertex 6.674580e+00 2.860525e+00 1.906994e+00
      vertex 6.197815e+00 3.337290e+00 1.430296e+00
    endloop
  endfacet
  facet normal -8.165347e-01 4.082102e-01 4.082102e-01
    outer loop
      vertex 1.668645e+00 6.674580e+00 3.337290e+00
      vertex 1.430296e+00 6.197815e+00 3.337290e+00
      vertex 1.906994e+00 6.674580e+00 3.814055e+00
    endloop
  endfacet
  facet normal -8.165347e-01 -4.082102e-01 4.082102e-01
    outer loop
      vertex 1.668645e+00 6.674580e+00 3.337290e+00
      vertex 1.906994e+00 6.674580e+00 3.814055e+00
      vertex 1.430296e+00 7.151345e+00 3.337290e+00
    endloop
  endfacet
  facet normal -8.165347e-01 -4.082102e-01 -4.082102e-01
    outer loop
      vertex 1.668645e+00 6.674580e+00 3.337290e+00
      vertex 1.430296e+00 7.151345e+00 3.337290e+00
      vertex 1.906994e+00 6.674580e+00 2.860525e+00
    endloop
  endfacet
  facet normal -8.165347e-01 4.082102e-01 -4.082102e-01
    outer loop
      vertex 1.668645e+00 6.674580e+00 3.337290e+00
      vertex 1.906994e+00 6.674580e+00 2.860525e+00
      vertex 1.430296e+00 6.197815e+00 3.337290e+00
    endloop
  endfacet
  facet normal 4.082102e-01 -8.165347e-01 4.082102e-01
    outer loop
      vertex 3.337290e+00 1.668645e+00 6.674580e+00
      vertex 3.337290e+00 1.430296e+00 6.197815e+00
      vertex 3.814055e+00 1.906994e+00 6.674580e+00
    endloop
  endfacet
  facet normal 4.082102e-01 -8.165347e-01 -4.082102e-01
    outer loop
      vertex 3.337290e+00 1.668645e+00 6.674580e+00
      vertex 3.814055e+00 1.906994e+00 6.674580e+00
      vertex 3.337290e+00 1.430296e+00 7.151345e+00
    endloop
  endfacet
  facet normal -4.082102e-01 -8.165347e-01 -4.082102e-01
    outer loop
      vertex 3.337290e+00 1.668645e+00 6.674580e+00
      vertex 3.337290e+00 1.430296e+00 7.151345e+00
      vertex 2.860525e+00 1.906994e+00 6.674580e+00
    endloop
  endfacet
  facet normal -4.082102e-01 -8.165347e-01 4.082102e-01
    outer loop
      vertex 3.337290e+00 1.668645e+00 6.674580e+00
      vertex 2.860525e+00 1.906994e+00 6.674580e+00
      vertex 3.337290e+00 1.430296e+00 6.197815e+00
    endloop
  endfacet
  facet normal -4.082102e-01 -4.082102e-01 8.165347e-01
    outer loop
      vertex 4.440892e-16 3.337290e+00 5.005935e+00
      vertex 4.670871e-16 2.860525e+00 4.767586e+00
      vertex 4.767652e-01 3.337290e+00 5.244284e+00
    endloop
  endfacet
  facet normal -4.082102e-01 4.082102e-01 8.165347e-01
    outer loop
      vertex 4.440892e-16 3.337290e+00 5.005935e+00
      vertex 4.767652e-01 3.337290e+00 5.244284e+00
      vertex 5.254740e-16 3.814055e+00 4.767586e+00
    endloop
  endfacet
  facet normal 4.082102e-01 4.082102e-01 8.165347e-01
    outer loop
      vertex 4.440892e-16 3.337290e+00 5.005935e+00
      vertex 5.254740e-16 3.814055e+00 4.767586e+00
      vertex -4.767652e-01 3.337290e+00 5.244284e+00
    endloop
  endfacet
  facet normal 4.082102e-01 -4.082102e-01 8.165347e-01
    outer loop
      vertex 4.440892e-16 3.337290e+00 5.005935e+00
      vertex -4.767652e-01 3.337290e+00 5.244284e+00
      vertex 4.670871e-16 2.860525e+00 4.767586e+00
    endloop
  endfacet
  facet normal 4.082102e-01 -4.082102e-01 8.165347e-01
    outer loop
      vertex 6.674580e+00 3.337290e+00 5.005935e+00
      vertex 6.197815e+00 3.337290e+00 5.244284e+00
      vertex 6.674580e+00 2.860525e+00 4.767586e+00
    endloop
  endfacet
  facet normal -4.082102e-01 -4.082102e-01 8.165347e-01
    outer loop
      vertex 6.674580e+00 3.337290e+00 5.005935e+00
      vertex 6.674580e+00 2.860525e+00 4.767586e+00
      vertex 7.151345e+00 3.337290e+00 5.244284e+00
    endloop
  endfacet
  facet normal -4.082102e-01 4.082102e-01 8.165347e-01
    outer loop
      vertex 6.674580e+00 3.337290e+00 5.005935e+00
      vertex 7.151345e+00 3.337290e+00 5.244284e+00
      vertex 6.674580e+00 3.814055e+00 4.767586e+00
    endloop
  endfacet
  facet normal 4.082102e-01 4.082102e-01 8.165347e-01
    outer loop
      vertex 6.674580e+00 3.337290e+00 5.005935e+00
      vertex 6.674580e+00 3.814055e+00 4.767586e+00
      vertex 6.197815e+00 3.337290e+00 5.244284e+00
    endloop
  endfacet
  facet normal -4.082102e-01 8.165347e-01 -4.082102e-01
    outer loop
      vertex 4.505576e-16 5.005935e+00 3.337290e+00
      vertex 4.767652e-01 5.244284e+00 3.337290e+00
      vertex 4.670871e-16 4.767586e+00 2.860525e+00
    endloop
  endfacet
  facet normal 4.082102e-01 8.165347e-01 -4.082102e-01
    outer loop
      vertex 4.505576e-16 5.005935e+00 3.337290e+00
      vertex 4.670871e-16 4.767586e+00 2.860525e+00
      vertex -4.767652e-01 5.244284e+00 3.337290e+00
    endloop
  endfacet
  facet normal 4.082102e-01 8.165347e-01 4.082102e-01
    outer loop
      vertex 4.505576e-16 5.005935e+00 3.337290e+00
      vertex -4.767652e-01 5.244284e+00 3.337290e+00
      vertex 5.254740e-16 4.767586e+00 3.814055e+00
    endloop
  endfacet
  facet normal -4.082102e-01 8.165347e-01 4.082102e-01
    outer loop
      vertex 4.505576e-16 5.005935e+00 3.337290e+00
      vertex 5.254740e-16 4.767586e+00 3.814055e+00
      vertex 4.767652e-01 5.244284e+00 3.337290e+00
    endloop
  endfacet
  facet normal -4.082102e-01 -4.082102e-01 8.165347e-01
    outer loop
      vertex 3.337290e+00 2.950272e-16 5.005935e+00
      vertex 3.337290e+00 4.767652e-01 5.244284e+00
      vertex 2.860525e+00 2.919304e-16 4.767586e+00
    endloop
  endfacet
  facet normal -4.082102e-01 4.082102e-01 8.165347e-01
    outer loop
      vertex 3.337290e+00 2.950272e-16 5.005935e+00
      vertex 2.860525e+00 2.919304e-16 4.767586e+00
      vertex 3.337290e+00 -4.767652e-01 5.244284e+00
    endloop
  endfacet
  facet normal 4.082102e-01 4.082102e-01 8.165347e-01
    outer loop
      vertex 3.337290e+00 2.950272e-16 5.005935e+00
      vertex 3.337290e+00 -4.767652e-01 5.244284e+00
      vertex 3.814055e+00 2.919304e-16 4.767586e+00
    endloop
  endfacet
  facet normal 4.082102e-01 -4.082102e-01 8.165347e-01
    outer loop
      vertex 3.337290e+00 2.950272e-16 5.005935e+00
      vertex 3.814055e+00 2.919304e-16 4.767586e+00
      vertex 3.337290e+00 4.767652e-01 5.244284e+00
    endloop
  endfacet
  facet normal -4.082102e-01 8.165347e-01 -4.082102e-01
    outer loop
      vertex 3.337290e+00 5.005935e+00 6.938894e-17
      vertex 2.860525e+00 4.767586e+00 0.000000e+00
      vertex 3.337290e+00 5.244284e+00 4.767652e-01
    endloop
  endfacet
  facet normal 4.082102e-01 8.165347e-01 -4.082102e-01
    outer loop
      vertex 3.337290e+00 5.005935e+00 6.938894e-17
      vertex 3.337290e+00 5.244284e+00 4.767652e-01
      vertex 3.814055e+00 4.767586e+00 0.000000e+00
    endloop
  endfacet
  facet normal 4.082102e-01 8.165347e-01 4.082102e-01
    outer loop
      vertex 3.337290e+00 5.005935e+00 6.938894e-17
      vertex 3.814055e+00 4.767586e+00 0.000000e+00
      vertex 3.337290e+00 5.244284e+00 -4.767652e-01
    endloop
  endfacet
  facet normal -4.082102e-01 8.165347e-01 4.082102e-01
    outer loop
      vertex 3.337290e+00 5.005935e+00 6.938894e-17
      vertex 3.337290e+00 5.244284e+00 -4.767652e-01
      vertex 2.860525e+00 4.767586e+00 0.000000e+00
    endloop
  endfacet
  facet normal -4.082102e-01 8.165347e-01 4.082102e-01
    outer loop
      vertex 3.337290e+00 5.005935e+00 6.674580e+00
      vertex 3.337290e+00 5.244284e+00 6.197815e+00
      vertex 2.860525e+00 4.767586e+00 6.674580e+00
    endloop
  endfacet
  facet normal -4.082102e-01 8.165347e-01 -4.082102e-01
    outer loop
      vertex 3.337290e+00 5.005935e+00 6.674580e+00
      vertex 2.860525e+00 4.767586e+00 6.674580e+00
      vertex 3.337290e+00 5.244284e+00 7.151345e+00
    endloop
  endfacet
  facet normal 4.082102e-01 8.165347e-01 -4.082102e-01
    outer loop
      vertex 3.337290e+00 5.005935e+00 6.674580e+00
      vertex 3.337290e+00 5.244284e+00 7.151345e+00
      vertex 3.814055e+00 4.767586e+00 6.674580e+00
    endloop
  endfacet
  facet normal 4.082102e-01 8.165347e-01 4.082102e-01
    outer loop
      vertex 3.337290e+00 5.005935e+00 6.674580e+00
      vertex 3.814055e+00 4.767586e+00 6.674580e+00
      vertex 3.337290e+00 5.244284e+00 6.197815e+00
    endloop
  endfacet
  facet normal 8.165347e-01 -4.082102e-01 -4.082102e-01
    outer loop
      vertex 5.005935e+00 2.220446e-16 3.337290e+00
      vertex 4.767586e+00 1.751566e-16 2.860525e+00
      vertex 5.244284e+00 4.767652e-01 3.337290e+00
    endloop
  endfacet
  facet normal 8.165347e-01 -4.082102e-01 4.082102e-01
    outer loop
      vertex 5.005935e+00 2.220446e-16 3.337290e+00
      vertex 5.244284e+00 4.767652e-01 3.337290e+00
      vertex 4.767586e+00 2.335435e-16 3.814055e+00
    endloop
  endfacet
  facet normal 8.165347e-01 4.082102e-01 4.082102e-01
    outer loop
      vertex 5.005935e+00 2.220446e-16 3.337290e+00
      vertex 4.767586e+00 2.335435e-16 3.814055e+00
      vertex 5.244284e+00 -4.767652e-01 3.337290e+00
    endloop
  endfacet
  facet normal 8.165347e-01 4.082102e-01 -4.082102e-01
    outer loop
      vertex 5.005935e+00 2.220446e-16 3.337290e+00
      vertex 5.244284e+00 -4.767652e-01 3.337290e+00
      vertex 4.767586e+00 1.751566e-16 2.860525e+00
    endloop
  endfacet
  facet normal 8.165347e-01 4.082102e-01 -4.082102e-01
    outer loop
      vertex 5.005935e+00 6.674580e+00 3.337290e+00
      vertex 5.244284e+00 6.197815e+00 3.337290e+00
      vertex 4.767586e+00 6.674580e+00 2.860525e+00
    endloop
  endfacet
  facet normal 8.165347e-01 -4.082102e-01 -4.082102e-01
    outer loop
      vertex 5.005935e+00 6.674580e+00 3.337290e+00
      vertex 4.767586e+00 6.674580e+00 2.860525e+00
      vertex 5.244284e+00 7.151345e+00 3.337290e+00
    endloop
  endfacet
  facet normal 8.165347e-01 -4.082102e-01 4.082102e-01
    outer loop
      vertex 5.005935e+00 6.674580e+00 3.337290e+00
      vertex 5.244284e+00 7.151345e+00 3.337290e+00
      vertex 4.767586e+00 6.674580e+00 3.814055e+00
    endloop
  endfacet
  facet normal 8.165347e-01 4.082102e-01 4.082102e-01
    outer loop
      vertex 5.005935e+00 6.674580e+00 3.337290e+00
      vertex 4.767586e+00 6.674580e+00 3.814055e+00
      vertex 5.244284e+00 6.197815e+00 3.337290e+00
    endloop
  endfacet
  facet normal 8.165347e-01 -4.082102e-01 -4.082102e-01
    outer loop
      vertex 5.005935e+00 3.337290e+00 6.938894e-17
      vertex 5.244284e+00 3.337290e+00 4.767652e-01
      vertex 4.767586e+00 2.860525e+00 0.000000e+00
    endloop
  endfacet
  facet normal 8.165347e-01 -4.082102e-01 4.082102e-01
    outer loop
      vertex 5.005935e+00 3.337290e+00 6.938894e-17
      vertex 4.767586e+00 2.860525e+00 0.000000e+00
      vertex 5.244284e+00 3.337290e+00 -4.767652e-01
    endloop
  endfacet
  facet normal 8.165347e-01 4.082102e-01 4.082102e-01
    outer loop
      vertex 5.005935e+00 3.337290e+00 6.938894e-17
      vertex 5.244284e+00 3.337290e+00 -4.767652e-01
      vertex 4.767586e+00 3.814055e+00 0.000000e+00
    endloop
  endfacet
  facet normal 8.165347e-01 4.082102e-01 -4.082102e-01
    outer loop
      vertex 5.005935e+00 3.337290e+00 6.938894e-17
      vertex 4.767586e+00 3.814055e+00 0.000000e+00
      vertex 5.244284e+00 3.337290e+00 4.767652e-01
    endloop
  endfacet
  facet normal 4.082102e-01 8.165347e-01 4.082102e-01
    outer loop
      vertex 6.674580e+00 5.005935e+00 3.337290e+00
      vertex 6.197815e+00 5.244284e+00 3.337290e+00
      vertex 6.674580e+00 4.767586e+00 3.814055e+00
    endloop
  endfacet
  facet normal -4.082102e-01 8.165347e-01 4.082102e-01
    outer loop
      vertex 6.674580e+00 5.005935e+00 3.337290e+00
      vertex 6.674580e+00 4.767586e+00 3.814055e+00
      vertex 7.151345e+00 5.244284e+00 3.337290e+00
    endloop
  endfacet
  facet normal -4.082102e-01 8.165347e-01 -4.082102e-01
    outer loop
      vertex 6.674580e+00 5.005935e+00 3.337290e+00
      vertex 7.151345e+00 5.244284e+00 3.337290e+00
      vertex 6.674580e+00 4.767586e+00 2.860525e+00
    endloop
  endfacet
  facet normal 4.082102e-01 8.165347e-01 -4.082102e-01
    outer loop
      vertex 6.674580e+00 5.005935e+00 3.337290e+00
      vertex 6.674580e+00 4.767586e+00 2.860525e+00
      vertex 6.197815e+00 5.244284e+00 3.337290e+00
    endloop
  endfacet
  facet normal 4.082102e-01 4.082102e-01 8.165347e-01
    outer loop
      vertex 3.337290e+00 6.674580e+00 5.005935e+00
      vertex 3.337290e+00 6.197815e+00 5.244284e+00
      vertex 3.814055e+00 6.674580e+00 4.767586e+00
    endloop
  endfacet
  facet normal 4.082102e-01 -4.082102e-01 8.165347e-01
    outer loop
      vertex 3.337290e+00 6.674580e+00 5.005935e+00
      vertex 3.814055e+00 6.674580e+00 4.767586e+00
      vertex 3.337290e+00 7.151345e+00 5.244284e+00
    endloop
  endfacet
  facet normal -4.082102e-01 -4.082102e-01 8.165347e-01
    outer loop
      vertex 3.337290e+00 6.674580e+00 5.005935e+00
      vertex 3.337290e+00 7.151345e+00 5.244284e+00
      vertex 2.860525e+00 6.674580e+00 4.767586e+00
    endloop
  endfacet
  facet normal -4.082102e-01 4.082102e-01 8.165347e-01
    outer loop
      vertex 3.337290e+00 6.674580e+00 5.005935e+00
      vertex 2.860525e+00 6.674580e+00 4.767586e+00
      vertex 3.337290e+00 6.197815e+00 5.244284e+00
    endloop
  endfacet
  facet normal 8.165347e-01 4.082102e-01 4.082102e-01
    outer loop
      vertex 5.005935e+00 3.337290e+00 6.674580e+00
      vertex 5.244284e+00 3.337290e+00 6.197815e+00
      vertex 4.767586e+00 3.814055e+00 6.674580e+00
    endloop
  endfacet
  facet normal 8.165347e-01 4.082102e-01 -4.082102e-01
    outer loop
      vertex 5.005935e+00 3.337290e+00 6.674580e+00
      vertex 4.767586e+00 3.814055e+00 6.674580e+00
      vertex 5.244284e+00 3.337290e+00 7.151345e+00
    endloop
  endfacet
  facet normal 8.165347e-01 -4.082102e-01 -4.082102e-01
    outer loop
      vertex 5.005935e+00 3.337290e+00 6.674580e+00
      vertex 5.244284e+00 3.337290e+00 7.151345e+00
      vertex 4.767586e+00 2.860525e+00 6.674580e+00
    endloop
  endfacet
  facet normal 8.165347e-01 -4.082102e-01 4.082102e-01
    outer loop
      vertex 5.005935e+00 3.337290e+00 6.674580e+00
      vertex 4.767586e+00 2.860525e+00 6.674580e+00
      vertex 5.244284e+00 3.337290e+00 6.197815e+00
    endloop
  endfacet
endsolid surface_model
