solid surface_model
  facet normal -1.856553e-01 -9.282767e-01 -3.222337e-01
    outer loop
      vertex 5.778300e-01 5.778300e-01 1.997505e+00
      vertex 1.448068e-16 8.667450e-01 1.498129e+00
      vertex 8.667450e-01 8.667450e-01 9.987525e-01
    endloop
  endfacet
  facet normal -9.282767e-01 -1.856553e-01 -3.222337e-01
    outer loop
      vertex 5.778300e-01 5.778300e-01 1.997505e+00
      vertex 8.667450e-01 8.667450e-01 9.987525e-01
      vertex 8.667450e-01 9.173393e-17 1.498129e+00
    endloop
  endfacet
  facet normal -8.944272e-01 -4.472136e-01 0.000000e+00
    outer loop
      vertex 5.778300e-01 5.778300e-01 1.997505e+00
      vertex 8.667450e-01 9.173393e-17 1.498129e+00
      vertex 8.667450e-01 1.528899e-16 2.496881e+00
    endloop
  endfacet
  facet normal -9.282767e-01 -1.856553e-01 3.222337e-01
    outer loop
      vertex 5.778300e-01 5.778300e-01 1.997505e+00
      vertex 8.667450e-01 1.528899e-16 2.496881e+00
      vertex 8.667450e-01 8.667450e-01 2.996258e+00
    endloop
  endfacet
  facet normal -1.856553e-01 -9.282767e-01 3.222337e-01
    outer loop
      vertex 5.778300e-01 5.778300e-01 1.997505e+00
      vertex 8.667450e-01 8.667450e-01 2.996258e+00
      vertex 2.059627e-16 8.667450e-01 2.496881e+00
    endloop
  endfacet
  facet normal -4.472136e-01 -8.944272e-01 4.301672e-17
    outer loop
      vertex 5.778300e-01 5.778300e-01 1.997505e+00
      vertex 2.059627e-16 8.667450e-01 2.496881e+00
      vertex 1.448068e-16 8.667450e-01 1.498129e+00
    endloop
  endfacet
  facet normal -4.466557e-01 -4.466557e-01 -7.752402e-01
    outer loop
      vertex 1.526557e-16 1.733490e+00 9.987525e-01
      vertex 8.667450e-01 8.667450e-01 9.987525e-01
      vertex 1.448068e-16 8.667450e-01 1.498129e+00
    endloop
  endfacet
  facet normal 4.466557e-01 -4.466557e-01 -7.752402e-01
    outer loop
      vertex 1.526557e-16 1.733490e+00 9.987525e-01
      vertex 1.448068e-16 8.667450e-01 1.498129e+00
      vertex -8.667450e-01 8.667450e-01 9.987525e-01
    endloop
  endfacet
  facet normal 4.466557e-01 -4.466557e-01 -7.752402e-01
    outer loop
      vertex 1.526557e-16 1.733490e+00 9.987525e-01
      vertex -8.667450e-01 8.667450e-01 9.987525e-01
      vertex -8.667450e-01 1.733490e+00 4.993763e-01
    endloop
  endfacet
  facet normal 4.466557e-01 4.466557e-01 -7.752402e-01
    outer loop
      vertex 1.526557e-16 1.733490e+00 9.987525e-01
      vertex -8.667450e-01 1.733490e+00 4.993763e-01
      vertex -8.667450e-01 2.600235e+00 9.987525e-01
    endloop
  endfacet
  facet normal 4.466557e-01 4.466557e-01 -7.752402e-01
    outer loop
      vertex 1.526557e-16 1.733490e+00 9.987525e-01
      vertex -8.667450e-01 2.600235e+00 9.987525e-01
      vertex 2.509524e-16 2.600235e+00 1.498129e+00
    endloop
  endfacet
  facet normal -4.466557e-01 4.466557e-01 -7.752402e-01
    outer loop
      vertex 1.526557e-16 1.733490e+00 9.987525e-01
      vertex 2.509524e-16 2.600235e+00 1.498129e+00
      vertex 8.667450e-01 2.600235e+00 9.987525e-01
    endloop
  endfacet
  facet normal -4.466557e-01 4.466557e-01 -7.752402e-01
    outer loop
      vertex 1.526557e-16 1.733490e+00 9.987525e-01
      vertex 8.667450e-01 2.600235e+00 9.987525e-01
      vertex 8.667450e-01 1.733490e+00 4.993763e-01
    endloop
  endfacet
  facet normal -4.466557e-01 -4.466557e-01 -7.752402e-01
    outer loop
      vertex 1.526557e-16 1.733490e+00 9.987525e-01
      vertex 8.667450e-01 1.733490e+00 4.993763e-01
      vertex 8.667450e-01 8.667450e-01 9.987525e-01
    endloop
  endfacet
  facet normal 1.856553e-01 -9.282767e-01 -3.222337e-01
    outer loop
      vertex 2.889150e+00 5.778300e-01 1.997505e+00
      vertex 2.600235e+00 8.667450e-01 9.987525e-01
      vertex 3.466980e+00 8.667450e-01 1.498129e+00
    endloop
  endfacet
  facet normal 4.472136e-01 -8.944272e-01 0.000000e+00
    outer loop
      vertex 2.889150e+00 5.778300e-01 1.997505e+00
      vertex 3.466980e+00 8.667450e-01 1.498129e+00
      vertex 3.466980e+00 8.667450e-01 2.496881e+00
    endloop
  endfacet
  facet normal 1.856553e-01 -9.282767e-01 3.222337e-01
    outer loop
      vertex 2.889150e+00 5.778300e-01 1.997505e+00
      vertex 3.466980e+00 8.667450e-01 2.496881e+00
      vertex 2.600235e+00 8.667450e-01 2.996258e+00
    endloop
  endfacet
  facet normal 9.282767e-01 -1.856553e-01 3.222337e-01
    outer loop
      vertex 2.889150e+00 5.778300e-01 1.997505e+00
      vertex 2.600235e+00 8.667450e-01 2.996258e+00
      vertex 2.600235e+00 1.528899e-16 2.496881e+00
    endloop
  endfacet
  facet normal 8.944272e-01 -4.472136e-01 0.000000e+00
    outer loop
      vertex 2.889150e+00 5.778300e-01 1.997505e+00
      vertex 2.600235e+00 1.528899e-16 2.496881e+00
      vertex 2.600235e+00 9.173393e-17 1.498129e+00
    endloop
  endfacet
  facet normal 9.282767e-01 -1.856553e-01 -3.222337e-01
    outer loop
      vertex 2.889150e+00 5.778300e-01 1.997505e+00
      vertex 2.600235e+00 9.173393e-17 1.498129e+00
      vertex 2.600235e+00 8.667450e-01 9.987525e-01
    endloop
  endfacet
  facet normal -4.466557e-01 -4.466557e-01 -7.752402e-01
    outer loop
      vertex 1.733490e+00 1.110223e-16 9.987525e-01
      vertex 8.667450e-01 9.173393e-17 1.498129e+00
      vertex 8.667450e-01 8.667450e-01 9.987525e-01
    endloop
  endfacet
  facet normal -4.466557e-01 -4.466557e-01 -7.752402e-01
    outer loop
      vertex 1.733490e+00 1.110223e-16 9.987525e-01
      vertex 8.667450e-01 8.667450e-01 9.987525e-01
      vertex 1.733490e+00 8.667450e-01 4.993763e-01
    endloop
  endfacet
  facet normal 4.466557e-01 -4.466557e-01 -7.752402e-01
    outer loop
      vertex 1.733490e+00 1.110223e-16 9.987525e-01
      vertex 1.733490e+00 8.667450e-01 4.993763e-01
      vertex 2.600235e+00 8.667450e-01 9.987525e-01
    endloop
  endfacet
  facet normal 4.466557e-01 -4.466557e-01 -7.752402e-01
    outer loop
      vertex 1.733490e+00 1.110223e-16 9.987525e-01
      vertex 2.600235e+00 8.667450e-01 9.987525e-01
      vertex 2.600235e+00 9.173393e-17 1.498129e+00
    endloop
  endfacet
  facet normal 4.466557e-01 4.466557e-01 -7.752402e-01
    outer loop
      vertex 1.733490e+00 1.110223e-16 9.987525e-01
      vertex 2.600235e+00 9.173393e-17 1.498129e+00
      vertex 2.600235e+00 -8.667450e-01 9.987525e-01
    endloop
  endfacet
  facet normal 4.466557e-01 4.466557e-01 -7.752402e-01
    outer loop
      vertex 1.733490e+00 1.110223e-16 9.987525e-01
      vertex 2.600235e+00 -8.667450e-01 9.987525e-01
      vertex 1.733490e+00 -8.667450e-01 4.993763e-01
    endloop
  endfacet
  facet normal -4.466557e-01 4.466557e-01 -7.752402e-01
    outer loop
      vertex 1.733490e+00 1.110223e-16 9.987525e-01
      vertex 1.733490e+00 -8.667450e-01 4.993763e-01
      vertex 8.667450e-01 -8.667450e-01 9.987525e-01
    endloop
  endfacet
  facet normal -4.466557e-01 4.466557e-01 -7.752402e-01
    outer loop
      vertex 1.733490e+00 1.110223e-16 9.987525e-01
      vertex 8.667450e-01 -8.667450e-01 9.987525e-01
      vertex 8.667450e-01 9.173393e-17 1.498129e+00
    endloop
  endfacet
  facet normal -9.282767e-01 1.856553e-01 -3.222337e-01
    outer loop
      vertex 5.778300e-01 -5.778300e-01 1.997505e+00
      vertex 8.667450e-01 9.173393e-17 1.498129e+00
      vertex 8.667450e-01 -8.667450e-01 9.987525e-01
    endloop
  endfacet
  facet normal -1.856553e-01 9.282767e-01 -3.222337e-01
    outer loop
      vertex 5.778300e-01 -5.778300e-01 1.997505e+00
      vertex 8.667450e-01 -8.667450e-01 9.987525e-01
      vertex 3.866110e-17 -8.667450e-01 1.498129e+00
    endloop
  endfacet
  facet normal -4.472136e-01 8.944272e-01 4.301672e-17
    outer loop
      vertex 5.778300e-01 -5.778300e-01 1.997505e+00
      vertex 3.866110e-17 -8.667450e-01 1.498129e+00
      vertex 9.981706e-17 -8.667450e-01 2.496881e+00
    endloop
  endfacet
  facet normal -1.856553e-01 9.282767e-01 3.222337e-01
    outer loop
      vertex 5.778300e-01 -5.778300e-01 1.997505e+00
      vertex 9.981706e-17 -8.667450e-01 2.496881e+00
      vertex 8.667450e-01 -8.667450e-01 2.996258e+00
    endloop
  endfacet
  facet normal -9.282767e-01 1.856553e-01 3.222337e-01
    outer loop
      vertex 5.778300e-01 -5.778300e-01 1.997505e+00
      vertex 8.667450e-01 -8.667450e-01 2.996258e+00
      vertex 8.667450e-01 1.528899e-16 2.496881e+00
    endloop
  endfacet
  facet normal -8.944272e-01 4.472136e-01 0.000000e+00
    outer loop
      vertex 5.778300e-01 -5.778300e-01 1.997505e+00
      vertex 8.667450e-01 1.528899e-16 2.496881e+00
      vertex 8.667450e-01 9.173393e-17 1.498129e+00
    endloop
  endfacet
  facet normal -4.466557e-01 4.466557e-01 -7.752402e-01
    outer loop
      vertex 1.733490e+00 3.466980e+00 9.987525e-01
      vertex 8.667450e-01 2.600235e+00 9.987525e-01
      vertex 8.667450e-01 3.466980e+00 1.498129e+00
    endloop
  endfacet
  facet normal -4.466557e-01 -4.466557e-01 -7.752402e-01
    outer loop
      vertex 1.733490e+00 3.466980e+00 9.987525e-01
      vertex 8.667450e-01 3.466980e+00 1.498129e+00
      vertex 8.667450e-01 4.333725e+00 9.987525e-01
    endloop
  endfacet
  facet normal -4.466557e-01 -4.466557e-01 -7.752402e-01
    outer loop
      vertex 1.733490e+00 3.466980e+00 9.987525e-01
      vertex 8.667450e-01 4.333725e+00 9.987525e-01
      vertex 1.733490e+00 4.333725e+00 4.993763e-01
    endloop
  endfacet
  facet normal 4.466557e-01 -4.466557e-01 -7.752402e-01
    outer loop
      vertex 1.733490e+00 3.466980e+00 9.987525e-01
      vertex 1.733490e+00 4.333725e+00 4.993763e-01
      vertex 2.600235e+00 4.333725e+00 9.987525e-01
    endloop
  endfacet
  facet normal 4.466557e-01 -4.466557e-01 -7.752402e-01
    outer loop
      vertex 1.733490e+00 3.466980e+00 9.987525e-01
      vertex 2.600235e+00 4.333725e+00 9.987525e-01
      vertex 2.600235e+00 3.466980e+00 1.498129e+00
    endloop
  endfacet
  facet normal 4.466557e-01 4.466557e-01 -7.752402e-01
    outer loop
      vertex 1.733490e+00 3.466980e+00 9.987525e-01
      vertex 2.600235e+00 3.466980e+00 1.498129e+00
      vertex 2.600235e+00 2.600235e+00 9.987525e-01
    endloop
  endfacet
  facet normal 4.466557e-01 4.466557e-01 -7.752402e-01
    outer loop
      vertex 1.733490e+00 3.466980e+00 9.987525e-01
      vertex 2.600235e+00 2.600235e+00 9.987525e-01
      vertex 1.733490e+00 2.600235e+00 4.993763e-01
    endloop
  endfacet
  facet normal -4.466557e-01 4.466557e-01 -7.752402e-01
    outer loop
      vertex 1.733490e+00 3.466980e+00 9.987525e-01
      vertex 1.733490e+00 2.600235e+00 4.993763e-01
      vertex 8.667450e-01 2.600235e+00 9.987525e-01
    endloop
  endfacet
  facet normal -4.466557e-01 -4.466557e-01 7.752402e-01
    outer loop
      vertex 2.220446e-16 1.733490e+00 2.996257e+00
      vertex 2.059627e-16 8.667450e-01 2.496881e+00
      vertex 8.667450e-01 8.667450e-01 2.996258e+00
    endloop
  endfacet
  facet normal -4.466557e-01 -4.466557e-01 7.752402e-01
    outer loop
      vertex 2.220446e-16 1.733490e+00 2.996257e+00
      vertex 8.667450e-01 8.667450e-01 2.996258e+00
      vertex 8.667450e-01 1.733490e+00 3.495634e+00
    endloop
  endfacet
  facet normal -4.466557e-01 4.466557e-01 7.752402e-01
    outer loop
      vertex 2.220446e-16 1.733490e+00 2.996257e+00
      vertex 8.667450e-01 1.733490e+00 3.495634e+00
      vertex 8.667450e-01 2.600235e+00 2.996258e+00
    endloop
  endfacet
  facet normal -4.466557e-01 4.466557e-01 7.752402e-01
    outer loop
      vertex 2.220446e-16 1.733490e+00 2.996257e+00
      vertex 8.667450e-01 2.600235e+00 2.996258e+00
      vertex 3.121084e-16 2.600235e+00 2.496881e+00
    endloop
  endfacet
  facet normal 4.466557e-01 4.466557e-01 7.752402e-01
    outer loop
      vertex 2.220446e-16 1.733490e+00 2.996257e+00
      vertex 3.121084e-16 2.600235e+00 2.496881e+00
      vertex -8.667450e-01 2.600235e+00 2.996258e+00
    endloop
  endfacet
  facet normal 4.466557e-01 4.466557e-01 7.752402e-01
    outer loop
      vertex 2.220446e-16 1.733490e+00 2.996257e+00
      vertex -8.667450e-01 2.600235e+00 2.996258e+00
      vertex -8.667450e-01 1.733490e+00 3.495634e+00
    endloop
  endfacet
  facet normal 4.466557e-01 -4.466557e-01 7.752402e-01
    outer loop
      vertex 2.220446e-16 1.733490e+00 2.996257e+00
      vertex -8.667450e-01 1.733490e+00 3.495634e+00
      vertex -8.667450e-01 8.667450e-01 2.996258e+00
    endloop
  endfacet
  facet normal 4.466557e-01 -4.466557e-01 7.752402e-01
    outer loop
      vertex 2.220446e-16 1.733490e+00 2.996257e+00
      vertex -8.667450e-01 8.667450e-01 2.996258e+00
      vertex 2.059627e-16 8.667450e-01 2.496881e+00
    endloop
  endfacet
  facet normal 1.856553e-01 -9.282767e-01 3.222337e-01
    outer loop
      vertex -5.778300e-01 5.778300e-01 1.997505e+00
      vertex 2.059627e-16 8.667450e-01 2.496881e+00
      vertex -8.667450e-01 8.667450e-01 2.996258e+00
    endloop
  endfacet
  facet normal 9.282767e-01 -1.856553e-01 3.222337e-01
    outer loop
      vertex -5.778300e-01 5.778300e-01 1.997505e+00
      vertex -8.667450e-01 8.667450e-01 2.996258e+00
      vertex -8.667450e-01 1.528899e-16 2.496881e+00
    endloop
  endfacet
  facet normal 8.944272e-01 -4.472136e-01 0.000000e+00
    outer loop
      vertex -5.778300e-01 5.778300e-01 1.997505e+00
      vertex -8.667450e-01 1.528899e-16 2.496881e+00
      vertex -8.667450e-01 9.173393e-17 1.498129e+00
    endloop
  endfacet
  facet normal 9.282767e-01 -1.856553e-01 -3.222337e-01
    outer loop
      vertex -5.778300e-01 5.778300e-01 1.997505e+00
      vertex -8.667450e-01 9.173393e-17 1.498129e+00
      vertex -8.667450e-01 8.667450e-01 9.987525e-01
    endloop
  endfacet
  facet normal 1.856553e-01 -9.282767e-01 -3.222337e-01
    outer loop
      vertex -5.778300e-01 5.778300e-01 1.997505e+00
      vertex -8.667450e-01 8.667450e-01 9.987525e-01
      vertex 1.448068e-16 8.667450e-01 1.498129e+00
    endloop
  endfacet
  facet normal 4.472136e-01 -8.944272e-01 -4.301672e-17
    outer loop
      vertex -5.778300e-01 5.778300e-01 1.997505e+00
      vertex 1.448068e-16 8.667450e-01 1.498129e+00
      vertex 2.059627e-16 8.667450e-01 2.496881e+00
    endloop
  endfacet
  facet normal 4.466557e-01 -4.466557e-01 7.752402e-01
    outer loop
      vertex 3.466980e+00 1.733490e+00 2.996258e+00
      vertex 2.600235e+00 8.667450e-01 2.996258e+00
      vertex 3.466980e+00 8.667450e-01 2.496881e+00
    endloop
  endfacet
  facet normal -4.466557e-01 -4.466557e-01 7.752402e-01
    outer loop
      vertex 3.466980e+00 1.733490e+00 2.996258e+00
      vertex 3.466980e+00 8.667450e-01 2.496881e+00
      vertex 4.333725e+00 8.667450e-01 2.996258e+00
    endloop
  endfacet
  facet normal -4.466557e-01 -4.466557e-01 7.752402e-01
    outer loop
      vertex 3.466980e+00 1.733490e+00 2.996258e+00
      vertex 4.333725e+00 8.667450e-01 2.996258e+00
      vertex 4.333725e+00 1.733490e+00 3.495634e+00
    endloop
  endfacet
  facet normal -4.466557e-01 4.466557e-01 7.752402e-01
    outer loop
      vertex 3.466980e+00 1.733490e+00 2.996258e+00
      vertex 4.333725e+00 1.733490e+00 3.495634e+00
      vertex 4.333725e+00 2.600235e+00 2.996258e+00
    endloop
  endfacet
  facet normal -4.466557e-01 4.466557e-01 7.752402e-01
    outer loop
      vertex 3.466980e+00 1.733490e+00 2.996258e+00
      vertex 4.333725e+00 2.600235e+00 2.996258e+00
      vertex 3.466980e+00 2.600235e+00 2.496881e+00
    endloop
  endfacet
  facet normal 4.466557e-01 4.466557e-01 7.752402e-01
    outer loop
      vertex 3.466980e+00 1.733490e+00 2.996258e+00
      vertex 3.466980e+00 2.600235e+00 2.496881e+00
      vertex 2.600235e+00 2.600235e+00 2.996258e+00
    endloop
  endfacet
  facet normal 4.466557e-01 4.466557e-01 7.752402e-01
    outer loop
      vertex 3.466980e+00 1.733490e+00 2.996258e+00
      vertex 2.600235e+00 2.600235e+00 2.996258e+00
      vertex 2.600235e+00 1.733490e+00 3.495634e+00
    endloop
  endfacet
  facet normal 4.466557e-01 -4.466557e-01 7.752402e-01
    outer loop
      vertex 3.466980e+00 1.733490e+00 2.996258e+00
      vertex 2.600235e+00 1.733490e+00 3.495634e+00
      vertex 2.600235e+00 8.667450e-01 2.996258e+00
    endloop
  endfacet
  facet normal -4.466557e-01 -4.466557e-01 7.752402e-01
    outer loop
      vertex 1.733490e+00 1.665335e-16 2.996258e+00
      vertex 8.667450e-01 8.667450e-01 2.996258e+00
      vertex 8.667450e-01 1.528899e-16 2.496881e+00
    endloop
  endfacet
  facet normal -4.466557e-01 4.466557e-01 7.752402e-01
    outer loop
      vertex 1.733490e+00 1.665335e-16 2.996258e+00
      vertex 8.667450e-01 1.528899e-16 2.496881e+00
      vertex 8.667450e-01 -8.667450e-01 2.996258e+00
    endloop
  endfacet
  facet normal -4.466557e-01 4.466557e-01 7.752402e-01
    outer loop
      vertex 1.733490e+00 1.665335e-16 2.996258e+00
      vertex 8.667450e-01 -8.667450e-01 2.996258e+00
      vertex 1.733490e+00 -8.667450e-01 3.495634e+00
    endloop
  endfacet
  facet normal 4.466557e-01 4.466557e-01 7.752402e-01
    outer loop
      vertex 1.733490e+00 1.665335e-16 2.996258e+00
      vertex 1.733490e+00 -8.667450e-01 3.495634e+00
      vertex 2.600235e+00 -8.667450e-01 2.996258e+00
    endloop
  endfacet
  facet normal 4.466557e-01 4.466557e-01 7.752402e-01
    outer loop
      vertex 1.733490e+00 1.665335e-16 2.996258e+00
      vertex 2.600235e+00 -8.667450e-01 2.996258e+00
      vertex 2.600235e+00 1.528899e-16 2.496881e+00
    endloop
  endfacet
  facet normal 4.466557e-01 -4.466557e-01 7.752402e-01
    outer loop
      vertex 1.733490e+00 1.665335e-16 2.996258e+00
      vertex 2.600235e+00 1.528899e-16 2.496881e+00
      vertex 2.600235e+00 8.667450e-01 2.996258e+00
    endloop
  endfacet
  facet normal 4.466557e-01 -4.466557e-01 7.752402e-01
    outer loop
      vertex 1.733490e+00 1.665335e-16 2.996258e+00
      vertex 2.600235e+00 8.667450e-01 2.996258e+00
      vertex 1.733490e+00 8.667450e-01 3.495634e+00
    endloop
  endfacet
  facet normal -4.466557e-01 -4.466557e-01 7.752402e-01
    outer loop
      vertex 1.733490e+00 1.665335e-16 2.996258e+00
      vertex 1.733490e+00 8.667450e-01 3.495634e+00
      vertex 8.667450e-01 8.667450e-01 2.996258e+00
    endloop
  endfacet
  facet normal -9.282767e-01 1.856553e-01 3.222337e-01
    outer loop
      vertex 5.778300e-01 2.889150e+00 1.997505e+00
      vertex 8.667450e-01 2.600235e+00 2.996258e+00
      vertex 8.667450e-01 3.466980e+00 2.496881e+00
    endloop
  endfacet
  facet normal -8.944272e-01 4.472136e-01 0.000000e+00
    outer loop
      vertex 5.778300e-01 2.889150e+00 1.997505e+00
      vertex 8.667450e-01 3.466980e+00 2.496881e+00
      vertex 8.667450e-01 3.466980e+00 1.498129e+00
    endloop
  endfacet
  facet normal -9.282767e-01 1.856553e-01 -3.222337e-01
    outer loop
      vertex 5.778300e-01 2.889150e+00 1.997505e+00
      vertex 8.667450e-01 3.466980e+00 1.498129e+00
      vertex 8.667450e-01 2.600235e+00 9.987525e-01
    endloop
  endfacet
  facet normal -1.856553e-01 9.282767e-01 -3.222337e-01
    outer loop
      vertex 5.778300e-01 2.889150e+00 1.997505e+00
      vertex 8.667450e-01 2.600235e+00 9.987525e-01
      vertex 2.509524e-16 2.600235e+00 1.498129e+00
    endloop
  endfacet
  facet normal -4.472136e-01 8.944272e-01 4.301672e-17
    outer loop
      vertex 5.778300e-01 2.889150e+00 1.997505e+00
      vertex 2.509524e-16 2.600235e+00 1.498129e+00
      vertex 3.121084e-16 2.600235e+00 2.496881e+00
    endloop
  endfacet
  facet normal -1.856553e-01 9.282767e-01 3.222337e-01
    outer loop
      vertex 5.778300e-01 2.889150e+00 1.997505e+00
      vertex 3.121084e-16 2.600235e+00 2.496881e+00
      vertex 8.667450e-01 2.600235e+00 2.996258e+00
    endloop
  endfacet
  facet normal 1.856553e-01 9.282767e-01 -3.222337e-01
    outer loop
      vertex -5.778300e-01 2.889150e+00 1.997505e+00
      vertex 2.509524e-16 2.600235e+00 1.498129e+00
      vertex -8.667450e-01 2.600235e+00 9.987525e-01
    endloop
  endfacet
  facet normal 9.282767e-01 1.856553e-01 -3.222337e-01
    outer loop
      vertex -5.778300e-01 2.889150e+00 1.997505e+00
      vertex -8.667450e-01 2.600235e+00 9.987525e-01
      vertex -8.667450e-01 3.466980e+00 1.498129e+00
    endloop
  endfacet
  facet normal 8.944272e-01 4.472136e-01 0.000000e+00
    outer loop
      vertex -5.778300e-01 2.889150e+00 1.997505e+00
      vertex -8.667450e-01 3.466980e+00 1.498129e+00
      vertex -8.667450e-01 3.466980e+00 2.496881e+00
    endloop
  endfacet
  facet normal 9.282767e-01 1.856553e-01 3.222337e-01
    outer loop
      vertex -5.778300e-01 2.889150e+00 1.997505e+00
      vertex -8.667450e-01 3.466980e+00 2.496881e+00
      vertex -8.667450e-01 2.600235e+00 2.996258e+00
    endloop
  endfacet
  facet normal 1.856553e-01 9.282767e-01 3.222337e-01
    outer loop
      vertex -5.778300e-01 2.889150e+00 1.997505e+00
      vertex -8.667450e-01 2.600235e+00 2.996258e+00
      vertex 3.121084e-16 2.600235e+00 2.496881e+00
    endloop
  endfacet
  facet normal 4.472136e-01 8.944272e-01 -4.301672e-17
    outer loop
      vertex -5.778300e-01 2.889150e+00 1.997505e+00
      vertex 3.121084e-16 2.600235e+00 2.496881e+00
      vertex 2.509524e-16 2.600235e+00 1.498129e+00
    endloop
  endfacet
  facet normal 4.466557e-01 4.466557e-01 -7.752402e-01
    outer loop
      vertex 3.466980e+00 1.733490e+00 9.987525e-01
      vertex 2.600235e+00 2.600235e+00 9.987525e-01
      vertex 3.466980e+00 2.600235e+00 1.498129e+00
    endloop
  endfacet
  facet normal -4.466557e-01 4.466557e-01 -7.752402e-01
    outer loop
      vertex 3.466980e+00 1.733490e+00 9.987525e-01
      vertex 3.466980e+00 2.600235e+00 1.498129e+00
      vertex 4.333725e+00 2.600235e+00 9.987525e-01
    endloop
  endfacet
  facet normal -4.466557e-01 4.466557e-01 -7.752402e-01
    outer loop
      vertex 3.466980e+00 1.733490e+00 9.987525e-01
      vertex 4.333725e+00 2.600235e+00 9.987525e-01
      vertex 4.333725e+00 1.733490e+00 4.993763e-01
    endloop
  endfacet
  facet normal -4.466557e-01 -4.466557e-01 -7.752402e-01
    outer loop
      vertex 3.466980e+00 1.733490e+00 9.987525e-01
      vertex 4.333725e+00 1.733490e+00 4.993763e-01
      vertex 4.333725e+00 8.667450e-01 9.987525e-01
    endloop
  endfacet
  facet normal -4.466557e-01 -4.466557e-01 -7.752402e-01
    outer loop
      vertex 3.466980e+00 1.733490e+00 9.987525e-01
      vertex 4.333725e+00 8.667450e-01 9.987525e-01
      vertex 3.466980e+00 8.667450e-01 1.498129e+00
    endloop
  endfacet
  facet normal 4.466557e-01 -4.466557e-01 -7.752402e-01
    outer loop
      vertex 3.466980e+00 1.733490e+00 9.987525e-01
      vertex 3.466980e+00 8.667450e-01 1.498129e+00
      vertex 2.600235e+00 8.667450e-01 9.987525e-01
    endloop
  endfacet
  facet normal 4.466557e-01 -4.466557e-01 -7.752402e-01
    outer loop
      vertex 3.466980e+00 1.733490e+00 9.987525e-01
      vertex 2.600235e+00 8.667450e-01 9.987525e-01
      vertex 2.600235e+00 1.733490e+00 4.993763e-01
    endloop
  endfacet
  facet normal 4.466557e-01 4.466557e-01 -7.752402e-01
    outer loop
      vertex 3.466980e+00 1.733490e+00 9.987525e-01
      vertex 2.600235e+00 1.733490e+00 4.993763e-01
      vertex 2.600235e+00 2.600235e+00 9.987525e-01
    endloop
  endfacet
  facet normal 9.282767e-01 1.856553e-01 -3.222337e-01
    outer loop
      vertex 2.889150e+00 2.889150e+00 1.997505e+00
      vertex 2.600235e+00 2.600235e+00 9.987525e-01
      vertex 2.600235e+00 3.466980e+00 1.498129e+00
    endloop
  endfacet
  facet normal 8.944272e-01 4.472136e-01 0.000000e+00
    outer loop
      vertex 2.889150e+00 2.889150e+00 1.997505e+00
      vertex 2.600235e+00 3.466980e+00 1.498129e+00
      vertex 2.600235e+00 3.466980e+00 2.496881e+00
    endloop
  endfacet
  facet normal 9.282767e-01 1.856553e-01 3.222337e-01
    outer loop
      vertex 2.889150e+00 2.889150e+00 1.997505e+00
      vertex 2.600235e+00 3.466980e+00 2.496881e+00
      vertex 2.600235e+00 2.600235e+00 2.996258e+00
    endloop
  endfacet
  facet normal 1.856553e-01 9.282767e-01 3.222337e-01
    outer loop
      vertex 2.889150e+00 2.889150e+00 1.997505e+00
      vertex 2.600235e+00 2.600235e+00 2.996258e+00
      vertex 3.466980e+00 2.600235e+00 2.496881e+00
    endloop
  endfacet
  facet normal 4.472136e-01 8.944272e-01 0.000000e+00
    outer loop
      vertex 2.889150e+00 2.889150e+00 1.997505e+00
      vertex 3.466980e+00 2.600235e+00 2.496881e+00
      vertex 3.466980e+00 2.600235e+00 1.498129e+00
    endloop
  endfacet
  facet normal 1.856553e-01 9.282767e-01 -3.222337e-01
    outer loop
      vertex 2.889150e+00 2.889150e+00 1.997505e+00
      vertex 3.466980e+00 2.600235e+00 1.498129e+00
      vertex 2.600235e+00 2.600235e+00 9.987525e-01
    endloop
  endfacet
  facet normal 9.282767e-01 1.856553e-01 3.222337e-01
    outer loop
      vertex 2.889150e+00 -5.778300e-01 1.997505e+00
      vertex 2.600235e+00 1.528899e-16 2.496881e+00
      vertex 2.600235e+00 -8.667450e-01 2.996258e+00
    endloop
  endfacet
  facet normal 1.856553e-01 9.282767e-01 3.222337e-01
    outer loop
      vertex 2.889150e+00 -5.778300e-01 1.997505e+00
      vertex 2.600235e+00 -8.667450e-01 2.996258e+00
      vertex 3.466980e+00 -8.667450e-01 2.496881e+00
    endloop
  endfacet
  facet normal 4.472136e-01 8.944272e-01 0.000000e+00
    outer loop
      vertex 2.889150e+00 -5.778300e-01 1.997505e+00
      vertex 3.466980e+00 -8.667450e-01 2.496881e+00
      vertex 3.466980e+00 -8.667450e-01 1.498129e+00
    endloop
  endfacet
  facet normal 1.856553e-01 9.282767e-01 -3.222337e-01
    outer loop
      vertex 2.889150e+00 -5.778300e-01 1.997505e+00
      vertex 3.466980e+00 -8.667450e-01 1.498129e+00
      vertex 2.600235e+00 -8.667450e-01 9.987525e-01
    endloop
  endfacet
  facet normal 9.282767e-01 1.856553e-01 -3.222337e-01
    outer loop
      vertex 2.889150e+00 -5.778300e-01 1.997505e+00
      vertex 2.600235e+00 -8.667450e-01 9.987525e-01
      vertex 2.600235e+00 9.173393e-17 1.498129e+00
    endloop
  endfacet
  facet normal 8.944272e-01 4.472136e-01 0.000000e+00
    outer loop
      vertex 2.889150e+00 -5.778300e-01 1.997505e+00
      vertex 2.600235e+00 9.173393e-17 1.498129e+00
      vertex 2.600235e+00 1.528899e-16 2.496881e+00
    endloop
  endfacet
  facet normal 4.466557e-01 4.466557e-01 7.752402e-01
    outer loop
      vertex 1.733490e+00 3.466980e+00 2.996258e+00
      vertex 2.600235e+00 2.600235e+00 2.996258e+00
      vertex 2.600235e+00 3.466980e+00 2.496881e+00
    endloop
  endfacet
  facet normal 4.466557e-01 -4.466557e-01 7.752402e-01
    outer loop
      vertex 1.733490e+00 3.466980e+00 2.996258e+00
      vertex 2.600235e+00 3.466980e+00 2.496881e+00
      vertex 2.600235e+00 4.333725e+00 2.996258e+00
    endloop
  endfacet
  facet normal 4.466557e-01 -4.466557e-01 7.752402e-01
    outer loop
      vertex 1.733490e+00 3.466980e+00 2.996258e+00
      vertex 2.600235e+00 4.333725e+00 2.996258e+00
      vertex 1.733490e+00 4.333725e+00 3.495634e+00
    endloop
  endfacet
  facet normal -4.466557e-01 -4.466557e-01 7.752402e-01
    outer loop
      vertex 1.733490e+00 3.466980e+00 2.996258e+00
      vertex 1.733490e+00 4.333725e+00 3.495634e+00
      vertex 8.667450e-01 4.333725e+00 2.996258e+00
    endloop
  endfacet
  facet normal -4.466557e-01 -4.466557e-01 7.752402e-01
    outer loop
      vertex 1.733490e+00 3.466980e+00 2.996258e+00
      vertex 8.667450e-01 4.333725e+00 2.996258e+00
      vertex 8.667450e-01 3.466980e+00 2.496881e+00
    endloop
  endfacet
  facet normal -4.466557e-01 4.466557e-01 7.752402e-01
    outer loop
      vertex 1.733490e+00 3.466980e+00 2.996258e+00
      vertex 8.667450e-01 3.466980e+00 2.496881e+00
      vertex 8.667450e-01 2.600235e+00 2.996258e+00
    endloop
  endfacet
  facet normal -4.466557e-01 4.466557e-01 7.752402e-01
    outer loop
      vertex 1.733490e+00 3.466980e+00 2.996258e+00
      vertex 8.667450e-01 2.600235e+00 2.996258e+00
      vertex 1.733490e+00 2.600235e+00 3.495634e+00
    endloop
  endfacet
  facet normal 4.466557e-01 4.466557e-01 7.752402e-01
    outer loop
      vertex 1.733490e+00 3.466980e+00 2.996258e+00
      vertex 1.733490e+00 2.600235e+00 3.495634e+00
      vertex 2.600235e+00 2.600235e+00 2.996258e+00
    endloop
  endfacet
  facet normal -9.282767e-01 -1.856553e-01 -3.222337e-01
    outer loop
      vertex 1.155660e+00 1.155660e+00 -4.625929e-17
      vertex 8.667450e-01 8.667450e-01 9.987525e-01
      vertex 8.667450e-01 1.733490e+00 4.993763e-01
    endloop
  endfacet
  facet normal -8.944272e-01 -4.472136e-01 0.000000e+00
    outer loop
      vertex 1.155660e+00 1.155660e+00 -4.625929e-17
      vertex 8.667450e-01 1.733490e+00 4.993763e-01
      vertex 8.667450e-01 1.733490e+00 -4.993763e-01
    endloop
  endfacet
  facet normal -9.282767e-01 -1.856553e-01 3.222337e-01
    outer loop
      vertex 1.155660e+00 1.155660e+00 -4.625929e-17
      vertex 8.667450e-01 1.733490e+00 -4.993763e-01
      vertex 8.667450e-01 8.667450e-01 -9.987525e-01
    endloop
  endfacet
  facet normal -1.856553e-01 -9.282767e-01 3.222337e-01
    outer loop
      vertex 1.155660e+00 1.155660e+00 -4.625929e-17
      vertex 8.667450e-01 8.667450e-01 -9.987525e-01
      vertex 1.733490e+00 8.667450e-01 -4.993763e-01
    endloop
  endfacet
  facet normal -4.472136e-01 -8.944272e-01 0.000000e+00
    outer loop
      vertex 1.155660e+00 1.155660e+00 -4.625929e-17
      vertex 1.733490e+00 8.667450e-01 -4.993763e-01
      vertex 1.733490e+00 8.667450e-01 4.993763e-01
    endloop
  endfacet
  facet normal -1.856553e-01 -9.282767e-01 -3.222337e-01
    outer loop
      vertex 1.155660e+00 1.155660e+00 -4.625929e-17
      vertex 1.733490e+00 8.667450e-01 4.993763e-01
      vertex 8.667450e-01 8.667450e-01 9.987525e-01
    endloop
  endfacet
  facet normal -9.282767e-01 1.856553e-01 -3.222337e-01
    outer loop
      vertex 1.155660e+00 2.311320e+00 -3.700743e-17
      vertex 8.667450e-01 1.733490e+00 4.993763e-01
      vertex 8.667450e-01 2.600235e+00 9.987525e-01
    endloop
  endfacet
  facet normal -1.856553e-01 9.282767e-01 -3.222337e-01
    outer loop
      vertex 1.155660e+00 2.311320e+00 -3.700743e-17
      vertex 8.667450e-01 2.600235e+00 9.987525e-01
      vertex 1.733490e+00 2.600235e+00 4.993763e-01
    endloop
  endfacet
  facet normal -4.472136e-01 8.944272e-01 -4.301672e-16
    outer loop
      vertex 1.155660e+00 2.311320e+00 -3.700743e-17
      vertex 1.733490e+00 2.600235e+00 4.993763e-01
      vertex 1.733490e+00 2.600235e+00 -4.993763e-01
    endloop
  endfacet
  facet normal -1.856553e-01 9.282767e-01 3.222337e-01
    outer loop
      vertex 1.155660e+00 2.311320e+00 -3.700743e-17
      vertex 1.733490e+00 2.600235e+00 -4.993763e-01
      vertex 8.667450e-01 2.600235e+00 -9.987525e-01
    endloop
  endfacet
  facet normal -9.282767e-01 1.856553e-01 3.222337e-01
    outer loop
      vertex 1.155660e+00 2.311320e+00 -3.700743e-17
      vertex 8.667450e-01 2.600235e+00 -9.987525e-01
      vertex 8.667450e-01 1.733490e+00 -4.993763e-01
    endloop
  endfacet
  facet normal -8.944272e-01 4.472136e-01 0.000000e+00
    outer loop
      vertex 1.155660e+00 2.311320e+00 -3.700743e-17
      vertex 8.667450e-01 1.733490e+00 -4.993763e-01
      vertex 8.667450e-01 1.733490e+00 4.993763e-01
    endloop
  endfacet
  facet normal 1.856553e-01 -9.282767e-01 -3.222337e-01
    outer loop
      vertex 2.311320e+00 1.155660e+00 -4.625929e-17
      vertex 2.600235e+00 8.667450e-01 9.987525e-01
      vertex 1.733490e+00 8.667450e-01 4.993763e-01
    endloop
  endfacet
  facet normal 4.472136e-01 -8.944272e-01 0.000000e+00
    outer loop
      vertex 2.311320e+00 1.155660e+00 -4.625929e-17
      vertex 1.733490e+00 8.667450e-01 4.993763e-01
      vertex 1.733490e+00 8.667450e-01 -4.993763e-01
    endloop
  endfacet
  facet normal 1.856553e-01 -9.282767e-01 3.222337e-01
    outer loop
      vertex 2.311320e+00 1.155660e+00 -4.625929e-17
      vertex 1.733490e+00 8.667450e-01 -4.993763e-01
      vertex 2.600235e+00 8.667450e-01 -9.987525e-01
    endloop
  endfacet
  facet normal 9.282767e-01 -1.856553e-01 3.222337e-01
    outer loop
      vertex 2.311320e+00 1.155660e+00 -4.625929e-17
      vertex 2.600235e+00 8.667450e-01 -9.987525e-01
      vertex 2.600235e+00 1.733490e+00 -4.993763e-01
    endloop
  endfacet
  facet normal 8.944272e-01 -4.472136e-01 -4.301672e-16
    outer loop
      vertex 2.311320e+00 1.155660e+00 -4.625929e-17
      vertex 2.600235e+00 1.733490e+00 -4.993763e-01
      vertex 2.600235e+00 1.733490e+00 4.993763e-01
    endloop
  endfacet
  facet normal 9.282767e-01 -1.856553e-01 -3.222337e-01
    outer loop
      vertex 2.311320e+00 1.155660e+00 -4.625929e-17
      vertex 2.600235e+00 1.733490e+00 4.993763e-01
      vertex 2.600235e+00 8.667450e-01 9.987525e-01
    endloop
  endfacet
  facet normal 1.856553e-01 9.282767e-01 -3.222337e-01
    outer loop
      vertex 2.311320e+00 2.311320e+00 -3.700743e-17
      vertex 1.733490e+00 2.600235e+00 4.993763e-01
      vertex 2.600235e+00 2.600235e+00 9.987525e-01
    endloop
  endfacet
  facet normal 9.282767e-01 1.856553e-01 -3.222337e-01
    outer loop
      vertex 2.311320e+00 2.311320e+00 -3.700743e-17
      vertex 2.600235e+00 2.600235e+00 9.987525e-01
      vertex 2.600235e+00 1.733490e+00 4.993763e-01
    endloop
  endfacet
  facet normal 8.944272e-01 4.472136e-01 -3.871505e-16
    outer loop
      vertex 2.311320e+00 2.311320e+00 -3.700743e-17
      vertex 2.600235e+00 1.733490e+00 4.993763e-01
      vertex 2.600235e+00 1.733490e+00 -4.993763e-01
    endloop
  endfacet
  facet normal 9.282767e-01 1.856553e-01 3.222337e-01
    outer loop
      vertex 2.311320e+00 2.311320e+00 -3.700743e-17
      vertex 2.600235e+00 1.733490e+00 -4.993763e-01
      vertex 2.600235e+00 2.600235e+00 -9.987525e-01
    endloop
  endfacet
  facet normal 1.856553e-01 9.282767e-01 3.222337e-01
    outer loop
      vertex 2.311320e+00 2.311320e+00 -3.700743e-17
      vertex 2.600235e+00 2.600235e+00 -9.987525e-01
      vertex 1.733490e+00 2.600235e+00 -4.993763e-01
    endloop
  endfacet
  facet normal 4.472136e-01 8.944272e-01 -3.871505e-16
    outer loop
      vertex 2.311320e+00 2.311320e+00 -3.700743e-17
      vertex 1.733490e+00 2.600235e+00 -4.993763e-01
      vertex 1.733490e+00 2.600235e+00 4.993763e-01
    endloop
  endfacet
  facet normal -9.282767e-01 -1.856553e-01 3.222337e-01
    outer loop
      vertex 1.155660e+00 1.155660e+00 3.995010e+00
      vertex 8.667450e-01 1.733490e+00 3.495634e+00
      vertex 8.667450e-01 8.667450e-01 2.996258e+00
    endloop
  endfacet
  facet normal -1.856553e-01 -9.282767e-01 3.222337e-01
    outer loop
      vertex 1.155660e+00 1.155660e+00 3.995010e+00
      vertex 8.667450e-01 8.667450e-01 2.996258e+00
      vertex 1.733490e+00 8.667450e-01 3.495634e+00
    endloop
  endfacet
  facet normal -4.472136e-01 -8.944272e-01 0.000000e+00
    outer loop
      vertex 1.155660e+00 1.155660e+00 3.995010e+00
      vertex 1.733490e+00 8.667450e-01 3.495634e+00
      vertex 1.733490e+00 8.667450e-01 4.494386e+00
    endloop
  endfacet
  facet normal -1.856553e-01 -9.282767e-01 -3.222337e-01
    outer loop
      vertex 1.155660e+00 1.155660e+00 3.995010e+00
      vertex 1.733490e+00 8.667450e-01 4.494386e+00
      vertex 8.667450e-01 8.667450e-01 4.993762e+00
    endloop
  endfacet
  facet normal -9.282767e-01 -1.856553e-01 -3.222337e-01
    outer loop
      vertex 1.155660e+00 1.155660e+00 3.995010e+00
      vertex 8.667450e-01 8.667450e-01 4.993762e+00
      vertex 8.667450e-01 1.733490e+00 4.494386e+00
    endloop
  endfacet
  facet normal -8.944272e-01 -4.472136e-01 0.000000e+00
    outer loop
      vertex 1.155660e+00 1.155660e+00 3.995010e+00
      vertex 8.667450e-01 1.733490e+00 4.494386e+00
      vertex 8.667450e-01 1.733490e+00 3.495634e+00
    endloop
  endfacet
  facet normal -9.282767e-01 1.856553e-01 3.222337e-01
    outer loop
      vertex 1.155660e+00 2.311320e+00 3.995010e+00
      vertex 8.667450e-01 2.600235e+00 2.996258e+00
      vertex 8.667450e-01 1.733490e+00 3.495634e+00
    endloop
  endfacet
  facet normal -8.944272e-01 4.472136e-01 0.000000e+00
    outer loop
      vertex 1.155660e+00 2.311320e+00 3.995010e+00
      vertex 8.667450e-01 1.733490e+00 3.495634e+00
      vertex 8.667450e-01 1.733490e+00 4.494386e+00
    endloop
  endfacet
  facet normal -9.282767e-01 1.856553e-01 -3.222337e-01
    outer loop
      vertex 1.155660e+00 2.311320e+00 3.995010e+00
      vertex 8.667450e-01 1.733490e+00 4.494386e+00
      vertex 8.667450e-01 2.600235e+00 4.993762e+00
    endloop
  endfacet
  facet normal -1.856553e-01 9.282767e-01 -3.222337e-01
    outer loop
      vertex 1.155660e+00 2.311320e+00 3.995010e+00
      vertex 8.667450e-01 2.600235e+00 4.993762e+00
      vertex 1.733490e+00 2.600235e+00 4.494386e+00
    endloop
  endfacet
  facet normal -4.472136e-01 8.944272e-01 -3.871505e-16
    outer loop
      vertex 1.155660e+00 2.311320e+00 3.995010e+00
      vertex 1.733490e+00 2.600235e+00 4.494386e+00
      vertex 1.733490e+00 2.600235e+00 3.495634e+00
    endloop
  endfacet
  facet normal -1.856553e-01 9.282767e-01 3.222337e-01
    outer loop
      vertex 1.155660e+00 2.311320e+00 3.995010e+00
      vertex 1.733490e+00 2.600235e+00 3.495634e+00
      vertex 8.667450e-01 2.600235e+00 2.996258e+00
    endloop
  endfacet
  facet normal 1.856553e-01 -9.282767e-01 3.222337e-01
    outer loop
      vertex 2.311320e+00 1.155660e+00 3.995010e+00
      vertex 1.733490e+00 8.667450e-01 3.495634e+00
      vertex 2.600235e+00 8.667450e-01 2.996258e+00
    endloop
  endfacet
  facet normal 9.282767e-01 -1.856553e-01 3.222337e-01
    outer loop
      vertex 2.311320e+00 1.155660e+00 3.995010e+00
      vertex 2.600235e+00 8.667450e-01 2.996258e+00
      vertex 2.600235e+00 1.733490e+00 3.495634e+00
    endloop
  endfacet
  facet normal 8.944272e-01 -4.472136e-01 -4.301672e-16
    outer loop
      vertex 2.311320e+00 1.155660e+00 3.995010e+00
      vertex 2.600235e+00 1.733490e+00 3.495634e+00
      vertex 2.600235e+00 1.733490e+00 4.494386e+00
    endloop
  endfacet
  facet normal 9.282767e-01 -1.856553e-01 -3.222337e-01
    outer loop
      vertex 2.311320e+00 1.155660e+00 3.995010e+00
      vertex 2.600235e+00 1.733490e+00 4.494386e+00
      vertex 2.600235e+00 8.667450e-01 4.993762e+00
    endloop
  endfacet
  facet normal 1.856553e-01 -9.282767e-01 -3.222337e-01
    outer loop
      vertex 2.311320e+00 1.155660e+00 3.995010e+00
      vertex 2.600235e+00 8.667450e-01 4.993762e+00
      vertex 1.733490e+00 8.667450e-01 4.494386e+00
    endloop
  endfacet
  facet normal 4.472136e-01 -8.944272e-01 0.000000e+00
    outer loop
      vertex 2.311320e+00 1.155660e+00 3.995010e+00
      vertex 1.733490e+00 8.667450e-01 4.494386e+00
      vertex 1.733490e+00 8.667450e-01 3.495634e+00
    endloop
  endfacet
  facet normal 1.856553e-01 9.282767e-01 3.222337e-01
    outer loop
      vertex 2.311320e+00 2.311320e+00 3.995010e+00
      vertex 2.600235e+00 2.600235e+00 2.996258e+00
      vertex 1.733490e+00 2.600235e+00 3.495634e+00
    endloop
  endfacet
  facet normal 4.472136e-01 8.944272e-01 -3.871505e-16
    outer loop
      vertex 2.311320e+00 2.311320e+00 3.995010e+00
      vertex 1.733490e+00 2.600235e+00 3.495634e+00
      vertex 1.733490e+00 2.600235e+00 4.494386e+00
    endloop
  endfacet
  facet normal 1.856553e-01 9.282767e-01 -3.222337e-01
    outer loop
      vertex 2.311320e+00 2.311320e+00 3.995010e+00
      vertex 1.733490e+00 2.600235e+00 4.494386e+00
      vertex 2.600235e+00 2.600235e+00 4.993762e+00
    endloop
  endfacet
  facet normal 9.282767e-01 1.856553e-01 -3.222337e-01
    outer loop
      vertex 2.311320e+00 2.311320e+00 3.995010e+00
      vertex 2.600235e+00 2.600235e+00 4.993762e+00
      vertex 2.600235e+00 1.733490e+00 4.494386e+00
    endloop
  endfacet
  facet normal 8.944272e-01 4.472136e-01 -3.871505e-16
    outer loop
      vertex 2.311320e+00 2.311320e+00 3.995010e+00
      vertex 2.600235e+00 1.733490e+00 4.494386e+00
      vertex 2.600235e+00 1.733490e+00 3.495634e+00
    endloop
  endfacet
  facet normal 9.282767e-01 1.856553e-01 3.222337e-01
    outer loop
      vertex 2.311320e+00 2.311320e+00 3.995010e+00
      vertex 2.600235e+00 1.733490e+00 3.495634e+00
      vertex 2.600235e+00 2.600235e+00 2.996258e+00
    endloop
  endfacet
endsolid surface_model
