solid surface_model
  facet normal 6.802062e-01 -7.330208e-01 -1.184910e-16
    outer loop
      vertex 3.712325e-01 3.444850e-01 2.312625e-01
      vertex 0.000000e+00 0.000000e+00 0.000000e+00
      vertex 7.424650e-01 6.889700e-01 0.000000e+00
    endloop
  endfacet
  facet normal 7.189723e-01 -3.873984e-01 5.770626e-01
    outer loop
      vertex 3.712325e-01 3.444850e-01 2.312625e-01
      vertex 7.424650e-01 6.889700e-01 0.000000e+00
      vertex 3.712325e-01 6.889700e-01 4.625250e-01
    endloop
  endfacet
  facet normal 1.000000e+00 -8.057122e-17 -1.200176e-16
    outer loop
      vertex 3.712325e-01 3.444850e-01 2.312625e-01
      vertex 3.712325e-01 6.889700e-01 4.625250e-01
      vertex 3.712325e-01 0.000000e+00 4.625250e-01
    endloop
  endfacet
  facet normal 7.189723e-01 -3.873984e-01 -5.770626e-01
    outer loop
      vertex 3.712325e-01 3.444850e-01 2.312625e-01
      vertex 3.712325e-01 0.000000e+00 4.625250e-01
      vertex 0.000000e+00 0.000000e+00 0.000000e+00
    endloop
  endfacet
  facet normal 0.000000e+00 -9.371290e-01 -3.489832e-01
    outer loop
      vertex 5.568488e-01 5.167275e-01 4.625250e-01
      vertex 7.424650e-01 6.889700e-01 0.000000e+00
      vertex 7.424650e-01 3.444850e-01 9.250500e-01
    endloop
  endfacet
  facet normal 5.970261e-01 -6.433822e-01 -4.791860e-01
    outer loop
      vertex 5.568488e-01 5.167275e-01 4.625250e-01
      vertex 7.424650e-01 3.444850e-01 9.250500e-01
      vertex 3.712325e-01 3.444850e-01 4.625250e-01
    endloop
  endfacet
  facet normal -0.000000e+00 0.000000e+00 -1.000000e+00
    outer loop
      vertex 5.568488e-01 5.167275e-01 4.625250e-01
      vertex 3.712325e-01 3.444850e-01 4.625250e-01
      vertex 3.712325e-01 6.889700e-01 4.625250e-01
    endloop
  endfacet
  facet normal -5.970261e-01 -6.433822e-01 -4.791860e-01
    outer loop
      vertex 5.568488e-01 5.167275e-01 4.625250e-01
      vertex 3.712325e-01 6.889700e-01 4.625250e-01
      vertex 7.424650e-01 6.889700e-01 0.000000e+00
    endloop
  endfacet
  facet normal -6.802062e-01 -7.330208e-01 -1.184910e-16
    outer loop
      vertex 3.712325e-01 6.889700e-01 6.937875e-01
      vertex 7.424650e-01 3.444850e-01 9.250500e-01
      vertex 1.199238e-16 1.033455e+00 9.250500e-01
    endloop
  endfacet
  facet normal -7.189723e-01 -3.873984e-01 -5.770626e-01
    outer loop
      vertex 3.712325e-01 6.889700e-01 6.937875e-01
      vertex 1.199238e-16 1.033455e+00 9.250500e-01
      vertex 3.712325e-01 1.033455e+00 4.625250e-01
    endloop
  endfacet
  facet normal -1.000000e+00 8.057122e-17 -1.200176e-16
    outer loop
      vertex 3.712325e-01 6.889700e-01 6.937875e-01
      vertex 3.712325e-01 1.033455e+00 4.625250e-01
      vertex 3.712325e-01 3.444850e-01 4.625250e-01
    endloop
  endfacet
  facet normal -7.189723e-01 -3.873984e-01 5.770626e-01
    outer loop
      vertex 3.712325e-01 6.889700e-01 6.937875e-01
      vertex 3.712325e-01 3.444850e-01 4.625250e-01
      vertex 7.424650e-01 3.444850e-01 9.250500e-01
    endloop
  endfacet
  facet normal 6.802062e-01 -7.330208e-01 1.184910e-16
    outer loop
      vertex 3.712325e-01 -3.444850e-01 -2.312625e-01
      vertex 7.424650e-01 0.000000e+00 0.000000e+00
      vertex -4.218725e-17 -6.889700e-01 0.000000e+00
    endloop
  endfacet
  facet normal 7.189723e-01 -3.873984e-01 5.770626e-01
    outer loop
      vertex 3.712325e-01 -3.444850e-01 -2.312625e-01
      vertex -4.218725e-17 -6.889700e-01 0.000000e+00
      vertex 3.712325e-01 -6.889700e-01 -4.625250e-01
    endloop
  endfacet
  facet normal 1.000000e+00 -8.057122e-17 -1.200176e-16
    outer loop
      vertex 3.712325e-01 -3.444850e-01 -2.312625e-01
      vertex 3.712325e-01 -6.889700e-01 -4.625250e-01
      vertex 3.712325e-01 0.000000e+00 -4.625250e-01
    endloop
  endfacet
  facet normal 7.189723e-01 -3.873984e-01 -5.770626e-01
    outer loop
      vertex 3.712325e-01 -3.444850e-01 -2.312625e-01
      vertex 3.712325e-01 0.000000e+00 -4.625250e-01
      vertex 7.424650e-01 0.000000e+00 0.000000e+00
    endloop
  endfacet
  facet normal 2.272269e-16 -9.371290e-01 3.489832e-01
    outer loop
      vertex 1.856162e-01 -8.612125e-01 -4.625250e-01
      vertex -4.218725e-17 -6.889700e-01 0.000000e+00
      vertex -1.199238e-16 -1.033455e+00 -9.250500e-01
    endloop
  endfacet
  facet normal -5.970261e-01 -6.433822e-01 4.791860e-01
    outer loop
      vertex 1.856162e-01 -8.612125e-01 -4.625250e-01
      vertex -1.199238e-16 -1.033455e+00 -9.250500e-01
      vertex 3.712325e-01 -1.033455e+00 -4.625250e-01
    endloop
  endfacet
  facet normal -0.000000e+00 0.000000e+00 1.000000e+00
    outer loop
      vertex 1.856162e-01 -8.612125e-01 -4.625250e-01
      vertex 3.712325e-01 -1.033455e+00 -4.625250e-01
      vertex 3.712325e-01 -6.889700e-01 -4.625250e-01
    endloop
  endfacet
  facet normal 5.970261e-01 -6.433822e-01 4.791860e-01
    outer loop
      vertex 1.856162e-01 -8.612125e-01 -4.625250e-01
      vertex 3.712325e-01 -6.889700e-01 -4.625250e-01
      vertex -4.218725e-17 -6.889700e-01 0.000000e+00
    endloop
  endfacet
  facet normal -6.802062e-01 -7.330208e-01 1.184910e-16
    outer loop
      vertex 3.712325e-01 -1.377940e+00 -6.937875e-01
      vertex -1.199238e-16 -1.033455e+00 -9.250500e-01
      vertex 7.424650e-01 -1.722425e+00 -9.250500e-01
    endloop
  endfacet
  facet normal -7.189723e-01 -3.873984e-01 -5.770626e-01
    outer loop
      vertex 3.712325e-01 -1.377940e+00 -6.937875e-01
      vertex 7.424650e-01 -1.722425e+00 -9.250500e-01
      vertex 3.712325e-01 -1.722425e+00 -4.625250e-01
    endloop
  endfacet
  facet normal -1.000000e+00 8.057122e-17 -1.200176e-16
    outer loop
      vertex 3.712325e-01 -1.377940e+00 -6.937875e-01
      vertex 3.712325e-01 -1.722425e+00 -4.625250e-01
      vertex 3.712325e-01 -1.033455e+00 -4.625250e-01
    endloop
  endfacet
  facet normal -7.189723e-01 -3.873984e-01 5.770626e-01
    outer loop
      vertex 3.712325e-01 -1.377940e+00 -6.937875e-01
      vertex 3.712325e-01 -1.033455e+00 -4.625250e-01
      vertex -1.199238e-16 -1.033455e+00 -9.250500e-01
    endloop
  endfacet
  facet normal 6.802062e-01 -7.330208e-01 -1.184910e-16
    outer loop
      vertex -3.712325e-01 -3.444850e-01 -2.312625e-01
      vertex 0.000000e+00 0.000000e+00 0.000000e+00
      vertex -7.424650e-01 -6.889700e-01 0.000000e+00
    endloop
  endfacet
  facet normal 7.189723e-01 -3.873984e-01 5.770626e-01
    outer loop
      vertex -3.712325e-01 -3.444850e-01 -2.312625e-01
      vertex -7.424650e-01 -6.889700e-01 0.000000e+00
      vertex -3.712325e-01 -6.889700e-01 -4.625250e-01
    endloop
  endfacet
  facet normal 1.000000e+00 -8.057122e-17 -1.200176e-16
    outer loop
      vertex -3.712325e-01 -3.444850e-01 -2.312625e-01
      vertex -3.712325e-01 -6.889700e-01 -4.625250e-01
      vertex -3.712325e-01 0.000000e+00 -4.625250e-01
    endloop
  endfacet
  facet normal 7.189723e-01 -3.873984e-01 -5.770626e-01
    outer loop
      vertex -3.712325e-01 -3.444850e-01 -2.312625e-01
      vertex -3.712325e-01 0.000000e+00 -4.625250e-01
      vertex 0.000000e+00 0.000000e+00 0.000000e+00
    endloop
  endfacet
  facet normal 0.000000e+00 -9.371290e-01 -3.489832e-01
    outer loop
      vertex -5.568488e-01 -5.167275e-01 -4.625250e-01
      vertex -7.424650e-01 -6.889700e-01 0.000000e+00
      vertex -7.424650e-01 -3.444850e-01 -9.250500e-01
    endloop
  endfacet
  facet normal 5.970261e-01 -6.433822e-01 -4.791860e-01
    outer loop
      vertex -5.568488e-01 -5.167275e-01 -4.625250e-01
      vertex -7.424650e-01 -3.444850e-01 -9.250500e-01
      vertex -3.712325e-01 -3.444850e-01 -4.625250e-01
    endloop
  endfacet
  facet normal 0.000000e+00 0.000000e+00 -1.000000e+00
    outer loop
      vertex -5.568488e-01 -5.167275e-01 -4.625250e-01
      vertex -3.712325e-01 -3.444850e-01 -4.625250e-01
      vertex -3.712325e-01 -6.889700e-01 -4.625250e-01
    endloop
  endfacet
  facet normal -5.970261e-01 -6.433822e-01 -4.791860e-01
    outer loop
      vertex -5.568488e-01 -5.167275e-01 -4.625250e-01
      vertex -3.712325e-01 -6.889700e-01 -4.625250e-01
      vertex -7.424650e-01 -6.889700e-01 0.000000e+00
    endloop
  endfacet
  facet normal -6.802062e-01 -7.330208e-01 -1.184910e-16
    outer loop
      vertex -3.712325e-01 -6.889700e-01 -6.937875e-01
      vertex -7.424650e-01 -3.444850e-01 -9.250500e-01
      vertex -1.199238e-16 -1.033455e+00 -9.250500e-01
    endloop
  endfacet
  facet normal -7.189723e-01 -3.873984e-01 -5.770626e-01
    outer loop
      vertex -3.712325e-01 -6.889700e-01 -6.937875e-01
      vertex -1.199238e-16 -1.033455e+00 -9.250500e-01
      vertex -3.712325e-01 -1.033455e+00 -4.625250e-01
    endloop
  endfacet
  facet normal -1.000000e+00 8.057122e-17 -1.200176e-16
    outer loop
      vertex -3.712325e-01 -6.889700e-01 -6.937875e-01
      vertex -3.712325e-01 -1.033455e+00 -4.625250e-01
      vertex -3.712325e-01 -3.444850e-01 -4.625250e-01
    endloop
  endfacet
  facet normal -7.189723e-01 -3.873984e-01 5.770626e-01
    outer loop
      vertex -3.712325e-01 -6.889700e-01 -6.937875e-01
      vertex -3.712325e-01 -3.444850e-01 -4.625250e-01
      vertex -7.424650e-01 -3.444850e-01 -9.250500e-01
    endloop
  endfacet
  facet normal 6.802062e-01 -7.330208e-01 1.184910e-16
    outer loop
      vertex 1.113698e+00 3.444850e-01 2.312625e-01
      vertex 7.424650e-01 0.000000e+00 0.000000e+00
      vertex 1.484930e+00 6.889700e-01 0.000000e+00
    endloop
  endfacet
  facet normal 7.189723e-01 -3.873984e-01 5.770626e-01
    outer loop
      vertex 1.113698e+00 3.444850e-01 2.312625e-01
      vertex 1.484930e+00 6.889700e-01 0.000000e+00
      vertex 1.113698e+00 6.889700e-01 4.625250e-01
    endloop
  endfacet
  facet normal 1.000000e+00 0.000000e+00 -0.000000e+00
    outer loop
      vertex 1.113698e+00 3.444850e-01 2.312625e-01
      vertex 1.113698e+00 6.889700e-01 4.625250e-01
      vertex 1.113698e+00 0.000000e+00 4.625250e-01
    endloop
  endfacet
  facet normal 7.189723e-01 -3.873984e-01 -5.770626e-01
    outer loop
      vertex 1.113698e+00 3.444850e-01 2.312625e-01
      vertex 1.113698e+00 0.000000e+00 4.625250e-01
      vertex 7.424650e-01 0.000000e+00 0.000000e+00
    endloop
  endfacet
  facet normal 2.272269e-16 -9.371290e-01 3.489832e-01
    outer loop
      vertex 1.299314e+00 8.612125e-01 4.625250e-01
      vertex 1.484930e+00 6.889700e-01 0.000000e+00
      vertex 1.484930e+00 1.033455e+00 9.250500e-01
    endloop
  endfacet
  facet normal -5.970261e-01 -6.433822e-01 4.791860e-01
    outer loop
      vertex 1.299314e+00 8.612125e-01 4.625250e-01
      vertex 1.484930e+00 1.033455e+00 9.250500e-01
      vertex 1.113698e+00 1.033455e+00 4.625250e-01
    endloop
  endfacet
  facet normal 0.000000e+00 0.000000e+00 1.000000e+00
    outer loop
      vertex 1.299314e+00 8.612125e-01 4.625250e-01
      vertex 1.113698e+00 1.033455e+00 4.625250e-01
      vertex 1.113698e+00 6.889700e-01 4.625250e-01
    endloop
  endfacet
  facet normal 5.970261e-01 -6.433822e-01 4.791860e-01
    outer loop
      vertex 1.299314e+00 8.612125e-01 4.625250e-01
      vertex 1.113698e+00 6.889700e-01 4.625250e-01
      vertex 1.484930e+00 6.889700e-01 0.000000e+00
    endloop
  endfacet
  facet normal -6.802062e-01 -7.330208e-01 4.739640e-16
    outer loop
      vertex 1.113698e+00 1.377940e+00 6.937875e-01
      vertex 1.484930e+00 1.033455e+00 9.250500e-01
      vertex 7.424650e-01 1.722425e+00 9.250500e-01
    endloop
  endfacet
  facet normal -7.189723e-01 -3.873984e-01 -5.770626e-01
    outer loop
      vertex 1.113698e+00 1.377940e+00 6.937875e-01
      vertex 7.424650e-01 1.722425e+00 9.250500e-01
      vertex 1.113698e+00 1.722425e+00 4.625250e-01
    endloop
  endfacet
  facet normal -1.000000e+00 0.000000e+00 -0.000000e+00
    outer loop
      vertex 1.113698e+00 1.377940e+00 6.937875e-01
      vertex 1.113698e+00 1.722425e+00 4.625250e-01
      vertex 1.113698e+00 1.033455e+00 4.625250e-01
    endloop
  endfacet
  facet normal -7.189723e-01 -3.873984e-01 5.770626e-01
    outer loop
      vertex 1.113698e+00 1.377940e+00 6.937875e-01
      vertex 1.113698e+00 1.033455e+00 4.625250e-01
      vertex 1.484930e+00 1.033455e+00 9.250500e-01
    endloop
  endfacet
  facet normal -6.802062e-01 -7.330208e-01 -1.184910e-16
    outer loop
      vertex 3.712325e-01 5.551115e-17 1.156313e+00
      vertex 7.773660e-17 3.444850e-01 9.250500e-01
      vertex 7.424650e-01 -3.444850e-01 9.250500e-01
    endloop
  endfacet
  facet normal -7.189723e-01 -3.873984e-01 -5.770626e-01
    outer loop
      vertex 3.712325e-01 5.551115e-17 1.156313e+00
      vertex 7.424650e-01 -3.444850e-01 9.250500e-01
      vertex 3.712325e-01 -3.444850e-01 1.387575e+00
    endloop
  endfacet
  facet normal -1.000000e+00 8.057122e-17 1.200176e-16
    outer loop
      vertex 3.712325e-01 5.551115e-17 1.156313e+00
      vertex 3.712325e-01 -3.444850e-01 1.387575e+00
      vertex 3.712325e-01 3.444850e-01 1.387575e+00
    endloop
  endfacet
  facet normal -7.189723e-01 -3.873984e-01 5.770626e-01
    outer loop
      vertex 3.712325e-01 5.551115e-17 1.156313e+00
      vertex 3.712325e-01 3.444850e-01 1.387575e+00
      vertex 7.773660e-17 3.444850e-01 9.250500e-01
    endloop
  endfacet
  facet normal 7.574229e-17 -9.371290e-01 -3.489832e-01
    outer loop
      vertex 5.568488e-01 -5.167275e-01 1.387575e+00
      vertex 7.424650e-01 -3.444850e-01 9.250500e-01
      vertex 7.424650e-01 -6.889700e-01 1.850100e+00
    endloop
  endfacet
  facet normal 5.970261e-01 -6.433822e-01 -4.791860e-01
    outer loop
      vertex 5.568488e-01 -5.167275e-01 1.387575e+00
      vertex 7.424650e-01 -6.889700e-01 1.850100e+00
      vertex 3.712325e-01 -6.889700e-01 1.387575e+00
    endloop
  endfacet
  facet normal -0.000000e+00 0.000000e+00 -1.000000e+00
    outer loop
      vertex 5.568488e-01 -5.167275e-01 1.387575e+00
      vertex 3.712325e-01 -6.889700e-01 1.387575e+00
      vertex 3.712325e-01 -3.444850e-01 1.387575e+00
    endloop
  endfacet
  facet normal -5.970261e-01 -6.433822e-01 -4.791860e-01
    outer loop
      vertex 5.568488e-01 -5.167275e-01 1.387575e+00
      vertex 3.712325e-01 -3.444850e-01 1.387575e+00
      vertex 7.424650e-01 -3.444850e-01 9.250500e-01
    endloop
  endfacet
  facet normal 6.802062e-01 -7.330208e-01 0.000000e+00
    outer loop
      vertex 3.712325e-01 -1.033455e+00 1.618838e+00
      vertex 7.424650e-01 -6.889700e-01 1.850100e+00
      vertex 2.891146e-17 -1.377940e+00 1.850100e+00
    endloop
  endfacet
  facet normal 7.189723e-01 -3.873984e-01 5.770626e-01
    outer loop
      vertex 3.712325e-01 -1.033455e+00 1.618838e+00
      vertex 2.891146e-17 -1.377940e+00 1.850100e+00
      vertex 3.712325e-01 -1.377940e+00 1.387575e+00
    endloop
  endfacet
  facet normal 1.000000e+00 -8.057122e-17 -1.200176e-16
    outer loop
      vertex 3.712325e-01 -1.033455e+00 1.618838e+00
      vertex 3.712325e-01 -1.377940e+00 1.387575e+00
      vertex 3.712325e-01 -6.889700e-01 1.387575e+00
    endloop
  endfacet
  facet normal 7.189723e-01 -3.873984e-01 -5.770626e-01
    outer loop
      vertex 3.712325e-01 -1.033455e+00 1.618838e+00
      vertex 3.712325e-01 -6.889700e-01 1.387575e+00
      vertex 7.424650e-01 -6.889700e-01 1.850100e+00
    endloop
  endfacet
  facet normal -6.802062e-01 -7.330208e-01 0.000000e+00
    outer loop
      vertex -3.712325e-01 6.889700e-01 6.937875e-01
      vertex 7.773660e-17 3.444850e-01 9.250500e-01
      vertex -7.424650e-01 1.033455e+00 9.250500e-01
    endloop
  endfacet
  facet normal -7.189723e-01 -3.873984e-01 -5.770626e-01
    outer loop
      vertex -3.712325e-01 6.889700e-01 6.937875e-01
      vertex -7.424650e-01 1.033455e+00 9.250500e-01
      vertex -3.712325e-01 1.033455e+00 4.625250e-01
    endloop
  endfacet
  facet normal -1.000000e+00 8.057122e-17 -1.200176e-16
    outer loop
      vertex -3.712325e-01 6.889700e-01 6.937875e-01
      vertex -3.712325e-01 1.033455e+00 4.625250e-01
      vertex -3.712325e-01 3.444850e-01 4.625250e-01
    endloop
  endfacet
  facet normal -7.189723e-01 -3.873984e-01 5.770626e-01
    outer loop
      vertex -3.712325e-01 6.889700e-01 6.937875e-01
      vertex -3.712325e-01 3.444850e-01 4.625250e-01
      vertex 7.773660e-17 3.444850e-01 9.250500e-01
    endloop
  endfacet
  facet normal -5.301960e-16 -9.371290e-01 -3.489832e-01
    outer loop
      vertex -5.568487e-01 1.205697e+00 4.625250e-01
      vertex -7.424650e-01 1.033455e+00 9.250500e-01
      vertex -7.424650e-01 1.377940e+00 0.000000e+00
    endloop
  endfacet
  facet normal 5.970261e-01 -6.433822e-01 -4.791860e-01
    outer loop
      vertex -5.568487e-01 1.205697e+00 4.625250e-01
      vertex -7.424650e-01 1.377940e+00 0.000000e+00
      vertex -3.712325e-01 1.377940e+00 4.625250e-01
    endloop
  endfacet
  facet normal 0.000000e+00 0.000000e+00 -1.000000e+00
    outer loop
      vertex -5.568487e-01 1.205697e+00 4.625250e-01
      vertex -3.712325e-01 1.377940e+00 4.625250e-01
      vertex -3.712325e-01 1.033455e+00 4.625250e-01
    endloop
  endfacet
  facet normal -5.970261e-01 -6.433822e-01 -4.791860e-01
    outer loop
      vertex -5.568487e-01 1.205697e+00 4.625250e-01
      vertex -3.712325e-01 1.033455e+00 4.625250e-01
      vertex -7.424650e-01 1.033455e+00 9.250500e-01
    endloop
  endfacet
  facet normal 6.802062e-01 -7.330208e-01 -4.739640e-16
    outer loop
      vertex -3.712325e-01 1.722425e+00 2.312625e-01
      vertex -7.424650e-01 1.377940e+00 0.000000e+00
      vertex 1.265617e-16 2.066910e+00 0.000000e+00
    endloop
  endfacet
  facet normal 7.189723e-01 -3.873984e-01 5.770626e-01
    outer loop
      vertex -3.712325e-01 1.722425e+00 2.312625e-01
      vertex 1.265617e-16 2.066910e+00 0.000000e+00
      vertex -3.712325e-01 2.066910e+00 4.625250e-01
    endloop
  endfacet
  facet normal 1.000000e+00 -8.057122e-17 -1.200176e-16
    outer loop
      vertex -3.712325e-01 1.722425e+00 2.312625e-01
      vertex -3.712325e-01 2.066910e+00 4.625250e-01
      vertex -3.712325e-01 1.377940e+00 4.625250e-01
    endloop
  endfacet
  facet normal 7.189723e-01 -3.873984e-01 -5.770626e-01
    outer loop
      vertex -3.712325e-01 1.722425e+00 2.312625e-01
      vertex -3.712325e-01 1.377940e+00 4.625250e-01
      vertex -7.424650e-01 1.377940e+00 0.000000e+00
    endloop
  endfacet
  facet normal -6.802062e-01 -7.330208e-01 3.554730e-16
    outer loop
      vertex 1.113698e+00 6.938894e-17 1.156313e+00
      vertex 7.424650e-01 3.444850e-01 9.250500e-01
      vertex 1.484930e+00 -3.444850e-01 9.250500e-01
    endloop
  endfacet
  facet normal -7.189723e-01 -3.873984e-01 -5.770626e-01
    outer loop
      vertex 1.113698e+00 6.938894e-17 1.156313e+00
      vertex 1.484930e+00 -3.444850e-01 9.250500e-01
      vertex 1.113698e+00 -3.444850e-01 1.387575e+00
    endloop
  endfacet
  facet normal -1.000000e+00 0.000000e+00 0.000000e+00
    outer loop
      vertex 1.113698e+00 6.938894e-17 1.156313e+00
      vertex 1.113698e+00 -3.444850e-01 1.387575e+00
      vertex 1.113698e+00 3.444850e-01 1.387575e+00
    endloop
  endfacet
  facet normal -7.189723e-01 -3.873984e-01 5.770626e-01
    outer loop
      vertex 1.113698e+00 6.938894e-17 1.156313e+00
      vertex 1.113698e+00 3.444850e-01 1.387575e+00
      vertex 7.424650e-01 3.444850e-01 9.250500e-01
    endloop
  endfacet
  facet normal -7.574229e-17 -9.371290e-01 3.489832e-01
    outer loop
      vertex 1.299314e+00 -1.722425e-01 1.387575e+00
      vertex 1.484930e+00 -3.444850e-01 9.250500e-01
      vertex 1.484930e+00 1.132860e-16 1.850100e+00
    endloop
  endfacet
  facet normal -5.970261e-01 -6.433822e-01 4.791860e-01
    outer loop
      vertex 1.299314e+00 -1.722425e-01 1.387575e+00
      vertex 1.484930e+00 1.132860e-16 1.850100e+00
      vertex 1.113698e+00 1.387779e-16 1.387575e+00
    endloop
  endfacet
  facet normal 0.000000e+00 0.000000e+00 1.000000e+00
    outer loop
      vertex 1.299314e+00 -1.722425e-01 1.387575e+00
      vertex 1.113698e+00 1.387779e-16 1.387575e+00
      vertex 1.113698e+00 -3.444850e-01 1.387575e+00
    endloop
  endfacet
  facet normal 5.970261e-01 -6.433822e-01 4.791860e-01
    outer loop
      vertex 1.299314e+00 -1.722425e-01 1.387575e+00
      vertex 1.113698e+00 -3.444850e-01 1.387575e+00
      vertex 1.484930e+00 -3.444850e-01 9.250500e-01
    endloop
  endfacet
  facet normal 6.802062e-01 -7.330208e-01 0.000000e+00
    outer loop
      vertex 1.113698e+00 -3.444850e-01 1.618838e+00
      vertex 1.484930e+00 1.132860e-16 1.850100e+00
      vertex 7.424650e-01 -6.889700e-01 1.850100e+00
    endloop
  endfacet
  facet normal 7.189723e-01 -3.873984e-01 5.770626e-01
    outer loop
      vertex 1.113698e+00 -3.444850e-01 1.618838e+00
      vertex 7.424650e-01 -6.889700e-01 1.850100e+00
      vertex 1.113698e+00 -6.889700e-01 1.387575e+00
    endloop
  endfacet
  facet normal 1.000000e+00 0.000000e+00 0.000000e+00
    outer loop
      vertex 1.113698e+00 -3.444850e-01 1.618838e+00
      vertex 1.113698e+00 -6.889700e-01 1.387575e+00
      vertex 1.113698e+00 1.387779e-16 1.387575e+00
    endloop
  endfacet
  facet normal 7.189723e-01 -3.873984e-01 -5.770626e-01
    outer loop
      vertex 1.113698e+00 -3.444850e-01 1.618838e+00
      vertex 1.113698e+00 1.387779e-16 1.387575e+00
      vertex 1.484930e+00 1.132860e-16 1.850100e+00
    endloop
  endfacet
  facet normal 0.000000e+00 -9.371290e-01 3.489832e-01
    outer loop
      vertex -1.856162e-01 1.722425e-01 4.625250e-01
      vertex 0.000000e+00 0.000000e+00 0.000000e+00
      vertex 7.773660e-17 3.444850e-01 9.250500e-01
    endloop
  endfacet
  facet normal -5.970261e-01 -6.433822e-01 4.791860e-01
    outer loop
      vertex -1.856162e-01 1.722425e-01 4.625250e-01
      vertex 7.773660e-17 3.444850e-01 9.250500e-01
      vertex -3.712325e-01 3.444850e-01 4.625250e-01
    endloop
  endfacet
  facet normal 0.000000e+00 0.000000e+00 1.000000e+00
    outer loop
      vertex -1.856162e-01 1.722425e-01 4.625250e-01
      vertex -3.712325e-01 3.444850e-01 4.625250e-01
      vertex -3.712325e-01 0.000000e+00 4.625250e-01
    endloop
  endfacet
  facet normal 5.970261e-01 -6.433822e-01 4.791860e-01
    outer loop
      vertex -1.856162e-01 1.722425e-01 4.625250e-01
      vertex -3.712325e-01 0.000000e+00 4.625250e-01
      vertex 0.000000e+00 0.000000e+00 0.000000e+00
    endloop
  endfacet
  facet normal -6.802062e-01 -7.330208e-01 0.000000e+00
    outer loop
      vertex -3.712325e-01 6.889700e-01 6.937875e-01
      vertex 7.773660e-17 3.444850e-01 9.250500e-01
      vertex -7.424650e-01 1.033455e+00 9.250500e-01
    endloop
  endfacet
  facet normal -7.189723e-01 -3.873984e-01 -5.770626e-01
    outer loop
      vertex -3.712325e-01 6.889700e-01 6.937875e-01
      vertex -7.424650e-01 1.033455e+00 9.250500e-01
      vertex -3.712325e-01 1.033455e+00 4.625250e-01
    endloop
  endfacet
  facet normal -1.000000e+00 0.000000e+00 -0.000000e+00
    outer loop
      vertex -3.712325e-01 6.889700e-01 6.937875e-01
      vertex -3.712325e-01 1.033455e+00 4.625250e-01
      vertex -3.712325e-01 3.444850e-01 4.625250e-01
    endloop
  endfacet
  facet normal -7.189723e-01 -3.873984e-01 5.770626e-01
    outer loop
      vertex -3.712325e-01 6.889700e-01 6.937875e-01
      vertex -3.712325e-01 3.444850e-01 4.625250e-01
      vertex 7.773660e-17 3.444850e-01 9.250500e-01
    endloop
  endfacet
  facet normal -5.301960e-16 -9.371290e-01 -3.489832e-01
    outer loop
      vertex -5.568487e-01 1.205697e+00 4.625250e-01
      vertex -7.424650e-01 1.033455e+00 9.250500e-01
      vertex -7.424650e-01 1.377940e+00 0.000000e+00
    endloop
  endfacet
  facet normal 5.970261e-01 -6.433822e-01 -4.791860e-01
    outer loop
      vertex -5.568487e-01 1.205697e+00 4.625250e-01
      vertex -7.424650e-01 1.377940e+00 0.000000e+00
      vertex -3.712325e-01 1.377940e+00 4.625250e-01
    endloop
  endfacet
  facet normal 0.000000e+00 0.000000e+00 -1.000000e+00
    outer loop
      vertex -5.568487e-01 1.205697e+00 4.625250e-01
      vertex -3.712325e-01 1.377940e+00 4.625250e-01
      vertex -3.712325e-01 1.033455e+00 4.625250e-01
    endloop
  endfacet
  facet normal -5.970261e-01 -6.433822e-01 -4.791860e-01
    outer loop
      vertex -5.568487e-01 1.205697e+00 4.625250e-01
      vertex -3.712325e-01 1.033455e+00 4.625250e-01
      vertex -7.424650e-01 1.033455e+00 9.250500e-01
    endloop
  endfacet
  facet normal 0.000000e+00 -9.371290e-01 3.489832e-01
    outer loop
      vertex 1.856163e-01 1.722425e-01 4.625250e-01
      vertex 7.773660e-17 3.444850e-01 9.250500e-01
      vertex 0.000000e+00 0.000000e+00 0.000000e+00
    endloop
  endfacet
  facet normal -5.970261e-01 -6.433822e-01 4.791860e-01
    outer loop
      vertex 1.856163e-01 1.722425e-01 4.625250e-01
      vertex 0.000000e+00 0.000000e+00 0.000000e+00
      vertex 3.712325e-01 0.000000e+00 4.625250e-01
    endloop
  endfacet
  facet normal -0.000000e+00 0.000000e+00 1.000000e+00
    outer loop
      vertex 1.856163e-01 1.722425e-01 4.625250e-01
      vertex 3.712325e-01 0.000000e+00 4.625250e-01
      vertex 3.712325e-01 3.444850e-01 4.625250e-01
    endloop
  endfacet
  facet normal 5.970261e-01 -6.433822e-01 4.791860e-01
    outer loop
      vertex 1.856163e-01 1.722425e-01 4.625250e-01
      vertex 3.712325e-01 3.444850e-01 4.625250e-01
      vertex 7.773660e-17 3.444850e-01 9.250500e-01
    endloop
  endfacet
  facet normal 6.802062e-01 -7.330208e-01 -1.184910e-16
    outer loop
      vertex 3.712325e-01 3.444850e-01 2.312625e-01
      vertex 0.000000e+00 0.000000e+00 0.000000e+00
      vertex 7.424650e-01 6.889700e-01 0.000000e+00
    endloop
  endfacet
  facet normal 7.189723e-01 -3.873984e-01 5.770626e-01
    outer loop
      vertex 3.712325e-01 3.444850e-01 2.312625e-01
      vertex 7.424650e-01 6.889700e-01 0.000000e+00
      vertex 3.712325e-01 6.889700e-01 4.625250e-01
    endloop
  endfacet
  facet normal 1.000000e+00 0.000000e+00 -0.000000e+00
    outer loop
      vertex 3.712325e-01 3.444850e-01 2.312625e-01
      vertex 3.712325e-01 6.889700e-01 4.625250e-01
      vertex 3.712325e-01 0.000000e+00 4.625250e-01
    endloop
  endfacet
  facet normal 7.189723e-01 -3.873984e-01 -5.770626e-01
    outer loop
      vertex 3.712325e-01 3.444850e-01 2.312625e-01
      vertex 3.712325e-01 0.000000e+00 4.625250e-01
      vertex 0.000000e+00 0.000000e+00 0.000000e+00
    endloop
  endfacet
  facet normal 0.000000e+00 -9.371290e-01 -3.489832e-01
    outer loop
      vertex 5.568488e-01 5.167275e-01 4.625250e-01
      vertex 7.424650e-01 6.889700e-01 0.000000e+00
      vertex 7.424650e-01 3.444850e-01 9.250500e-01
    endloop
  endfacet
  facet normal 5.970261e-01 -6.433822e-01 -4.791860e-01
    outer loop
      vertex 5.568488e-01 5.167275e-01 4.625250e-01
      vertex 7.424650e-01 3.444850e-01 9.250500e-01
      vertex 3.712325e-01 3.444850e-01 4.625250e-01
    endloop
  endfacet
  facet normal -0.000000e+00 0.000000e+00 -1.000000e+00
    outer loop
      vertex 5.568488e-01 5.167275e-01 4.625250e-01
      vertex 3.712325e-01 3.444850e-01 4.625250e-01
      vertex 3.712325e-01 6.889700e-01 4.625250e-01
    endloop
  endfacet
  facet normal -5.970261e-01 -6.433822e-01 -4.791860e-01
    outer loop
      vertex 5.568488e-01 5.167275e-01 4.625250e-01
      vertex 3.712325e-01 6.889700e-01 4.625250e-01
      vertex 7.424650e-01 6.889700e-01 0.000000e+00
    endloop
  endfacet
  facet normal 0.000000e+00 -9.371290e-01 3.489832e-01
    outer loop
      vertex 1.856162e-01 -1.722425e-01 -4.625250e-01
      vertex 0.000000e+00 0.000000e+00 0.000000e+00
      vertex -7.773660e-17 -3.444850e-01 -9.250500e-01
    endloop
  endfacet
  facet normal -5.970261e-01 -6.433822e-01 4.791860e-01
    outer loop
      vertex 1.856162e-01 -1.722425e-01 -4.625250e-01
      vertex -7.773660e-17 -3.444850e-01 -9.250500e-01
      vertex 3.712325e-01 -3.444850e-01 -4.625250e-01
    endloop
  endfacet
  facet normal -0.000000e+00 0.000000e+00 1.000000e+00
    outer loop
      vertex 1.856162e-01 -1.722425e-01 -4.625250e-01
      vertex 3.712325e-01 -3.444850e-01 -4.625250e-01
      vertex 3.712325e-01 0.000000e+00 -4.625250e-01
    endloop
  endfacet
  facet normal 5.970261e-01 -6.433822e-01 4.791860e-01
    outer loop
      vertex 1.856162e-01 -1.722425e-01 -4.625250e-01
      vertex 3.712325e-01 0.000000e+00 -4.625250e-01
      vertex 0.000000e+00 0.000000e+00 0.000000e+00
    endloop
  endfacet
  facet normal -6.802062e-01 -7.330208e-01 0.000000e+00
    outer loop
      vertex 3.712325e-01 -6.889700e-01 -6.937875e-01
      vertex -7.773660e-17 -3.444850e-01 -9.250500e-01
      vertex 7.424650e-01 -1.033455e+00 -9.250500e-01
    endloop
  endfacet
  facet normal -7.189723e-01 -3.873984e-01 -5.770626e-01
    outer loop
      vertex 3.712325e-01 -6.889700e-01 -6.937875e-01
      vertex 7.424650e-01 -1.033455e+00 -9.250500e-01
      vertex 3.712325e-01 -1.033455e+00 -4.625250e-01
    endloop
  endfacet
  facet normal -1.000000e+00 0.000000e+00 0.000000e+00
    outer loop
      vertex 3.712325e-01 -6.889700e-01 -6.937875e-01
      vertex 3.712325e-01 -1.033455e+00 -4.625250e-01
      vertex 3.712325e-01 -3.444850e-01 -4.625250e-01
    endloop
  endfacet
  facet normal -7.189723e-01 -3.873984e-01 5.770626e-01
    outer loop
      vertex 3.712325e-01 -6.889700e-01 -6.937875e-01
      vertex 3.712325e-01 -3.444850e-01 -4.625250e-01
      vertex -7.773660e-17 -3.444850e-01 -9.250500e-01
    endloop
  endfacet
  facet normal -5.301960e-16 -9.371290e-01 -3.489832e-01
    outer loop
      vertex 5.568487e-01 -1.205697e+00 -4.625250e-01
      vertex 7.424650e-01 -1.033455e+00 -9.250500e-01
      vertex 7.424650e-01 -1.377940e+00 0.000000e+00
    endloop
  endfacet
  facet normal 5.970261e-01 -6.433822e-01 -4.791860e-01
    outer loop
      vertex 5.568487e-01 -1.205697e+00 -4.625250e-01
      vertex 7.424650e-01 -1.377940e+00 0.000000e+00
      vertex 3.712325e-01 -1.377940e+00 -4.625250e-01
    endloop
  endfacet
  facet normal -0.000000e+00 0.000000e+00 -1.000000e+00
    outer loop
      vertex 5.568487e-01 -1.205697e+00 -4.625250e-01
      vertex 3.712325e-01 -1.377940e+00 -4.625250e-01
      vertex 3.712325e-01 -1.033455e+00 -4.625250e-01
    endloop
  endfacet
  facet normal -5.970261e-01 -6.433822e-01 -4.791860e-01
    outer loop
      vertex 5.568487e-01 -1.205697e+00 -4.625250e-01
      vertex 3.712325e-01 -1.033455e+00 -4.625250e-01
      vertex 7.424650e-01 -1.033455e+00 -9.250500e-01
    endloop
  endfacet
  facet normal 2.272269e-16 -9.371290e-01 3.489832e-01
    outer loop
      vertex -1.856162e-01 5.167275e-01 1.387575e+00
      vertex 7.773660e-17 3.444850e-01 9.250500e-01
      vertex 1.554732e-16 6.889700e-01 1.850100e+00
    endloop
  endfacet
  facet normal -5.970261e-01 -6.433822e-01 4.791860e-01
    outer loop
      vertex -1.856162e-01 5.167275e-01 1.387575e+00
      vertex 1.554732e-16 6.889700e-01 1.850100e+00
      vertex -3.712325e-01 6.889700e-01 1.387575e+00
    endloop
  endfacet
  facet normal 0.000000e+00 0.000000e+00 1.000000e+00
    outer loop
      vertex -1.856162e-01 5.167275e-01 1.387575e+00
      vertex -3.712325e-01 6.889700e-01 1.387575e+00
      vertex -3.712325e-01 3.444850e-01 1.387575e+00
    endloop
  endfacet
  facet normal 5.970261e-01 -6.433822e-01 4.791860e-01
    outer loop
      vertex -1.856162e-01 5.167275e-01 1.387575e+00
      vertex -3.712325e-01 3.444850e-01 1.387575e+00
      vertex 7.773660e-17 3.444850e-01 9.250500e-01
    endloop
  endfacet
  facet normal 6.802062e-01 -7.330208e-01 0.000000e+00
    outer loop
      vertex -3.712325e-01 3.444850e-01 1.618838e+00
      vertex 1.554732e-16 6.889700e-01 1.850100e+00
      vertex -7.424650e-01 1.132860e-16 1.850100e+00
    endloop
  endfacet
  facet normal 7.189723e-01 -3.873984e-01 5.770626e-01
    outer loop
      vertex -3.712325e-01 3.444850e-01 1.618838e+00
      vertex -7.424650e-01 1.132860e-16 1.850100e+00
      vertex -3.712325e-01 1.110223e-16 1.387575e+00
    endloop
  endfacet
  facet normal 1.000000e+00 0.000000e+00 0.000000e+00
    outer loop
      vertex -3.712325e-01 3.444850e-01 1.618838e+00
      vertex -3.712325e-01 1.110223e-16 1.387575e+00
      vertex -3.712325e-01 6.889700e-01 1.387575e+00
    endloop
  endfacet
  facet normal 7.189723e-01 -3.873984e-01 -5.770626e-01
    outer loop
      vertex -3.712325e-01 3.444850e-01 1.618838e+00
      vertex -3.712325e-01 6.889700e-01 1.387575e+00
      vertex 1.554732e-16 6.889700e-01 1.850100e+00
    endloop
  endfacet
  facet normal -7.574229e-17 -9.371290e-01 -3.489832e-01
    outer loop
      vertex -5.568487e-01 1.722425e-01 1.387575e+00
      vertex -7.424650e-01 1.132860e-16 1.850100e+00
      vertex -7.424650e-01 3.444850e-01 9.250500e-01
    endloop
  endfacet
  facet normal 5.970261e-01 -6.433822e-01 -4.791860e-01
    outer loop
      vertex -5.568487e-01 1.722425e-01 1.387575e+00
      vertex -7.424650e-01 3.444850e-01 9.250500e-01
      vertex -3.712325e-01 3.444850e-01 1.387575e+00
    endloop
  endfacet
  facet normal 0.000000e+00 0.000000e+00 -1.000000e+00
    outer loop
      vertex -5.568487e-01 1.722425e-01 1.387575e+00
      vertex -3.712325e-01 3.444850e-01 1.387575e+00
      vertex -3.712325e-01 1.110223e-16 1.387575e+00
    endloop
  endfacet
  facet normal -5.970261e-01 -6.433822e-01 -4.791860e-01
    outer loop
      vertex -5.568487e-01 1.722425e-01 1.387575e+00
      vertex -3.712325e-01 1.110223e-16 1.387575e+00
      vertex -7.424650e-01 1.132860e-16 1.850100e+00
    endloop
  endfacet
  facet normal 0.000000e+00 -9.371290e-01 -3.489832e-01
    outer loop
      vertex 9.280812e-01 1.722425e-01 -4.625250e-01
      vertex 7.424650e-01 0.000000e+00 0.000000e+00
      vertex 7.424650e-01 3.444850e-01 -9.250500e-01
    endloop
  endfacet
  facet normal 5.970261e-01 -6.433822e-01 -4.791860e-01
    outer loop
      vertex 9.280812e-01 1.722425e-01 -4.625250e-01
      vertex 7.424650e-01 3.444850e-01 -9.250500e-01
      vertex 1.113698e+00 3.444850e-01 -4.625250e-01
    endloop
  endfacet
  facet normal 0.000000e+00 0.000000e+00 -1.000000e+00
    outer loop
      vertex 9.280812e-01 1.722425e-01 -4.625250e-01
      vertex 1.113698e+00 3.444850e-01 -4.625250e-01
      vertex 1.113698e+00 -2.273143e-17 -4.625250e-01
    endloop
  endfacet
  facet normal -5.970261e-01 -6.433822e-01 -4.791860e-01
    outer loop
      vertex 9.280812e-01 1.722425e-01 -4.625250e-01
      vertex 1.113698e+00 -2.273143e-17 -4.625250e-01
      vertex 7.424650e-01 0.000000e+00 0.000000e+00
    endloop
  endfacet
  facet normal -6.802062e-01 -7.330208e-01 2.369820e-16
    outer loop
      vertex 1.113698e+00 -5.551115e-17 -6.937875e-01
      vertex 7.424650e-01 3.444850e-01 -9.250500e-01
      vertex 1.484930e+00 -3.444850e-01 -9.250500e-01
    endloop
  endfacet
  facet normal -7.189723e-01 -3.873984e-01 -5.770626e-01
    outer loop
      vertex 1.113698e+00 -5.551115e-17 -6.937875e-01
      vertex 1.484930e+00 -3.444850e-01 -9.250500e-01
      vertex 1.113698e+00 -3.444850e-01 -4.625250e-01
    endloop
  endfacet
  facet normal -1.000000e+00 0.000000e+00 0.000000e+00
    outer loop
      vertex 1.113698e+00 -5.551115e-17 -6.937875e-01
      vertex 1.113698e+00 -3.444850e-01 -4.625250e-01
      vertex 1.113698e+00 3.444850e-01 -4.625250e-01
    endloop
  endfacet
  facet normal -7.189723e-01 -3.873984e-01 5.770626e-01
    outer loop
      vertex 1.113698e+00 -5.551115e-17 -6.937875e-01
      vertex 1.113698e+00 3.444850e-01 -4.625250e-01
      vertex 7.424650e-01 3.444850e-01 -9.250500e-01
    endloop
  endfacet
  facet normal 0.000000e+00 -9.371290e-01 3.489832e-01
    outer loop
      vertex 1.299314e+00 -1.722425e-01 -4.625250e-01
      vertex 1.484930e+00 -3.444850e-01 -9.250500e-01
      vertex 1.484930e+00 0.000000e+00 0.000000e+00
    endloop
  endfacet
  facet normal -5.970261e-01 -6.433822e-01 4.791860e-01
    outer loop
      vertex 1.299314e+00 -1.722425e-01 -4.625250e-01
      vertex 1.484930e+00 0.000000e+00 0.000000e+00
      vertex 1.113698e+00 2.273143e-17 -4.625250e-01
    endloop
  endfacet
  facet normal 0.000000e+00 0.000000e+00 1.000000e+00
    outer loop
      vertex 1.299314e+00 -1.722425e-01 -4.625250e-01
      vertex 1.113698e+00 2.273143e-17 -4.625250e-01
      vertex 1.113698e+00 -3.444850e-01 -4.625250e-01
    endloop
  endfacet
  facet normal 5.970261e-01 -6.433822e-01 4.791860e-01
    outer loop
      vertex 1.299314e+00 -1.722425e-01 -4.625250e-01
      vertex 1.113698e+00 -3.444850e-01 -4.625250e-01
      vertex 1.484930e+00 -3.444850e-01 -9.250500e-01
    endloop
  endfacet
  facet normal 7.574229e-17 -9.371290e-01 -3.489832e-01
    outer loop
      vertex 5.568488e-01 1.722425e-01 1.387575e+00
      vertex 7.424650e-01 3.444850e-01 9.250500e-01
      vertex 7.424650e-01 1.132860e-16 1.850100e+00
    endloop
  endfacet
  facet normal 5.970261e-01 -6.433822e-01 -4.791860e-01
    outer loop
      vertex 5.568488e-01 1.722425e-01 1.387575e+00
      vertex 7.424650e-01 1.132860e-16 1.850100e+00
      vertex 3.712325e-01 1.110223e-16 1.387575e+00
    endloop
  endfacet
  facet normal -0.000000e+00 0.000000e+00 -1.000000e+00
    outer loop
      vertex 5.568488e-01 1.722425e-01 1.387575e+00
      vertex 3.712325e-01 1.110223e-16 1.387575e+00
      vertex 3.712325e-01 3.444850e-01 1.387575e+00
    endloop
  endfacet
  facet normal -5.970261e-01 -6.433822e-01 -4.791860e-01
    outer loop
      vertex 5.568488e-01 1.722425e-01 1.387575e+00
      vertex 3.712325e-01 3.444850e-01 1.387575e+00
      vertex 7.424650e-01 3.444850e-01 9.250500e-01
    endloop
  endfacet
  facet normal 6.802062e-01 -7.330208e-01 1.184910e-16
    outer loop
      vertex 3.712325e-01 -3.444850e-01 1.618838e+00
      vertex 7.424650e-01 1.132860e-16 1.850100e+00
      vertex 7.109871e-17 -6.889700e-01 1.850100e+00
    endloop
  endfacet
  facet normal 7.189723e-01 -3.873984e-01 5.770626e-01
    outer loop
      vertex 3.712325e-01 -3.444850e-01 1.618838e+00
      vertex 7.109871e-17 -6.889700e-01 1.850100e+00
      vertex 3.712325e-01 -6.889700e-01 1.387575e+00
    endloop
  endfacet
  facet normal 1.000000e+00 0.000000e+00 0.000000e+00
    outer loop
      vertex 3.712325e-01 -3.444850e-01 1.618838e+00
      vertex 3.712325e-01 -6.889700e-01 1.387575e+00
      vertex 3.712325e-01 1.110223e-16 1.387575e+00
    endloop
  endfacet
  facet normal 7.189723e-01 -3.873984e-01 -5.770626e-01
    outer loop
      vertex 3.712325e-01 -3.444850e-01 1.618838e+00
      vertex 3.712325e-01 1.110223e-16 1.387575e+00
      vertex 7.424650e-01 1.132860e-16 1.850100e+00
    endloop
  endfacet
  facet normal 7.574229e-17 -9.371290e-01 3.489832e-01
    outer loop
      vertex 1.856163e-01 -8.612125e-01 1.387575e+00
      vertex 7.109871e-17 -6.889700e-01 1.850100e+00
      vertex -6.637892e-18 -1.033455e+00 9.250500e-01
    endloop
  endfacet
  facet normal -5.970261e-01 -6.433822e-01 4.791860e-01
    outer loop
      vertex 1.856163e-01 -8.612125e-01 1.387575e+00
      vertex -6.637892e-18 -1.033455e+00 9.250500e-01
      vertex 3.712325e-01 -1.033455e+00 1.387575e+00
    endloop
  endfacet
  facet normal -0.000000e+00 0.000000e+00 1.000000e+00
    outer loop
      vertex 1.856163e-01 -8.612125e-01 1.387575e+00
      vertex 3.712325e-01 -1.033455e+00 1.387575e+00
      vertex 3.712325e-01 -6.889700e-01 1.387575e+00
    endloop
  endfacet
  facet normal 5.970261e-01 -6.433822e-01 4.791860e-01
    outer loop
      vertex 1.856163e-01 -8.612125e-01 1.387575e+00
      vertex 3.712325e-01 -6.889700e-01 1.387575e+00
      vertex 7.109871e-17 -6.889700e-01 1.850100e+00
    endloop
  endfacet
  facet normal 0.000000e+00 -9.371290e-01 -3.489832e-01
    outer loop
      vertex 5.568488e-01 -1.722425e-01 4.625250e-01
      vertex 7.424650e-01 0.000000e+00 0.000000e+00
      vertex 7.424650e-01 -3.444850e-01 9.250500e-01
    endloop
  endfacet
  facet normal 5.970261e-01 -6.433822e-01 -4.791860e-01
    outer loop
      vertex 5.568488e-01 -1.722425e-01 4.625250e-01
      vertex 7.424650e-01 -3.444850e-01 9.250500e-01
      vertex 3.712325e-01 -3.444850e-01 4.625250e-01
    endloop
  endfacet
  facet normal -0.000000e+00 0.000000e+00 -1.000000e+00
    outer loop
      vertex 5.568488e-01 -1.722425e-01 4.625250e-01
      vertex 3.712325e-01 -3.444850e-01 4.625250e-01
      vertex 3.712325e-01 2.273143e-17 4.625250e-01
    endloop
  endfacet
  facet normal -5.970261e-01 -6.433822e-01 -4.791860e-01
    outer loop
      vertex 5.568488e-01 -1.722425e-01 4.625250e-01
      vertex 3.712325e-01 2.273143e-17 4.625250e-01
      vertex 7.424650e-01 0.000000e+00 0.000000e+00
    endloop
  endfacet
  facet normal -6.802062e-01 -7.330208e-01 1.184910e-16
    outer loop
      vertex 3.712325e-01 5.551115e-17 6.937875e-01
      vertex 7.424650e-01 -3.444850e-01 9.250500e-01
      vertex 7.773660e-17 3.444850e-01 9.250500e-01
    endloop
  endfacet
  facet normal -7.189723e-01 -3.873984e-01 -5.770626e-01
    outer loop
      vertex 3.712325e-01 5.551115e-17 6.937875e-01
      vertex 7.773660e-17 3.444850e-01 9.250500e-01
      vertex 3.712325e-01 3.444850e-01 4.625250e-01
    endloop
  endfacet
  facet normal -1.000000e+00 0.000000e+00 -0.000000e+00
    outer loop
      vertex 3.712325e-01 5.551115e-17 6.937875e-01
      vertex 3.712325e-01 3.444850e-01 4.625250e-01
      vertex 3.712325e-01 -3.444850e-01 4.625250e-01
    endloop
  endfacet
  facet normal -7.189723e-01 -3.873984e-01 5.770626e-01
    outer loop
      vertex 3.712325e-01 5.551115e-17 6.937875e-01
      vertex 3.712325e-01 -3.444850e-01 4.625250e-01
      vertex 7.424650e-01 -3.444850e-01 9.250500e-01
    endloop
  endfacet
  facet normal 0.000000e+00 -9.371290e-01 3.489832e-01
    outer loop
      vertex 1.856163e-01 1.722425e-01 4.625250e-01
      vertex 7.773660e-17 3.444850e-01 9.250500e-01
      vertex 0.000000e+00 0.000000e+00 0.000000e+00
    endloop
  endfacet
  facet normal -5.970261e-01 -6.433822e-01 4.791860e-01
    outer loop
      vertex 1.856163e-01 1.722425e-01 4.625250e-01
      vertex 0.000000e+00 0.000000e+00 0.000000e+00
      vertex 3.712325e-01 -2.273143e-17 4.625250e-01
    endloop
  endfacet
  facet normal -0.000000e+00 0.000000e+00 1.000000e+00
    outer loop
      vertex 1.856163e-01 1.722425e-01 4.625250e-01
      vertex 3.712325e-01 -2.273143e-17 4.625250e-01
      vertex 3.712325e-01 3.444850e-01 4.625250e-01
    endloop
  endfacet
  facet normal 5.970261e-01 -6.433822e-01 4.791860e-01
    outer loop
      vertex 1.856163e-01 1.722425e-01 4.625250e-01
      vertex 3.712325e-01 3.444850e-01 4.625250e-01
      vertex 7.773660e-17 3.444850e-01 9.250500e-01
    endloop
  endfacet
  facet normal 0.000000e+00 -9.371290e-01 -3.489832e-01
    outer loop
      vertex 9.280813e-01 5.167275e-01 4.625250e-01
      vertex 7.424650e-01 3.444850e-01 9.250500e-01
      vertex 7.424650e-01 6.889700e-01 0.000000e+00
    endloop
  endfacet
  facet normal 5.970261e-01 -6.433822e-01 -4.791860e-01
    outer loop
      vertex 9.280813e-01 5.167275e-01 4.625250e-01
      vertex 7.424650e-01 6.889700e-01 0.000000e+00
      vertex 1.113698e+00 6.889700e-01 4.625250e-01
    endloop
  endfacet
  facet normal 0.000000e+00 0.000000e+00 -1.000000e+00
    outer loop
      vertex 9.280813e-01 5.167275e-01 4.625250e-01
      vertex 1.113698e+00 6.889700e-01 4.625250e-01
      vertex 1.113698e+00 3.444850e-01 4.625250e-01
    endloop
  endfacet
  facet normal -5.970261e-01 -6.433822e-01 -4.791860e-01
    outer loop
      vertex 9.280813e-01 5.167275e-01 4.625250e-01
      vertex 1.113698e+00 3.444850e-01 4.625250e-01
      vertex 7.424650e-01 3.444850e-01 9.250500e-01
    endloop
  endfacet
  facet normal 6.802062e-01 -7.330208e-01 -3.554730e-16
    outer loop
      vertex 1.113698e+00 1.033455e+00 2.312625e-01
      vertex 7.424650e-01 6.889700e-01 0.000000e+00
      vertex 1.484930e+00 1.377940e+00 0.000000e+00
    endloop
  endfacet
  facet normal 7.189723e-01 -3.873984e-01 5.770626e-01
    outer loop
      vertex 1.113698e+00 1.033455e+00 2.312625e-01
      vertex 1.484930e+00 1.377940e+00 0.000000e+00
      vertex 1.113698e+00 1.377940e+00 4.625250e-01
    endloop
  endfacet
  facet normal 1.000000e+00 0.000000e+00 -0.000000e+00
    outer loop
      vertex 1.113698e+00 1.033455e+00 2.312625e-01
      vertex 1.113698e+00 1.377940e+00 4.625250e-01
      vertex 1.113698e+00 6.889700e-01 4.625250e-01
    endloop
  endfacet
  facet normal 7.189723e-01 -3.873984e-01 -5.770626e-01
    outer loop
      vertex 1.113698e+00 1.033455e+00 2.312625e-01
      vertex 1.113698e+00 6.889700e-01 4.625250e-01
      vertex 7.424650e-01 6.889700e-01 0.000000e+00
    endloop
  endfacet
  facet normal 5.301960e-16 -9.371290e-01 3.489832e-01
    outer loop
      vertex 1.299314e+00 1.550182e+00 4.625250e-01
      vertex 1.484930e+00 1.377940e+00 0.000000e+00
      vertex 1.484930e+00 1.722425e+00 9.250500e-01
    endloop
  endfacet
  facet normal -5.970261e-01 -6.433822e-01 4.791860e-01
    outer loop
      vertex 1.299314e+00 1.550182e+00 4.625250e-01
      vertex 1.484930e+00 1.722425e+00 9.250500e-01
      vertex 1.113698e+00 1.722425e+00 4.625250e-01
    endloop
  endfacet
  facet normal 0.000000e+00 0.000000e+00 1.000000e+00
    outer loop
      vertex 1.299314e+00 1.550182e+00 4.625250e-01
      vertex 1.113698e+00 1.722425e+00 4.625250e-01
      vertex 1.113698e+00 1.377940e+00 4.625250e-01
    endloop
  endfacet
  facet normal 5.970261e-01 -6.433822e-01 4.791860e-01
    outer loop
      vertex 1.299314e+00 1.550182e+00 4.625250e-01
      vertex 1.113698e+00 1.377940e+00 4.625250e-01
      vertex 1.484930e+00 1.377940e+00 0.000000e+00
    endloop
  endfacet
endsolid surface_model
