solid surface_model
  facet normal -2.672612e-01 -8.017837e-01 -5.345225e-01
    outer loop
      vertex 0.000000e+00 1.493393e+00 2.240090e+00
      vertex 5.600225e-01 1.680067e+00 1.680067e+00
      vertex 1.120045e+00 1.120045e+00 2.240090e+00
    endloop
  endfacet
  facet normal -2.672612e-01 -8.017837e-01 5.345225e-01
    outer loop
      vertex 0.000000e+00 1.493393e+00 2.240090e+00
      vertex 1.120045e+00 1.120045e+00 2.240090e+00
      vertex 5.600225e-01 1.680068e+00 2.800113e+00
    endloop
  endfacet
  facet normal 0.000000e+00 -9.486833e-01 3.162278e-01
    outer loop
      vertex 0.000000e+00 1.493393e+00 2.240090e+00
      vertex 5.600225e-01 1.680068e+00 2.800113e+00
      vertex -5.600225e-01 1.680068e+00 2.800113e+00
    endloop
  endfacet
  facet normal 2.672612e-01 -8.017837e-01 5.345225e-01
    outer loop
      vertex 0.000000e+00 1.493393e+00 2.240090e+00
      vertex -5.600225e-01 1.680068e+00 2.800113e+00
      vertex -1.120045e+00 1.120045e+00 2.240090e+00
    endloop
  endfacet
  facet normal 2.672612e-01 -8.017837e-01 -5.345225e-01
    outer loop
      vertex 0.000000e+00 1.493393e+00 2.240090e+00
      vertex -1.120045e+00 1.120045e+00 2.240090e+00
      vertex -5.600225e-01 1.680067e+00 1.680067e+00
    endloop
  endfacet
  facet normal 0.000000e+00 -9.486833e-01 -3.162278e-01
    outer loop
      vertex 0.000000e+00 1.493393e+00 2.240090e+00
      vertex -5.600225e-01 1.680067e+00 1.680067e+00
      vertex 5.600225e-01 1.680067e+00 1.680067e+00
    endloop
  endfacet
  facet normal -4.082483e-01 -8.164966e-01 -4.082483e-01
    outer loop
      vertex 1.400056e+00 1.400056e+00 1.400056e+00
      vertex 1.120045e+00 1.120045e+00 2.240090e+00
      vertex 5.600225e-01 1.680067e+00 1.680067e+00
    endloop
  endfacet
  facet normal -4.082483e-01 -4.082483e-01 -8.164966e-01
    outer loop
      vertex 1.400056e+00 1.400056e+00 1.400056e+00
      vertex 5.600225e-01 1.680067e+00 1.680067e+00
      vertex 1.120045e+00 2.240090e+00 1.120045e+00
    endloop
  endfacet
  facet normal -8.164966e-01 -4.082483e-01 -4.082483e-01
    outer loop
      vertex 1.400056e+00 1.400056e+00 1.400056e+00
      vertex 1.120045e+00 2.240090e+00 1.120045e+00
      vertex 1.680067e+00 1.680067e+00 5.600225e-01
    endloop
  endfacet
  facet normal -4.082483e-01 -8.164966e-01 -4.082483e-01
    outer loop
      vertex 1.400056e+00 1.400056e+00 1.400056e+00
      vertex 1.680067e+00 1.680067e+00 5.600225e-01
      vertex 2.240090e+00 1.120045e+00 1.120045e+00
    endloop
  endfacet
  facet normal -4.082483e-01 -4.082483e-01 -8.164966e-01
    outer loop
      vertex 1.400056e+00 1.400056e+00 1.400056e+00
      vertex 2.240090e+00 1.120045e+00 1.120045e+00
      vertex 1.680067e+00 5.600225e-01 1.680067e+00
    endloop
  endfacet
  facet normal -8.164966e-01 -4.082483e-01 -4.082483e-01
    outer loop
      vertex 1.400056e+00 1.400056e+00 1.400056e+00
      vertex 1.680067e+00 5.600225e-01 1.680067e+00
      vertex 1.120045e+00 1.120045e+00 2.240090e+00
    endloop
  endfacet
  facet normal -2.672612e-01 -5.345225e-01 -8.017837e-01
    outer loop
      vertex 3.700743e-17 2.240090e+00 1.493393e+00
      vertex 1.120045e+00 2.240090e+00 1.120045e+00
      vertex 5.600225e-01 1.680067e+00 1.680067e+00
    endloop
  endfacet
  facet normal 0.000000e+00 -3.162278e-01 -9.486833e-01
    outer loop
      vertex 3.700743e-17 2.240090e+00 1.493393e+00
      vertex 5.600225e-01 1.680067e+00 1.680067e+00
      vertex -5.600225e-01 1.680067e+00 1.680067e+00
    endloop
  endfacet
  facet normal 2.672612e-01 -5.345225e-01 -8.017837e-01
    outer loop
      vertex 3.700743e-17 2.240090e+00 1.493393e+00
      vertex -5.600225e-01 1.680067e+00 1.680067e+00
      vertex -1.120045e+00 2.240090e+00 1.120045e+00
    endloop
  endfacet
  facet normal 2.672612e-01 5.345225e-01 -8.017837e-01
    outer loop
      vertex 3.700743e-17 2.240090e+00 1.493393e+00
      vertex -1.120045e+00 2.240090e+00 1.120045e+00
      vertex -5.600225e-01 2.800113e+00 1.680067e+00
    endloop
  endfacet
  facet normal 0.000000e+00 3.162278e-01 -9.486833e-01
    outer loop
      vertex 3.700743e-17 2.240090e+00 1.493393e+00
      vertex -5.600225e-01 2.800113e+00 1.680067e+00
      vertex 5.600225e-01 2.800113e+00 1.680067e+00
    endloop
  endfacet
  facet normal -2.672612e-01 5.345225e-01 -8.017837e-01
    outer loop
      vertex 3.700743e-17 2.240090e+00 1.493393e+00
      vertex 5.600225e-01 2.800113e+00 1.680067e+00
      vertex 1.120045e+00 2.240090e+00 1.120045e+00
    endloop
  endfacet
  facet normal -8.017837e-01 -2.672612e-01 -5.345225e-01
    outer loop
      vertex 1.493393e+00 1.850372e-17 2.240090e+00
      vertex 1.120045e+00 1.120045e+00 2.240090e+00
      vertex 1.680067e+00 5.600225e-01 1.680067e+00
    endloop
  endfacet
  facet normal -9.486833e-01 0.000000e+00 -3.162278e-01
    outer loop
      vertex 1.493393e+00 1.850372e-17 2.240090e+00
      vertex 1.680067e+00 5.600225e-01 1.680067e+00
      vertex 1.680067e+00 -5.600225e-01 1.680067e+00
    endloop
  endfacet
  facet normal -8.017837e-01 2.672612e-01 -5.345225e-01
    outer loop
      vertex 1.493393e+00 1.850372e-17 2.240090e+00
      vertex 1.680067e+00 -5.600225e-01 1.680067e+00
      vertex 1.120045e+00 -1.120045e+00 2.240090e+00
    endloop
  endfacet
  facet normal -8.017837e-01 2.672612e-01 5.345225e-01
    outer loop
      vertex 1.493393e+00 1.850372e-17 2.240090e+00
      vertex 1.120045e+00 -1.120045e+00 2.240090e+00
      vertex 1.680068e+00 -5.600225e-01 2.800113e+00
    endloop
  endfacet
  facet normal -9.486833e-01 0.000000e+00 3.162278e-01
    outer loop
      vertex 1.493393e+00 1.850372e-17 2.240090e+00
      vertex 1.680068e+00 -5.600225e-01 2.800113e+00
      vertex 1.680068e+00 5.600225e-01 2.800113e+00
    endloop
  endfacet
  facet normal -8.017837e-01 -2.672612e-01 5.345225e-01
    outer loop
      vertex 1.493393e+00 1.850372e-17 2.240090e+00
      vertex 1.680068e+00 5.600225e-01 2.800113e+00
      vertex 1.120045e+00 1.120045e+00 2.240090e+00
    endloop
  endfacet
  facet normal -5.345225e-01 -2.672612e-01 -8.017837e-01
    outer loop
      vertex 2.240090e+00 0.000000e+00 1.493393e+00
      vertex 1.680067e+00 5.600225e-01 1.680067e+00
      vertex 2.240090e+00 1.120045e+00 1.120045e+00
    endloop
  endfacet
  facet normal 5.345225e-01 -2.672612e-01 -8.017837e-01
    outer loop
      vertex 2.240090e+00 0.000000e+00 1.493393e+00
      vertex 2.240090e+00 1.120045e+00 1.120045e+00
      vertex 2.800113e+00 5.600225e-01 1.680067e+00
    endloop
  endfacet
  facet normal 3.162278e-01 0.000000e+00 -9.486833e-01
    outer loop
      vertex 2.240090e+00 0.000000e+00 1.493393e+00
      vertex 2.800113e+00 5.600225e-01 1.680067e+00
      vertex 2.800113e+00 -5.600225e-01 1.680067e+00
    endloop
  endfacet
  facet normal 5.345225e-01 2.672612e-01 -8.017837e-01
    outer loop
      vertex 2.240090e+00 0.000000e+00 1.493393e+00
      vertex 2.800113e+00 -5.600225e-01 1.680067e+00
      vertex 2.240090e+00 -1.120045e+00 1.120045e+00
    endloop
  endfacet
  facet normal -5.345225e-01 2.672612e-01 -8.017837e-01
    outer loop
      vertex 2.240090e+00 0.000000e+00 1.493393e+00
      vertex 2.240090e+00 -1.120045e+00 1.120045e+00
      vertex 1.680067e+00 -5.600225e-01 1.680067e+00
    endloop
  endfacet
  facet normal -3.162278e-01 0.000000e+00 -9.486833e-01
    outer loop
      vertex 2.240090e+00 0.000000e+00 1.493393e+00
      vertex 1.680067e+00 -5.600225e-01 1.680067e+00
      vertex 1.680067e+00 5.600225e-01 1.680067e+00
    endloop
  endfacet
  facet normal -8.017837e-01 -5.345225e-01 -2.672612e-01
    outer loop
      vertex 1.493393e+00 2.240090e+00 -7.401487e-17
      vertex 1.680067e+00 1.680067e+00 5.600225e-01
      vertex 1.120045e+00 2.240090e+00 1.120045e+00
    endloop
  endfacet
  facet normal -8.017837e-01 5.345225e-01 -2.672612e-01
    outer loop
      vertex 1.493393e+00 2.240090e+00 -7.401487e-17
      vertex 1.120045e+00 2.240090e+00 1.120045e+00
      vertex 1.680068e+00 2.800113e+00 5.600225e-01
    endloop
  endfacet
  facet normal -9.486833e-01 3.162278e-01 0.000000e+00
    outer loop
      vertex 1.493393e+00 2.240090e+00 -7.401487e-17
      vertex 1.680068e+00 2.800113e+00 5.600225e-01
      vertex 1.680068e+00 2.800113e+00 -5.600225e-01
    endloop
  endfacet
  facet normal -8.017837e-01 5.345225e-01 2.672612e-01
    outer loop
      vertex 1.493393e+00 2.240090e+00 -7.401487e-17
      vertex 1.680068e+00 2.800113e+00 -5.600225e-01
      vertex 1.120045e+00 2.240090e+00 -1.120045e+00
    endloop
  endfacet
  facet normal -8.017837e-01 -5.345225e-01 2.672612e-01
    outer loop
      vertex 1.493393e+00 2.240090e+00 -7.401487e-17
      vertex 1.120045e+00 2.240090e+00 -1.120045e+00
      vertex 1.680067e+00 1.680067e+00 -5.600225e-01
    endloop
  endfacet
  facet normal -9.486833e-01 -3.162278e-01 0.000000e+00
    outer loop
      vertex 1.493393e+00 2.240090e+00 -7.401487e-17
      vertex 1.680067e+00 1.680067e+00 -5.600225e-01
      vertex 1.680067e+00 1.680067e+00 5.600225e-01
    endloop
  endfacet
  facet normal -5.345225e-01 -8.017837e-01 -2.672612e-01
    outer loop
      vertex 2.240090e+00 1.493393e+00 -9.251859e-17
      vertex 2.240090e+00 1.120045e+00 1.120045e+00
      vertex 1.680067e+00 1.680067e+00 5.600225e-01
    endloop
  endfacet
  facet normal -3.162278e-01 -9.486833e-01 0.000000e+00
    outer loop
      vertex 2.240090e+00 1.493393e+00 -9.251859e-17
      vertex 1.680067e+00 1.680067e+00 5.600225e-01
      vertex 1.680067e+00 1.680067e+00 -5.600225e-01
    endloop
  endfacet
  facet normal -5.345225e-01 -8.017837e-01 2.672612e-01
    outer loop
      vertex 2.240090e+00 1.493393e+00 -9.251859e-17
      vertex 1.680067e+00 1.680067e+00 -5.600225e-01
      vertex 2.240090e+00 1.120045e+00 -1.120045e+00
    endloop
  endfacet
  facet normal 5.345225e-01 -8.017837e-01 2.672612e-01
    outer loop
      vertex 2.240090e+00 1.493393e+00 -9.251859e-17
      vertex 2.240090e+00 1.120045e+00 -1.120045e+00
      vertex 2.800113e+00 1.680067e+00 -5.600225e-01
    endloop
  endfacet
  facet normal 3.162278e-01 -9.486833e-01 0.000000e+00
    outer loop
      vertex 2.240090e+00 1.493393e+00 -9.251859e-17
      vertex 2.800113e+00 1.680067e+00 -5.600225e-01
      vertex 2.800113e+00 1.680067e+00 5.600225e-01
    endloop
  endfacet
  facet normal 5.345225e-01 -8.017837e-01 -2.672612e-01
    outer loop
      vertex 2.240090e+00 1.493393e+00 -9.251859e-17
      vertex 2.800113e+00 1.680067e+00 5.600225e-01
      vertex 2.240090e+00 1.120045e+00 1.120045e+00
    endloop
  endfacet
  facet normal -4.082483e-01 -8.164966e-01 4.082483e-01
    outer loop
      vertex 1.400056e+00 1.400056e+00 3.080124e+00
      vertex 5.600225e-01 1.680068e+00 2.800113e+00
      vertex 1.120045e+00 1.120045e+00 2.240090e+00
    endloop
  endfacet
  facet normal -8.164966e-01 -4.082483e-01 4.082483e-01
    outer loop
      vertex 1.400056e+00 1.400056e+00 3.080124e+00
      vertex 1.120045e+00 1.120045e+00 2.240090e+00
      vertex 1.680068e+00 5.600225e-01 2.800113e+00
    endloop
  endfacet
  facet normal -4.082483e-01 -4.082483e-01 8.164966e-01
    outer loop
      vertex 1.400056e+00 1.400056e+00 3.080124e+00
      vertex 1.680068e+00 5.600225e-01 2.800113e+00
      vertex 2.240090e+00 1.120045e+00 3.360135e+00
    endloop
  endfacet
  facet normal -4.082483e-01 -8.164966e-01 4.082483e-01
    outer loop
      vertex 1.400056e+00 1.400056e+00 3.080124e+00
      vertex 2.240090e+00 1.120045e+00 3.360135e+00
      vertex 1.680068e+00 1.680068e+00 3.920157e+00
    endloop
  endfacet
  facet normal -8.164966e-01 -4.082483e-01 4.082483e-01
    outer loop
      vertex 1.400056e+00 1.400056e+00 3.080124e+00
      vertex 1.680068e+00 1.680068e+00 3.920157e+00
      vertex 1.120045e+00 2.240090e+00 3.360135e+00
    endloop
  endfacet
  facet normal -4.082483e-01 -4.082483e-01 8.164966e-01
    outer loop
      vertex 1.400056e+00 1.400056e+00 3.080124e+00
      vertex 1.120045e+00 2.240090e+00 3.360135e+00
      vertex 5.600225e-01 1.680068e+00 2.800113e+00
    endloop
  endfacet
  facet normal -2.672612e-01 -5.345225e-01 8.017837e-01
    outer loop
      vertex 1.480297e-16 2.240090e+00 2.986787e+00
      vertex 5.600225e-01 1.680068e+00 2.800113e+00
      vertex 1.120045e+00 2.240090e+00 3.360135e+00
    endloop
  endfacet
  facet normal -2.672612e-01 5.345225e-01 8.017837e-01
    outer loop
      vertex 1.480297e-16 2.240090e+00 2.986787e+00
      vertex 1.120045e+00 2.240090e+00 3.360135e+00
      vertex 5.600225e-01 2.800113e+00 2.800113e+00
    endloop
  endfacet
  facet normal 0.000000e+00 3.162278e-01 9.486833e-01
    outer loop
      vertex 1.480297e-16 2.240090e+00 2.986787e+00
      vertex 5.600225e-01 2.800113e+00 2.800113e+00
      vertex -5.600225e-01 2.800113e+00 2.800113e+00
    endloop
  endfacet
  facet normal 2.672612e-01 5.345225e-01 8.017837e-01
    outer loop
      vertex 1.480297e-16 2.240090e+00 2.986787e+00
      vertex -5.600225e-01 2.800113e+00 2.800113e+00
      vertex -1.120045e+00 2.240090e+00 3.360135e+00
    endloop
  endfacet
  facet normal 2.672612e-01 -5.345225e-01 8.017837e-01
    outer loop
      vertex 1.480297e-16 2.240090e+00 2.986787e+00
      vertex -1.120045e+00 2.240090e+00 3.360135e+00
      vertex -5.600225e-01 1.680068e+00 2.800113e+00
    endloop
  endfacet
  facet normal 0.000000e+00 -3.162278e-01 9.486833e-01
    outer loop
      vertex 1.480297e-16 2.240090e+00 2.986787e+00
      vertex -5.600225e-01 1.680068e+00 2.800113e+00
      vertex 5.600225e-01 1.680068e+00 2.800113e+00
    endloop
  endfacet
  facet normal -4.082483e-01 4.082483e-01 -8.164966e-01
    outer loop
      vertex 1.400056e+00 3.080124e+00 1.400056e+00
      vertex 1.120045e+00 2.240090e+00 1.120045e+00
      vertex 5.600225e-01 2.800113e+00 1.680067e+00
    endloop
  endfacet
  facet normal -4.082483e-01 8.164966e-01 -4.082483e-01
    outer loop
      vertex 1.400056e+00 3.080124e+00 1.400056e+00
      vertex 5.600225e-01 2.800113e+00 1.680067e+00
      vertex 1.120045e+00 3.360135e+00 2.240090e+00
    endloop
  endfacet
  facet normal -8.164966e-01 4.082483e-01 -4.082483e-01
    outer loop
      vertex 1.400056e+00 3.080124e+00 1.400056e+00
      vertex 1.120045e+00 3.360135e+00 2.240090e+00
      vertex 1.680068e+00 3.920157e+00 1.680067e+00
    endloop
  endfacet
  facet normal -4.082483e-01 4.082483e-01 -8.164966e-01
    outer loop
      vertex 1.400056e+00 3.080124e+00 1.400056e+00
      vertex 1.680068e+00 3.920157e+00 1.680067e+00
      vertex 2.240090e+00 3.360135e+00 1.120045e+00
    endloop
  endfacet
  facet normal -4.082483e-01 8.164966e-01 -4.082483e-01
    outer loop
      vertex 1.400056e+00 3.080124e+00 1.400056e+00
      vertex 2.240090e+00 3.360135e+00 1.120045e+00
      vertex 1.680068e+00 2.800113e+00 5.600225e-01
    endloop
  endfacet
  facet normal -8.164966e-01 4.082483e-01 -4.082483e-01
    outer loop
      vertex 1.400056e+00 3.080124e+00 1.400056e+00
      vertex 1.680068e+00 2.800113e+00 5.600225e-01
      vertex 1.120045e+00 2.240090e+00 1.120045e+00
    endloop
  endfacet
  facet normal -2.672612e-01 8.017837e-01 -5.345225e-01
    outer loop
      vertex 1.295260e-16 2.986787e+00 2.240090e+00
      vertex 1.120045e+00 3.360135e+00 2.240090e+00
      vertex 5.600225e-01 2.800113e+00 1.680067e+00
    endloop
  endfacet
  facet normal 0.000000e+00 9.486833e-01 -3.162278e-01
    outer loop
      vertex 1.295260e-16 2.986787e+00 2.240090e+00
      vertex 5.600225e-01 2.800113e+00 1.680067e+00
      vertex -5.600225e-01 2.800113e+00 1.680067e+00
    endloop
  endfacet
  facet normal 2.672612e-01 8.017837e-01 -5.345225e-01
    outer loop
      vertex 1.295260e-16 2.986787e+00 2.240090e+00
      vertex -5.600225e-01 2.800113e+00 1.680067e+00
      vertex -1.120045e+00 3.360135e+00 2.240090e+00
    endloop
  endfacet
  facet normal 2.672612e-01 8.017837e-01 5.345225e-01
    outer loop
      vertex 1.295260e-16 2.986787e+00 2.240090e+00
      vertex -1.120045e+00 3.360135e+00 2.240090e+00
      vertex -5.600225e-01 2.800113e+00 2.800113e+00
    endloop
  endfacet
  facet normal 0.000000e+00 9.486833e-01 3.162278e-01
    outer loop
      vertex 1.295260e-16 2.986787e+00 2.240090e+00
      vertex -5.600225e-01 2.800113e+00 2.800113e+00
      vertex 5.600225e-01 2.800113e+00 2.800113e+00
    endloop
  endfacet
  facet normal -2.672612e-01 8.017837e-01 5.345225e-01
    outer loop
      vertex 1.295260e-16 2.986787e+00 2.240090e+00
      vertex 5.600225e-01 2.800113e+00 2.800113e+00
      vertex 1.120045e+00 3.360135e+00 2.240090e+00
    endloop
  endfacet
  facet normal -5.345225e-01 -2.672612e-01 8.017837e-01
    outer loop
      vertex 2.240090e+00 1.850372e-17 2.986787e+00
      vertex 2.240090e+00 1.120045e+00 3.360135e+00
      vertex 1.680068e+00 5.600225e-01 2.800113e+00
    endloop
  endfacet
  facet normal -3.162278e-01 0.000000e+00 9.486833e-01
    outer loop
      vertex 2.240090e+00 1.850372e-17 2.986787e+00
      vertex 1.680068e+00 5.600225e-01 2.800113e+00
      vertex 1.680068e+00 -5.600225e-01 2.800113e+00
    endloop
  endfacet
  facet normal -5.345225e-01 2.672612e-01 8.017837e-01
    outer loop
      vertex 2.240090e+00 1.850372e-17 2.986787e+00
      vertex 1.680068e+00 -5.600225e-01 2.800113e+00
      vertex 2.240090e+00 -1.120045e+00 3.360135e+00
    endloop
  endfacet
  facet normal 5.345225e-01 2.672612e-01 8.017837e-01
    outer loop
      vertex 2.240090e+00 1.850372e-17 2.986787e+00
      vertex 2.240090e+00 -1.120045e+00 3.360135e+00
      vertex 2.800113e+00 -5.600225e-01 2.800113e+00
    endloop
  endfacet
  facet normal 3.162278e-01 0.000000e+00 9.486833e-01
    outer loop
      vertex 2.240090e+00 1.850372e-17 2.986787e+00
      vertex 2.800113e+00 -5.600225e-01 2.800113e+00
      vertex 2.800113e+00 5.600225e-01 2.800113e+00
    endloop
  endfacet
  facet normal 5.345225e-01 -2.672612e-01 8.017837e-01
    outer loop
      vertex 2.240090e+00 1.850372e-17 2.986787e+00
      vertex 2.800113e+00 5.600225e-01 2.800113e+00
      vertex 2.240090e+00 1.120045e+00 3.360135e+00
    endloop
  endfacet
  facet normal -5.345225e-01 8.017837e-01 -2.672612e-01
    outer loop
      vertex 2.240090e+00 2.986787e+00 -7.401487e-17
      vertex 1.680068e+00 2.800113e+00 5.600225e-01
      vertex 2.240090e+00 3.360135e+00 1.120045e+00
    endloop
  endfacet
  facet normal 5.345225e-01 8.017837e-01 -2.672612e-01
    outer loop
      vertex 2.240090e+00 2.986787e+00 -7.401487e-17
      vertex 2.240090e+00 3.360135e+00 1.120045e+00
      vertex 2.800113e+00 2.800113e+00 5.600225e-01
    endloop
  endfacet
  facet normal 3.162278e-01 9.486833e-01 0.000000e+00
    outer loop
      vertex 2.240090e+00 2.986787e+00 -7.401487e-17
      vertex 2.800113e+00 2.800113e+00 5.600225e-01
      vertex 2.800113e+00 2.800113e+00 -5.600225e-01
    endloop
  endfacet
  facet normal 5.345225e-01 8.017837e-01 2.672612e-01
    outer loop
      vertex 2.240090e+00 2.986787e+00 -7.401487e-17
      vertex 2.800113e+00 2.800113e+00 -5.600225e-01
      vertex 2.240090e+00 3.360135e+00 -1.120045e+00
    endloop
  endfacet
  facet normal -5.345225e-01 8.017837e-01 2.672612e-01
    outer loop
      vertex 2.240090e+00 2.986787e+00 -7.401487e-17
      vertex 2.240090e+00 3.360135e+00 -1.120045e+00
      vertex 1.680068e+00 2.800113e+00 -5.600225e-01
    endloop
  endfacet
  facet normal -3.162278e-01 9.486833e-01 0.000000e+00
    outer loop
      vertex 2.240090e+00 2.986787e+00 -7.401487e-17
      vertex 1.680068e+00 2.800113e+00 -5.600225e-01
      vertex 1.680068e+00 2.800113e+00 5.600225e-01
    endloop
  endfacet
  facet normal 4.082483e-01 -4.082483e-01 -8.164966e-01
    outer loop
      vertex 3.080124e+00 1.400056e+00 1.400056e+00
      vertex 2.800113e+00 5.600225e-01 1.680067e+00
      vertex 2.240090e+00 1.120045e+00 1.120045e+00
    endloop
  endfacet
  facet normal 4.082483e-01 -8.164966e-01 -4.082483e-01
    outer loop
      vertex 3.080124e+00 1.400056e+00 1.400056e+00
      vertex 2.240090e+00 1.120045e+00 1.120045e+00
      vertex 2.800113e+00 1.680067e+00 5.600225e-01
    endloop
  endfacet
  facet normal 8.164966e-01 -4.082483e-01 -4.082483e-01
    outer loop
      vertex 3.080124e+00 1.400056e+00 1.400056e+00
      vertex 2.800113e+00 1.680067e+00 5.600225e-01
      vertex 3.360135e+00 2.240090e+00 1.120045e+00
    endloop
  endfacet
  facet normal 4.082483e-01 -4.082483e-01 -8.164966e-01
    outer loop
      vertex 3.080124e+00 1.400056e+00 1.400056e+00
      vertex 3.360135e+00 2.240090e+00 1.120045e+00
      vertex 3.920157e+00 1.680067e+00 1.680067e+00
    endloop
  endfacet
  facet normal 4.082483e-01 -8.164966e-01 -4.082483e-01
    outer loop
      vertex 3.080124e+00 1.400056e+00 1.400056e+00
      vertex 3.920157e+00 1.680067e+00 1.680067e+00
      vertex 3.360135e+00 1.120045e+00 2.240090e+00
    endloop
  endfacet
  facet normal 8.164966e-01 -4.082483e-01 -4.082483e-01
    outer loop
      vertex 3.080124e+00 1.400056e+00 1.400056e+00
      vertex 3.360135e+00 1.120045e+00 2.240090e+00
      vertex 2.800113e+00 5.600225e-01 1.680067e+00
    endloop
  endfacet
  facet normal 8.017837e-01 -2.672612e-01 -5.345225e-01
    outer loop
      vertex 2.986787e+00 0.000000e+00 2.240090e+00
      vertex 2.800113e+00 5.600225e-01 1.680067e+00
      vertex 3.360135e+00 1.120045e+00 2.240090e+00
    endloop
  endfacet
  facet normal 8.017837e-01 -2.672612e-01 5.345225e-01
    outer loop
      vertex 2.986787e+00 0.000000e+00 2.240090e+00
      vertex 3.360135e+00 1.120045e+00 2.240090e+00
      vertex 2.800113e+00 5.600225e-01 2.800113e+00
    endloop
  endfacet
  facet normal 9.486833e-01 0.000000e+00 3.162278e-01
    outer loop
      vertex 2.986787e+00 0.000000e+00 2.240090e+00
      vertex 2.800113e+00 5.600225e-01 2.800113e+00
      vertex 2.800113e+00 -5.600225e-01 2.800113e+00
    endloop
  endfacet
  facet normal 8.017837e-01 2.672612e-01 5.345225e-01
    outer loop
      vertex 2.986787e+00 0.000000e+00 2.240090e+00
      vertex 2.800113e+00 -5.600225e-01 2.800113e+00
      vertex 3.360135e+00 -1.120045e+00 2.240090e+00
    endloop
  endfacet
  facet normal 8.017837e-01 2.672612e-01 -5.345225e-01
    outer loop
      vertex 2.986787e+00 0.000000e+00 2.240090e+00
      vertex 3.360135e+00 -1.120045e+00 2.240090e+00
      vertex 2.800113e+00 -5.600225e-01 1.680067e+00
    endloop
  endfacet
  facet normal 9.486833e-01 0.000000e+00 -3.162278e-01
    outer loop
      vertex 2.986787e+00 0.000000e+00 2.240090e+00
      vertex 2.800113e+00 -5.600225e-01 1.680067e+00
      vertex 2.800113e+00 5.600225e-01 1.680067e+00
    endloop
  endfacet
  facet normal 8.017837e-01 -5.345225e-01 -2.672612e-01
    outer loop
      vertex 2.986787e+00 2.240090e+00 -9.251859e-17
      vertex 3.360135e+00 2.240090e+00 1.120045e+00
      vertex 2.800113e+00 1.680067e+00 5.600225e-01
    endloop
  endfacet
  facet normal 9.486833e-01 -3.162278e-01 0.000000e+00
    outer loop
      vertex 2.986787e+00 2.240090e+00 -9.251859e-17
      vertex 2.800113e+00 1.680067e+00 5.600225e-01
      vertex 2.800113e+00 1.680067e+00 -5.600225e-01
    endloop
  endfacet
  facet normal 8.017837e-01 -5.345225e-01 2.672612e-01
    outer loop
      vertex 2.986787e+00 2.240090e+00 -9.251859e-17
      vertex 2.800113e+00 1.680067e+00 -5.600225e-01
      vertex 3.360135e+00 2.240090e+00 -1.120045e+00
    endloop
  endfacet
  facet normal 8.017837e-01 5.345225e-01 2.672612e-01
    outer loop
      vertex 2.986787e+00 2.240090e+00 -9.251859e-17
      vertex 3.360135e+00 2.240090e+00 -1.120045e+00
      vertex 2.800113e+00 2.800113e+00 -5.600225e-01
    endloop
  endfacet
  facet normal 9.486833e-01 3.162278e-01 0.000000e+00
    outer loop
      vertex 2.986787e+00 2.240090e+00 -9.251859e-17
      vertex 2.800113e+00 2.800113e+00 -5.600225e-01
      vertex 2.800113e+00 2.800113e+00 5.600225e-01
    endloop
  endfacet
  facet normal 8.017837e-01 5.345225e-01 -2.672612e-01
    outer loop
      vertex 2.986787e+00 2.240090e+00 -9.251859e-17
      vertex 2.800113e+00 2.800113e+00 5.600225e-01
      vertex 3.360135e+00 2.240090e+00 1.120045e+00
    endloop
  endfacet
  facet normal -4.082483e-01 4.082483e-01 8.164966e-01
    outer loop
      vertex 1.400056e+00 3.080124e+00 3.080124e+00
      vertex 5.600225e-01 2.800113e+00 2.800113e+00
      vertex 1.120045e+00 2.240090e+00 3.360135e+00
    endloop
  endfacet
  facet normal -8.164966e-01 4.082483e-01 4.082483e-01
    outer loop
      vertex 1.400056e+00 3.080124e+00 3.080124e+00
      vertex 1.120045e+00 2.240090e+00 3.360135e+00
      vertex 1.680068e+00 2.800113e+00 3.920157e+00
    endloop
  endfacet
  facet normal -4.082483e-01 8.164966e-01 4.082483e-01
    outer loop
      vertex 1.400056e+00 3.080124e+00 3.080124e+00
      vertex 1.680068e+00 2.800113e+00 3.920157e+00
      vertex 2.240090e+00 3.360135e+00 3.360135e+00
    endloop
  endfacet
  facet normal -4.082483e-01 4.082483e-01 8.164966e-01
    outer loop
      vertex 1.400056e+00 3.080124e+00 3.080124e+00
      vertex 2.240090e+00 3.360135e+00 3.360135e+00
      vertex 1.680068e+00 3.920157e+00 2.800113e+00
    endloop
  endfacet
  facet normal -8.164966e-01 4.082483e-01 4.082483e-01
    outer loop
      vertex 1.400056e+00 3.080124e+00 3.080124e+00
      vertex 1.680068e+00 3.920157e+00 2.800113e+00
      vertex 1.120045e+00 3.360135e+00 2.240090e+00
    endloop
  endfacet
  facet normal -4.082483e-01 8.164966e-01 4.082483e-01
    outer loop
      vertex 1.400056e+00 3.080124e+00 3.080124e+00
      vertex 1.120045e+00 3.360135e+00 2.240090e+00
      vertex 5.600225e-01 2.800113e+00 2.800113e+00
    endloop
  endfacet
  facet normal 4.082483e-01 -4.082483e-01 8.164966e-01
    outer loop
      vertex 3.080124e+00 1.400056e+00 3.080124e+00
      vertex 2.240090e+00 1.120045e+00 3.360135e+00
      vertex 2.800113e+00 5.600225e-01 2.800113e+00
    endloop
  endfacet
  facet normal 8.164966e-01 -4.082483e-01 4.082483e-01
    outer loop
      vertex 3.080124e+00 1.400056e+00 3.080124e+00
      vertex 2.800113e+00 5.600225e-01 2.800113e+00
      vertex 3.360135e+00 1.120045e+00 2.240090e+00
    endloop
  endfacet
  facet normal 4.082483e-01 -8.164966e-01 4.082483e-01
    outer loop
      vertex 3.080124e+00 1.400056e+00 3.080124e+00
      vertex 3.360135e+00 1.120045e+00 2.240090e+00
      vertex 3.920157e+00 1.680068e+00 2.800113e+00
    endloop
  endfacet
  facet normal 4.082483e-01 -4.082483e-01 8.164966e-01
    outer loop
      vertex 3.080124e+00 1.400056e+00 3.080124e+00
      vertex 3.920157e+00 1.680068e+00 2.800113e+00
      vertex 3.360135e+00 2.240090e+00 3.360135e+00
    endloop
  endfacet
  facet normal 8.164966e-01 -4.082483e-01 4.082483e-01
    outer loop
      vertex 3.080124e+00 1.400056e+00 3.080124e+00
      vertex 3.360135e+00 2.240090e+00 3.360135e+00
      vertex 2.800113e+00 1.680068e+00 3.920157e+00
    endloop
  endfacet
  facet normal 4.082483e-01 -8.164966e-01 4.082483e-01
    outer loop
      vertex 3.080124e+00 1.400056e+00 3.080124e+00
      vertex 2.800113e+00 1.680068e+00 3.920157e+00
      vertex 2.240090e+00 1.120045e+00 3.360135e+00
    endloop
  endfacet
  facet normal 4.082483e-01 8.164966e-01 -4.082483e-01
    outer loop
      vertex 3.080124e+00 3.080124e+00 1.400056e+00
      vertex 2.800113e+00 2.800113e+00 5.600225e-01
      vertex 2.240090e+00 3.360135e+00 1.120045e+00
    endloop
  endfacet
  facet normal 4.082483e-01 4.082483e-01 -8.164966e-01
    outer loop
      vertex 3.080124e+00 3.080124e+00 1.400056e+00
      vertex 2.240090e+00 3.360135e+00 1.120045e+00
      vertex 2.800113e+00 3.920157e+00 1.680067e+00
    endloop
  endfacet
  facet normal 8.164966e-01 4.082483e-01 -4.082483e-01
    outer loop
      vertex 3.080124e+00 3.080124e+00 1.400056e+00
      vertex 2.800113e+00 3.920157e+00 1.680067e+00
      vertex 3.360135e+00 3.360135e+00 2.240090e+00
    endloop
  endfacet
  facet normal 4.082483e-01 8.164966e-01 -4.082483e-01
    outer loop
      vertex 3.080124e+00 3.080124e+00 1.400056e+00
      vertex 3.360135e+00 3.360135e+00 2.240090e+00
      vertex 3.920157e+00 2.800113e+00 1.680067e+00
    endloop
  endfacet
  facet normal 4.082483e-01 4.082483e-01 -8.164966e-01
    outer loop
      vertex 3.080124e+00 3.080124e+00 1.400056e+00
      vertex 3.920157e+00 2.800113e+00 1.680067e+00
      vertex 3.360135e+00 2.240090e+00 1.120045e+00
    endloop
  endfacet
  facet normal 8.164966e-01 4.082483e-01 -4.082483e-01
    outer loop
      vertex 3.080124e+00 3.080124e+00 1.400056e+00
      vertex 3.360135e+00 2.240090e+00 1.120045e+00
      vertex 2.800113e+00 2.800113e+00 5.600225e-01
    endloop
  endfacet
  facet normal -8.017837e-01 -5.345225e-01 2.672612e-01
    outer loop
      vertex 1.493393e+00 2.240090e+00 4.480180e+00
      vertex 1.120045e+00 2.240090e+00 3.360135e+00
      vertex 1.680068e+00 1.680068e+00 3.920157e+00
    endloop
  endfacet
  facet normal -9.486833e-01 -3.162278e-01 0.000000e+00
    outer loop
      vertex 1.493393e+00 2.240090e+00 4.480180e+00
      vertex 1.680068e+00 1.680068e+00 3.920157e+00
      vertex 1.680068e+00 1.680068e+00 5.040202e+00
    endloop
  endfacet
  facet normal -8.017837e-01 -5.345225e-01 -2.672612e-01
    outer loop
      vertex 1.493393e+00 2.240090e+00 4.480180e+00
      vertex 1.680068e+00 1.680068e+00 5.040202e+00
      vertex 1.120045e+00 2.240090e+00 5.600225e+00
    endloop
  endfacet
  facet normal -8.017837e-01 5.345225e-01 -2.672612e-01
    outer loop
      vertex 1.493393e+00 2.240090e+00 4.480180e+00
      vertex 1.120045e+00 2.240090e+00 5.600225e+00
      vertex 1.680068e+00 2.800113e+00 5.040202e+00
    endloop
  endfacet
  facet normal -9.486833e-01 3.162278e-01 0.000000e+00
    outer loop
      vertex 1.493393e+00 2.240090e+00 4.480180e+00
      vertex 1.680068e+00 2.800113e+00 5.040202e+00
      vertex 1.680068e+00 2.800113e+00 3.920157e+00
    endloop
  endfacet
  facet normal -8.017837e-01 5.345225e-01 2.672612e-01
    outer loop
      vertex 1.493393e+00 2.240090e+00 4.480180e+00
      vertex 1.680068e+00 2.800113e+00 3.920157e+00
      vertex 1.120045e+00 2.240090e+00 3.360135e+00
    endloop
  endfacet
  facet normal -5.345225e-01 -8.017837e-01 2.672612e-01
    outer loop
      vertex 2.240090e+00 1.493393e+00 4.480180e+00
      vertex 1.680068e+00 1.680068e+00 3.920157e+00
      vertex 2.240090e+00 1.120045e+00 3.360135e+00
    endloop
  endfacet
  facet normal 5.345225e-01 -8.017837e-01 2.672612e-01
    outer loop
      vertex 2.240090e+00 1.493393e+00 4.480180e+00
      vertex 2.240090e+00 1.120045e+00 3.360135e+00
      vertex 2.800113e+00 1.680068e+00 3.920157e+00
    endloop
  endfacet
  facet normal 3.162278e-01 -9.486833e-01 0.000000e+00
    outer loop
      vertex 2.240090e+00 1.493393e+00 4.480180e+00
      vertex 2.800113e+00 1.680068e+00 3.920157e+00
      vertex 2.800113e+00 1.680068e+00 5.040202e+00
    endloop
  endfacet
  facet normal 5.345225e-01 -8.017837e-01 -2.672612e-01
    outer loop
      vertex 2.240090e+00 1.493393e+00 4.480180e+00
      vertex 2.800113e+00 1.680068e+00 5.040202e+00
      vertex 2.240090e+00 1.120045e+00 5.600225e+00
    endloop
  endfacet
  facet normal -5.345225e-01 -8.017837e-01 -2.672612e-01
    outer loop
      vertex 2.240090e+00 1.493393e+00 4.480180e+00
      vertex 2.240090e+00 1.120045e+00 5.600225e+00
      vertex 1.680068e+00 1.680068e+00 5.040202e+00
    endloop
  endfacet
  facet normal -3.162278e-01 -9.486833e-01 0.000000e+00
    outer loop
      vertex 2.240090e+00 1.493393e+00 4.480180e+00
      vertex 1.680068e+00 1.680068e+00 5.040202e+00
      vertex 1.680068e+00 1.680068e+00 3.920157e+00
    endloop
  endfacet
  facet normal -8.017837e-01 2.672612e-01 -5.345225e-01
    outer loop
      vertex 1.493393e+00 4.480180e+00 2.240090e+00
      vertex 1.680068e+00 3.920157e+00 1.680067e+00
      vertex 1.120045e+00 3.360135e+00 2.240090e+00
    endloop
  endfacet
  facet normal -8.017837e-01 2.672612e-01 5.345225e-01
    outer loop
      vertex 1.493393e+00 4.480180e+00 2.240090e+00
      vertex 1.120045e+00 3.360135e+00 2.240090e+00
      vertex 1.680068e+00 3.920157e+00 2.800113e+00
    endloop
  endfacet
  facet normal -9.486833e-01 0.000000e+00 3.162278e-01
    outer loop
      vertex 1.493393e+00 4.480180e+00 2.240090e+00
      vertex 1.680068e+00 3.920157e+00 2.800113e+00
      vertex 1.680068e+00 5.040203e+00 2.800113e+00
    endloop
  endfacet
  facet normal -8.017837e-01 -2.672612e-01 5.345225e-01
    outer loop
      vertex 1.493393e+00 4.480180e+00 2.240090e+00
      vertex 1.680068e+00 5.040203e+00 2.800113e+00
      vertex 1.120045e+00 5.600225e+00 2.240090e+00
    endloop
  endfacet
  facet normal -8.017837e-01 -2.672612e-01 -5.345225e-01
    outer loop
      vertex 1.493393e+00 4.480180e+00 2.240090e+00
      vertex 1.120045e+00 5.600225e+00 2.240090e+00
      vertex 1.680068e+00 5.040202e+00 1.680067e+00
    endloop
  endfacet
  facet normal -9.486833e-01 0.000000e+00 -3.162278e-01
    outer loop
      vertex 1.493393e+00 4.480180e+00 2.240090e+00
      vertex 1.680068e+00 5.040202e+00 1.680067e+00
      vertex 1.680068e+00 3.920157e+00 1.680067e+00
    endloop
  endfacet
  facet normal -5.345225e-01 2.672612e-01 -8.017837e-01
    outer loop
      vertex 2.240090e+00 4.480180e+00 1.493393e+00
      vertex 2.240090e+00 3.360135e+00 1.120045e+00
      vertex 1.680068e+00 3.920157e+00 1.680067e+00
    endloop
  endfacet
  facet normal -3.162278e-01 0.000000e+00 -9.486833e-01
    outer loop
      vertex 2.240090e+00 4.480180e+00 1.493393e+00
      vertex 1.680068e+00 3.920157e+00 1.680067e+00
      vertex 1.680068e+00 5.040202e+00 1.680067e+00
    endloop
  endfacet
  facet normal -5.345225e-01 -2.672612e-01 -8.017837e-01
    outer loop
      vertex 2.240090e+00 4.480180e+00 1.493393e+00
      vertex 1.680068e+00 5.040202e+00 1.680067e+00
      vertex 2.240090e+00 5.600225e+00 1.120045e+00
    endloop
  endfacet
  facet normal 5.345225e-01 -2.672612e-01 -8.017837e-01
    outer loop
      vertex 2.240090e+00 4.480180e+00 1.493393e+00
      vertex 2.240090e+00 5.600225e+00 1.120045e+00
      vertex 2.800113e+00 5.040202e+00 1.680067e+00
    endloop
  endfacet
  facet normal 3.162278e-01 0.000000e+00 -9.486833e-01
    outer loop
      vertex 2.240090e+00 4.480180e+00 1.493393e+00
      vertex 2.800113e+00 5.040202e+00 1.680067e+00
      vertex 2.800113e+00 3.920157e+00 1.680067e+00
    endloop
  endfacet
  facet normal 5.345225e-01 2.672612e-01 -8.017837e-01
    outer loop
      vertex 2.240090e+00 4.480180e+00 1.493393e+00
      vertex 2.800113e+00 3.920157e+00 1.680067e+00
      vertex 2.240090e+00 3.360135e+00 1.120045e+00
    endloop
  endfacet
  facet normal 2.672612e-01 -8.017837e-01 -5.345225e-01
    outer loop
      vertex 4.480180e+00 1.493393e+00 2.240090e+00
      vertex 3.360135e+00 1.120045e+00 2.240090e+00
      vertex 3.920157e+00 1.680067e+00 1.680067e+00
    endloop
  endfacet
  facet normal 0.000000e+00 -9.486833e-01 -3.162278e-01
    outer loop
      vertex 4.480180e+00 1.493393e+00 2.240090e+00
      vertex 3.920157e+00 1.680067e+00 1.680067e+00
      vertex 5.040203e+00 1.680067e+00 1.680067e+00
    endloop
  endfacet
  facet normal -2.672612e-01 -8.017837e-01 -5.345225e-01
    outer loop
      vertex 4.480180e+00 1.493393e+00 2.240090e+00
      vertex 5.040203e+00 1.680067e+00 1.680067e+00
      vertex 5.600225e+00 1.120045e+00 2.240090e+00
    endloop
  endfacet
  facet normal -2.672612e-01 -8.017837e-01 5.345225e-01
    outer loop
      vertex 4.480180e+00 1.493393e+00 2.240090e+00
      vertex 5.600225e+00 1.120045e+00 2.240090e+00
      vertex 5.040203e+00 1.680068e+00 2.800113e+00
    endloop
  endfacet
  facet normal 0.000000e+00 -9.486833e-01 3.162278e-01
    outer loop
      vertex 4.480180e+00 1.493393e+00 2.240090e+00
      vertex 5.040203e+00 1.680068e+00 2.800113e+00
      vertex 3.920157e+00 1.680068e+00 2.800113e+00
    endloop
  endfacet
  facet normal 2.672612e-01 -8.017837e-01 5.345225e-01
    outer loop
      vertex 4.480180e+00 1.493393e+00 2.240090e+00
      vertex 3.920157e+00 1.680068e+00 2.800113e+00
      vertex 3.360135e+00 1.120045e+00 2.240090e+00
    endloop
  endfacet
  facet normal 2.672612e-01 -5.345225e-01 -8.017837e-01
    outer loop
      vertex 4.480180e+00 2.240090e+00 1.493393e+00
      vertex 3.920157e+00 1.680067e+00 1.680067e+00
      vertex 3.360135e+00 2.240090e+00 1.120045e+00
    endloop
  endfacet
  facet normal 2.672612e-01 5.345225e-01 -8.017837e-01
    outer loop
      vertex 4.480180e+00 2.240090e+00 1.493393e+00
      vertex 3.360135e+00 2.240090e+00 1.120045e+00
      vertex 3.920157e+00 2.800113e+00 1.680067e+00
    endloop
  endfacet
  facet normal 0.000000e+00 3.162278e-01 -9.486833e-01
    outer loop
      vertex 4.480180e+00 2.240090e+00 1.493393e+00
      vertex 3.920157e+00 2.800113e+00 1.680067e+00
      vertex 5.040203e+00 2.800113e+00 1.680067e+00
    endloop
  endfacet
  facet normal -2.672612e-01 5.345225e-01 -8.017837e-01
    outer loop
      vertex 4.480180e+00 2.240090e+00 1.493393e+00
      vertex 5.040203e+00 2.800113e+00 1.680067e+00
      vertex 5.600225e+00 2.240090e+00 1.120045e+00
    endloop
  endfacet
  facet normal -2.672612e-01 -5.345225e-01 -8.017837e-01
    outer loop
      vertex 4.480180e+00 2.240090e+00 1.493393e+00
      vertex 5.600225e+00 2.240090e+00 1.120045e+00
      vertex 5.040203e+00 1.680067e+00 1.680067e+00
    endloop
  endfacet
  facet normal 0.000000e+00 -3.162278e-01 -9.486833e-01
    outer loop
      vertex 4.480180e+00 2.240090e+00 1.493393e+00
      vertex 5.040203e+00 1.680067e+00 1.680067e+00
      vertex 3.920157e+00 1.680067e+00 1.680067e+00
    endloop
  endfacet
  facet normal -5.345225e-01 8.017837e-01 2.672612e-01
    outer loop
      vertex 2.240090e+00 2.986787e+00 4.480180e+00
      vertex 2.240090e+00 3.360135e+00 3.360135e+00
      vertex 1.680068e+00 2.800113e+00 3.920157e+00
    endloop
  endfacet
  facet normal -3.162278e-01 9.486833e-01 0.000000e+00
    outer loop
      vertex 2.240090e+00 2.986787e+00 4.480180e+00
      vertex 1.680068e+00 2.800113e+00 3.920157e+00
      vertex 1.680068e+00 2.800113e+00 5.040202e+00
    endloop
  endfacet
  facet normal -5.345225e-01 8.017837e-01 -2.672612e-01
    outer loop
      vertex 2.240090e+00 2.986787e+00 4.480180e+00
      vertex 1.680068e+00 2.800113e+00 5.040202e+00
      vertex 2.240090e+00 3.360135e+00 5.600225e+00
    endloop
  endfacet
  facet normal 5.345225e-01 8.017837e-01 -2.672612e-01
    outer loop
      vertex 2.240090e+00 2.986787e+00 4.480180e+00
      vertex 2.240090e+00 3.360135e+00 5.600225e+00
      vertex 2.800113e+00 2.800113e+00 5.040202e+00
    endloop
  endfacet
  facet normal 3.162278e-01 9.486833e-01 0.000000e+00
    outer loop
      vertex 2.240090e+00 2.986787e+00 4.480180e+00
      vertex 2.800113e+00 2.800113e+00 5.040202e+00
      vertex 2.800113e+00 2.800113e+00 3.920157e+00
    endloop
  endfacet
  facet normal 5.345225e-01 8.017837e-01 2.672612e-01
    outer loop
      vertex 2.240090e+00 2.986787e+00 4.480180e+00
      vertex 2.800113e+00 2.800113e+00 3.920157e+00
      vertex 2.240090e+00 3.360135e+00 3.360135e+00
    endloop
  endfacet
  facet normal -5.345225e-01 2.672612e-01 8.017837e-01
    outer loop
      vertex 2.240090e+00 4.480180e+00 2.986787e+00
      vertex 1.680068e+00 3.920157e+00 2.800113e+00
      vertex 2.240090e+00 3.360135e+00 3.360135e+00
    endloop
  endfacet
  facet normal 5.345225e-01 2.672612e-01 8.017837e-01
    outer loop
      vertex 2.240090e+00 4.480180e+00 2.986787e+00
      vertex 2.240090e+00 3.360135e+00 3.360135e+00
      vertex 2.800113e+00 3.920157e+00 2.800113e+00
    endloop
  endfacet
  facet normal 3.162278e-01 0.000000e+00 9.486833e-01
    outer loop
      vertex 2.240090e+00 4.480180e+00 2.986787e+00
      vertex 2.800113e+00 3.920157e+00 2.800113e+00
      vertex 2.800113e+00 5.040203e+00 2.800113e+00
    endloop
  endfacet
  facet normal 5.345225e-01 -2.672612e-01 8.017837e-01
    outer loop
      vertex 2.240090e+00 4.480180e+00 2.986787e+00
      vertex 2.800113e+00 5.040203e+00 2.800113e+00
      vertex 2.240090e+00 5.600225e+00 3.360135e+00
    endloop
  endfacet
  facet normal -5.345225e-01 -2.672612e-01 8.017837e-01
    outer loop
      vertex 2.240090e+00 4.480180e+00 2.986787e+00
      vertex 2.240090e+00 5.600225e+00 3.360135e+00
      vertex 1.680068e+00 5.040203e+00 2.800113e+00
    endloop
  endfacet
  facet normal -3.162278e-01 0.000000e+00 9.486833e-01
    outer loop
      vertex 2.240090e+00 4.480180e+00 2.986787e+00
      vertex 1.680068e+00 5.040203e+00 2.800113e+00
      vertex 1.680068e+00 3.920157e+00 2.800113e+00
    endloop
  endfacet
  facet normal 8.017837e-01 -5.345225e-01 2.672612e-01
    outer loop
      vertex 2.986787e+00 2.240090e+00 4.480180e+00
      vertex 2.800113e+00 1.680068e+00 3.920157e+00
      vertex 3.360135e+00 2.240090e+00 3.360135e+00
    endloop
  endfacet
  facet normal 8.017837e-01 5.345225e-01 2.672612e-01
    outer loop
      vertex 2.986787e+00 2.240090e+00 4.480180e+00
      vertex 3.360135e+00 2.240090e+00 3.360135e+00
      vertex 2.800113e+00 2.800113e+00 3.920157e+00
    endloop
  endfacet
  facet normal 9.486833e-01 3.162278e-01 0.000000e+00
    outer loop
      vertex 2.986787e+00 2.240090e+00 4.480180e+00
      vertex 2.800113e+00 2.800113e+00 3.920157e+00
      vertex 2.800113e+00 2.800113e+00 5.040202e+00
    endloop
  endfacet
  facet normal 8.017837e-01 5.345225e-01 -2.672612e-01
    outer loop
      vertex 2.986787e+00 2.240090e+00 4.480180e+00
      vertex 2.800113e+00 2.800113e+00 5.040202e+00
      vertex 3.360135e+00 2.240090e+00 5.600225e+00
    endloop
  endfacet
  facet normal 8.017837e-01 -5.345225e-01 -2.672612e-01
    outer loop
      vertex 2.986787e+00 2.240090e+00 4.480180e+00
      vertex 3.360135e+00 2.240090e+00 5.600225e+00
      vertex 2.800113e+00 1.680068e+00 5.040202e+00
    endloop
  endfacet
  facet normal 9.486833e-01 -3.162278e-01 0.000000e+00
    outer loop
      vertex 2.986787e+00 2.240090e+00 4.480180e+00
      vertex 2.800113e+00 1.680068e+00 5.040202e+00
      vertex 2.800113e+00 1.680068e+00 3.920157e+00
    endloop
  endfacet
  facet normal 8.017837e-01 2.672612e-01 -5.345225e-01
    outer loop
      vertex 2.986787e+00 4.480180e+00 2.240090e+00
      vertex 3.360135e+00 3.360135e+00 2.240090e+00
      vertex 2.800113e+00 3.920157e+00 1.680067e+00
    endloop
  endfacet
  facet normal 9.486833e-01 0.000000e+00 -3.162278e-01
    outer loop
      vertex 2.986787e+00 4.480180e+00 2.240090e+00
      vertex 2.800113e+00 3.920157e+00 1.680067e+00
      vertex 2.800113e+00 5.040202e+00 1.680067e+00
    endloop
  endfacet
  facet normal 8.017837e-01 -2.672612e-01 -5.345225e-01
    outer loop
      vertex 2.986787e+00 4.480180e+00 2.240090e+00
      vertex 2.800113e+00 5.040202e+00 1.680067e+00
      vertex 3.360135e+00 5.600225e+00 2.240090e+00
    endloop
  endfacet
  facet normal 8.017837e-01 -2.672612e-01 5.345225e-01
    outer loop
      vertex 2.986787e+00 4.480180e+00 2.240090e+00
      vertex 3.360135e+00 5.600225e+00 2.240090e+00
      vertex 2.800113e+00 5.040203e+00 2.800113e+00
    endloop
  endfacet
  facet normal 9.486833e-01 0.000000e+00 3.162278e-01
    outer loop
      vertex 2.986787e+00 4.480180e+00 2.240090e+00
      vertex 2.800113e+00 5.040203e+00 2.800113e+00
      vertex 2.800113e+00 3.920157e+00 2.800113e+00
    endloop
  endfacet
  facet normal 8.017837e-01 2.672612e-01 5.345225e-01
    outer loop
      vertex 2.986787e+00 4.480180e+00 2.240090e+00
      vertex 2.800113e+00 3.920157e+00 2.800113e+00
      vertex 3.360135e+00 3.360135e+00 2.240090e+00
    endloop
  endfacet
  facet normal 2.672612e-01 -5.345225e-01 8.017837e-01
    outer loop
      vertex 4.480180e+00 2.240090e+00 2.986787e+00
      vertex 3.360135e+00 2.240090e+00 3.360135e+00
      vertex 3.920157e+00 1.680068e+00 2.800113e+00
    endloop
  endfacet
  facet normal 0.000000e+00 -3.162278e-01 9.486833e-01
    outer loop
      vertex 4.480180e+00 2.240090e+00 2.986787e+00
      vertex 3.920157e+00 1.680068e+00 2.800113e+00
      vertex 5.040203e+00 1.680068e+00 2.800113e+00
    endloop
  endfacet
  facet normal -2.672612e-01 -5.345225e-01 8.017837e-01
    outer loop
      vertex 4.480180e+00 2.240090e+00 2.986787e+00
      vertex 5.040203e+00 1.680068e+00 2.800113e+00
      vertex 5.600225e+00 2.240090e+00 3.360135e+00
    endloop
  endfacet
  facet normal -2.672612e-01 5.345225e-01 8.017837e-01
    outer loop
      vertex 4.480180e+00 2.240090e+00 2.986787e+00
      vertex 5.600225e+00 2.240090e+00 3.360135e+00
      vertex 5.040203e+00 2.800113e+00 2.800113e+00
    endloop
  endfacet
  facet normal 0.000000e+00 3.162278e-01 9.486833e-01
    outer loop
      vertex 4.480180e+00 2.240090e+00 2.986787e+00
      vertex 5.040203e+00 2.800113e+00 2.800113e+00
      vertex 3.920157e+00 2.800113e+00 2.800113e+00
    endloop
  endfacet
  facet normal 2.672612e-01 5.345225e-01 8.017837e-01
    outer loop
      vertex 4.480180e+00 2.240090e+00 2.986787e+00
      vertex 3.920157e+00 2.800113e+00 2.800113e+00
      vertex 3.360135e+00 2.240090e+00 3.360135e+00
    endloop
  endfacet
  facet normal 2.672612e-01 8.017837e-01 -5.345225e-01
    outer loop
      vertex 4.480180e+00 2.986787e+00 2.240090e+00
      vertex 3.920157e+00 2.800113e+00 1.680067e+00
      vertex 3.360135e+00 3.360135e+00 2.240090e+00
    endloop
  endfacet
  facet normal 2.672612e-01 8.017837e-01 5.345225e-01
    outer loop
      vertex 4.480180e+00 2.986787e+00 2.240090e+00
      vertex 3.360135e+00 3.360135e+00 2.240090e+00
      vertex 3.920157e+00 2.800113e+00 2.800113e+00
    endloop
  endfacet
  facet normal 0.000000e+00 9.486833e-01 3.162278e-01
    outer loop
      vertex 4.480180e+00 2.986787e+00 2.240090e+00
      vertex 3.920157e+00 2.800113e+00 2.800113e+00
      vertex 5.040203e+00 2.800113e+00 2.800113e+00
    endloop
  endfacet
  facet normal -2.672612e-01 8.017837e-01 5.345225e-01
    outer loop
      vertex 4.480180e+00 2.986787e+00 2.240090e+00
      vertex 5.040203e+00 2.800113e+00 2.800113e+00
      vertex 5.600225e+00 3.360135e+00 2.240090e+00
    endloop
  endfacet
  facet normal -2.672612e-01 8.017837e-01 -5.345225e-01
    outer loop
      vertex 4.480180e+00 2.986787e+00 2.240090e+00
      vertex 5.600225e+00 3.360135e+00 2.240090e+00
      vertex 5.040203e+00 2.800113e+00 1.680067e+00
    endloop
  endfacet
  facet normal 0.000000e+00 9.486833e-01 -3.162278e-01
    outer loop
      vertex 4.480180e+00 2.986787e+00 2.240090e+00
      vertex 5.040203e+00 2.800113e+00 1.680067e+00
      vertex 3.920157e+00 2.800113e+00 1.680067e+00
    endloop
  endfacet
  facet normal 4.082483e-01 8.164966e-01 4.082483e-01
    outer loop
      vertex 3.080124e+00 3.080124e+00 3.080124e+00
      vertex 2.240090e+00 3.360135e+00 3.360135e+00
      vertex 2.800113e+00 2.800113e+00 3.920157e+00
    endloop
  endfacet
  facet normal 8.164966e-01 4.082483e-01 4.082483e-01
    outer loop
      vertex 3.080124e+00 3.080124e+00 3.080124e+00
      vertex 2.800113e+00 2.800113e+00 3.920157e+00
      vertex 3.360135e+00 2.240090e+00 3.360135e+00
    endloop
  endfacet
  facet normal 4.082483e-01 4.082483e-01 8.164966e-01
    outer loop
      vertex 3.080124e+00 3.080124e+00 3.080124e+00
      vertex 3.360135e+00 2.240090e+00 3.360135e+00
      vertex 3.920157e+00 2.800113e+00 2.800113e+00
    endloop
  endfacet
  facet normal 4.082483e-01 8.164966e-01 4.082483e-01
    outer loop
      vertex 3.080124e+00 3.080124e+00 3.080124e+00
      vertex 3.920157e+00 2.800113e+00 2.800113e+00
      vertex 3.360135e+00 3.360135e+00 2.240090e+00
    endloop
  endfacet
  facet normal 8.164966e-01 4.082483e-01 4.082483e-01
    outer loop
      vertex 3.080124e+00 3.080124e+00 3.080124e+00
      vertex 3.360135e+00 3.360135e+00 2.240090e+00
      vertex 2.800113e+00 3.920157e+00 2.800113e+00
    endloop
  endfacet
  facet normal 4.082483e-01 4.082483e-01 8.164966e-01
    outer loop
      vertex 3.080124e+00 3.080124e+00 3.080124e+00
      vertex 2.800113e+00 3.920157e+00 2.800113e+00
      vertex 2.240090e+00 3.360135e+00 3.360135e+00
    endloop
  endfacet
endsolid surface_model
