solid surface_model
  facet normal 0.000000e+00 0.000000e+00 1.000000e+00
    outer loop
      vertex -1.011570e+00 1.011570e+00 1.011570e+00
      vertex 2.023140e-01 1.820826e+00 1.011570e+00
      vertex -2.023140e-01 2.225454e+00 1.011570e+00
    endloop
  endfacet
  facet normal -7.276069e-01 4.850713e-01 4.850713e-01
    outer loop
      vertex -1.011570e+00 1.011570e+00 1.011570e+00
      vertex -2.023140e-01 2.225454e+00 1.011570e+00
      vertex -1.011570e+00 1.820826e+00 2.023140e-01
    endloop
  endfacet
  facet normal -7.276069e-01 4.850713e-01 4.850713e-01
    outer loop
      vertex -1.011570e+00 1.011570e+00 1.011570e+00
      vertex -1.011570e+00 1.820826e+00 2.023140e-01
      vertex -1.820826e+00 1.011570e+00 -2.023140e-01
    endloop
  endfacet
  facet normal 0.000000e+00 1.000000e+00 0.000000e+00
    outer loop
      vertex -1.011570e+00 1.011570e+00 1.011570e+00
      vertex -1.820826e+00 1.011570e+00 -2.023140e-01
      vertex -2.225454e+00 1.011570e+00 2.023140e-01
    endloop
  endfacet
  facet normal -4.850713e-01 4.850713e-01 7.276069e-01
    outer loop
      vertex -1.011570e+00 1.011570e+00 1.011570e+00
      vertex -2.225454e+00 1.011570e+00 2.023140e-01
      vertex -1.820826e+00 2.023140e-01 1.011570e+00
    endloop
  endfacet
  facet normal -4.850713e-01 4.850713e-01 7.276069e-01
    outer loop
      vertex -1.011570e+00 1.011570e+00 1.011570e+00
      vertex -1.820826e+00 2.023140e-01 1.011570e+00
      vertex -1.011570e+00 -2.023140e-01 1.820826e+00
    endloop
  endfacet
  facet normal -1.000000e+00 -6.585148e-16 -4.390099e-16
    outer loop
      vertex -1.011570e+00 1.011570e+00 1.011570e+00
      vertex -1.011570e+00 -2.023140e-01 1.820826e+00
      vertex -1.011570e+00 2.023140e-01 2.225454e+00
    endloop
  endfacet
  facet normal -4.850713e-01 7.276069e-01 4.850713e-01
    outer loop
      vertex -1.011570e+00 1.011570e+00 1.011570e+00
      vertex -1.011570e+00 2.023140e-01 2.225454e+00
      vertex -2.023140e-01 1.011570e+00 1.820826e+00
    endloop
  endfacet
  facet normal -4.850713e-01 7.276069e-01 4.850713e-01
    outer loop
      vertex -1.011570e+00 1.011570e+00 1.011570e+00
      vertex -2.023140e-01 1.011570e+00 1.820826e+00
      vertex 2.023140e-01 1.820826e+00 1.011570e+00
    endloop
  endfacet
  facet normal 0.000000e+00 0.000000e+00 1.000000e+00
    outer loop
      vertex 5.057850e+00 3.034710e+00 1.011570e+00
      vertex 3.843966e+00 2.225454e+00 1.011570e+00
      vertex 4.248594e+00 1.820826e+00 1.011570e+00
    endloop
  endfacet
  facet normal 7.276069e-01 -4.850713e-01 4.850713e-01
    outer loop
      vertex 5.057850e+00 3.034710e+00 1.011570e+00
      vertex 4.248594e+00 1.820826e+00 1.011570e+00
      vertex 5.057850e+00 2.225454e+00 2.023140e-01
    endloop
  endfacet
  facet normal 7.276069e-01 -4.850713e-01 4.850713e-01
    outer loop
      vertex 5.057850e+00 3.034710e+00 1.011570e+00
      vertex 5.057850e+00 2.225454e+00 2.023140e-01
      vertex 5.867106e+00 3.034710e+00 -2.023140e-01
    endloop
  endfacet
  facet normal 0.000000e+00 -1.000000e+00 0.000000e+00
    outer loop
      vertex 5.057850e+00 3.034710e+00 1.011570e+00
      vertex 5.867106e+00 3.034710e+00 -2.023140e-01
      vertex 6.271734e+00 3.034710e+00 2.023140e-01
    endloop
  endfacet
  facet normal 4.850713e-01 -4.850713e-01 7.276069e-01
    outer loop
      vertex 5.057850e+00 3.034710e+00 1.011570e+00
      vertex 6.271734e+00 3.034710e+00 2.023140e-01
      vertex 5.867106e+00 3.843966e+00 1.011570e+00
    endloop
  endfacet
  facet normal 4.850713e-01 -4.850713e-01 7.276069e-01
    outer loop
      vertex 5.057850e+00 3.034710e+00 1.011570e+00
      vertex 5.867106e+00 3.843966e+00 1.011570e+00
      vertex 5.057850e+00 4.248594e+00 1.820826e+00
    endloop
  endfacet
  facet normal 1.000000e+00 8.780197e-16 -1.317030e-15
    outer loop
      vertex 5.057850e+00 3.034710e+00 1.011570e+00
      vertex 5.057850e+00 4.248594e+00 1.820826e+00
      vertex 5.057850e+00 3.843966e+00 2.225454e+00
    endloop
  endfacet
  facet normal 4.850713e-01 -7.276069e-01 4.850713e-01
    outer loop
      vertex 5.057850e+00 3.034710e+00 1.011570e+00
      vertex 5.057850e+00 3.843966e+00 2.225454e+00
      vertex 4.248594e+00 3.034710e+00 1.820826e+00
    endloop
  endfacet
  facet normal 4.850713e-01 -7.276069e-01 4.850713e-01
    outer loop
      vertex 5.057850e+00 3.034710e+00 1.011570e+00
      vertex 4.248594e+00 3.034710e+00 1.820826e+00
      vertex 3.843966e+00 2.225454e+00 1.011570e+00
    endloop
  endfacet
  facet normal 1.000000e+00 -1.097525e-16 -1.097525e-16
    outer loop
      vertex 1.011570e+00 -1.011570e+00 1.011570e+00
      vertex 1.011570e+00 2.023140e-01 1.820826e+00
      vertex 1.011570e+00 -2.023140e-01 2.225454e+00
    endloop
  endfacet
  facet normal 4.850713e-01 -7.276069e-01 4.850713e-01
    outer loop
      vertex 1.011570e+00 -1.011570e+00 1.011570e+00
      vertex 1.011570e+00 -2.023140e-01 2.225454e+00
      vertex 2.023140e-01 -1.011570e+00 1.820826e+00
    endloop
  endfacet
  facet normal 4.850713e-01 -7.276069e-01 4.850713e-01
    outer loop
      vertex 1.011570e+00 -1.011570e+00 1.011570e+00
      vertex 2.023140e-01 -1.011570e+00 1.820826e+00
      vertex -2.023140e-01 -1.820826e+00 1.011570e+00
    endloop
  endfacet
  facet normal 0.000000e+00 0.000000e+00 1.000000e+00
    outer loop
      vertex 1.011570e+00 -1.011570e+00 1.011570e+00
      vertex -2.023140e-01 -1.820826e+00 1.011570e+00
      vertex 2.023140e-01 -2.225454e+00 1.011570e+00
    endloop
  endfacet
  facet normal 7.276069e-01 -4.850713e-01 4.850713e-01
    outer loop
      vertex 1.011570e+00 -1.011570e+00 1.011570e+00
      vertex 2.023140e-01 -2.225454e+00 1.011570e+00
      vertex 1.011570e+00 -1.820826e+00 2.023140e-01
    endloop
  endfacet
  facet normal 7.276069e-01 -4.850713e-01 4.850713e-01
    outer loop
      vertex 1.011570e+00 -1.011570e+00 1.011570e+00
      vertex 1.011570e+00 -1.820826e+00 2.023140e-01
      vertex 1.820826e+00 -1.011570e+00 -2.023140e-01
    endloop
  endfacet
  facet normal -3.292574e-16 -1.000000e+00 -7.682673e-16
    outer loop
      vertex 1.011570e+00 -1.011570e+00 1.011570e+00
      vertex 1.820826e+00 -1.011570e+00 -2.023140e-01
      vertex 2.225454e+00 -1.011570e+00 2.023140e-01
    endloop
  endfacet
  facet normal 4.850713e-01 -4.850713e-01 7.276069e-01
    outer loop
      vertex 1.011570e+00 -1.011570e+00 1.011570e+00
      vertex 2.225454e+00 -1.011570e+00 2.023140e-01
      vertex 1.820826e+00 -2.023140e-01 1.011570e+00
    endloop
  endfacet
  facet normal 4.850713e-01 -4.850713e-01 7.276069e-01
    outer loop
      vertex 1.011570e+00 -1.011570e+00 1.011570e+00
      vertex 1.820826e+00 -2.023140e-01 1.011570e+00
      vertex 1.011570e+00 2.023140e-01 1.820826e+00
    endloop
  endfacet
  facet normal 1.000000e+00 0.000000e+00 0.000000e+00
    outer loop
      vertex 1.011570e+00 5.057850e+00 3.034710e+00
      vertex 1.011570e+00 3.843966e+00 2.225454e+00
      vertex 1.011570e+00 4.248594e+00 1.820826e+00
    endloop
  endfacet
  facet normal 4.850713e-01 7.276069e-01 -4.850713e-01
    outer loop
      vertex 1.011570e+00 5.057850e+00 3.034710e+00
      vertex 1.011570e+00 4.248594e+00 1.820826e+00
      vertex 2.023140e-01 5.057850e+00 2.225454e+00
    endloop
  endfacet
  facet normal 4.850713e-01 7.276069e-01 -4.850713e-01
    outer loop
      vertex 1.011570e+00 5.057850e+00 3.034710e+00
      vertex 2.023140e-01 5.057850e+00 2.225454e+00
      vertex -2.023140e-01 5.867106e+00 3.034710e+00
    endloop
  endfacet
  facet normal 0.000000e+00 0.000000e+00 -1.000000e+00
    outer loop
      vertex 1.011570e+00 5.057850e+00 3.034710e+00
      vertex -2.023140e-01 5.867106e+00 3.034710e+00
      vertex 2.023140e-01 6.271734e+00 3.034710e+00
    endloop
  endfacet
  facet normal 7.276069e-01 4.850713e-01 -4.850713e-01
    outer loop
      vertex 1.011570e+00 5.057850e+00 3.034710e+00
      vertex 2.023140e-01 6.271734e+00 3.034710e+00
      vertex 1.011570e+00 5.867106e+00 3.843966e+00
    endloop
  endfacet
  facet normal 7.276069e-01 4.850713e-01 -4.850713e-01
    outer loop
      vertex 1.011570e+00 5.057850e+00 3.034710e+00
      vertex 1.011570e+00 5.867106e+00 3.843966e+00
      vertex 1.820826e+00 5.057850e+00 4.248594e+00
    endloop
  endfacet
  facet normal 0.000000e+00 1.000000e+00 0.000000e+00
    outer loop
      vertex 1.011570e+00 5.057850e+00 3.034710e+00
      vertex 1.820826e+00 5.057850e+00 4.248594e+00
      vertex 2.225454e+00 5.057850e+00 3.843966e+00
    endloop
  endfacet
  facet normal 4.850713e-01 4.850713e-01 -7.276069e-01
    outer loop
      vertex 1.011570e+00 5.057850e+00 3.034710e+00
      vertex 2.225454e+00 5.057850e+00 3.843966e+00
      vertex 1.820826e+00 4.248594e+00 3.034710e+00
    endloop
  endfacet
  facet normal 4.850713e-01 4.850713e-01 -7.276069e-01
    outer loop
      vertex 1.011570e+00 5.057850e+00 3.034710e+00
      vertex 1.820826e+00 4.248594e+00 3.034710e+00
      vertex 1.011570e+00 3.843966e+00 2.225454e+00
    endloop
  endfacet
  facet normal 0.000000e+00 1.000000e+00 0.000000e+00
    outer loop
      vertex 1.011570e+00 1.011570e+00 -1.011570e+00
      vertex 1.820826e+00 1.011570e+00 2.023140e-01
      vertex 2.225454e+00 1.011570e+00 -2.023140e-01
    endloop
  endfacet
  facet normal 4.850713e-01 4.850713e-01 -7.276069e-01
    outer loop
      vertex 1.011570e+00 1.011570e+00 -1.011570e+00
      vertex 2.225454e+00 1.011570e+00 -2.023140e-01
      vertex 1.820826e+00 2.023140e-01 -1.011570e+00
    endloop
  endfacet
  facet normal 4.850713e-01 4.850713e-01 -7.276069e-01
    outer loop
      vertex 1.011570e+00 1.011570e+00 -1.011570e+00
      vertex 1.820826e+00 2.023140e-01 -1.011570e+00
      vertex 1.011570e+00 -2.023140e-01 -1.820826e+00
    endloop
  endfacet
  facet normal 1.000000e+00 0.000000e+00 0.000000e+00
    outer loop
      vertex 1.011570e+00 1.011570e+00 -1.011570e+00
      vertex 1.011570e+00 -2.023140e-01 -1.820826e+00
      vertex 1.011570e+00 2.023140e-01 -2.225454e+00
    endloop
  endfacet
  facet normal 4.850713e-01 7.276069e-01 -4.850713e-01
    outer loop
      vertex 1.011570e+00 1.011570e+00 -1.011570e+00
      vertex 1.011570e+00 2.023140e-01 -2.225454e+00
      vertex 2.023140e-01 1.011570e+00 -1.820826e+00
    endloop
  endfacet
  facet normal 4.850713e-01 7.276069e-01 -4.850713e-01
    outer loop
      vertex 1.011570e+00 1.011570e+00 -1.011570e+00
      vertex 2.023140e-01 1.011570e+00 -1.820826e+00
      vertex -2.023140e-01 1.820826e+00 -1.011570e+00
    endloop
  endfacet
  facet normal -1.097525e-16 1.097525e-16 -1.000000e+00
    outer loop
      vertex 1.011570e+00 1.011570e+00 -1.011570e+00
      vertex -2.023140e-01 1.820826e+00 -1.011570e+00
      vertex 2.023140e-01 2.225454e+00 -1.011570e+00
    endloop
  endfacet
  facet normal 7.276069e-01 4.850713e-01 -4.850713e-01
    outer loop
      vertex 1.011570e+00 1.011570e+00 -1.011570e+00
      vertex 2.023140e-01 2.225454e+00 -1.011570e+00
      vertex 1.011570e+00 1.820826e+00 -2.023140e-01
    endloop
  endfacet
  facet normal 7.276069e-01 4.850713e-01 -4.850713e-01
    outer loop
      vertex 1.011570e+00 1.011570e+00 -1.011570e+00
      vertex 1.011570e+00 1.820826e+00 -2.023140e-01
      vertex 1.820826e+00 1.011570e+00 2.023140e-01
    endloop
  endfacet
  facet normal 0.000000e+00 1.000000e+00 0.000000e+00
    outer loop
      vertex 3.034710e+00 1.011570e+00 5.057850e+00
      vertex 2.225454e+00 1.011570e+00 3.843966e+00
      vertex 1.820826e+00 1.011570e+00 4.248594e+00
    endloop
  endfacet
  facet normal -4.850713e-01 4.850713e-01 7.276069e-01
    outer loop
      vertex 3.034710e+00 1.011570e+00 5.057850e+00
      vertex 1.820826e+00 1.011570e+00 4.248594e+00
      vertex 2.225454e+00 2.023140e-01 5.057850e+00
    endloop
  endfacet
  facet normal -4.850713e-01 4.850713e-01 7.276069e-01
    outer loop
      vertex 3.034710e+00 1.011570e+00 5.057850e+00
      vertex 2.225454e+00 2.023140e-01 5.057850e+00
      vertex 3.034710e+00 -2.023140e-01 5.867106e+00
    endloop
  endfacet
  facet normal -1.000000e+00 0.000000e+00 0.000000e+00
    outer loop
      vertex 3.034710e+00 1.011570e+00 5.057850e+00
      vertex 3.034710e+00 -2.023140e-01 5.867106e+00
      vertex 3.034710e+00 2.023140e-01 6.271734e+00
    endloop
  endfacet
  facet normal -4.850713e-01 7.276069e-01 4.850713e-01
    outer loop
      vertex 3.034710e+00 1.011570e+00 5.057850e+00
      vertex 3.034710e+00 2.023140e-01 6.271734e+00
      vertex 3.843966e+00 1.011570e+00 5.867106e+00
    endloop
  endfacet
  facet normal -4.850713e-01 7.276069e-01 4.850713e-01
    outer loop
      vertex 3.034710e+00 1.011570e+00 5.057850e+00
      vertex 3.843966e+00 1.011570e+00 5.867106e+00
      vertex 4.248594e+00 1.820826e+00 5.057850e+00
    endloop
  endfacet
  facet normal 0.000000e+00 0.000000e+00 1.000000e+00
    outer loop
      vertex 3.034710e+00 1.011570e+00 5.057850e+00
      vertex 4.248594e+00 1.820826e+00 5.057850e+00
      vertex 3.843966e+00 2.225454e+00 5.057850e+00
    endloop
  endfacet
  facet normal -7.276069e-01 4.850713e-01 4.850713e-01
    outer loop
      vertex 3.034710e+00 1.011570e+00 5.057850e+00
      vertex 3.843966e+00 2.225454e+00 5.057850e+00
      vertex 3.034710e+00 1.820826e+00 4.248594e+00
    endloop
  endfacet
  facet normal -7.276069e-01 4.850713e-01 4.850713e-01
    outer loop
      vertex 3.034710e+00 1.011570e+00 5.057850e+00
      vertex 3.034710e+00 1.820826e+00 4.248594e+00
      vertex 2.225454e+00 1.011570e+00 3.843966e+00
    endloop
  endfacet
  facet normal 0.000000e+00 1.000000e+00 0.000000e+00
    outer loop
      vertex -1.011570e+00 1.011570e+00 3.034710e+00
      vertex 2.023140e-01 1.011570e+00 2.225454e+00
      vertex -2.023140e-01 1.011570e+00 1.820826e+00
    endloop
  endfacet
  facet normal -7.276069e-01 4.850713e-01 -4.850713e-01
    outer loop
      vertex -1.011570e+00 1.011570e+00 3.034710e+00
      vertex -2.023140e-01 1.011570e+00 1.820826e+00
      vertex -1.011570e+00 2.023140e-01 2.225454e+00
    endloop
  endfacet
  facet normal -7.276069e-01 4.850713e-01 -4.850713e-01
    outer loop
      vertex -1.011570e+00 1.011570e+00 3.034710e+00
      vertex -1.011570e+00 2.023140e-01 2.225454e+00
      vertex -1.820826e+00 -2.023140e-01 3.034710e+00
    endloop
  endfacet
  facet normal 0.000000e+00 0.000000e+00 -1.000000e+00
    outer loop
      vertex -1.011570e+00 1.011570e+00 3.034710e+00
      vertex -1.820826e+00 -2.023140e-01 3.034710e+00
      vertex -2.225454e+00 2.023140e-01 3.034710e+00
    endloop
  endfacet
  facet normal -4.850713e-01 7.276069e-01 -4.850713e-01
    outer loop
      vertex -1.011570e+00 1.011570e+00 3.034710e+00
      vertex -2.225454e+00 2.023140e-01 3.034710e+00
      vertex -1.820826e+00 1.011570e+00 3.843966e+00
    endloop
  endfacet
  facet normal -4.850713e-01 7.276069e-01 -4.850713e-01
    outer loop
      vertex -1.011570e+00 1.011570e+00 3.034710e+00
      vertex -1.820826e+00 1.011570e+00 3.843966e+00
      vertex -1.011570e+00 1.820826e+00 4.248594e+00
    endloop
  endfacet
  facet normal -1.000000e+00 6.585148e-16 -4.390099e-16
    outer loop
      vertex -1.011570e+00 1.011570e+00 3.034710e+00
      vertex -1.011570e+00 1.820826e+00 4.248594e+00
      vertex -1.011570e+00 2.225454e+00 3.843966e+00
    endloop
  endfacet
  facet normal -4.850713e-01 4.850713e-01 -7.276069e-01
    outer loop
      vertex -1.011570e+00 1.011570e+00 3.034710e+00
      vertex -1.011570e+00 2.225454e+00 3.843966e+00
      vertex -2.023140e-01 1.820826e+00 3.034710e+00
    endloop
  endfacet
  facet normal -4.850713e-01 4.850713e-01 -7.276069e-01
    outer loop
      vertex -1.011570e+00 1.011570e+00 3.034710e+00
      vertex -2.023140e-01 1.820826e+00 3.034710e+00
      vertex 2.023140e-01 1.011570e+00 2.225454e+00
    endloop
  endfacet
  facet normal 1.097525e-16 1.000000e+00 -1.097525e-16
    outer loop
      vertex 5.057850e+00 1.011570e+00 1.011570e+00
      vertex 3.843966e+00 1.011570e+00 1.820826e+00
      vertex 4.248594e+00 1.011570e+00 2.225454e+00
    endloop
  endfacet
  facet normal 7.276069e-01 4.850713e-01 4.850713e-01
    outer loop
      vertex 5.057850e+00 1.011570e+00 1.011570e+00
      vertex 4.248594e+00 1.011570e+00 2.225454e+00
      vertex 5.057850e+00 2.023140e-01 1.820826e+00
    endloop
  endfacet
  facet normal 7.276069e-01 4.850713e-01 4.850713e-01
    outer loop
      vertex 5.057850e+00 1.011570e+00 1.011570e+00
      vertex 5.057850e+00 2.023140e-01 1.820826e+00
      vertex 5.867106e+00 -2.023140e-01 1.011570e+00
    endloop
  endfacet
  facet normal 0.000000e+00 0.000000e+00 1.000000e+00
    outer loop
      vertex 5.057850e+00 1.011570e+00 1.011570e+00
      vertex 5.867106e+00 -2.023140e-01 1.011570e+00
      vertex 6.271734e+00 2.023140e-01 1.011570e+00
    endloop
  endfacet
  facet normal 4.850713e-01 7.276069e-01 4.850713e-01
    outer loop
      vertex 5.057850e+00 1.011570e+00 1.011570e+00
      vertex 6.271734e+00 2.023140e-01 1.011570e+00
      vertex 5.867106e+00 1.011570e+00 2.023140e-01
    endloop
  endfacet
  facet normal 4.850713e-01 7.276069e-01 4.850713e-01
    outer loop
      vertex 5.057850e+00 1.011570e+00 1.011570e+00
      vertex 5.867106e+00 1.011570e+00 2.023140e-01
      vertex 5.057850e+00 1.820826e+00 -2.023140e-01
    endloop
  endfacet
  facet normal 1.000000e+00 8.780197e-16 1.317030e-15
    outer loop
      vertex 5.057850e+00 1.011570e+00 1.011570e+00
      vertex 5.057850e+00 1.820826e+00 -2.023140e-01
      vertex 5.057850e+00 2.225454e+00 2.023140e-01
    endloop
  endfacet
  facet normal 4.850713e-01 4.850713e-01 7.276069e-01
    outer loop
      vertex 5.057850e+00 1.011570e+00 1.011570e+00
      vertex 5.057850e+00 2.225454e+00 2.023140e-01
      vertex 4.248594e+00 1.820826e+00 1.011570e+00
    endloop
  endfacet
  facet normal 4.850713e-01 4.850713e-01 7.276069e-01
    outer loop
      vertex 5.057850e+00 1.011570e+00 1.011570e+00
      vertex 4.248594e+00 1.820826e+00 1.011570e+00
      vertex 3.843966e+00 1.011570e+00 1.820826e+00
    endloop
  endfacet
  facet normal 1.000000e+00 1.097525e-16 -1.097525e-16
    outer loop
      vertex 1.011570e+00 3.034710e+00 -1.011570e+00
      vertex 1.011570e+00 2.225454e+00 2.023140e-01
      vertex 1.011570e+00 1.820826e+00 -2.023140e-01
    endloop
  endfacet
  facet normal 4.850713e-01 -4.850713e-01 -7.276069e-01
    outer loop
      vertex 1.011570e+00 3.034710e+00 -1.011570e+00
      vertex 1.011570e+00 1.820826e+00 -2.023140e-01
      vertex 2.023140e-01 2.225454e+00 -1.011570e+00
    endloop
  endfacet
  facet normal 4.850713e-01 -4.850713e-01 -7.276069e-01
    outer loop
      vertex 1.011570e+00 3.034710e+00 -1.011570e+00
      vertex 2.023140e-01 2.225454e+00 -1.011570e+00
      vertex -2.023140e-01 3.034710e+00 -1.820826e+00
    endloop
  endfacet
  facet normal 0.000000e+00 -1.000000e+00 0.000000e+00
    outer loop
      vertex 1.011570e+00 3.034710e+00 -1.011570e+00
      vertex -2.023140e-01 3.034710e+00 -1.820826e+00
      vertex 2.023140e-01 3.034710e+00 -2.225454e+00
    endloop
  endfacet
  facet normal 7.276069e-01 -4.850713e-01 -4.850713e-01
    outer loop
      vertex 1.011570e+00 3.034710e+00 -1.011570e+00
      vertex 2.023140e-01 3.034710e+00 -2.225454e+00
      vertex 1.011570e+00 3.843966e+00 -1.820826e+00
    endloop
  endfacet
  facet normal 7.276069e-01 -4.850713e-01 -4.850713e-01
    outer loop
      vertex 1.011570e+00 3.034710e+00 -1.011570e+00
      vertex 1.011570e+00 3.843966e+00 -1.820826e+00
      vertex 1.820826e+00 4.248594e+00 -1.011570e+00
    endloop
  endfacet
  facet normal 1.097525e-16 1.097525e-16 -1.000000e+00
    outer loop
      vertex 1.011570e+00 3.034710e+00 -1.011570e+00
      vertex 1.820826e+00 4.248594e+00 -1.011570e+00
      vertex 2.225454e+00 3.843966e+00 -1.011570e+00
    endloop
  endfacet
  facet normal 4.850713e-01 -7.276069e-01 -4.850713e-01
    outer loop
      vertex 1.011570e+00 3.034710e+00 -1.011570e+00
      vertex 2.225454e+00 3.843966e+00 -1.011570e+00
      vertex 1.820826e+00 3.034710e+00 -2.023140e-01
    endloop
  endfacet
  facet normal 4.850713e-01 -7.276069e-01 -4.850713e-01
    outer loop
      vertex 1.011570e+00 3.034710e+00 -1.011570e+00
      vertex 1.820826e+00 3.034710e+00 -2.023140e-01
      vertex 1.011570e+00 2.225454e+00 2.023140e-01
    endloop
  endfacet
  facet normal 1.000000e+00 -1.097525e-16 1.097525e-16
    outer loop
      vertex 1.011570e+00 1.011570e+00 5.057850e+00
      vertex 1.011570e+00 1.820826e+00 3.843966e+00
      vertex 1.011570e+00 2.225454e+00 4.248594e+00
    endloop
  endfacet
  facet normal 4.850713e-01 4.850713e-01 7.276069e-01
    outer loop
      vertex 1.011570e+00 1.011570e+00 5.057850e+00
      vertex 1.011570e+00 2.225454e+00 4.248594e+00
      vertex 2.023140e-01 1.820826e+00 5.057850e+00
    endloop
  endfacet
  facet normal 4.850713e-01 4.850713e-01 7.276069e-01
    outer loop
      vertex 1.011570e+00 1.011570e+00 5.057850e+00
      vertex 2.023140e-01 1.820826e+00 5.057850e+00
      vertex -2.023140e-01 1.011570e+00 5.867106e+00
    endloop
  endfacet
  facet normal 0.000000e+00 1.000000e+00 0.000000e+00
    outer loop
      vertex 1.011570e+00 1.011570e+00 5.057850e+00
      vertex -2.023140e-01 1.011570e+00 5.867106e+00
      vertex 2.023140e-01 1.011570e+00 6.271734e+00
    endloop
  endfacet
  facet normal 7.276069e-01 4.850713e-01 4.850713e-01
    outer loop
      vertex 1.011570e+00 1.011570e+00 5.057850e+00
      vertex 2.023140e-01 1.011570e+00 6.271734e+00
      vertex 1.011570e+00 2.023140e-01 5.867106e+00
    endloop
  endfacet
  facet normal 7.276069e-01 4.850713e-01 4.850713e-01
    outer loop
      vertex 1.011570e+00 1.011570e+00 5.057850e+00
      vertex 1.011570e+00 2.023140e-01 5.867106e+00
      vertex 1.820826e+00 -2.023140e-01 5.057850e+00
    endloop
  endfacet
  facet normal 0.000000e+00 0.000000e+00 1.000000e+00
    outer loop
      vertex 1.011570e+00 1.011570e+00 5.057850e+00
      vertex 1.820826e+00 -2.023140e-01 5.057850e+00
      vertex 2.225454e+00 2.023140e-01 5.057850e+00
    endloop
  endfacet
  facet normal 4.850713e-01 7.276069e-01 4.850713e-01
    outer loop
      vertex 1.011570e+00 1.011570e+00 5.057850e+00
      vertex 2.225454e+00 2.023140e-01 5.057850e+00
      vertex 1.820826e+00 1.011570e+00 4.248594e+00
    endloop
  endfacet
  facet normal 4.850713e-01 7.276069e-01 4.850713e-01
    outer loop
      vertex 1.011570e+00 1.011570e+00 5.057850e+00
      vertex 1.820826e+00 1.011570e+00 4.248594e+00
      vertex 1.011570e+00 1.820826e+00 3.843966e+00
    endloop
  endfacet
  facet normal 0.000000e+00 0.000000e+00 1.000000e+00
    outer loop
      vertex 3.034710e+00 -1.011570e+00 1.011570e+00
      vertex 2.225454e+00 2.023140e-01 1.011570e+00
      vertex 1.820826e+00 -2.023140e-01 1.011570e+00
    endloop
  endfacet
  facet normal -4.850713e-01 -7.276069e-01 4.850713e-01
    outer loop
      vertex 3.034710e+00 -1.011570e+00 1.011570e+00
      vertex 1.820826e+00 -2.023140e-01 1.011570e+00
      vertex 2.225454e+00 -1.011570e+00 2.023140e-01
    endloop
  endfacet
  facet normal -4.850713e-01 -7.276069e-01 4.850713e-01
    outer loop
      vertex 3.034710e+00 -1.011570e+00 1.011570e+00
      vertex 2.225454e+00 -1.011570e+00 2.023140e-01
      vertex 3.034710e+00 -1.820826e+00 -2.023140e-01
    endloop
  endfacet
  facet normal -1.000000e+00 4.390099e-16 -6.585148e-16
    outer loop
      vertex 3.034710e+00 -1.011570e+00 1.011570e+00
      vertex 3.034710e+00 -1.820826e+00 -2.023140e-01
      vertex 3.034710e+00 -2.225454e+00 2.023140e-01
    endloop
  endfacet
  facet normal -4.850713e-01 -4.850713e-01 7.276069e-01
    outer loop
      vertex 3.034710e+00 -1.011570e+00 1.011570e+00
      vertex 3.034710e+00 -2.225454e+00 2.023140e-01
      vertex 3.843966e+00 -1.820826e+00 1.011570e+00
    endloop
  endfacet
  facet normal -4.850713e-01 -4.850713e-01 7.276069e-01
    outer loop
      vertex 3.034710e+00 -1.011570e+00 1.011570e+00
      vertex 3.843966e+00 -1.820826e+00 1.011570e+00
      vertex 4.248594e+00 -1.011570e+00 1.820826e+00
    endloop
  endfacet
  facet normal 0.000000e+00 -1.000000e+00 0.000000e+00
    outer loop
      vertex 3.034710e+00 -1.011570e+00 1.011570e+00
      vertex 4.248594e+00 -1.011570e+00 1.820826e+00
      vertex 3.843966e+00 -1.011570e+00 2.225454e+00
    endloop
  endfacet
  facet normal -7.276069e-01 -4.850713e-01 4.850713e-01
    outer loop
      vertex 3.034710e+00 -1.011570e+00 1.011570e+00
      vertex 3.843966e+00 -1.011570e+00 2.225454e+00
      vertex 3.034710e+00 -2.023140e-01 1.820826e+00
    endloop
  endfacet
  facet normal -7.276069e-01 -4.850713e-01 4.850713e-01
    outer loop
      vertex 3.034710e+00 -1.011570e+00 1.011570e+00
      vertex 3.034710e+00 -2.023140e-01 1.820826e+00
      vertex 2.225454e+00 2.023140e-01 1.011570e+00
    endloop
  endfacet
  facet normal 0.000000e+00 0.000000e+00 1.000000e+00
    outer loop
      vertex 1.011570e+00 5.057850e+00 1.011570e+00
      vertex 1.820826e+00 3.843966e+00 1.011570e+00
      vertex 2.225454e+00 4.248594e+00 1.011570e+00
    endloop
  endfacet
  facet normal 4.850713e-01 7.276069e-01 4.850713e-01
    outer loop
      vertex 1.011570e+00 5.057850e+00 1.011570e+00
      vertex 2.225454e+00 4.248594e+00 1.011570e+00
      vertex 1.820826e+00 5.057850e+00 2.023140e-01
    endloop
  endfacet
  facet normal 4.850713e-01 7.276069e-01 4.850713e-01
    outer loop
      vertex 1.011570e+00 5.057850e+00 1.011570e+00
      vertex 1.820826e+00 5.057850e+00 2.023140e-01
      vertex 1.011570e+00 5.867106e+00 -2.023140e-01
    endloop
  endfacet
  facet normal 1.000000e+00 0.000000e+00 0.000000e+00
    outer loop
      vertex 1.011570e+00 5.057850e+00 1.011570e+00
      vertex 1.011570e+00 5.867106e+00 -2.023140e-01
      vertex 1.011570e+00 6.271734e+00 2.023140e-01
    endloop
  endfacet
  facet normal 4.850713e-01 4.850713e-01 7.276069e-01
    outer loop
      vertex 1.011570e+00 5.057850e+00 1.011570e+00
      vertex 1.011570e+00 6.271734e+00 2.023140e-01
      vertex 2.023140e-01 5.867106e+00 1.011570e+00
    endloop
  endfacet
  facet normal 4.850713e-01 4.850713e-01 7.276069e-01
    outer loop
      vertex 1.011570e+00 5.057850e+00 1.011570e+00
      vertex 2.023140e-01 5.867106e+00 1.011570e+00
      vertex -2.023140e-01 5.057850e+00 1.820826e+00
    endloop
  endfacet
  facet normal 0.000000e+00 1.000000e+00 0.000000e+00
    outer loop
      vertex 1.011570e+00 5.057850e+00 1.011570e+00
      vertex -2.023140e-01 5.057850e+00 1.820826e+00
      vertex 2.023140e-01 5.057850e+00 2.225454e+00
    endloop
  endfacet
  facet normal 7.276069e-01 4.850713e-01 4.850713e-01
    outer loop
      vertex 1.011570e+00 5.057850e+00 1.011570e+00
      vertex 2.023140e-01 5.057850e+00 2.225454e+00
      vertex 1.011570e+00 4.248594e+00 1.820826e+00
    endloop
  endfacet
  facet normal 7.276069e-01 4.850713e-01 4.850713e-01
    outer loop
      vertex 1.011570e+00 5.057850e+00 1.011570e+00
      vertex 1.011570e+00 4.248594e+00 1.820826e+00
      vertex 1.820826e+00 3.843966e+00 1.011570e+00
    endloop
  endfacet
  facet normal 2.195049e-16 -1.000000e+00 2.195049e-16
    outer loop
      vertex -1.011570e+00 3.034710e+00 1.011570e+00
      vertex 2.023140e-01 3.034710e+00 1.820826e+00
      vertex -2.023140e-01 3.034710e+00 2.225454e+00
    endloop
  endfacet
  facet normal -7.276069e-01 -4.850713e-01 4.850713e-01
    outer loop
      vertex -1.011570e+00 3.034710e+00 1.011570e+00
      vertex -2.023140e-01 3.034710e+00 2.225454e+00
      vertex -1.011570e+00 3.843966e+00 1.820826e+00
    endloop
  endfacet
  facet normal -7.276069e-01 -4.850713e-01 4.850713e-01
    outer loop
      vertex -1.011570e+00 3.034710e+00 1.011570e+00
      vertex -1.011570e+00 3.843966e+00 1.820826e+00
      vertex -1.820826e+00 4.248594e+00 1.011570e+00
    endloop
  endfacet
  facet normal 0.000000e+00 0.000000e+00 1.000000e+00
    outer loop
      vertex -1.011570e+00 3.034710e+00 1.011570e+00
      vertex -1.820826e+00 4.248594e+00 1.011570e+00
      vertex -2.225454e+00 3.843966e+00 1.011570e+00
    endloop
  endfacet
  facet normal -4.850713e-01 -7.276069e-01 4.850713e-01
    outer loop
      vertex -1.011570e+00 3.034710e+00 1.011570e+00
      vertex -2.225454e+00 3.843966e+00 1.011570e+00
      vertex -1.820826e+00 3.034710e+00 2.023140e-01
    endloop
  endfacet
  facet normal -4.850713e-01 -7.276069e-01 4.850713e-01
    outer loop
      vertex -1.011570e+00 3.034710e+00 1.011570e+00
      vertex -1.820826e+00 3.034710e+00 2.023140e-01
      vertex -1.011570e+00 2.225454e+00 -2.023140e-01
    endloop
  endfacet
  facet normal -1.000000e+00 4.390099e-16 -6.585148e-16
    outer loop
      vertex -1.011570e+00 3.034710e+00 1.011570e+00
      vertex -1.011570e+00 2.225454e+00 -2.023140e-01
      vertex -1.011570e+00 1.820826e+00 2.023140e-01
    endloop
  endfacet
  facet normal -4.850713e-01 -4.850713e-01 7.276069e-01
    outer loop
      vertex -1.011570e+00 3.034710e+00 1.011570e+00
      vertex -1.011570e+00 1.820826e+00 2.023140e-01
      vertex -2.023140e-01 2.225454e+00 1.011570e+00
    endloop
  endfacet
  facet normal -4.850713e-01 -4.850713e-01 7.276069e-01
    outer loop
      vertex -1.011570e+00 3.034710e+00 1.011570e+00
      vertex -2.023140e-01 2.225454e+00 1.011570e+00
      vertex 2.023140e-01 3.034710e+00 1.820826e+00
    endloop
  endfacet
  facet normal 0.000000e+00 -1.000000e+00 0.000000e+00
    outer loop
      vertex 5.057850e+00 3.034710e+00 3.034710e+00
      vertex 3.843966e+00 3.034710e+00 2.225454e+00
      vertex 4.248594e+00 3.034710e+00 1.820826e+00
    endloop
  endfacet
  facet normal 7.276069e-01 -4.850713e-01 -4.850713e-01
    outer loop
      vertex 5.057850e+00 3.034710e+00 3.034710e+00
      vertex 4.248594e+00 3.034710e+00 1.820826e+00
      vertex 5.057850e+00 3.843966e+00 2.225454e+00
    endloop
  endfacet
  facet normal 7.276069e-01 -4.850713e-01 -4.850713e-01
    outer loop
      vertex 5.057850e+00 3.034710e+00 3.034710e+00
      vertex 5.057850e+00 3.843966e+00 2.225454e+00
      vertex 5.867106e+00 4.248594e+00 3.034710e+00
    endloop
  endfacet
  facet normal 0.000000e+00 0.000000e+00 -1.000000e+00
    outer loop
      vertex 5.057850e+00 3.034710e+00 3.034710e+00
      vertex 5.867106e+00 4.248594e+00 3.034710e+00
      vertex 6.271734e+00 3.843966e+00 3.034710e+00
    endloop
  endfacet
  facet normal 4.850713e-01 -7.276069e-01 -4.850713e-01
    outer loop
      vertex 5.057850e+00 3.034710e+00 3.034710e+00
      vertex 6.271734e+00 3.843966e+00 3.034710e+00
      vertex 5.867106e+00 3.034710e+00 3.843966e+00
    endloop
  endfacet
  facet normal 4.850713e-01 -7.276069e-01 -4.850713e-01
    outer loop
      vertex 5.057850e+00 3.034710e+00 3.034710e+00
      vertex 5.867106e+00 3.034710e+00 3.843966e+00
      vertex 5.057850e+00 2.225454e+00 4.248594e+00
    endloop
  endfacet
  facet normal 1.000000e+00 1.317030e-15 8.780197e-16
    outer loop
      vertex 5.057850e+00 3.034710e+00 3.034710e+00
      vertex 5.057850e+00 2.225454e+00 4.248594e+00
      vertex 5.057850e+00 1.820826e+00 3.843966e+00
    endloop
  endfacet
  facet normal 4.850713e-01 -4.850713e-01 -7.276069e-01
    outer loop
      vertex 5.057850e+00 3.034710e+00 3.034710e+00
      vertex 5.057850e+00 1.820826e+00 3.843966e+00
      vertex 4.248594e+00 2.225454e+00 3.034710e+00
    endloop
  endfacet
  facet normal 4.850713e-01 -4.850713e-01 -7.276069e-01
    outer loop
      vertex 5.057850e+00 3.034710e+00 3.034710e+00
      vertex 4.248594e+00 2.225454e+00 3.034710e+00
      vertex 3.843966e+00 3.034710e+00 2.225454e+00
    endloop
  endfacet
  facet normal 2.195049e-16 2.195049e-16 -1.000000e+00
    outer loop
      vertex 1.011570e+00 -1.011570e+00 3.034710e+00
      vertex 1.820826e+00 2.023140e-01 3.034710e+00
      vertex 2.225454e+00 -2.023140e-01 3.034710e+00
    endloop
  endfacet
  facet normal 4.850713e-01 -7.276069e-01 -4.850713e-01
    outer loop
      vertex 1.011570e+00 -1.011570e+00 3.034710e+00
      vertex 2.225454e+00 -2.023140e-01 3.034710e+00
      vertex 1.820826e+00 -1.011570e+00 3.843966e+00
    endloop
  endfacet
  facet normal 4.850713e-01 -7.276069e-01 -4.850713e-01
    outer loop
      vertex 1.011570e+00 -1.011570e+00 3.034710e+00
      vertex 1.820826e+00 -1.011570e+00 3.843966e+00
      vertex 1.011570e+00 -1.820826e+00 4.248594e+00
    endloop
  endfacet
  facet normal 1.000000e+00 0.000000e+00 0.000000e+00
    outer loop
      vertex 1.011570e+00 -1.011570e+00 3.034710e+00
      vertex 1.011570e+00 -1.820826e+00 4.248594e+00
      vertex 1.011570e+00 -2.225454e+00 3.843966e+00
    endloop
  endfacet
  facet normal 4.850713e-01 -4.850713e-01 -7.276069e-01
    outer loop
      vertex 1.011570e+00 -1.011570e+00 3.034710e+00
      vertex 1.011570e+00 -2.225454e+00 3.843966e+00
      vertex 2.023140e-01 -1.820826e+00 3.034710e+00
    endloop
  endfacet
  facet normal 4.850713e-01 -4.850713e-01 -7.276069e-01
    outer loop
      vertex 1.011570e+00 -1.011570e+00 3.034710e+00
      vertex 2.023140e-01 -1.820826e+00 3.034710e+00
      vertex -2.023140e-01 -1.011570e+00 2.225454e+00
    endloop
  endfacet
  facet normal 0.000000e+00 -1.000000e+00 0.000000e+00
    outer loop
      vertex 1.011570e+00 -1.011570e+00 3.034710e+00
      vertex -2.023140e-01 -1.011570e+00 2.225454e+00
      vertex 2.023140e-01 -1.011570e+00 1.820826e+00
    endloop
  endfacet
  facet normal 7.276069e-01 -4.850713e-01 -4.850713e-01
    outer loop
      vertex 1.011570e+00 -1.011570e+00 3.034710e+00
      vertex 2.023140e-01 -1.011570e+00 1.820826e+00
      vertex 1.011570e+00 -2.023140e-01 2.225454e+00
    endloop
  endfacet
  facet normal 7.276069e-01 -4.850713e-01 -4.850713e-01
    outer loop
      vertex 1.011570e+00 -1.011570e+00 3.034710e+00
      vertex 1.011570e+00 -2.023140e-01 2.225454e+00
      vertex 1.820826e+00 2.023140e-01 3.034710e+00
    endloop
  endfacet
  facet normal -2.195049e-16 -2.195049e-16 -1.000000e+00
    outer loop
      vertex 3.034710e+00 5.057850e+00 3.034710e+00
      vertex 2.225454e+00 3.843966e+00 3.034710e+00
      vertex 1.820826e+00 4.248594e+00 3.034710e+00
    endloop
  endfacet
  facet normal -4.850713e-01 7.276069e-01 -4.850713e-01
    outer loop
      vertex 3.034710e+00 5.057850e+00 3.034710e+00
      vertex 1.820826e+00 4.248594e+00 3.034710e+00
      vertex 2.225454e+00 5.057850e+00 3.843966e+00
    endloop
  endfacet
  facet normal -4.850713e-01 7.276069e-01 -4.850713e-01
    outer loop
      vertex 3.034710e+00 5.057850e+00 3.034710e+00
      vertex 2.225454e+00 5.057850e+00 3.843966e+00
      vertex 3.034710e+00 5.867106e+00 4.248594e+00
    endloop
  endfacet
  facet normal -1.000000e+00 6.585148e-16 -4.390099e-16
    outer loop
      vertex 3.034710e+00 5.057850e+00 3.034710e+00
      vertex 3.034710e+00 5.867106e+00 4.248594e+00
      vertex 3.034710e+00 6.271734e+00 3.843966e+00
    endloop
  endfacet
  facet normal -4.850713e-01 4.850713e-01 -7.276069e-01
    outer loop
      vertex 3.034710e+00 5.057850e+00 3.034710e+00
      vertex 3.034710e+00 6.271734e+00 3.843966e+00
      vertex 3.843966e+00 5.867106e+00 3.034710e+00
    endloop
  endfacet
  facet normal -4.850713e-01 4.850713e-01 -7.276069e-01
    outer loop
      vertex 3.034710e+00 5.057850e+00 3.034710e+00
      vertex 3.843966e+00 5.867106e+00 3.034710e+00
      vertex 4.248594e+00 5.057850e+00 2.225454e+00
    endloop
  endfacet
  facet normal 0.000000e+00 1.000000e+00 0.000000e+00
    outer loop
      vertex 3.034710e+00 5.057850e+00 3.034710e+00
      vertex 4.248594e+00 5.057850e+00 2.225454e+00
      vertex 3.843966e+00 5.057850e+00 1.820826e+00
    endloop
  endfacet
  facet normal -7.276069e-01 4.850713e-01 -4.850713e-01
    outer loop
      vertex 3.034710e+00 5.057850e+00 3.034710e+00
      vertex 3.843966e+00 5.057850e+00 1.820826e+00
      vertex 3.034710e+00 4.248594e+00 2.225454e+00
    endloop
  endfacet
  facet normal -7.276069e-01 4.850713e-01 -4.850713e-01
    outer loop
      vertex 3.034710e+00 5.057850e+00 3.034710e+00
      vertex 3.034710e+00 4.248594e+00 2.225454e+00
      vertex 2.225454e+00 3.843966e+00 3.034710e+00
    endloop
  endfacet
  facet normal -1.000000e+00 2.195049e-16 2.195049e-16
    outer loop
      vertex 3.034710e+00 1.011570e+00 -1.011570e+00
      vertex 3.034710e+00 1.820826e+00 2.023140e-01
      vertex 3.034710e+00 2.225454e+00 -2.023140e-01
    endloop
  endfacet
  facet normal -4.850713e-01 4.850713e-01 -7.276069e-01
    outer loop
      vertex 3.034710e+00 1.011570e+00 -1.011570e+00
      vertex 3.034710e+00 2.225454e+00 -2.023140e-01
      vertex 3.843966e+00 1.820826e+00 -1.011570e+00
    endloop
  endfacet
  facet normal -4.850713e-01 4.850713e-01 -7.276069e-01
    outer loop
      vertex 3.034710e+00 1.011570e+00 -1.011570e+00
      vertex 3.843966e+00 1.820826e+00 -1.011570e+00
      vertex 4.248594e+00 1.011570e+00 -1.820826e+00
    endloop
  endfacet
  facet normal 0.000000e+00 1.000000e+00 0.000000e+00
    outer loop
      vertex 3.034710e+00 1.011570e+00 -1.011570e+00
      vertex 4.248594e+00 1.011570e+00 -1.820826e+00
      vertex 3.843966e+00 1.011570e+00 -2.225454e+00
    endloop
  endfacet
  facet normal -7.276069e-01 4.850713e-01 -4.850713e-01
    outer loop
      vertex 3.034710e+00 1.011570e+00 -1.011570e+00
      vertex 3.843966e+00 1.011570e+00 -2.225454e+00
      vertex 3.034710e+00 2.023140e-01 -1.820826e+00
    endloop
  endfacet
  facet normal -7.276069e-01 4.850713e-01 -4.850713e-01
    outer loop
      vertex 3.034710e+00 1.011570e+00 -1.011570e+00
      vertex 3.034710e+00 2.023140e-01 -1.820826e+00
      vertex 2.225454e+00 -2.023140e-01 -1.011570e+00
    endloop
  endfacet
  facet normal -1.097525e-16 -1.097525e-16 -1.000000e+00
    outer loop
      vertex 3.034710e+00 1.011570e+00 -1.011570e+00
      vertex 2.225454e+00 -2.023140e-01 -1.011570e+00
      vertex 1.820826e+00 2.023140e-01 -1.011570e+00
    endloop
  endfacet
  facet normal -4.850713e-01 7.276069e-01 -4.850713e-01
    outer loop
      vertex 3.034710e+00 1.011570e+00 -1.011570e+00
      vertex 1.820826e+00 2.023140e-01 -1.011570e+00
      vertex 2.225454e+00 1.011570e+00 -2.023140e-01
    endloop
  endfacet
  facet normal -4.850713e-01 7.276069e-01 -4.850713e-01
    outer loop
      vertex 3.034710e+00 1.011570e+00 -1.011570e+00
      vertex 2.225454e+00 1.011570e+00 -2.023140e-01
      vertex 3.034710e+00 1.820826e+00 2.023140e-01
    endloop
  endfacet
  facet normal -1.000000e+00 0.000000e+00 0.000000e+00
    outer loop
      vertex 3.034710e+00 3.034710e+00 5.057850e+00
      vertex 3.034710e+00 2.225454e+00 3.843966e+00
      vertex 3.034710e+00 1.820826e+00 4.248594e+00
    endloop
  endfacet
  facet normal -4.850713e-01 -4.850713e-01 7.276069e-01
    outer loop
      vertex 3.034710e+00 3.034710e+00 5.057850e+00
      vertex 3.034710e+00 1.820826e+00 4.248594e+00
      vertex 3.843966e+00 2.225454e+00 5.057850e+00
    endloop
  endfacet
  facet normal -4.850713e-01 -4.850713e-01 7.276069e-01
    outer loop
      vertex 3.034710e+00 3.034710e+00 5.057850e+00
      vertex 3.843966e+00 2.225454e+00 5.057850e+00
      vertex 4.248594e+00 3.034710e+00 5.867106e+00
    endloop
  endfacet
  facet normal 0.000000e+00 -1.000000e+00 0.000000e+00
    outer loop
      vertex 3.034710e+00 3.034710e+00 5.057850e+00
      vertex 4.248594e+00 3.034710e+00 5.867106e+00
      vertex 3.843966e+00 3.034710e+00 6.271734e+00
    endloop
  endfacet
  facet normal -7.276069e-01 -4.850713e-01 4.850713e-01
    outer loop
      vertex 3.034710e+00 3.034710e+00 5.057850e+00
      vertex 3.843966e+00 3.034710e+00 6.271734e+00
      vertex 3.034710e+00 3.843966e+00 5.867106e+00
    endloop
  endfacet
  facet normal -7.276069e-01 -4.850713e-01 4.850713e-01
    outer loop
      vertex 3.034710e+00 3.034710e+00 5.057850e+00
      vertex 3.034710e+00 3.843966e+00 5.867106e+00
      vertex 2.225454e+00 4.248594e+00 5.057850e+00
    endloop
  endfacet
  facet normal 0.000000e+00 0.000000e+00 1.000000e+00
    outer loop
      vertex 3.034710e+00 3.034710e+00 5.057850e+00
      vertex 2.225454e+00 4.248594e+00 5.057850e+00
      vertex 1.820826e+00 3.843966e+00 5.057850e+00
    endloop
  endfacet
  facet normal -4.850713e-01 -7.276069e-01 4.850713e-01
    outer loop
      vertex 3.034710e+00 3.034710e+00 5.057850e+00
      vertex 1.820826e+00 3.843966e+00 5.057850e+00
      vertex 2.225454e+00 3.034710e+00 4.248594e+00
    endloop
  endfacet
  facet normal -4.850713e-01 -7.276069e-01 4.850713e-01
    outer loop
      vertex 3.034710e+00 3.034710e+00 5.057850e+00
      vertex 2.225454e+00 3.034710e+00 4.248594e+00
      vertex 3.034710e+00 2.225454e+00 3.843966e+00
    endloop
  endfacet
  facet normal 2.195049e-16 -2.195049e-16 -1.000000e+00
    outer loop
      vertex -1.011570e+00 3.034710e+00 3.034710e+00
      vertex 2.023140e-01 2.225454e+00 3.034710e+00
      vertex -2.023140e-01 1.820826e+00 3.034710e+00
    endloop
  endfacet
  facet normal -7.276069e-01 -4.850713e-01 -4.850713e-01
    outer loop
      vertex -1.011570e+00 3.034710e+00 3.034710e+00
      vertex -2.023140e-01 1.820826e+00 3.034710e+00
      vertex -1.011570e+00 2.225454e+00 3.843966e+00
    endloop
  endfacet
  facet normal -7.276069e-01 -4.850713e-01 -4.850713e-01
    outer loop
      vertex -1.011570e+00 3.034710e+00 3.034710e+00
      vertex -1.011570e+00 2.225454e+00 3.843966e+00
      vertex -1.820826e+00 3.034710e+00 4.248594e+00
    endloop
  endfacet
  facet normal -2.195049e-16 -1.000000e+00 2.195049e-16
    outer loop
      vertex -1.011570e+00 3.034710e+00 3.034710e+00
      vertex -1.820826e+00 3.034710e+00 4.248594e+00
      vertex -2.225454e+00 3.034710e+00 3.843966e+00
    endloop
  endfacet
  facet normal -4.850713e-01 -4.850713e-01 -7.276069e-01
    outer loop
      vertex -1.011570e+00 3.034710e+00 3.034710e+00
      vertex -2.225454e+00 3.034710e+00 3.843966e+00
      vertex -1.820826e+00 3.843966e+00 3.034710e+00
    endloop
  endfacet
  facet normal -4.850713e-01 -4.850713e-01 -7.276069e-01
    outer loop
      vertex -1.011570e+00 3.034710e+00 3.034710e+00
      vertex -1.820826e+00 3.843966e+00 3.034710e+00
      vertex -1.011570e+00 4.248594e+00 2.225454e+00
    endloop
  endfacet
  facet normal -1.000000e+00 -4.390099e-16 -6.585148e-16
    outer loop
      vertex -1.011570e+00 3.034710e+00 3.034710e+00
      vertex -1.011570e+00 4.248594e+00 2.225454e+00
      vertex -1.011570e+00 3.843966e+00 1.820826e+00
    endloop
  endfacet
  facet normal -4.850713e-01 -7.276069e-01 -4.850713e-01
    outer loop
      vertex -1.011570e+00 3.034710e+00 3.034710e+00
      vertex -1.011570e+00 3.843966e+00 1.820826e+00
      vertex -2.023140e-01 3.034710e+00 2.225454e+00
    endloop
  endfacet
  facet normal -4.850713e-01 -7.276069e-01 -4.850713e-01
    outer loop
      vertex -1.011570e+00 3.034710e+00 3.034710e+00
      vertex -2.023140e-01 3.034710e+00 2.225454e+00
      vertex 2.023140e-01 2.225454e+00 3.034710e+00
    endloop
  endfacet
  facet normal -2.195049e-16 2.195049e-16 -1.000000e+00
    outer loop
      vertex 5.057850e+00 1.011570e+00 3.034710e+00
      vertex 3.843966e+00 1.820826e+00 3.034710e+00
      vertex 4.248594e+00 2.225454e+00 3.034710e+00
    endloop
  endfacet
  facet normal 7.276069e-01 4.850713e-01 -4.850713e-01
    outer loop
      vertex 5.057850e+00 1.011570e+00 3.034710e+00
      vertex 4.248594e+00 2.225454e+00 3.034710e+00
      vertex 5.057850e+00 1.820826e+00 3.843966e+00
    endloop
  endfacet
  facet normal 7.276069e-01 4.850713e-01 -4.850713e-01
    outer loop
      vertex 5.057850e+00 1.011570e+00 3.034710e+00
      vertex 5.057850e+00 1.820826e+00 3.843966e+00
      vertex 5.867106e+00 1.011570e+00 4.248594e+00
    endloop
  endfacet
  facet normal 0.000000e+00 1.000000e+00 0.000000e+00
    outer loop
      vertex 5.057850e+00 1.011570e+00 3.034710e+00
      vertex 5.867106e+00 1.011570e+00 4.248594e+00
      vertex 6.271734e+00 1.011570e+00 3.843966e+00
    endloop
  endfacet
  facet normal 4.850713e-01 4.850713e-01 -7.276069e-01
    outer loop
      vertex 5.057850e+00 1.011570e+00 3.034710e+00
      vertex 6.271734e+00 1.011570e+00 3.843966e+00
      vertex 5.867106e+00 2.023140e-01 3.034710e+00
    endloop
  endfacet
  facet normal 4.850713e-01 4.850713e-01 -7.276069e-01
    outer loop
      vertex 5.057850e+00 1.011570e+00 3.034710e+00
      vertex 5.867106e+00 2.023140e-01 3.034710e+00
      vertex 5.057850e+00 -2.023140e-01 2.225454e+00
    endloop
  endfacet
  facet normal 1.000000e+00 1.317030e-15 -8.780197e-16
    outer loop
      vertex 5.057850e+00 1.011570e+00 3.034710e+00
      vertex 5.057850e+00 -2.023140e-01 2.225454e+00
      vertex 5.057850e+00 2.023140e-01 1.820826e+00
    endloop
  endfacet
  facet normal 4.850713e-01 7.276069e-01 -4.850713e-01
    outer loop
      vertex 5.057850e+00 1.011570e+00 3.034710e+00
      vertex 5.057850e+00 2.023140e-01 1.820826e+00
      vertex 4.248594e+00 1.011570e+00 2.225454e+00
    endloop
  endfacet
  facet normal 4.850713e-01 7.276069e-01 -4.850713e-01
    outer loop
      vertex 5.057850e+00 1.011570e+00 3.034710e+00
      vertex 4.248594e+00 1.011570e+00 2.225454e+00
      vertex 3.843966e+00 1.820826e+00 3.034710e+00
    endloop
  endfacet
  facet normal -2.195049e-16 -1.000000e+00 2.195049e-16
    outer loop
      vertex 3.034710e+00 3.034710e+00 -1.011570e+00
      vertex 2.225454e+00 3.034710e+00 2.023140e-01
      vertex 1.820826e+00 3.034710e+00 -2.023140e-01
    endloop
  endfacet
  facet normal -4.850713e-01 -4.850713e-01 -7.276069e-01
    outer loop
      vertex 3.034710e+00 3.034710e+00 -1.011570e+00
      vertex 1.820826e+00 3.034710e+00 -2.023140e-01
      vertex 2.225454e+00 3.843966e+00 -1.011570e+00
    endloop
  endfacet
  facet normal -4.850713e-01 -4.850713e-01 -7.276069e-01
    outer loop
      vertex 3.034710e+00 3.034710e+00 -1.011570e+00
      vertex 2.225454e+00 3.843966e+00 -1.011570e+00
      vertex 3.034710e+00 4.248594e+00 -1.820826e+00
    endloop
  endfacet
  facet normal -1.000000e+00 2.195049e-16 -2.195049e-16
    outer loop
      vertex 3.034710e+00 3.034710e+00 -1.011570e+00
      vertex 3.034710e+00 4.248594e+00 -1.820826e+00
      vertex 3.034710e+00 3.843966e+00 -2.225454e+00
    endloop
  endfacet
  facet normal -4.850713e-01 -7.276069e-01 -4.850713e-01
    outer loop
      vertex 3.034710e+00 3.034710e+00 -1.011570e+00
      vertex 3.034710e+00 3.843966e+00 -2.225454e+00
      vertex 3.843966e+00 3.034710e+00 -1.820826e+00
    endloop
  endfacet
  facet normal -4.850713e-01 -7.276069e-01 -4.850713e-01
    outer loop
      vertex 3.034710e+00 3.034710e+00 -1.011570e+00
      vertex 3.843966e+00 3.034710e+00 -1.820826e+00
      vertex 4.248594e+00 2.225454e+00 -1.011570e+00
    endloop
  endfacet
  facet normal 1.097525e-16 -1.097525e-16 -1.000000e+00
    outer loop
      vertex 3.034710e+00 3.034710e+00 -1.011570e+00
      vertex 4.248594e+00 2.225454e+00 -1.011570e+00
      vertex 3.843966e+00 1.820826e+00 -1.011570e+00
    endloop
  endfacet
  facet normal -7.276069e-01 -4.850713e-01 -4.850713e-01
    outer loop
      vertex 3.034710e+00 3.034710e+00 -1.011570e+00
      vertex 3.843966e+00 1.820826e+00 -1.011570e+00
      vertex 3.034710e+00 2.225454e+00 -2.023140e-01
    endloop
  endfacet
  facet normal -7.276069e-01 -4.850713e-01 -4.850713e-01
    outer loop
      vertex 3.034710e+00 3.034710e+00 -1.011570e+00
      vertex 3.034710e+00 2.225454e+00 -2.023140e-01
      vertex 2.225454e+00 3.034710e+00 2.023140e-01
    endloop
  endfacet
  facet normal 0.000000e+00 -1.000000e+00 0.000000e+00
    outer loop
      vertex 1.011570e+00 3.034710e+00 5.057850e+00
      vertex 1.820826e+00 3.034710e+00 3.843966e+00
      vertex 2.225454e+00 3.034710e+00 4.248594e+00
    endloop
  endfacet
  facet normal 4.850713e-01 -4.850713e-01 7.276069e-01
    outer loop
      vertex 1.011570e+00 3.034710e+00 5.057850e+00
      vertex 2.225454e+00 3.034710e+00 4.248594e+00
      vertex 1.820826e+00 3.843966e+00 5.057850e+00
    endloop
  endfacet
  facet normal 4.850713e-01 -4.850713e-01 7.276069e-01
    outer loop
      vertex 1.011570e+00 3.034710e+00 5.057850e+00
      vertex 1.820826e+00 3.843966e+00 5.057850e+00
      vertex 1.011570e+00 4.248594e+00 5.867106e+00
    endloop
  endfacet
  facet normal 1.000000e+00 -1.097525e-16 -1.097525e-16
    outer loop
      vertex 1.011570e+00 3.034710e+00 5.057850e+00
      vertex 1.011570e+00 4.248594e+00 5.867106e+00
      vertex 1.011570e+00 3.843966e+00 6.271734e+00
    endloop
  endfacet
  facet normal 4.850713e-01 -7.276069e-01 4.850713e-01
    outer loop
      vertex 1.011570e+00 3.034710e+00 5.057850e+00
      vertex 1.011570e+00 3.843966e+00 6.271734e+00
      vertex 2.023140e-01 3.034710e+00 5.867106e+00
    endloop
  endfacet
  facet normal 4.850713e-01 -7.276069e-01 4.850713e-01
    outer loop
      vertex 1.011570e+00 3.034710e+00 5.057850e+00
      vertex 2.023140e-01 3.034710e+00 5.867106e+00
      vertex -2.023140e-01 2.225454e+00 5.057850e+00
    endloop
  endfacet
  facet normal 0.000000e+00 0.000000e+00 1.000000e+00
    outer loop
      vertex 1.011570e+00 3.034710e+00 5.057850e+00
      vertex -2.023140e-01 2.225454e+00 5.057850e+00
      vertex 2.023140e-01 1.820826e+00 5.057850e+00
    endloop
  endfacet
  facet normal 7.276069e-01 -4.850713e-01 4.850713e-01
    outer loop
      vertex 1.011570e+00 3.034710e+00 5.057850e+00
      vertex 2.023140e-01 1.820826e+00 5.057850e+00
      vertex 1.011570e+00 2.225454e+00 4.248594e+00
    endloop
  endfacet
  facet normal 7.276069e-01 -4.850713e-01 4.850713e-01
    outer loop
      vertex 1.011570e+00 3.034710e+00 5.057850e+00
      vertex 1.011570e+00 2.225454e+00 4.248594e+00
      vertex 1.820826e+00 3.034710e+00 3.843966e+00
    endloop
  endfacet
  facet normal -1.000000e+00 2.195049e-16 -2.195049e-16
    outer loop
      vertex 3.034710e+00 -1.011570e+00 3.034710e+00
      vertex 3.034710e+00 2.023140e-01 2.225454e+00
      vertex 3.034710e+00 -2.023140e-01 1.820826e+00
    endloop
  endfacet
  facet normal -4.850713e-01 -7.276069e-01 -4.850713e-01
    outer loop
      vertex 3.034710e+00 -1.011570e+00 3.034710e+00
      vertex 3.034710e+00 -2.023140e-01 1.820826e+00
      vertex 3.843966e+00 -1.011570e+00 2.225454e+00
    endloop
  endfacet
  facet normal -4.850713e-01 -7.276069e-01 -4.850713e-01
    outer loop
      vertex 3.034710e+00 -1.011570e+00 3.034710e+00
      vertex 3.843966e+00 -1.011570e+00 2.225454e+00
      vertex 4.248594e+00 -1.820826e+00 3.034710e+00
    endloop
  endfacet
  facet normal 0.000000e+00 0.000000e+00 -1.000000e+00
    outer loop
      vertex 3.034710e+00 -1.011570e+00 3.034710e+00
      vertex 4.248594e+00 -1.820826e+00 3.034710e+00
      vertex 3.843966e+00 -2.225454e+00 3.034710e+00
    endloop
  endfacet
  facet normal -7.276069e-01 -4.850713e-01 -4.850713e-01
    outer loop
      vertex 3.034710e+00 -1.011570e+00 3.034710e+00
      vertex 3.843966e+00 -2.225454e+00 3.034710e+00
      vertex 3.034710e+00 -1.820826e+00 3.843966e+00
    endloop
  endfacet
  facet normal -7.276069e-01 -4.850713e-01 -4.850713e-01
    outer loop
      vertex 3.034710e+00 -1.011570e+00 3.034710e+00
      vertex 3.034710e+00 -1.820826e+00 3.843966e+00
      vertex 2.225454e+00 -1.011570e+00 4.248594e+00
    endloop
  endfacet
  facet normal -6.585148e-16 -1.000000e+00 -4.390099e-16
    outer loop
      vertex 3.034710e+00 -1.011570e+00 3.034710e+00
      vertex 2.225454e+00 -1.011570e+00 4.248594e+00
      vertex 1.820826e+00 -1.011570e+00 3.843966e+00
    endloop
  endfacet
  facet normal -4.850713e-01 -4.850713e-01 -7.276069e-01
    outer loop
      vertex 3.034710e+00 -1.011570e+00 3.034710e+00
      vertex 1.820826e+00 -1.011570e+00 3.843966e+00
      vertex 2.225454e+00 -2.023140e-01 3.034710e+00
    endloop
  endfacet
  facet normal -4.850713e-01 -4.850713e-01 -7.276069e-01
    outer loop
      vertex 3.034710e+00 -1.011570e+00 3.034710e+00
      vertex 2.225454e+00 -2.023140e-01 3.034710e+00
      vertex 3.034710e+00 2.023140e-01 2.225454e+00
    endloop
  endfacet
  facet normal -1.000000e+00 0.000000e+00 0.000000e+00
    outer loop
      vertex 3.034710e+00 5.057850e+00 1.011570e+00
      vertex 3.034710e+00 3.843966e+00 1.820826e+00
      vertex 3.034710e+00 4.248594e+00 2.225454e+00
    endloop
  endfacet
  facet normal -4.850713e-01 7.276069e-01 4.850713e-01
    outer loop
      vertex 3.034710e+00 5.057850e+00 1.011570e+00
      vertex 3.034710e+00 4.248594e+00 2.225454e+00
      vertex 3.843966e+00 5.057850e+00 1.820826e+00
    endloop
  endfacet
  facet normal -4.850713e-01 7.276069e-01 4.850713e-01
    outer loop
      vertex 3.034710e+00 5.057850e+00 1.011570e+00
      vertex 3.843966e+00 5.057850e+00 1.820826e+00
      vertex 4.248594e+00 5.867106e+00 1.011570e+00
    endloop
  endfacet
  facet normal 0.000000e+00 0.000000e+00 1.000000e+00
    outer loop
      vertex 3.034710e+00 5.057850e+00 1.011570e+00
      vertex 4.248594e+00 5.867106e+00 1.011570e+00
      vertex 3.843966e+00 6.271734e+00 1.011570e+00
    endloop
  endfacet
  facet normal -7.276069e-01 4.850713e-01 4.850713e-01
    outer loop
      vertex 3.034710e+00 5.057850e+00 1.011570e+00
      vertex 3.843966e+00 6.271734e+00 1.011570e+00
      vertex 3.034710e+00 5.867106e+00 2.023140e-01
    endloop
  endfacet
  facet normal -7.276069e-01 4.850713e-01 4.850713e-01
    outer loop
      vertex 3.034710e+00 5.057850e+00 1.011570e+00
      vertex 3.034710e+00 5.867106e+00 2.023140e-01
      vertex 2.225454e+00 5.057850e+00 -2.023140e-01
    endloop
  endfacet
  facet normal 0.000000e+00 1.000000e+00 0.000000e+00
    outer loop
      vertex 3.034710e+00 5.057850e+00 1.011570e+00
      vertex 2.225454e+00 5.057850e+00 -2.023140e-01
      vertex 1.820826e+00 5.057850e+00 2.023140e-01
    endloop
  endfacet
  facet normal -4.850713e-01 4.850713e-01 7.276069e-01
    outer loop
      vertex 3.034710e+00 5.057850e+00 1.011570e+00
      vertex 1.820826e+00 5.057850e+00 2.023140e-01
      vertex 2.225454e+00 4.248594e+00 1.011570e+00
    endloop
  endfacet
  facet normal -4.850713e-01 4.850713e-01 7.276069e-01
    outer loop
      vertex 3.034710e+00 5.057850e+00 1.011570e+00
      vertex 2.225454e+00 4.248594e+00 1.011570e+00
      vertex 3.034710e+00 3.843966e+00 1.820826e+00
    endloop
  endfacet
  facet normal 7.276069e-01 -4.850713e-01 4.850713e-01
    outer loop
      vertex 1.011570e+00 3.034710e+00 1.011570e+00
      vertex 2.023140e-01 1.820826e+00 1.011570e+00
      vertex 1.011570e+00 2.225454e+00 2.023140e-01
    endloop
  endfacet
  facet normal 7.276069e-01 -4.850713e-01 4.850713e-01
    outer loop
      vertex 1.011570e+00 3.034710e+00 1.011570e+00
      vertex 1.011570e+00 2.225454e+00 2.023140e-01
      vertex 1.820826e+00 3.034710e+00 -2.023140e-01
    endloop
  endfacet
  facet normal 0.000000e+00 -1.000000e+00 0.000000e+00
    outer loop
      vertex 1.011570e+00 3.034710e+00 1.011570e+00
      vertex 1.820826e+00 3.034710e+00 -2.023140e-01
      vertex 2.225454e+00 3.034710e+00 2.023140e-01
    endloop
  endfacet
  facet normal 4.850713e-01 -4.850713e-01 7.276069e-01
    outer loop
      vertex 1.011570e+00 3.034710e+00 1.011570e+00
      vertex 2.225454e+00 3.034710e+00 2.023140e-01
      vertex 1.820826e+00 3.843966e+00 1.011570e+00
    endloop
  endfacet
  facet normal 4.850713e-01 -4.850713e-01 7.276069e-01
    outer loop
      vertex 1.011570e+00 3.034710e+00 1.011570e+00
      vertex 1.820826e+00 3.843966e+00 1.011570e+00
      vertex 1.011570e+00 4.248594e+00 1.820826e+00
    endloop
  endfacet
  facet normal 1.000000e+00 -2.195049e-16 -2.195049e-16
    outer loop
      vertex 1.011570e+00 3.034710e+00 1.011570e+00
      vertex 1.011570e+00 4.248594e+00 1.820826e+00
      vertex 1.011570e+00 3.843966e+00 2.225454e+00
    endloop
  endfacet
  facet normal 4.850713e-01 -7.276069e-01 4.850713e-01
    outer loop
      vertex 1.011570e+00 3.034710e+00 1.011570e+00
      vertex 1.011570e+00 3.843966e+00 2.225454e+00
      vertex 2.023140e-01 3.034710e+00 1.820826e+00
    endloop
  endfacet
  facet normal 4.850713e-01 -7.276069e-01 4.850713e-01
    outer loop
      vertex 1.011570e+00 3.034710e+00 1.011570e+00
      vertex 2.023140e-01 3.034710e+00 1.820826e+00
      vertex -2.023140e-01 2.225454e+00 1.011570e+00
    endloop
  endfacet
  facet normal 0.000000e+00 0.000000e+00 1.000000e+00
    outer loop
      vertex 1.011570e+00 3.034710e+00 1.011570e+00
      vertex -2.023140e-01 2.225454e+00 1.011570e+00
      vertex 2.023140e-01 1.820826e+00 1.011570e+00
    endloop
  endfacet
  facet normal 4.850713e-01 4.850713e-01 7.276069e-01
    outer loop
      vertex 1.011570e+00 1.011570e+00 1.011570e+00
      vertex 1.011570e+00 2.225454e+00 2.023140e-01
      vertex 2.023140e-01 1.820826e+00 1.011570e+00
    endloop
  endfacet
  facet normal 4.850713e-01 4.850713e-01 7.276069e-01
    outer loop
      vertex 1.011570e+00 1.011570e+00 1.011570e+00
      vertex 2.023140e-01 1.820826e+00 1.011570e+00
      vertex -2.023140e-01 1.011570e+00 1.820826e+00
    endloop
  endfacet
  facet normal 0.000000e+00 1.000000e+00 0.000000e+00
    outer loop
      vertex 1.011570e+00 1.011570e+00 1.011570e+00
      vertex -2.023140e-01 1.011570e+00 1.820826e+00
      vertex 2.023140e-01 1.011570e+00 2.225454e+00
    endloop
  endfacet
  facet normal 7.276069e-01 4.850713e-01 4.850713e-01
    outer loop
      vertex 1.011570e+00 1.011570e+00 1.011570e+00
      vertex 2.023140e-01 1.011570e+00 2.225454e+00
      vertex 1.011570e+00 2.023140e-01 1.820826e+00
    endloop
  endfacet
  facet normal 7.276069e-01 4.850713e-01 4.850713e-01
    outer loop
      vertex 1.011570e+00 1.011570e+00 1.011570e+00
      vertex 1.011570e+00 2.023140e-01 1.820826e+00
      vertex 1.820826e+00 -2.023140e-01 1.011570e+00
    endloop
  endfacet
  facet normal 0.000000e+00 0.000000e+00 1.000000e+00
    outer loop
      vertex 1.011570e+00 1.011570e+00 1.011570e+00
      vertex 1.820826e+00 -2.023140e-01 1.011570e+00
      vertex 2.225454e+00 2.023140e-01 1.011570e+00
    endloop
  endfacet
  facet normal 4.850713e-01 7.276069e-01 4.850713e-01
    outer loop
      vertex 1.011570e+00 1.011570e+00 1.011570e+00
      vertex 2.225454e+00 2.023140e-01 1.011570e+00
      vertex 1.820826e+00 1.011570e+00 2.023140e-01
    endloop
  endfacet
  facet normal 4.850713e-01 7.276069e-01 4.850713e-01
    outer loop
      vertex 1.011570e+00 1.011570e+00 1.011570e+00
      vertex 1.820826e+00 1.011570e+00 2.023140e-01
      vertex 1.011570e+00 1.820826e+00 -2.023140e-01
    endloop
  endfacet
  facet normal 1.000000e+00 0.000000e+00 0.000000e+00
    outer loop
      vertex 1.011570e+00 1.011570e+00 1.011570e+00
      vertex 1.011570e+00 1.820826e+00 -2.023140e-01
      vertex 1.011570e+00 2.225454e+00 2.023140e-01
    endloop
  endfacet
  facet normal -4.850713e-01 7.276069e-01 4.850713e-01
    outer loop
      vertex 3.034710e+00 1.011570e+00 1.011570e+00
      vertex 3.843966e+00 1.011570e+00 1.820826e+00
      vertex 4.248594e+00 1.820826e+00 1.011570e+00
    endloop
  endfacet
  facet normal 0.000000e+00 0.000000e+00 1.000000e+00
    outer loop
      vertex 3.034710e+00 1.011570e+00 1.011570e+00
      vertex 4.248594e+00 1.820826e+00 1.011570e+00
      vertex 3.843966e+00 2.225454e+00 1.011570e+00
    endloop
  endfacet
  facet normal -7.276069e-01 4.850713e-01 4.850713e-01
    outer loop
      vertex 3.034710e+00 1.011570e+00 1.011570e+00
      vertex 3.843966e+00 2.225454e+00 1.011570e+00
      vertex 3.034710e+00 1.820826e+00 2.023140e-01
    endloop
  endfacet
  facet normal -7.276069e-01 4.850713e-01 4.850713e-01
    outer loop
      vertex 3.034710e+00 1.011570e+00 1.011570e+00
      vertex 3.034710e+00 1.820826e+00 2.023140e-01
      vertex 2.225454e+00 1.011570e+00 -2.023140e-01
    endloop
  endfacet
  facet normal 1.097525e-16 1.000000e+00 1.097525e-16
    outer loop
      vertex 3.034710e+00 1.011570e+00 1.011570e+00
      vertex 2.225454e+00 1.011570e+00 -2.023140e-01
      vertex 1.820826e+00 1.011570e+00 2.023140e-01
    endloop
  endfacet
  facet normal -4.850713e-01 4.850713e-01 7.276069e-01
    outer loop
      vertex 3.034710e+00 1.011570e+00 1.011570e+00
      vertex 1.820826e+00 1.011570e+00 2.023140e-01
      vertex 2.225454e+00 2.023140e-01 1.011570e+00
    endloop
  endfacet
  facet normal -4.850713e-01 4.850713e-01 7.276069e-01
    outer loop
      vertex 3.034710e+00 1.011570e+00 1.011570e+00
      vertex 2.225454e+00 2.023140e-01 1.011570e+00
      vertex 3.034710e+00 -2.023140e-01 1.820826e+00
    endloop
  endfacet
  facet normal -1.000000e+00 -2.195049e-16 2.195049e-16
    outer loop
      vertex 3.034710e+00 1.011570e+00 1.011570e+00
      vertex 3.034710e+00 -2.023140e-01 1.820826e+00
      vertex 3.034710e+00 2.023140e-01 2.225454e+00
    endloop
  endfacet
  facet normal -4.850713e-01 7.276069e-01 4.850713e-01
    outer loop
      vertex 3.034710e+00 1.011570e+00 1.011570e+00
      vertex 3.034710e+00 2.023140e-01 2.225454e+00
      vertex 3.843966e+00 1.011570e+00 1.820826e+00
    endloop
  endfacet
  facet normal 4.850713e-01 7.276069e-01 -4.850713e-01
    outer loop
      vertex 1.011570e+00 1.011570e+00 3.034710e+00
      vertex 1.011570e+00 2.023140e-01 1.820826e+00
      vertex 2.023140e-01 1.011570e+00 2.225454e+00
    endloop
  endfacet
  facet normal 4.850713e-01 7.276069e-01 -4.850713e-01
    outer loop
      vertex 1.011570e+00 1.011570e+00 3.034710e+00
      vertex 2.023140e-01 1.011570e+00 2.225454e+00
      vertex -2.023140e-01 1.820826e+00 3.034710e+00
    endloop
  endfacet
  facet normal 0.000000e+00 0.000000e+00 -1.000000e+00
    outer loop
      vertex 1.011570e+00 1.011570e+00 3.034710e+00
      vertex -2.023140e-01 1.820826e+00 3.034710e+00
      vertex 2.023140e-01 2.225454e+00 3.034710e+00
    endloop
  endfacet
  facet normal 7.276069e-01 4.850713e-01 -4.850713e-01
    outer loop
      vertex 1.011570e+00 1.011570e+00 3.034710e+00
      vertex 2.023140e-01 2.225454e+00 3.034710e+00
      vertex 1.011570e+00 1.820826e+00 3.843966e+00
    endloop
  endfacet
  facet normal 7.276069e-01 4.850713e-01 -4.850713e-01
    outer loop
      vertex 1.011570e+00 1.011570e+00 3.034710e+00
      vertex 1.011570e+00 1.820826e+00 3.843966e+00
      vertex 1.820826e+00 1.011570e+00 4.248594e+00
    endloop
  endfacet
  facet normal -1.097525e-16 1.000000e+00 -1.097525e-16
    outer loop
      vertex 1.011570e+00 1.011570e+00 3.034710e+00
      vertex 1.820826e+00 1.011570e+00 4.248594e+00
      vertex 2.225454e+00 1.011570e+00 3.843966e+00
    endloop
  endfacet
  facet normal 4.850713e-01 4.850713e-01 -7.276069e-01
    outer loop
      vertex 1.011570e+00 1.011570e+00 3.034710e+00
      vertex 2.225454e+00 1.011570e+00 3.843966e+00
      vertex 1.820826e+00 2.023140e-01 3.034710e+00
    endloop
  endfacet
  facet normal 4.850713e-01 4.850713e-01 -7.276069e-01
    outer loop
      vertex 1.011570e+00 1.011570e+00 3.034710e+00
      vertex 1.820826e+00 2.023140e-01 3.034710e+00
      vertex 1.011570e+00 -2.023140e-01 2.225454e+00
    endloop
  endfacet
  facet normal 1.000000e+00 0.000000e+00 0.000000e+00
    outer loop
      vertex 1.011570e+00 1.011570e+00 3.034710e+00
      vertex 1.011570e+00 -2.023140e-01 2.225454e+00
      vertex 1.011570e+00 2.023140e-01 1.820826e+00
    endloop
  endfacet
  facet normal -4.850713e-01 4.850713e-01 -7.276069e-01
    outer loop
      vertex 3.034710e+00 1.011570e+00 3.034710e+00
      vertex 3.843966e+00 1.820826e+00 3.034710e+00
      vertex 4.248594e+00 1.011570e+00 2.225454e+00
    endloop
  endfacet
  facet normal 0.000000e+00 1.000000e+00 0.000000e+00
    outer loop
      vertex 3.034710e+00 1.011570e+00 3.034710e+00
      vertex 4.248594e+00 1.011570e+00 2.225454e+00
      vertex 3.843966e+00 1.011570e+00 1.820826e+00
    endloop
  endfacet
  facet normal -7.276069e-01 4.850713e-01 -4.850713e-01
    outer loop
      vertex 3.034710e+00 1.011570e+00 3.034710e+00
      vertex 3.843966e+00 1.011570e+00 1.820826e+00
      vertex 3.034710e+00 2.023140e-01 2.225454e+00
    endloop
  endfacet
  facet normal -7.276069e-01 4.850713e-01 -4.850713e-01
    outer loop
      vertex 3.034710e+00 1.011570e+00 3.034710e+00
      vertex 3.034710e+00 2.023140e-01 2.225454e+00
      vertex 2.225454e+00 -2.023140e-01 3.034710e+00
    endloop
  endfacet
  facet normal -2.195049e-16 -2.195049e-16 -1.000000e+00
    outer loop
      vertex 3.034710e+00 1.011570e+00 3.034710e+00
      vertex 2.225454e+00 -2.023140e-01 3.034710e+00
      vertex 1.820826e+00 2.023140e-01 3.034710e+00
    endloop
  endfacet
  facet normal -4.850713e-01 7.276069e-01 -4.850713e-01
    outer loop
      vertex 3.034710e+00 1.011570e+00 3.034710e+00
      vertex 1.820826e+00 2.023140e-01 3.034710e+00
      vertex 2.225454e+00 1.011570e+00 3.843966e+00
    endloop
  endfacet
  facet normal -4.850713e-01 7.276069e-01 -4.850713e-01
    outer loop
      vertex 3.034710e+00 1.011570e+00 3.034710e+00
      vertex 2.225454e+00 1.011570e+00 3.843966e+00
      vertex 3.034710e+00 1.820826e+00 4.248594e+00
    endloop
  endfacet
  facet normal -1.000000e+00 4.390099e-16 4.390099e-16
    outer loop
      vertex 3.034710e+00 1.011570e+00 3.034710e+00
      vertex 3.034710e+00 1.820826e+00 4.248594e+00
      vertex 3.034710e+00 2.225454e+00 3.843966e+00
    endloop
  endfacet
  facet normal -4.850713e-01 4.850713e-01 -7.276069e-01
    outer loop
      vertex 3.034710e+00 1.011570e+00 3.034710e+00
      vertex 3.034710e+00 2.225454e+00 3.843966e+00
      vertex 3.843966e+00 1.820826e+00 3.034710e+00
    endloop
  endfacet
  facet normal 4.850713e-01 -7.276069e-01 -4.850713e-01
    outer loop
      vertex 1.011570e+00 3.034710e+00 3.034710e+00
      vertex 1.820826e+00 3.034710e+00 3.843966e+00
      vertex 1.011570e+00 2.225454e+00 4.248594e+00
    endloop
  endfacet
  facet normal 1.000000e+00 0.000000e+00 0.000000e+00
    outer loop
      vertex 1.011570e+00 3.034710e+00 3.034710e+00
      vertex 1.011570e+00 2.225454e+00 4.248594e+00
      vertex 1.011570e+00 1.820826e+00 3.843966e+00
    endloop
  endfacet
  facet normal 4.850713e-01 -4.850713e-01 -7.276069e-01
    outer loop
      vertex 1.011570e+00 3.034710e+00 3.034710e+00
      vertex 1.011570e+00 1.820826e+00 3.843966e+00
      vertex 2.023140e-01 2.225454e+00 3.034710e+00
    endloop
  endfacet
  facet normal 4.850713e-01 -4.850713e-01 -7.276069e-01
    outer loop
      vertex 1.011570e+00 3.034710e+00 3.034710e+00
      vertex 2.023140e-01 2.225454e+00 3.034710e+00
      vertex -2.023140e-01 3.034710e+00 2.225454e+00
    endloop
  endfacet
  facet normal -2.195049e-16 -1.000000e+00 -2.195049e-16
    outer loop
      vertex 1.011570e+00 3.034710e+00 3.034710e+00
      vertex -2.023140e-01 3.034710e+00 2.225454e+00
      vertex 2.023140e-01 3.034710e+00 1.820826e+00
    endloop
  endfacet
  facet normal 7.276069e-01 -4.850713e-01 -4.850713e-01
    outer loop
      vertex 1.011570e+00 3.034710e+00 3.034710e+00
      vertex 2.023140e-01 3.034710e+00 1.820826e+00
      vertex 1.011570e+00 3.843966e+00 2.225454e+00
    endloop
  endfacet
  facet normal 7.276069e-01 -4.850713e-01 -4.850713e-01
    outer loop
      vertex 1.011570e+00 3.034710e+00 3.034710e+00
      vertex 1.011570e+00 3.843966e+00 2.225454e+00
      vertex 1.820826e+00 4.248594e+00 3.034710e+00
    endloop
  endfacet
  facet normal 2.195049e-16 2.195049e-16 -1.000000e+00
    outer loop
      vertex 1.011570e+00 3.034710e+00 3.034710e+00
      vertex 1.820826e+00 4.248594e+00 3.034710e+00
      vertex 2.225454e+00 3.843966e+00 3.034710e+00
    endloop
  endfacet
  facet normal 4.850713e-01 -7.276069e-01 -4.850713e-01
    outer loop
      vertex 1.011570e+00 3.034710e+00 3.034710e+00
      vertex 2.225454e+00 3.843966e+00 3.034710e+00
      vertex 1.820826e+00 3.034710e+00 3.843966e+00
    endloop
  endfacet
  facet normal -7.276069e-01 -4.850713e-01 4.850713e-01
    outer loop
      vertex 3.034710e+00 3.034710e+00 1.011570e+00
      vertex 3.034710e+00 3.843966e+00 1.820826e+00
      vertex 2.225454e+00 4.248594e+00 1.011570e+00
    endloop
  endfacet
  facet normal 0.000000e+00 0.000000e+00 1.000000e+00
    outer loop
      vertex 3.034710e+00 3.034710e+00 1.011570e+00
      vertex 2.225454e+00 4.248594e+00 1.011570e+00
      vertex 1.820826e+00 3.843966e+00 1.011570e+00
    endloop
  endfacet
  facet normal -4.850713e-01 -7.276069e-01 4.850713e-01
    outer loop
      vertex 3.034710e+00 3.034710e+00 1.011570e+00
      vertex 1.820826e+00 3.843966e+00 1.011570e+00
      vertex 2.225454e+00 3.034710e+00 2.023140e-01
    endloop
  endfacet
  facet normal -4.850713e-01 -7.276069e-01 4.850713e-01
    outer loop
      vertex 3.034710e+00 3.034710e+00 1.011570e+00
      vertex 2.225454e+00 3.034710e+00 2.023140e-01
      vertex 3.034710e+00 2.225454e+00 -2.023140e-01
    endloop
  endfacet
  facet normal -1.000000e+00 -2.195049e-16 -2.195049e-16
    outer loop
      vertex 3.034710e+00 3.034710e+00 1.011570e+00
      vertex 3.034710e+00 2.225454e+00 -2.023140e-01
      vertex 3.034710e+00 1.820826e+00 2.023140e-01
    endloop
  endfacet
  facet normal -4.850713e-01 -4.850713e-01 7.276069e-01
    outer loop
      vertex 3.034710e+00 3.034710e+00 1.011570e+00
      vertex 3.034710e+00 1.820826e+00 2.023140e-01
      vertex 3.843966e+00 2.225454e+00 1.011570e+00
    endloop
  endfacet
  facet normal -4.850713e-01 -4.850713e-01 7.276069e-01
    outer loop
      vertex 3.034710e+00 3.034710e+00 1.011570e+00
      vertex 3.843966e+00 2.225454e+00 1.011570e+00
      vertex 4.248594e+00 3.034710e+00 1.820826e+00
    endloop
  endfacet
  facet normal 2.195049e-16 -1.000000e+00 2.195049e-16
    outer loop
      vertex 3.034710e+00 3.034710e+00 1.011570e+00
      vertex 4.248594e+00 3.034710e+00 1.820826e+00
      vertex 3.843966e+00 3.034710e+00 2.225454e+00
    endloop
  endfacet
  facet normal -7.276069e-01 -4.850713e-01 4.850713e-01
    outer loop
      vertex 3.034710e+00 3.034710e+00 1.011570e+00
      vertex 3.843966e+00 3.034710e+00 2.225454e+00
      vertex 3.034710e+00 3.843966e+00 1.820826e+00
    endloop
  endfacet
  facet normal -4.850713e-01 -7.276069e-01 -4.850713e-01
    outer loop
      vertex 3.034710e+00 3.034710e+00 3.034710e+00
      vertex 3.843966e+00 3.034710e+00 2.225454e+00
      vertex 4.248594e+00 2.225454e+00 3.034710e+00
    endloop
  endfacet
  facet normal 2.195049e-16 -2.195049e-16 -1.000000e+00
    outer loop
      vertex 3.034710e+00 3.034710e+00 3.034710e+00
      vertex 4.248594e+00 2.225454e+00 3.034710e+00
      vertex 3.843966e+00 1.820826e+00 3.034710e+00
    endloop
  endfacet
  facet normal -7.276069e-01 -4.850713e-01 -4.850713e-01
    outer loop
      vertex 3.034710e+00 3.034710e+00 3.034710e+00
      vertex 3.843966e+00 1.820826e+00 3.034710e+00
      vertex 3.034710e+00 2.225454e+00 3.843966e+00
    endloop
  endfacet
  facet normal -7.276069e-01 -4.850713e-01 -4.850713e-01
    outer loop
      vertex 3.034710e+00 3.034710e+00 3.034710e+00
      vertex 3.034710e+00 2.225454e+00 3.843966e+00
      vertex 2.225454e+00 3.034710e+00 4.248594e+00
    endloop
  endfacet
  facet normal -4.390099e-16 -1.000000e+00 4.390099e-16
    outer loop
      vertex 3.034710e+00 3.034710e+00 3.034710e+00
      vertex 2.225454e+00 3.034710e+00 4.248594e+00
      vertex 1.820826e+00 3.034710e+00 3.843966e+00
    endloop
  endfacet
  facet normal -4.850713e-01 -4.850713e-01 -7.276069e-01
    outer loop
      vertex 3.034710e+00 3.034710e+00 3.034710e+00
      vertex 1.820826e+00 3.034710e+00 3.843966e+00
      vertex 2.225454e+00 3.843966e+00 3.034710e+00
    endloop
  endfacet
  facet normal -4.850713e-01 -4.850713e-01 -7.276069e-01
    outer loop
      vertex 3.034710e+00 3.034710e+00 3.034710e+00
      vertex 2.225454e+00 3.843966e+00 3.034710e+00
      vertex 3.034710e+00 4.248594e+00 2.225454e+00
    endloop
  endfacet
  facet normal -1.000000e+00 0.000000e+00 0.000000e+00
    outer loop
      vertex 3.034710e+00 3.034710e+00 3.034710e+00
      vertex 3.034710e+00 4.248594e+00 2.225454e+00
      vertex 3.034710e+00 3.843966e+00 1.820826e+00
    endloop
  endfacet
  facet normal -4.850713e-01 -7.276069e-01 -4.850713e-01
    outer loop
      vertex 3.034710e+00 3.034710e+00 3.034710e+00
      vertex 3.034710e+00 3.843966e+00 1.820826e+00
      vertex 3.843966e+00 3.034710e+00 2.225454e+00
    endloop
  endfacet
endsolid surface_model
