solid surface_model
  facet normal 1.378799e-01 7.865976e-17 9.904490e-01
    outer loop
      vertex 1.600905e+00 1.000566e+00 -2.602085e-17
      vertex 1.200679e+00 4.002263e-01 5.571529e-02
      vertex 2.001131e+00 4.002263e-01 -5.571529e-02
    endloop
  endfacet
  facet normal 2.671517e-01 8.905056e-02 9.595311e-01
    outer loop
      vertex 1.600905e+00 1.000566e+00 -2.602085e-17
      vertex 2.001131e+00 4.002263e-01 -5.571529e-02
      vertex 1.600905e+00 1.600905e+00 -5.571529e-02
    endloop
  endfacet
  facet normal 1.000000e+00 3.698651e-16 0.000000e+00
    outer loop
      vertex 1.600905e+00 1.000566e+00 -2.602085e-17
      vertex 1.600905e+00 1.600905e+00 -5.571529e-02
      vertex 1.600905e+00 1.600905e+00 5.571529e-02
    endloop
  endfacet
  facet normal 2.671517e-01 -8.905056e-02 9.595311e-01
    outer loop
      vertex 1.600905e+00 1.000566e+00 -2.602085e-17
      vertex 1.600905e+00 1.600905e+00 5.571529e-02
      vertex 1.200679e+00 4.002263e-01 5.571529e-02
    endloop
  endfacet
  facet normal -2.590472e-01 -2.590472e-01 9.304779e-01
    outer loop
      vertex 2.001131e+00 1.200679e+00 1.671325e-01
      vertex 2.001131e+00 4.002263e-01 -5.571529e-02
      vertex 2.801584e+00 1.200679e+00 3.899803e-01
    endloop
  endfacet
  facet normal -2.089604e-01 -6.268812e-01 7.505701e-01
    outer loop
      vertex 2.001131e+00 1.200679e+00 1.671325e-01
      vertex 2.801584e+00 1.200679e+00 3.899803e-01
      vertex 1.600905e+00 1.600905e+00 3.899803e-01
    endloop
  endfacet
  facet normal -7.071068e-01 -7.071068e-01 0.000000e+00
    outer loop
      vertex 2.001131e+00 1.200679e+00 1.671325e-01
      vertex 1.600905e+00 1.600905e+00 3.899803e-01
      vertex 1.600905e+00 1.600905e+00 -5.571529e-02
    endloop
  endfacet
  facet normal -6.268812e-01 -2.089604e-01 7.505701e-01
    outer loop
      vertex 2.001131e+00 1.200679e+00 1.671325e-01
      vertex 1.600905e+00 1.600905e+00 -5.571529e-02
      vertex 2.001131e+00 4.002263e-01 -5.571529e-02
    endloop
  endfacet
  facet normal 6.435799e-17 1.378799e-01 9.904490e-01
    outer loop
      vertex 2.201244e+00 1.600905e+00 3.342650e-01
      vertex 2.801584e+00 1.200679e+00 3.899803e-01
      vertex 2.801584e+00 2.001131e+00 2.785497e-01
    endloop
  endfacet
  facet normal -8.905056e-02 2.671517e-01 9.595311e-01
    outer loop
      vertex 2.201244e+00 1.600905e+00 3.342650e-01
      vertex 2.801584e+00 2.001131e+00 2.785497e-01
      vertex 1.600905e+00 1.600905e+00 2.785497e-01
    endloop
  endfacet
  facet normal 0.000000e+00 1.000000e+00 0.000000e+00
    outer loop
      vertex 2.201244e+00 1.600905e+00 3.342650e-01
      vertex 1.600905e+00 1.600905e+00 2.785497e-01
      vertex 1.600905e+00 1.600905e+00 3.899803e-01
    endloop
  endfacet
  facet normal 8.905056e-02 2.671517e-01 9.595311e-01
    outer loop
      vertex 2.201244e+00 1.600905e+00 3.342650e-01
      vertex 1.600905e+00 1.600905e+00 3.899803e-01
      vertex 2.801584e+00 1.200679e+00 3.899803e-01
    endloop
  endfacet
  facet normal 2.590472e-01 -2.590472e-01 9.304779e-01
    outer loop
      vertex 2.001131e+00 2.001131e+00 5.013975e-01
      vertex 2.801584e+00 2.001131e+00 2.785497e-01
      vertex 2.001131e+00 2.801584e+00 7.242453e-01
    endloop
  endfacet
  facet normal 6.268812e-01 -2.089604e-01 7.505701e-01
    outer loop
      vertex 2.001131e+00 2.001131e+00 5.013975e-01
      vertex 2.001131e+00 2.801584e+00 7.242453e-01
      vertex 1.600905e+00 1.600905e+00 7.242453e-01
    endloop
  endfacet
  facet normal 7.071068e-01 -7.071068e-01 0.000000e+00
    outer loop
      vertex 2.001131e+00 2.001131e+00 5.013975e-01
      vertex 1.600905e+00 1.600905e+00 7.242453e-01
      vertex 1.600905e+00 1.600905e+00 2.785497e-01
    endloop
  endfacet
  facet normal 2.089604e-01 -6.268812e-01 7.505701e-01
    outer loop
      vertex 2.001131e+00 2.001131e+00 5.013975e-01
      vertex 1.600905e+00 1.600905e+00 2.785497e-01
      vertex 2.801584e+00 2.001131e+00 2.785497e-01
    endloop
  endfacet
  facet normal -1.378799e-01 2.359793e-16 9.904490e-01
    outer loop
      vertex 1.600905e+00 2.201244e+00 6.685300e-01
      vertex 2.001131e+00 2.801584e+00 7.242453e-01
      vertex 1.200679e+00 2.801584e+00 6.128147e-01
    endloop
  endfacet
  facet normal -2.671517e-01 -8.905056e-02 9.595311e-01
    outer loop
      vertex 1.600905e+00 2.201244e+00 6.685300e-01
      vertex 1.200679e+00 2.801584e+00 6.128147e-01
      vertex 1.600905e+00 1.600905e+00 6.128147e-01
    endloop
  endfacet
  facet normal -1.000000e+00 3.698651e-16 0.000000e+00
    outer loop
      vertex 1.600905e+00 2.201244e+00 6.685300e-01
      vertex 1.600905e+00 1.600905e+00 6.128147e-01
      vertex 1.600905e+00 1.600905e+00 7.242453e-01
    endloop
  endfacet
  facet normal -2.671517e-01 8.905056e-02 9.595311e-01
    outer loop
      vertex 1.600905e+00 2.201244e+00 6.685300e-01
      vertex 1.600905e+00 1.600905e+00 7.242453e-01
      vertex 2.001131e+00 2.801584e+00 7.242453e-01
    endloop
  endfacet
  facet normal 2.590472e-01 2.590472e-01 9.304779e-01
    outer loop
      vertex 1.200679e+00 2.001131e+00 8.356625e-01
      vertex 1.200679e+00 2.801584e+00 6.128147e-01
      vertex 4.002263e-01 2.001131e+00 1.058510e+00
    endloop
  endfacet
  facet normal 2.089604e-01 6.268812e-01 7.505701e-01
    outer loop
      vertex 1.200679e+00 2.001131e+00 8.356625e-01
      vertex 4.002263e-01 2.001131e+00 1.058510e+00
      vertex 1.600905e+00 1.600905e+00 1.058510e+00
    endloop
  endfacet
  facet normal 7.071068e-01 7.071068e-01 0.000000e+00
    outer loop
      vertex 1.200679e+00 2.001131e+00 8.356625e-01
      vertex 1.600905e+00 1.600905e+00 1.058510e+00
      vertex 1.600905e+00 1.600905e+00 6.128147e-01
    endloop
  endfacet
  facet normal 6.268812e-01 2.089604e-01 7.505701e-01
    outer loop
      vertex 1.200679e+00 2.001131e+00 8.356625e-01
      vertex 1.600905e+00 1.600905e+00 6.128147e-01
      vertex 1.200679e+00 2.801584e+00 6.128147e-01
    endloop
  endfacet
  facet normal 6.435799e-17 -1.378799e-01 9.904490e-01
    outer loop
      vertex 1.000566e+00 1.600905e+00 1.002795e+00
      vertex 4.002263e-01 2.001131e+00 1.058510e+00
      vertex 4.002263e-01 1.200679e+00 9.470797e-01
    endloop
  endfacet
  facet normal 8.905056e-02 -2.671517e-01 9.595311e-01
    outer loop
      vertex 1.000566e+00 1.600905e+00 1.002795e+00
      vertex 4.002263e-01 1.200679e+00 9.470797e-01
      vertex 1.600905e+00 1.600905e+00 9.470797e-01
    endloop
  endfacet
  facet normal 0.000000e+00 -1.000000e+00 0.000000e+00
    outer loop
      vertex 1.000566e+00 1.600905e+00 1.002795e+00
      vertex 1.600905e+00 1.600905e+00 9.470797e-01
      vertex 1.600905e+00 1.600905e+00 1.058510e+00
    endloop
  endfacet
  facet normal -8.905056e-02 -2.671517e-01 9.595311e-01
    outer loop
      vertex 1.000566e+00 1.600905e+00 1.002795e+00
      vertex 1.600905e+00 1.600905e+00 1.058510e+00
      vertex 4.002263e-01 2.001131e+00 1.058510e+00
    endloop
  endfacet
  facet normal 1.378799e-01 -8.581065e-17 9.904490e-01
    outer loop
      vertex 1.600905e+00 2.001131e-01 1.337060e+00
      vertex 2.001131e+00 4.002263e-01 1.281345e+00
      vertex 1.200679e+00 4.002263e-01 1.392775e+00
    endloop
  endfacet
  facet normal 2.590606e-01 2.590606e-01 9.304704e-01
    outer loop
      vertex 1.600905e+00 2.001131e-01 1.337060e+00
      vertex 1.200679e+00 4.002263e-01 1.392775e+00
      vertex 1.600905e+00 -1.003230e-16 1.392775e+00
    endloop
  endfacet
  facet normal 1.000000e+00 0.000000e+00 0.000000e+00
    outer loop
      vertex 1.600905e+00 2.001131e-01 1.337060e+00
      vertex 1.600905e+00 -1.003230e-16 1.392775e+00
      vertex 1.600905e+00 -1.071461e-16 1.281345e+00
    endloop
  endfacet
  facet normal 2.590606e-01 -2.590606e-01 9.304704e-01
    outer loop
      vertex 1.600905e+00 2.001131e-01 1.337060e+00
      vertex 1.600905e+00 -1.071461e-16 1.281345e+00
      vertex 2.001131e+00 4.002263e-01 1.281345e+00
    endloop
  endfacet
  facet normal 0.000000e+00 5.712461e-01 8.207788e-01
    outer loop
      vertex 1.400792e+00 -8.326673e-17 1.671325e+00
      vertex 1.200679e+00 4.002263e-01 1.392775e+00
      vertex 1.200679e+00 -4.002263e-01 1.949875e+00
    endloop
  endfacet
  facet normal -6.304270e-01 6.304270e-01 4.529056e-01
    outer loop
      vertex 1.400792e+00 -8.326673e-17 1.671325e+00
      vertex 1.200679e+00 -4.002263e-01 1.949875e+00
      vertex 1.600905e+00 -6.621048e-17 1.949875e+00
    endloop
  endfacet
  facet normal 0.000000e+00 1.000000e+00 -6.123234e-17
    outer loop
      vertex 1.400792e+00 -8.326673e-17 1.671325e+00
      vertex 1.600905e+00 -6.621048e-17 1.949875e+00
      vertex 1.600905e+00 -1.003230e-16 1.392775e+00
    endloop
  endfacet
  facet normal 6.304270e-01 6.304270e-01 4.529056e-01
    outer loop
      vertex 1.400792e+00 -8.326673e-17 1.671325e+00
      vertex 1.600905e+00 -1.003230e-16 1.392775e+00
      vertex 1.200679e+00 4.002263e-01 1.392775e+00
    endloop
  endfacet
  facet normal -1.378799e-01 1.029728e-15 9.904490e-01
    outer loop
      vertex 1.600905e+00 -2.001131e-01 2.005590e+00
      vertex 1.200679e+00 -4.002263e-01 1.949875e+00
      vertex 2.001131e+00 -4.002263e-01 2.061305e+00
    endloop
  endfacet
  facet normal -2.590606e-01 -2.590606e-01 9.304704e-01
    outer loop
      vertex 1.600905e+00 -2.001131e-01 2.005590e+00
      vertex 2.001131e+00 -4.002263e-01 2.061305e+00
      vertex 1.600905e+00 -5.938732e-17 2.061305e+00
    endloop
  endfacet
  facet normal -1.000000e+00 0.000000e+00 0.000000e+00
    outer loop
      vertex 1.600905e+00 -2.001131e-01 2.005590e+00
      vertex 1.600905e+00 -5.938732e-17 2.061305e+00
      vertex 1.600905e+00 -6.621048e-17 1.949875e+00
    endloop
  endfacet
  facet normal -2.590606e-01 2.590606e-01 9.304704e-01
    outer loop
      vertex 1.600905e+00 -2.001131e-01 2.005590e+00
      vertex 1.600905e+00 -6.621048e-17 1.949875e+00
      vertex 1.200679e+00 -4.002263e-01 1.949875e+00
    endloop
  endfacet
  facet normal -1.930740e-16 -1.378799e-01 9.904490e-01
    outer loop
      vertex 2.001131e-01 1.600905e+00 1.002795e+00
      vertex 4.002263e-01 1.200679e+00 9.470797e-01
      vertex 4.002263e-01 2.001131e+00 1.058510e+00
    endloop
  endfacet
  facet normal 2.590606e-01 -2.590606e-01 9.304704e-01
    outer loop
      vertex 2.001131e-01 1.600905e+00 1.002795e+00
      vertex 4.002263e-01 2.001131e+00 1.058510e+00
      vertex -7.256740e-17 1.600905e+00 1.058510e+00
    endloop
  endfacet
  facet normal -0.000000e+00 -1.000000e+00 0.000000e+00
    outer loop
      vertex 2.001131e-01 1.600905e+00 1.002795e+00
      vertex -7.256740e-17 1.600905e+00 1.058510e+00
      vertex -7.939056e-17 1.600905e+00 9.470797e-01
    endloop
  endfacet
  facet normal -2.590606e-01 -2.590606e-01 9.304704e-01
    outer loop
      vertex 2.001131e-01 1.600905e+00 1.002795e+00
      vertex -7.939056e-17 1.600905e+00 9.470797e-01
      vertex 4.002263e-01 1.200679e+00 9.470797e-01
    endloop
  endfacet
  facet normal 5.712461e-01 -7.111075e-17 8.207788e-01
    outer loop
      vertex -4.163336e-17 1.801018e+00 1.337060e+00
      vertex 4.002263e-01 2.001131e+00 1.058510e+00
      vertex -4.002263e-01 2.001131e+00 1.615610e+00
    endloop
  endfacet
  facet normal 6.304270e-01 6.304270e-01 4.529056e-01
    outer loop
      vertex -4.163336e-17 1.801018e+00 1.337060e+00
      vertex -4.002263e-01 2.001131e+00 1.615610e+00
      vertex -3.845490e-17 1.600905e+00 1.615610e+00
    endloop
  endfacet
  facet normal 1.000000e+00 -6.934971e-17 -6.123234e-17
    outer loop
      vertex -4.163336e-17 1.801018e+00 1.337060e+00
      vertex -3.845490e-17 1.600905e+00 1.615610e+00
      vertex -7.256740e-17 1.600905e+00 1.058510e+00
    endloop
  endfacet
  facet normal 6.304270e-01 -6.304270e-01 4.529056e-01
    outer loop
      vertex -4.163336e-17 1.801018e+00 1.337060e+00
      vertex -7.256740e-17 1.600905e+00 1.058510e+00
      vertex 4.002263e-01 2.001131e+00 1.058510e+00
    endloop
  endfacet
  facet normal 8.581065e-17 1.378799e-01 9.904490e-01
    outer loop
      vertex -2.001131e-01 1.600905e+00 1.671325e+00
      vertex -4.002263e-01 2.001131e+00 1.615610e+00
      vertex -4.002263e-01 1.200679e+00 1.727040e+00
    endloop
  endfacet
  facet normal -2.590606e-01 2.590606e-01 9.304704e-01
    outer loop
      vertex -2.001131e-01 1.600905e+00 1.671325e+00
      vertex -4.002263e-01 1.200679e+00 1.727040e+00
      vertex -3.163175e-17 1.600905e+00 1.727040e+00
    endloop
  endfacet
  facet normal -0.000000e+00 1.000000e+00 0.000000e+00
    outer loop
      vertex -2.001131e-01 1.600905e+00 1.671325e+00
      vertex -3.163175e-17 1.600905e+00 1.727040e+00
      vertex -3.845490e-17 1.600905e+00 1.615610e+00
    endloop
  endfacet
  facet normal 2.590606e-01 2.590606e-01 9.304704e-01
    outer loop
      vertex -2.001131e-01 1.600905e+00 1.671325e+00
      vertex -3.845490e-17 1.600905e+00 1.615610e+00
      vertex -4.002263e-01 2.001131e+00 1.615610e+00
    endloop
  endfacet
  facet normal 8.581065e-17 1.378799e-01 9.904490e-01
    outer loop
      vertex 3.001697e+00 1.600905e+00 3.342650e-01
      vertex 2.801584e+00 2.001131e+00 2.785497e-01
      vertex 2.801584e+00 1.200679e+00 3.899803e-01
    endloop
  endfacet
  facet normal -2.590606e-01 2.590606e-01 9.304704e-01
    outer loop
      vertex 3.001697e+00 1.600905e+00 3.342650e-01
      vertex 2.801584e+00 1.200679e+00 3.899803e-01
      vertex 3.201810e+00 1.600905e+00 3.899803e-01
    endloop
  endfacet
  facet normal -0.000000e+00 1.000000e+00 0.000000e+00
    outer loop
      vertex 3.001697e+00 1.600905e+00 3.342650e-01
      vertex 3.201810e+00 1.600905e+00 3.899803e-01
      vertex 3.201810e+00 1.600905e+00 2.785497e-01
    endloop
  endfacet
  facet normal 2.590606e-01 2.590606e-01 9.304704e-01
    outer loop
      vertex 3.001697e+00 1.600905e+00 3.342650e-01
      vertex 3.201810e+00 1.600905e+00 2.785497e-01
      vertex 2.801584e+00 2.001131e+00 2.785497e-01
    endloop
  endfacet
  facet normal -5.712461e-01 1.422215e-16 8.207788e-01
    outer loop
      vertex 3.201810e+00 1.400792e+00 6.685300e-01
      vertex 2.801584e+00 1.200679e+00 3.899803e-01
      vertex 3.602036e+00 1.200679e+00 9.470797e-01
    endloop
  endfacet
  facet normal -6.304270e-01 -6.304270e-01 4.529056e-01
    outer loop
      vertex 3.201810e+00 1.400792e+00 6.685300e-01
      vertex 3.602036e+00 1.200679e+00 9.470797e-01
      vertex 3.201810e+00 1.600905e+00 9.470797e-01
    endloop
  endfacet
  facet normal -1.000000e+00 0.000000e+00 0.000000e+00
    outer loop
      vertex 3.201810e+00 1.400792e+00 6.685300e-01
      vertex 3.201810e+00 1.600905e+00 9.470797e-01
      vertex 3.201810e+00 1.600905e+00 3.899803e-01
    endloop
  endfacet
  facet normal -6.304270e-01 6.304270e-01 4.529056e-01
    outer loop
      vertex 3.201810e+00 1.400792e+00 6.685300e-01
      vertex 3.201810e+00 1.600905e+00 3.899803e-01
      vertex 2.801584e+00 1.200679e+00 3.899803e-01
    endloop
  endfacet
  facet normal -1.930740e-16 -1.378799e-01 9.904490e-01
    outer loop
      vertex 3.401923e+00 1.600905e+00 1.002795e+00
      vertex 3.602036e+00 1.200679e+00 9.470797e-01
      vertex 3.602036e+00 2.001131e+00 1.058510e+00
    endloop
  endfacet
  facet normal 2.590606e-01 -2.590606e-01 9.304704e-01
    outer loop
      vertex 3.401923e+00 1.600905e+00 1.002795e+00
      vertex 3.602036e+00 2.001131e+00 1.058510e+00
      vertex 3.201810e+00 1.600905e+00 1.058510e+00
    endloop
  endfacet
  facet normal -0.000000e+00 -1.000000e+00 0.000000e+00
    outer loop
      vertex 3.401923e+00 1.600905e+00 1.002795e+00
      vertex 3.201810e+00 1.600905e+00 1.058510e+00
      vertex 3.201810e+00 1.600905e+00 9.470797e-01
    endloop
  endfacet
  facet normal -2.590606e-01 -2.590606e-01 9.304704e-01
    outer loop
      vertex 3.401923e+00 1.600905e+00 1.002795e+00
      vertex 3.201810e+00 1.600905e+00 9.470797e-01
      vertex 3.602036e+00 1.200679e+00 9.470797e-01
    endloop
  endfacet
  facet normal -1.378799e-01 0.000000e+00 9.904490e-01
    outer loop
      vertex 1.600905e+00 3.001697e+00 6.685300e-01
      vertex 1.200679e+00 2.801584e+00 6.128147e-01
      vertex 2.001131e+00 2.801584e+00 7.242453e-01
    endloop
  endfacet
  facet normal -2.590606e-01 -2.590606e-01 9.304704e-01
    outer loop
      vertex 1.600905e+00 3.001697e+00 6.685300e-01
      vertex 2.001131e+00 2.801584e+00 7.242453e-01
      vertex 1.600905e+00 3.201810e+00 7.242453e-01
    endloop
  endfacet
  facet normal -1.000000e+00 -1.109595e-15 0.000000e+00
    outer loop
      vertex 1.600905e+00 3.001697e+00 6.685300e-01
      vertex 1.600905e+00 3.201810e+00 7.242453e-01
      vertex 1.600905e+00 3.201810e+00 6.128147e-01
    endloop
  endfacet
  facet normal -2.590606e-01 2.590606e-01 9.304704e-01
    outer loop
      vertex 1.600905e+00 3.001697e+00 6.685300e-01
      vertex 1.600905e+00 3.201810e+00 6.128147e-01
      vertex 1.200679e+00 2.801584e+00 6.128147e-01
    endloop
  endfacet
  facet normal -2.133322e-16 -5.712461e-01 8.207788e-01
    outer loop
      vertex 1.801018e+00 3.201810e+00 1.002795e+00
      vertex 2.001131e+00 2.801584e+00 7.242453e-01
      vertex 2.001131e+00 3.602036e+00 1.281345e+00
    endloop
  endfacet
  facet normal 6.304270e-01 -6.304270e-01 4.529056e-01
    outer loop
      vertex 1.801018e+00 3.201810e+00 1.002795e+00
      vertex 2.001131e+00 3.602036e+00 1.281345e+00
      vertex 1.600905e+00 3.201810e+00 1.281345e+00
    endloop
  endfacet
  facet normal -0.000000e+00 -1.000000e+00 0.000000e+00
    outer loop
      vertex 1.801018e+00 3.201810e+00 1.002795e+00
      vertex 1.600905e+00 3.201810e+00 1.281345e+00
      vertex 1.600905e+00 3.201810e+00 7.242453e-01
    endloop
  endfacet
  facet normal -6.304270e-01 -6.304270e-01 4.529056e-01
    outer loop
      vertex 1.801018e+00 3.201810e+00 1.002795e+00
      vertex 1.600905e+00 3.201810e+00 7.242453e-01
      vertex 2.001131e+00 2.801584e+00 7.242453e-01
    endloop
  endfacet
  facet normal 1.378799e-01 0.000000e+00 9.904490e-01
    outer loop
      vertex 1.600905e+00 3.401923e+00 1.337060e+00
      vertex 2.001131e+00 3.602036e+00 1.281345e+00
      vertex 1.200679e+00 3.602036e+00 1.392775e+00
    endloop
  endfacet
  facet normal 2.590606e-01 2.590606e-01 9.304704e-01
    outer loop
      vertex 1.600905e+00 3.401923e+00 1.337060e+00
      vertex 1.200679e+00 3.602036e+00 1.392775e+00
      vertex 1.600905e+00 3.201810e+00 1.392775e+00
    endloop
  endfacet
  facet normal 1.000000e+00 -1.109595e-15 0.000000e+00
    outer loop
      vertex 1.600905e+00 3.401923e+00 1.337060e+00
      vertex 1.600905e+00 3.201810e+00 1.392775e+00
      vertex 1.600905e+00 3.201810e+00 1.281345e+00
    endloop
  endfacet
  facet normal 2.590606e-01 -2.590606e-01 9.304704e-01
    outer loop
      vertex 1.600905e+00 3.401923e+00 1.337060e+00
      vertex 1.600905e+00 3.201810e+00 1.281345e+00
      vertex 2.001131e+00 3.602036e+00 1.281345e+00
    endloop
  endfacet
  facet normal -2.590472e-01 2.590472e-01 9.304779e-01
    outer loop
      vertex 4.002263e-01 4.002263e-01 -1.671325e-01
      vertex 1.200679e+00 4.002263e-01 5.571529e-02
      vertex 4.002263e-01 1.200679e+00 -3.899803e-01
    endloop
  endfacet
  facet normal -6.268812e-01 2.089604e-01 7.505701e-01
    outer loop
      vertex 4.002263e-01 4.002263e-01 -1.671325e-01
      vertex 4.002263e-01 1.200679e+00 -3.899803e-01
      vertex 2.294858e-17 -8.807372e-17 -3.899803e-01
    endloop
  endfacet
  facet normal -7.071068e-01 7.071068e-01 0.000000e+00
    outer loop
      vertex 4.002263e-01 4.002263e-01 -1.671325e-01
      vertex 2.294858e-17 -8.807372e-17 -3.899803e-01
      vertex 5.023957e-17 -6.078274e-17 5.571529e-02
    endloop
  endfacet
  facet normal -2.089604e-01 6.268812e-01 7.505701e-01
    outer loop
      vertex 4.002263e-01 4.002263e-01 -1.671325e-01
      vertex 5.023957e-17 -6.078274e-17 5.571529e-02
      vertex 1.200679e+00 4.002263e-01 5.571529e-02
    endloop
  endfacet
  facet normal -5.712461e-01 7.111075e-17 8.207788e-01
    outer loop
      vertex -3.868720e-17 6.003394e-01 -6.685300e-01
      vertex 4.002263e-01 1.200679e+00 -3.899803e-01
      vertex -4.002263e-01 1.200679e+00 -9.470797e-01
    endloop
  endfacet
  facet normal -7.839280e-01 -2.613093e-01 5.631823e-01
    outer loop
      vertex -3.868720e-17 6.003394e-01 -6.685300e-01
      vertex -4.002263e-01 1.200679e+00 -9.470797e-01
      vertex -1.116392e-17 -1.221862e-16 -9.470797e-01
    endloop
  endfacet
  facet normal -1.000000e+00 -7.425721e-17 6.123234e-17
    outer loop
      vertex -3.868720e-17 6.003394e-01 -6.685300e-01
      vertex -1.116392e-17 -1.221862e-16 -9.470797e-01
      vertex 2.294858e-17 -8.807372e-17 -3.899803e-01
    endloop
  endfacet
  facet normal -7.839280e-01 2.613093e-01 5.631823e-01
    outer loop
      vertex -3.868720e-17 6.003394e-01 -6.685300e-01
      vertex 2.294858e-17 -8.807372e-17 -3.899803e-01
      vertex 4.002263e-01 1.200679e+00 -3.899803e-01
    endloop
  endfacet
  facet normal -2.590472e-01 -2.590472e-01 9.304779e-01
    outer loop
      vertex -4.002263e-01 4.002262e-01 -1.169928e+00
      vertex -4.002263e-01 1.200679e+00 -9.470797e-01
      vertex -1.200679e+00 4.002262e-01 -1.392775e+00
    endloop
  endfacet
  facet normal -2.089604e-01 -6.268812e-01 7.505701e-01
    outer loop
      vertex -4.002263e-01 4.002262e-01 -1.169928e+00
      vertex -1.200679e+00 4.002262e-01 -1.392775e+00
      vertex -3.845490e-17 -1.494772e-16 -1.392775e+00
    endloop
  endfacet
  facet normal -7.071068e-01 -7.071068e-01 2.200500e-16
    outer loop
      vertex -4.002263e-01 4.002262e-01 -1.169928e+00
      vertex -3.845490e-17 -1.494772e-16 -1.392775e+00
      vertex -1.116392e-17 -1.221862e-16 -9.470797e-01
    endloop
  endfacet
  facet normal -6.268812e-01 -2.089604e-01 7.505701e-01
    outer loop
      vertex -4.002263e-01 4.002262e-01 -1.169928e+00
      vertex -1.116392e-17 -1.221862e-16 -9.470797e-01
      vertex -4.002263e-01 1.200679e+00 -9.470797e-01
    endloop
  endfacet
  facet normal 0.000000e+00 -5.712461e-01 8.207788e-01
    outer loop
      vertex -6.003394e-01 -1.665335e-16 -1.671325e+00
      vertex -1.200679e+00 4.002262e-01 -1.392775e+00
      vertex -1.200679e+00 -4.002263e-01 -1.949875e+00
    endloop
  endfacet
  facet normal 2.613093e-01 -7.839280e-01 5.631823e-01
    outer loop
      vertex -6.003394e-01 -1.665335e-16 -1.671325e+00
      vertex -1.200679e+00 -4.002263e-01 -1.949875e+00
      vertex -7.256740e-17 -1.835897e-16 -1.949875e+00
    endloop
  endfacet
  facet normal -2.073068e-32 -1.000000e+00 6.123234e-17
    outer loop
      vertex -6.003394e-01 -1.665335e-16 -1.671325e+00
      vertex -7.256740e-17 -1.835897e-16 -1.949875e+00
      vertex -3.845490e-17 -1.494772e-16 -1.392775e+00
    endloop
  endfacet
  facet normal -2.613093e-01 -7.839280e-01 5.631823e-01
    outer loop
      vertex -6.003394e-01 -1.665335e-16 -1.671325e+00
      vertex -3.845490e-17 -1.494772e-16 -1.392775e+00
      vertex -1.200679e+00 4.002262e-01 -1.392775e+00
    endloop
  endfacet
  facet normal 2.590472e-01 -2.590472e-01 9.304779e-01
    outer loop
      vertex -4.002263e-01 -4.002263e-01 -2.172722e+00
      vertex -1.200679e+00 -4.002263e-01 -1.949875e+00
      vertex -4.002263e-01 -1.200679e+00 -2.395570e+00
    endloop
  endfacet
  facet normal 6.268812e-01 -2.089604e-01 7.505701e-01
    outer loop
      vertex -4.002263e-01 -4.002263e-01 -2.172722e+00
      vertex -4.002263e-01 -1.200679e+00 -2.395570e+00
      vertex -9.985839e-17 -2.108807e-16 -2.395570e+00
    endloop
  endfacet
  facet normal 7.071068e-01 -7.071068e-01 0.000000e+00
    outer loop
      vertex -4.002263e-01 -4.002263e-01 -2.172722e+00
      vertex -9.985839e-17 -2.108807e-16 -2.395570e+00
      vertex -7.256740e-17 -1.835897e-16 -1.949875e+00
    endloop
  endfacet
  facet normal 2.089604e-01 -6.268812e-01 7.505701e-01
    outer loop
      vertex -4.002263e-01 -4.002263e-01 -2.172722e+00
      vertex -7.256740e-17 -1.835897e-16 -1.949875e+00
      vertex -1.200679e+00 -4.002263e-01 -1.949875e+00
    endloop
  endfacet
  facet normal 5.712461e-01 2.133322e-16 8.207788e-01
    outer loop
      vertex -1.833574e-16 -6.003394e-01 -2.674120e+00
      vertex -4.002263e-01 -1.200679e+00 -2.395570e+00
      vertex 4.002262e-01 -1.200679e+00 -2.952670e+00
    endloop
  endfacet
  facet normal 7.839280e-01 2.613093e-01 5.631823e-01
    outer loop
      vertex -1.833574e-16 -6.003394e-01 -2.674120e+00
      vertex 4.002262e-01 -1.200679e+00 -2.952670e+00
      vertex -1.339709e-16 -2.449932e-16 -2.952670e+00
    endloop
  endfacet
  facet normal 1.000000e+00 -1.106754e-16 -6.123234e-17
    outer loop
      vertex -1.833574e-16 -6.003394e-01 -2.674120e+00
      vertex -1.339709e-16 -2.449932e-16 -2.952670e+00
      vertex -9.985839e-17 -2.108807e-16 -2.395570e+00
    endloop
  endfacet
  facet normal 7.839280e-01 -2.613093e-01 5.631823e-01
    outer loop
      vertex -1.833574e-16 -6.003394e-01 -2.674120e+00
      vertex -9.985839e-17 -2.108807e-16 -2.395570e+00
      vertex -4.002263e-01 -1.200679e+00 -2.395570e+00
    endloop
  endfacet
  facet normal 2.590472e-01 2.590472e-01 9.304779e-01
    outer loop
      vertex 4.002262e-01 -4.002263e-01 -3.175517e+00
      vertex 4.002262e-01 -1.200679e+00 -2.952670e+00
      vertex 1.200679e+00 -4.002263e-01 -3.398365e+00
    endloop
  endfacet
  facet normal 2.089604e-01 6.268812e-01 7.505701e-01
    outer loop
      vertex 4.002262e-01 -4.002263e-01 -3.175517e+00
      vertex 1.200679e+00 -4.002263e-01 -3.398365e+00
      vertex -1.612619e-16 -2.722842e-16 -3.398365e+00
    endloop
  endfacet
  facet normal 7.071068e-01 7.071068e-01 -2.200500e-16
    outer loop
      vertex 4.002262e-01 -4.002263e-01 -3.175517e+00
      vertex -1.612619e-16 -2.722842e-16 -3.398365e+00
      vertex -1.339709e-16 -2.449932e-16 -2.952670e+00
    endloop
  endfacet
  facet normal 6.268812e-01 2.089604e-01 7.505701e-01
    outer loop
      vertex 4.002262e-01 -4.002263e-01 -3.175517e+00
      vertex -1.339709e-16 -2.449932e-16 -2.952670e+00
      vertex 4.002262e-01 -1.200679e+00 -2.952670e+00
    endloop
  endfacet
  facet normal -2.590472e-01 -2.590472e-01 9.304779e-01
    outer loop
      vertex 2.801584e+00 4.002263e-01 1.671325e-01
      vertex 2.801584e+00 1.200679e+00 3.899803e-01
      vertex 2.001131e+00 4.002263e-01 -5.571529e-02
    endloop
  endfacet
  facet normal -2.089604e-01 -6.268812e-01 7.505701e-01
    outer loop
      vertex 2.801584e+00 4.002263e-01 1.671325e-01
      vertex 2.001131e+00 4.002263e-01 -5.571529e-02
      vertex 3.201810e+00 2.294858e-17 -5.571529e-02
    endloop
  endfacet
  facet normal -7.071068e-01 -7.071068e-01 1.100250e-16
    outer loop
      vertex 2.801584e+00 4.002263e-01 1.671325e-01
      vertex 3.201810e+00 2.294858e-17 -5.571529e-02
      vertex 3.201810e+00 5.023957e-17 3.899803e-01
    endloop
  endfacet
  facet normal -6.268812e-01 -2.089604e-01 7.505701e-01
    outer loop
      vertex 2.801584e+00 4.002263e-01 1.671325e-01
      vertex 3.201810e+00 5.023957e-17 3.899803e-01
      vertex 2.801584e+00 1.200679e+00 3.899803e-01
    endloop
  endfacet
  facet normal 4.740716e-17 -5.712461e-01 8.207788e-01
    outer loop
      vertex 2.601471e+00 -5.256498e-17 -3.342650e-01
      vertex 2.001131e+00 4.002263e-01 -5.571529e-02
      vertex 2.001131e+00 -4.002263e-01 -6.128147e-01
    endloop
  endfacet
  facet normal 2.613093e-01 -7.839280e-01 5.631823e-01
    outer loop
      vertex 2.601471e+00 -5.256498e-17 -3.342650e-01
      vertex 2.001131e+00 -4.002263e-01 -6.128147e-01
      vertex 3.201810e+00 -1.116392e-17 -6.128147e-01
    endloop
  endfacet
  facet normal 9.737379e-17 -1.000000e+00 6.123234e-17
    outer loop
      vertex 2.601471e+00 -5.256498e-17 -3.342650e-01
      vertex 3.201810e+00 -1.116392e-17 -6.128147e-01
      vertex 3.201810e+00 2.294858e-17 -5.571529e-02
    endloop
  endfacet
  facet normal -2.613093e-01 -7.839280e-01 5.631823e-01
    outer loop
      vertex 2.601471e+00 -5.256498e-17 -3.342650e-01
      vertex 3.201810e+00 2.294858e-17 -5.571529e-02
      vertex 2.001131e+00 4.002263e-01 -5.571529e-02
    endloop
  endfacet
  facet normal 2.590472e-01 -2.590472e-01 9.304779e-01
    outer loop
      vertex 2.801584e+00 -4.002263e-01 -8.356625e-01
      vertex 2.001131e+00 -4.002263e-01 -6.128147e-01
      vertex 2.801584e+00 -1.200679e+00 -1.058510e+00
    endloop
  endfacet
  facet normal 6.268812e-01 -2.089604e-01 7.505701e-01
    outer loop
      vertex 2.801584e+00 -4.002263e-01 -8.356625e-01
      vertex 2.801584e+00 -1.200679e+00 -1.058510e+00
      vertex 3.201810e+00 -3.845490e-17 -1.058510e+00
    endloop
  endfacet
  facet normal 7.071068e-01 -7.071068e-01 1.100250e-16
    outer loop
      vertex 2.801584e+00 -4.002263e-01 -8.356625e-01
      vertex 3.201810e+00 -3.845490e-17 -1.058510e+00
      vertex 3.201810e+00 -1.116392e-17 -6.128147e-01
    endloop
  endfacet
  facet normal 2.089604e-01 -6.268812e-01 7.505701e-01
    outer loop
      vertex 2.801584e+00 -4.002263e-01 -8.356625e-01
      vertex 3.201810e+00 -1.116392e-17 -6.128147e-01
      vertex 2.001131e+00 -4.002263e-01 -6.128147e-01
    endloop
  endfacet
  facet normal 5.712461e-01 -2.133322e-16 8.207788e-01
    outer loop
      vertex 3.201810e+00 -6.003394e-01 -1.337060e+00
      vertex 2.801584e+00 -1.200679e+00 -1.058510e+00
      vertex 3.602036e+00 -1.200679e+00 -1.615610e+00
    endloop
  endfacet
  facet normal 7.839280e-01 2.613093e-01 5.631823e-01
    outer loop
      vertex 3.201810e+00 -6.003394e-01 -1.337060e+00
      vertex 3.602036e+00 -1.200679e+00 -1.615610e+00
      vertex 3.201810e+00 -7.256740e-17 -1.615610e+00
    endloop
  endfacet
  facet normal 1.000000e+00 -0.000000e+00 0.000000e+00
    outer loop
      vertex 3.201810e+00 -6.003394e-01 -1.337060e+00
      vertex 3.201810e+00 -7.256740e-17 -1.615610e+00
      vertex 3.201810e+00 -3.845490e-17 -1.058510e+00
    endloop
  endfacet
  facet normal 7.839280e-01 -2.613093e-01 5.631823e-01
    outer loop
      vertex 3.201810e+00 -6.003394e-01 -1.337060e+00
      vertex 3.201810e+00 -3.845490e-17 -1.058510e+00
      vertex 2.801584e+00 -1.200679e+00 -1.058510e+00
    endloop
  endfacet
  facet normal 2.590472e-01 2.590472e-01 9.304779e-01
    outer loop
      vertex 3.602036e+00 -4.002263e-01 -1.838458e+00
      vertex 3.602036e+00 -1.200679e+00 -1.615610e+00
      vertex 4.402489e+00 -4.002263e-01 -2.061305e+00
    endloop
  endfacet
  facet normal 2.089604e-01 6.268812e-01 7.505701e-01
    outer loop
      vertex 3.602036e+00 -4.002263e-01 -1.838458e+00
      vertex 4.402489e+00 -4.002263e-01 -2.061305e+00
      vertex 3.201810e+00 -9.985839e-17 -2.061305e+00
    endloop
  endfacet
  facet normal 7.071068e-01 7.071068e-01 0.000000e+00
    outer loop
      vertex 3.602036e+00 -4.002263e-01 -1.838458e+00
      vertex 3.201810e+00 -9.985839e-17 -2.061305e+00
      vertex 3.201810e+00 -7.256740e-17 -1.615610e+00
    endloop
  endfacet
  facet normal 6.268812e-01 2.089604e-01 7.505701e-01
    outer loop
      vertex 3.602036e+00 -4.002263e-01 -1.838458e+00
      vertex 3.201810e+00 -7.256740e-17 -1.615610e+00
      vertex 3.602036e+00 -1.200679e+00 -1.615610e+00
    endloop
  endfacet
  facet normal -2.607394e-16 5.712461e-01 8.207788e-01
    outer loop
      vertex 3.802149e+00 -1.556018e-16 -2.339855e+00
      vertex 4.402489e+00 -4.002263e-01 -2.061305e+00
      vertex 4.402489e+00 4.002262e-01 -2.618405e+00
    endloop
  endfacet
  facet normal -2.613093e-01 7.839280e-01 5.631823e-01
    outer loop
      vertex 3.802149e+00 -1.556018e-16 -2.339855e+00
      vertex 4.402489e+00 4.002262e-01 -2.618405e+00
      vertex 3.201810e+00 -1.339709e-16 -2.618405e+00
    endloop
  endfacet
  facet normal 6.444221e-17 1.000000e+00 -6.123234e-17
    outer loop
      vertex 3.802149e+00 -1.556018e-16 -2.339855e+00
      vertex 3.201810e+00 -1.339709e-16 -2.618405e+00
      vertex 3.201810e+00 -9.985839e-17 -2.061305e+00
    endloop
  endfacet
  facet normal 2.613093e-01 7.839280e-01 5.631823e-01
    outer loop
      vertex 3.802149e+00 -1.556018e-16 -2.339855e+00
      vertex 3.201810e+00 -9.985839e-17 -2.061305e+00
      vertex 4.402489e+00 -4.002263e-01 -2.061305e+00
    endloop
  endfacet
  facet normal -2.590472e-01 2.590472e-01 9.304779e-01
    outer loop
      vertex 3.602036e+00 4.002262e-01 -2.841252e+00
      vertex 4.402489e+00 4.002262e-01 -2.618405e+00
      vertex 3.602036e+00 1.200679e+00 -3.064100e+00
    endloop
  endfacet
  facet normal -6.268812e-01 2.089604e-01 7.505701e-01
    outer loop
      vertex 3.602036e+00 4.002262e-01 -2.841252e+00
      vertex 3.602036e+00 1.200679e+00 -3.064100e+00
      vertex 3.201810e+00 -1.612619e-16 -3.064100e+00
    endloop
  endfacet
  facet normal -7.071068e-01 7.071068e-01 -1.100250e-16
    outer loop
      vertex 3.602036e+00 4.002262e-01 -2.841252e+00
      vertex 3.201810e+00 -1.612619e-16 -3.064100e+00
      vertex 3.201810e+00 -1.339709e-16 -2.618405e+00
    endloop
  endfacet
  facet normal -2.089604e-01 6.268812e-01 7.505701e-01
    outer loop
      vertex 3.602036e+00 4.002262e-01 -2.841252e+00
      vertex 3.201810e+00 -1.339709e-16 -2.618405e+00
      vertex 4.402489e+00 4.002262e-01 -2.618405e+00
    endloop
  endfacet
  facet normal -2.590472e-01 -2.590472e-01 9.304779e-01
    outer loop
      vertex 2.001131e+00 1.200679e+00 1.504192e+00
      vertex 2.001131e+00 4.002263e-01 1.281345e+00
      vertex 2.801584e+00 1.200679e+00 1.727040e+00
    endloop
  endfacet
  facet normal -2.089604e-01 -6.268812e-01 7.505701e-01
    outer loop
      vertex 2.001131e+00 1.200679e+00 1.504192e+00
      vertex 2.801584e+00 1.200679e+00 1.727040e+00
      vertex 1.600905e+00 1.600905e+00 1.727040e+00
    endloop
  endfacet
  facet normal -7.071068e-01 -7.071068e-01 0.000000e+00
    outer loop
      vertex 2.001131e+00 1.200679e+00 1.504192e+00
      vertex 1.600905e+00 1.600905e+00 1.727040e+00
      vertex 1.600905e+00 1.600905e+00 1.281345e+00
    endloop
  endfacet
  facet normal -6.268812e-01 -2.089604e-01 7.505701e-01
    outer loop
      vertex 2.001131e+00 1.200679e+00 1.504192e+00
      vertex 1.600905e+00 1.600905e+00 1.281345e+00
      vertex 2.001131e+00 4.002263e-01 1.281345e+00
    endloop
  endfacet
  facet normal -2.860355e-17 1.378799e-01 9.904490e-01
    outer loop
      vertex 2.201244e+00 1.600905e+00 1.671325e+00
      vertex 2.801584e+00 1.200679e+00 1.727040e+00
      vertex 2.801584e+00 2.001131e+00 1.615610e+00
    endloop
  endfacet
  facet normal -8.905056e-02 2.671517e-01 9.595311e-01
    outer loop
      vertex 2.201244e+00 1.600905e+00 1.671325e+00
      vertex 2.801584e+00 2.001131e+00 1.615610e+00
      vertex 1.600905e+00 1.600905e+00 1.615610e+00
    endloop
  endfacet
  facet normal -3.698651e-16 1.000000e+00 0.000000e+00
    outer loop
      vertex 2.201244e+00 1.600905e+00 1.671325e+00
      vertex 1.600905e+00 1.600905e+00 1.615610e+00
      vertex 1.600905e+00 1.600905e+00 1.727040e+00
    endloop
  endfacet
  facet normal 8.905056e-02 2.671517e-01 9.595311e-01
    outer loop
      vertex 2.201244e+00 1.600905e+00 1.671325e+00
      vertex 1.600905e+00 1.600905e+00 1.727040e+00
      vertex 2.801584e+00 1.200679e+00 1.727040e+00
    endloop
  endfacet
  facet normal 2.590472e-01 -2.590472e-01 9.304779e-01
    outer loop
      vertex 2.001131e+00 2.001131e+00 1.838458e+00
      vertex 2.801584e+00 2.001131e+00 1.615610e+00
      vertex 2.001131e+00 2.801584e+00 2.061305e+00
    endloop
  endfacet
  facet normal 6.268812e-01 -2.089604e-01 7.505701e-01
    outer loop
      vertex 2.001131e+00 2.001131e+00 1.838458e+00
      vertex 2.001131e+00 2.801584e+00 2.061305e+00
      vertex 1.600905e+00 1.600905e+00 2.061305e+00
    endloop
  endfacet
  facet normal 7.071068e-01 -7.071068e-01 0.000000e+00
    outer loop
      vertex 2.001131e+00 2.001131e+00 1.838458e+00
      vertex 1.600905e+00 1.600905e+00 2.061305e+00
      vertex 1.600905e+00 1.600905e+00 1.615610e+00
    endloop
  endfacet
  facet normal 2.089604e-01 -6.268812e-01 7.505701e-01
    outer loop
      vertex 2.001131e+00 2.001131e+00 1.838458e+00
      vertex 1.600905e+00 1.600905e+00 1.615610e+00
      vertex 2.801584e+00 2.001131e+00 1.615610e+00
    endloop
  endfacet
  facet normal -1.378799e-01 -3.146391e-16 9.904490e-01
    outer loop
      vertex 1.600905e+00 2.201244e+00 2.005590e+00
      vertex 2.001131e+00 2.801584e+00 2.061305e+00
      vertex 1.200679e+00 2.801584e+00 1.949875e+00
    endloop
  endfacet
  facet normal -2.671517e-01 -8.905056e-02 9.595311e-01
    outer loop
      vertex 1.600905e+00 2.201244e+00 2.005590e+00
      vertex 1.200679e+00 2.801584e+00 1.949875e+00
      vertex 1.600905e+00 1.600905e+00 1.949875e+00
    endloop
  endfacet
  facet normal -1.000000e+00 3.698651e-16 0.000000e+00
    outer loop
      vertex 1.600905e+00 2.201244e+00 2.005590e+00
      vertex 1.600905e+00 1.600905e+00 1.949875e+00
      vertex 1.600905e+00 1.600905e+00 2.061305e+00
    endloop
  endfacet
  facet normal -2.671517e-01 8.905056e-02 9.595311e-01
    outer loop
      vertex 1.600905e+00 2.201244e+00 2.005590e+00
      vertex 1.600905e+00 1.600905e+00 2.061305e+00
      vertex 2.001131e+00 2.801584e+00 2.061305e+00
    endloop
  endfacet
  facet normal 2.590472e-01 2.590472e-01 9.304779e-01
    outer loop
      vertex 1.200679e+00 2.001131e+00 2.172722e+00
      vertex 1.200679e+00 2.801584e+00 1.949875e+00
      vertex 4.002263e-01 2.001131e+00 2.395570e+00
    endloop
  endfacet
  facet normal 2.089604e-01 6.268812e-01 7.505701e-01
    outer loop
      vertex 1.200679e+00 2.001131e+00 2.172722e+00
      vertex 4.002263e-01 2.001131e+00 2.395570e+00
      vertex 1.600905e+00 1.600905e+00 2.395570e+00
    endloop
  endfacet
  facet normal 7.071068e-01 7.071068e-01 0.000000e+00
    outer loop
      vertex 1.200679e+00 2.001131e+00 2.172722e+00
      vertex 1.600905e+00 1.600905e+00 2.395570e+00
      vertex 1.600905e+00 1.600905e+00 1.949875e+00
    endloop
  endfacet
  facet normal 6.268812e-01 2.089604e-01 7.505701e-01
    outer loop
      vertex 1.200679e+00 2.001131e+00 2.172722e+00
      vertex 1.600905e+00 1.600905e+00 1.949875e+00
      vertex 1.200679e+00 2.801584e+00 1.949875e+00
    endloop
  endfacet
  facet normal -3.932988e-16 -1.378799e-01 9.904490e-01
    outer loop
      vertex 1.000566e+00 1.600905e+00 2.339855e+00
      vertex 4.002263e-01 2.001131e+00 2.395570e+00
      vertex 4.002263e-01 1.200679e+00 2.284140e+00
    endloop
  endfacet
  facet normal 8.905056e-02 -2.671517e-01 9.595311e-01
    outer loop
      vertex 1.000566e+00 1.600905e+00 2.339855e+00
      vertex 4.002263e-01 1.200679e+00 2.284140e+00
      vertex 1.600905e+00 1.600905e+00 2.284140e+00
    endloop
  endfacet
  facet normal -3.698651e-16 -1.000000e+00 0.000000e+00
    outer loop
      vertex 1.000566e+00 1.600905e+00 2.339855e+00
      vertex 1.600905e+00 1.600905e+00 2.284140e+00
      vertex 1.600905e+00 1.600905e+00 2.395570e+00
    endloop
  endfacet
  facet normal -8.905056e-02 -2.671517e-01 9.595311e-01
    outer loop
      vertex 1.000566e+00 1.600905e+00 2.339855e+00
      vertex 1.600905e+00 1.600905e+00 2.395570e+00
      vertex 4.002263e-01 2.001131e+00 2.395570e+00
    endloop
  endfacet
  facet normal -2.590472e-01 2.590472e-01 9.304779e-01
    outer loop
      vertex 1.200679e+00 1.200679e+00 2.506988e+00
      vertex 4.002263e-01 1.200679e+00 2.284140e+00
      vertex 1.200679e+00 4.002263e-01 2.729835e+00
    endloop
  endfacet
  facet normal -6.268812e-01 2.089604e-01 7.505701e-01
    outer loop
      vertex 1.200679e+00 1.200679e+00 2.506988e+00
      vertex 1.200679e+00 4.002263e-01 2.729835e+00
      vertex 1.600905e+00 1.600905e+00 2.729835e+00
    endloop
  endfacet
  facet normal -7.071068e-01 7.071068e-01 0.000000e+00
    outer loop
      vertex 1.200679e+00 1.200679e+00 2.506988e+00
      vertex 1.600905e+00 1.600905e+00 2.729835e+00
      vertex 1.600905e+00 1.600905e+00 2.284140e+00
    endloop
  endfacet
  facet normal -2.089604e-01 6.268812e-01 7.505701e-01
    outer loop
      vertex 1.200679e+00 1.200679e+00 2.506988e+00
      vertex 1.600905e+00 1.600905e+00 2.284140e+00
      vertex 4.002263e-01 1.200679e+00 2.284140e+00
    endloop
  endfacet
  facet normal 2.590472e-01 2.590472e-01 9.304779e-01
    outer loop
      vertex 4.002263e-01 2.801584e+00 8.356625e-01
      vertex 4.002263e-01 2.001131e+00 1.058510e+00
      vertex 1.200679e+00 2.801584e+00 6.128147e-01
    endloop
  endfacet
  facet normal 2.089604e-01 6.268812e-01 7.505701e-01
    outer loop
      vertex 4.002263e-01 2.801584e+00 8.356625e-01
      vertex 1.200679e+00 2.801584e+00 6.128147e-01
      vertex 1.894820e-16 3.201810e+00 6.128147e-01
    endloop
  endfacet
  facet normal 7.071068e-01 7.071068e-01 -1.100250e-16
    outer loop
      vertex 4.002263e-01 2.801584e+00 8.356625e-01
      vertex 1.894820e-16 3.201810e+00 6.128147e-01
      vertex 2.167730e-16 3.201810e+00 1.058510e+00
    endloop
  endfacet
  facet normal 6.268812e-01 2.089604e-01 7.505701e-01
    outer loop
      vertex 4.002263e-01 2.801584e+00 8.356625e-01
      vertex 2.167730e-16 3.201810e+00 1.058510e+00
      vertex 4.002263e-01 2.001131e+00 1.058510e+00
    endloop
  endfacet
  facet normal 7.111075e-17 5.712461e-01 8.207788e-01
    outer loop
      vertex 6.003394e-01 3.201810e+00 3.342650e-01
      vertex 1.200679e+00 2.801584e+00 6.128147e-01
      vertex 1.200679e+00 3.602036e+00 5.571529e-02
    endloop
  endfacet
  facet normal -2.613093e-01 7.839280e-01 5.631823e-01
    outer loop
      vertex 6.003394e-01 3.201810e+00 3.342650e-01
      vertex 1.200679e+00 3.602036e+00 5.571529e-02
      vertex 1.553695e-16 3.201810e+00 5.571529e-02
    endloop
  endfacet
  facet normal 0.000000e+00 1.000000e+00 0.000000e+00
    outer loop
      vertex 6.003394e-01 3.201810e+00 3.342650e-01
      vertex 1.553695e-16 3.201810e+00 5.571529e-02
      vertex 1.894820e-16 3.201810e+00 6.128147e-01
    endloop
  endfacet
  facet normal 2.613093e-01 7.839280e-01 5.631823e-01
    outer loop
      vertex 6.003394e-01 3.201810e+00 3.342650e-01
      vertex 1.894820e-16 3.201810e+00 6.128147e-01
      vertex 1.200679e+00 2.801584e+00 6.128147e-01
    endloop
  endfacet
  facet normal -2.590472e-01 2.590472e-01 9.304779e-01
    outer loop
      vertex 4.002263e-01 3.602036e+00 -1.671325e-01
      vertex 1.200679e+00 3.602036e+00 5.571529e-02
      vertex 4.002263e-01 4.402489e+00 -3.899803e-01
    endloop
  endfacet
  facet normal -6.268812e-01 2.089604e-01 7.505701e-01
    outer loop
      vertex 4.002263e-01 3.602036e+00 -1.671325e-01
      vertex 4.002263e-01 4.402489e+00 -3.899803e-01
      vertex 1.280786e-16 3.201810e+00 -3.899803e-01
    endloop
  endfacet
  facet normal -7.071068e-01 7.071068e-01 1.100250e-16
    outer loop
      vertex 4.002263e-01 3.602036e+00 -1.671325e-01
      vertex 1.280786e-16 3.201810e+00 -3.899803e-01
      vertex 1.553695e-16 3.201810e+00 5.571529e-02
    endloop
  endfacet
  facet normal -2.089604e-01 6.268812e-01 7.505701e-01
    outer loop
      vertex 4.002263e-01 3.602036e+00 -1.671325e-01
      vertex 1.553695e-16 3.201810e+00 5.571529e-02
      vertex 1.200679e+00 3.602036e+00 5.571529e-02
    endloop
  endfacet
  facet normal -5.712461e-01 2.370358e-17 8.207788e-01
    outer loop
      vertex 5.551115e-17 3.802149e+00 -6.685300e-01
      vertex 4.002263e-01 4.402489e+00 -3.899803e-01
      vertex -4.002263e-01 4.402489e+00 -9.470797e-01
    endloop
  endfacet
  facet normal -7.839280e-01 -2.613093e-01 5.631823e-01
    outer loop
      vertex 5.551115e-17 3.802149e+00 -6.685300e-01
      vertex -4.002263e-01 4.402489e+00 -9.470797e-01
      vertex 9.396605e-17 3.201810e+00 -9.470797e-01
    endloop
  endfacet
  facet normal -1.000000e+00 -9.246628e-17 6.123234e-17
    outer loop
      vertex 5.551115e-17 3.802149e+00 -6.685300e-01
      vertex 9.396605e-17 3.201810e+00 -9.470797e-01
      vertex 1.280786e-16 3.201810e+00 -3.899803e-01
    endloop
  endfacet
  facet normal -7.839280e-01 2.613093e-01 5.631823e-01
    outer loop
      vertex 5.551115e-17 3.802149e+00 -6.685300e-01
      vertex 1.280786e-16 3.201810e+00 -3.899803e-01
      vertex 4.002263e-01 4.402489e+00 -3.899803e-01
    endloop
  endfacet
  facet normal -2.590472e-01 -2.590472e-01 9.304779e-01
    outer loop
      vertex -4.002263e-01 3.602036e+00 -1.169928e+00
      vertex -4.002263e-01 4.402489e+00 -9.470797e-01
      vertex -1.200679e+00 3.602036e+00 -1.392775e+00
    endloop
  endfacet
  facet normal -2.089604e-01 -6.268812e-01 7.505701e-01
    outer loop
      vertex -4.002263e-01 3.602036e+00 -1.169928e+00
      vertex -1.200679e+00 3.602036e+00 -1.392775e+00
      vertex 6.667507e-17 3.201810e+00 -1.392775e+00
    endloop
  endfacet
  facet normal -7.071068e-01 -7.071068e-01 1.100250e-16
    outer loop
      vertex -4.002263e-01 3.602036e+00 -1.169928e+00
      vertex 6.667507e-17 3.201810e+00 -1.392775e+00
      vertex 9.396605e-17 3.201810e+00 -9.470797e-01
    endloop
  endfacet
  facet normal -6.268812e-01 -2.089604e-01 7.505701e-01
    outer loop
      vertex -4.002263e-01 3.602036e+00 -1.169928e+00
      vertex 9.396605e-17 3.201810e+00 -9.470797e-01
      vertex -4.002263e-01 4.402489e+00 -9.470797e-01
    endloop
  endfacet
  facet normal 0.000000e+00 -5.712461e-01 8.207788e-01
    outer loop
      vertex -6.003394e-01 3.201810e+00 -1.671325e+00
      vertex -1.200679e+00 3.602036e+00 -1.392775e+00
      vertex -1.200679e+00 2.801584e+00 -1.949875e+00
    endloop
  endfacet
  facet normal 2.613093e-01 -7.839280e-01 5.631823e-01
    outer loop
      vertex -6.003394e-01 3.201810e+00 -1.671325e+00
      vertex -1.200679e+00 2.801584e+00 -1.949875e+00
      vertex 3.256257e-17 3.201810e+00 -1.949875e+00
    endloop
  endfacet
  facet normal 0.000000e+00 -1.000000e+00 0.000000e+00
    outer loop
      vertex -6.003394e-01 3.201810e+00 -1.671325e+00
      vertex 3.256257e-17 3.201810e+00 -1.949875e+00
      vertex 6.667507e-17 3.201810e+00 -1.392775e+00
    endloop
  endfacet
  facet normal -2.613093e-01 -7.839280e-01 5.631823e-01
    outer loop
      vertex -6.003394e-01 3.201810e+00 -1.671325e+00
      vertex 6.667507e-17 3.201810e+00 -1.392775e+00
      vertex -1.200679e+00 3.602036e+00 -1.392775e+00
    endloop
  endfacet
  facet normal 2.590472e-01 -2.590472e-01 9.304779e-01
    outer loop
      vertex -4.002263e-01 2.801584e+00 -2.172722e+00
      vertex -1.200679e+00 2.801584e+00 -1.949875e+00
      vertex -4.002263e-01 2.001131e+00 -2.395570e+00
    endloop
  endfacet
  facet normal 6.268812e-01 -2.089604e-01 7.505701e-01
    outer loop
      vertex -4.002263e-01 2.801584e+00 -2.172722e+00
      vertex -4.002263e-01 2.001131e+00 -2.395570e+00
      vertex 5.271584e-18 3.201810e+00 -2.395570e+00
    endloop
  endfacet
  facet normal 7.071068e-01 -7.071068e-01 -1.100250e-16
    outer loop
      vertex -4.002263e-01 2.801584e+00 -2.172722e+00
      vertex 5.271584e-18 3.201810e+00 -2.395570e+00
      vertex 3.256257e-17 3.201810e+00 -1.949875e+00
    endloop
  endfacet
  facet normal 2.089604e-01 -6.268812e-01 7.505701e-01
    outer loop
      vertex -4.002263e-01 2.801584e+00 -2.172722e+00
      vertex 3.256257e-17 3.201810e+00 -1.949875e+00
      vertex -1.200679e+00 2.801584e+00 -1.949875e+00
    endloop
  endfacet
  facet normal 2.590472e-01 -2.590472e-01 9.304779e-01
    outer loop
      vertex 2.801584e+00 2.801584e+00 5.013975e-01
      vertex 2.001131e+00 2.801584e+00 7.242453e-01
      vertex 2.801584e+00 2.001131e+00 2.785497e-01
    endloop
  endfacet
  facet normal 6.268812e-01 -2.089604e-01 7.505701e-01
    outer loop
      vertex 2.801584e+00 2.801584e+00 5.013975e-01
      vertex 2.801584e+00 2.001131e+00 2.785497e-01
      vertex 3.201810e+00 3.201810e+00 2.785497e-01
    endloop
  endfacet
  facet normal 7.071068e-01 -7.071068e-01 0.000000e+00
    outer loop
      vertex 2.801584e+00 2.801584e+00 5.013975e-01
      vertex 3.201810e+00 3.201810e+00 2.785497e-01
      vertex 3.201810e+00 3.201810e+00 7.242453e-01
    endloop
  endfacet
  facet normal 2.089604e-01 -6.268812e-01 7.505701e-01
    outer loop
      vertex 2.801584e+00 2.801584e+00 5.013975e-01
      vertex 3.201810e+00 3.201810e+00 7.242453e-01
      vertex 2.001131e+00 2.801584e+00 7.242453e-01
    endloop
  endfacet
  facet normal 5.712461e-01 -4.740716e-17 8.207788e-01
    outer loop
      vertex 3.201810e+00 2.601471e+00 -1.387779e-17
      vertex 2.801584e+00 2.001131e+00 2.785497e-01
      vertex 3.602036e+00 2.001131e+00 -2.785497e-01
    endloop
  endfacet
  facet normal 7.839280e-01 2.613093e-01 5.631823e-01
    outer loop
      vertex 3.201810e+00 2.601471e+00 -1.387779e-17
      vertex 3.602036e+00 2.001131e+00 -2.785497e-01
      vertex 3.201810e+00 3.201810e+00 -2.785497e-01
    endloop
  endfacet
  facet normal 1.000000e+00 -0.000000e+00 0.000000e+00
    outer loop
      vertex 3.201810e+00 2.601471e+00 -1.387779e-17
      vertex 3.201810e+00 3.201810e+00 -2.785497e-01
      vertex 3.201810e+00 3.201810e+00 2.785497e-01
    endloop
  endfacet
  facet normal 7.839280e-01 -2.613093e-01 5.631823e-01
    outer loop
      vertex 3.201810e+00 2.601471e+00 -1.387779e-17
      vertex 3.201810e+00 3.201810e+00 2.785497e-01
      vertex 2.801584e+00 2.001131e+00 2.785497e-01
    endloop
  endfacet
  facet normal 2.590472e-01 2.590472e-01 9.304779e-01
    outer loop
      vertex 3.602036e+00 2.801584e+00 -5.013975e-01
      vertex 3.602036e+00 2.001131e+00 -2.785497e-01
      vertex 4.402489e+00 2.801584e+00 -7.242453e-01
    endloop
  endfacet
  facet normal 2.089604e-01 6.268812e-01 7.505701e-01
    outer loop
      vertex 3.602036e+00 2.801584e+00 -5.013975e-01
      vertex 4.402489e+00 2.801584e+00 -7.242453e-01
      vertex 3.201810e+00 3.201810e+00 -7.242453e-01
    endloop
  endfacet
  facet normal 7.071068e-01 7.071068e-01 0.000000e+00
    outer loop
      vertex 3.602036e+00 2.801584e+00 -5.013975e-01
      vertex 3.201810e+00 3.201810e+00 -7.242453e-01
      vertex 3.201810e+00 3.201810e+00 -2.785497e-01
    endloop
  endfacet
  facet normal 6.268812e-01 2.089604e-01 7.505701e-01
    outer loop
      vertex 3.602036e+00 2.801584e+00 -5.013975e-01
      vertex 3.201810e+00 3.201810e+00 -2.785497e-01
      vertex 3.602036e+00 2.001131e+00 -2.785497e-01
    endloop
  endfacet
  facet normal 7.111075e-17 5.712461e-01 8.207788e-01
    outer loop
      vertex 3.802149e+00 3.201810e+00 -1.002795e+00
      vertex 4.402489e+00 2.801584e+00 -7.242453e-01
      vertex 4.402489e+00 3.602036e+00 -1.281345e+00
    endloop
  endfacet
  facet normal -2.613093e-01 7.839280e-01 5.631823e-01
    outer loop
      vertex 3.802149e+00 3.201810e+00 -1.002795e+00
      vertex 4.402489e+00 3.602036e+00 -1.281345e+00
      vertex 3.201810e+00 3.201810e+00 -1.281345e+00
    endloop
  endfacet
  facet normal 0.000000e+00 1.000000e+00 0.000000e+00
    outer loop
      vertex 3.802149e+00 3.201810e+00 -1.002795e+00
      vertex 3.201810e+00 3.201810e+00 -1.281345e+00
      vertex 3.201810e+00 3.201810e+00 -7.242453e-01
    endloop
  endfacet
  facet normal 2.613093e-01 7.839280e-01 5.631823e-01
    outer loop
      vertex 3.802149e+00 3.201810e+00 -1.002795e+00
      vertex 3.201810e+00 3.201810e+00 -7.242453e-01
      vertex 4.402489e+00 2.801584e+00 -7.242453e-01
    endloop
  endfacet
  facet normal -2.590472e-01 2.590472e-01 9.304779e-01
    outer loop
      vertex 3.602036e+00 3.602036e+00 -1.504192e+00
      vertex 4.402489e+00 3.602036e+00 -1.281345e+00
      vertex 3.602036e+00 4.402489e+00 -1.727040e+00
    endloop
  endfacet
  facet normal -6.268812e-01 2.089604e-01 7.505701e-01
    outer loop
      vertex 3.602036e+00 3.602036e+00 -1.504192e+00
      vertex 3.602036e+00 4.402489e+00 -1.727040e+00
      vertex 3.201810e+00 3.201810e+00 -1.727040e+00
    endloop
  endfacet
  facet normal -7.071068e-01 7.071068e-01 0.000000e+00
    outer loop
      vertex 3.602036e+00 3.602036e+00 -1.504192e+00
      vertex 3.201810e+00 3.201810e+00 -1.727040e+00
      vertex 3.201810e+00 3.201810e+00 -1.281345e+00
    endloop
  endfacet
  facet normal -2.089604e-01 6.268812e-01 7.505701e-01
    outer loop
      vertex 3.602036e+00 3.602036e+00 -1.504192e+00
      vertex 3.201810e+00 3.201810e+00 -1.281345e+00
      vertex 4.402489e+00 3.602036e+00 -1.281345e+00
    endloop
  endfacet
  facet normal -5.712461e-01 0.000000e+00 8.207788e-01
    outer loop
      vertex 3.201810e+00 3.802149e+00 -2.005590e+00
      vertex 3.602036e+00 4.402489e+00 -1.727040e+00
      vertex 2.801584e+00 4.402489e+00 -2.284140e+00
    endloop
  endfacet
  facet normal -7.839280e-01 -2.613093e-01 5.631823e-01
    outer loop
      vertex 3.201810e+00 3.802149e+00 -2.005590e+00
      vertex 2.801584e+00 4.402489e+00 -2.284140e+00
      vertex 3.201810e+00 3.201810e+00 -2.284140e+00
    endloop
  endfacet
  facet normal -1.000000e+00 -0.000000e+00 0.000000e+00
    outer loop
      vertex 3.201810e+00 3.802149e+00 -2.005590e+00
      vertex 3.201810e+00 3.201810e+00 -2.284140e+00
      vertex 3.201810e+00 3.201810e+00 -1.727040e+00
    endloop
  endfacet
  facet normal -7.839280e-01 2.613093e-01 5.631823e-01
    outer loop
      vertex 3.201810e+00 3.802149e+00 -2.005590e+00
      vertex 3.201810e+00 3.201810e+00 -1.727040e+00
      vertex 3.602036e+00 4.402489e+00 -1.727040e+00
    endloop
  endfacet
  facet normal -2.590472e-01 -2.590472e-01 9.304779e-01
    outer loop
      vertex 2.801584e+00 3.602036e+00 -2.506987e+00
      vertex 2.801584e+00 4.402489e+00 -2.284140e+00
      vertex 2.001131e+00 3.602036e+00 -2.729835e+00
    endloop
  endfacet
  facet normal -2.089604e-01 -6.268812e-01 7.505701e-01
    outer loop
      vertex 2.801584e+00 3.602036e+00 -2.506987e+00
      vertex 2.001131e+00 3.602036e+00 -2.729835e+00
      vertex 3.201810e+00 3.201810e+00 -2.729835e+00
    endloop
  endfacet
  facet normal -7.071068e-01 -7.071068e-01 0.000000e+00
    outer loop
      vertex 2.801584e+00 3.602036e+00 -2.506987e+00
      vertex 3.201810e+00 3.201810e+00 -2.729835e+00
      vertex 3.201810e+00 3.201810e+00 -2.284140e+00
    endloop
  endfacet
  facet normal -6.268812e-01 -2.089604e-01 7.505701e-01
    outer loop
      vertex 2.801584e+00 3.602036e+00 -2.506987e+00
      vertex 3.201810e+00 3.201810e+00 -2.284140e+00
      vertex 2.801584e+00 4.402489e+00 -2.284140e+00
    endloop
  endfacet
  facet normal 0.000000e+00 5.712461e-01 8.207788e-01
    outer loop
      vertex 1.400792e+00 -1.143173e-16 3.342650e-01
      vertex 1.200679e+00 4.002263e-01 5.571529e-02
      vertex 1.200679e+00 -4.002263e-01 6.128147e-01
    endloop
  endfacet
  facet normal -6.304270e-01 6.304270e-01 4.529056e-01
    outer loop
      vertex 1.400792e+00 -1.143173e-16 3.342650e-01
      vertex 1.200679e+00 -4.002263e-01 6.128147e-01
      vertex 1.600905e+00 -1.005561e-16 6.128147e-01
    endloop
  endfacet
  facet normal 1.646579e-17 1.000000e+00 -6.123234e-17
    outer loop
      vertex 1.400792e+00 -1.143173e-16 3.342650e-01
      vertex 1.600905e+00 -1.005561e-16 6.128147e-01
      vertex 1.600905e+00 -1.346686e-16 5.571529e-02
    endloop
  endfacet
  facet normal 6.304270e-01 6.304270e-01 4.529056e-01
    outer loop
      vertex 1.400792e+00 -1.143173e-16 3.342650e-01
      vertex 1.600905e+00 -1.346686e-16 5.571529e-02
      vertex 1.200679e+00 4.002263e-01 5.571529e-02
    endloop
  endfacet
  facet normal -1.378799e-01 -8.581065e-17 9.904490e-01
    outer loop
      vertex 1.600905e+00 -2.001131e-01 6.685300e-01
      vertex 1.200679e+00 -4.002263e-01 6.128147e-01
      vertex 2.001131e+00 -4.002263e-01 7.242453e-01
    endloop
  endfacet
  facet normal -2.590606e-01 -2.590606e-01 9.304704e-01
    outer loop
      vertex 1.600905e+00 -2.001131e-01 6.685300e-01
      vertex 2.001131e+00 -4.002263e-01 7.242453e-01
      vertex 1.600905e+00 -9.373294e-17 7.242453e-01
    endloop
  endfacet
  facet normal -1.000000e+00 0.000000e+00 0.000000e+00
    outer loop
      vertex 1.600905e+00 -2.001131e-01 6.685300e-01
      vertex 1.600905e+00 -9.373294e-17 7.242453e-01
      vertex 1.600905e+00 -1.005561e-16 6.128147e-01
    endloop
  endfacet
  facet normal -2.590606e-01 2.590606e-01 9.304704e-01
    outer loop
      vertex 1.600905e+00 -2.001131e-01 6.685300e-01
      vertex 1.600905e+00 -1.005561e-16 6.128147e-01
      vertex 1.200679e+00 -4.002263e-01 6.128147e-01
    endloop
  endfacet
  facet normal -3.555537e-16 -5.712461e-01 8.207788e-01
    outer loop
      vertex 1.801018e+00 -7.997171e-17 1.002795e+00
      vertex 2.001131e+00 -4.002263e-01 7.242453e-01
      vertex 2.001131e+00 4.002263e-01 1.281345e+00
    endloop
  endfacet
  facet normal 6.304270e-01 -6.304270e-01 4.529056e-01
    outer loop
      vertex 1.801018e+00 -7.997171e-17 1.002795e+00
      vertex 2.001131e+00 4.002263e-01 1.281345e+00
      vertex 1.600905e+00 -5.962044e-17 1.281345e+00
    endloop
  endfacet
  facet normal -1.646579e-17 -1.000000e+00 6.123234e-17
    outer loop
      vertex 1.801018e+00 -7.997171e-17 1.002795e+00
      vertex 1.600905e+00 -5.962044e-17 1.281345e+00
      vertex 1.600905e+00 -9.373294e-17 7.242453e-01
    endloop
  endfacet
  facet normal -6.304270e-01 -6.304270e-01 4.529056e-01
    outer loop
      vertex 1.801018e+00 -7.997171e-17 1.002795e+00
      vertex 1.600905e+00 -9.373294e-17 7.242453e-01
      vertex 2.001131e+00 -4.002263e-01 7.242453e-01
    endloop
  endfacet
  facet normal -5.712461e-01 -9.481433e-17 8.207788e-01
    outer loop
      vertex -9.458538e-18 6.003394e-01 6.685300e-01
      vertex 4.002263e-01 1.200679e+00 9.470797e-01
      vertex -4.002263e-01 1.200679e+00 3.899803e-01
    endloop
  endfacet
  facet normal -7.839280e-01 -2.613093e-01 5.631823e-01
    outer loop
      vertex -9.458538e-18 6.003394e-01 6.685300e-01
      vertex -4.002263e-01 1.200679e+00 3.899803e-01
      vertex 1.953782e-17 2.647672e-17 3.899803e-01
    endloop
  endfacet
  facet normal -1.000000e+00 -7.671097e-17 6.123234e-17
    outer loop
      vertex -9.458538e-18 6.003394e-01 6.685300e-01
      vertex 1.953782e-17 2.647672e-17 3.899803e-01
      vertex 5.365033e-17 6.058922e-17 9.470797e-01
    endloop
  endfacet
  facet normal -7.839280e-01 2.613093e-01 5.631823e-01
    outer loop
      vertex -9.458538e-18 6.003394e-01 6.685300e-01
      vertex 5.365033e-17 6.058922e-17 9.470797e-01
      vertex 4.002263e-01 1.200679e+00 9.470797e-01
    endloop
  endfacet
  facet normal -2.590472e-01 -2.590472e-01 9.304779e-01
    outer loop
      vertex -4.002263e-01 4.002263e-01 1.671325e-01
      vertex -4.002263e-01 1.200679e+00 3.899803e-01
      vertex -1.200679e+00 4.002263e-01 -5.571529e-02
    endloop
  endfacet
  facet normal -2.089604e-01 -6.268812e-01 7.505701e-01
    outer loop
      vertex -4.002263e-01 4.002263e-01 1.671325e-01
      vertex -1.200679e+00 4.002263e-01 -5.571529e-02
      vertex -7.753159e-18 -8.142646e-19 -5.571529e-02
    endloop
  endfacet
  facet normal -7.071068e-01 -7.071068e-01 0.000000e+00
    outer loop
      vertex -4.002263e-01 4.002263e-01 1.671325e-01
      vertex -7.753159e-18 -8.142646e-19 -5.571529e-02
      vertex 1.953782e-17 2.647672e-17 3.899803e-01
    endloop
  endfacet
  facet normal -6.268812e-01 -2.089604e-01 7.505701e-01
    outer loop
      vertex -4.002263e-01 4.002263e-01 1.671325e-01
      vertex 1.953782e-17 2.647672e-17 3.899803e-01
      vertex -4.002263e-01 1.200679e+00 3.899803e-01
    endloop
  endfacet
  facet normal 4.740716e-17 -5.712461e-01 8.207788e-01
    outer loop
      vertex -6.003394e-01 -6.444641e-17 -3.342650e-01
      vertex -1.200679e+00 4.002263e-01 -5.571529e-02
      vertex -1.200679e+00 -4.002263e-01 -6.128147e-01
    endloop
  endfacet
  facet normal 2.613093e-01 -7.839280e-01 5.631823e-01
    outer loop
      vertex -6.003394e-01 -6.444641e-17 -3.342650e-01
      vertex -1.200679e+00 -4.002263e-01 -6.128147e-01
      vertex -4.186566e-17 -3.492677e-17 -6.128147e-01
    endloop
  endfacet
  facet normal 7.758261e-17 -1.000000e+00 6.123234e-17
    outer loop
      vertex -6.003394e-01 -6.444641e-17 -3.342650e-01
      vertex -4.186566e-17 -3.492677e-17 -6.128147e-01
      vertex -7.753159e-18 -8.142646e-19 -5.571529e-02
    endloop
  endfacet
  facet normal -2.613093e-01 -7.839280e-01 5.631823e-01
    outer loop
      vertex -6.003394e-01 -6.444641e-17 -3.342650e-01
      vertex -7.753159e-18 -8.142646e-19 -5.571529e-02
      vertex -1.200679e+00 4.002263e-01 -5.571529e-02
    endloop
  endfacet
  facet normal 2.590472e-01 -2.590472e-01 9.304779e-01
    outer loop
      vertex -4.002263e-01 -4.002263e-01 -8.356625e-01
      vertex -1.200679e+00 -4.002263e-01 -6.128147e-01
      vertex -4.002263e-01 -1.200679e+00 -1.058510e+00
    endloop
  endfacet
  facet normal 6.268812e-01 -2.089604e-01 7.505701e-01
    outer loop
      vertex -4.002263e-01 -4.002263e-01 -8.356625e-01
      vertex -4.002263e-01 -1.200679e+00 -1.058510e+00
      vertex -6.915664e-17 -6.221775e-17 -1.058510e+00
    endloop
  endfacet
  facet normal 7.071068e-01 -7.071068e-01 0.000000e+00
    outer loop
      vertex -4.002263e-01 -4.002263e-01 -8.356625e-01
      vertex -6.915664e-17 -6.221775e-17 -1.058510e+00
      vertex -4.186566e-17 -3.492677e-17 -6.128147e-01
    endloop
  endfacet
  facet normal 2.089604e-01 -6.268812e-01 7.505701e-01
    outer loop
      vertex -4.002263e-01 -4.002263e-01 -8.356625e-01
      vertex -4.186566e-17 -3.492677e-17 -6.128147e-01
      vertex -1.200679e+00 -4.002263e-01 -6.128147e-01
    endloop
  endfacet
  facet normal 5.712461e-01 -2.370358e-17 8.207788e-01
    outer loop
      vertex -1.402510e-16 -6.003394e-01 -1.337060e+00
      vertex -4.002263e-01 -1.200679e+00 -1.058510e+00
      vertex 4.002262e-01 -1.200679e+00 -1.615610e+00
    endloop
  endfacet
  facet normal 7.839280e-01 2.613093e-01 5.631823e-01
    outer loop
      vertex -1.402510e-16 -6.003394e-01 -1.337060e+00
      vertex 4.002262e-01 -1.200679e+00 -1.615610e+00
      vertex -1.032691e-16 -9.633025e-17 -1.615610e+00
    endloop
  endfacet
  facet normal 1.000000e+00 -9.001253e-17 -6.123234e-17
    outer loop
      vertex -1.402510e-16 -6.003394e-01 -1.337060e+00
      vertex -1.032691e-16 -9.633025e-17 -1.615610e+00
      vertex -6.915664e-17 -6.221775e-17 -1.058510e+00
    endloop
  endfacet
  facet normal 7.839280e-01 -2.613093e-01 5.631823e-01
    outer loop
      vertex -1.402510e-16 -6.003394e-01 -1.337060e+00
      vertex -6.915664e-17 -6.221775e-17 -1.058510e+00
      vertex -4.002263e-01 -1.200679e+00 -1.058510e+00
    endloop
  endfacet
  facet normal 2.590472e-01 2.590472e-01 9.304779e-01
    outer loop
      vertex 4.002262e-01 -4.002263e-01 -1.838458e+00
      vertex 4.002262e-01 -1.200679e+00 -1.615610e+00
      vertex 1.200679e+00 -4.002263e-01 -2.061305e+00
    endloop
  endfacet
  facet normal 2.089604e-01 6.268812e-01 7.505701e-01
    outer loop
      vertex 4.002262e-01 -4.002263e-01 -1.838458e+00
      vertex 1.200679e+00 -4.002263e-01 -2.061305e+00
      vertex -1.305601e-16 -1.236212e-16 -2.061305e+00
    endloop
  endfacet
  facet normal 7.071068e-01 7.071068e-01 0.000000e+00
    outer loop
      vertex 4.002262e-01 -4.002263e-01 -1.838458e+00
      vertex -1.305601e-16 -1.236212e-16 -2.061305e+00
      vertex -1.032691e-16 -9.633025e-17 -1.615610e+00
    endloop
  endfacet
  facet normal 6.268812e-01 2.089604e-01 7.505701e-01
    outer loop
      vertex 4.002262e-01 -4.002263e-01 -1.838458e+00
      vertex -1.032691e-16 -9.633025e-17 -1.615610e+00
      vertex 4.002262e-01 -1.200679e+00 -1.615610e+00
    endloop
  endfacet
  facet normal -2.607394e-16 5.712461e-01 8.207788e-01
    outer loop
      vertex 6.003394e-01 -1.674833e-16 -2.339855e+00
      vertex 1.200679e+00 -4.002263e-01 -2.061305e+00
      vertex 1.200679e+00 4.002262e-01 -2.618405e+00
    endloop
  endfacet
  facet normal -2.613093e-01 7.839280e-01 5.631823e-01
    outer loop
      vertex 6.003394e-01 -1.674833e-16 -2.339855e+00
      vertex 1.200679e+00 4.002262e-01 -2.618405e+00
      vertex -1.646726e-16 -1.577337e-16 -2.618405e+00
    endloop
  endfacet
  facet normal 4.465103e-17 1.000000e+00 -6.123234e-17
    outer loop
      vertex 6.003394e-01 -1.674833e-16 -2.339855e+00
      vertex -1.646726e-16 -1.577337e-16 -2.618405e+00
      vertex -1.305601e-16 -1.236212e-16 -2.061305e+00
    endloop
  endfacet
  facet normal 2.613093e-01 7.839280e-01 5.631823e-01
    outer loop
      vertex 6.003394e-01 -1.674833e-16 -2.339855e+00
      vertex -1.305601e-16 -1.236212e-16 -2.061305e+00
      vertex 1.200679e+00 -4.002263e-01 -2.061305e+00
    endloop
  endfacet
  facet normal 1.659251e-16 -5.712461e-01 8.207788e-01
    outer loop
      vertex 2.601471e+00 -2.333633e-17 1.002795e+00
      vertex 2.001131e+00 4.002263e-01 1.281345e+00
      vertex 2.001131e+00 -4.002263e-01 7.242453e-01
    endloop
  endfacet
  facet normal 2.613093e-01 -7.839280e-01 5.631823e-01
    outer loop
      vertex 2.601471e+00 -2.333633e-17 1.002795e+00
      vertex 2.001131e+00 -4.002263e-01 7.242453e-01
      vertex 3.201810e+00 1.953782e-17 7.242453e-01
    endloop
  endfacet
  facet normal 9.982754e-17 -1.000000e+00 6.123234e-17
    outer loop
      vertex 2.601471e+00 -2.333633e-17 1.002795e+00
      vertex 3.201810e+00 1.953782e-17 7.242453e-01
      vertex 3.201810e+00 5.365033e-17 1.281345e+00
    endloop
  endfacet
  facet normal -2.613093e-01 -7.839280e-01 5.631823e-01
    outer loop
      vertex 2.601471e+00 -2.333633e-17 1.002795e+00
      vertex 3.201810e+00 5.365033e-17 1.281345e+00
      vertex 2.001131e+00 4.002263e-01 1.281345e+00
    endloop
  endfacet
  facet normal 2.590472e-01 -2.590472e-01 9.304779e-01
    outer loop
      vertex 2.801584e+00 -4.002263e-01 5.013975e-01
      vertex 2.001131e+00 -4.002263e-01 7.242453e-01
      vertex 2.801584e+00 -1.200679e+00 2.785497e-01
    endloop
  endfacet
  facet normal 6.268812e-01 -2.089604e-01 7.505701e-01
    outer loop
      vertex 2.801584e+00 -4.002263e-01 5.013975e-01
      vertex 2.801584e+00 -1.200679e+00 2.785497e-01
      vertex 3.201810e+00 -7.753159e-18 2.785497e-01
    endloop
  endfacet
  facet normal 7.071068e-01 -7.071068e-01 0.000000e+00
    outer loop
      vertex 2.801584e+00 -4.002263e-01 5.013975e-01
      vertex 3.201810e+00 -7.753159e-18 2.785497e-01
      vertex 3.201810e+00 1.953782e-17 7.242453e-01
    endloop
  endfacet
  facet normal 2.089604e-01 -6.268812e-01 7.505701e-01
    outer loop
      vertex 2.801584e+00 -4.002263e-01 5.013975e-01
      vertex 3.201810e+00 1.953782e-17 7.242453e-01
      vertex 2.001131e+00 -4.002263e-01 7.242453e-01
    endloop
  endfacet
  facet normal 5.712461e-01 4.740716e-17 8.207788e-01
    outer loop
      vertex 3.201810e+00 -6.003394e-01 -5.551115e-17
      vertex 2.801584e+00 -1.200679e+00 2.785497e-01
      vertex 3.602036e+00 -1.200679e+00 -2.785497e-01
    endloop
  endfacet
  facet normal 7.839280e-01 2.613093e-01 5.631823e-01
    outer loop
      vertex 3.201810e+00 -6.003394e-01 -5.551115e-17
      vertex 3.602036e+00 -1.200679e+00 -2.785497e-01
      vertex 3.201810e+00 -4.186566e-17 -2.785497e-01
    endloop
  endfacet
  facet normal 1.000000e+00 -0.000000e+00 0.000000e+00
    outer loop
      vertex 3.201810e+00 -6.003394e-01 -5.551115e-17
      vertex 3.201810e+00 -4.186566e-17 -2.785497e-01
      vertex 3.201810e+00 -7.753159e-18 2.785497e-01
    endloop
  endfacet
  facet normal 7.839280e-01 -2.613093e-01 5.631823e-01
    outer loop
      vertex 3.201810e+00 -6.003394e-01 -5.551115e-17
      vertex 3.201810e+00 -7.753159e-18 2.785497e-01
      vertex 2.801584e+00 -1.200679e+00 2.785497e-01
    endloop
  endfacet
  facet normal 2.590472e-01 2.590472e-01 9.304779e-01
    outer loop
      vertex 3.602036e+00 -4.002263e-01 -5.013975e-01
      vertex 3.602036e+00 -1.200679e+00 -2.785497e-01
      vertex 4.402489e+00 -4.002263e-01 -7.242453e-01
    endloop
  endfacet
  facet normal 2.089604e-01 6.268812e-01 7.505701e-01
    outer loop
      vertex 3.602036e+00 -4.002263e-01 -5.013975e-01
      vertex 4.402489e+00 -4.002263e-01 -7.242453e-01
      vertex 3.201810e+00 -6.915664e-17 -7.242453e-01
    endloop
  endfacet
  facet normal 7.071068e-01 7.071068e-01 0.000000e+00
    outer loop
      vertex 3.602036e+00 -4.002263e-01 -5.013975e-01
      vertex 3.201810e+00 -6.915664e-17 -7.242453e-01
      vertex 3.201810e+00 -4.186566e-17 -2.785497e-01
    endloop
  endfacet
  facet normal 6.268812e-01 2.089604e-01 7.505701e-01
    outer loop
      vertex 3.602036e+00 -4.002263e-01 -5.013975e-01
      vertex 3.201810e+00 -4.186566e-17 -2.785497e-01
      vertex 3.602036e+00 -1.200679e+00 -2.785497e-01
    endloop
  endfacet
  facet normal 1.185179e-16 5.712461e-01 8.207788e-01
    outer loop
      vertex 3.802149e+00 -1.124954e-16 -1.002795e+00
      vertex 4.402489e+00 -4.002263e-01 -7.242453e-01
      vertex 4.402489e+00 4.002262e-01 -1.281345e+00
    endloop
  endfacet
  facet normal -2.613093e-01 7.839280e-01 5.631823e-01
    outer loop
      vertex 3.802149e+00 -1.124954e-16 -1.002795e+00
      vertex 4.402489e+00 4.002262e-01 -1.281345e+00
      vertex 3.201810e+00 -1.032691e-16 -1.281345e+00
    endloop
  endfacet
  facet normal 4.377939e-17 1.000000e+00 -6.123234e-17
    outer loop
      vertex 3.802149e+00 -1.124954e-16 -1.002795e+00
      vertex 3.201810e+00 -1.032691e-16 -1.281345e+00
      vertex 3.201810e+00 -6.915664e-17 -7.242453e-01
    endloop
  endfacet
  facet normal 2.613093e-01 7.839280e-01 5.631823e-01
    outer loop
      vertex 3.802149e+00 -1.124954e-16 -1.002795e+00
      vertex 3.201810e+00 -6.915664e-17 -7.242453e-01
      vertex 4.402489e+00 -4.002263e-01 -7.242453e-01
    endloop
  endfacet
  facet normal -2.590472e-01 2.590472e-01 9.304779e-01
    outer loop
      vertex 3.602036e+00 4.002262e-01 -1.504192e+00
      vertex 4.402489e+00 4.002262e-01 -1.281345e+00
      vertex 3.602036e+00 1.200679e+00 -1.727040e+00
    endloop
  endfacet
  facet normal -6.268812e-01 2.089604e-01 7.505701e-01
    outer loop
      vertex 3.602036e+00 4.002262e-01 -1.504192e+00
      vertex 3.602036e+00 1.200679e+00 -1.727040e+00
      vertex 3.201810e+00 -1.305601e-16 -1.727040e+00
    endloop
  endfacet
  facet normal -7.071068e-01 7.071068e-01 0.000000e+00
    outer loop
      vertex 3.602036e+00 4.002262e-01 -1.504192e+00
      vertex 3.201810e+00 -1.305601e-16 -1.727040e+00
      vertex 3.201810e+00 -1.032691e-16 -1.281345e+00
    endloop
  endfacet
  facet normal -2.089604e-01 6.268812e-01 7.505701e-01
    outer loop
      vertex 3.602036e+00 4.002262e-01 -1.504192e+00
      vertex 3.201810e+00 -1.032691e-16 -1.281345e+00
      vertex 4.402489e+00 4.002262e-01 -1.281345e+00
    endloop
  endfacet
  facet normal -5.712461e-01 0.000000e+00 8.207788e-01
    outer loop
      vertex 3.201810e+00 6.003394e-01 -2.005590e+00
      vertex 3.602036e+00 1.200679e+00 -1.727040e+00
      vertex 2.801584e+00 1.200679e+00 -2.284140e+00
    endloop
  endfacet
  facet normal -7.839280e-01 -2.613093e-01 5.631823e-01
    outer loop
      vertex 3.201810e+00 6.003394e-01 -2.005590e+00
      vertex 2.801584e+00 1.200679e+00 -2.284140e+00
      vertex 3.201810e+00 -1.646726e-16 -2.284140e+00
    endloop
  endfacet
  facet normal -1.000000e+00 -0.000000e+00 0.000000e+00
    outer loop
      vertex 3.201810e+00 6.003394e-01 -2.005590e+00
      vertex 3.201810e+00 -1.646726e-16 -2.284140e+00
      vertex 3.201810e+00 -1.305601e-16 -1.727040e+00
    endloop
  endfacet
  facet normal -7.839280e-01 2.613093e-01 5.631823e-01
    outer loop
      vertex 3.201810e+00 6.003394e-01 -2.005590e+00
      vertex 3.201810e+00 -1.305601e-16 -1.727040e+00
      vertex 3.602036e+00 1.200679e+00 -1.727040e+00
    endloop
  endfacet
endsolid surface_model
