solid surface_model
  facet normal -5.803312e-01 -4.836093e-01 -6.552387e-01
    outer loop
      vertex 1.663585e+00 8.317925e-01 7.367012e-01
      vertex 9.506057e-01 3.564730e-01 1.718989e+00
      vertex 7.129793e-01 1.307112e+00 1.227816e+00
    endloop
  endfacet
  facet normal -4.835230e-01 -8.703142e-01 -9.358787e-02
    outer loop
      vertex 1.663585e+00 8.317925e-01 7.367012e-01
      vertex 7.129793e-01 1.307112e+00 1.227816e+00
      vertex 4.753195e-01 1.544772e+00 2.455867e-01
    endloop
  endfacet
  facet normal -3.128535e-01 -8.342093e-01 -4.541118e-01
    outer loop
      vertex 1.663585e+00 8.317925e-01 7.367012e-01
      vertex 4.753195e-01 1.544772e+00 2.455867e-01
      vertex 1.188265e+00 1.544772e+00 -2.455867e-01
    endloop
  endfacet
  facet normal 4.836093e-01 -5.803312e-01 -6.552387e-01
    outer loop
      vertex 1.663585e+00 8.317925e-01 7.367012e-01
      vertex 1.188265e+00 1.544772e+00 -2.455867e-01
      vertex 2.138905e+00 1.782398e+00 2.455867e-01
    endloop
  endfacet
  facet normal 8.703142e-01 -4.835230e-01 -9.358787e-02
    outer loop
      vertex 1.663585e+00 8.317925e-01 7.367012e-01
      vertex 2.138905e+00 1.782398e+00 2.455867e-01
      vertex 2.376564e+00 2.020058e+00 1.227816e+00
    endloop
  endfacet
  facet normal 8.342093e-01 -3.128535e-01 -4.541118e-01
    outer loop
      vertex 1.663585e+00 8.317925e-01 7.367012e-01
      vertex 2.376564e+00 2.020058e+00 1.227816e+00
      vertex 2.376564e+00 1.307112e+00 1.718989e+00
    endloop
  endfacet
  facet normal 5.803312e-01 4.836093e-01 -6.552387e-01
    outer loop
      vertex 1.663585e+00 8.317925e-01 7.367012e-01
      vertex 2.376564e+00 1.307112e+00 1.718989e+00
      vertex 2.614191e+00 3.564730e-01 1.227816e+00
    endloop
  endfacet
  facet normal 4.835230e-01 8.703142e-01 -9.358787e-02
    outer loop
      vertex 1.663585e+00 8.317925e-01 7.367012e-01
      vertex 2.614191e+00 3.564730e-01 1.227816e+00
      vertex 2.851850e+00 1.188132e-01 2.455867e-01
    endloop
  endfacet
  facet normal 3.128535e-01 8.342093e-01 -4.541118e-01
    outer loop
      vertex 1.663585e+00 8.317925e-01 7.367012e-01
      vertex 2.851850e+00 1.188132e-01 2.455867e-01
      vertex 2.138905e+00 1.188132e-01 -2.455867e-01
    endloop
  endfacet
  facet normal -4.836093e-01 5.803312e-01 -6.552387e-01
    outer loop
      vertex 1.663585e+00 8.317925e-01 7.367012e-01
      vertex 2.138905e+00 1.188132e-01 -2.455867e-01
      vertex 1.188265e+00 -1.188132e-01 2.455867e-01
    endloop
  endfacet
  facet normal -8.703142e-01 4.835230e-01 -9.358787e-02
    outer loop
      vertex 1.663585e+00 8.317925e-01 7.367012e-01
      vertex 1.188265e+00 -1.188132e-01 2.455867e-01
      vertex 9.506057e-01 -3.564730e-01 1.227816e+00
    endloop
  endfacet
  facet normal -8.342093e-01 3.128535e-01 -4.541118e-01
    outer loop
      vertex 1.663585e+00 8.317925e-01 7.367012e-01
      vertex 9.506057e-01 -3.564730e-01 1.227816e+00
      vertex 9.506057e-01 3.564730e-01 1.718989e+00
    endloop
  endfacet
  facet normal -5.803312e-01 -4.836093e-01 -6.552387e-01
    outer loop
      vertex 1.202742e-16 8.317925e-01 2.210104e+00
      vertex 7.129793e-01 1.307112e+00 1.227816e+00
      vertex 9.506057e-01 3.564730e-01 1.718989e+00
    endloop
  endfacet
  facet normal -4.835230e-01 -8.703142e-01 -9.358787e-02
    outer loop
      vertex 1.202742e-16 8.317925e-01 2.210104e+00
      vertex 9.506057e-01 3.564730e-01 1.718989e+00
      vertex 1.188265e+00 1.188132e-01 2.701218e+00
    endloop
  endfacet
  facet normal -3.128535e-01 -8.342093e-01 -4.541118e-01
    outer loop
      vertex 1.202742e-16 8.317925e-01 2.210104e+00
      vertex 1.188265e+00 1.188132e-01 2.701218e+00
      vertex 4.753195e-01 1.188132e-01 3.192392e+00
    endloop
  endfacet
  facet normal 4.836093e-01 -5.803312e-01 -6.552387e-01
    outer loop
      vertex 1.202742e-16 8.317925e-01 2.210104e+00
      vertex 4.753195e-01 1.188132e-01 3.192392e+00
      vertex -4.753195e-01 -1.188132e-01 2.701218e+00
    endloop
  endfacet
  facet normal 8.703142e-01 -4.835230e-01 -9.358787e-02
    outer loop
      vertex 1.202742e-16 8.317925e-01 2.210104e+00
      vertex -4.753195e-01 -1.188132e-01 2.701218e+00
      vertex -7.129793e-01 -3.564730e-01 1.718989e+00
    endloop
  endfacet
  facet normal 8.342093e-01 -3.128535e-01 -4.541118e-01
    outer loop
      vertex 1.202742e-16 8.317925e-01 2.210104e+00
      vertex -7.129793e-01 -3.564730e-01 1.718989e+00
      vertex -7.129793e-01 3.564730e-01 1.227816e+00
    endloop
  endfacet
  facet normal 5.803312e-01 4.836093e-01 -6.552387e-01
    outer loop
      vertex 1.202742e-16 8.317925e-01 2.210104e+00
      vertex -7.129793e-01 3.564730e-01 1.227816e+00
      vertex -9.506057e-01 1.307112e+00 1.718989e+00
    endloop
  endfacet
  facet normal 4.835230e-01 8.703142e-01 -9.358787e-02
    outer loop
      vertex 1.202742e-16 8.317925e-01 2.210104e+00
      vertex -9.506057e-01 1.307112e+00 1.718989e+00
      vertex -1.188265e+00 1.544772e+00 2.701218e+00
    endloop
  endfacet
  facet normal 3.128535e-01 8.342093e-01 -4.541118e-01
    outer loop
      vertex 1.202742e-16 8.317925e-01 2.210104e+00
      vertex -1.188265e+00 1.544772e+00 2.701218e+00
      vertex -4.753195e-01 1.544772e+00 3.192392e+00
    endloop
  endfacet
  facet normal -4.836093e-01 5.803312e-01 -6.552387e-01
    outer loop
      vertex 1.202742e-16 8.317925e-01 2.210104e+00
      vertex -4.753195e-01 1.544772e+00 3.192392e+00
      vertex 4.753195e-01 1.782398e+00 2.701218e+00
    endloop
  endfacet
  facet normal -8.703142e-01 4.835230e-01 -9.358787e-02
    outer loop
      vertex 1.202742e-16 8.317925e-01 2.210104e+00
      vertex 4.753195e-01 1.782398e+00 2.701218e+00
      vertex 7.129793e-01 2.020058e+00 1.718989e+00
    endloop
  endfacet
  facet normal -8.342093e-01 3.128535e-01 -4.541118e-01
    outer loop
      vertex 1.202742e-16 8.317925e-01 2.210104e+00
      vertex 7.129793e-01 2.020058e+00 1.718989e+00
      vertex 7.129793e-01 1.307112e+00 1.227816e+00
    endloop
  endfacet
  facet normal -4.836093e-01 -5.803312e-01 6.552387e-01
    outer loop
      vertex 5.551115e-17 8.317925e-01 -7.367013e-01
      vertex 4.753195e-01 1.544772e+00 2.455867e-01
      vertex -4.753195e-01 1.782398e+00 -2.455867e-01
    endloop
  endfacet
  facet normal -8.703142e-01 -4.835230e-01 9.358787e-02
    outer loop
      vertex 5.551115e-17 8.317925e-01 -7.367013e-01
      vertex -4.753195e-01 1.782398e+00 -2.455867e-01
      vertex -7.129793e-01 2.020058e+00 -1.227816e+00
    endloop
  endfacet
  facet normal -8.342093e-01 -3.128535e-01 4.541118e-01
    outer loop
      vertex 5.551115e-17 8.317925e-01 -7.367013e-01
      vertex -7.129793e-01 2.020058e+00 -1.227816e+00
      vertex -7.129793e-01 1.307112e+00 -1.718989e+00
    endloop
  endfacet
  facet normal -5.803312e-01 4.836093e-01 6.552387e-01
    outer loop
      vertex 5.551115e-17 8.317925e-01 -7.367013e-01
      vertex -7.129793e-01 1.307112e+00 -1.718989e+00
      vertex -9.506057e-01 3.564730e-01 -1.227816e+00
    endloop
  endfacet
  facet normal -4.835230e-01 8.703142e-01 9.358787e-02
    outer loop
      vertex 5.551115e-17 8.317925e-01 -7.367013e-01
      vertex -9.506057e-01 3.564730e-01 -1.227816e+00
      vertex -1.188265e+00 1.188132e-01 -2.455867e-01
    endloop
  endfacet
  facet normal -3.128535e-01 8.342093e-01 4.541118e-01
    outer loop
      vertex 5.551115e-17 8.317925e-01 -7.367013e-01
      vertex -1.188265e+00 1.188132e-01 -2.455867e-01
      vertex -4.753195e-01 1.188132e-01 2.455867e-01
    endloop
  endfacet
  facet normal 4.836093e-01 5.803312e-01 6.552387e-01
    outer loop
      vertex 5.551115e-17 8.317925e-01 -7.367013e-01
      vertex -4.753195e-01 1.188132e-01 2.455867e-01
      vertex 4.753195e-01 -1.188132e-01 -2.455867e-01
    endloop
  endfacet
  facet normal 8.703142e-01 4.835230e-01 9.358787e-02
    outer loop
      vertex 5.551115e-17 8.317925e-01 -7.367013e-01
      vertex 4.753195e-01 -1.188132e-01 -2.455867e-01
      vertex 7.129793e-01 -3.564730e-01 -1.227816e+00
    endloop
  endfacet
  facet normal 8.342093e-01 3.128535e-01 4.541118e-01
    outer loop
      vertex 5.551115e-17 8.317925e-01 -7.367013e-01
      vertex 7.129793e-01 -3.564730e-01 -1.227816e+00
      vertex 7.129793e-01 3.564730e-01 -1.718989e+00
    endloop
  endfacet
  facet normal 5.803312e-01 -4.836093e-01 6.552387e-01
    outer loop
      vertex 5.551115e-17 8.317925e-01 -7.367013e-01
      vertex 7.129793e-01 3.564730e-01 -1.718989e+00
      vertex 9.506057e-01 1.307112e+00 -1.227816e+00
    endloop
  endfacet
  facet normal 4.835230e-01 -8.703142e-01 9.358787e-02
    outer loop
      vertex 5.551115e-17 8.317925e-01 -7.367013e-01
      vertex 9.506057e-01 1.307112e+00 -1.227816e+00
      vertex 1.188265e+00 1.544772e+00 -2.455867e-01
    endloop
  endfacet
  facet normal 3.128535e-01 -8.342093e-01 4.541118e-01
    outer loop
      vertex 5.551115e-17 8.317925e-01 -7.367013e-01
      vertex 1.188265e+00 1.544772e+00 -2.455867e-01
      vertex 4.753195e-01 1.544772e+00 2.455867e-01
    endloop
  endfacet
  facet normal -4.836093e-01 -5.803312e-01 6.552387e-01
    outer loop
      vertex 3.327170e+00 2.495378e+00 6.630311e+00
      vertex 2.851850e+00 1.782398e+00 5.648023e+00
      vertex 3.802490e+00 1.544772e+00 6.139197e+00
    endloop
  endfacet
  facet normal -8.703142e-01 -4.835230e-01 9.358787e-02
    outer loop
      vertex 3.327170e+00 2.495378e+00 6.630311e+00
      vertex 3.802490e+00 1.544772e+00 6.139197e+00
      vertex 4.040149e+00 1.307112e+00 7.121426e+00
    endloop
  endfacet
  facet normal -8.342093e-01 -3.128535e-01 4.541118e-01
    outer loop
      vertex 3.327170e+00 2.495378e+00 6.630311e+00
      vertex 4.040149e+00 1.307112e+00 7.121426e+00
      vertex 4.040149e+00 2.020058e+00 7.612599e+00
    endloop
  endfacet
  facet normal -5.803312e-01 4.836093e-01 6.552387e-01
    outer loop
      vertex 3.327170e+00 2.495378e+00 6.630311e+00
      vertex 4.040149e+00 2.020058e+00 7.612599e+00
      vertex 4.277776e+00 2.970697e+00 7.121426e+00
    endloop
  endfacet
  facet normal -4.835230e-01 8.703142e-01 9.358787e-02
    outer loop
      vertex 3.327170e+00 2.495378e+00 6.630311e+00
      vertex 4.277776e+00 2.970697e+00 7.121426e+00
      vertex 4.515435e+00 3.208357e+00 6.139197e+00
    endloop
  endfacet
  facet normal -3.128535e-01 8.342093e-01 4.541118e-01
    outer loop
      vertex 3.327170e+00 2.495378e+00 6.630311e+00
      vertex 4.515435e+00 3.208357e+00 6.139197e+00
      vertex 3.802490e+00 3.208357e+00 5.648023e+00
    endloop
  endfacet
  facet normal 4.836093e-01 5.803312e-01 6.552387e-01
    outer loop
      vertex 3.327170e+00 2.495378e+00 6.630311e+00
      vertex 3.802490e+00 3.208357e+00 5.648023e+00
      vertex 2.851850e+00 3.445983e+00 6.139197e+00
    endloop
  endfacet
  facet normal 8.703142e-01 4.835230e-01 9.358787e-02
    outer loop
      vertex 3.327170e+00 2.495378e+00 6.630311e+00
      vertex 2.851850e+00 3.445983e+00 6.139197e+00
      vertex 2.614191e+00 3.683643e+00 7.121426e+00
    endloop
  endfacet
  facet normal 8.342093e-01 3.128535e-01 4.541118e-01
    outer loop
      vertex 3.327170e+00 2.495378e+00 6.630311e+00
      vertex 2.614191e+00 3.683643e+00 7.121426e+00
      vertex 2.614191e+00 2.970697e+00 7.612599e+00
    endloop
  endfacet
  facet normal 5.803312e-01 -4.836093e-01 6.552387e-01
    outer loop
      vertex 3.327170e+00 2.495378e+00 6.630311e+00
      vertex 2.614191e+00 2.970697e+00 7.612599e+00
      vertex 2.376564e+00 2.020058e+00 7.121426e+00
    endloop
  endfacet
  facet normal 4.835230e-01 -8.703142e-01 9.358787e-02
    outer loop
      vertex 3.327170e+00 2.495378e+00 6.630311e+00
      vertex 2.376564e+00 2.020058e+00 7.121426e+00
      vertex 2.138905e+00 1.782398e+00 6.139197e+00
    endloop
  endfacet
  facet normal 3.128535e-01 -8.342093e-01 4.541118e-01
    outer loop
      vertex 3.327170e+00 2.495378e+00 6.630311e+00
      vertex 2.138905e+00 1.782398e+00 6.139197e+00
      vertex 2.851850e+00 1.782398e+00 5.648023e+00
    endloop
  endfacet
  facet normal 4.836093e-01 -5.803312e-01 -6.552387e-01
    outer loop
      vertex 3.327170e+00 2.495378e+00 3.683506e+00
      vertex 2.851850e+00 3.208357e+00 2.701218e+00
      vertex 3.802490e+00 3.445983e+00 3.192392e+00
    endloop
  endfacet
  facet normal 8.703142e-01 -4.835230e-01 -9.358787e-02
    outer loop
      vertex 3.327170e+00 2.495378e+00 3.683506e+00
      vertex 3.802490e+00 3.445983e+00 3.192392e+00
      vertex 4.040149e+00 3.683643e+00 4.174621e+00
    endloop
  endfacet
  facet normal 8.342093e-01 -3.128535e-01 -4.541118e-01
    outer loop
      vertex 3.327170e+00 2.495378e+00 3.683506e+00
      vertex 4.040149e+00 3.683643e+00 4.174621e+00
      vertex 4.040149e+00 2.970697e+00 4.665794e+00
    endloop
  endfacet
  facet normal 5.803312e-01 4.836093e-01 -6.552387e-01
    outer loop
      vertex 3.327170e+00 2.495378e+00 3.683506e+00
      vertex 4.040149e+00 2.970697e+00 4.665794e+00
      vertex 4.277776e+00 2.020058e+00 4.174621e+00
    endloop
  endfacet
  facet normal 4.835230e-01 8.703142e-01 -9.358787e-02
    outer loop
      vertex 3.327170e+00 2.495378e+00 3.683506e+00
      vertex 4.277776e+00 2.020058e+00 4.174621e+00
      vertex 4.515435e+00 1.782398e+00 3.192392e+00
    endloop
  endfacet
  facet normal 3.128535e-01 8.342093e-01 -4.541118e-01
    outer loop
      vertex 3.327170e+00 2.495378e+00 3.683506e+00
      vertex 4.515435e+00 1.782398e+00 3.192392e+00
      vertex 3.802490e+00 1.782398e+00 2.701218e+00
    endloop
  endfacet
  facet normal -4.836093e-01 5.803312e-01 -6.552387e-01
    outer loop
      vertex 3.327170e+00 2.495378e+00 3.683506e+00
      vertex 3.802490e+00 1.782398e+00 2.701218e+00
      vertex 2.851850e+00 1.544772e+00 3.192392e+00
    endloop
  endfacet
  facet normal -8.703142e-01 4.835230e-01 -9.358787e-02
    outer loop
      vertex 3.327170e+00 2.495378e+00 3.683506e+00
      vertex 2.851850e+00 1.544772e+00 3.192392e+00
      vertex 2.614191e+00 1.307112e+00 4.174621e+00
    endloop
  endfacet
  facet normal -8.342093e-01 3.128535e-01 -4.541118e-01
    outer loop
      vertex 3.327170e+00 2.495378e+00 3.683506e+00
      vertex 2.614191e+00 1.307112e+00 4.174621e+00
      vertex 2.614191e+00 2.020058e+00 4.665794e+00
    endloop
  endfacet
  facet normal -5.803312e-01 -4.836093e-01 -6.552387e-01
    outer loop
      vertex 3.327170e+00 2.495378e+00 3.683506e+00
      vertex 2.614191e+00 2.020058e+00 4.665794e+00
      vertex 2.376564e+00 2.970697e+00 4.174621e+00
    endloop
  endfacet
  facet normal -4.835230e-01 -8.703142e-01 -9.358787e-02
    outer loop
      vertex 3.327170e+00 2.495378e+00 3.683506e+00
      vertex 2.376564e+00 2.970697e+00 4.174621e+00
      vertex 2.138905e+00 3.208357e+00 3.192392e+00
    endloop
  endfacet
  facet normal -3.128535e-01 -8.342093e-01 -4.541118e-01
    outer loop
      vertex 3.327170e+00 2.495378e+00 3.683506e+00
      vertex 2.138905e+00 3.208357e+00 3.192392e+00
      vertex 2.851850e+00 3.208357e+00 2.701218e+00
    endloop
  endfacet
  facet normal -4.836093e-01 -5.803312e-01 6.552387e-01
    outer loop
      vertex 1.663585e+00 8.317925e-01 3.683506e+00
      vertex 1.188265e+00 1.188132e-01 2.701218e+00
      vertex 2.138905e+00 -1.188132e-01 3.192392e+00
    endloop
  endfacet
  facet normal -8.703142e-01 -4.835230e-01 9.358787e-02
    outer loop
      vertex 1.663585e+00 8.317925e-01 3.683506e+00
      vertex 2.138905e+00 -1.188132e-01 3.192392e+00
      vertex 2.376564e+00 -3.564730e-01 4.174621e+00
    endloop
  endfacet
  facet normal -8.342093e-01 -3.128535e-01 4.541118e-01
    outer loop
      vertex 1.663585e+00 8.317925e-01 3.683506e+00
      vertex 2.376564e+00 -3.564730e-01 4.174621e+00
      vertex 2.376564e+00 3.564730e-01 4.665794e+00
    endloop
  endfacet
  facet normal -5.803312e-01 4.836093e-01 6.552387e-01
    outer loop
      vertex 1.663585e+00 8.317925e-01 3.683506e+00
      vertex 2.376564e+00 3.564730e-01 4.665794e+00
      vertex 2.614191e+00 1.307112e+00 4.174621e+00
    endloop
  endfacet
  facet normal -4.835230e-01 8.703142e-01 9.358787e-02
    outer loop
      vertex 1.663585e+00 8.317925e-01 3.683506e+00
      vertex 2.614191e+00 1.307112e+00 4.174621e+00
      vertex 2.851850e+00 1.544772e+00 3.192392e+00
    endloop
  endfacet
  facet normal -3.128535e-01 8.342093e-01 4.541118e-01
    outer loop
      vertex 1.663585e+00 8.317925e-01 3.683506e+00
      vertex 2.851850e+00 1.544772e+00 3.192392e+00
      vertex 2.138905e+00 1.544772e+00 2.701218e+00
    endloop
  endfacet
  facet normal 4.836093e-01 5.803312e-01 6.552387e-01
    outer loop
      vertex 1.663585e+00 8.317925e-01 3.683506e+00
      vertex 2.138905e+00 1.544772e+00 2.701218e+00
      vertex 1.188265e+00 1.782398e+00 3.192392e+00
    endloop
  endfacet
  facet normal 8.703142e-01 4.835230e-01 9.358787e-02
    outer loop
      vertex 1.663585e+00 8.317925e-01 3.683506e+00
      vertex 1.188265e+00 1.782398e+00 3.192392e+00
      vertex 9.506057e-01 2.020058e+00 4.174621e+00
    endloop
  endfacet
  facet normal 8.342093e-01 3.128535e-01 4.541118e-01
    outer loop
      vertex 1.663585e+00 8.317925e-01 3.683506e+00
      vertex 9.506057e-01 2.020058e+00 4.174621e+00
      vertex 9.506057e-01 1.307112e+00 4.665794e+00
    endloop
  endfacet
  facet normal 5.803312e-01 -4.836093e-01 6.552387e-01
    outer loop
      vertex 1.663585e+00 8.317925e-01 3.683506e+00
      vertex 9.506057e-01 1.307112e+00 4.665794e+00
      vertex 7.129793e-01 3.564730e-01 4.174621e+00
    endloop
  endfacet
  facet normal 4.835230e-01 -8.703142e-01 9.358787e-02
    outer loop
      vertex 1.663585e+00 8.317925e-01 3.683506e+00
      vertex 7.129793e-01 3.564730e-01 4.174621e+00
      vertex 4.753195e-01 1.188132e-01 3.192392e+00
    endloop
  endfacet
  facet normal 3.128535e-01 -8.342093e-01 4.541118e-01
    outer loop
      vertex 1.663585e+00 8.317925e-01 3.683506e+00
      vertex 4.753195e-01 1.188132e-01 3.192392e+00
      vertex 1.188265e+00 1.188132e-01 2.701218e+00
    endloop
  endfacet
  facet normal -4.836093e-01 -5.803312e-01 6.552387e-01
    outer loop
      vertex 1.663585e+00 2.495378e+00 2.210104e+00
      vertex 2.138905e+00 3.208357e+00 3.192392e+00
      vertex 1.188265e+00 3.445983e+00 2.701218e+00
    endloop
  endfacet
  facet normal -8.703142e-01 -4.835230e-01 9.358787e-02
    outer loop
      vertex 1.663585e+00 2.495378e+00 2.210104e+00
      vertex 1.188265e+00 3.445983e+00 2.701218e+00
      vertex 9.506057e-01 3.683643e+00 1.718989e+00
    endloop
  endfacet
  facet normal -8.342093e-01 -3.128535e-01 4.541118e-01
    outer loop
      vertex 1.663585e+00 2.495378e+00 2.210104e+00
      vertex 9.506057e-01 3.683643e+00 1.718989e+00
      vertex 9.506057e-01 2.970697e+00 1.227816e+00
    endloop
  endfacet
  facet normal -5.803312e-01 4.836093e-01 6.552387e-01
    outer loop
      vertex 1.663585e+00 2.495378e+00 2.210104e+00
      vertex 9.506057e-01 2.970697e+00 1.227816e+00
      vertex 7.129793e-01 2.020058e+00 1.718989e+00
    endloop
  endfacet
  facet normal -4.835230e-01 8.703142e-01 9.358787e-02
    outer loop
      vertex 1.663585e+00 2.495378e+00 2.210104e+00
      vertex 7.129793e-01 2.020058e+00 1.718989e+00
      vertex 4.753195e-01 1.782398e+00 2.701218e+00
    endloop
  endfacet
  facet normal -3.128535e-01 8.342093e-01 4.541118e-01
    outer loop
      vertex 1.663585e+00 2.495378e+00 2.210104e+00
      vertex 4.753195e-01 1.782398e+00 2.701218e+00
      vertex 1.188265e+00 1.782398e+00 3.192392e+00
    endloop
  endfacet
  facet normal 4.836093e-01 5.803312e-01 6.552387e-01
    outer loop
      vertex 1.663585e+00 2.495378e+00 2.210104e+00
      vertex 1.188265e+00 1.782398e+00 3.192392e+00
      vertex 2.138905e+00 1.544772e+00 2.701218e+00
    endloop
  endfacet
  facet normal 8.703142e-01 4.835230e-01 9.358787e-02
    outer loop
      vertex 1.663585e+00 2.495378e+00 2.210104e+00
      vertex 2.138905e+00 1.544772e+00 2.701218e+00
      vertex 2.376564e+00 1.307112e+00 1.718989e+00
    endloop
  endfacet
  facet normal 8.342093e-01 3.128535e-01 4.541118e-01
    outer loop
      vertex 1.663585e+00 2.495378e+00 2.210104e+00
      vertex 2.376564e+00 1.307112e+00 1.718989e+00
      vertex 2.376564e+00 2.020058e+00 1.227816e+00
    endloop
  endfacet
  facet normal 5.803312e-01 -4.836093e-01 6.552387e-01
    outer loop
      vertex 1.663585e+00 2.495378e+00 2.210104e+00
      vertex 2.376564e+00 2.020058e+00 1.227816e+00
      vertex 2.614191e+00 2.970697e+00 1.718989e+00
    endloop
  endfacet
  facet normal 4.835230e-01 -8.703142e-01 9.358787e-02
    outer loop
      vertex 1.663585e+00 2.495378e+00 2.210104e+00
      vertex 2.614191e+00 2.970697e+00 1.718989e+00
      vertex 2.851850e+00 3.208357e+00 2.701218e+00
    endloop
  endfacet
  facet normal 3.128535e-01 -8.342093e-01 4.541118e-01
    outer loop
      vertex 1.663585e+00 2.495378e+00 2.210104e+00
      vertex 2.851850e+00 3.208357e+00 2.701218e+00
      vertex 2.138905e+00 3.208357e+00 3.192392e+00
    endloop
  endfacet
  facet normal -5.803312e-01 4.836093e-01 6.552387e-01
    outer loop
      vertex 1.480297e-16 2.495378e+00 7.367012e-01
      vertex 7.129793e-01 2.020058e+00 1.718989e+00
      vertex 9.506057e-01 2.970697e+00 1.227816e+00
    endloop
  endfacet
  facet normal -4.835230e-01 8.703142e-01 9.358787e-02
    outer loop
      vertex 1.480297e-16 2.495378e+00 7.367012e-01
      vertex 9.506057e-01 2.970697e+00 1.227816e+00
      vertex 1.188265e+00 3.208357e+00 2.455867e-01
    endloop
  endfacet
  facet normal -3.128535e-01 8.342093e-01 4.541118e-01
    outer loop
      vertex 1.480297e-16 2.495378e+00 7.367012e-01
      vertex 1.188265e+00 3.208357e+00 2.455867e-01
      vertex 4.753195e-01 3.208357e+00 -2.455867e-01
    endloop
  endfacet
  facet normal 4.836093e-01 5.803312e-01 6.552387e-01
    outer loop
      vertex 1.480297e-16 2.495378e+00 7.367012e-01
      vertex 4.753195e-01 3.208357e+00 -2.455867e-01
      vertex -4.753195e-01 3.445983e+00 2.455867e-01
    endloop
  endfacet
  facet normal 8.703142e-01 4.835230e-01 9.358787e-02
    outer loop
      vertex 1.480297e-16 2.495378e+00 7.367012e-01
      vertex -4.753195e-01 3.445983e+00 2.455867e-01
      vertex -7.129793e-01 3.683643e+00 1.227816e+00
    endloop
  endfacet
  facet normal 8.342093e-01 3.128535e-01 4.541118e-01
    outer loop
      vertex 1.480297e-16 2.495378e+00 7.367012e-01
      vertex -7.129793e-01 3.683643e+00 1.227816e+00
      vertex -7.129793e-01 2.970697e+00 1.718989e+00
    endloop
  endfacet
  facet normal 5.803312e-01 -4.836093e-01 6.552387e-01
    outer loop
      vertex 1.480297e-16 2.495378e+00 7.367012e-01
      vertex -7.129793e-01 2.970697e+00 1.718989e+00
      vertex -9.506057e-01 2.020058e+00 1.227816e+00
    endloop
  endfacet
  facet normal 4.835230e-01 -8.703142e-01 9.358787e-02
    outer loop
      vertex 1.480297e-16 2.495378e+00 7.367012e-01
      vertex -9.506057e-01 2.020058e+00 1.227816e+00
      vertex -1.188265e+00 1.782398e+00 2.455867e-01
    endloop
  endfacet
  facet normal 3.128535e-01 -8.342093e-01 4.541118e-01
    outer loop
      vertex 1.480297e-16 2.495378e+00 7.367012e-01
      vertex -1.188265e+00 1.782398e+00 2.455867e-01
      vertex -4.753195e-01 1.782398e+00 -2.455867e-01
    endloop
  endfacet
  facet normal -4.836093e-01 -5.803312e-01 6.552387e-01
    outer loop
      vertex 1.480297e-16 2.495378e+00 7.367012e-01
      vertex -4.753195e-01 1.782398e+00 -2.455867e-01
      vertex 4.753195e-01 1.544772e+00 2.455867e-01
    endloop
  endfacet
  facet normal -8.703142e-01 -4.835230e-01 9.358787e-02
    outer loop
      vertex 1.480297e-16 2.495378e+00 7.367012e-01
      vertex 4.753195e-01 1.544772e+00 2.455867e-01
      vertex 7.129793e-01 1.307112e+00 1.227816e+00
    endloop
  endfacet
  facet normal -8.342093e-01 -3.128535e-01 4.541118e-01
    outer loop
      vertex 1.480297e-16 2.495378e+00 7.367012e-01
      vertex 7.129793e-01 1.307112e+00 1.227816e+00
      vertex 7.129793e-01 2.020058e+00 1.718989e+00
    endloop
  endfacet
  facet normal -4.836093e-01 5.803312e-01 -6.552387e-01
    outer loop
      vertex 3.700743e-16 2.495378e+00 3.683506e+00
      vertex 4.753195e-01 1.782398e+00 2.701218e+00
      vertex -4.753195e-01 1.544772e+00 3.192392e+00
    endloop
  endfacet
  facet normal -8.703142e-01 4.835230e-01 -9.358787e-02
    outer loop
      vertex 3.700743e-16 2.495378e+00 3.683506e+00
      vertex -4.753195e-01 1.544772e+00 3.192392e+00
      vertex -7.129793e-01 1.307112e+00 4.174621e+00
    endloop
  endfacet
  facet normal -8.342093e-01 3.128535e-01 -4.541118e-01
    outer loop
      vertex 3.700743e-16 2.495378e+00 3.683506e+00
      vertex -7.129793e-01 1.307112e+00 4.174621e+00
      vertex -7.129793e-01 2.020058e+00 4.665794e+00
    endloop
  endfacet
  facet normal -5.803312e-01 -4.836093e-01 -6.552387e-01
    outer loop
      vertex 3.700743e-16 2.495378e+00 3.683506e+00
      vertex -7.129793e-01 2.020058e+00 4.665794e+00
      vertex -9.506057e-01 2.970697e+00 4.174621e+00
    endloop
  endfacet
  facet normal -4.835230e-01 -8.703142e-01 -9.358787e-02
    outer loop
      vertex 3.700743e-16 2.495378e+00 3.683506e+00
      vertex -9.506057e-01 2.970697e+00 4.174621e+00
      vertex -1.188265e+00 3.208357e+00 3.192392e+00
    endloop
  endfacet
  facet normal -3.128535e-01 -8.342093e-01 -4.541118e-01
    outer loop
      vertex 3.700743e-16 2.495378e+00 3.683506e+00
      vertex -1.188265e+00 3.208357e+00 3.192392e+00
      vertex -4.753195e-01 3.208357e+00 2.701218e+00
    endloop
  endfacet
  facet normal 4.836093e-01 -5.803312e-01 -6.552387e-01
    outer loop
      vertex 3.700743e-16 2.495378e+00 3.683506e+00
      vertex -4.753195e-01 3.208357e+00 2.701218e+00
      vertex 4.753195e-01 3.445983e+00 3.192392e+00
    endloop
  endfacet
  facet normal 8.703142e-01 -4.835230e-01 -9.358787e-02
    outer loop
      vertex 3.700743e-16 2.495378e+00 3.683506e+00
      vertex 4.753195e-01 3.445983e+00 3.192392e+00
      vertex 7.129793e-01 3.683643e+00 4.174621e+00
    endloop
  endfacet
  facet normal 8.342093e-01 -3.128535e-01 -4.541118e-01
    outer loop
      vertex 3.700743e-16 2.495378e+00 3.683506e+00
      vertex 7.129793e-01 3.683643e+00 4.174621e+00
      vertex 7.129793e-01 2.970697e+00 4.665794e+00
    endloop
  endfacet
  facet normal 5.803312e-01 4.836093e-01 -6.552387e-01
    outer loop
      vertex 3.700743e-16 2.495378e+00 3.683506e+00
      vertex 7.129793e-01 2.970697e+00 4.665794e+00
      vertex 9.506057e-01 2.020058e+00 4.174621e+00
    endloop
  endfacet
  facet normal 4.835230e-01 8.703142e-01 -9.358787e-02
    outer loop
      vertex 3.700743e-16 2.495378e+00 3.683506e+00
      vertex 9.506057e-01 2.020058e+00 4.174621e+00
      vertex 1.188265e+00 1.782398e+00 3.192392e+00
    endloop
  endfacet
  facet normal 3.128535e-01 8.342093e-01 -4.541118e-01
    outer loop
      vertex 3.700743e-16 2.495378e+00 3.683506e+00
      vertex 1.188265e+00 1.782398e+00 3.192392e+00
      vertex 4.753195e-01 1.782398e+00 2.701218e+00
    endloop
  endfacet
  facet normal -4.836093e-01 5.803312e-01 -6.552387e-01
    outer loop
      vertex 3.327170e+00 8.317925e-01 2.210104e+00
      vertex 2.851850e+00 1.544772e+00 3.192392e+00
      vertex 3.802490e+00 1.782398e+00 2.701218e+00
    endloop
  endfacet
  facet normal -8.703142e-01 4.835230e-01 -9.358787e-02
    outer loop
      vertex 3.327170e+00 8.317925e-01 2.210104e+00
      vertex 3.802490e+00 1.782398e+00 2.701218e+00
      vertex 4.040149e+00 2.020058e+00 1.718989e+00
    endloop
  endfacet
  facet normal -8.342093e-01 3.128535e-01 -4.541118e-01
    outer loop
      vertex 3.327170e+00 8.317925e-01 2.210104e+00
      vertex 4.040149e+00 2.020058e+00 1.718989e+00
      vertex 4.040149e+00 1.307112e+00 1.227816e+00
    endloop
  endfacet
  facet normal -5.803312e-01 -4.836093e-01 -6.552387e-01
    outer loop
      vertex 3.327170e+00 8.317925e-01 2.210104e+00
      vertex 4.040149e+00 1.307112e+00 1.227816e+00
      vertex 4.277776e+00 3.564730e-01 1.718989e+00
    endloop
  endfacet
  facet normal -4.835230e-01 -8.703142e-01 -9.358787e-02
    outer loop
      vertex 3.327170e+00 8.317925e-01 2.210104e+00
      vertex 4.277776e+00 3.564730e-01 1.718989e+00
      vertex 4.515435e+00 1.188132e-01 2.701218e+00
    endloop
  endfacet
  facet normal -3.128535e-01 -8.342093e-01 -4.541118e-01
    outer loop
      vertex 3.327170e+00 8.317925e-01 2.210104e+00
      vertex 4.515435e+00 1.188132e-01 2.701218e+00
      vertex 3.802490e+00 1.188132e-01 3.192392e+00
    endloop
  endfacet
  facet normal 4.836093e-01 -5.803312e-01 -6.552387e-01
    outer loop
      vertex 3.327170e+00 8.317925e-01 2.210104e+00
      vertex 3.802490e+00 1.188132e-01 3.192392e+00
      vertex 2.851850e+00 -1.188132e-01 2.701218e+00
    endloop
  endfacet
  facet normal 8.703142e-01 -4.835230e-01 -9.358787e-02
    outer loop
      vertex 3.327170e+00 8.317925e-01 2.210104e+00
      vertex 2.851850e+00 -1.188132e-01 2.701218e+00
      vertex 2.614191e+00 -3.564730e-01 1.718989e+00
    endloop
  endfacet
  facet normal 8.342093e-01 -3.128535e-01 -4.541118e-01
    outer loop
      vertex 3.327170e+00 8.317925e-01 2.210104e+00
      vertex 2.614191e+00 -3.564730e-01 1.718989e+00
      vertex 2.614191e+00 3.564730e-01 1.227816e+00
    endloop
  endfacet
  facet normal 5.803312e-01 4.836093e-01 -6.552387e-01
    outer loop
      vertex 3.327170e+00 8.317925e-01 2.210104e+00
      vertex 2.614191e+00 3.564730e-01 1.227816e+00
      vertex 2.376564e+00 1.307112e+00 1.718989e+00
    endloop
  endfacet
  facet normal 4.835230e-01 8.703142e-01 -9.358787e-02
    outer loop
      vertex 3.327170e+00 8.317925e-01 2.210104e+00
      vertex 2.376564e+00 1.307112e+00 1.718989e+00
      vertex 2.138905e+00 1.544772e+00 2.701218e+00
    endloop
  endfacet
  facet normal 3.128535e-01 8.342093e-01 -4.541118e-01
    outer loop
      vertex 3.327170e+00 8.317925e-01 2.210104e+00
      vertex 2.138905e+00 1.544772e+00 2.701218e+00
      vertex 2.851850e+00 1.544772e+00 3.192392e+00
    endloop
  endfacet
  facet normal 5.803312e-01 -4.836093e-01 6.552387e-01
    outer loop
      vertex 4.718448e-16 8.317925e-01 5.156909e+00
      vertex 7.129793e-01 3.564730e-01 4.174621e+00
      vertex 9.506057e-01 1.307112e+00 4.665794e+00
    endloop
  endfacet
  facet normal 4.835230e-01 -8.703142e-01 9.358787e-02
    outer loop
      vertex 4.718448e-16 8.317925e-01 5.156909e+00
      vertex 9.506057e-01 1.307112e+00 4.665794e+00
      vertex 1.188265e+00 1.544772e+00 5.648023e+00
    endloop
  endfacet
  facet normal 3.128535e-01 -8.342093e-01 4.541118e-01
    outer loop
      vertex 4.718448e-16 8.317925e-01 5.156909e+00
      vertex 1.188265e+00 1.544772e+00 5.648023e+00
      vertex 4.753195e-01 1.544772e+00 6.139197e+00
    endloop
  endfacet
  facet normal -4.836093e-01 -5.803312e-01 6.552387e-01
    outer loop
      vertex 4.718448e-16 8.317925e-01 5.156909e+00
      vertex 4.753195e-01 1.544772e+00 6.139197e+00
      vertex -4.753195e-01 1.782398e+00 5.648023e+00
    endloop
  endfacet
  facet normal -8.703142e-01 -4.835230e-01 9.358787e-02
    outer loop
      vertex 4.718448e-16 8.317925e-01 5.156909e+00
      vertex -4.753195e-01 1.782398e+00 5.648023e+00
      vertex -7.129793e-01 2.020058e+00 4.665794e+00
    endloop
  endfacet
  facet normal -8.342093e-01 -3.128535e-01 4.541118e-01
    outer loop
      vertex 4.718448e-16 8.317925e-01 5.156909e+00
      vertex -7.129793e-01 2.020058e+00 4.665794e+00
      vertex -7.129793e-01 1.307112e+00 4.174621e+00
    endloop
  endfacet
  facet normal -5.803312e-01 4.836093e-01 6.552387e-01
    outer loop
      vertex 4.718448e-16 8.317925e-01 5.156909e+00
      vertex -7.129793e-01 1.307112e+00 4.174621e+00
      vertex -9.506057e-01 3.564730e-01 4.665794e+00
    endloop
  endfacet
  facet normal -4.835230e-01 8.703142e-01 9.358787e-02
    outer loop
      vertex 4.718448e-16 8.317925e-01 5.156909e+00
      vertex -9.506057e-01 3.564730e-01 4.665794e+00
      vertex -1.188265e+00 1.188132e-01 5.648023e+00
    endloop
  endfacet
  facet normal -3.128535e-01 8.342093e-01 4.541118e-01
    outer loop
      vertex 4.718448e-16 8.317925e-01 5.156909e+00
      vertex -1.188265e+00 1.188132e-01 5.648023e+00
      vertex -4.753195e-01 1.188132e-01 6.139197e+00
    endloop
  endfacet
  facet normal 4.836093e-01 5.803312e-01 6.552387e-01
    outer loop
      vertex 4.718448e-16 8.317925e-01 5.156909e+00
      vertex -4.753195e-01 1.188132e-01 6.139197e+00
      vertex 4.753195e-01 -1.188132e-01 5.648023e+00
    endloop
  endfacet
  facet normal 8.703142e-01 4.835230e-01 9.358787e-02
    outer loop
      vertex 4.718448e-16 8.317925e-01 5.156909e+00
      vertex 4.753195e-01 -1.188132e-01 5.648023e+00
      vertex 7.129793e-01 -3.564730e-01 4.665794e+00
    endloop
  endfacet
  facet normal 8.342093e-01 3.128535e-01 4.541118e-01
    outer loop
      vertex 4.718448e-16 8.317925e-01 5.156909e+00
      vertex 7.129793e-01 -3.564730e-01 4.665794e+00
      vertex 7.129793e-01 3.564730e-01 4.174621e+00
    endloop
  endfacet
  facet normal 4.836093e-01 -5.803312e-01 -6.552387e-01
    outer loop
      vertex 1.663585e+00 2.495377e+00 -7.367013e-01
      vertex 2.138905e+00 1.782398e+00 2.455867e-01
      vertex 1.188265e+00 1.544772e+00 -2.455867e-01
    endloop
  endfacet
  facet normal 8.703142e-01 -4.835230e-01 -9.358787e-02
    outer loop
      vertex 1.663585e+00 2.495377e+00 -7.367013e-01
      vertex 1.188265e+00 1.544772e+00 -2.455867e-01
      vertex 9.506057e-01 1.307112e+00 -1.227816e+00
    endloop
  endfacet
  facet normal 8.342093e-01 -3.128535e-01 -4.541118e-01
    outer loop
      vertex 1.663585e+00 2.495377e+00 -7.367013e-01
      vertex 9.506057e-01 1.307112e+00 -1.227816e+00
      vertex 9.506057e-01 2.020058e+00 -1.718989e+00
    endloop
  endfacet
  facet normal 5.803312e-01 4.836093e-01 -6.552387e-01
    outer loop
      vertex 1.663585e+00 2.495377e+00 -7.367013e-01
      vertex 9.506057e-01 2.020058e+00 -1.718989e+00
      vertex 7.129793e-01 2.970697e+00 -1.227816e+00
    endloop
  endfacet
  facet normal 4.835230e-01 8.703142e-01 -9.358787e-02
    outer loop
      vertex 1.663585e+00 2.495377e+00 -7.367013e-01
      vertex 7.129793e-01 2.970697e+00 -1.227816e+00
      vertex 4.753195e-01 3.208357e+00 -2.455867e-01
    endloop
  endfacet
  facet normal 3.128535e-01 8.342093e-01 -4.541118e-01
    outer loop
      vertex 1.663585e+00 2.495377e+00 -7.367013e-01
      vertex 4.753195e-01 3.208357e+00 -2.455867e-01
      vertex 1.188265e+00 3.208357e+00 2.455867e-01
    endloop
  endfacet
  facet normal -4.836093e-01 5.803312e-01 -6.552387e-01
    outer loop
      vertex 1.663585e+00 2.495377e+00 -7.367013e-01
      vertex 1.188265e+00 3.208357e+00 2.455867e-01
      vertex 2.138905e+00 3.445983e+00 -2.455867e-01
    endloop
  endfacet
  facet normal -8.703142e-01 4.835230e-01 -9.358787e-02
    outer loop
      vertex 1.663585e+00 2.495377e+00 -7.367013e-01
      vertex 2.138905e+00 3.445983e+00 -2.455867e-01
      vertex 2.376564e+00 3.683643e+00 -1.227816e+00
    endloop
  endfacet
  facet normal -8.342093e-01 3.128535e-01 -4.541118e-01
    outer loop
      vertex 1.663585e+00 2.495377e+00 -7.367013e-01
      vertex 2.376564e+00 3.683643e+00 -1.227816e+00
      vertex 2.376564e+00 2.970697e+00 -1.718989e+00
    endloop
  endfacet
  facet normal -5.803312e-01 -4.836093e-01 -6.552387e-01
    outer loop
      vertex 1.663585e+00 2.495377e+00 -7.367013e-01
      vertex 2.376564e+00 2.970697e+00 -1.718989e+00
      vertex 2.614191e+00 2.020058e+00 -1.227816e+00
    endloop
  endfacet
  facet normal -4.835230e-01 -8.703142e-01 -9.358787e-02
    outer loop
      vertex 1.663585e+00 2.495377e+00 -7.367013e-01
      vertex 2.614191e+00 2.020058e+00 -1.227816e+00
      vertex 2.851850e+00 1.782398e+00 -2.455867e-01
    endloop
  endfacet
  facet normal -3.128535e-01 -8.342093e-01 -4.541118e-01
    outer loop
      vertex 1.663585e+00 2.495377e+00 -7.367013e-01
      vertex 2.851850e+00 1.782398e+00 -2.455867e-01
      vertex 2.138905e+00 1.782398e+00 2.455867e-01
    endloop
  endfacet
  facet normal 4.836093e-01 -5.803312e-01 -6.552387e-01
    outer loop
      vertex 1.663585e+00 8.317925e-01 6.630311e+00
      vertex 1.188265e+00 1.544772e+00 5.648023e+00
      vertex 2.138905e+00 1.782398e+00 6.139197e+00
    endloop
  endfacet
  facet normal 8.703142e-01 -4.835230e-01 -9.358787e-02
    outer loop
      vertex 1.663585e+00 8.317925e-01 6.630311e+00
      vertex 2.138905e+00 1.782398e+00 6.139197e+00
      vertex 2.376564e+00 2.020058e+00 7.121426e+00
    endloop
  endfacet
  facet normal 8.342093e-01 -3.128535e-01 -4.541118e-01
    outer loop
      vertex 1.663585e+00 8.317925e-01 6.630311e+00
      vertex 2.376564e+00 2.020058e+00 7.121426e+00
      vertex 2.376564e+00 1.307112e+00 7.612599e+00
    endloop
  endfacet
  facet normal 5.803312e-01 4.836093e-01 -6.552387e-01
    outer loop
      vertex 1.663585e+00 8.317925e-01 6.630311e+00
      vertex 2.376564e+00 1.307112e+00 7.612599e+00
      vertex 2.614191e+00 3.564730e-01 7.121426e+00
    endloop
  endfacet
  facet normal 4.835230e-01 8.703142e-01 -9.358787e-02
    outer loop
      vertex 1.663585e+00 8.317925e-01 6.630311e+00
      vertex 2.614191e+00 3.564730e-01 7.121426e+00
      vertex 2.851850e+00 1.188132e-01 6.139197e+00
    endloop
  endfacet
  facet normal 3.128535e-01 8.342093e-01 -4.541118e-01
    outer loop
      vertex 1.663585e+00 8.317925e-01 6.630311e+00
      vertex 2.851850e+00 1.188132e-01 6.139197e+00
      vertex 2.138905e+00 1.188132e-01 5.648023e+00
    endloop
  endfacet
  facet normal -4.836093e-01 5.803312e-01 -6.552387e-01
    outer loop
      vertex 1.663585e+00 8.317925e-01 6.630311e+00
      vertex 2.138905e+00 1.188132e-01 5.648023e+00
      vertex 1.188265e+00 -1.188132e-01 6.139197e+00
    endloop
  endfacet
  facet normal -8.703142e-01 4.835230e-01 -9.358787e-02
    outer loop
      vertex 1.663585e+00 8.317925e-01 6.630311e+00
      vertex 1.188265e+00 -1.188132e-01 6.139197e+00
      vertex 9.506057e-01 -3.564730e-01 7.121426e+00
    endloop
  endfacet
  facet normal -8.342093e-01 3.128535e-01 -4.541118e-01
    outer loop
      vertex 1.663585e+00 8.317925e-01 6.630311e+00
      vertex 9.506057e-01 -3.564730e-01 7.121426e+00
      vertex 9.506057e-01 3.564730e-01 7.612599e+00
    endloop
  endfacet
  facet normal -5.803312e-01 -4.836093e-01 -6.552387e-01
    outer loop
      vertex 1.663585e+00 8.317925e-01 6.630311e+00
      vertex 9.506057e-01 3.564730e-01 7.612599e+00
      vertex 7.129793e-01 1.307112e+00 7.121426e+00
    endloop
  endfacet
  facet normal -4.835230e-01 -8.703142e-01 -9.358787e-02
    outer loop
      vertex 1.663585e+00 8.317925e-01 6.630311e+00
      vertex 7.129793e-01 1.307112e+00 7.121426e+00
      vertex 4.753195e-01 1.544772e+00 6.139197e+00
    endloop
  endfacet
  facet normal -3.128535e-01 -8.342093e-01 -4.541118e-01
    outer loop
      vertex 1.663585e+00 8.317925e-01 6.630311e+00
      vertex 4.753195e-01 1.544772e+00 6.139197e+00
      vertex 1.188265e+00 1.544772e+00 5.648023e+00
    endloop
  endfacet
  facet normal 4.836093e-01 5.803312e-01 6.552387e-01
    outer loop
      vertex 3.327170e+00 8.317925e-01 -7.367013e-01
      vertex 2.851850e+00 1.188132e-01 2.455867e-01
      vertex 3.802490e+00 -1.188132e-01 -2.455867e-01
    endloop
  endfacet
  facet normal 8.703142e-01 4.835230e-01 9.358787e-02
    outer loop
      vertex 3.327170e+00 8.317925e-01 -7.367013e-01
      vertex 3.802490e+00 -1.188132e-01 -2.455867e-01
      vertex 4.040149e+00 -3.564730e-01 -1.227816e+00
    endloop
  endfacet
  facet normal 8.342093e-01 3.128535e-01 4.541118e-01
    outer loop
      vertex 3.327170e+00 8.317925e-01 -7.367013e-01
      vertex 4.040149e+00 -3.564730e-01 -1.227816e+00
      vertex 4.040149e+00 3.564730e-01 -1.718989e+00
    endloop
  endfacet
  facet normal 5.803312e-01 -4.836093e-01 6.552387e-01
    outer loop
      vertex 3.327170e+00 8.317925e-01 -7.367013e-01
      vertex 4.040149e+00 3.564730e-01 -1.718989e+00
      vertex 4.277776e+00 1.307112e+00 -1.227816e+00
    endloop
  endfacet
  facet normal 4.835230e-01 -8.703142e-01 9.358787e-02
    outer loop
      vertex 3.327170e+00 8.317925e-01 -7.367013e-01
      vertex 4.277776e+00 1.307112e+00 -1.227816e+00
      vertex 4.515435e+00 1.544772e+00 -2.455867e-01
    endloop
  endfacet
  facet normal 3.128535e-01 -8.342093e-01 4.541118e-01
    outer loop
      vertex 3.327170e+00 8.317925e-01 -7.367013e-01
      vertex 4.515435e+00 1.544772e+00 -2.455867e-01
      vertex 3.802490e+00 1.544772e+00 2.455867e-01
    endloop
  endfacet
  facet normal -4.836093e-01 -5.803312e-01 6.552387e-01
    outer loop
      vertex 3.327170e+00 8.317925e-01 -7.367013e-01
      vertex 3.802490e+00 1.544772e+00 2.455867e-01
      vertex 2.851850e+00 1.782398e+00 -2.455867e-01
    endloop
  endfacet
  facet normal -8.703142e-01 -4.835230e-01 9.358787e-02
    outer loop
      vertex 3.327170e+00 8.317925e-01 -7.367013e-01
      vertex 2.851850e+00 1.782398e+00 -2.455867e-01
      vertex 2.614191e+00 2.020058e+00 -1.227816e+00
    endloop
  endfacet
  facet normal -8.342093e-01 -3.128535e-01 4.541118e-01
    outer loop
      vertex 3.327170e+00 8.317925e-01 -7.367013e-01
      vertex 2.614191e+00 2.020058e+00 -1.227816e+00
      vertex 2.614191e+00 1.307112e+00 -1.718989e+00
    endloop
  endfacet
  facet normal -5.803312e-01 4.836093e-01 6.552387e-01
    outer loop
      vertex 3.327170e+00 8.317925e-01 -7.367013e-01
      vertex 2.614191e+00 1.307112e+00 -1.718989e+00
      vertex 2.376564e+00 3.564730e-01 -1.227816e+00
    endloop
  endfacet
  facet normal -4.835230e-01 8.703142e-01 9.358787e-02
    outer loop
      vertex 3.327170e+00 8.317925e-01 -7.367013e-01
      vertex 2.376564e+00 3.564730e-01 -1.227816e+00
      vertex 2.138905e+00 1.188132e-01 -2.455867e-01
    endloop
  endfacet
  facet normal -3.128535e-01 8.342093e-01 4.541118e-01
    outer loop
      vertex 3.327170e+00 8.317925e-01 -7.367013e-01
      vertex 2.138905e+00 1.188132e-01 -2.455867e-01
      vertex 2.851850e+00 1.188132e-01 2.455867e-01
    endloop
  endfacet
  facet normal 4.836093e-01 5.803312e-01 6.552387e-01
    outer loop
      vertex 5.921189e-16 2.495378e+00 6.630311e+00
      vertex 4.753195e-01 3.208357e+00 5.648023e+00
      vertex -4.753195e-01 3.445983e+00 6.139197e+00
    endloop
  endfacet
  facet normal 8.703142e-01 4.835230e-01 9.358787e-02
    outer loop
      vertex 5.921189e-16 2.495378e+00 6.630311e+00
      vertex -4.753195e-01 3.445983e+00 6.139197e+00
      vertex -7.129793e-01 3.683643e+00 7.121426e+00
    endloop
  endfacet
  facet normal 8.342093e-01 3.128535e-01 4.541118e-01
    outer loop
      vertex 5.921189e-16 2.495378e+00 6.630311e+00
      vertex -7.129793e-01 3.683643e+00 7.121426e+00
      vertex -7.129793e-01 2.970697e+00 7.612599e+00
    endloop
  endfacet
  facet normal 5.803312e-01 -4.836093e-01 6.552387e-01
    outer loop
      vertex 5.921189e-16 2.495378e+00 6.630311e+00
      vertex -7.129793e-01 2.970697e+00 7.612599e+00
      vertex -9.506057e-01 2.020058e+00 7.121426e+00
    endloop
  endfacet
  facet normal 4.835230e-01 -8.703142e-01 9.358787e-02
    outer loop
      vertex 5.921189e-16 2.495378e+00 6.630311e+00
      vertex -9.506057e-01 2.020058e+00 7.121426e+00
      vertex -1.188265e+00 1.782398e+00 6.139197e+00
    endloop
  endfacet
  facet normal 3.128535e-01 -8.342093e-01 4.541118e-01
    outer loop
      vertex 5.921189e-16 2.495378e+00 6.630311e+00
      vertex -1.188265e+00 1.782398e+00 6.139197e+00
      vertex -4.753195e-01 1.782398e+00 5.648023e+00
    endloop
  endfacet
  facet normal -4.836093e-01 -5.803312e-01 6.552387e-01
    outer loop
      vertex 5.921189e-16 2.495378e+00 6.630311e+00
      vertex -4.753195e-01 1.782398e+00 5.648023e+00
      vertex 4.753195e-01 1.544772e+00 6.139197e+00
    endloop
  endfacet
  facet normal -8.703142e-01 -4.835230e-01 9.358787e-02
    outer loop
      vertex 5.921189e-16 2.495378e+00 6.630311e+00
      vertex 4.753195e-01 1.544772e+00 6.139197e+00
      vertex 7.129793e-01 1.307112e+00 7.121426e+00
    endloop
  endfacet
  facet normal -8.342093e-01 -3.128535e-01 4.541118e-01
    outer loop
      vertex 5.921189e-16 2.495378e+00 6.630311e+00
      vertex 7.129793e-01 1.307112e+00 7.121426e+00
      vertex 7.129793e-01 2.020058e+00 7.612599e+00
    endloop
  endfacet
  facet normal -5.803312e-01 4.836093e-01 6.552387e-01
    outer loop
      vertex 5.921189e-16 2.495378e+00 6.630311e+00
      vertex 7.129793e-01 2.020058e+00 7.612599e+00
      vertex 9.506057e-01 2.970697e+00 7.121426e+00
    endloop
  endfacet
  facet normal -4.835230e-01 8.703142e-01 9.358787e-02
    outer loop
      vertex 5.921189e-16 2.495378e+00 6.630311e+00
      vertex 9.506057e-01 2.970697e+00 7.121426e+00
      vertex 1.188265e+00 3.208357e+00 6.139197e+00
    endloop
  endfacet
  facet normal -3.128535e-01 8.342093e-01 4.541118e-01
    outer loop
      vertex 5.921189e-16 2.495378e+00 6.630311e+00
      vertex 1.188265e+00 3.208357e+00 6.139197e+00
      vertex 4.753195e-01 3.208357e+00 5.648023e+00
    endloop
  endfacet
  facet normal 5.803312e-01 -4.836093e-01 6.552387e-01
    outer loop
      vertex 3.327170e+00 2.495378e+00 7.367012e-01
      vertex 2.614191e+00 2.970697e+00 1.718989e+00
      vertex 2.376564e+00 2.020058e+00 1.227816e+00
    endloop
  endfacet
  facet normal 4.835230e-01 -8.703142e-01 9.358787e-02
    outer loop
      vertex 3.327170e+00 2.495378e+00 7.367012e-01
      vertex 2.376564e+00 2.020058e+00 1.227816e+00
      vertex 2.138905e+00 1.782398e+00 2.455867e-01
    endloop
  endfacet
  facet normal 3.128535e-01 -8.342093e-01 4.541118e-01
    outer loop
      vertex 3.327170e+00 2.495378e+00 7.367012e-01
      vertex 2.138905e+00 1.782398e+00 2.455867e-01
      vertex 2.851850e+00 1.782398e+00 -2.455867e-01
    endloop
  endfacet
  facet normal -4.836093e-01 -5.803312e-01 6.552387e-01
    outer loop
      vertex 3.327170e+00 2.495378e+00 7.367012e-01
      vertex 2.851850e+00 1.782398e+00 -2.455867e-01
      vertex 3.802490e+00 1.544772e+00 2.455867e-01
    endloop
  endfacet
  facet normal -8.703142e-01 -4.835230e-01 9.358787e-02
    outer loop
      vertex 3.327170e+00 2.495378e+00 7.367012e-01
      vertex 3.802490e+00 1.544772e+00 2.455867e-01
      vertex 4.040149e+00 1.307112e+00 1.227816e+00
    endloop
  endfacet
  facet normal -8.342093e-01 -3.128535e-01 4.541118e-01
    outer loop
      vertex 3.327170e+00 2.495378e+00 7.367012e-01
      vertex 4.040149e+00 1.307112e+00 1.227816e+00
      vertex 4.040149e+00 2.020058e+00 1.718989e+00
    endloop
  endfacet
  facet normal -5.803312e-01 4.836093e-01 6.552387e-01
    outer loop
      vertex 3.327170e+00 2.495378e+00 7.367012e-01
      vertex 4.040149e+00 2.020058e+00 1.718989e+00
      vertex 4.277776e+00 2.970697e+00 1.227816e+00
    endloop
  endfacet
  facet normal -4.835230e-01 8.703142e-01 9.358787e-02
    outer loop
      vertex 3.327170e+00 2.495378e+00 7.367012e-01
      vertex 4.277776e+00 2.970697e+00 1.227816e+00
      vertex 4.515435e+00 3.208357e+00 2.455867e-01
    endloop
  endfacet
  facet normal -3.128535e-01 8.342093e-01 4.541118e-01
    outer loop
      vertex 3.327170e+00 2.495378e+00 7.367012e-01
      vertex 4.515435e+00 3.208357e+00 2.455867e-01
      vertex 3.802490e+00 3.208357e+00 -2.455867e-01
    endloop
  endfacet
  facet normal 4.836093e-01 5.803312e-01 6.552387e-01
    outer loop
      vertex 3.327170e+00 2.495378e+00 7.367012e-01
      vertex 3.802490e+00 3.208357e+00 -2.455867e-01
      vertex 2.851850e+00 3.445983e+00 2.455867e-01
    endloop
  endfacet
  facet normal 8.703142e-01 4.835230e-01 9.358787e-02
    outer loop
      vertex 3.327170e+00 2.495378e+00 7.367012e-01
      vertex 2.851850e+00 3.445983e+00 2.455867e-01
      vertex 2.614191e+00 3.683643e+00 1.227816e+00
    endloop
  endfacet
  facet normal 8.342093e-01 3.128535e-01 4.541118e-01
    outer loop
      vertex 3.327170e+00 2.495378e+00 7.367012e-01
      vertex 2.614191e+00 3.683643e+00 1.227816e+00
      vertex 2.614191e+00 2.970697e+00 1.718989e+00
    endloop
  endfacet
  facet normal 5.803312e-01 4.836093e-01 -6.552387e-01
    outer loop
      vertex 1.663585e+00 2.495378e+00 5.156909e+00
      vertex 9.506057e-01 2.020058e+00 4.174621e+00
      vertex 7.129793e-01 2.970697e+00 4.665794e+00
    endloop
  endfacet
  facet normal 4.835230e-01 8.703142e-01 -9.358787e-02
    outer loop
      vertex 1.663585e+00 2.495378e+00 5.156909e+00
      vertex 7.129793e-01 2.970697e+00 4.665794e+00
      vertex 4.753195e-01 3.208357e+00 5.648023e+00
    endloop
  endfacet
  facet normal 3.128535e-01 8.342093e-01 -4.541118e-01
    outer loop
      vertex 1.663585e+00 2.495378e+00 5.156909e+00
      vertex 4.753195e-01 3.208357e+00 5.648023e+00
      vertex 1.188265e+00 3.208357e+00 6.139197e+00
    endloop
  endfacet
  facet normal -4.836093e-01 5.803312e-01 -6.552387e-01
    outer loop
      vertex 1.663585e+00 2.495378e+00 5.156909e+00
      vertex 1.188265e+00 3.208357e+00 6.139197e+00
      vertex 2.138905e+00 3.445983e+00 5.648023e+00
    endloop
  endfacet
  facet normal -8.703142e-01 4.835230e-01 -9.358787e-02
    outer loop
      vertex 1.663585e+00 2.495378e+00 5.156909e+00
      vertex 2.138905e+00 3.445983e+00 5.648023e+00
      vertex 2.376564e+00 3.683643e+00 4.665794e+00
    endloop
  endfacet
  facet normal -8.342093e-01 3.128535e-01 -4.541118e-01
    outer loop
      vertex 1.663585e+00 2.495378e+00 5.156909e+00
      vertex 2.376564e+00 3.683643e+00 4.665794e+00
      vertex 2.376564e+00 2.970697e+00 4.174621e+00
    endloop
  endfacet
  facet normal -5.803312e-01 -4.836093e-01 -6.552387e-01
    outer loop
      vertex 1.663585e+00 2.495378e+00 5.156909e+00
      vertex 2.376564e+00 2.970697e+00 4.174621e+00
      vertex 2.614191e+00 2.020058e+00 4.665794e+00
    endloop
  endfacet
  facet normal -4.835230e-01 -8.703142e-01 -9.358787e-02
    outer loop
      vertex 1.663585e+00 2.495378e+00 5.156909e+00
      vertex 2.614191e+00 2.020058e+00 4.665794e+00
      vertex 2.851850e+00 1.782398e+00 5.648023e+00
    endloop
  endfacet
  facet normal -3.128535e-01 -8.342093e-01 -4.541118e-01
    outer loop
      vertex 1.663585e+00 2.495378e+00 5.156909e+00
      vertex 2.851850e+00 1.782398e+00 5.648023e+00
      vertex 2.138905e+00 1.782398e+00 6.139197e+00
    endloop
  endfacet
  facet normal 4.836093e-01 -5.803312e-01 -6.552387e-01
    outer loop
      vertex 1.663585e+00 2.495378e+00 5.156909e+00
      vertex 2.138905e+00 1.782398e+00 6.139197e+00
      vertex 1.188265e+00 1.544772e+00 5.648023e+00
    endloop
  endfacet
  facet normal 8.703142e-01 -4.835230e-01 -9.358787e-02
    outer loop
      vertex 1.663585e+00 2.495378e+00 5.156909e+00
      vertex 1.188265e+00 1.544772e+00 5.648023e+00
      vertex 9.506057e-01 1.307112e+00 4.665794e+00
    endloop
  endfacet
  facet normal 8.342093e-01 -3.128535e-01 -4.541118e-01
    outer loop
      vertex 1.663585e+00 2.495378e+00 5.156909e+00
      vertex 9.506057e-01 1.307112e+00 4.665794e+00
      vertex 9.506057e-01 2.020058e+00 4.174621e+00
    endloop
  endfacet
  facet normal -5.803312e-01 4.836093e-01 6.552387e-01
    outer loop
      vertex 3.327170e+00 8.317925e-01 5.156909e+00
      vertex 2.614191e+00 1.307112e+00 4.174621e+00
      vertex 2.376564e+00 3.564730e-01 4.665794e+00
    endloop
  endfacet
  facet normal -4.835230e-01 8.703142e-01 9.358787e-02
    outer loop
      vertex 3.327170e+00 8.317925e-01 5.156909e+00
      vertex 2.376564e+00 3.564730e-01 4.665794e+00
      vertex 2.138905e+00 1.188132e-01 5.648023e+00
    endloop
  endfacet
  facet normal -3.128535e-01 8.342093e-01 4.541118e-01
    outer loop
      vertex 3.327170e+00 8.317925e-01 5.156909e+00
      vertex 2.138905e+00 1.188132e-01 5.648023e+00
      vertex 2.851850e+00 1.188132e-01 6.139197e+00
    endloop
  endfacet
  facet normal 4.836093e-01 5.803312e-01 6.552387e-01
    outer loop
      vertex 3.327170e+00 8.317925e-01 5.156909e+00
      vertex 2.851850e+00 1.188132e-01 6.139197e+00
      vertex 3.802490e+00 -1.188132e-01 5.648023e+00
    endloop
  endfacet
  facet normal 8.703142e-01 4.835230e-01 9.358787e-02
    outer loop
      vertex 3.327170e+00 8.317925e-01 5.156909e+00
      vertex 3.802490e+00 -1.188132e-01 5.648023e+00
      vertex 4.040149e+00 -3.564730e-01 4.665794e+00
    endloop
  endfacet
  facet normal 8.342093e-01 3.128535e-01 4.541118e-01
    outer loop
      vertex 3.327170e+00 8.317925e-01 5.156909e+00
      vertex 4.040149e+00 -3.564730e-01 4.665794e+00
      vertex 4.040149e+00 3.564730e-01 4.174621e+00
    endloop
  endfacet
  facet normal 5.803312e-01 -4.836093e-01 6.552387e-01
    outer loop
      vertex 3.327170e+00 8.317925e-01 5.156909e+00
      vertex 4.040149e+00 3.564730e-01 4.174621e+00
      vertex 4.277776e+00 1.307112e+00 4.665794e+00
    endloop
  endfacet
  facet normal 4.835230e-01 -8.703142e-01 9.358787e-02
    outer loop
      vertex 3.327170e+00 8.317925e-01 5.156909e+00
      vertex 4.277776e+00 1.307112e+00 4.665794e+00
      vertex 4.515435e+00 1.544772e+00 5.648023e+00
    endloop
  endfacet
  facet normal 3.128535e-01 -8.342093e-01 4.541118e-01
    outer loop
      vertex 3.327170e+00 8.317925e-01 5.156909e+00
      vertex 4.515435e+00 1.544772e+00 5.648023e+00
      vertex 3.802490e+00 1.544772e+00 6.139197e+00
    endloop
  endfacet
  facet normal -4.836093e-01 -5.803312e-01 6.552387e-01
    outer loop
      vertex 3.327170e+00 8.317925e-01 5.156909e+00
      vertex 3.802490e+00 1.544772e+00 6.139197e+00
      vertex 2.851850e+00 1.782398e+00 5.648023e+00
    endloop
  endfacet
  facet normal -8.703142e-01 -4.835230e-01 9.358787e-02
    outer loop
      vertex 3.327170e+00 8.317925e-01 5.156909e+00
      vertex 2.851850e+00 1.782398e+00 5.648023e+00
      vertex 2.614191e+00 2.020058e+00 4.665794e+00
    endloop
  endfacet
  facet normal -8.342093e-01 -3.128535e-01 4.541118e-01
    outer loop
      vertex 3.327170e+00 8.317925e-01 5.156909e+00
      vertex 2.614191e+00 2.020058e+00 4.665794e+00
      vertex 2.614191e+00 1.307112e+00 4.174621e+00
    endloop
  endfacet
  facet normal -8.703142e-01 -4.835230e-01 9.358787e-02
    outer loop
      vertex 1.663585e+00 -8.317925e-01 2.210104e+00
      vertex 1.188265e+00 1.188132e-01 2.701218e+00
      vertex 9.506057e-01 3.564730e-01 1.718989e+00
    endloop
  endfacet
  facet normal -8.342093e-01 -3.128535e-01 4.541118e-01
    outer loop
      vertex 1.663585e+00 -8.317925e-01 2.210104e+00
      vertex 9.506057e-01 3.564730e-01 1.718989e+00
      vertex 9.506057e-01 -3.564730e-01 1.227816e+00
    endloop
  endfacet
  facet normal -5.803312e-01 4.836093e-01 6.552387e-01
    outer loop
      vertex 1.663585e+00 -8.317925e-01 2.210104e+00
      vertex 9.506057e-01 -3.564730e-01 1.227816e+00
      vertex 7.129793e-01 -1.307112e+00 1.718989e+00
    endloop
  endfacet
  facet normal -4.835230e-01 8.703142e-01 9.358787e-02
    outer loop
      vertex 1.663585e+00 -8.317925e-01 2.210104e+00
      vertex 7.129793e-01 -1.307112e+00 1.718989e+00
      vertex 4.753195e-01 -1.544772e+00 2.701218e+00
    endloop
  endfacet
  facet normal -3.128535e-01 8.342093e-01 4.541118e-01
    outer loop
      vertex 1.663585e+00 -8.317925e-01 2.210104e+00
      vertex 4.753195e-01 -1.544772e+00 2.701218e+00
      vertex 1.188265e+00 -1.544772e+00 3.192392e+00
    endloop
  endfacet
  facet normal 4.836093e-01 5.803312e-01 6.552387e-01
    outer loop
      vertex 1.663585e+00 -8.317925e-01 2.210104e+00
      vertex 1.188265e+00 -1.544772e+00 3.192392e+00
      vertex 2.138905e+00 -1.782398e+00 2.701218e+00
    endloop
  endfacet
  facet normal 8.703142e-01 4.835230e-01 9.358787e-02
    outer loop
      vertex 1.663585e+00 -8.317925e-01 2.210104e+00
      vertex 2.138905e+00 -1.782398e+00 2.701218e+00
      vertex 2.376564e+00 -2.020058e+00 1.718989e+00
    endloop
  endfacet
  facet normal 8.342093e-01 3.128535e-01 4.541118e-01
    outer loop
      vertex 1.663585e+00 -8.317925e-01 2.210104e+00
      vertex 2.376564e+00 -2.020058e+00 1.718989e+00
      vertex 2.376564e+00 -1.307112e+00 1.227816e+00
    endloop
  endfacet
  facet normal 5.803312e-01 -4.836093e-01 6.552387e-01
    outer loop
      vertex 1.663585e+00 -8.317925e-01 2.210104e+00
      vertex 2.376564e+00 -1.307112e+00 1.227816e+00
      vertex 2.614191e+00 -3.564730e-01 1.718989e+00
    endloop
  endfacet
  facet normal 4.835230e-01 -8.703142e-01 9.358787e-02
    outer loop
      vertex 1.663585e+00 -8.317925e-01 2.210104e+00
      vertex 2.614191e+00 -3.564730e-01 1.718989e+00
      vertex 2.851850e+00 -1.188132e-01 2.701218e+00
    endloop
  endfacet
  facet normal 3.128535e-01 -8.342093e-01 4.541118e-01
    outer loop
      vertex 1.663585e+00 -8.317925e-01 2.210104e+00
      vertex 2.851850e+00 -1.188132e-01 2.701218e+00
      vertex 2.138905e+00 -1.188132e-01 3.192392e+00
    endloop
  endfacet
  facet normal -4.836093e-01 -5.803312e-01 6.552387e-01
    outer loop
      vertex 1.663585e+00 -8.317925e-01 2.210104e+00
      vertex 2.138905e+00 -1.188132e-01 3.192392e+00
      vertex 1.188265e+00 1.188132e-01 2.701218e+00
    endloop
  endfacet
  facet normal 8.703142e-01 -4.835230e-01 -9.358787e-02
    outer loop
      vertex 2.590520e-16 -8.317925e-01 3.683506e+00
      vertex 4.753195e-01 1.188132e-01 3.192392e+00
      vertex 7.129793e-01 3.564730e-01 4.174621e+00
    endloop
  endfacet
  facet normal 8.342093e-01 -3.128535e-01 -4.541118e-01
    outer loop
      vertex 2.590520e-16 -8.317925e-01 3.683506e+00
      vertex 7.129793e-01 3.564730e-01 4.174621e+00
      vertex 7.129793e-01 -3.564730e-01 4.665794e+00
    endloop
  endfacet
  facet normal 5.803312e-01 4.836093e-01 -6.552387e-01
    outer loop
      vertex 2.590520e-16 -8.317925e-01 3.683506e+00
      vertex 7.129793e-01 -3.564730e-01 4.665794e+00
      vertex 9.506057e-01 -1.307112e+00 4.174621e+00
    endloop
  endfacet
  facet normal 4.835230e-01 8.703142e-01 -9.358787e-02
    outer loop
      vertex 2.590520e-16 -8.317925e-01 3.683506e+00
      vertex 9.506057e-01 -1.307112e+00 4.174621e+00
      vertex 1.188265e+00 -1.544772e+00 3.192392e+00
    endloop
  endfacet
  facet normal 3.128535e-01 8.342093e-01 -4.541118e-01
    outer loop
      vertex 2.590520e-16 -8.317925e-01 3.683506e+00
      vertex 1.188265e+00 -1.544772e+00 3.192392e+00
      vertex 4.753195e-01 -1.544772e+00 2.701218e+00
    endloop
  endfacet
  facet normal -4.836093e-01 5.803312e-01 -6.552387e-01
    outer loop
      vertex 2.590520e-16 -8.317925e-01 3.683506e+00
      vertex 4.753195e-01 -1.544772e+00 2.701218e+00
      vertex -4.753195e-01 -1.782398e+00 3.192392e+00
    endloop
  endfacet
  facet normal -8.703142e-01 4.835230e-01 -9.358787e-02
    outer loop
      vertex 2.590520e-16 -8.317925e-01 3.683506e+00
      vertex -4.753195e-01 -1.782398e+00 3.192392e+00
      vertex -7.129793e-01 -2.020058e+00 4.174621e+00
    endloop
  endfacet
  facet normal -8.342093e-01 3.128535e-01 -4.541118e-01
    outer loop
      vertex 2.590520e-16 -8.317925e-01 3.683506e+00
      vertex -7.129793e-01 -2.020058e+00 4.174621e+00
      vertex -7.129793e-01 -1.307112e+00 4.665794e+00
    endloop
  endfacet
  facet normal -5.803312e-01 -4.836093e-01 -6.552387e-01
    outer loop
      vertex 2.590520e-16 -8.317925e-01 3.683506e+00
      vertex -7.129793e-01 -1.307112e+00 4.665794e+00
      vertex -9.506057e-01 -3.564730e-01 4.174621e+00
    endloop
  endfacet
  facet normal -4.835230e-01 -8.703142e-01 -9.358787e-02
    outer loop
      vertex 2.590520e-16 -8.317925e-01 3.683506e+00
      vertex -9.506057e-01 -3.564730e-01 4.174621e+00
      vertex -1.188265e+00 -1.188132e-01 3.192392e+00
    endloop
  endfacet
  facet normal -3.128535e-01 -8.342093e-01 -4.541118e-01
    outer loop
      vertex 2.590520e-16 -8.317925e-01 3.683506e+00
      vertex -1.188265e+00 -1.188132e-01 3.192392e+00
      vertex -4.753195e-01 -1.188132e-01 2.701218e+00
    endloop
  endfacet
  facet normal 4.836093e-01 -5.803312e-01 -6.552387e-01
    outer loop
      vertex 2.590520e-16 -8.317925e-01 3.683506e+00
      vertex -4.753195e-01 -1.188132e-01 2.701218e+00
      vertex 4.753195e-01 1.188132e-01 3.192392e+00
    endloop
  endfacet
  facet normal 8.703142e-01 4.835230e-01 9.358787e-02
    outer loop
      vertex 3.327170e+00 -8.317925e-01 7.367012e-01
      vertex 2.851850e+00 1.188132e-01 2.455867e-01
      vertex 2.614191e+00 3.564730e-01 1.227816e+00
    endloop
  endfacet
  facet normal 8.342093e-01 3.128535e-01 4.541118e-01
    outer loop
      vertex 3.327170e+00 -8.317925e-01 7.367012e-01
      vertex 2.614191e+00 3.564730e-01 1.227816e+00
      vertex 2.614191e+00 -3.564730e-01 1.718989e+00
    endloop
  endfacet
  facet normal 5.803312e-01 -4.836093e-01 6.552387e-01
    outer loop
      vertex 3.327170e+00 -8.317925e-01 7.367012e-01
      vertex 2.614191e+00 -3.564730e-01 1.718989e+00
      vertex 2.376564e+00 -1.307112e+00 1.227816e+00
    endloop
  endfacet
  facet normal 4.835230e-01 -8.703142e-01 9.358787e-02
    outer loop
      vertex 3.327170e+00 -8.317925e-01 7.367012e-01
      vertex 2.376564e+00 -1.307112e+00 1.227816e+00
      vertex 2.138905e+00 -1.544772e+00 2.455867e-01
    endloop
  endfacet
  facet normal 3.128535e-01 -8.342093e-01 4.541118e-01
    outer loop
      vertex 3.327170e+00 -8.317925e-01 7.367012e-01
      vertex 2.138905e+00 -1.544772e+00 2.455867e-01
      vertex 2.851850e+00 -1.544772e+00 -2.455867e-01
    endloop
  endfacet
  facet normal -4.836093e-01 -5.803312e-01 6.552387e-01
    outer loop
      vertex 3.327170e+00 -8.317925e-01 7.367012e-01
      vertex 2.851850e+00 -1.544772e+00 -2.455867e-01
      vertex 3.802490e+00 -1.782398e+00 2.455867e-01
    endloop
  endfacet
  facet normal -8.703142e-01 -4.835230e-01 9.358787e-02
    outer loop
      vertex 3.327170e+00 -8.317925e-01 7.367012e-01
      vertex 3.802490e+00 -1.782398e+00 2.455867e-01
      vertex 4.040149e+00 -2.020058e+00 1.227816e+00
    endloop
  endfacet
  facet normal -8.342093e-01 -3.128535e-01 4.541118e-01
    outer loop
      vertex 3.327170e+00 -8.317925e-01 7.367012e-01
      vertex 4.040149e+00 -2.020058e+00 1.227816e+00
      vertex 4.040149e+00 -1.307112e+00 1.718989e+00
    endloop
  endfacet
  facet normal -5.803312e-01 4.836093e-01 6.552387e-01
    outer loop
      vertex 3.327170e+00 -8.317925e-01 7.367012e-01
      vertex 4.040149e+00 -1.307112e+00 1.718989e+00
      vertex 4.277776e+00 -3.564730e-01 1.227816e+00
    endloop
  endfacet
  facet normal -4.835230e-01 8.703142e-01 9.358787e-02
    outer loop
      vertex 3.327170e+00 -8.317925e-01 7.367012e-01
      vertex 4.277776e+00 -3.564730e-01 1.227816e+00
      vertex 4.515435e+00 -1.188132e-01 2.455867e-01
    endloop
  endfacet
  facet normal -3.128535e-01 8.342093e-01 4.541118e-01
    outer loop
      vertex 3.327170e+00 -8.317925e-01 7.367012e-01
      vertex 4.515435e+00 -1.188132e-01 2.455867e-01
      vertex 3.802490e+00 -1.188132e-01 -2.455867e-01
    endloop
  endfacet
  facet normal 4.836093e-01 5.803312e-01 6.552387e-01
    outer loop
      vertex 3.327170e+00 -8.317925e-01 7.367012e-01
      vertex 3.802490e+00 -1.188132e-01 -2.455867e-01
      vertex 2.851850e+00 1.188132e-01 2.455867e-01
    endloop
  endfacet
  facet normal -8.703142e-01 4.835230e-01 -9.358787e-02
    outer loop
      vertex 1.663585e+00 4.158963e+00 7.367012e-01
      vertex 1.188265e+00 3.208357e+00 2.455867e-01
      vertex 9.506057e-01 2.970697e+00 1.227816e+00
    endloop
  endfacet
  facet normal -8.342093e-01 3.128535e-01 -4.541118e-01
    outer loop
      vertex 1.663585e+00 4.158963e+00 7.367012e-01
      vertex 9.506057e-01 2.970697e+00 1.227816e+00
      vertex 9.506057e-01 3.683643e+00 1.718989e+00
    endloop
  endfacet
  facet normal -5.803312e-01 -4.836093e-01 -6.552387e-01
    outer loop
      vertex 1.663585e+00 4.158963e+00 7.367012e-01
      vertex 9.506057e-01 3.683643e+00 1.718989e+00
      vertex 7.129793e-01 4.634282e+00 1.227816e+00
    endloop
  endfacet
  facet normal -4.835230e-01 -8.703142e-01 -9.358787e-02
    outer loop
      vertex 1.663585e+00 4.158963e+00 7.367012e-01
      vertex 7.129793e-01 4.634282e+00 1.227816e+00
      vertex 4.753195e-01 4.871942e+00 2.455867e-01
    endloop
  endfacet
  facet normal -3.128535e-01 -8.342093e-01 -4.541118e-01
    outer loop
      vertex 1.663585e+00 4.158963e+00 7.367012e-01
      vertex 4.753195e-01 4.871942e+00 2.455867e-01
      vertex 1.188265e+00 4.871942e+00 -2.455867e-01
    endloop
  endfacet
  facet normal 4.836093e-01 -5.803312e-01 -6.552387e-01
    outer loop
      vertex 1.663585e+00 4.158963e+00 7.367012e-01
      vertex 1.188265e+00 4.871942e+00 -2.455867e-01
      vertex 2.138905e+00 5.109568e+00 2.455867e-01
    endloop
  endfacet
  facet normal 8.703142e-01 -4.835230e-01 -9.358787e-02
    outer loop
      vertex 1.663585e+00 4.158963e+00 7.367012e-01
      vertex 2.138905e+00 5.109568e+00 2.455867e-01
      vertex 2.376564e+00 5.347228e+00 1.227816e+00
    endloop
  endfacet
  facet normal 8.342093e-01 -3.128535e-01 -4.541118e-01
    outer loop
      vertex 1.663585e+00 4.158963e+00 7.367012e-01
      vertex 2.376564e+00 5.347228e+00 1.227816e+00
      vertex 2.376564e+00 4.634282e+00 1.718989e+00
    endloop
  endfacet
  facet normal 5.803312e-01 4.836093e-01 -6.552387e-01
    outer loop
      vertex 1.663585e+00 4.158963e+00 7.367012e-01
      vertex 2.376564e+00 4.634282e+00 1.718989e+00
      vertex 2.614191e+00 3.683643e+00 1.227816e+00
    endloop
  endfacet
  facet normal 4.835230e-01 8.703142e-01 -9.358787e-02
    outer loop
      vertex 1.663585e+00 4.158963e+00 7.367012e-01
      vertex 2.614191e+00 3.683643e+00 1.227816e+00
      vertex 2.851850e+00 3.445983e+00 2.455867e-01
    endloop
  endfacet
  facet normal 3.128535e-01 8.342093e-01 -4.541118e-01
    outer loop
      vertex 1.663585e+00 4.158963e+00 7.367012e-01
      vertex 2.851850e+00 3.445983e+00 2.455867e-01
      vertex 2.138905e+00 3.445983e+00 -2.455867e-01
    endloop
  endfacet
  facet normal -4.836093e-01 5.803312e-01 -6.552387e-01
    outer loop
      vertex 1.663585e+00 4.158963e+00 7.367012e-01
      vertex 2.138905e+00 3.445983e+00 -2.455867e-01
      vertex 1.188265e+00 3.208357e+00 2.455867e-01
    endloop
  endfacet
  facet normal -8.703142e-01 4.835230e-01 -9.358787e-02
    outer loop
      vertex 1.663585e+00 -8.317925e-01 5.156909e+00
      vertex 2.138905e+00 1.188132e-01 5.648023e+00
      vertex 2.376564e+00 3.564730e-01 4.665794e+00
    endloop
  endfacet
  facet normal -8.342093e-01 3.128535e-01 -4.541118e-01
    outer loop
      vertex 1.663585e+00 -8.317925e-01 5.156909e+00
      vertex 2.376564e+00 3.564730e-01 4.665794e+00
      vertex 2.376564e+00 -3.564730e-01 4.174621e+00
    endloop
  endfacet
  facet normal -5.803312e-01 -4.836093e-01 -6.552387e-01
    outer loop
      vertex 1.663585e+00 -8.317925e-01 5.156909e+00
      vertex 2.376564e+00 -3.564730e-01 4.174621e+00
      vertex 2.614191e+00 -1.307112e+00 4.665794e+00
    endloop
  endfacet
  facet normal -4.835230e-01 -8.703142e-01 -9.358787e-02
    outer loop
      vertex 1.663585e+00 -8.317925e-01 5.156909e+00
      vertex 2.614191e+00 -1.307112e+00 4.665794e+00
      vertex 2.851850e+00 -1.544772e+00 5.648023e+00
    endloop
  endfacet
  facet normal -3.128535e-01 -8.342093e-01 -4.541118e-01
    outer loop
      vertex 1.663585e+00 -8.317925e-01 5.156909e+00
      vertex 2.851850e+00 -1.544772e+00 5.648023e+00
      vertex 2.138905e+00 -1.544772e+00 6.139197e+00
    endloop
  endfacet
  facet normal 4.836093e-01 -5.803312e-01 -6.552387e-01
    outer loop
      vertex 1.663585e+00 -8.317925e-01 5.156909e+00
      vertex 2.138905e+00 -1.544772e+00 6.139197e+00
      vertex 1.188265e+00 -1.782398e+00 5.648023e+00
    endloop
  endfacet
  facet normal 8.703142e-01 -4.835230e-01 -9.358787e-02
    outer loop
      vertex 1.663585e+00 -8.317925e-01 5.156909e+00
      vertex 1.188265e+00 -1.782398e+00 5.648023e+00
      vertex 9.506057e-01 -2.020058e+00 4.665794e+00
    endloop
  endfacet
  facet normal 8.342093e-01 -3.128535e-01 -4.541118e-01
    outer loop
      vertex 1.663585e+00 -8.317925e-01 5.156909e+00
      vertex 9.506057e-01 -2.020058e+00 4.665794e+00
      vertex 9.506057e-01 -1.307112e+00 4.174621e+00
    endloop
  endfacet
  facet normal 5.803312e-01 4.836093e-01 -6.552387e-01
    outer loop
      vertex 1.663585e+00 -8.317925e-01 5.156909e+00
      vertex 9.506057e-01 -1.307112e+00 4.174621e+00
      vertex 7.129793e-01 -3.564730e-01 4.665794e+00
    endloop
  endfacet
  facet normal 4.835230e-01 8.703142e-01 -9.358787e-02
    outer loop
      vertex 1.663585e+00 -8.317925e-01 5.156909e+00
      vertex 7.129793e-01 -3.564730e-01 4.665794e+00
      vertex 4.753195e-01 -1.188132e-01 5.648023e+00
    endloop
  endfacet
  facet normal 3.128535e-01 8.342093e-01 -4.541118e-01
    outer loop
      vertex 1.663585e+00 -8.317925e-01 5.156909e+00
      vertex 4.753195e-01 -1.188132e-01 5.648023e+00
      vertex 1.188265e+00 -1.188132e-01 6.139197e+00
    endloop
  endfacet
  facet normal -4.836093e-01 5.803312e-01 -6.552387e-01
    outer loop
      vertex 1.663585e+00 -8.317925e-01 5.156909e+00
      vertex 1.188265e+00 -1.188132e-01 6.139197e+00
      vertex 2.138905e+00 1.188132e-01 5.648023e+00
    endloop
  endfacet
  facet normal 8.703142e-01 4.835230e-01 9.358787e-02
    outer loop
      vertex 6.291264e-16 4.158963e+00 5.156909e+00
      vertex 4.753195e-01 3.208357e+00 5.648023e+00
      vertex 7.129793e-01 2.970697e+00 4.665794e+00
    endloop
  endfacet
  facet normal 8.342093e-01 3.128535e-01 4.541118e-01
    outer loop
      vertex 6.291264e-16 4.158963e+00 5.156909e+00
      vertex 7.129793e-01 2.970697e+00 4.665794e+00
      vertex 7.129793e-01 3.683643e+00 4.174621e+00
    endloop
  endfacet
  facet normal 5.803312e-01 -4.836093e-01 6.552387e-01
    outer loop
      vertex 6.291264e-16 4.158963e+00 5.156909e+00
      vertex 7.129793e-01 3.683643e+00 4.174621e+00
      vertex 9.506057e-01 4.634282e+00 4.665794e+00
    endloop
  endfacet
  facet normal 4.835230e-01 -8.703142e-01 9.358787e-02
    outer loop
      vertex 6.291264e-16 4.158963e+00 5.156909e+00
      vertex 9.506057e-01 4.634282e+00 4.665794e+00
      vertex 1.188265e+00 4.871942e+00 5.648023e+00
    endloop
  endfacet
  facet normal 3.128535e-01 -8.342093e-01 4.541118e-01
    outer loop
      vertex 6.291264e-16 4.158963e+00 5.156909e+00
      vertex 1.188265e+00 4.871942e+00 5.648023e+00
      vertex 4.753195e-01 4.871942e+00 6.139197e+00
    endloop
  endfacet
  facet normal -4.836093e-01 -5.803312e-01 6.552387e-01
    outer loop
      vertex 6.291264e-16 4.158963e+00 5.156909e+00
      vertex 4.753195e-01 4.871942e+00 6.139197e+00
      vertex -4.753195e-01 5.109568e+00 5.648023e+00
    endloop
  endfacet
  facet normal -8.703142e-01 -4.835230e-01 9.358787e-02
    outer loop
      vertex 6.291264e-16 4.158963e+00 5.156909e+00
      vertex -4.753195e-01 5.109568e+00 5.648023e+00
      vertex -7.129793e-01 5.347228e+00 4.665794e+00
    endloop
  endfacet
  facet normal -8.342093e-01 -3.128535e-01 4.541118e-01
    outer loop
      vertex 6.291264e-16 4.158963e+00 5.156909e+00
      vertex -7.129793e-01 5.347228e+00 4.665794e+00
      vertex -7.129793e-01 4.634282e+00 4.174621e+00
    endloop
  endfacet
  facet normal -5.803312e-01 4.836093e-01 6.552387e-01
    outer loop
      vertex 6.291264e-16 4.158963e+00 5.156909e+00
      vertex -7.129793e-01 4.634282e+00 4.174621e+00
      vertex -9.506057e-01 3.683643e+00 4.665794e+00
    endloop
  endfacet
  facet normal -4.835230e-01 8.703142e-01 9.358787e-02
    outer loop
      vertex 6.291264e-16 4.158963e+00 5.156909e+00
      vertex -9.506057e-01 3.683643e+00 4.665794e+00
      vertex -1.188265e+00 3.445983e+00 5.648023e+00
    endloop
  endfacet
  facet normal -3.128535e-01 8.342093e-01 4.541118e-01
    outer loop
      vertex 6.291264e-16 4.158963e+00 5.156909e+00
      vertex -1.188265e+00 3.445983e+00 5.648023e+00
      vertex -4.753195e-01 3.445983e+00 6.139197e+00
    endloop
  endfacet
  facet normal 4.836093e-01 5.803312e-01 6.552387e-01
    outer loop
      vertex 6.291264e-16 4.158963e+00 5.156909e+00
      vertex -4.753195e-01 3.445983e+00 6.139197e+00
      vertex 4.753195e-01 3.208357e+00 5.648023e+00
    endloop
  endfacet
  facet normal 8.703142e-01 -4.835230e-01 -9.358787e-02
    outer loop
      vertex 3.327170e+00 4.158963e+00 2.210104e+00
      vertex 2.851850e+00 3.208357e+00 2.701218e+00
      vertex 2.614191e+00 2.970697e+00 1.718989e+00
    endloop
  endfacet
  facet normal 8.342093e-01 -3.128535e-01 -4.541118e-01
    outer loop
      vertex 3.327170e+00 4.158963e+00 2.210104e+00
      vertex 2.614191e+00 2.970697e+00 1.718989e+00
      vertex 2.614191e+00 3.683643e+00 1.227816e+00
    endloop
  endfacet
  facet normal 5.803312e-01 4.836093e-01 -6.552387e-01
    outer loop
      vertex 3.327170e+00 4.158963e+00 2.210104e+00
      vertex 2.614191e+00 3.683643e+00 1.227816e+00
      vertex 2.376564e+00 4.634282e+00 1.718989e+00
    endloop
  endfacet
  facet normal 4.835230e-01 8.703142e-01 -9.358787e-02
    outer loop
      vertex 3.327170e+00 4.158963e+00 2.210104e+00
      vertex 2.376564e+00 4.634282e+00 1.718989e+00
      vertex 2.138905e+00 4.871942e+00 2.701218e+00
    endloop
  endfacet
  facet normal 3.128535e-01 8.342093e-01 -4.541118e-01
    outer loop
      vertex 3.327170e+00 4.158963e+00 2.210104e+00
      vertex 2.138905e+00 4.871942e+00 2.701218e+00
      vertex 2.851850e+00 4.871942e+00 3.192392e+00
    endloop
  endfacet
  facet normal -4.836093e-01 5.803312e-01 -6.552387e-01
    outer loop
      vertex 3.327170e+00 4.158963e+00 2.210104e+00
      vertex 2.851850e+00 4.871942e+00 3.192392e+00
      vertex 3.802490e+00 5.109568e+00 2.701218e+00
    endloop
  endfacet
  facet normal -8.703142e-01 4.835230e-01 -9.358787e-02
    outer loop
      vertex 3.327170e+00 4.158963e+00 2.210104e+00
      vertex 3.802490e+00 5.109568e+00 2.701218e+00
      vertex 4.040149e+00 5.347228e+00 1.718989e+00
    endloop
  endfacet
  facet normal -8.342093e-01 3.128535e-01 -4.541118e-01
    outer loop
      vertex 3.327170e+00 4.158963e+00 2.210104e+00
      vertex 4.040149e+00 5.347228e+00 1.718989e+00
      vertex 4.040149e+00 4.634282e+00 1.227816e+00
    endloop
  endfacet
  facet normal -5.803312e-01 -4.836093e-01 -6.552387e-01
    outer loop
      vertex 3.327170e+00 4.158963e+00 2.210104e+00
      vertex 4.040149e+00 4.634282e+00 1.227816e+00
      vertex 4.277776e+00 3.683643e+00 1.718989e+00
    endloop
  endfacet
  facet normal -4.835230e-01 -8.703142e-01 -9.358787e-02
    outer loop
      vertex 3.327170e+00 4.158963e+00 2.210104e+00
      vertex 4.277776e+00 3.683643e+00 1.718989e+00
      vertex 4.515435e+00 3.445983e+00 2.701218e+00
    endloop
  endfacet
  facet normal -3.128535e-01 -8.342093e-01 -4.541118e-01
    outer loop
      vertex 3.327170e+00 4.158963e+00 2.210104e+00
      vertex 4.515435e+00 3.445983e+00 2.701218e+00
      vertex 3.802490e+00 3.445983e+00 3.192392e+00
    endloop
  endfacet
  facet normal 4.836093e-01 -5.803312e-01 -6.552387e-01
    outer loop
      vertex 3.327170e+00 4.158963e+00 2.210104e+00
      vertex 3.802490e+00 3.445983e+00 3.192392e+00
      vertex 2.851850e+00 3.208357e+00 2.701218e+00
    endloop
  endfacet
  facet normal -8.703142e-01 -4.835230e-01 9.358787e-02
    outer loop
      vertex 1.663585e+00 4.158963e+00 3.683506e+00
      vertex 2.138905e+00 3.208357e+00 3.192392e+00
      vertex 2.376564e+00 2.970697e+00 4.174621e+00
    endloop
  endfacet
  facet normal -8.342093e-01 -3.128535e-01 4.541118e-01
    outer loop
      vertex 1.663585e+00 4.158963e+00 3.683506e+00
      vertex 2.376564e+00 2.970697e+00 4.174621e+00
      vertex 2.376564e+00 3.683643e+00 4.665794e+00
    endloop
  endfacet
  facet normal -5.803312e-01 4.836093e-01 6.552387e-01
    outer loop
      vertex 1.663585e+00 4.158963e+00 3.683506e+00
      vertex 2.376564e+00 3.683643e+00 4.665794e+00
      vertex 2.614191e+00 4.634282e+00 4.174621e+00
    endloop
  endfacet
  facet normal -4.835230e-01 8.703142e-01 9.358787e-02
    outer loop
      vertex 1.663585e+00 4.158963e+00 3.683506e+00
      vertex 2.614191e+00 4.634282e+00 4.174621e+00
      vertex 2.851850e+00 4.871942e+00 3.192392e+00
    endloop
  endfacet
  facet normal -3.128535e-01 8.342093e-01 4.541118e-01
    outer loop
      vertex 1.663585e+00 4.158963e+00 3.683506e+00
      vertex 2.851850e+00 4.871942e+00 3.192392e+00
      vertex 2.138905e+00 4.871942e+00 2.701218e+00
    endloop
  endfacet
  facet normal 4.836093e-01 5.803312e-01 6.552387e-01
    outer loop
      vertex 1.663585e+00 4.158963e+00 3.683506e+00
      vertex 2.138905e+00 4.871942e+00 2.701218e+00
      vertex 1.188265e+00 5.109568e+00 3.192392e+00
    endloop
  endfacet
  facet normal 8.703142e-01 4.835230e-01 9.358787e-02
    outer loop
      vertex 1.663585e+00 4.158963e+00 3.683506e+00
      vertex 1.188265e+00 5.109568e+00 3.192392e+00
      vertex 9.506057e-01 5.347228e+00 4.174621e+00
    endloop
  endfacet
  facet normal 8.342093e-01 3.128535e-01 4.541118e-01
    outer loop
      vertex 1.663585e+00 4.158963e+00 3.683506e+00
      vertex 9.506057e-01 5.347228e+00 4.174621e+00
      vertex 9.506057e-01 4.634282e+00 4.665794e+00
    endloop
  endfacet
  facet normal 5.803312e-01 -4.836093e-01 6.552387e-01
    outer loop
      vertex 1.663585e+00 4.158963e+00 3.683506e+00
      vertex 9.506057e-01 4.634282e+00 4.665794e+00
      vertex 7.129793e-01 3.683643e+00 4.174621e+00
    endloop
  endfacet
  facet normal 4.835230e-01 -8.703142e-01 9.358787e-02
    outer loop
      vertex 1.663585e+00 4.158963e+00 3.683506e+00
      vertex 7.129793e-01 3.683643e+00 4.174621e+00
      vertex 4.753195e-01 3.445983e+00 3.192392e+00
    endloop
  endfacet
  facet normal 3.128535e-01 -8.342093e-01 4.541118e-01
    outer loop
      vertex 1.663585e+00 4.158963e+00 3.683506e+00
      vertex 4.753195e-01 3.445983e+00 3.192392e+00
      vertex 1.188265e+00 3.445983e+00 2.701218e+00
    endloop
  endfacet
  facet normal -4.836093e-01 -5.803312e-01 6.552387e-01
    outer loop
      vertex 1.663585e+00 4.158963e+00 3.683506e+00
      vertex 1.188265e+00 3.445983e+00 2.701218e+00
      vertex 2.138905e+00 3.208357e+00 3.192392e+00
    endloop
  endfacet
endsolid surface_model
