solid surface_model
  facet normal -4.835230e-01 -8.703143e-01 -9.358743e-02
    outer loop
      vertex 1.850372e-16 8.317900e-01 2.210108e+00
      vertex 9.506029e-01 3.564719e-01 1.718992e+00
      vertex 1.188262e+00 1.188129e-01 2.701223e+00
    endloop
  endfacet
  facet normal -3.128538e-01 -8.342101e-01 -4.541101e-01
    outer loop
      vertex 1.850372e-16 8.317900e-01 2.210108e+00
      vertex 1.188262e+00 1.188129e-01 2.701223e+00
      vertex 4.753181e-01 1.188129e-01 3.192397e+00
    endloop
  endfacet
  facet normal 4.836103e-01 -5.803324e-01 -6.552369e-01
    outer loop
      vertex 1.850372e-16 8.317900e-01 2.210108e+00
      vertex 4.753181e-01 1.188129e-01 3.192397e+00
      vertex -4.753181e-01 -1.188129e-01 2.701223e+00
    endloop
  endfacet
  facet normal 8.703143e-01 -4.835230e-01 -9.358743e-02
    outer loop
      vertex 1.850372e-16 8.317900e-01 2.210108e+00
      vertex -4.753181e-01 -1.188129e-01 2.701223e+00
      vertex -7.129771e-01 -3.564719e-01 1.718992e+00
    endloop
  endfacet
  facet normal 8.342101e-01 -3.128538e-01 -4.541101e-01
    outer loop
      vertex 1.850372e-16 8.317900e-01 2.210108e+00
      vertex -7.129771e-01 -3.564719e-01 1.718992e+00
      vertex -7.129771e-01 3.564719e-01 1.227818e+00
    endloop
  endfacet
  facet normal 5.803324e-01 4.836103e-01 -6.552369e-01
    outer loop
      vertex 1.850372e-16 8.317900e-01 2.210108e+00
      vertex -7.129771e-01 3.564719e-01 1.227818e+00
      vertex -9.506029e-01 1.307108e+00 1.718992e+00
    endloop
  endfacet
  facet normal 4.835230e-01 8.703143e-01 -9.358743e-02
    outer loop
      vertex 1.850372e-16 8.317900e-01 2.210108e+00
      vertex -9.506029e-01 1.307108e+00 1.718992e+00
      vertex -1.188262e+00 1.544767e+00 2.701223e+00
    endloop
  endfacet
  facet normal 3.128538e-01 8.342101e-01 -4.541101e-01
    outer loop
      vertex 1.850372e-16 8.317900e-01 2.210108e+00
      vertex -1.188262e+00 1.544767e+00 2.701223e+00
      vertex -4.753181e-01 1.544767e+00 3.192397e+00
    endloop
  endfacet
  facet normal -4.836103e-01 5.803324e-01 -6.552369e-01
    outer loop
      vertex 1.850372e-16 8.317900e-01 2.210108e+00
      vertex -4.753181e-01 1.544767e+00 3.192397e+00
      vertex 4.753181e-01 1.782393e+00 2.701223e+00
    endloop
  endfacet
  facet normal -8.703143e-01 4.835230e-01 -9.358743e-02
    outer loop
      vertex 1.850372e-16 8.317900e-01 2.210108e+00
      vertex 4.753181e-01 1.782393e+00 2.701223e+00
      vertex 7.129771e-01 2.020052e+00 1.718992e+00
    endloop
  endfacet
  facet normal -8.342101e-01 3.128538e-01 -4.541101e-01
    outer loop
      vertex 1.850372e-16 8.317900e-01 2.210108e+00
      vertex 7.129771e-01 2.020052e+00 1.718992e+00
      vertex 7.129771e-01 1.307108e+00 1.227818e+00
    endloop
  endfacet
  facet normal -5.803324e-01 -4.836103e-01 -6.552369e-01
    outer loop
      vertex 1.850372e-16 8.317900e-01 2.210108e+00
      vertex 7.129771e-01 1.307108e+00 1.227818e+00
      vertex 9.506029e-01 3.564719e-01 1.718992e+00
    endloop
  endfacet
  facet normal -8.703143e-01 -4.835230e-01 9.358743e-02
    outer loop
      vertex 1.663580e+00 -8.317900e-01 2.210108e+00
      vertex 1.188262e+00 1.188129e-01 2.701223e+00
      vertex 9.506029e-01 3.564719e-01 1.718992e+00
    endloop
  endfacet
  facet normal -8.342101e-01 -3.128538e-01 4.541101e-01
    outer loop
      vertex 1.663580e+00 -8.317900e-01 2.210108e+00
      vertex 9.506029e-01 3.564719e-01 1.718992e+00
      vertex 9.506029e-01 -3.564719e-01 1.227818e+00
    endloop
  endfacet
  facet normal -5.803324e-01 4.836103e-01 6.552369e-01
    outer loop
      vertex 1.663580e+00 -8.317900e-01 2.210108e+00
      vertex 9.506029e-01 -3.564719e-01 1.227818e+00
      vertex 7.129771e-01 -1.307108e+00 1.718992e+00
    endloop
  endfacet
  facet normal -4.835230e-01 8.703143e-01 9.358743e-02
    outer loop
      vertex 1.663580e+00 -8.317900e-01 2.210108e+00
      vertex 7.129771e-01 -1.307108e+00 1.718992e+00
      vertex 4.753181e-01 -1.544767e+00 2.701223e+00
    endloop
  endfacet
  facet normal -3.128538e-01 8.342101e-01 4.541101e-01
    outer loop
      vertex 1.663580e+00 -8.317900e-01 2.210108e+00
      vertex 4.753181e-01 -1.544767e+00 2.701223e+00
      vertex 1.188262e+00 -1.544767e+00 3.192397e+00
    endloop
  endfacet
  facet normal 4.836103e-01 5.803324e-01 6.552369e-01
    outer loop
      vertex 1.663580e+00 -8.317900e-01 2.210108e+00
      vertex 1.188262e+00 -1.544767e+00 3.192397e+00
      vertex 2.138898e+00 -1.782393e+00 2.701223e+00
    endloop
  endfacet
  facet normal 8.703143e-01 4.835230e-01 9.358743e-02
    outer loop
      vertex 1.663580e+00 -8.317900e-01 2.210108e+00
      vertex 2.138898e+00 -1.782393e+00 2.701223e+00
      vertex 2.376557e+00 -2.020052e+00 1.718992e+00
    endloop
  endfacet
  facet normal 8.342101e-01 3.128538e-01 4.541101e-01
    outer loop
      vertex 1.663580e+00 -8.317900e-01 2.210108e+00
      vertex 2.376557e+00 -2.020052e+00 1.718992e+00
      vertex 2.376557e+00 -1.307108e+00 1.227818e+00
    endloop
  endfacet
  facet normal 5.803324e-01 -4.836103e-01 6.552369e-01
    outer loop
      vertex 1.663580e+00 -8.317900e-01 2.210108e+00
      vertex 2.376557e+00 -1.307108e+00 1.227818e+00
      vertex 2.614183e+00 -3.564719e-01 1.718992e+00
    endloop
  endfacet
  facet normal 4.835230e-01 -8.703143e-01 9.358743e-02
    outer loop
      vertex 1.663580e+00 -8.317900e-01 2.210108e+00
      vertex 2.614183e+00 -3.564719e-01 1.718992e+00
      vertex 2.851842e+00 -1.188129e-01 2.701223e+00
    endloop
  endfacet
  facet normal 3.128538e-01 -8.342101e-01 4.541101e-01
    outer loop
      vertex 1.663580e+00 -8.317900e-01 2.210108e+00
      vertex 2.851842e+00 -1.188129e-01 2.701223e+00
      vertex 2.138898e+00 -1.188129e-01 3.192397e+00
    endloop
  endfacet
  facet normal -4.836103e-01 -5.803324e-01 6.552369e-01
    outer loop
      vertex 1.663580e+00 -8.317900e-01 2.210108e+00
      vertex 2.138898e+00 -1.188129e-01 3.192397e+00
      vertex 1.188262e+00 1.188129e-01 2.701223e+00
    endloop
  endfacet
  facet normal -8.703143e-01 -4.835230e-01 9.358743e-02
    outer loop
      vertex 1.110223e-16 2.495370e+00 7.367025e-01
      vertex 4.753181e-01 1.544767e+00 2.455871e-01
      vertex 7.129771e-01 1.307108e+00 1.227818e+00
    endloop
  endfacet
  facet normal -8.342101e-01 -3.128538e-01 4.541101e-01
    outer loop
      vertex 1.110223e-16 2.495370e+00 7.367025e-01
      vertex 7.129771e-01 1.307108e+00 1.227818e+00
      vertex 7.129771e-01 2.020052e+00 1.718992e+00
    endloop
  endfacet
  facet normal -5.803324e-01 4.836103e-01 6.552369e-01
    outer loop
      vertex 1.110223e-16 2.495370e+00 7.367025e-01
      vertex 7.129771e-01 2.020052e+00 1.718992e+00
      vertex 9.506029e-01 2.970688e+00 1.227818e+00
    endloop
  endfacet
  facet normal -4.835230e-01 8.703143e-01 9.358743e-02
    outer loop
      vertex 1.110223e-16 2.495370e+00 7.367025e-01
      vertex 9.506029e-01 2.970688e+00 1.227818e+00
      vertex 1.188262e+00 3.208347e+00 2.455871e-01
    endloop
  endfacet
  facet normal -3.128538e-01 8.342101e-01 4.541101e-01
    outer loop
      vertex 1.110223e-16 2.495370e+00 7.367025e-01
      vertex 1.188262e+00 3.208347e+00 2.455871e-01
      vertex 4.753181e-01 3.208347e+00 -2.455871e-01
    endloop
  endfacet
  facet normal 4.836103e-01 5.803324e-01 6.552369e-01
    outer loop
      vertex 1.110223e-16 2.495370e+00 7.367025e-01
      vertex 4.753181e-01 3.208347e+00 -2.455871e-01
      vertex -4.753181e-01 3.445973e+00 2.455871e-01
    endloop
  endfacet
  facet normal 8.703143e-01 4.835230e-01 9.358743e-02
    outer loop
      vertex 1.110223e-16 2.495370e+00 7.367025e-01
      vertex -4.753181e-01 3.445973e+00 2.455871e-01
      vertex -7.129771e-01 3.683632e+00 1.227818e+00
    endloop
  endfacet
  facet normal 8.342101e-01 3.128538e-01 4.541101e-01
    outer loop
      vertex 1.110223e-16 2.495370e+00 7.367025e-01
      vertex -7.129771e-01 3.683632e+00 1.227818e+00
      vertex -7.129771e-01 2.970688e+00 1.718992e+00
    endloop
  endfacet
  facet normal 5.803324e-01 -4.836103e-01 6.552369e-01
    outer loop
      vertex 1.110223e-16 2.495370e+00 7.367025e-01
      vertex -7.129771e-01 2.970688e+00 1.718992e+00
      vertex -9.506029e-01 2.020052e+00 1.227818e+00
    endloop
  endfacet
  facet normal 4.835230e-01 -8.703143e-01 9.358743e-02
    outer loop
      vertex 1.110223e-16 2.495370e+00 7.367025e-01
      vertex -9.506029e-01 2.020052e+00 1.227818e+00
      vertex -1.188262e+00 1.782393e+00 2.455871e-01
    endloop
  endfacet
  facet normal 3.128538e-01 -8.342101e-01 4.541101e-01
    outer loop
      vertex 1.110223e-16 2.495370e+00 7.367025e-01
      vertex -1.188262e+00 1.782393e+00 2.455871e-01
      vertex -4.753181e-01 1.782393e+00 -2.455871e-01
    endloop
  endfacet
  facet normal -4.836103e-01 -5.803324e-01 6.552369e-01
    outer loop
      vertex 1.110223e-16 2.495370e+00 7.367025e-01
      vertex -4.753181e-01 1.782393e+00 -2.455871e-01
      vertex 4.753181e-01 1.544767e+00 2.455871e-01
    endloop
  endfacet
  facet normal -4.835230e-01 -8.703143e-01 -9.358743e-02
    outer loop
      vertex 1.663580e+00 8.317900e-01 7.367025e-01
      vertex 7.129771e-01 1.307108e+00 1.227818e+00
      vertex 4.753181e-01 1.544767e+00 2.455871e-01
    endloop
  endfacet
  facet normal -3.128538e-01 -8.342101e-01 -4.541101e-01
    outer loop
      vertex 1.663580e+00 8.317900e-01 7.367025e-01
      vertex 4.753181e-01 1.544767e+00 2.455871e-01
      vertex 1.188262e+00 1.544767e+00 -2.455871e-01
    endloop
  endfacet
  facet normal 4.836103e-01 -5.803324e-01 -6.552369e-01
    outer loop
      vertex 1.663580e+00 8.317900e-01 7.367025e-01
      vertex 1.188262e+00 1.544767e+00 -2.455871e-01
      vertex 2.138898e+00 1.782393e+00 2.455871e-01
    endloop
  endfacet
  facet normal 8.703143e-01 -4.835230e-01 -9.358743e-02
    outer loop
      vertex 1.663580e+00 8.317900e-01 7.367025e-01
      vertex 2.138898e+00 1.782393e+00 2.455871e-01
      vertex 2.376557e+00 2.020052e+00 1.227818e+00
    endloop
  endfacet
  facet normal 8.342101e-01 -3.128538e-01 -4.541101e-01
    outer loop
      vertex 1.663580e+00 8.317900e-01 7.367025e-01
      vertex 2.376557e+00 2.020052e+00 1.227818e+00
      vertex 2.376557e+00 1.307108e+00 1.718992e+00
    endloop
  endfacet
  facet normal 5.803324e-01 4.836103e-01 -6.552369e-01
    outer loop
      vertex 1.663580e+00 8.317900e-01 7.367025e-01
      vertex 2.376557e+00 1.307108e+00 1.718992e+00
      vertex 2.614183e+00 3.564719e-01 1.227818e+00
    endloop
  endfacet
  facet normal 4.835230e-01 8.703143e-01 -9.358743e-02
    outer loop
      vertex 1.663580e+00 8.317900e-01 7.367025e-01
      vertex 2.614183e+00 3.564719e-01 1.227818e+00
      vertex 2.851842e+00 1.188129e-01 2.455871e-01
    endloop
  endfacet
  facet normal 3.128538e-01 8.342101e-01 -4.541101e-01
    outer loop
      vertex 1.663580e+00 8.317900e-01 7.367025e-01
      vertex 2.851842e+00 1.188129e-01 2.455871e-01
      vertex 2.138898e+00 1.188129e-01 -2.455871e-01
    endloop
  endfacet
  facet normal -4.836103e-01 5.803324e-01 -6.552369e-01
    outer loop
      vertex 1.663580e+00 8.317900e-01 7.367025e-01
      vertex 2.138898e+00 1.188129e-01 -2.455871e-01
      vertex 1.188262e+00 -1.188129e-01 2.455871e-01
    endloop
  endfacet
  facet normal -8.703143e-01 4.835230e-01 -9.358743e-02
    outer loop
      vertex 1.663580e+00 8.317900e-01 7.367025e-01
      vertex 1.188262e+00 -1.188129e-01 2.455871e-01
      vertex 9.506029e-01 -3.564719e-01 1.227818e+00
    endloop
  endfacet
  facet normal -8.342101e-01 3.128538e-01 -4.541101e-01
    outer loop
      vertex 1.663580e+00 8.317900e-01 7.367025e-01
      vertex 9.506029e-01 -3.564719e-01 1.227818e+00
      vertex 9.506029e-01 3.564719e-01 1.718992e+00
    endloop
  endfacet
  facet normal -5.803324e-01 -4.836103e-01 -6.552369e-01
    outer loop
      vertex 1.663580e+00 8.317900e-01 7.367025e-01
      vertex 9.506029e-01 3.564719e-01 1.718992e+00
      vertex 7.129771e-01 1.307108e+00 1.227818e+00
    endloop
  endfacet
  facet normal 8.703143e-01 -4.835230e-01 -9.358743e-02
    outer loop
      vertex 2.220446e-16 -8.317900e-01 3.683513e+00
      vertex 4.753181e-01 1.188129e-01 3.192397e+00
      vertex 7.129771e-01 3.564719e-01 4.174628e+00
    endloop
  endfacet
  facet normal 8.342101e-01 -3.128538e-01 -4.541101e-01
    outer loop
      vertex 2.220446e-16 -8.317900e-01 3.683513e+00
      vertex 7.129771e-01 3.564719e-01 4.174628e+00
      vertex 7.129771e-01 -3.564719e-01 4.665802e+00
    endloop
  endfacet
  facet normal 5.803324e-01 4.836103e-01 -6.552369e-01
    outer loop
      vertex 2.220446e-16 -8.317900e-01 3.683513e+00
      vertex 7.129771e-01 -3.564719e-01 4.665802e+00
      vertex 9.506029e-01 -1.307108e+00 4.174628e+00
    endloop
  endfacet
  facet normal 4.835230e-01 8.703143e-01 -9.358743e-02
    outer loop
      vertex 2.220446e-16 -8.317900e-01 3.683513e+00
      vertex 9.506029e-01 -1.307108e+00 4.174628e+00
      vertex 1.188262e+00 -1.544767e+00 3.192397e+00
    endloop
  endfacet
  facet normal 3.128538e-01 8.342101e-01 -4.541101e-01
    outer loop
      vertex 2.220446e-16 -8.317900e-01 3.683513e+00
      vertex 1.188262e+00 -1.544767e+00 3.192397e+00
      vertex 4.753181e-01 -1.544767e+00 2.701223e+00
    endloop
  endfacet
  facet normal -4.836103e-01 5.803324e-01 -6.552369e-01
    outer loop
      vertex 2.220446e-16 -8.317900e-01 3.683513e+00
      vertex 4.753181e-01 -1.544767e+00 2.701223e+00
      vertex -4.753181e-01 -1.782393e+00 3.192397e+00
    endloop
  endfacet
  facet normal -8.703143e-01 4.835230e-01 -9.358743e-02
    outer loop
      vertex 2.220446e-16 -8.317900e-01 3.683513e+00
      vertex -4.753181e-01 -1.782393e+00 3.192397e+00
      vertex -7.129771e-01 -2.020052e+00 4.174628e+00
    endloop
  endfacet
  facet normal -8.342101e-01 3.128538e-01 -4.541101e-01
    outer loop
      vertex 2.220446e-16 -8.317900e-01 3.683513e+00
      vertex -7.129771e-01 -2.020052e+00 4.174628e+00
      vertex -7.129771e-01 -1.307108e+00 4.665802e+00
    endloop
  endfacet
  facet normal -5.803324e-01 -4.836103e-01 -6.552369e-01
    outer loop
      vertex 2.220446e-16 -8.317900e-01 3.683513e+00
      vertex -7.129771e-01 -1.307108e+00 4.665802e+00
      vertex -9.506029e-01 -3.564719e-01 4.174628e+00
    endloop
  endfacet
  facet normal -4.835230e-01 -8.703143e-01 -9.358743e-02
    outer loop
      vertex 2.220446e-16 -8.317900e-01 3.683513e+00
      vertex -9.506029e-01 -3.564719e-01 4.174628e+00
      vertex -1.188262e+00 -1.188129e-01 3.192397e+00
    endloop
  endfacet
  facet normal -3.128538e-01 -8.342101e-01 -4.541101e-01
    outer loop
      vertex 2.220446e-16 -8.317900e-01 3.683513e+00
      vertex -1.188262e+00 -1.188129e-01 3.192397e+00
      vertex -4.753181e-01 -1.188129e-01 2.701223e+00
    endloop
  endfacet
  facet normal 4.836103e-01 -5.803324e-01 -6.552369e-01
    outer loop
      vertex 2.220446e-16 -8.317900e-01 3.683513e+00
      vertex -4.753181e-01 -1.188129e-01 2.701223e+00
      vertex 4.753181e-01 1.188129e-01 3.192397e+00
    endloop
  endfacet
  facet normal 4.835230e-01 -8.703143e-01 9.358743e-02
    outer loop
      vertex 1.663580e+00 8.317900e-01 3.683513e+00
      vertex 7.129771e-01 3.564719e-01 4.174628e+00
      vertex 4.753181e-01 1.188129e-01 3.192397e+00
    endloop
  endfacet
  facet normal 3.128538e-01 -8.342101e-01 4.541101e-01
    outer loop
      vertex 1.663580e+00 8.317900e-01 3.683513e+00
      vertex 4.753181e-01 1.188129e-01 3.192397e+00
      vertex 1.188262e+00 1.188129e-01 2.701223e+00
    endloop
  endfacet
  facet normal -4.836103e-01 -5.803324e-01 6.552369e-01
    outer loop
      vertex 1.663580e+00 8.317900e-01 3.683513e+00
      vertex 1.188262e+00 1.188129e-01 2.701223e+00
      vertex 2.138898e+00 -1.188129e-01 3.192397e+00
    endloop
  endfacet
  facet normal -8.703143e-01 -4.835230e-01 9.358743e-02
    outer loop
      vertex 1.663580e+00 8.317900e-01 3.683513e+00
      vertex 2.138898e+00 -1.188129e-01 3.192397e+00
      vertex 2.376557e+00 -3.564719e-01 4.174628e+00
    endloop
  endfacet
  facet normal -8.342101e-01 -3.128538e-01 4.541101e-01
    outer loop
      vertex 1.663580e+00 8.317900e-01 3.683513e+00
      vertex 2.376557e+00 -3.564719e-01 4.174628e+00
      vertex 2.376557e+00 3.564719e-01 4.665802e+00
    endloop
  endfacet
  facet normal -5.803324e-01 4.836103e-01 6.552369e-01
    outer loop
      vertex 1.663580e+00 8.317900e-01 3.683513e+00
      vertex 2.376557e+00 3.564719e-01 4.665802e+00
      vertex 2.614183e+00 1.307108e+00 4.174628e+00
    endloop
  endfacet
  facet normal -4.835230e-01 8.703143e-01 9.358743e-02
    outer loop
      vertex 1.663580e+00 8.317900e-01 3.683513e+00
      vertex 2.614183e+00 1.307108e+00 4.174628e+00
      vertex 2.851842e+00 1.544767e+00 3.192397e+00
    endloop
  endfacet
  facet normal -3.128538e-01 8.342101e-01 4.541101e-01
    outer loop
      vertex 1.663580e+00 8.317900e-01 3.683513e+00
      vertex 2.851842e+00 1.544767e+00 3.192397e+00
      vertex 2.138898e+00 1.544767e+00 2.701223e+00
    endloop
  endfacet
  facet normal 4.836103e-01 5.803324e-01 6.552369e-01
    outer loop
      vertex 1.663580e+00 8.317900e-01 3.683513e+00
      vertex 2.138898e+00 1.544767e+00 2.701223e+00
      vertex 1.188262e+00 1.782393e+00 3.192397e+00
    endloop
  endfacet
  facet normal 8.703143e-01 4.835230e-01 9.358743e-02
    outer loop
      vertex 1.663580e+00 8.317900e-01 3.683513e+00
      vertex 1.188262e+00 1.782393e+00 3.192397e+00
      vertex 9.506029e-01 2.020052e+00 4.174628e+00
    endloop
  endfacet
  facet normal 8.342101e-01 3.128538e-01 4.541101e-01
    outer loop
      vertex 1.663580e+00 8.317900e-01 3.683513e+00
      vertex 9.506029e-01 2.020052e+00 4.174628e+00
      vertex 9.506029e-01 1.307108e+00 4.665802e+00
    endloop
  endfacet
  facet normal 5.803324e-01 -4.836103e-01 6.552369e-01
    outer loop
      vertex 1.663580e+00 8.317900e-01 3.683513e+00
      vertex 9.506029e-01 1.307108e+00 4.665802e+00
      vertex 7.129771e-01 3.564719e-01 4.174628e+00
    endloop
  endfacet
  facet normal -4.835230e-01 8.703143e-01 9.358743e-02
    outer loop
      vertex 1.663580e+00 2.495370e+00 2.210108e+00
      vertex 7.129771e-01 2.020052e+00 1.718992e+00
      vertex 4.753181e-01 1.782393e+00 2.701223e+00
    endloop
  endfacet
  facet normal -3.128538e-01 8.342101e-01 4.541101e-01
    outer loop
      vertex 1.663580e+00 2.495370e+00 2.210108e+00
      vertex 4.753181e-01 1.782393e+00 2.701223e+00
      vertex 1.188262e+00 1.782393e+00 3.192397e+00
    endloop
  endfacet
  facet normal 4.836103e-01 5.803324e-01 6.552369e-01
    outer loop
      vertex 1.663580e+00 2.495370e+00 2.210108e+00
      vertex 1.188262e+00 1.782393e+00 3.192397e+00
      vertex 2.138898e+00 1.544767e+00 2.701223e+00
    endloop
  endfacet
  facet normal 8.703143e-01 4.835230e-01 9.358743e-02
    outer loop
      vertex 1.663580e+00 2.495370e+00 2.210108e+00
      vertex 2.138898e+00 1.544767e+00 2.701223e+00
      vertex 2.376557e+00 1.307108e+00 1.718992e+00
    endloop
  endfacet
  facet normal 8.342101e-01 3.128538e-01 4.541101e-01
    outer loop
      vertex 1.663580e+00 2.495370e+00 2.210108e+00
      vertex 2.376557e+00 1.307108e+00 1.718992e+00
      vertex 2.376557e+00 2.020052e+00 1.227818e+00
    endloop
  endfacet
  facet normal 5.803324e-01 -4.836103e-01 6.552369e-01
    outer loop
      vertex 1.663580e+00 2.495370e+00 2.210108e+00
      vertex 2.376557e+00 2.020052e+00 1.227818e+00
      vertex 2.614183e+00 2.970688e+00 1.718992e+00
    endloop
  endfacet
  facet normal 4.835230e-01 -8.703143e-01 9.358743e-02
    outer loop
      vertex 1.663580e+00 2.495370e+00 2.210108e+00
      vertex 2.614183e+00 2.970688e+00 1.718992e+00
      vertex 2.851842e+00 3.208347e+00 2.701223e+00
    endloop
  endfacet
  facet normal 3.128538e-01 -8.342101e-01 4.541101e-01
    outer loop
      vertex 1.663580e+00 2.495370e+00 2.210108e+00
      vertex 2.851842e+00 3.208347e+00 2.701223e+00
      vertex 2.138898e+00 3.208347e+00 3.192397e+00
    endloop
  endfacet
  facet normal -4.836103e-01 -5.803324e-01 6.552369e-01
    outer loop
      vertex 1.663580e+00 2.495370e+00 2.210108e+00
      vertex 2.138898e+00 3.208347e+00 3.192397e+00
      vertex 1.188262e+00 3.445973e+00 2.701223e+00
    endloop
  endfacet
  facet normal -8.703143e-01 -4.835230e-01 9.358743e-02
    outer loop
      vertex 1.663580e+00 2.495370e+00 2.210108e+00
      vertex 1.188262e+00 3.445973e+00 2.701223e+00
      vertex 9.506029e-01 3.683632e+00 1.718992e+00
    endloop
  endfacet
  facet normal -8.342101e-01 -3.128538e-01 4.541101e-01
    outer loop
      vertex 1.663580e+00 2.495370e+00 2.210108e+00
      vertex 9.506029e-01 3.683632e+00 1.718992e+00
      vertex 9.506029e-01 2.970688e+00 1.227818e+00
    endloop
  endfacet
  facet normal -5.803324e-01 4.836103e-01 6.552369e-01
    outer loop
      vertex 1.663580e+00 2.495370e+00 2.210108e+00
      vertex 9.506029e-01 2.970688e+00 1.227818e+00
      vertex 7.129771e-01 2.020052e+00 1.718992e+00
    endloop
  endfacet
  facet normal 8.703143e-01 4.835230e-01 9.358743e-02
    outer loop
      vertex 3.327160e+00 -8.317900e-01 7.367025e-01
      vertex 2.851842e+00 1.188129e-01 2.455871e-01
      vertex 2.614183e+00 3.564719e-01 1.227818e+00
    endloop
  endfacet
  facet normal 8.342101e-01 3.128538e-01 4.541101e-01
    outer loop
      vertex 3.327160e+00 -8.317900e-01 7.367025e-01
      vertex 2.614183e+00 3.564719e-01 1.227818e+00
      vertex 2.614183e+00 -3.564719e-01 1.718992e+00
    endloop
  endfacet
  facet normal 5.803324e-01 -4.836103e-01 6.552369e-01
    outer loop
      vertex 3.327160e+00 -8.317900e-01 7.367025e-01
      vertex 2.614183e+00 -3.564719e-01 1.718992e+00
      vertex 2.376557e+00 -1.307108e+00 1.227818e+00
    endloop
  endfacet
  facet normal 4.835230e-01 -8.703143e-01 9.358743e-02
    outer loop
      vertex 3.327160e+00 -8.317900e-01 7.367025e-01
      vertex 2.376557e+00 -1.307108e+00 1.227818e+00
      vertex 2.138898e+00 -1.544767e+00 2.455871e-01
    endloop
  endfacet
  facet normal 3.128538e-01 -8.342101e-01 4.541101e-01
    outer loop
      vertex 3.327160e+00 -8.317900e-01 7.367025e-01
      vertex 2.138898e+00 -1.544767e+00 2.455871e-01
      vertex 2.851842e+00 -1.544767e+00 -2.455871e-01
    endloop
  endfacet
  facet normal -4.836103e-01 -5.803324e-01 6.552369e-01
    outer loop
      vertex 3.327160e+00 -8.317900e-01 7.367025e-01
      vertex 2.851842e+00 -1.544767e+00 -2.455871e-01
      vertex 3.802478e+00 -1.782393e+00 2.455871e-01
    endloop
  endfacet
  facet normal -8.703143e-01 -4.835230e-01 9.358743e-02
    outer loop
      vertex 3.327160e+00 -8.317900e-01 7.367025e-01
      vertex 3.802478e+00 -1.782393e+00 2.455871e-01
      vertex 4.040137e+00 -2.020052e+00 1.227818e+00
    endloop
  endfacet
  facet normal -8.342101e-01 -3.128538e-01 4.541101e-01
    outer loop
      vertex 3.327160e+00 -8.317900e-01 7.367025e-01
      vertex 4.040137e+00 -2.020052e+00 1.227818e+00
      vertex 4.040137e+00 -1.307108e+00 1.718992e+00
    endloop
  endfacet
  facet normal -5.803324e-01 4.836103e-01 6.552369e-01
    outer loop
      vertex 3.327160e+00 -8.317900e-01 7.367025e-01
      vertex 4.040137e+00 -1.307108e+00 1.718992e+00
      vertex 4.277763e+00 -3.564719e-01 1.227818e+00
    endloop
  endfacet
  facet normal -4.835230e-01 8.703143e-01 9.358743e-02
    outer loop
      vertex 3.327160e+00 -8.317900e-01 7.367025e-01
      vertex 4.277763e+00 -3.564719e-01 1.227818e+00
      vertex 4.515422e+00 -1.188129e-01 2.455871e-01
    endloop
  endfacet
  facet normal -3.128538e-01 8.342101e-01 4.541101e-01
    outer loop
      vertex 3.327160e+00 -8.317900e-01 7.367025e-01
      vertex 4.515422e+00 -1.188129e-01 2.455871e-01
      vertex 3.802478e+00 -1.188129e-01 -2.455871e-01
    endloop
  endfacet
  facet normal 4.836103e-01 5.803324e-01 6.552369e-01
    outer loop
      vertex 3.327160e+00 -8.317900e-01 7.367025e-01
      vertex 3.802478e+00 -1.188129e-01 -2.455871e-01
      vertex 2.851842e+00 1.188129e-01 2.455871e-01
    endloop
  endfacet
  facet normal 4.835230e-01 -8.703143e-01 9.358743e-02
    outer loop
      vertex 3.327160e+00 2.495370e+00 7.367025e-01
      vertex 2.376557e+00 2.020052e+00 1.227818e+00
      vertex 2.138898e+00 1.782393e+00 2.455871e-01
    endloop
  endfacet
  facet normal 3.128538e-01 -8.342101e-01 4.541101e-01
    outer loop
      vertex 3.327160e+00 2.495370e+00 7.367025e-01
      vertex 2.138898e+00 1.782393e+00 2.455871e-01
      vertex 2.851842e+00 1.782393e+00 -2.455871e-01
    endloop
  endfacet
  facet normal -4.836103e-01 -5.803324e-01 6.552369e-01
    outer loop
      vertex 3.327160e+00 2.495370e+00 7.367025e-01
      vertex 2.851842e+00 1.782393e+00 -2.455871e-01
      vertex 3.802478e+00 1.544767e+00 2.455871e-01
    endloop
  endfacet
  facet normal -8.703143e-01 -4.835230e-01 9.358743e-02
    outer loop
      vertex 3.327160e+00 2.495370e+00 7.367025e-01
      vertex 3.802478e+00 1.544767e+00 2.455871e-01
      vertex 4.040137e+00 1.307108e+00 1.227818e+00
    endloop
  endfacet
  facet normal -8.342101e-01 -3.128538e-01 4.541101e-01
    outer loop
      vertex 3.327160e+00 2.495370e+00 7.367025e-01
      vertex 4.040137e+00 1.307108e+00 1.227818e+00
      vertex 4.040137e+00 2.020052e+00 1.718992e+00
    endloop
  endfacet
  facet normal -5.803324e-01 4.836103e-01 6.552369e-01
    outer loop
      vertex 3.327160e+00 2.495370e+00 7.367025e-01
      vertex 4.040137e+00 2.020052e+00 1.718992e+00
      vertex 4.277763e+00 2.970688e+00 1.227818e+00
    endloop
  endfacet
  facet normal -4.835230e-01 8.703143e-01 9.358743e-02
    outer loop
      vertex 3.327160e+00 2.495370e+00 7.367025e-01
      vertex 4.277763e+00 2.970688e+00 1.227818e+00
      vertex 4.515422e+00 3.208347e+00 2.455871e-01
    endloop
  endfacet
  facet normal -3.128538e-01 8.342101e-01 4.541101e-01
    outer loop
      vertex 3.327160e+00 2.495370e+00 7.367025e-01
      vertex 4.515422e+00 3.208347e+00 2.455871e-01
      vertex 3.802478e+00 3.208347e+00 -2.455871e-01
    endloop
  endfacet
  facet normal 4.836103e-01 5.803324e-01 6.552369e-01
    outer loop
      vertex 3.327160e+00 2.495370e+00 7.367025e-01
      vertex 3.802478e+00 3.208347e+00 -2.455871e-01
      vertex 2.851842e+00 3.445973e+00 2.455871e-01
    endloop
  endfacet
  facet normal 8.703143e-01 4.835230e-01 9.358743e-02
    outer loop
      vertex 3.327160e+00 2.495370e+00 7.367025e-01
      vertex 2.851842e+00 3.445973e+00 2.455871e-01
      vertex 2.614183e+00 3.683632e+00 1.227818e+00
    endloop
  endfacet
  facet normal 8.342101e-01 3.128538e-01 4.541101e-01
    outer loop
      vertex 3.327160e+00 2.495370e+00 7.367025e-01
      vertex 2.614183e+00 3.683632e+00 1.227818e+00
      vertex 2.614183e+00 2.970688e+00 1.718992e+00
    endloop
  endfacet
  facet normal 5.803324e-01 -4.836103e-01 6.552369e-01
    outer loop
      vertex 3.327160e+00 2.495370e+00 7.367025e-01
      vertex 2.614183e+00 2.970688e+00 1.718992e+00
      vertex 2.376557e+00 2.020052e+00 1.227818e+00
    endloop
  endfacet
  facet normal 4.835230e-01 8.703143e-01 -9.358743e-02
    outer loop
      vertex 3.423188e-16 2.495370e+00 3.683513e+00
      vertex 9.506029e-01 2.020052e+00 4.174628e+00
      vertex 1.188262e+00 1.782393e+00 3.192397e+00
    endloop
  endfacet
  facet normal 3.128538e-01 8.342101e-01 -4.541101e-01
    outer loop
      vertex 3.423188e-16 2.495370e+00 3.683513e+00
      vertex 1.188262e+00 1.782393e+00 3.192397e+00
      vertex 4.753181e-01 1.782393e+00 2.701223e+00
    endloop
  endfacet
  facet normal -4.836103e-01 5.803324e-01 -6.552369e-01
    outer loop
      vertex 3.423188e-16 2.495370e+00 3.683513e+00
      vertex 4.753181e-01 1.782393e+00 2.701223e+00
      vertex -4.753181e-01 1.544767e+00 3.192397e+00
    endloop
  endfacet
  facet normal -8.703143e-01 4.835230e-01 -9.358743e-02
    outer loop
      vertex 3.423188e-16 2.495370e+00 3.683513e+00
      vertex -4.753181e-01 1.544767e+00 3.192397e+00
      vertex -7.129771e-01 1.307108e+00 4.174628e+00
    endloop
  endfacet
  facet normal -8.342101e-01 3.128538e-01 -4.541101e-01
    outer loop
      vertex 3.423188e-16 2.495370e+00 3.683513e+00
      vertex -7.129771e-01 1.307108e+00 4.174628e+00
      vertex -7.129771e-01 2.020052e+00 4.665802e+00
    endloop
  endfacet
  facet normal -5.803324e-01 -4.836103e-01 -6.552369e-01
    outer loop
      vertex 3.423188e-16 2.495370e+00 3.683513e+00
      vertex -7.129771e-01 2.020052e+00 4.665802e+00
      vertex -9.506029e-01 2.970688e+00 4.174628e+00
    endloop
  endfacet
  facet normal -4.835230e-01 -8.703143e-01 -9.358743e-02
    outer loop
      vertex 3.423188e-16 2.495370e+00 3.683513e+00
      vertex -9.506029e-01 2.970688e+00 4.174628e+00
      vertex -1.188262e+00 3.208347e+00 3.192397e+00
    endloop
  endfacet
  facet normal -3.128538e-01 -8.342101e-01 -4.541101e-01
    outer loop
      vertex 3.423188e-16 2.495370e+00 3.683513e+00
      vertex -1.188262e+00 3.208347e+00 3.192397e+00
      vertex -4.753181e-01 3.208347e+00 2.701223e+00
    endloop
  endfacet
  facet normal 4.836103e-01 -5.803324e-01 -6.552369e-01
    outer loop
      vertex 3.423188e-16 2.495370e+00 3.683513e+00
      vertex -4.753181e-01 3.208347e+00 2.701223e+00
      vertex 4.753181e-01 3.445973e+00 3.192397e+00
    endloop
  endfacet
  facet normal 8.703143e-01 -4.835230e-01 -9.358743e-02
    outer loop
      vertex 3.423188e-16 2.495370e+00 3.683513e+00
      vertex 4.753181e-01 3.445973e+00 3.192397e+00
      vertex 7.129771e-01 3.683632e+00 4.174628e+00
    endloop
  endfacet
  facet normal 8.342101e-01 -3.128538e-01 -4.541101e-01
    outer loop
      vertex 3.423188e-16 2.495370e+00 3.683513e+00
      vertex 7.129771e-01 3.683632e+00 4.174628e+00
      vertex 7.129771e-01 2.970688e+00 4.665802e+00
    endloop
  endfacet
  facet normal 5.803324e-01 4.836103e-01 -6.552369e-01
    outer loop
      vertex 3.423188e-16 2.495370e+00 3.683513e+00
      vertex 7.129771e-01 2.970688e+00 4.665802e+00
      vertex 9.506029e-01 2.020052e+00 4.174628e+00
    endloop
  endfacet
  facet normal 4.835230e-01 8.703143e-01 -9.358743e-02
    outer loop
      vertex 3.327160e+00 8.317900e-01 2.210108e+00
      vertex 2.376557e+00 1.307108e+00 1.718992e+00
      vertex 2.138898e+00 1.544767e+00 2.701223e+00
    endloop
  endfacet
  facet normal 3.128538e-01 8.342101e-01 -4.541101e-01
    outer loop
      vertex 3.327160e+00 8.317900e-01 2.210108e+00
      vertex 2.138898e+00 1.544767e+00 2.701223e+00
      vertex 2.851842e+00 1.544767e+00 3.192397e+00
    endloop
  endfacet
  facet normal -4.836103e-01 5.803324e-01 -6.552369e-01
    outer loop
      vertex 3.327160e+00 8.317900e-01 2.210108e+00
      vertex 2.851842e+00 1.544767e+00 3.192397e+00
      vertex 3.802478e+00 1.782393e+00 2.701223e+00
    endloop
  endfacet
  facet normal -8.703143e-01 4.835230e-01 -9.358743e-02
    outer loop
      vertex 3.327160e+00 8.317900e-01 2.210108e+00
      vertex 3.802478e+00 1.782393e+00 2.701223e+00
      vertex 4.040137e+00 2.020052e+00 1.718992e+00
    endloop
  endfacet
  facet normal -8.342101e-01 3.128538e-01 -4.541101e-01
    outer loop
      vertex 3.327160e+00 8.317900e-01 2.210108e+00
      vertex 4.040137e+00 2.020052e+00 1.718992e+00
      vertex 4.040137e+00 1.307108e+00 1.227818e+00
    endloop
  endfacet
  facet normal -5.803324e-01 -4.836103e-01 -6.552369e-01
    outer loop
      vertex 3.327160e+00 8.317900e-01 2.210108e+00
      vertex 4.040137e+00 1.307108e+00 1.227818e+00
      vertex 4.277763e+00 3.564719e-01 1.718992e+00
    endloop
  endfacet
  facet normal -4.835230e-01 -8.703143e-01 -9.358743e-02
    outer loop
      vertex 3.327160e+00 8.317900e-01 2.210108e+00
      vertex 4.277763e+00 3.564719e-01 1.718992e+00
      vertex 4.515422e+00 1.188129e-01 2.701223e+00
    endloop
  endfacet
  facet normal -3.128538e-01 -8.342101e-01 -4.541101e-01
    outer loop
      vertex 3.327160e+00 8.317900e-01 2.210108e+00
      vertex 4.515422e+00 1.188129e-01 2.701223e+00
      vertex 3.802478e+00 1.188129e-01 3.192397e+00
    endloop
  endfacet
  facet normal 4.836103e-01 -5.803324e-01 -6.552369e-01
    outer loop
      vertex 3.327160e+00 8.317900e-01 2.210108e+00
      vertex 3.802478e+00 1.188129e-01 3.192397e+00
      vertex 2.851842e+00 -1.188129e-01 2.701223e+00
    endloop
  endfacet
  facet normal 8.703143e-01 -4.835230e-01 -9.358743e-02
    outer loop
      vertex 3.327160e+00 8.317900e-01 2.210108e+00
      vertex 2.851842e+00 -1.188129e-01 2.701223e+00
      vertex 2.614183e+00 -3.564719e-01 1.718992e+00
    endloop
  endfacet
  facet normal 8.342101e-01 -3.128538e-01 -4.541101e-01
    outer loop
      vertex 3.327160e+00 8.317900e-01 2.210108e+00
      vertex 2.614183e+00 -3.564719e-01 1.718992e+00
      vertex 2.614183e+00 3.564719e-01 1.227818e+00
    endloop
  endfacet
  facet normal 5.803324e-01 4.836103e-01 -6.552369e-01
    outer loop
      vertex 3.327160e+00 8.317900e-01 2.210108e+00
      vertex 2.614183e+00 3.564719e-01 1.227818e+00
      vertex 2.376557e+00 1.307108e+00 1.718992e+00
    endloop
  endfacet
  facet normal 4.835230e-01 -8.703143e-01 9.358743e-02
    outer loop
      vertex 4.533411e-16 8.317900e-01 5.156917e+00
      vertex 9.506029e-01 1.307108e+00 4.665802e+00
      vertex 1.188262e+00 1.544767e+00 5.648033e+00
    endloop
  endfacet
  facet normal 3.128538e-01 -8.342101e-01 4.541101e-01
    outer loop
      vertex 4.533411e-16 8.317900e-01 5.156917e+00
      vertex 1.188262e+00 1.544767e+00 5.648033e+00
      vertex 4.753181e-01 1.544767e+00 6.139207e+00
    endloop
  endfacet
  facet normal -4.836103e-01 -5.803324e-01 6.552369e-01
    outer loop
      vertex 4.533411e-16 8.317900e-01 5.156917e+00
      vertex 4.753181e-01 1.544767e+00 6.139207e+00
      vertex -4.753181e-01 1.782393e+00 5.648033e+00
    endloop
  endfacet
  facet normal -8.703143e-01 -4.835230e-01 9.358743e-02
    outer loop
      vertex 4.533411e-16 8.317900e-01 5.156917e+00
      vertex -4.753181e-01 1.782393e+00 5.648033e+00
      vertex -7.129771e-01 2.020052e+00 4.665802e+00
    endloop
  endfacet
  facet normal -8.342101e-01 -3.128538e-01 4.541101e-01
    outer loop
      vertex 4.533411e-16 8.317900e-01 5.156917e+00
      vertex -7.129771e-01 2.020052e+00 4.665802e+00
      vertex -7.129771e-01 1.307108e+00 4.174628e+00
    endloop
  endfacet
  facet normal -5.803324e-01 4.836103e-01 6.552369e-01
    outer loop
      vertex 4.533411e-16 8.317900e-01 5.156917e+00
      vertex -7.129771e-01 1.307108e+00 4.174628e+00
      vertex -9.506029e-01 3.564719e-01 4.665802e+00
    endloop
  endfacet
  facet normal -4.835230e-01 8.703143e-01 9.358743e-02
    outer loop
      vertex 4.533411e-16 8.317900e-01 5.156917e+00
      vertex -9.506029e-01 3.564719e-01 4.665802e+00
      vertex -1.188262e+00 1.188129e-01 5.648033e+00
    endloop
  endfacet
  facet normal -3.128538e-01 8.342101e-01 4.541101e-01
    outer loop
      vertex 4.533411e-16 8.317900e-01 5.156917e+00
      vertex -1.188262e+00 1.188129e-01 5.648033e+00
      vertex -4.753181e-01 1.188129e-01 6.139207e+00
    endloop
  endfacet
  facet normal 4.836103e-01 5.803324e-01 6.552369e-01
    outer loop
      vertex 4.533411e-16 8.317900e-01 5.156917e+00
      vertex -4.753181e-01 1.188129e-01 6.139207e+00
      vertex 4.753181e-01 -1.188129e-01 5.648033e+00
    endloop
  endfacet
  facet normal 8.703143e-01 4.835230e-01 9.358743e-02
    outer loop
      vertex 4.533411e-16 8.317900e-01 5.156917e+00
      vertex 4.753181e-01 -1.188129e-01 5.648033e+00
      vertex 7.129771e-01 -3.564719e-01 4.665802e+00
    endloop
  endfacet
  facet normal 8.342101e-01 3.128538e-01 4.541101e-01
    outer loop
      vertex 4.533411e-16 8.317900e-01 5.156917e+00
      vertex 7.129771e-01 -3.564719e-01 4.665802e+00
      vertex 7.129771e-01 3.564719e-01 4.174628e+00
    endloop
  endfacet
  facet normal 5.803324e-01 -4.836103e-01 6.552369e-01
    outer loop
      vertex 4.533411e-16 8.317900e-01 5.156917e+00
      vertex 7.129771e-01 3.564719e-01 4.174628e+00
      vertex 9.506029e-01 1.307108e+00 4.665802e+00
    endloop
  endfacet
  facet normal 8.703143e-01 -4.835230e-01 -9.358743e-02
    outer loop
      vertex 1.663580e+00 2.495370e+00 5.156918e+00
      vertex 1.188262e+00 1.544767e+00 5.648033e+00
      vertex 9.506029e-01 1.307108e+00 4.665802e+00
    endloop
  endfacet
  facet normal 8.342101e-01 -3.128538e-01 -4.541101e-01
    outer loop
      vertex 1.663580e+00 2.495370e+00 5.156918e+00
      vertex 9.506029e-01 1.307108e+00 4.665802e+00
      vertex 9.506029e-01 2.020052e+00 4.174628e+00
    endloop
  endfacet
  facet normal 5.803324e-01 4.836103e-01 -6.552369e-01
    outer loop
      vertex 1.663580e+00 2.495370e+00 5.156918e+00
      vertex 9.506029e-01 2.020052e+00 4.174628e+00
      vertex 7.129771e-01 2.970688e+00 4.665802e+00
    endloop
  endfacet
  facet normal 4.835230e-01 8.703143e-01 -9.358743e-02
    outer loop
      vertex 1.663580e+00 2.495370e+00 5.156918e+00
      vertex 7.129771e-01 2.970688e+00 4.665802e+00
      vertex 4.753181e-01 3.208347e+00 5.648033e+00
    endloop
  endfacet
  facet normal 3.128538e-01 8.342101e-01 -4.541101e-01
    outer loop
      vertex 1.663580e+00 2.495370e+00 5.156918e+00
      vertex 4.753181e-01 3.208347e+00 5.648033e+00
      vertex 1.188262e+00 3.208347e+00 6.139207e+00
    endloop
  endfacet
  facet normal -4.836103e-01 5.803324e-01 -6.552369e-01
    outer loop
      vertex 1.663580e+00 2.495370e+00 5.156918e+00
      vertex 1.188262e+00 3.208347e+00 6.139207e+00
      vertex 2.138898e+00 3.445973e+00 5.648033e+00
    endloop
  endfacet
  facet normal -8.703143e-01 4.835230e-01 -9.358743e-02
    outer loop
      vertex 1.663580e+00 2.495370e+00 5.156918e+00
      vertex 2.138898e+00 3.445973e+00 5.648033e+00
      vertex 2.376557e+00 3.683632e+00 4.665802e+00
    endloop
  endfacet
  facet normal -8.342101e-01 3.128538e-01 -4.541101e-01
    outer loop
      vertex 1.663580e+00 2.495370e+00 5.156918e+00
      vertex 2.376557e+00 3.683632e+00 4.665802e+00
      vertex 2.376557e+00 2.970688e+00 4.174628e+00
    endloop
  endfacet
  facet normal -5.803324e-01 -4.836103e-01 -6.552369e-01
    outer loop
      vertex 1.663580e+00 2.495370e+00 5.156918e+00
      vertex 2.376557e+00 2.970688e+00 4.174628e+00
      vertex 2.614183e+00 2.020052e+00 4.665802e+00
    endloop
  endfacet
  facet normal -4.835230e-01 -8.703143e-01 -9.358743e-02
    outer loop
      vertex 1.663580e+00 2.495370e+00 5.156918e+00
      vertex 2.614183e+00 2.020052e+00 4.665802e+00
      vertex 2.851842e+00 1.782393e+00 5.648033e+00
    endloop
  endfacet
  facet normal -3.128538e-01 -8.342101e-01 -4.541101e-01
    outer loop
      vertex 1.663580e+00 2.495370e+00 5.156918e+00
      vertex 2.851842e+00 1.782393e+00 5.648033e+00
      vertex 2.138898e+00 1.782393e+00 6.139207e+00
    endloop
  endfacet
  facet normal 4.836103e-01 -5.803324e-01 -6.552369e-01
    outer loop
      vertex 1.663580e+00 2.495370e+00 5.156918e+00
      vertex 2.138898e+00 1.782393e+00 6.139207e+00
      vertex 1.188262e+00 1.544767e+00 5.648033e+00
    endloop
  endfacet
  facet normal -8.703143e-01 4.835230e-01 -9.358743e-02
    outer loop
      vertex 1.663580e+00 4.158950e+00 7.367025e-01
      vertex 1.188262e+00 3.208347e+00 2.455871e-01
      vertex 9.506029e-01 2.970688e+00 1.227818e+00
    endloop
  endfacet
  facet normal -8.342101e-01 3.128538e-01 -4.541101e-01
    outer loop
      vertex 1.663580e+00 4.158950e+00 7.367025e-01
      vertex 9.506029e-01 2.970688e+00 1.227818e+00
      vertex 9.506029e-01 3.683632e+00 1.718992e+00
    endloop
  endfacet
  facet normal -5.803324e-01 -4.836103e-01 -6.552369e-01
    outer loop
      vertex 1.663580e+00 4.158950e+00 7.367025e-01
      vertex 9.506029e-01 3.683632e+00 1.718992e+00
      vertex 7.129771e-01 4.634268e+00 1.227818e+00
    endloop
  endfacet
  facet normal -4.835230e-01 -8.703143e-01 -9.358743e-02
    outer loop
      vertex 1.663580e+00 4.158950e+00 7.367025e-01
      vertex 7.129771e-01 4.634268e+00 1.227818e+00
      vertex 4.753181e-01 4.871927e+00 2.455871e-01
    endloop
  endfacet
  facet normal -3.128538e-01 -8.342101e-01 -4.541101e-01
    outer loop
      vertex 1.663580e+00 4.158950e+00 7.367025e-01
      vertex 4.753181e-01 4.871927e+00 2.455871e-01
      vertex 1.188262e+00 4.871927e+00 -2.455871e-01
    endloop
  endfacet
  facet normal 4.836103e-01 -5.803324e-01 -6.552369e-01
    outer loop
      vertex 1.663580e+00 4.158950e+00 7.367025e-01
      vertex 1.188262e+00 4.871927e+00 -2.455871e-01
      vertex 2.138898e+00 5.109553e+00 2.455871e-01
    endloop
  endfacet
  facet normal 8.703143e-01 -4.835230e-01 -9.358743e-02
    outer loop
      vertex 1.663580e+00 4.158950e+00 7.367025e-01
      vertex 2.138898e+00 5.109553e+00 2.455871e-01
      vertex 2.376557e+00 5.347212e+00 1.227818e+00
    endloop
  endfacet
  facet normal 8.342101e-01 -3.128538e-01 -4.541101e-01
    outer loop
      vertex 1.663580e+00 4.158950e+00 7.367025e-01
      vertex 2.376557e+00 5.347212e+00 1.227818e+00
      vertex 2.376557e+00 4.634268e+00 1.718992e+00
    endloop
  endfacet
  facet normal 5.803324e-01 4.836103e-01 -6.552369e-01
    outer loop
      vertex 1.663580e+00 4.158950e+00 7.367025e-01
      vertex 2.376557e+00 4.634268e+00 1.718992e+00
      vertex 2.614183e+00 3.683632e+00 1.227818e+00
    endloop
  endfacet
  facet normal 4.835230e-01 8.703143e-01 -9.358743e-02
    outer loop
      vertex 1.663580e+00 4.158950e+00 7.367025e-01
      vertex 2.614183e+00 3.683632e+00 1.227818e+00
      vertex 2.851842e+00 3.445973e+00 2.455871e-01
    endloop
  endfacet
  facet normal 3.128538e-01 8.342101e-01 -4.541101e-01
    outer loop
      vertex 1.663580e+00 4.158950e+00 7.367025e-01
      vertex 2.851842e+00 3.445973e+00 2.455871e-01
      vertex 2.138898e+00 3.445973e+00 -2.455871e-01
    endloop
  endfacet
  facet normal -4.836103e-01 5.803324e-01 -6.552369e-01
    outer loop
      vertex 1.663580e+00 4.158950e+00 7.367025e-01
      vertex 2.138898e+00 3.445973e+00 -2.455871e-01
      vertex 1.188262e+00 3.208347e+00 2.455871e-01
    endloop
  endfacet
  facet normal -4.835230e-01 8.703143e-01 9.358743e-02
    outer loop
      vertex 3.327160e+00 8.317900e-01 5.156917e+00
      vertex 2.376557e+00 3.564719e-01 4.665802e+00
      vertex 2.138898e+00 1.188129e-01 5.648033e+00
    endloop
  endfacet
  facet normal -3.128538e-01 8.342101e-01 4.541101e-01
    outer loop
      vertex 3.327160e+00 8.317900e-01 5.156917e+00
      vertex 2.138898e+00 1.188129e-01 5.648033e+00
      vertex 2.851842e+00 1.188129e-01 6.139207e+00
    endloop
  endfacet
  facet normal 4.836103e-01 5.803324e-01 6.552369e-01
    outer loop
      vertex 3.327160e+00 8.317900e-01 5.156917e+00
      vertex 2.851842e+00 1.188129e-01 6.139207e+00
      vertex 3.802478e+00 -1.188129e-01 5.648033e+00
    endloop
  endfacet
  facet normal 8.703143e-01 4.835230e-01 9.358743e-02
    outer loop
      vertex 3.327160e+00 8.317900e-01 5.156917e+00
      vertex 3.802478e+00 -1.188129e-01 5.648033e+00
      vertex 4.040137e+00 -3.564719e-01 4.665802e+00
    endloop
  endfacet
  facet normal 8.342101e-01 3.128538e-01 4.541101e-01
    outer loop
      vertex 3.327160e+00 8.317900e-01 5.156917e+00
      vertex 4.040137e+00 -3.564719e-01 4.665802e+00
      vertex 4.040137e+00 3.564719e-01 4.174628e+00
    endloop
  endfacet
  facet normal 5.803324e-01 -4.836103e-01 6.552369e-01
    outer loop
      vertex 3.327160e+00 8.317900e-01 5.156917e+00
      vertex 4.040137e+00 3.564719e-01 4.174628e+00
      vertex 4.277763e+00 1.307108e+00 4.665802e+00
    endloop
  endfacet
  facet normal 4.835230e-01 -8.703143e-01 9.358743e-02
    outer loop
      vertex 3.327160e+00 8.317900e-01 5.156917e+00
      vertex 4.277763e+00 1.307108e+00 4.665802e+00
      vertex 4.515422e+00 1.544767e+00 5.648033e+00
    endloop
  endfacet
  facet normal 3.128538e-01 -8.342101e-01 4.541101e-01
    outer loop
      vertex 3.327160e+00 8.317900e-01 5.156917e+00
      vertex 4.515422e+00 1.544767e+00 5.648033e+00
      vertex 3.802478e+00 1.544767e+00 6.139207e+00
    endloop
  endfacet
  facet normal -4.836103e-01 -5.803324e-01 6.552369e-01
    outer loop
      vertex 3.327160e+00 8.317900e-01 5.156917e+00
      vertex 3.802478e+00 1.544767e+00 6.139207e+00
      vertex 2.851842e+00 1.782393e+00 5.648033e+00
    endloop
  endfacet
  facet normal -8.703143e-01 -4.835230e-01 9.358743e-02
    outer loop
      vertex 3.327160e+00 8.317900e-01 5.156917e+00
      vertex 2.851842e+00 1.782393e+00 5.648033e+00
      vertex 2.614183e+00 2.020052e+00 4.665802e+00
    endloop
  endfacet
  facet normal -8.342101e-01 -3.128538e-01 4.541101e-01
    outer loop
      vertex 3.327160e+00 8.317900e-01 5.156917e+00
      vertex 2.614183e+00 2.020052e+00 4.665802e+00
      vertex 2.614183e+00 1.307108e+00 4.174628e+00
    endloop
  endfacet
  facet normal -5.803324e-01 4.836103e-01 6.552369e-01
    outer loop
      vertex 3.327160e+00 8.317900e-01 5.156917e+00
      vertex 2.614183e+00 1.307108e+00 4.174628e+00
      vertex 2.376557e+00 3.564719e-01 4.665802e+00
    endloop
  endfacet
  facet normal -8.703143e-01 4.835230e-01 -9.358743e-02
    outer loop
      vertex 1.663580e+00 -8.317900e-01 5.156918e+00
      vertex 2.138898e+00 1.188129e-01 5.648033e+00
      vertex 2.376557e+00 3.564719e-01 4.665802e+00
    endloop
  endfacet
  facet normal -8.342101e-01 3.128538e-01 -4.541101e-01
    outer loop
      vertex 1.663580e+00 -8.317900e-01 5.156918e+00
      vertex 2.376557e+00 3.564719e-01 4.665802e+00
      vertex 2.376557e+00 -3.564719e-01 4.174628e+00
    endloop
  endfacet
  facet normal -5.803324e-01 -4.836103e-01 -6.552369e-01
    outer loop
      vertex 1.663580e+00 -8.317900e-01 5.156918e+00
      vertex 2.376557e+00 -3.564719e-01 4.174628e+00
      vertex 2.614183e+00 -1.307108e+00 4.665802e+00
    endloop
  endfacet
  facet normal -4.835230e-01 -8.703143e-01 -9.358743e-02
    outer loop
      vertex 1.663580e+00 -8.317900e-01 5.156918e+00
      vertex 2.614183e+00 -1.307108e+00 4.665802e+00
      vertex 2.851842e+00 -1.544767e+00 5.648033e+00
    endloop
  endfacet
  facet normal -3.128538e-01 -8.342101e-01 -4.541101e-01
    outer loop
      vertex 1.663580e+00 -8.317900e-01 5.156918e+00
      vertex 2.851842e+00 -1.544767e+00 5.648033e+00
      vertex 2.138898e+00 -1.544767e+00 6.139207e+00
    endloop
  endfacet
  facet normal 4.836103e-01 -5.803324e-01 -6.552369e-01
    outer loop
      vertex 1.663580e+00 -8.317900e-01 5.156918e+00
      vertex 2.138898e+00 -1.544767e+00 6.139207e+00
      vertex 1.188262e+00 -1.782393e+00 5.648033e+00
    endloop
  endfacet
  facet normal 8.703143e-01 -4.835230e-01 -9.358743e-02
    outer loop
      vertex 1.663580e+00 -8.317900e-01 5.156918e+00
      vertex 1.188262e+00 -1.782393e+00 5.648033e+00
      vertex 9.506029e-01 -2.020052e+00 4.665802e+00
    endloop
  endfacet
  facet normal 8.342101e-01 -3.128538e-01 -4.541101e-01
    outer loop
      vertex 1.663580e+00 -8.317900e-01 5.156918e+00
      vertex 9.506029e-01 -2.020052e+00 4.665802e+00
      vertex 9.506029e-01 -1.307108e+00 4.174628e+00
    endloop
  endfacet
  facet normal 5.803324e-01 4.836103e-01 -6.552369e-01
    outer loop
      vertex 1.663580e+00 -8.317900e-01 5.156918e+00
      vertex 9.506029e-01 -1.307108e+00 4.174628e+00
      vertex 7.129771e-01 -3.564719e-01 4.665802e+00
    endloop
  endfacet
  facet normal 4.835230e-01 8.703143e-01 -9.358743e-02
    outer loop
      vertex 1.663580e+00 -8.317900e-01 5.156918e+00
      vertex 7.129771e-01 -3.564719e-01 4.665802e+00
      vertex 4.753181e-01 -1.188129e-01 5.648033e+00
    endloop
  endfacet
  facet normal 3.128538e-01 8.342101e-01 -4.541101e-01
    outer loop
      vertex 1.663580e+00 -8.317900e-01 5.156918e+00
      vertex 4.753181e-01 -1.188129e-01 5.648033e+00
      vertex 1.188262e+00 -1.188129e-01 6.139207e+00
    endloop
  endfacet
  facet normal -4.836103e-01 5.803324e-01 -6.552369e-01
    outer loop
      vertex 1.663580e+00 -8.317900e-01 5.156918e+00
      vertex 1.188262e+00 -1.188129e-01 6.139207e+00
      vertex 2.138898e+00 1.188129e-01 5.648033e+00
    endloop
  endfacet
  facet normal -8.703143e-01 4.835230e-01 -9.358743e-02
    outer loop
      vertex 3.327160e+00 2.495370e+00 3.683513e+00
      vertex 2.851842e+00 1.544767e+00 3.192397e+00
      vertex 2.614183e+00 1.307108e+00 4.174628e+00
    endloop
  endfacet
  facet normal -8.342101e-01 3.128538e-01 -4.541101e-01
    outer loop
      vertex 3.327160e+00 2.495370e+00 3.683513e+00
      vertex 2.614183e+00 1.307108e+00 4.174628e+00
      vertex 2.614183e+00 2.020052e+00 4.665802e+00
    endloop
  endfacet
  facet normal -5.803324e-01 -4.836103e-01 -6.552369e-01
    outer loop
      vertex 3.327160e+00 2.495370e+00 3.683513e+00
      vertex 2.614183e+00 2.020052e+00 4.665802e+00
      vertex 2.376557e+00 2.970688e+00 4.174628e+00
    endloop
  endfacet
  facet normal -4.835230e-01 -8.703143e-01 -9.358743e-02
    outer loop
      vertex 3.327160e+00 2.495370e+00 3.683513e+00
      vertex 2.376557e+00 2.970688e+00 4.174628e+00
      vertex 2.138898e+00 3.208347e+00 3.192397e+00
    endloop
  endfacet
  facet normal -3.128538e-01 -8.342101e-01 -4.541101e-01
    outer loop
      vertex 3.327160e+00 2.495370e+00 3.683513e+00
      vertex 2.138898e+00 3.208347e+00 3.192397e+00
      vertex 2.851842e+00 3.208347e+00 2.701223e+00
    endloop
  endfacet
  facet normal 4.836103e-01 -5.803324e-01 -6.552369e-01
    outer loop
      vertex 3.327160e+00 2.495370e+00 3.683513e+00
      vertex 2.851842e+00 3.208347e+00 2.701223e+00
      vertex 3.802478e+00 3.445973e+00 3.192397e+00
    endloop
  endfacet
  facet normal 8.703143e-01 -4.835230e-01 -9.358743e-02
    outer loop
      vertex 3.327160e+00 2.495370e+00 3.683513e+00
      vertex 3.802478e+00 3.445973e+00 3.192397e+00
      vertex 4.040137e+00 3.683632e+00 4.174628e+00
    endloop
  endfacet
  facet normal 8.342101e-01 -3.128538e-01 -4.541101e-01
    outer loop
      vertex 3.327160e+00 2.495370e+00 3.683513e+00
      vertex 4.040137e+00 3.683632e+00 4.174628e+00
      vertex 4.040137e+00 2.970688e+00 4.665802e+00
    endloop
  endfacet
  facet normal 5.803324e-01 4.836103e-01 -6.552369e-01
    outer loop
      vertex 3.327160e+00 2.495370e+00 3.683513e+00
      vertex 4.040137e+00 2.970688e+00 4.665802e+00
      vertex 4.277763e+00 2.020052e+00 4.174628e+00
    endloop
  endfacet
  facet normal 4.835230e-01 8.703143e-01 -9.358743e-02
    outer loop
      vertex 3.327160e+00 2.495370e+00 3.683513e+00
      vertex 4.277763e+00 2.020052e+00 4.174628e+00
      vertex 4.515422e+00 1.782393e+00 3.192397e+00
    endloop
  endfacet
  facet normal 3.128538e-01 8.342101e-01 -4.541101e-01
    outer loop
      vertex 3.327160e+00 2.495370e+00 3.683513e+00
      vertex 4.515422e+00 1.782393e+00 3.192397e+00
      vertex 3.802478e+00 1.782393e+00 2.701223e+00
    endloop
  endfacet
  facet normal -4.836103e-01 5.803324e-01 -6.552369e-01
    outer loop
      vertex 3.327160e+00 2.495370e+00 3.683513e+00
      vertex 3.802478e+00 1.782393e+00 2.701223e+00
      vertex 2.851842e+00 1.544767e+00 3.192397e+00
    endloop
  endfacet
  facet normal 8.703143e-01 4.835230e-01 9.358743e-02
    outer loop
      vertex 5.181041e-16 4.158950e+00 5.156918e+00
      vertex 4.753181e-01 3.208347e+00 5.648033e+00
      vertex 7.129771e-01 2.970688e+00 4.665802e+00
    endloop
  endfacet
  facet normal 8.342101e-01 3.128538e-01 4.541101e-01
    outer loop
      vertex 5.181041e-16 4.158950e+00 5.156918e+00
      vertex 7.129771e-01 2.970688e+00 4.665802e+00
      vertex 7.129771e-01 3.683632e+00 4.174628e+00
    endloop
  endfacet
  facet normal 5.803324e-01 -4.836103e-01 6.552369e-01
    outer loop
      vertex 5.181041e-16 4.158950e+00 5.156918e+00
      vertex 7.129771e-01 3.683632e+00 4.174628e+00
      vertex 9.506029e-01 4.634268e+00 4.665802e+00
    endloop
  endfacet
  facet normal 4.835230e-01 -8.703143e-01 9.358743e-02
    outer loop
      vertex 5.181041e-16 4.158950e+00 5.156918e+00
      vertex 9.506029e-01 4.634268e+00 4.665802e+00
      vertex 1.188262e+00 4.871927e+00 5.648033e+00
    endloop
  endfacet
  facet normal 3.128538e-01 -8.342101e-01 4.541101e-01
    outer loop
      vertex 5.181041e-16 4.158950e+00 5.156918e+00
      vertex 1.188262e+00 4.871927e+00 5.648033e+00
      vertex 4.753181e-01 4.871927e+00 6.139207e+00
    endloop
  endfacet
  facet normal -4.836103e-01 -5.803324e-01 6.552369e-01
    outer loop
      vertex 5.181041e-16 4.158950e+00 5.156918e+00
      vertex 4.753181e-01 4.871927e+00 6.139207e+00
      vertex -4.753181e-01 5.109553e+00 5.648033e+00
    endloop
  endfacet
  facet normal -8.703143e-01 -4.835230e-01 9.358743e-02
    outer loop
      vertex 5.181041e-16 4.158950e+00 5.156918e+00
      vertex -4.753181e-01 5.109553e+00 5.648033e+00
      vertex -7.129771e-01 5.347212e+00 4.665802e+00
    endloop
  endfacet
  facet normal -8.342101e-01 -3.128538e-01 4.541101e-01
    outer loop
      vertex 5.181041e-16 4.158950e+00 5.156918e+00
      vertex -7.129771e-01 5.347212e+00 4.665802e+00
      vertex -7.129771e-01 4.634268e+00 4.174628e+00
    endloop
  endfacet
  facet normal -5.803324e-01 4.836103e-01 6.552369e-01
    outer loop
      vertex 5.181041e-16 4.158950e+00 5.156918e+00
      vertex -7.129771e-01 4.634268e+00 4.174628e+00
      vertex -9.506029e-01 3.683632e+00 4.665802e+00
    endloop
  endfacet
  facet normal -4.835230e-01 8.703143e-01 9.358743e-02
    outer loop
      vertex 5.181041e-16 4.158950e+00 5.156918e+00
      vertex -9.506029e-01 3.683632e+00 4.665802e+00
      vertex -1.188262e+00 3.445973e+00 5.648033e+00
    endloop
  endfacet
  facet normal -3.128538e-01 8.342101e-01 4.541101e-01
    outer loop
      vertex 5.181041e-16 4.158950e+00 5.156918e+00
      vertex -1.188262e+00 3.445973e+00 5.648033e+00
      vertex -4.753181e-01 3.445973e+00 6.139207e+00
    endloop
  endfacet
  facet normal 4.836103e-01 5.803324e-01 6.552369e-01
    outer loop
      vertex 5.181041e-16 4.158950e+00 5.156918e+00
      vertex -4.753181e-01 3.445973e+00 6.139207e+00
      vertex 4.753181e-01 3.208347e+00 5.648033e+00
    endloop
  endfacet
  facet normal 8.703143e-01 -4.835230e-01 -9.358743e-02
    outer loop
      vertex 3.327160e+00 4.158950e+00 2.210108e+00
      vertex 2.851842e+00 3.208347e+00 2.701223e+00
      vertex 2.614183e+00 2.970688e+00 1.718992e+00
    endloop
  endfacet
  facet normal 8.342101e-01 -3.128538e-01 -4.541101e-01
    outer loop
      vertex 3.327160e+00 4.158950e+00 2.210108e+00
      vertex 2.614183e+00 2.970688e+00 1.718992e+00
      vertex 2.614183e+00 3.683632e+00 1.227818e+00
    endloop
  endfacet
  facet normal 5.803324e-01 4.836103e-01 -6.552369e-01
    outer loop
      vertex 3.327160e+00 4.158950e+00 2.210108e+00
      vertex 2.614183e+00 3.683632e+00 1.227818e+00
      vertex 2.376557e+00 4.634268e+00 1.718992e+00
    endloop
  endfacet
  facet normal 4.835230e-01 8.703143e-01 -9.358743e-02
    outer loop
      vertex 3.327160e+00 4.158950e+00 2.210108e+00
      vertex 2.376557e+00 4.634268e+00 1.718992e+00
      vertex 2.138898e+00 4.871927e+00 2.701223e+00
    endloop
  endfacet
  facet normal 3.128538e-01 8.342101e-01 -4.541101e-01
    outer loop
      vertex 3.327160e+00 4.158950e+00 2.210108e+00
      vertex 2.138898e+00 4.871927e+00 2.701223e+00
      vertex 2.851842e+00 4.871927e+00 3.192397e+00
    endloop
  endfacet
  facet normal -4.836103e-01 5.803324e-01 -6.552369e-01
    outer loop
      vertex 3.327160e+00 4.158950e+00 2.210108e+00
      vertex 2.851842e+00 4.871927e+00 3.192397e+00
      vertex 3.802478e+00 5.109553e+00 2.701223e+00
    endloop
  endfacet
  facet normal -8.703143e-01 4.835230e-01 -9.358743e-02
    outer loop
      vertex 3.327160e+00 4.158950e+00 2.210108e+00
      vertex 3.802478e+00 5.109553e+00 2.701223e+00
      vertex 4.040137e+00 5.347212e+00 1.718992e+00
    endloop
  endfacet
  facet normal -8.342101e-01 3.128538e-01 -4.541101e-01
    outer loop
      vertex 3.327160e+00 4.158950e+00 2.210108e+00
      vertex 4.040137e+00 5.347212e+00 1.718992e+00
      vertex 4.040137e+00 4.634268e+00 1.227818e+00
    endloop
  endfacet
  facet normal -5.803324e-01 -4.836103e-01 -6.552369e-01
    outer loop
      vertex 3.327160e+00 4.158950e+00 2.210108e+00
      vertex 4.040137e+00 4.634268e+00 1.227818e+00
      vertex 4.277763e+00 3.683632e+00 1.718992e+00
    endloop
  endfacet
  facet normal -4.835230e-01 -8.703143e-01 -9.358743e-02
    outer loop
      vertex 3.327160e+00 4.158950e+00 2.210108e+00
      vertex 4.277763e+00 3.683632e+00 1.718992e+00
      vertex 4.515422e+00 3.445973e+00 2.701223e+00
    endloop
  endfacet
  facet normal -3.128538e-01 -8.342101e-01 -4.541101e-01
    outer loop
      vertex 3.327160e+00 4.158950e+00 2.210108e+00
      vertex 4.515422e+00 3.445973e+00 2.701223e+00
      vertex 3.802478e+00 3.445973e+00 3.192397e+00
    endloop
  endfacet
  facet normal 4.836103e-01 -5.803324e-01 -6.552369e-01
    outer loop
      vertex 3.327160e+00 4.158950e+00 2.210108e+00
      vertex 3.802478e+00 3.445973e+00 3.192397e+00
      vertex 2.851842e+00 3.208347e+00 2.701223e+00
    endloop
  endfacet
  facet normal -8.703143e-01 -4.835230e-01 9.358743e-02
    outer loop
      vertex 1.663580e+00 4.158950e+00 3.683513e+00
      vertex 2.138898e+00 3.208347e+00 3.192397e+00
      vertex 2.376557e+00 2.970688e+00 4.174628e+00
    endloop
  endfacet
  facet normal -8.342101e-01 -3.128538e-01 4.541101e-01
    outer loop
      vertex 1.663580e+00 4.158950e+00 3.683513e+00
      vertex 2.376557e+00 2.970688e+00 4.174628e+00
      vertex 2.376557e+00 3.683632e+00 4.665802e+00
    endloop
  endfacet
  facet normal -5.803324e-01 4.836103e-01 6.552369e-01
    outer loop
      vertex 1.663580e+00 4.158950e+00 3.683513e+00
      vertex 2.376557e+00 3.683632e+00 4.665802e+00
      vertex 2.614183e+00 4.634268e+00 4.174628e+00
    endloop
  endfacet
  facet normal -4.835230e-01 8.703143e-01 9.358743e-02
    outer loop
      vertex 1.663580e+00 4.158950e+00 3.683513e+00
      vertex 2.614183e+00 4.634268e+00 4.174628e+00
      vertex 2.851842e+00 4.871927e+00 3.192397e+00
    endloop
  endfacet
  facet normal -3.128538e-01 8.342101e-01 4.541101e-01
    outer loop
      vertex 1.663580e+00 4.158950e+00 3.683513e+00
      vertex 2.851842e+00 4.871927e+00 3.192397e+00
      vertex 2.138898e+00 4.871927e+00 2.701223e+00
    endloop
  endfacet
  facet normal 4.836103e-01 5.803324e-01 6.552369e-01
    outer loop
      vertex 1.663580e+00 4.158950e+00 3.683513e+00
      vertex 2.138898e+00 4.871927e+00 2.701223e+00
      vertex 1.188262e+00 5.109553e+00 3.192397e+00
    endloop
  endfacet
  facet normal 8.703143e-01 4.835230e-01 9.358743e-02
    outer loop
      vertex 1.663580e+00 4.158950e+00 3.683513e+00
      vertex 1.188262e+00 5.109553e+00 3.192397e+00
      vertex 9.506029e-01 5.347212e+00 4.174628e+00
    endloop
  endfacet
  facet normal 8.342101e-01 3.128538e-01 4.541101e-01
    outer loop
      vertex 1.663580e+00 4.158950e+00 3.683513e+00
      vertex 9.506029e-01 5.347212e+00 4.174628e+00
      vertex 9.506029e-01 4.634268e+00 4.665802e+00
    endloop
  endfacet
  facet normal 5.803324e-01 -4.836103e-01 6.552369e-01
    outer loop
      vertex 1.663580e+00 4.158950e+00 3.683513e+00
      vertex 9.506029e-01 4.634268e+00 4.665802e+00
      vertex 7.129771e-01 3.683632e+00 4.174628e+00
    endloop
  endfacet
  facet normal 4.835230e-01 -8.703143e-01 9.358743e-02
    outer loop
      vertex 1.663580e+00 4.158950e+00 3.683513e+00
      vertex 7.129771e-01 3.683632e+00 4.174628e+00
      vertex 4.753181e-01 3.445973e+00 3.192397e+00
    endloop
  endfacet
  facet normal 3.128538e-01 -8.342101e-01 4.541101e-01
    outer loop
      vertex 1.663580e+00 4.158950e+00 3.683513e+00
      vertex 4.753181e-01 3.445973e+00 3.192397e+00
      vertex 1.188262e+00 3.445973e+00 2.701223e+00
    endloop
  endfacet
  facet normal -4.836103e-01 -5.803324e-01 6.552369e-01
    outer loop
      vertex 1.663580e+00 4.158950e+00 3.683513e+00
      vertex 1.188262e+00 3.445973e+00 2.701223e+00
      vertex 2.138898e+00 3.208347e+00 3.192397e+00
    endloop
  endfacet
  facet normal -4.836103e-01 -5.803324e-01 6.552369e-01
    outer loop
      vertex 0.000000e+00 8.317900e-01 -7.367025e-01
      vertex 4.753181e-01 1.544767e+00 2.455871e-01
      vertex -4.753181e-01 1.782393e+00 -2.455871e-01
    endloop
  endfacet
  facet normal -8.703143e-01 -4.835230e-01 9.358743e-02
    outer loop
      vertex 0.000000e+00 8.317900e-01 -7.367025e-01
      vertex -4.753181e-01 1.782393e+00 -2.455871e-01
      vertex -7.129771e-01 2.020052e+00 -1.227818e+00
    endloop
  endfacet
  facet normal -8.342101e-01 -3.128538e-01 4.541101e-01
    outer loop
      vertex 0.000000e+00 8.317900e-01 -7.367025e-01
      vertex -7.129771e-01 2.020052e+00 -1.227818e+00
      vertex -7.129771e-01 1.307108e+00 -1.718992e+00
    endloop
  endfacet
  facet normal -5.803324e-01 4.836103e-01 6.552369e-01
    outer loop
      vertex 0.000000e+00 8.317900e-01 -7.367025e-01
      vertex -7.129771e-01 1.307108e+00 -1.718992e+00
      vertex -9.506029e-01 3.564719e-01 -1.227818e+00
    endloop
  endfacet
  facet normal -4.835230e-01 8.703143e-01 9.358743e-02
    outer loop
      vertex 0.000000e+00 8.317900e-01 -7.367025e-01
      vertex -9.506029e-01 3.564719e-01 -1.227818e+00
      vertex -1.188262e+00 1.188129e-01 -2.455871e-01
    endloop
  endfacet
  facet normal -3.128538e-01 8.342101e-01 4.541101e-01
    outer loop
      vertex 0.000000e+00 8.317900e-01 -7.367025e-01
      vertex -1.188262e+00 1.188129e-01 -2.455871e-01
      vertex -4.753181e-01 1.188129e-01 2.455871e-01
    endloop
  endfacet
  facet normal 4.836103e-01 5.803324e-01 6.552369e-01
    outer loop
      vertex 0.000000e+00 8.317900e-01 -7.367025e-01
      vertex -4.753181e-01 1.188129e-01 2.455871e-01
      vertex 4.753181e-01 -1.188129e-01 -2.455871e-01
    endloop
  endfacet
  facet normal 8.703143e-01 4.835230e-01 9.358743e-02
    outer loop
      vertex 0.000000e+00 8.317900e-01 -7.367025e-01
      vertex 4.753181e-01 -1.188129e-01 -2.455871e-01
      vertex 7.129771e-01 -3.564719e-01 -1.227818e+00
    endloop
  endfacet
  facet normal 8.342101e-01 3.128538e-01 4.541101e-01
    outer loop
      vertex 0.000000e+00 8.317900e-01 -7.367025e-01
      vertex 7.129771e-01 -3.564719e-01 -1.227818e+00
      vertex 7.129771e-01 3.564719e-01 -1.718992e+00
    endloop
  endfacet
  facet normal 5.803324e-01 -4.836103e-01 6.552369e-01
    outer loop
      vertex 0.000000e+00 8.317900e-01 -7.367025e-01
      vertex 7.129771e-01 3.564719e-01 -1.718992e+00
      vertex 9.506029e-01 1.307108e+00 -1.227818e+00
    endloop
  endfacet
  facet normal 4.835230e-01 -8.703143e-01 9.358743e-02
    outer loop
      vertex 0.000000e+00 8.317900e-01 -7.367025e-01
      vertex 9.506029e-01 1.307108e+00 -1.227818e+00
      vertex 1.188262e+00 1.544767e+00 -2.455871e-01
    endloop
  endfacet
  facet normal 3.128538e-01 -8.342101e-01 4.541101e-01
    outer loop
      vertex 0.000000e+00 8.317900e-01 -7.367025e-01
      vertex 1.188262e+00 1.544767e+00 -2.455871e-01
      vertex 4.753181e-01 1.544767e+00 2.455871e-01
    endloop
  endfacet
  facet normal -4.836103e-01 -5.803324e-01 6.552369e-01
    outer loop
      vertex 3.327160e+00 2.495370e+00 6.630323e+00
      vertex 2.851842e+00 1.782393e+00 5.648033e+00
      vertex 3.802478e+00 1.544767e+00 6.139207e+00
    endloop
  endfacet
  facet normal -8.703143e-01 -4.835230e-01 9.358743e-02
    outer loop
      vertex 3.327160e+00 2.495370e+00 6.630323e+00
      vertex 3.802478e+00 1.544767e+00 6.139207e+00
      vertex 4.040137e+00 1.307108e+00 7.121438e+00
    endloop
  endfacet
  facet normal -8.342101e-01 -3.128538e-01 4.541101e-01
    outer loop
      vertex 3.327160e+00 2.495370e+00 6.630323e+00
      vertex 4.040137e+00 1.307108e+00 7.121438e+00
      vertex 4.040137e+00 2.020052e+00 7.612612e+00
    endloop
  endfacet
  facet normal -5.803324e-01 4.836103e-01 6.552369e-01
    outer loop
      vertex 3.327160e+00 2.495370e+00 6.630323e+00
      vertex 4.040137e+00 2.020052e+00 7.612612e+00
      vertex 4.277763e+00 2.970688e+00 7.121438e+00
    endloop
  endfacet
  facet normal -4.835230e-01 8.703143e-01 9.358743e-02
    outer loop
      vertex 3.327160e+00 2.495370e+00 6.630323e+00
      vertex 4.277763e+00 2.970688e+00 7.121438e+00
      vertex 4.515422e+00 3.208347e+00 6.139207e+00
    endloop
  endfacet
  facet normal -3.128538e-01 8.342101e-01 4.541101e-01
    outer loop
      vertex 3.327160e+00 2.495370e+00 6.630323e+00
      vertex 4.515422e+00 3.208347e+00 6.139207e+00
      vertex 3.802478e+00 3.208347e+00 5.648033e+00
    endloop
  endfacet
  facet normal 4.836103e-01 5.803324e-01 6.552369e-01
    outer loop
      vertex 3.327160e+00 2.495370e+00 6.630323e+00
      vertex 3.802478e+00 3.208347e+00 5.648033e+00
      vertex 2.851842e+00 3.445973e+00 6.139207e+00
    endloop
  endfacet
  facet normal 8.703143e-01 4.835230e-01 9.358743e-02
    outer loop
      vertex 3.327160e+00 2.495370e+00 6.630323e+00
      vertex 2.851842e+00 3.445973e+00 6.139207e+00
      vertex 2.614183e+00 3.683632e+00 7.121438e+00
    endloop
  endfacet
  facet normal 8.342101e-01 3.128538e-01 4.541101e-01
    outer loop
      vertex 3.327160e+00 2.495370e+00 6.630323e+00
      vertex 2.614183e+00 3.683632e+00 7.121438e+00
      vertex 2.614183e+00 2.970688e+00 7.612612e+00
    endloop
  endfacet
  facet normal 5.803324e-01 -4.836103e-01 6.552369e-01
    outer loop
      vertex 3.327160e+00 2.495370e+00 6.630323e+00
      vertex 2.614183e+00 2.970688e+00 7.612612e+00
      vertex 2.376557e+00 2.020052e+00 7.121438e+00
    endloop
  endfacet
  facet normal 4.835230e-01 -8.703143e-01 9.358743e-02
    outer loop
      vertex 3.327160e+00 2.495370e+00 6.630323e+00
      vertex 2.376557e+00 2.020052e+00 7.121438e+00
      vertex 2.138898e+00 1.782393e+00 6.139207e+00
    endloop
  endfacet
  facet normal 3.128538e-01 -8.342101e-01 4.541101e-01
    outer loop
      vertex 3.327160e+00 2.495370e+00 6.630323e+00
      vertex 2.138898e+00 1.782393e+00 6.139207e+00
      vertex 2.851842e+00 1.782393e+00 5.648033e+00
    endloop
  endfacet
  facet normal 4.836103e-01 -5.803324e-01 -6.552369e-01
    outer loop
      vertex 1.663580e+00 2.495370e+00 -7.367025e-01
      vertex 2.138898e+00 1.782393e+00 2.455871e-01
      vertex 1.188262e+00 1.544767e+00 -2.455871e-01
    endloop
  endfacet
  facet normal 8.703143e-01 -4.835230e-01 -9.358743e-02
    outer loop
      vertex 1.663580e+00 2.495370e+00 -7.367025e-01
      vertex 1.188262e+00 1.544767e+00 -2.455871e-01
      vertex 9.506029e-01 1.307108e+00 -1.227818e+00
    endloop
  endfacet
  facet normal 8.342101e-01 -3.128538e-01 -4.541101e-01
    outer loop
      vertex 1.663580e+00 2.495370e+00 -7.367025e-01
      vertex 9.506029e-01 1.307108e+00 -1.227818e+00
      vertex 9.506029e-01 2.020052e+00 -1.718992e+00
    endloop
  endfacet
  facet normal 5.803324e-01 4.836103e-01 -6.552369e-01
    outer loop
      vertex 1.663580e+00 2.495370e+00 -7.367025e-01
      vertex 9.506029e-01 2.020052e+00 -1.718992e+00
      vertex 7.129771e-01 2.970688e+00 -1.227818e+00
    endloop
  endfacet
  facet normal 4.835230e-01 8.703143e-01 -9.358743e-02
    outer loop
      vertex 1.663580e+00 2.495370e+00 -7.367025e-01
      vertex 7.129771e-01 2.970688e+00 -1.227818e+00
      vertex 4.753181e-01 3.208347e+00 -2.455871e-01
    endloop
  endfacet
  facet normal 3.128538e-01 8.342101e-01 -4.541101e-01
    outer loop
      vertex 1.663580e+00 2.495370e+00 -7.367025e-01
      vertex 4.753181e-01 3.208347e+00 -2.455871e-01
      vertex 1.188262e+00 3.208347e+00 2.455871e-01
    endloop
  endfacet
  facet normal -4.836103e-01 5.803324e-01 -6.552369e-01
    outer loop
      vertex 1.663580e+00 2.495370e+00 -7.367025e-01
      vertex 1.188262e+00 3.208347e+00 2.455871e-01
      vertex 2.138898e+00 3.445973e+00 -2.455871e-01
    endloop
  endfacet
  facet normal -8.703143e-01 4.835230e-01 -9.358743e-02
    outer loop
      vertex 1.663580e+00 2.495370e+00 -7.367025e-01
      vertex 2.138898e+00 3.445973e+00 -2.455871e-01
      vertex 2.376557e+00 3.683632e+00 -1.227818e+00
    endloop
  endfacet
  facet normal -8.342101e-01 3.128538e-01 -4.541101e-01
    outer loop
      vertex 1.663580e+00 2.495370e+00 -7.367025e-01
      vertex 2.376557e+00 3.683632e+00 -1.227818e+00
      vertex 2.376557e+00 2.970688e+00 -1.718992e+00
    endloop
  endfacet
  facet normal -5.803324e-01 -4.836103e-01 -6.552369e-01
    outer loop
      vertex 1.663580e+00 2.495370e+00 -7.367025e-01
      vertex 2.376557e+00 2.970688e+00 -1.718992e+00
      vertex 2.614183e+00 2.020052e+00 -1.227818e+00
    endloop
  endfacet
  facet normal -4.835230e-01 -8.703143e-01 -9.358743e-02
    outer loop
      vertex 1.663580e+00 2.495370e+00 -7.367025e-01
      vertex 2.614183e+00 2.020052e+00 -1.227818e+00
      vertex 2.851842e+00 1.782393e+00 -2.455871e-01
    endloop
  endfacet
  facet normal -3.128538e-01 -8.342101e-01 -4.541101e-01
    outer loop
      vertex 1.663580e+00 2.495370e+00 -7.367025e-01
      vertex 2.851842e+00 1.782393e+00 -2.455871e-01
      vertex 2.138898e+00 1.782393e+00 2.455871e-01
    endloop
  endfacet
  facet normal 4.836103e-01 -5.803324e-01 -6.552369e-01
    outer loop
      vertex 1.663580e+00 8.317900e-01 6.630323e+00
      vertex 1.188262e+00 1.544767e+00 5.648033e+00
      vertex 2.138898e+00 1.782393e+00 6.139207e+00
    endloop
  endfacet
  facet normal 8.703143e-01 -4.835230e-01 -9.358743e-02
    outer loop
      vertex 1.663580e+00 8.317900e-01 6.630323e+00
      vertex 2.138898e+00 1.782393e+00 6.139207e+00
      vertex 2.376557e+00 2.020052e+00 7.121438e+00
    endloop
  endfacet
  facet normal 8.342101e-01 -3.128538e-01 -4.541101e-01
    outer loop
      vertex 1.663580e+00 8.317900e-01 6.630323e+00
      vertex 2.376557e+00 2.020052e+00 7.121438e+00
      vertex 2.376557e+00 1.307108e+00 7.612612e+00
    endloop
  endfacet
  facet normal 5.803324e-01 4.836103e-01 -6.552369e-01
    outer loop
      vertex 1.663580e+00 8.317900e-01 6.630323e+00
      vertex 2.376557e+00 1.307108e+00 7.612612e+00
      vertex 2.614183e+00 3.564719e-01 7.121438e+00
    endloop
  endfacet
  facet normal 4.835230e-01 8.703143e-01 -9.358743e-02
    outer loop
      vertex 1.663580e+00 8.317900e-01 6.630323e+00
      vertex 2.614183e+00 3.564719e-01 7.121438e+00
      vertex 2.851842e+00 1.188129e-01 6.139207e+00
    endloop
  endfacet
  facet normal 3.128538e-01 8.342101e-01 -4.541101e-01
    outer loop
      vertex 1.663580e+00 8.317900e-01 6.630323e+00
      vertex 2.851842e+00 1.188129e-01 6.139207e+00
      vertex 2.138898e+00 1.188129e-01 5.648033e+00
    endloop
  endfacet
  facet normal -4.836103e-01 5.803324e-01 -6.552369e-01
    outer loop
      vertex 1.663580e+00 8.317900e-01 6.630323e+00
      vertex 2.138898e+00 1.188129e-01 5.648033e+00
      vertex 1.188262e+00 -1.188129e-01 6.139207e+00
    endloop
  endfacet
  facet normal -8.703143e-01 4.835230e-01 -9.358743e-02
    outer loop
      vertex 1.663580e+00 8.317900e-01 6.630323e+00
      vertex 1.188262e+00 -1.188129e-01 6.139207e+00
      vertex 9.506029e-01 -3.564719e-01 7.121438e+00
    endloop
  endfacet
  facet normal -8.342101e-01 3.128538e-01 -4.541101e-01
    outer loop
      vertex 1.663580e+00 8.317900e-01 6.630323e+00
      vertex 9.506029e-01 -3.564719e-01 7.121438e+00
      vertex 9.506029e-01 3.564719e-01 7.612612e+00
    endloop
  endfacet
  facet normal -5.803324e-01 -4.836103e-01 -6.552369e-01
    outer loop
      vertex 1.663580e+00 8.317900e-01 6.630323e+00
      vertex 9.506029e-01 3.564719e-01 7.612612e+00
      vertex 7.129771e-01 1.307108e+00 7.121438e+00
    endloop
  endfacet
  facet normal -4.835230e-01 -8.703143e-01 -9.358743e-02
    outer loop
      vertex 1.663580e+00 8.317900e-01 6.630323e+00
      vertex 7.129771e-01 1.307108e+00 7.121438e+00
      vertex 4.753181e-01 1.544767e+00 6.139207e+00
    endloop
  endfacet
  facet normal -3.128538e-01 -8.342101e-01 -4.541101e-01
    outer loop
      vertex 1.663580e+00 8.317900e-01 6.630323e+00
      vertex 4.753181e-01 1.544767e+00 6.139207e+00
      vertex 1.188262e+00 1.544767e+00 5.648033e+00
    endloop
  endfacet
  facet normal 4.836103e-01 5.803324e-01 6.552369e-01
    outer loop
      vertex 3.327160e+00 8.317900e-01 -7.367025e-01
      vertex 2.851842e+00 1.188129e-01 2.455871e-01
      vertex 3.802478e+00 -1.188129e-01 -2.455871e-01
    endloop
  endfacet
  facet normal 8.703143e-01 4.835230e-01 9.358743e-02
    outer loop
      vertex 3.327160e+00 8.317900e-01 -7.367025e-01
      vertex 3.802478e+00 -1.188129e-01 -2.455871e-01
      vertex 4.040137e+00 -3.564719e-01 -1.227818e+00
    endloop
  endfacet
  facet normal 8.342101e-01 3.128538e-01 4.541101e-01
    outer loop
      vertex 3.327160e+00 8.317900e-01 -7.367025e-01
      vertex 4.040137e+00 -3.564719e-01 -1.227818e+00
      vertex 4.040137e+00 3.564719e-01 -1.718992e+00
    endloop
  endfacet
  facet normal 5.803324e-01 -4.836103e-01 6.552369e-01
    outer loop
      vertex 3.327160e+00 8.317900e-01 -7.367025e-01
      vertex 4.040137e+00 3.564719e-01 -1.718992e+00
      vertex 4.277763e+00 1.307108e+00 -1.227818e+00
    endloop
  endfacet
  facet normal 4.835230e-01 -8.703143e-01 9.358743e-02
    outer loop
      vertex 3.327160e+00 8.317900e-01 -7.367025e-01
      vertex 4.277763e+00 1.307108e+00 -1.227818e+00
      vertex 4.515422e+00 1.544767e+00 -2.455871e-01
    endloop
  endfacet
  facet normal 3.128538e-01 -8.342101e-01 4.541101e-01
    outer loop
      vertex 3.327160e+00 8.317900e-01 -7.367025e-01
      vertex 4.515422e+00 1.544767e+00 -2.455871e-01
      vertex 3.802478e+00 1.544767e+00 2.455871e-01
    endloop
  endfacet
  facet normal -4.836103e-01 -5.803324e-01 6.552369e-01
    outer loop
      vertex 3.327160e+00 8.317900e-01 -7.367025e-01
      vertex 3.802478e+00 1.544767e+00 2.455871e-01
      vertex 2.851842e+00 1.782393e+00 -2.455871e-01
    endloop
  endfacet
  facet normal -8.703143e-01 -4.835230e-01 9.358743e-02
    outer loop
      vertex 3.327160e+00 8.317900e-01 -7.367025e-01
      vertex 2.851842e+00 1.782393e+00 -2.455871e-01
      vertex 2.614183e+00 2.020052e+00 -1.227818e+00
    endloop
  endfacet
  facet normal -8.342101e-01 -3.128538e-01 4.541101e-01
    outer loop
      vertex 3.327160e+00 8.317900e-01 -7.367025e-01
      vertex 2.614183e+00 2.020052e+00 -1.227818e+00
      vertex 2.614183e+00 1.307108e+00 -1.718992e+00
    endloop
  endfacet
  facet normal -5.803324e-01 4.836103e-01 6.552369e-01
    outer loop
      vertex 3.327160e+00 8.317900e-01 -7.367025e-01
      vertex 2.614183e+00 1.307108e+00 -1.718992e+00
      vertex 2.376557e+00 3.564719e-01 -1.227818e+00
    endloop
  endfacet
  facet normal -4.835230e-01 8.703143e-01 9.358743e-02
    outer loop
      vertex 3.327160e+00 8.317900e-01 -7.367025e-01
      vertex 2.376557e+00 3.564719e-01 -1.227818e+00
      vertex 2.138898e+00 1.188129e-01 -2.455871e-01
    endloop
  endfacet
  facet normal -3.128538e-01 8.342101e-01 4.541101e-01
    outer loop
      vertex 3.327160e+00 8.317900e-01 -7.367025e-01
      vertex 2.138898e+00 1.188129e-01 -2.455871e-01
      vertex 2.851842e+00 1.188129e-01 2.455871e-01
    endloop
  endfacet
  facet normal 4.836103e-01 5.803324e-01 6.552369e-01
    outer loop
      vertex 5.366078e-16 2.495370e+00 6.630323e+00
      vertex 4.753181e-01 3.208347e+00 5.648033e+00
      vertex -4.753181e-01 3.445973e+00 6.139207e+00
    endloop
  endfacet
  facet normal 8.703143e-01 4.835230e-01 9.358743e-02
    outer loop
      vertex 5.366078e-16 2.495370e+00 6.630323e+00
      vertex -4.753181e-01 3.445973e+00 6.139207e+00
      vertex -7.129771e-01 3.683632e+00 7.121438e+00
    endloop
  endfacet
  facet normal 8.342101e-01 3.128538e-01 4.541101e-01
    outer loop
      vertex 5.366078e-16 2.495370e+00 6.630323e+00
      vertex -7.129771e-01 3.683632e+00 7.121438e+00
      vertex -7.129771e-01 2.970688e+00 7.612612e+00
    endloop
  endfacet
  facet normal 5.803324e-01 -4.836103e-01 6.552369e-01
    outer loop
      vertex 5.366078e-16 2.495370e+00 6.630323e+00
      vertex -7.129771e-01 2.970688e+00 7.612612e+00
      vertex -9.506029e-01 2.020052e+00 7.121438e+00
    endloop
  endfacet
  facet normal 4.835230e-01 -8.703143e-01 9.358743e-02
    outer loop
      vertex 5.366078e-16 2.495370e+00 6.630323e+00
      vertex -9.506029e-01 2.020052e+00 7.121438e+00
      vertex -1.188262e+00 1.782393e+00 6.139207e+00
    endloop
  endfacet
  facet normal 3.128538e-01 -8.342101e-01 4.541101e-01
    outer loop
      vertex 5.366078e-16 2.495370e+00 6.630323e+00
      vertex -1.188262e+00 1.782393e+00 6.139207e+00
      vertex -4.753181e-01 1.782393e+00 5.648033e+00
    endloop
  endfacet
  facet normal -4.836103e-01 -5.803324e-01 6.552369e-01
    outer loop
      vertex 5.366078e-16 2.495370e+00 6.630323e+00
      vertex -4.753181e-01 1.782393e+00 5.648033e+00
      vertex 4.753181e-01 1.544767e+00 6.139207e+00
    endloop
  endfacet
  facet normal -8.703143e-01 -4.835230e-01 9.358743e-02
    outer loop
      vertex 5.366078e-16 2.495370e+00 6.630323e+00
      vertex 4.753181e-01 1.544767e+00 6.139207e+00
      vertex 7.129771e-01 1.307108e+00 7.121438e+00
    endloop
  endfacet
  facet normal -8.342101e-01 -3.128538e-01 4.541101e-01
    outer loop
      vertex 5.366078e-16 2.495370e+00 6.630323e+00
      vertex 7.129771e-01 1.307108e+00 7.121438e+00
      vertex 7.129771e-01 2.020052e+00 7.612612e+00
    endloop
  endfacet
  facet normal -5.803324e-01 4.836103e-01 6.552369e-01
    outer loop
      vertex 5.366078e-16 2.495370e+00 6.630323e+00
      vertex 7.129771e-01 2.020052e+00 7.612612e+00
      vertex 9.506029e-01 2.970688e+00 7.121438e+00
    endloop
  endfacet
  facet normal -4.835230e-01 8.703143e-01 9.358743e-02
    outer loop
      vertex 5.366078e-16 2.495370e+00 6.630323e+00
      vertex 9.506029e-01 2.970688e+00 7.121438e+00
      vertex 1.188262e+00 3.208347e+00 6.139207e+00
    endloop
  endfacet
  facet normal -3.128538e-01 8.342101e-01 4.541101e-01
    outer loop
      vertex 5.366078e-16 2.495370e+00 6.630323e+00
      vertex 1.188262e+00 3.208347e+00 6.139207e+00
      vertex 4.753181e-01 3.208347e+00 5.648033e+00
    endloop
  endfacet
endsolid surface_model
